<?xml version="1.0" ?><svg id="Layer_1" style="enable-background:new 0 0 50 50;" version="1.1" viewBox="0 0 50 50" xml:space="preserve" xmlns="http://www.w3.org/2000/svg" xmlns:xlink="http://www.w3.org/1999/xlink"><style type="text/css">
	.st0{fill:#B7C5FD;}
	.st1{fill:#9AADFD;}
	.st2{fill:#FFFFFF;}
	.st3{fill:#3955D1;}
	.st4{fill:#4466FB;}
	.st5{fill:#AABAFD;}
	.st6{fill:#798FFE;}
	.st7{fill:#6BB5FB;}
	.st8{enable-background:new    ;}
	.st9{fill:#1B2A4F;}
	.st10{fill:url(#);}
	.st11{fill:#384E85;}
	.st12{fill:#2E4277;}
	.st13{fill:#D9DDF6;}
	.st14{fill:#535D88;}
	.st15{fill:#2B3C67;}
	.st16{fill:#8FCCFF;}
	.st17{fill:#8CA1FD;}
	.st18{opacity:0.3;}
	.st19{opacity:0.3;fill:#4466FB;}
	.st20{opacity:0.2;}
</style><g><g><g><g><path class="st12" d="M22.45862,37.09455l-0.00506,1.17267c-0.00048,0.20247-0.13353,0.40445-0.39915,0.55872l-5.96655,3.46751      c-0.53485,0.31069-1.40474,0.31094-1.94297,0l-6.0056-3.46727c-0.27092-0.15643-0.40614-0.36155-0.40566-0.56667      l0.00506-1.17146c0,0.2044,0.13522,0.40928,0.40542,0.56522l6.0056,3.46751c0.53847,0.3107,1.40836,0.3107,1.94321-0.00024      l5.96655-3.46727C22.32509,37.49877,22.45814,37.29678,22.45862,37.09455z"/><path class="st11" d="M22.0531,36.52785c0.53831,0.31079,0.54115,0.81458,0.00633,1.12538l-5.96659,3.4674      c-0.53481,0.3108-1.4047,0.31089-1.94301,0.0001L8.1442,37.65339c-0.53831-0.31079-0.541-0.81467-0.00618-1.12547      l5.96659-3.46741c0.53481-0.3108,1.40455-0.3108,1.94286-0.00001L22.0531,36.52785z"/><g><path class="st12" d="M19.71953,36.84168c0.23812,0.13748,0.23921,0.36027,0.00264,0.49775l-4.1788,2.42845       c-0.23657,0.13748-0.62119,0.13758-0.85931,0.0001l-4.20613-2.42841c-0.23812-0.13748-0.23937-0.36036-0.0028-0.49784       l4.1788-2.42846c0.23657-0.13748,0.62135-0.13748,0.85947,0L19.71953,36.84168z"/></g></g></g></g><g><g><g class="st8"><g><polygon class="st3" points="10.3486,3.34799 10.34686,6.58233 7.73584,8.09968 7.73758,4.86535      "/></g><g><polygon class="st4" points="7.73758,4.86535 7.73584,8.09968 5.10534,6.58096 5.10708,3.34663      "/></g><g><polygon class="st7" points="10.3486,3.34799 7.73758,4.86535 5.10708,3.34663 7.71809,1.82927      "/></g></g></g></g><g><g><g><g><polygon class="st11" points="14.65391,25.92724 14.7175,26.00572 15.09599,25.79717 13.56021,23.917 14.58189,23.78759        14.62096,23.76579 14.68532,23.84427 15.06304,23.63573 13.52152,21.74717 14.58879,21.61201 14.62786,21.59021        14.69146,21.66869 15.06994,21.46014 13.52765,19.57158 14.59492,19.43643 14.634,19.41463 14.69835,19.49311        15.07607,19.28456 13.53454,17.39601 14.60181,17.26085 14.64088,17.23904 14.70448,17.31752 15.08296,17.10898        13.54068,15.22042 14.60794,15.08527 14.64701,15.06347 14.71137,15.14194 15.08909,14.9334 13.54757,13.04484        14.61484,12.90969 14.65391,12.88788 14.7175,12.96636 15.09599,12.75781 13.4495,10.7421 13.07178,10.94991        14.54741,12.75781 13.37672,12.90605 12.999,13.11459 13.26792,13.08044 13.10243,13.17128 14.54128,14.9334        13.37059,15.08163 12.9921,15.29018 13.26102,15.25603 13.0963,15.34686 14.53439,17.10898 13.36369,17.25721        12.98597,17.46576 13.2549,17.43161 13.0894,17.52244 14.52826,19.28456 13.35756,19.43279 12.97907,19.64134 13.248,19.60719        13.08328,19.69802 14.52136,21.46014 13.35067,21.60838 12.97295,21.81692 13.24187,21.78277 13.07638,21.8736        14.51524,23.63573 13.38208,23.77959 13.00436,23.98742 13.09634,23.97576 13.07178,23.98927 14.54741,25.79717        13.37672,25.94541 12.999,26.15396 13.26792,26.11981 13.10243,26.21064 14.54128,27.97276 13.37059,28.12099        12.9921,28.32954 13.26102,28.29539 13.0963,28.38622 14.53439,30.14834 13.36369,30.29658 12.98597,30.50512        13.2549,30.47097 13.0894,30.5618 14.52826,32.32393 13.35756,32.47215 12.97907,32.68071 13.248,32.64656 13.08328,32.73738        14.52136,34.4995 13.35067,34.64774 12.97295,34.85629 13.24187,34.82214 13.07638,34.91297 14.51524,36.67508        13.38208,36.81896 13.00436,37.02678 14.58189,36.82695 14.62096,36.80515 14.68532,36.88363 15.06304,36.67508        13.52152,34.78653 14.58879,34.65137 14.62786,34.62957 14.69146,34.70805 15.06994,34.4995 13.52765,32.61095        14.59492,32.47579 14.634,32.45399 14.69835,32.53247 15.07607,32.32393 13.53454,30.43537 14.60181,30.30021        14.64088,30.27841 14.70448,30.35689 15.08296,30.14834 13.54068,28.25978 14.60794,28.12463 14.64701,28.10283        14.71137,28.18131 15.08909,27.97276 13.54757,26.0842 14.61484,25.94905      "/><polygon class="st11" points="16.91243,34.8562 16.64279,34.822 16.8088,34.91295 15.36945,36.67516 16.5027,36.81896        16.88077,37.02651 15.30324,36.82674 15.26389,36.80497 15.1996,36.88348 14.82153,36.67516 16.36356,34.78624        15.29652,34.65099 15.25718,34.62922 15.19385,34.70773 14.81482,34.49941 16.35781,32.61127 15.2898,32.47602        15.25142,32.45425 15.18713,32.53276 14.80906,32.32366 16.35013,30.43553 15.28309,30.30027 15.24375,30.27851        15.18041,30.35702 14.80234,30.14869 16.34437,28.25978 15.27733,28.12453 15.23799,28.10276 15.17369,28.18127        14.79562,27.97294 16.33765,26.08403 15.27061,25.94878 15.23127,25.92702 15.16794,26.00552 14.78891,25.7972        16.32518,23.91684 15.30324,23.7878 15.26389,23.76604 15.1996,23.84455 14.82153,23.63544 16.36356,21.74731        15.29652,21.61206 15.25718,21.59029 15.19385,21.6688 14.81482,21.46048 16.35781,19.57157 15.2898,19.43631        15.25142,19.41454 15.18713,19.49306 14.80906,19.28473 16.35013,17.39582 15.28309,17.26056 15.24375,17.2388        15.18041,17.31731 14.80234,17.10899 16.34437,15.22007 15.27733,15.08559 15.23799,15.06383 15.17369,15.14156        14.79562,14.93324 16.33765,13.0451 15.27061,12.90985 15.23127,12.88808 15.16794,12.96659 14.78891,12.75749        16.43553,10.74187 16.8136,10.9502 15.33778,12.75749 16.50846,12.90596 16.88557,13.11429 16.61689,13.08008        16.78289,13.17103 15.34354,14.93324 16.51422,15.08171 16.89325,15.29003 16.62361,15.25583 16.78865,15.34678        15.35026,17.10899 16.52093,17.25745 16.899,17.46578 16.63032,17.43157 16.79537,17.52252 15.35698,19.28473        16.52765,19.43242 16.90572,19.64152 16.63704,19.60732 16.80209,19.69827 15.36369,21.46048 16.53436,21.60817        16.91243,21.81727 16.64279,21.78307 16.8088,21.87324 15.36945,23.63544 16.5027,23.77925 16.88077,23.98758        16.78961,23.97592 16.8136,23.98913 15.33778,25.7972 16.50846,25.94567 16.88557,26.154 16.61689,26.11979 16.78289,26.21074        15.34354,27.97294 16.51422,28.12064 16.89325,28.32974 16.62361,28.29554 16.78865,28.38648 15.35026,30.14869        16.52093,30.29638 16.899,30.50549 16.63032,30.47128 16.79537,30.56146 15.35698,32.32366 16.52765,32.47213        16.90572,32.68045 16.63704,32.64626 16.80209,32.7372 15.36369,34.49941 16.53436,34.64788      "/><g><g><g><g class="st8"><g><polygon class="st9" points="14.7179,26.00552 13.10295,26.21074 14.71118,28.18127 13.09623,28.38648 14.70447,30.35624             13.08951,30.56223 14.69775,32.53199 13.0828,32.73798 14.69199,34.70773 13.07704,34.91295 14.68528,36.88348             13.03194,37.09336 13.00411,37.02729 14.58164,36.82674 12.97244,34.8562 14.58836,34.65099 12.97916,32.68045             14.59508,32.47602 12.98588,30.50549 14.6018,30.30027 12.9926,28.32974 14.60755,28.12453 12.99931,26.154             14.61427,25.94878 13.06456,24.04976 13.03194,24.05365 13.00411,23.98758 14.58164,23.7878 12.97244,21.81727             14.58836,21.61206 12.97916,19.64152 14.59508,19.43631 12.98588,17.46578 14.6018,17.26056 12.9926,15.29003             14.60755,15.08482 12.99931,13.11506 14.61427,12.90985 13.04346,10.98518 13.07128,10.9502 14.7179,12.96581             13.10295,13.17181 14.71118,15.14156 13.09623,15.34678 14.70447,17.31731 13.08951,17.52252 14.69775,19.49306             13.0828,19.69827 14.69199,21.66802 13.07704,21.87402 14.68528,23.84377 13.11446,24.04276           "/></g></g></g></g><g><g><g class="st8"><g><polygon class="st9" points="16.91243,34.8562 15.30324,36.82674 16.88077,37.02729 16.85294,37.09336 15.1996,36.88348             16.8088,34.91295 15.19289,34.70773 16.80209,32.73798 15.18713,32.53199 16.79537,30.56223 15.18041,30.35624             16.78865,28.38648 15.17369,28.18127 16.78193,26.21074 15.16698,26.00552 16.77042,24.04276 15.1996,23.84377             16.8088,21.87402 15.19289,21.66802 16.80209,19.69827 15.18713,19.49306 16.79537,17.52252 15.18041,17.31731             16.78865,15.34678 15.17369,15.14156 16.78193,13.17181 15.16698,12.96581 16.8136,10.9502 16.84239,10.98518             15.27061,12.90985 16.88653,13.11506 15.27733,15.08482 16.89229,15.29003 15.28405,17.26056 16.899,17.46578             15.2898,19.43631 16.90572,19.64152 15.29652,21.61206 16.91243,21.81727 15.30324,23.7878 16.88077,23.98758             16.85294,24.05365 16.82128,24.04976 15.27061,25.94878 16.88653,26.154 15.27733,28.12453 16.89229,28.32974             15.28405,30.30027 16.899,30.50549 15.2898,32.47602 16.90572,32.68045 15.29652,34.65099           "/></g></g></g></g></g><g><g><g><g class="st8"><g><polygon class="st11" points="14.63646,23.6379 14.94252,23.49382 15.24946,23.63738 14.94341,23.78146           "/></g></g></g><g><g class="st8"><g><polygon class="st11" points="16.45261,22.78292 16.75866,22.63884 17.0656,22.78239 16.75955,22.92648           "/></g><g><polygon class="st12" points="16.75917,24.27192 16.75917,37.7035 16.45009,37.56044 16.45009,24.12883           "/></g></g></g><g><g class="st8"><g><polygon class="st11" points="13.43243,22.78292 13.12637,22.63884 12.81943,22.78239 13.12548,22.92648           "/></g></g></g></g></g><g><g><g class="st8"><g><polygon class="st9" points="15.25068,10.59778 15.25068,38.63401 14.94164,38.78303 14.94164,10.74083          "/></g><g><polygon class="st11" points="14.63646,10.59854 14.94252,10.45446 15.24946,10.59801 14.94341,10.74209          "/></g><g><polygon class="st12" points="14.94164,10.74083 14.94164,38.78303 14.63261,38.63401 14.63997,10.59778          "/></g></g></g><g><g class="st8"><g><polygon class="st9" points="17.0682,9.74538 17.0682,37.56044 16.75917,37.7035 16.75917,9.88844          "/></g><g><polygon class="st11" points="16.45261,9.74355 16.75866,9.59947 17.0656,9.74303 16.75955,9.88711          "/></g><g><polygon class="st12" points="16.75917,9.88844 16.75917,24.27192 16.45009,24.12883 16.45009,9.74538          "/></g></g></g><g><g class="st8"><g><polygon class="st9" points="13.12417,9.88844 13.12417,37.7035 12.82245,37.56044 12.82245,9.74538          "/></g><g><polygon class="st11" points="13.43243,9.74355 13.12637,9.59947 12.81943,9.74303 13.12548,9.88711          "/></g><g><polygon class="st12" points="13.4332,9.74538 13.4332,37.56044 13.12417,37.7035 13.12417,9.88844          "/></g></g></g></g></g></g></g><g><g><g class="st8"><polygon class="st17" points="14.95455,9.19655 14.95241,12.03462 18.12056,10.19349 18.1227,7.35542      "/><g><polygon class="st0" points="14.95452,9.19657 14.95241,12.03465 11.76062,10.19187 11.76272,7.35379       "/></g><g><polygon class="st13" points="18.12267,7.35544 14.95452,9.19657 11.76272,7.35379 14.93088,5.51266       "/></g></g></g></g></g><g><path class="st0" d="M23.11566,15.23344c0.12156-0.07065,0.28984-0.06078,0.47541,0.04636l21.01912,12.13539    c0.37027,0.21378,0.66882,0.73088,0.66761,1.15462l-0.03587,17.3775c-0.00059,0.21029-0.07491,0.3584-0.19487,0.42813    l-0.87581,0.50896c0.11997-0.06971,0.19428-0.21782,0.19488-0.42813l0.03587-17.3775    c0.00119-0.42374-0.29736-0.94085-0.66763-1.15462L22.71525,15.78876c-0.18557-0.10714-0.35385-0.117-0.47541-0.04636    L23.11566,15.23344z"/><g><path class="st1" d="M22.71526,15.78876c-0.36877-0.21291-0.66927-0.04166-0.67047,0.38208l-0.03587,17.3775     c-0.0012,0.42374,0.29735,0.94085,0.66612,1.15376L43.69415,46.8375c0.37027,0.21378,0.67078,0.04253,0.67197-0.38121     l0.03587-17.3775c0.0012-0.42374-0.29735-0.94085-0.66762-1.15463L22.71526,15.78876z"/></g><g><g><polygon class="st13" points="22.87446,18.29161 22.84483,33.83867 43.5298,45.78114 43.55943,30.23408     "/></g></g><g><g><path class="st2" d="M25.41798,18.28033c-0.18939-0.10934-0.34359-0.02147-0.3442,0.19615      c-0.00062,0.21762,0.15258,0.48183,0.34197,0.59118c0.1884,0.10877,0.34259,0.02204,0.34321-0.19559      C25.75958,18.65444,25.60638,18.3891,25.41798,18.28033z"/></g><g><path class="st2" d="M23.21866,17.0108c-0.18939-0.10934-0.34359-0.02147-0.3442,0.19615      c-0.00062,0.21762,0.15258,0.48183,0.34197,0.59117c0.1884,0.10877,0.34259,0.02204,0.34321-0.19558      C23.56026,17.38492,23.40706,17.11957,23.21866,17.0108z"/></g><g><path class="st2" d="M24.31832,17.64544c-0.18939-0.10934-0.34359-0.02147-0.3442,0.19615      c-0.00062,0.21762,0.15258,0.48183,0.34197,0.59117c0.18939,0.10935,0.34259,0.02204,0.34321-0.19558      C24.65992,18.01956,24.50772,17.75478,24.31832,17.64544z"/></g></g></g><g><g><g><g><g class="st8"><g><path class="st11" d="M32.60081,25.22895l0.25019,0.14539c0.15643-0.04904,0.29627-0.03769,0.40577,0.02595l-0.25019-0.14539         C32.89708,25.19126,32.75725,25.1799,32.60081,25.22895z"/><polygon class="st11" points="32.47366,26.00175 32.46768,23.66927 32.84619,23.45074 32.59599,23.30535 32.21749,23.52388          32.22347,25.85636        "/></g></g></g><g><path class="st13" d="M33.12336,26.15359c-0.0004-0.14393-0.05146-0.24519-0.13359-0.29291l-0.2502-0.1454       c0.08216,0.04775,0.13319,0.14898,0.13359,0.29291c0.00055,0.19019-0.09212,0.40373-0.22391,0.57278       c0.07315,0.06232,0.13967,0.13544,0.19312,0.22184C33.0076,26.62745,33.12397,26.37209,33.12336,26.15359z"/></g><g><path class="st9" d="M33.50074,25.9357c-0.0013-0.45444-0.27889-0.67763-0.64973-0.56134l-0.00484-1.92362l-0.3785,0.21852       l0.00599,2.33251l0.18924-0.10929c0.25271-0.1459,0.45963-0.02926,0.46046,0.26112       c0.00064,0.2185-0.11574,0.47385-0.28099,0.64921c0.06546,0.10583,0.10684,0.22042,0.127,0.3347       C33.28066,26.81775,33.5019,26.34286,33.50074,25.9357z"/></g></g><g><g class="st8"><g><path class="st13" d="M33.19012,27.35506l-0.33029,0.19344c-0.0802,0.0472-0.19347,0.03775-0.31612-0.03303        c-0.24537-0.14155-0.44353-0.48598-0.43883-0.7691c0-0.13682,0.0472-0.2312,0.1274-0.27837l0.33029-0.19347        c-0.0802,0.0472-0.1274,0.14157-0.1274,0.2784c0,0.28309,0.19816,0.62755,0.44353,0.7691        C33.00138,27.39281,33.10989,27.40223,33.19012,27.35506z"/><path class="st7" d="M39.11047,30.07537l-0.00945,4.18047c-0.00472,0.21233-0.07548,0.36332-0.19816,0.42936l-0.33029,0.19347        c0.11796-0.06607,0.19347-0.21706,0.19347-0.42939l0.01414-4.18047c0-0.42464-0.29726-0.94367-0.67-1.16073l-11.12353-6.42202        c-0.18402-0.10379-0.35388-0.11324-0.47656-0.04245l0.33501-0.19347c0.12268-0.07079,0.28781-0.06134,0.47184,0.04248        l11.12353,6.42202C38.81321,29.13169,39.11047,29.6507,39.11047,30.07537z"/></g><g><path class="st4" d="M38.10859,29.10968c0.37353,0.21566,0.67076,0.73403,0.66956,1.15981l-0.01184,4.17815        c-0.00122,0.42922-0.3004,0.59981-0.67394,0.38414l-11.1227-6.42169c-0.36755-0.21221-0.66786-0.72891-0.66665-1.15813        l0.01184-4.17816c0.00121-0.42578,0.30347-0.59803,0.67102-0.38583L38.10859,29.10968z M32.54411,27.51626        c0.24706,0.14264,0.44353,0.02381,0.44432-0.25655c0.00079-0.28045-0.19439-0.61851-0.44144-0.76115        c-0.24399-0.14087-0.44344-0.03064-0.44423,0.24981C32.10197,27.02873,32.30013,27.37539,32.54411,27.51626"/></g></g></g><path class="st11" d="M32.64925,26.58096c-0.06944,0.08905-0.14635,0.16925-0.23353,0.21959     c-0.06652,0.03839-0.13063,0.05722-0.18938,0.0601l0.0091-0.00921l-0.2502-0.1454l-0.35313,0.35779     c0.04245,0.10379,0.10753,0.18002,0.18875,0.22722l0.2502,0.1454c-0.08121-0.0472-0.1463-0.12343-0.18875-0.22722     l0.31252-0.31667l0.14434,0.08389c0.08519,0.0495,0.20263,0.04112,0.32672-0.03053     c0.06258-0.03611,0.12211-0.08545,0.17648-0.14313C32.78893,26.7164,32.7224,26.64328,32.64925,26.58096z"/><path class="st9" d="M32.6659,26.94596c-0.18926,0.10926-0.36301,0.07133-0.43045-0.09452l-0.35316,0.35779     c0.12346,0.30175,0.43809,0.37055,0.78485,0.17034c0.10693-0.06174,0.2083-0.14558,0.30224-0.24208     c-0.02016-0.11427-0.06154-0.22886-0.127-0.3347C32.78801,26.86048,32.72848,26.90981,32.6659,26.94596z"/></g><g><g><polygon class="st2" points="27.22161,25.39334 27.20604,27.85994 38.07689,34.13623 38.09247,31.66963     "/></g></g><g><g><g><path class="st2" d="M37.79149,29.92321c-0.16717-0.09652-0.30327-0.01895-0.30382,0.17314s0.13468,0.4253,0.30185,0.52181       c0.16629,0.09601,0.30239,0.01945,0.30294-0.17264S37.95779,30.01922,37.79149,29.92321z"/></g><g><path class="st2" d="M35.85022,28.80264c-0.16717-0.09652-0.30327-0.01895-0.30382,0.17314s0.13468,0.4253,0.30185,0.52181       c0.16629,0.09601,0.30239,0.01945,0.30294-0.17264C36.15173,29.13286,36.01651,28.89865,35.85022,28.80264z"/></g><g><path class="st2" d="M36.82085,29.36281c-0.16717-0.09652-0.30327-0.01895-0.30382,0.17314s0.13468,0.4253,0.30185,0.52181       s0.30239,0.01945,0.30294-0.17264S36.98803,29.45933,36.82085,29.36281z"/></g></g></g></g><g><g><g><g><g><g><g class="st8"><g><polygon class="st9" points="33.7031,23.03964 34.41364,22.62672 33.49566,24.25749 32.78513,24.6704          "/></g><g><polygon class="st9" points="33.08193,21.55494 33.79247,21.14203 34.41364,22.62672 33.7031,23.03964          "/></g><g><polygon class="st11" points="31.51783,20.65191 32.22837,20.23899 33.79247,21.14203 33.08193,21.55494          "/></g><g><polygon class="st12" points="33.08193,21.55494 33.7031,23.03964 32.78513,24.6704 31.79388,24.09811 30.89028,21.41566            31.51783,20.65191          "/></g></g></g></g><g><g class="st8"><path class="st12" d="M32.9235,18.19823c0.01891,0.01937,0.01891,0.03782,0,0.07564v2.63007         c0,0.03782-0.01891,0.07472-0.05662,0.11346c-0.11335,0.05627-0.26451,0.05627-0.35895,0         c-0.05673-0.03874-0.07564-0.07564-0.07564-0.11346v-2.68633c0-0.03782,0.01891-0.07564,0.07564-0.11346         c0.09444-0.05627,0.2456-0.05627,0.35895,0C32.9235,18.14197,32.94241,18.16042,32.9235,18.19823z"/></g></g></g></g></g></g><g><g><polygon class="st9" points="32.88628,17.78564 33.79247,17.25902 33.78983,18.18698 32.88365,18.71359    "/></g><g><polygon class="st11" points="4.72483,1.52662 5.63101,1 33.79247,17.25902 32.88628,17.78564    "/></g><g><polygon class="st12" points="32.88628,17.78564 32.88365,18.71359 4.72219,2.45457 4.72483,1.52662    "/></g></g><g><g><g class="st8"><g><path class="st4" d="M27.20478,43.6504v1.14552c0,0.10543-0.0703,0.20383-0.20383,0.28816l-3.41545,1.98177       c-0.27409,0.15463-0.71684,0.15463-0.99792,0l-3.42952-1.98177c-0.14056-0.08433-0.21082-0.18976-0.21082-0.29519       l0.00699-1.14552c0,0.10543,0.0703,0.21087,0.20383,0.2952l3.43655,1.97478c0.27405,0.16162,0.72383,0.16162,0.99089,0.00703       l3.41545-1.98885C27.14151,43.85423,27.20478,43.75584,27.20478,43.6504z"/></g><g><path class="st7" d="M26.99587,43.35734c0.27818,0.16061,0.27965,0.41967,0.00772,0.57769l-3.41466,1.98438       c-0.27193,0.15803-0.71917,0.15802-0.99735-0.00259l-3.43252-1.98176c-0.27371-0.15803-0.27518-0.41708-0.00325-0.57511       l3.41466-1.98438c0.27192-0.15802,0.71917-0.15802,0.99288,0L26.99587,43.35734z"/></g><g><polygon class="st2" points="23.52633,42.49734 24.34019,44.34268 21.15176,43.87729      "/></g></g></g></g><g><g><g class="st8"><g><path class="st17" d="M36.66872,45.46858v1.14552c0,0.10543-0.0703,0.20383-0.20383,0.28816l-3.41545,1.98177       c-0.27409,0.15463-0.71684,0.15463-0.99792,0L28.622,46.90226c-0.14056-0.08433-0.21082-0.18976-0.21082-0.2952       l0.00699-1.14552c0,0.10543,0.0703,0.21087,0.20383,0.29519l3.43655,1.97478c0.27405,0.16162,0.72383,0.16162,0.99089,0.00703       l3.41545-1.98885C36.60545,45.67241,36.66872,45.57401,36.66872,45.46858z"/></g><g><path class="st0" d="M36.45982,45.17552c0.27818,0.16061,0.27965,0.41967,0.00772,0.57769l-3.41466,1.98438       c-0.27193,0.15803-0.71917,0.15802-0.99735-0.00258l-3.43252-1.98177c-0.27371-0.15802-0.27518-0.41708-0.00325-0.57511       l3.41466-1.98438c0.27193-0.15802,0.71917-0.15802,0.99288,0L36.45982,45.17552z"/></g></g></g></g><g><path class="st7" d="M27.84153,30.8412l-2.8033-1.6185c-0.35728-0.20621-0.80388,0.05108-0.80466,0.46356l-0.00537,2.79812    c-0.00072,0.38406,0.20385,0.73918,0.53644,0.93118l2.8033,1.6185c0.35728,0.20628,0.80388-0.05101,0.80466-0.46356    l0.00537-2.79812C28.37869,31.38838,28.17412,31.0332,27.84153,30.8412z"/><path class="st4" d="M34.13926,34.47722l-2.8033-1.6185c-0.35728-0.20621-0.80388,0.05108-0.80467,0.46356l-0.00537,2.79813    c-0.00072,0.38406,0.20385,0.73918,0.53644,0.93118l2.8033,1.6185c0.35728,0.20628,0.80388-0.05101,0.80466-0.46356    l0.00537-2.79812C34.67642,35.02441,34.47185,34.66922,34.13926,34.47722z"/><path class="st3" d="M40.43699,38.11325l-2.8033-1.6185c-0.35728-0.20621-0.80388,0.05107-0.80467,0.46356l-0.00537,2.79812    c-0.00072,0.38406,0.20385,0.73918,0.53644,0.93118l2.8033,1.6185c0.35728,0.20627,0.80388-0.05101,0.80467-0.46356    l0.00537-2.79813C40.97415,38.66043,40.76958,38.30525,40.43699,38.11325z"/></g></g></svg>