<?xml version="1.0" ?><svg id="Layer_1" style="enable-background:new 0 0 50 50;" version="1.1" viewBox="0 0 50 50" xml:space="preserve" xmlns="http://www.w3.org/2000/svg" xmlns:xlink="http://www.w3.org/1999/xlink"><style type="text/css">
	.st0{fill:#B7C5FD;}
	.st1{fill:#9AADFD;}
	.st2{fill:#FFFFFF;}
	.st3{fill:#3955D1;}
	.st4{fill:#4466FB;}
	.st5{fill:#AABAFD;}
	.st6{fill:#798FFE;}
	.st7{fill:#6BB5FB;}
	.st8{enable-background:new    ;}
	.st9{fill:#1B2A4F;}
	.st10{fill:url(#);}
	.st11{fill:#384E85;}
	.st12{fill:#2E4277;}
	.st13{fill:#D9DDF6;}
	.st14{fill:#535D88;}
	.st15{fill:#2B3C67;}
	.st16{fill:#8FCCFF;}
	.st17{fill:#8CA1FD;}
	.st18{opacity:0.3;}
	.st19{opacity:0.3;fill:#4466FB;}
	.st20{opacity:0.2;}
</style><g><g><g><g><g><g class="st8"><g><path class="st6" d="M42.04718,35.13001l0.00002,6.98687c-0.00711,1.75883-1.65714,3.51505-4.95382,4.85718         c-6.63502,2.70121-17.42967,2.70127-24.10815,0.00008c-3.36115-1.35946-5.0396-3.14381-5.03239-4.9254l-0.00002-6.98687         c-0.00721,1.78158,1.67124,3.56593,5.03239,4.92539c6.67848,2.70119,17.47313,2.70113,24.10815-0.00008         C40.39005,38.64506,42.04007,36.88884,42.04718,35.13001z"/></g><ellipse class="st17" cx="24.99998" cy="35.0959" rx="6.91737" ry="17.04716" transform="matrix(0.00158 -1 1 0.00158 -10.13539 60.04037)"/><g><path class="st0" d="M41.6232,33.60848c0.40963,1.9175-1.17625,3.88958-4.77996,5.35665         c-6.49776,2.64524-17.06917,2.6458-23.60952,0c-3.64651-1.47479-5.26495-3.4601-4.8628-5.38697         c-1.21609,2.23506,0.31312,4.6697,4.6143,6.40913c6.67847,2.70148,17.47309,2.70093,24.10818,0         C41.34716,38.25558,42.84441,35.83527,41.6232,33.60848z"/></g></g></g><g><g class="st8"><g><path class="st3" d="M40.7129,25.83374l0.00002,6.44001c-0.00656,1.62117-1.52743,3.23993-4.56609,4.47701         c-6.1157,2.48979-16.06545,2.48984-22.22121,0.00007c-3.09808-1.25306-4.64515-2.89775-4.63851-4.53989L9.2871,25.77094         c-0.00665,1.64214,1.54043,3.28683,4.63851,4.53988c6.15575,2.48977,16.10551,2.48972,22.2212-0.00007         C39.18547,29.07367,40.70634,27.45491,40.7129,25.83374z"/></g><g><path class="st6" d="M42.04718,21.54089l0.00002,6.98687c-0.00711,1.75883-1.65714,3.51505-4.95382,4.85718         c-6.63502,2.70121-17.42967,2.70127-24.10815,0.00008c-3.36115-1.35946-5.0396-3.14381-5.03239-4.92539l-0.00002-6.98687         c-0.00721,1.78158,1.67124,3.56593,5.03239,4.92539c6.67848,2.70119,17.47313,2.70114,24.10815-0.00008         C40.39005,25.05594,42.04007,23.29972,42.04718,21.54089z"/></g><ellipse class="st17" cx="24.99998" cy="21.50677" rx="6.91737" ry="17.04716" transform="matrix(0.00158 -1 1 0.00158 3.45372 46.47273)"/><g><path class="st0" d="M41.6232,20.01936c0.40963,1.9175-1.17625,3.88958-4.77996,5.35665         c-6.49776,2.64525-17.06917,2.6458-23.60952,0c-3.64651-1.47479-5.26495-3.4601-4.8628-5.38697         c-1.21609,2.23506,0.31312,4.6697,4.6143,6.40913c6.67847,2.70148,17.47309,2.70093,24.10818,0         C41.34716,24.66645,42.84441,22.24615,41.6232,20.01936z"/></g></g></g><g><g class="st8"><g><path class="st3" d="M40.7129,12.24462l0.00002,6.44001c-0.00656,1.62117-1.52743,3.23993-4.56609,4.47701         c-6.1157,2.48979-16.06545,2.48984-22.22121,0.00007c-3.09808-1.25305-4.64515-2.89775-4.63851-4.53988L9.2871,12.18182         c-0.00665,1.64214,1.54043,3.28683,4.63851,4.53988c6.15575,2.48977,16.10551,2.48972,22.2212-0.00007         C39.18547,15.48455,40.70634,13.86579,40.7129,12.24462z"/></g><g><path class="st6" d="M42.04718,7.95177l0.00002,6.98687c-0.00711,1.75883-1.65714,3.51505-4.95382,4.85718         c-6.63502,2.70121-17.42967,2.70127-24.10815,0.00008c-3.36115-1.35946-5.0396-3.14381-5.03239-4.92539L7.95282,7.88363         c-0.00721,1.78158,1.67124,3.56594,5.03239,4.92539c6.67848,2.70119,17.47313,2.70113,24.10815-0.00008         C40.39005,11.46682,42.04007,9.7106,42.04718,7.95177z"/></g><ellipse class="st17" cx="24.99998" cy="7.91765" rx="6.91737" ry="17.04716" transform="matrix(0.00158 -1 1 0.00158 17.04282 32.90509)"/><g><path class="st0" d="M41.6232,6.43023c0.40963,1.9175-1.17625,3.88958-4.77996,5.35665         c-6.49776,2.64525-17.06917,2.6458-23.60952,0c-3.64651-1.47479-5.26495-3.4601-4.8628-5.38697         c-1.21609,2.23506,0.31312,4.6697,4.6143,6.40913c6.67847,2.70148,17.47309,2.70093,24.10818,0         C41.34716,11.07733,42.84441,8.65703,41.6232,6.43023z"/></g></g></g></g></g></g></g></svg>