<?xml version="1.0" ?><svg id="Layer_1" style="enable-background:new 0 0 50 50;" version="1.1" viewBox="0 0 50 50" xml:space="preserve" xmlns="http://www.w3.org/2000/svg" xmlns:xlink="http://www.w3.org/1999/xlink"><style type="text/css">
	.st0{fill:#B7C5FD;}
	.st1{fill:#9AADFD;}
	.st2{fill:#FFFFFF;}
	.st3{fill:#3955D1;}
	.st4{fill:#4466FB;}
	.st5{fill:#AABAFD;}
	.st6{fill:#798FFE;}
	.st7{fill:#6BB5FB;}
	.st8{enable-background:new    ;}
	.st9{fill:#1B2A4F;}
	.st10{fill:url(#);}
	.st11{fill:#384E85;}
	.st12{fill:#2E4277;}
	.st13{fill:#D9DDF6;}
	.st14{fill:#535D88;}
	.st15{fill:#2B3C67;}
	.st16{fill:#8FCCFF;}
	.st17{fill:#8CA1FD;}
	.st18{opacity:0.3;}
	.st19{opacity:0.3;fill:#4466FB;}
	.st20{opacity:0.2;}
</style><g><g><g><g><g><g><g><path class="st5" d="M2.76942,37.70081l17.41666,10.12146c0.36913,0.21532,0.96382,0.21532,1.33295,0.00342L47.98306,32.5447         c0.36913-0.2119,0.36913-0.5571,0-0.77242L30.56639,21.65084c-0.36571-0.2119-0.9604-0.2119-1.32953,0L2.77284,36.92841         C2.40371,37.14373,2.40029,37.48891,2.76942,37.70081z"/></g><g><path class="st12" d="M23.35059,38.72942c-0.20812,0.12016-0.2069,0.31592-0.00012,0.43608l4.29328,2.49498         c0.20676,0.12016,0.54473,0.12151,0.75285,0.00135l8.46034-4.88458c0.20812-0.12016,0.20689-0.31592,0.00012-0.43608         l-4.29328-2.49498c-0.20677-0.12016-0.54473-0.12151-0.75284-0.00135L23.35059,38.72942z"/></g><g><path class="st6" d="M2.496,37.31802l0.00342,1.0188c0,0.13672,0.09227,0.27684,0.27342,0.38279L20.1895,48.84107         c0.36913,0.2119,0.96382,0.2119,1.33295,0L47.98648,33.5635c0.18456-0.10595,0.27684-0.24607,0.27684-0.38963         l-0.00342-1.01538c0,0.14014-0.09227,0.28026-0.27684,0.38621L21.51903,47.82569         c-0.36913,0.2119-0.96382,0.2119-1.33295-0.00342L2.76942,37.70081C2.58487,37.59486,2.496,37.45816,2.496,37.31802z"/></g></g><g><g><path class="st9" d="M29.18533,1.49765c0.36878-0.21291,0.6687-0.042,0.66991,0.38176l0.04718,18.61863         c0.00119,0.42126-0.29678,0.93988-0.66556,1.15279L3.1542,36.70825c-0.36878,0.21291-0.66871,0.0395-0.66991-0.38176         L2.43711,17.70786c-0.0012-0.42376,0.29678-0.93988,0.66556-1.15279L29.18533,1.49765z"/></g><g><path class="st11" d="M1.73668,17.30204l0.04785,18.61792c0,0.20848,0.0752,0.35886,0.19482,0.42723L2.67889,36.754         c-0.11964-0.06834-0.19482-0.21872-0.19482-0.42723l-0.04785-18.6179c0-0.42383,0.29735-0.9399,0.66648-1.15522         L29.18548,1.49794c0.18457-0.10595,0.35204-0.11619,0.47508-0.04785l-0.69954-0.40681         c-0.11962-0.06836-0.2905-0.05812-0.47506,0.04783L2.40316,16.15025C2.03403,16.36215,1.73668,16.87824,1.73668,17.30204z"/></g><g><polygon class="st11" points="3.3785,17.48081 3.42389,35.46756 28.96102,20.72511 28.91563,2.73836        "/></g><g><polygon class="st5" points="3.3785,17.48081 3.38612,20.49771 28.92324,5.75526 28.91563,2.73836        "/></g><g><g><path class="st2" d="M24.70504,6.30753c0.2462-0.14214,0.44634-0.03296,0.44714,0.24993          c0.0008,0.28288-0.19805,0.62733-0.44425,0.76948c-0.24195,0.13969-0.44211,0.02561-0.44291-0.25727          C24.26421,6.78677,24.46308,6.44722,24.70504,6.30753z"/></g><g><path class="st2" d="M26.12703,5.48654c0.24195-0.13969,0.44209-0.03051,0.4429,0.25238          c0.0008,0.28288-0.19805,0.62733-0.44001,0.76702c-0.2462,0.14214-0.44635,0.02806-0.44715-0.25482          C25.68197,5.96823,25.88083,5.62868,26.12703,5.48654z"/></g><g><path class="st2" d="M27.54478,4.668c0.2462-0.14214,0.44634-0.03296,0.44714,0.24993          c0.0008,0.28288-0.19805,0.62733-0.44425,0.76948c-0.2462,0.14214-0.44635,0.02806-0.44715-0.25483          C27.09972,5.14969,27.29859,4.81014,27.54478,4.668z"/></g></g></g></g><g><g><polygon class="st11" points="8.11036,36.45138 6.43867,37.42286 5.71853,37.00709 7.39022,36.03561       "/></g><g><polygon class="st11" points="26.09766,25.9983 24.42368,26.97111 23.70354,26.55535 25.37752,25.58253       "/></g><g><polygon class="st11" points="30.59448,23.38503 28.9205,24.35785 28.20037,23.94208 29.87435,22.96926       "/></g><g><polygon class="st11" points="27.59419,29.46841 25.9225,30.43989 24.43608,29.5817 26.10777,28.61022       "/></g><g><polygon class="st11" points="35.83942,29.01929 34.16545,29.9921 32.6767,29.13257 34.35068,28.15976       "/></g><g><polygon class="st11" points="38.08899,27.71199 36.415,28.6848 33.05206,26.74321 34.72605,25.77039       "/></g><g class="st8"><g><polygon class="st11" points="32.4687,24.46711 29.38215,26.26081 27.89341,25.40129 30.97995,23.60758        "/></g><g><polygon class="st11" points="28.80887,26.59397 27.13488,27.56678 25.64614,26.70726 27.32012,25.73444        "/></g><g><polygon class="st11" points="34.34058,25.54784 30.41704,27.82795 28.93061,26.96976 32.85415,24.68965        "/></g><g><polygon class="st11" points="29.84375,28.16111 28.16977,29.13392 26.68334,28.27573 28.35732,27.30292        "/></g><g><polygon class="st11" points="31.71796,29.24319 30.04398,30.216 28.55524,29.35647 30.22922,28.38366        "/></g></g><g><polygon class="st11" points="26.55931,27.90127 24.88532,28.87409 23.39658,28.01456 25.07056,27.04175       "/></g><g><polygon class="st11" points="23.8481,27.3056 22.17641,28.27708 21.45627,27.86131 23.12797,26.88983       "/></g><g><polygon class="st11" points="21.60083,28.61157 19.92685,29.58438 19.20672,29.16862 20.8807,28.1958       "/></g><g><polygon class="st11" points="22.72432,34.46972 21.05033,35.44254 19.56159,34.58301 21.23557,33.6102       "/></g><g class="st8"><g><polygon class="st11" points="19.35127,29.91887 17.67958,30.89035 16.95945,30.47458 18.63114,29.5031        "/></g><g><polygon class="st11" points="22.06248,30.51454 20.39079,31.48602 18.90204,30.6265 20.57374,29.65502        "/></g><g><polygon class="st11" points="17.10401,31.22484 15.43002,32.19765 14.70989,31.78189 16.38388,30.80907        "/></g><g><polygon class="st11" points="19.81521,31.82051 18.14123,32.79332 16.65249,31.9338 18.32647,30.96098        "/></g><g><polygon class="st11" points="23.09737,32.08168 21.42568,33.05316 19.93925,32.19497 21.61094,31.22349        "/></g><g><polygon class="st11" points="14.85674,32.53081 13.18276,33.50362 12.46263,33.08785 14.13661,32.11504        "/></g><g><polygon class="st11" points="17.56795,33.12648 15.89396,34.09929 14.40522,33.23977 16.0792,32.26695        "/></g><g><polygon class="st11" points="24.97158,33.16376 23.29989,34.13523 21.81115,33.27571 23.48284,32.30423        "/></g><g><polygon class="st11" points="20.8501,33.38765 19.17612,34.36046 17.68969,33.50227 19.36368,32.52946        "/></g><g><polygon class="st11" points="12.60718,33.83811 10.9332,34.81092 10.21307,34.39515 11.88705,33.42234        "/></g><g><polygon class="st11" points="15.31839,34.43378 13.6444,35.40659 12.15566,34.54707 13.82965,33.57425        "/></g><g><polygon class="st11" points="18.60283,34.69361 16.92885,35.66643 15.44243,34.80824 17.11641,33.83543        "/></g><g><polygon class="st11" points="13.07112,35.73975 11.39714,36.71256 9.9084,35.85303 11.58238,34.88022        "/></g><g><polygon class="st11" points="20.47705,35.77569 18.80307,36.7485 17.31432,35.88898 18.98831,34.91617        "/></g><g><polygon class="st11" points="16.35328,36.00092 14.67929,36.97373 13.19287,36.11554 14.86685,35.14273        "/></g><g><polygon class="st11" points="18.22749,37.08299 16.5535,38.05581 15.06476,37.19628 16.73875,36.22347        "/></g><g><polygon class="st11" points="26.94209,34.18985 18.4277,39.13788 16.93896,38.27835 25.45335,33.33033        "/></g><g><polygon class="st11" points="15.98023,38.38896 14.30624,39.36177 12.8175,38.50225 14.49148,37.52943        "/></g><g><polygon class="st11" points="14.10601,37.30688 10.18476,39.58567 8.69833,38.72748 12.61959,36.4487        "/></g><g><polygon class="st11" points="13.73066,39.69626 12.05897,40.66774 10.57023,39.80822 12.24192,38.83674        "/></g><g><polygon class="st11" points="17.85442,39.47103 13.93317,41.74981 12.44443,40.89029 16.36568,38.6115        "/></g></g><g><polygon class="st11" points="10.35992,35.14408 8.68593,36.11689 7.9658,35.70112 9.63979,34.72831       "/></g><g><polygon class="st11" points="28.34492,24.69234 26.67094,25.66514 25.95081,25.24938 27.62479,24.27657       "/></g><g><polygon class="st11" points="24.31204,29.20724 22.63805,30.18005 21.14931,29.32053 22.8233,28.34772       "/></g><g><polygon class="st11" points="29.09534,32.93852 27.42135,33.91134 25.93261,33.05181 27.6066,32.079       "/></g><g><polygon class="st11" points="27.22114,31.85645 25.54716,32.82927 24.05841,31.96974 25.7324,30.99693       "/></g><g><polygon class="st11" points="25.34693,30.77438 23.67294,31.74719 22.18652,30.889 23.8605,29.91619       "/></g><g><polygon class="st11" points="33.59216,30.32526 31.91818,31.29807 30.42944,30.43854 32.10342,29.46573       "/></g><g><polygon class="st11" points="31.3426,31.63256 29.67091,32.60404 28.18217,31.74451 29.85386,30.77303       "/></g><g><polygon class="st11" points="10.82156,37.04705 8.31288,38.50494 6.82414,37.64541 9.33282,36.18752       "/></g></g></g></g></g><g><g><path class="st13" d="M5.75239,22.23503c0.32412-0.18713,0.51549-0.14618,0.65245-0.02211l-0.18398,0.29829     c-0.11766-0.11859-0.26871-0.10895-0.45323-0.00241c-0.37547,0.21677-0.6136,0.68853-0.61231,1.14209     c0.00128,0.45172,0.24132,0.6511,0.61678,0.43432c0.18452-0.10653,0.33512-0.27658,0.45173-0.52675l0.18507,0.08706     c-0.13581,0.2834-0.32632,0.54483-0.65044,0.73196c-0.5295,0.30571-0.88704,0.04305-0.88875-0.5617     C4.868,23.21103,5.22289,22.54074,5.75239,22.23503z"/></g><g><path class="st13" d="M6.94609,23.21718c0.10911-0.06299,0.20248-0.00979,0.20283,0.11559     c0.00036,0.12721-0.09241,0.28604-0.20152,0.34903c-0.11071,0.06392-0.20247,0.01163-0.20283-0.11558     C6.74422,23.44084,6.83538,23.2811,6.94609,23.21718z"/></g><g><ellipse class="st13" cx="6.94208" cy="21.80117" rx="0.28499" ry="0.16507" transform="matrix(0.50245 -0.8646 0.8646 0.50245 -15.39538 16.84926)"/></g><g><polygon class="st13" points="7.56003,20.37881 8.43977,22.86267 8.22315,22.98773 7.34341,20.50388    "/></g><g><polygon class="st13" points="9.27449,19.10273 10.81022,19.97974 9.28447,22.6243 9.03817,22.48394 10.32244,20.26136      9.02979,19.52655    "/></g><g><polygon class="st13" points="12.52509,19.98322 12.52696,20.64328 10.9208,21.5706 10.91893,20.91053    "/></g></g></g></svg>