<?xml version="1.0" ?><svg height="32px" version="1.1" viewBox="0 0 32 32" width="32px" xmlns="http://www.w3.org/2000/svg" xmlns:sketch="http://www.bohemiancoding.com/sketch/ns" xmlns:xlink="http://www.w3.org/1999/xlink"><title/><desc/><defs/><g fill="none" fill-rule="evenodd" id="Page-1" stroke="none" stroke-width="1"><g fill="#929292" id="icon-136-document-edit"><path d="M26.4432278,12.1503345 L15.1570131,23.4499064 L15.1570131,23.4499064 L12.5514465,20.8443397 L23.8435383,9.55064513 L26.4432278,12.1503345 L26.4432278,12.1503345 Z M27.1499164,11.4428096 L28.8790954,9.71158405 C29.269069,9.32114892 29.266195,8.68650423 28.8743,8.29568497 L27.6944866,7.11910998 C27.3018646,6.72756564 26.6692577,6.72452466 26.2779126,7.11592531 L24.5505949,8.84348817 L27.1499164,11.4428096 L27.1499164,11.4428096 Z M11.9037061,21.6108129 L11.2641602,24.7235103 L14.3990645,24.1061713 L11.9037061,21.6108129 L11.9037061,21.6108129 L11.9037061,21.6108129 Z M22,10 L22,10 L16,3 L5.00276013,3 C3.89666625,3 3,3.89833832 3,5.00732994 L3,27.9926701 C3,29.1012878 3.89092539,30 4.99742191,30 L20.0025781,30 C21.1057238,30 22,29.1017876 22,28.0092049 L22,18 L29.5801067,10.4198932 C30.3642921,9.63570785 30.3661881,8.36618809 29.5897496,7.58974962 L28.4102504,6.41025036 C27.6313906,5.6313906 26.372781,5.62721897 25.5801067,6.41989327 L22,10 L22,10 L22,10 Z M21,19 L21,28.0066023 C21,28.5550537 20.5523026,29 20.0000398,29 L4.9999602,29 C4.45470893,29 4,28.5543187 4,28.004543 L4,4.99545703 C4,4.45526288 4.44573523,4 4.9955775,4 L15,4 L15,8.99408095 C15,10.1134452 15.8944962,11 16.9979131,11 L21,11 L11,21 L10,26 L15,25 L21,19 L21,19 L21,19 Z M16,4.5 L16,8.99121523 C16,9.54835167 16.4506511,10 16.9967388,10 L20.6999512,10 L16,4.5 L16,4.5 Z" id="document-edit"/></g></g></svg>