<?xml version="1.0" ?><!DOCTYPE svg  PUBLIC '-//W3C//DTD SVG 1.1//EN'  'http://www.w3.org/Graphics/SVG/1.1/DTD/svg11.dtd'><svg enable-background="new 0 0 50 50" id="Layer_1" version="1.1" viewBox="0 0 50 50" xml:space="preserve" xmlns="http://www.w3.org/2000/svg" xmlns:xlink="http://www.w3.org/1999/xlink"><g><g><g><circle cx="24.9998" cy="24.9999" fill="#E7E3E6" r="23.27273"/></g><g><g><path d="M24.99997,49c-13.23343,0-24-10.76657-24-24s10.76657-24,24-24s24,10.76657,24,24      S38.2334,49,24.99997,49z M24.99997,2.45455C12.56815,2.45455,2.45452,12.56818,2.45452,25s10.11364,22.54546,22.54545,22.54546      S47.54543,37.43182,47.54543,25S37.43179,2.45455,24.99997,2.45455z" fill="#D2D2D2"/></g><g><path d="M24.99997,49c-7.79072,0-14.12879-10.76657-14.12879-24S17.20925,1,24.99997,1      c7.79025,0,14.12831,10.76657,14.12831,24S32.79022,49,24.99997,49z M24.99997,2.45455      c-6.98864,0-12.67424,10.11364-12.67424,22.54545s5.68561,22.54546,12.67424,22.54546      c6.98816,0,12.67377-10.11364,12.67377-22.54546S31.98813,2.45455,24.99997,2.45455z" fill="#D2D2D2"/></g><g><rect fill="#D2D2D2" height="46.54546" width="1.45455" x="24.2727" y="1.72727"/></g><g><path d="M24.99997,39.12831c-13.23343,0-24-6.33807-24-14.12831c0-7.79072,10.76657-14.12879,24-14.12879      s24,6.33807,24,14.12879C48.99997,32.79025,38.2334,39.12831,24.99997,39.12831z M24.99997,12.32576      C12.56815,12.32576,2.45452,18.01136,2.45452,25c0,6.98816,10.11364,12.67377,22.54545,12.67377S47.54543,31.98816,47.54543,25      C47.54543,18.01136,37.43179,12.32576,24.99997,12.32576z" fill="#D2D2D2"/></g><g><rect fill="#D2D2D2" height="1.45455" width="46.54546" x="1.72724" y="24.27273"/></g></g></g><g><path d="M48.27253,15.37993c0,6.49892-6.43774,11.58021-6.43774,11.58021s-6.43774-5.08129-6.43774-11.58021    c0-3.55546,2.88227-6.43774,6.43774-6.43774C45.39026,8.94219,48.27253,11.82447,48.27253,15.37993z" fill="#FFC966"/><circle cx="41.83479" cy="15.37993" fill="#FFFFFF" r="3.83097"/></g><g><path d="M14.76308,10.01486c0,6.49892-6.43774,11.58021-6.43774,11.58021s-6.43774-5.08129-6.43774-11.58021    c0-3.55546,2.88227-6.43774,6.43774-6.43774S14.76308,6.4594,14.76308,10.01486z" fill="#53B1E2"/><circle cx="8.32535" cy="10.01486" fill="#FFFFFF" r="3.83097"/></g><g><path d="M28.23072,34.03099c0,6.49892-6.43774,11.58022-6.43774,11.58022s-6.43774-5.08129-6.43774-11.58022    c0-3.55546,2.88227-6.43774,6.43774-6.43774S28.23072,30.47552,28.23072,34.03099z" fill="#EC6E62"/><circle cx="21.79298" cy="34.03099" fill="#FFFFFF" r="3.83097"/></g></g></svg>