<?xml version="1.0" ?><!DOCTYPE svg  PUBLIC '-//W3C//DTD SVG 1.1//EN'  'http://www.w3.org/Graphics/SVG/1.1/DTD/svg11.dtd'><svg enable-background="new 0 0 50 50" id="Layer_1" version="1.1" viewBox="0 0 50 50" xml:space="preserve" xmlns="http://www.w3.org/2000/svg" xmlns:xlink="http://www.w3.org/1999/xlink"><g><path d="M35.30801,46.14305H14.69193c-0.92876,0-1.68167-0.75291-1.68167-1.68167v0   c0-0.92876,0.75291-1.68167,1.68167-1.68167h20.61609c0.92876,0,1.68167,0.75291,1.68167,1.68167v0   C36.98969,45.39014,36.23677,46.14305,35.30801,46.14305z" fill="#656766"/><path d="M26.68164,44.28123V34.15332c0-0.92877-0.7529-1.68167-1.68167-1.68167s-1.68167,0.7529-1.68167,1.68167   v10.12791H26.68164z" fill="#656766"/><path d="M48.17601,32.28563V8.84936c0-2.05934-1.66943-3.72877-3.72877-3.72877H25.51842   c-1.1866,0-2.30236-0.56477-3.00493-1.52103l-0.79241-1.07853C21.01852,1.56477,19.90276,1,18.71616,1H5.5527   C3.49336,1,1.82393,2.66943,1.82393,4.72877v27.55686c0,2.05934,1.66943,3.72877,3.72877,3.72877h38.89454   C46.50658,36.0144,48.17601,34.34497,48.17601,32.28563z" fill="#FFC966"/><g><g><path d="M15.0378,18.38353c-0.12731,0.10468-0.19144,0.24425-0.19144,0.41776     c0,0.17352,0.07827,0.3112,0.23387,0.41305c0.15654,0.10279,0.51773,0.2235,1.08355,0.36307     c0.56582,0.13957,1.00528,0.34798,1.31742,0.62617c0.31309,0.27914,0.46963,0.68559,0.46963,1.22029     c0,0.5347-0.20087,0.96755-0.60166,1.30045c-0.40079,0.33289-0.92795,0.49887-1.58147,0.49887     c-0.94398,0-1.7946-0.34987-2.55091-1.04866l0.79309-0.97227c0.64315,0.56299,1.23726,0.84402,1.78328,0.84402     c0.24425,0,0.43568-0.05281,0.57525-0.15749c0.13957-0.10562,0.20935-0.24802,0.20935-0.42719     c0-0.17823-0.0745-0.32063-0.22161-0.42625c-0.14806-0.10468-0.44134-0.21124-0.87891-0.31969     c-0.69407-0.16503-1.20143-0.3791-1.52206-0.64409c-0.32158-0.26405-0.48189-0.67899-0.48189-1.24481     c0-0.56582,0.20275-1.00245,0.6092-1.30893c0.40645-0.30743,0.9138-0.46115,1.523-0.46115     c0.39796,0,0.79592,0.06884,1.19388,0.20464c0.39796,0.13674,0.745,0.33006,1.04017,0.57997l-0.67333,0.97227     c-0.51773-0.3923-1.05243-0.58846-1.6041-0.58846C15.34052,18.2251,15.16606,18.27791,15.0378,18.38353z" fill="#FFFFFF"/><path d="M24.03153,17.19342v1.16842h-2.76309v1.28819h2.6273v1.16842h-2.6273v2.33684h-1.33062v-5.96187H24.03153     z" fill="#FFFFFF"/><path d="M28.53547,18.34487v4.81042h-1.33062v-4.81042h-1.68898v-1.15145h4.70763v1.15145H28.53547z" fill="#FFFFFF"/><path d="M36.1552,17.72624c0.41776,0.35552,0.62712,0.90154,0.62712,1.63805     c0,0.73651-0.21501,1.27498-0.64409,1.61636c-0.42908,0.34044-1.08449,0.51113-1.96529,0.51113H33.3789v1.66351h-1.32968     v-5.96187h2.1058C35.07071,17.19342,35.73743,17.37071,36.1552,17.72624z M35.17915,20.07157     c0.15843-0.17918,0.23859-0.4404,0.23859-0.78461c0-0.34327-0.10374-0.58846-0.3112-0.73368     c-0.20747-0.14428-0.52999-0.2169-0.9685-0.2169H33.3789v2.00395h0.89589C34.71801,20.34033,35.01978,20.25074,35.17915,20.07157     z" fill="#FFFFFF"/></g></g><circle cx="24.99997" cy="44.46138" fill="#EC6E62" r="4.53862"/></g></svg>