<?xml version="1.0" ?><svg id="Layer_1" style="enable-background:new 0 0 50 50;" version="1.1" viewBox="0 0 50 50" xml:space="preserve" xmlns="http://www.w3.org/2000/svg" xmlns:xlink="http://www.w3.org/1999/xlink"><style type="text/css">
	.st0{fill:#B7C5FD;}
	.st1{fill:#9AADFD;}
	.st2{fill:#FFFFFF;}
	.st3{fill:#3955D1;}
	.st4{fill:#4466FB;}
	.st5{fill:#AABAFD;}
	.st6{fill:#798FFE;}
	.st7{fill:#6BB5FB;}
	.st8{enable-background:new    ;}
	.st9{fill:#1B2A4F;}
	.st10{fill:url(#);}
	.st11{fill:#384E85;}
	.st12{fill:#2E4277;}
	.st13{fill:#D9DDF6;}
	.st14{fill:#535D88;}
	.st15{fill:#2B3C67;}
	.st16{fill:#8FCCFF;}
	.st17{fill:#8CA1FD;}
	.st18{opacity:0.3;}
	.st19{opacity:0.3;fill:#4466FB;}
	.st20{opacity:0.2;}
</style><g><g><g><g><g><g class="st8"><g><polygon class="st9" points="23.00264,19.23372 40.90779,9.01907 40.8868,38.59467 22.98165,49        "/></g><g><polygon class="st12" points="23.00264,19.23372 22.98165,49 9.09221,40.98093 9.1132,11.40533        "/></g></g><g><polygon class="st11" points="22.02461,31.08335 22.01727,33.40273 10.05826,26.49841 10.06561,24.17903       "/><polygon class="st11" points="10.04848,30.83331 22.00749,37.73764 22.00014,40.05947 10.04113,33.15515       "/><polygon class="st11" points="10.04848,37.83216 22.00749,44.73649 22.00014,47.40288 10.04113,40.49857       "/><polygon class="st12" points="10.55488,40.20275 10.55888,38.7193 21.49384,45.03232 21.48959,46.51603       "/><polygon class="st11" points="10.05581,27.50739 22.01482,34.41172 22.00749,36.7311 10.05093,29.82677       "/><polygon class="st5" points="18.7194,36.4776 19.341,37.17284 21.29379,38.30029 21.29273,38.67469 19.34106,37.5479         18.71643,37.52492 13.32724,34.41348 12.70564,33.71694 10.75398,32.59015 10.75504,32.21574 12.70782,33.34318         13.33021,33.36615       "/><polygon class="st5" points="18.7194,36.4776 19.341,37.17284 21.29379,38.30029 21.29273,38.67469 19.34106,37.5479         18.71643,37.52492 13.32724,34.41348 12.70564,33.71694 10.75398,32.59015 10.75504,32.21574 12.70782,33.34318         13.33021,33.36615       "/><polygon class="st5" points="18.72815,33.15021 19.34975,33.84673 21.30254,34.97417 21.30148,35.3473 19.34982,34.2205         18.72518,34.19881 13.33599,31.08736 12.71439,30.38954 10.76273,29.26275 10.76379,28.88963 12.71657,30.01707         13.33896,30.03876       "/><polygon class="st5" points="18.7369,29.82281 19.3585,30.51934 21.31129,31.64678 21.31022,32.02119 19.35856,30.8944         18.73393,30.87141 13.34474,27.75997 12.72314,27.06344 10.77148,25.93665 10.77254,25.56223 12.72532,26.68967         13.34771,26.71136       "/><g><polygon class="st11" points="10.08028,18.57777 22.03929,25.48208 22.02706,29.94469 10.06805,23.04037        "/><polygon class="st11" points="22.05397,19.79863 22.04174,24.26124 10.08273,17.35691 10.09496,12.8943        "/></g><g><g><polygon class="st12" points="18.19677,23.88327 18.19289,25.25096 17.00151,24.56312 17.00539,23.19543         "/></g><g><polygon class="st12" points="18.20591,20.05954 18.20203,21.42724 17.01065,20.7394 17.01453,19.3717         "/></g><polygon class="st12" points="11.65652,20.10726 11.65264,21.47494 10.46127,20.7871 10.46514,19.41941        "/><polygon class="st12" points="11.65125,21.96645 11.64737,23.33414 10.45599,22.64629 10.45987,21.27861        "/><polygon class="st12" points="13.28603,22.91029 13.28215,24.27798 12.0919,23.59078 12.09577,22.22309        "/><polygon class="st12" points="13.2913,21.0511 13.28742,22.41879 12.09717,21.73159 12.10104,20.3639        "/><polygon class="st12" points="14.92081,23.85413 14.91694,25.22182 13.72668,24.53462 13.73056,23.16694        "/><polygon class="st12" points="14.92609,21.99494 14.92221,23.36263 13.73195,22.67543 13.73583,21.30774        "/><polygon class="st12" points="16.55559,24.79797 16.55171,26.16566 15.36146,25.47847 15.36534,24.11078        "/><polygon class="st12" points="16.56086,22.93878 16.55698,24.30647 15.36673,23.61928 15.37061,22.25159        "/><polygon class="st12" points="18.1915,25.74246 18.18762,27.11015 16.99624,26.42231 17.00012,25.05462        "/><polygon class="st12" points="14.93523,18.17121 14.93135,19.53891 13.74109,18.85172 13.74497,17.48402        "/><polygon class="st12" points="19.82627,26.6863 19.8224,28.05399 18.63215,27.3668 18.63602,25.99911        "/><path class="st5" d="M20.95207,27.56052c0.22058,0.12735,0.40027,0.4373,0.39955,0.69205         c-0.00072,0.25476-0.18158,0.35654-0.40216,0.22919c-0.2217-0.128-0.4014-0.43794-0.40067-0.69271         C20.54951,27.5343,20.73037,27.43252,20.95207,27.56052z"/><polygon class="st12" points="14.9405,16.31074 14.93662,17.67843 13.74637,16.99123 13.75024,15.62354        "/><polygon class="st12" points="19.83155,24.82711 19.82767,26.1948 18.63742,25.50761 18.6413,24.13992        "/><polygon class="st12" points="19.84069,21.00338 19.83681,22.37108 18.64656,21.68389 18.65044,20.31619        "/><polygon class="st12" points="18.21119,18.19907 18.20731,19.56676 17.01593,18.87891 17.0198,17.51122        "/><polygon class="st12" points="19.84596,19.14291 19.84208,20.5106 18.65183,19.82341 18.65571,18.45572        "/><g><polygon class="st12" points="11.67093,14.42305 11.66706,15.79074 10.47568,15.1029 10.47956,13.73521         "/></g><g><polygon class="st12" points="11.66566,16.28353 11.66178,17.65122 10.47041,16.96338 10.47428,15.59569         "/></g><g><polygon class="st12" points="13.30572,15.3669 13.30184,16.73458 12.11158,16.04739 12.11546,14.6797         "/></g><g><polygon class="st12" points="13.30044,17.22737 13.29657,18.59507 12.10631,17.90787 12.11018,16.54017         "/></g><g><polygon class="st12" points="16.57,19.11505 16.56613,20.48275 15.37588,19.79556 15.37975,18.42786         "/></g><g><polygon class="st12" points="16.57528,17.25458 16.5714,18.62227 15.38115,17.93508 15.38503,16.56739         "/></g><g><path class="st5" d="M20.97176,20.01713c0.22058,0.12735,0.40027,0.4373,0.39955,0.69205          c-0.00072,0.25476-0.18158,0.35653-0.40216,0.22918c-0.2217-0.128-0.4014-0.43794-0.40067-0.6927          C20.5692,19.99091,20.75006,19.88913,20.97176,20.01713z"/></g><g><path class="st5" d="M20.96649,21.87632c0.22058,0.12736,0.40027,0.4373,0.39955,0.69205          c-0.00072,0.25475-0.18158,0.35653-0.40216,0.22918c-0.2217-0.128-0.4014-0.43795-0.40067-0.6927          C20.56393,21.8501,20.74479,21.74832,20.96649,21.87632z"/></g><g><path class="st5" d="M20.95735,25.70005c0.22058,0.12735,0.40027,0.43858,0.39955,0.69333          c-0.00072,0.25347-0.18158,0.35654-0.40216,0.22919c-0.2217-0.128-0.40139-0.43924-0.40067-0.69271          C20.55478,25.67511,20.73565,25.57205,20.95735,25.70005z"/></g></g></g><g><path class="st12" d="M39.13066,37.10177l-6.16256,3.55796c-0.18221,0.1052-0.32953,0.35938-0.32893,0.56876        c0.00058,0.20842,0.14885,0.29291,0.33107,0.1877l6.16256-3.55795c0.18221-0.1052,0.32868-0.35986,0.32809-0.56827        C39.4603,37.08059,39.31288,36.99657,39.13066,37.10177z"/><path class="st12" d="M32.95817,36.05151l6.16256-3.55797c0.18222-0.1052,0.32868-0.35889,0.32808-0.56827        c-0.00058-0.20841-0.148-0.29339-0.33022-0.18819l-6.16257,3.55795c-0.18222,0.10521-0.32951,0.36036-0.32893,0.56876        C32.62769,36.07317,32.77596,36.1567,32.95817,36.05151z"/><path class="st12" d="M32.95817,34.26312l6.16256-3.55796c0.18222-0.1052,0.32868-0.35889,0.32808-0.56827        c-0.00058-0.20842-0.148-0.29339-0.33022-0.18819l-6.16257,3.55795c-0.18222,0.1052-0.32951,0.36034-0.32893,0.56876        C32.62769,34.28479,32.77596,34.36833,32.95817,34.26312z"/><path class="st12" d="M32.95817,32.47475l6.16256-3.55795c0.18222-0.1052,0.32868-0.35889,0.32808-0.56828        c-0.00058-0.20841-0.148-0.29339-0.33022-0.18818l-6.16257,3.55795c-0.18222,0.1052-0.32951,0.36034-0.32893,0.56876        C32.62769,32.49642,32.77596,32.57995,32.95817,32.47475z"/><path class="st12" d="M32.9622,37.84005l6.16256-3.55796c0.18221-0.1052,0.32868-0.35986,0.32809-0.56827        c-0.0006-0.20939-0.14802-0.2934-0.33023-0.18819l-6.16257,3.55795c-0.18222,0.1052-0.32951,0.35939-0.32893,0.56876        C32.63171,37.86076,32.77998,37.94525,32.9622,37.84005z"/><path class="st12" d="M32.96622,39.62764l6.16256-3.55796c0.18221-0.10521,0.32868-0.35889,0.32809-0.56828        c-0.0006-0.20841-0.14802-0.29339-0.33023-0.18819l-6.16257,3.55797c-0.18222,0.1052-0.32952,0.36034-0.32893,0.56875        C32.63573,39.64931,32.784,39.73284,32.96622,39.62764z"/></g></g><polygon class="st11" points="10.05581,34.15933 22.01482,41.06366 22.00749,43.38304 10.05093,36.47871     "/><polygon class="st5" points="18.7194,39.80357 19.341,40.49881 21.29379,41.62626 21.29273,42.00066 19.34106,40.87387       18.71643,40.85089 13.32724,37.73944 12.70564,37.0429 10.75398,35.91611 10.75504,35.54171 12.70782,36.66914       13.33021,36.69212     "/></g></g></g><g><polygon class="st11" points="9.1132,11.40533 27.01835,1 40.90779,9.01907 23.00264,19.4244   "/></g></g></svg>