<?xml version="1.0" ?><svg id="Layer_1" style="enable-background:new 0 0 50 50;" version="1.1" viewBox="0 0 50 50" xml:space="preserve" xmlns="http://www.w3.org/2000/svg" xmlns:xlink="http://www.w3.org/1999/xlink"><style type="text/css">
	.st0{fill:#B7C5FD;}
	.st1{fill:#9AADFD;}
	.st2{fill:#FFFFFF;}
	.st3{fill:#3955D1;}
	.st4{fill:#4466FB;}
	.st5{fill:#AABAFD;}
	.st6{fill:#798FFE;}
	.st7{fill:#6BB5FB;}
	.st8{enable-background:new    ;}
	.st9{fill:#1B2A4F;}
	.st10{fill:url(#);}
	.st11{fill:#384E85;}
	.st12{fill:#2E4277;}
	.st13{fill:#D9DDF6;}
	.st14{fill:#535D88;}
	.st15{fill:#2B3C67;}
	.st16{fill:#8FCCFF;}
	.st17{fill:#8CA1FD;}
	.st18{opacity:0.3;}
	.st19{opacity:0.3;fill:#4466FB;}
	.st20{opacity:0.2;}
</style><g><g><g><g><g><g><g class="st8"><g><path class="st6" d="M40.97758,34.83421l0.00002,6.92632c-0.00705,1.74359-1.64277,3.48458-4.91088,4.81508          c-6.57752,2.6778-17.27861,2.67786-23.8992,0.00008c-3.33202-1.34768-4.99592-3.11656-4.98878-4.88271l-0.00002-6.92632          c-0.00715,1.76614,1.65675,3.53503,4.98878,4.88271c6.62059,2.67778,17.32169,2.67772,23.8992-0.00008          C39.33481,38.31879,40.97052,36.57779,40.97758,34.83421z"/></g><ellipse class="st17" cx="24.07813" cy="34.80039" rx="6.85742" ry="16.89942" transform="matrix(0.00158 -1 1 0.00158 -10.76027 58.82348)"/><g><path class="st0" d="M40.55727,33.32586c0.40608,1.90088-1.16605,3.85587-4.73854,5.31023          c-6.44144,2.62232-16.92123,2.62287-23.4049,0c-3.6149-1.46201-5.21931-3.43011-4.82065-5.34029          c-1.20555,2.21569,0.31041,4.62923,4.57431,6.35358c6.62059,2.67807,17.32165,2.67752,23.89923,0          C40.28363,37.93268,41.76789,35.53335,40.55727,33.32586z"/></g></g></g><g><g class="st8"><g><path class="st3" d="M39.65487,25.61851l0.00002,6.3842c-0.0065,1.60712-1.51419,3.21185-4.52651,4.43821          c-6.0627,2.46821-15.92621,2.46826-22.02862,0.00007c-3.07123-1.24219-4.60489-2.87263-4.5983-4.50053l-0.00002-6.3842          c-0.00659,1.6279,1.52708,3.25834,4.59831,4.50054c6.1024,2.46819,15.96592,2.46814,22.02861-0.00007          C38.14067,28.83036,39.64836,27.22563,39.65487,25.61851z"/></g><g><path class="st6" d="M40.97758,21.36286l0.00002,6.92632c-0.00705,1.74359-1.64277,3.48458-4.91088,4.81508          c-6.57752,2.6778-17.27861,2.67785-23.8992,0.00008c-3.33202-1.34768-4.99592-3.11656-4.98878-4.88271l-0.00002-6.92632          c-0.00715,1.76614,1.65675,3.53503,4.98878,4.88271c6.62059,2.67778,17.32169,2.67772,23.8992-0.00008          C39.33481,24.84744,40.97052,23.10645,40.97758,21.36286z"/></g><ellipse class="st17" cx="24.07813" cy="21.32904" rx="6.85742" ry="16.89942" transform="matrix(0.00158 -1 1 0.00158 2.71105 45.37343)"/><g><path class="st0" d="M40.55727,19.85451c0.40608,1.90088-1.16605,3.85587-4.73854,5.31023          c-6.44144,2.62232-16.92123,2.62287-23.4049,0c-3.6149-1.46201-5.21931-3.43011-4.82065-5.34029          c-1.20555,2.21569,0.31041,4.62923,4.57431,6.35358c6.62059,2.67807,17.32165,2.67752,23.89923,0          C40.28363,24.46134,41.76789,22.06201,40.55727,19.85451z"/></g></g></g><g><g class="st8"><g><path class="st3" d="M39.65487,12.14716l0.00002,6.3842c-0.0065,1.60712-1.51419,3.21185-4.52651,4.43821          c-6.0627,2.46821-15.92621,2.46826-22.02862,0.00007c-3.07123-1.24219-4.60489-2.87263-4.5983-4.50054L8.50143,12.0849          c-0.00659,1.6279,1.52708,3.25834,4.59831,4.50054c6.1024,2.46819,15.96592,2.46814,22.02861-0.00007          C38.14067,15.35901,39.64836,13.75428,39.65487,12.14716z"/></g><g><path class="st6" d="M40.97758,7.89151l0.00002,6.92632c-0.00705,1.74359-1.64277,3.48458-4.91088,4.81508          c-6.57752,2.6778-17.27861,2.67785-23.8992,0.00008c-3.33202-1.34768-4.99592-3.11656-4.98878-4.8827L7.17871,7.82397          c-0.00715,1.76614,1.65675,3.53503,4.98878,4.88271c6.62059,2.67778,17.32169,2.67772,23.8992-0.00008          C39.33481,11.3761,40.97052,9.6351,40.97758,7.89151z"/></g><ellipse class="st17" cx="24.07813" cy="7.8577" rx="6.85742" ry="16.89942" transform="matrix(0.00158 -1 1 0.00158 16.18238 31.92338)"/><g><path class="st0" d="M40.55727,6.38317c0.40608,1.90088-1.16605,3.85587-4.73854,5.31023          c-6.44144,2.62232-16.92123,2.62287-23.4049,0c-3.6149-1.46201-5.21931-3.43011-4.82065-5.34029          c-1.20555,2.21569,0.31041,4.62923,4.57431,6.35358c6.62059,2.67807,17.32165,2.67752,23.89923,0          C40.28363,10.98999,41.76789,8.59066,40.55727,6.38317z"/></g></g></g></g></g></g></g><g><g><g><g><g><g class="st8"><g><path class="st12" d="M42.82128,31.63743l0.00001,13.98833c-0.00349,0.86221-0.81236,1.72315-2.42846,2.38109          c-3.25262,1.32419-8.54438,1.32421-11.81831,0.00004c-1.64771-0.66644-2.47052-1.54116-2.46698-2.41453l-0.00001-13.98833          c-0.00353,0.87337,0.81927,1.74809,2.46698,2.41453c3.27393,1.32418,8.56568,1.32415,11.81831-0.00004          C42.00892,33.36058,42.81779,32.49965,42.82128,31.63743z"/></g><g><path class="st9" d="M42.82127,31.63742c-0.00346,0.86223-0.81236,1.72316-2.42847,2.38107          c-1.5598,0.63503-3.58884,0.9621-5.63907,0.98809v13.98836c2.05023-0.026,4.07932-0.35311,5.63911-0.98809          c1.61611-0.65795,2.42497-1.51888,2.42847-2.38111L42.82127,31.63742z"/></g><ellipse class="st12" cx="34.46439" cy="31.62071" rx="3.39104" ry="8.35687" transform="matrix(0.00158 -1 1 0.00158 2.78925 66.03508)"/><g><path class="st11" d="M42.61343,30.89154c0.20081,0.94-0.57662,1.90675-2.34324,2.62594          c-3.18534,1.29676-8.36765,1.29703-11.57387,0c-1.78759-0.72297-2.58098-1.69621-2.38384-2.6408          c-0.59615,1.09567,0.1535,2.28918,2.26203,3.14189c3.27392,1.32432,8.56566,1.32405,11.81832,0          C42.47812,33.16965,43.2121,31.98316,42.61343,30.89154z"/></g></g></g></g></g><polygon class="st2" points="33.82501,37.94431 32.21566,42.10124 34.18001,42.10124 32.73633,45.64985 36.97271,40.6818      35.1149,40.6818 37.53446,37.9934    "/></g></g></g></svg>