<?xml version="1.0" ?><svg id="Layer_1" style="enable-background:new 0 0 50 50;" version="1.1" viewBox="0 0 50 50" xml:space="preserve" xmlns="http://www.w3.org/2000/svg" xmlns:xlink="http://www.w3.org/1999/xlink"><style type="text/css">
	.st0{fill:#B7C5FD;}
	.st1{fill:#9AADFD;}
	.st2{fill:#FFFFFF;}
	.st3{fill:#3955D1;}
	.st4{fill:#4466FB;}
	.st5{fill:#AABAFD;}
	.st6{fill:#798FFE;}
	.st7{fill:#6BB5FB;}
	.st8{enable-background:new    ;}
	.st9{fill:#1B2A4F;}
	.st10{fill:url(#);}
	.st11{fill:#384E85;}
	.st12{fill:#2E4277;}
	.st13{fill:#D9DDF6;}
	.st14{fill:#535D88;}
	.st15{fill:#2B3C67;}
	.st16{fill:#8FCCFF;}
	.st17{fill:#8CA1FD;}
	.st18{opacity:0.3;}
	.st19{opacity:0.3;fill:#4466FB;}
	.st20{opacity:0.2;}
</style><g><g><g><g><g><g class="st8"><g><path class="st0" d="M9.85677,47.27099l-2.05187-1.1961c-0.21391-0.11669-0.35007-0.38901-0.35007-0.76822L7.38675,24.2375         l2.0616,1.1961L9.5067,46.50277C9.51643,46.88204,9.64286,47.14457,9.85677,47.27099z"/></g><g><polygon class="st13" points="9.444,25.42939 7.38785,24.23449 40.49937,5.11754 42.55552,6.31244        "/></g><g><path class="st13" d="M42.55552,6.31244l0.06745,21.07605c0.00214,0.75625-0.53007,1.67809-1.18821,2.05807         L10.70122,47.19058c-0.65813,0.37997-1.18762,0.07111-1.18976-0.68514L9.444,25.42939L42.55552,6.31244z"/></g></g><g class="st8"><g><path class="st5" d="M42.20066,1.97797c-0.22365-0.12642-0.51537-0.10696-0.85577,0.08755L10.61531,19.8031         c-0.66126,0.38895-1.18643,1.30306-1.17669,2.0616l0.00973,3.5689l-2.0616-1.1961l-0.00973-3.5689         c0-0.75854,0.52516-1.67266,1.18643-2.05193L39.80678,1.16743c0.33066-0.19444,0.63212-0.21391,0.84603-0.08749         L42.20066,1.97797z"/></g><g><path class="st1" d="M41.34943,2.06371c0.65813-0.37997,1.19383-0.0747,1.19598,0.68154l0.01011,3.56719L9.444,25.42939         L9.43389,21.8622c-0.00214-0.75624,0.52387-1.6745,1.182-2.05447L41.34943,2.06371z"/></g></g></g><g><g><path class="st11" d="M36.24055,6.84858c0.36632-0.2115,0.6591-0.03753,0.66028,0.37627        c0.00117,0.4138-0.28967,0.92472-0.65599,1.13622c-0.36011,0.20791-0.6529,0.03394-0.65407-0.37985        C35.58959,7.56741,35.88044,7.05649,36.24055,6.84858z"/></g><g><path class="st0" d="M15.28468,20.53233c0.14901-0.08603,0.26736-0.01858,0.26785,0.15264l0.00289,1.21471l-4.11022,2.37304        L11.44231,23.058c-0.00049-0.17122,0.1171-0.37488,0.2599-0.45733L15.28468,20.53233z"/></g><g><path class="st11" d="M38.34533,5.63338c0.36632-0.21149,0.65911-0.03753,0.66028,0.37627        c0.00117,0.4138-0.28967,0.92472-0.65599,1.13621c-0.36011,0.20791-0.65289,0.03394-0.65407-0.37985        C37.69438,6.35221,37.98522,5.84129,38.34533,5.63338z"/></g><g><path class="st11" d="M40.45012,4.41818c0.36632-0.21149,0.6591-0.03753,0.66027,0.37627        c0.00117,0.4138-0.28967,0.92472-0.65598,1.13621c-0.36011,0.20791-0.65289,0.03394-0.65407-0.37985        S40.09,4.6261,40.45012,4.41818z"/></g><g><path class="st0" d="M19.94128,17.84384c0.14901-0.08603,0.26736-0.01858,0.26785,0.15263l0.00289,1.21471l-4.11643,2.37663        L16.0927,20.3731c-0.00049-0.17122,0.1171-0.37488,0.26611-0.46091L19.94128,17.84384z"/></g><g><path class="st0" d="M24.59788,15.15535c0.1428-0.08245,0.26115-0.015,0.26164,0.15622l0.00289,1.21471l-4.11022,2.37304        l-0.00289-1.21471c-0.00048-0.17122,0.1171-0.37488,0.2599-0.45733L24.59788,15.15535z"/></g><g><path class="st0" d="M29.25448,12.46687c0.1428-0.08245,0.26115-0.015,0.26164,0.15622l0.00289,1.21471l-4.11022,2.37304        l-0.00289-1.21471c-0.00048-0.17122,0.1171-0.37488,0.2599-0.45733L29.25448,12.46687z"/></g></g></g><g><polygon class="st11" points="18.18109,29.05608 18.18685,31.0814 16.0402,32.32114 16.03444,30.29535 15.27765,30.73225       15.29155,35.72624 16.04835,35.28933 16.04212,33.12877 18.18925,31.88951 18.195,34.05007 18.9518,33.61316 18.93789,28.61917           "/><polygon class="st11" points="23.08187,26.22637 19.72616,28.16392 19.72808,28.97155 21.02058,28.2253 21.03257,32.41166       21.78937,31.97475 21.77738,27.7884 23.08378,27.03448     "/><polygon class="st11" points="26.93569,24.00142 23.5867,25.93513 23.58862,26.74276 24.8816,25.99652 24.89311,30.18287       25.6499,29.74596 25.63791,25.55961 26.93761,24.80905     "/><path class="st11" d="M30.49552,22.42775c-0.19088-0.11031-0.52995-0.17649-1.06517,0.13333l-1.70639,0.98556l0.01343,4.99399      l0.7568-0.43691l-0.00528-1.86657l1.07237-0.61915c0.79325-0.45801,1.34573-1.39178,1.34334-2.27135      C30.90318,22.90542,30.75786,22.57882,30.49552,22.42775z M30.12672,23.65503c0.00144,0.49446-0.3007,1.00139-0.752,1.26133      l-0.88772,0.51268l-0.0048-1.51167l1.0105-0.58318c0.20335-0.11798,0.37408-0.14867,0.48007-0.08681      C30.07157,23.30396,30.12624,23.4488,30.12672,23.65503z"/><polygon class="st11" points="32.67893,20.5505 31.15911,26.70798 31.81375,26.33006 33.34029,20.16827     "/><path class="st11" d="M36.78742,22.50663l-1.73948,1.00426c0.96206-1.45028,1.71358-2.72024,1.71118-3.64777      c-0.00144-0.52563-0.20958-0.75536-0.38367-0.85559c-0.29207-0.16738-0.72227-0.11222-1.18027,0.15347      c-0.62155,0.35969-1.15821,0.95151-1.47187,1.6239l-0.04604,0.0988l0.52084,0.32276l0.05899-0.1223      c0.24843-0.51268,0.62539-0.93376,1.0623-1.18555c0.22493-0.12997,0.42636-0.16882,0.53906-0.10407      c0.11222,0.06474,0.13573,0.23596,0.1362,0.36881c0.0024,0.78893-0.85175,2.09438-2.24497,4.1595l-0.0211,0.03117      l0.00192,0.72658l3.05883-1.76633L36.78742,22.50663z"/></g></g></g><path class="st11" d="M36.01936,36.78887c0.01142,3.74866-2.63604,8.33032-5.89401,10.20753   c-1.63754,0.94713-3.12672,1.03841-4.20511,0.41079c-0.47926-0.27958-1.12401-0.65617-1.60902-0.93575   c1.07839,0.62765,2.56757,0.54205,4.20511-0.41079c3.25797-1.8772,5.90544-6.45887,5.89401-10.20182   c0-1.14685-0.25105-2.0826-0.6904-2.77868c0.02856,0.03423,0.0685,0.04562,0.10841,0.06276   c-0.03423-0.02281-0.07418-0.03995-0.10841-0.06276c-0.27386-0.43364-0.62761-0.77597-1.03273-1.00992l1.60331,0.93575   c0.41083,0.23392,0.75887,0.57628,1.03844,1.00992C35.76831,34.71198,36.01936,35.64773,36.01936,36.78887z"/><ellipse class="st13" cx="29.76109" cy="39.93836" rx="8.33433" ry="4.82748" transform="matrix(0.50245 -0.8646 0.8646 0.50245 -19.72335 45.60276)"/><g><path class="st6" d="M33.15257,34.35546c0.83152,0.47387,1.34528,1.49035,1.34939,2.94013l-1.19794,0.69163    c-0.00132-0.46741-0.0746-0.87411-0.20791-1.21293l-0.01489-0.03617c-0.17191-0.41704-0.4366-0.7281-0.77149-0.91893    L33.15257,34.35546z"/></g><g><path class="st11" d="M33.28654,36.55675l-0.19042,0.21754l-2.53664,2.89791c-0.02265,0.3066-0.18968,0.66951-0.44438,0.92857    c-0.07912,0.07896-0.16018,0.14169-0.2398,0.18766c-0.13288,0.07672-0.26179,0.1068-0.37112,0.08782l-0.40537,0.4619    l-0.32157-0.79917l0.4325-0.38102c0.05973-0.27007,0.20681-0.55196,0.41797-0.7627    c0.08016-0.08108,0.16203-0.14487,0.24231-0.19122c0.17816-0.10286,0.34864-0.11993,0.47626-0.04986l2.73496-2.41606    L33.28654,36.55675z"/></g><g><path class="st5" d="M26.68979,38.08675l0.85171,0.48538c-0.60872,1.05434-0.98515,2.24106-0.98212,3.30911l-1.19792,0.69162    C25.35735,41.12309,25.86702,39.51571,26.68979,38.08675z"/></g><g><path class="st17" d="M29.91682,34.68264c1.26504-0.73037,2.4076-0.79913,3.23575-0.32719l-0.84283,1.46373    c-0.6127-0.34916-1.45617-0.29474-2.389,0.24383L29.91682,34.68264z"/></g><g><path class="st1" d="M29.91682,34.68264l0.00391,1.38037c-0.92949,0.53664-1.77051,1.45476-2.37923,2.50911l-0.85171-0.48538    C27.51592,36.6597,28.65514,35.41108,29.91682,34.68264z"/></g><path class="st11" d="M34.95239,31.87055c-1.24384-0.72464-2.96698-0.62194-4.86699,0.47926   c-3.77718,2.17959-6.82972,7.46308-6.8183,11.80512c0.01139,2.15106,0.77026,3.66877,1.997,4.38198l-1.60901-0.93571   c-1.22674-0.71321-1.98561-2.22524-1.99129-4.38202c-0.01713-4.34204,3.03541-9.62553,6.81259-11.80512   c1.90001-1.09549,3.62315-1.19818,4.86699-0.47926L34.95239,31.87055z"/><path class="st9" d="M30.08516,32.34732c3.77405-2.17895,6.84768-0.43155,6.85999,3.90931s-3.04139,9.62588-6.81544,11.80483   c-3.7777,2.18105-6.84769,0.43155-6.86-3.90931S26.30747,34.52837,30.08516,32.34732z M30.1267,46.99821   c3.25676-1.88029,5.90377-6.46092,5.89315-10.20736s-2.67492-5.26058-5.93167-3.38029   c-3.2604,1.8824-5.9038,6.46094-5.89318,10.20738C24.20562,47.36438,26.86629,48.88061,30.1267,46.99821"/><g><g><path class="st2" d="M28.02501,43.8411c0.21087-0.12175,0.38427-0.0269,0.38496,0.2154l0.00253,0.89378     c0.0007,0.24627-0.1716,0.54071-0.38247,0.66246s-0.38427,0.02689-0.38497-0.21938l-0.00253-0.89378     C27.64185,44.25729,27.81414,43.96285,28.02501,43.8411z"/></g><g><path class="st2" d="M29.40088,43.04675c0.21433-0.12374,0.38427-0.02689,0.38496,0.21541l0.00253,0.89378     c0.0007,0.24627-0.16814,0.53872-0.38247,0.66246c-0.21087,0.12175-0.38082,0.0249-0.38151-0.22137l-0.00253-0.89378     C29.02116,43.46094,29.19,43.1685,29.40088,43.04675z"/></g><g><path class="st2" d="M30.78019,42.2504c0.21087-0.12175,0.38082-0.0249,0.3815,0.2174l0.00253,0.89378     c0.0007,0.24627-0.16814,0.53872-0.37901,0.66047c-0.21087,0.12175-0.38427,0.02689-0.38497-0.21938l-0.00253-0.89378     C30.39703,42.66658,30.56932,42.37215,30.78019,42.2504z"/></g><g><path class="st2" d="M32.15606,41.45604c0.21087-0.12175,0.38427-0.02689,0.38496,0.21541l0.00254,0.89377     c0.0007,0.24628-0.1716,0.54071-0.38247,0.66246c-0.21087,0.12175-0.38427,0.02689-0.38497-0.21938l-0.00253-0.89378     C31.77289,41.87223,31.94518,41.57779,32.15606,41.45604z"/></g></g></g></svg>