<?xml version="1.0" ?><svg id="Layer_1" style="enable-background:new 0 0 50 50;" version="1.1" viewBox="0 0 50 50" xml:space="preserve" xmlns="http://www.w3.org/2000/svg" xmlns:xlink="http://www.w3.org/1999/xlink"><style type="text/css">
	.st0{fill:#B7C5FD;}
	.st1{fill:#9AADFD;}
	.st2{fill:#FFFFFF;}
	.st3{fill:#3955D1;}
	.st4{fill:#4466FB;}
	.st5{fill:#AABAFD;}
	.st6{fill:#798FFE;}
	.st7{fill:#6BB5FB;}
	.st8{enable-background:new    ;}
	.st9{fill:#1B2A4F;}
	.st10{fill:url(#);}
	.st11{fill:#384E85;}
	.st12{fill:#2E4277;}
	.st13{fill:#D9DDF6;}
	.st14{fill:#535D88;}
	.st15{fill:#2B3C67;}
	.st16{fill:#8FCCFF;}
	.st17{fill:#8CA1FD;}
	.st18{opacity:0.3;}
	.st19{opacity:0.3;fill:#4466FB;}
	.st20{opacity:0.2;}
</style><g><g><g><g><g class="st8"><g><path class="st6" d="M22.79856,4.77778l0.58218-0.33836c0.20838-0.24806,0.44991-0.45349,0.72207-0.61165L23.52063,4.1661        C23.24845,4.32426,23.00692,4.52969,22.79856,4.77778z"/><path class="st0" d="M28.98487,2.12936c-0.77216-0.44583-1.55741-0.71579-2.30955-0.7624        c-0.65607-0.04051-1.22966,0.0929-1.70844,0.37113l-0.58221,0.33833c0.47878-0.27821,1.05236-0.41164,1.70844-0.37113        c0.75214,0.04661,1.53739,0.31658,2.30957,0.7624c1.48899,0.85974,3.05355,2.57993,3.95511,4.48759l0.60838-0.2886        C32.06465,4.75905,30.47388,2.9891,28.98487,2.12936z"/><polygon class="st0" points="34.03761,6.02206 33.42921,6.31063 34.01968,11.95359 34.6281,11.66503       "/></g><g><path class="st1" d="M28.40268,2.46772c1.48901,0.85973,3.05356,2.57991,3.95511,4.48756l1.07125-0.64485l0.59047,5.64294        l-4.11529-3.51482l0.86424-0.51981c-0.84912-1.4519-2.02658-2.66418-3.23545-3.36207        c-0.77036-0.44474-1.5539-0.71451-2.30426-0.76143c-1.02732-0.06197-1.85508,0.29781-2.4302,0.98254        c0.28288-1.95217,1.4697-3.18516,3.29457-3.07246C26.84526,1.75192,27.63051,2.02188,28.40268,2.46772z"/></g></g></g></g></g><g><g><g><g><g><polygon class="st9" points="15.84473,11.58581 24.52426,6.99741 24.51356,28.19613 15.83403,33.24012       "/></g><g><polygon class="st11" points="7.38469,7.157 16.06422,2.11301 24.52426,6.99741 15.84473,12.0414       "/></g><g><polygon class="st12" points="15.84473,12.0414 15.83403,33.24012 7.374,28.35572 7.38469,7.157       "/><g><polygon class="st11" points="8.40646,8.33776 7.89564,8.04287 7.88565,28.0603 15.32292,32.35442 15.32342,31.71562          8.39696,27.71643        "/><polygon class="st9" points="8.40646,8.33776 8.39696,27.71643 15.32342,31.71562 15.33341,12.33649        "/></g></g></g><g><polygon class="st12" points="14.8102,13.06095 14.80299,15.35789 9.09705,12.06356 9.10426,9.76662      "/><g><g><g><polygon class="st3" points="10.48285,11.23876 10.68902,11.11895 10.68146,12.59657 10.4753,12.71638         "/></g><g><polygon class="st7" points="10.12138,11.03006 10.32754,10.91025 10.68902,11.11895 10.48285,11.23876         "/></g><polygon class="st4" points="10.48285,11.23876 10.4753,12.71638 10.11382,12.50768 10.12138,11.03006        "/></g><g><g><polygon class="st3" points="11.22038,11.66457 11.42654,11.54476 11.41898,13.02238 11.21282,13.14219         "/></g><g><polygon class="st7" points="10.8589,11.45587 11.06506,11.33606 11.42654,11.54476 11.22038,11.66457         "/></g><polygon class="st4" points="11.22038,11.66457 11.21282,13.14219 10.85134,12.93349 10.8589,11.45587        "/></g><g><g><polygon class="st3" points="11.9579,12.09038 12.16406,11.97057 12.15651,13.44819 11.95035,13.568         "/></g><g><polygon class="st7" points="11.59642,11.88168 11.80258,11.76187 12.16406,11.97057 11.9579,12.09038         "/></g><polygon class="st4" points="11.9579,12.09038 11.95035,13.568 11.58887,13.3593 11.59642,11.88168        "/></g><g><g><polygon class="st3" points="12.69542,12.51619 12.90158,12.39638 12.89403,13.874 12.68787,13.99381         "/></g><g><polygon class="st7" points="12.33395,12.30749 12.54011,12.18768 12.90158,12.39638 12.69542,12.51619         "/></g><polygon class="st4" points="12.69542,12.51619 12.68787,13.99381 12.32639,13.78511 12.33395,12.30749        "/></g><g><g><polygon class="st3" points="13.43295,12.94199 13.63911,12.82219 13.63155,14.29981 13.42539,14.41962         "/></g><g><polygon class="st7" points="13.07147,12.73329 13.27763,12.61349 13.63911,12.82219 13.43295,12.94199         "/></g><polygon class="st4" points="13.43295,12.94199 13.42539,14.41962 13.06391,14.21092 13.07147,12.73329        "/></g><g><g><polygon class="st3" points="14.17047,13.3678 14.37663,13.248 14.36907,14.72562 14.16291,14.84543         "/></g><g><polygon class="st7" points="13.80899,13.1591 14.01515,13.0393 14.37663,13.248 14.17047,13.3678         "/></g><polygon class="st4" points="14.17047,13.3678 14.16291,14.84543 13.80144,14.63673 13.80899,13.1591        "/></g><g><g><polygon class="st3" points="9.74533,10.81295 9.95149,10.69314 9.94394,12.17076 9.73778,12.29057         "/></g><g><polygon class="st7" points="9.38385,10.60425 9.59001,10.48444 9.95149,10.69314 9.74533,10.81295         "/></g><polygon class="st4" points="9.74533,10.81295 9.73778,12.29057 9.3763,12.08187 9.38385,10.60425        "/></g></g></g><g><polygon class="st12" points="14.8102,16.11651 14.80299,18.41345 9.09705,15.11913 9.10426,12.82219      "/><g><g><g><polygon class="st3" points="10.48285,14.29432 10.68902,14.17451 10.68146,15.65214 10.4753,15.77194         "/></g><g><polygon class="st7" points="10.12138,14.08562 10.32754,13.96581 10.68902,14.17451 10.48285,14.29432         "/></g><polygon class="st4" points="10.48285,14.29432 10.4753,15.77194 10.11382,15.56324 10.12138,14.08562        "/></g><g><g><polygon class="st3" points="11.22038,14.72013 11.42654,14.60032 11.41898,16.07795 11.21282,16.19775         "/></g><g><polygon class="st7" points="10.8589,14.51143 11.06506,14.39162 11.42654,14.60032 11.22038,14.72013         "/></g><polygon class="st4" points="11.22038,14.72013 11.21282,16.19775 10.85134,15.98905 10.8589,14.51143        "/></g><g><g><polygon class="st3" points="11.9579,15.14594 12.16406,15.02613 12.15651,16.50376 11.95035,16.62356         "/></g><g><polygon class="st7" points="11.59642,14.93724 11.80258,14.81743 12.16406,15.02613 11.9579,15.14594         "/></g><polygon class="st4" points="11.9579,15.14594 11.95035,16.62356 11.58887,16.41486 11.59642,14.93724        "/></g><g><g><polygon class="st3" points="12.69542,15.57175 12.90158,15.45194 12.89403,16.92956 12.68787,17.04937         "/></g><g><polygon class="st7" points="12.33395,15.36305 12.54011,15.24324 12.90158,15.45194 12.69542,15.57175         "/></g><polygon class="st4" points="12.69542,15.57175 12.68787,17.04937 12.32639,16.84067 12.33395,15.36305        "/></g><g><g><polygon class="st3" points="13.43295,15.99756 13.63911,15.87775 13.63155,17.35537 13.42539,17.47518         "/></g><g><polygon class="st7" points="13.07147,15.78886 13.27763,15.66905 13.63911,15.87775 13.43295,15.99756         "/></g><polygon class="st4" points="13.43295,15.99756 13.42539,17.47518 13.06391,17.26648 13.07147,15.78886        "/></g><g><g><polygon class="st3" points="14.17047,16.42337 14.37663,16.30356 14.36907,17.78118 14.16291,17.90099         "/></g><g><polygon class="st7" points="13.80899,16.21467 14.01515,16.09486 14.37663,16.30356 14.17047,16.42337         "/></g><polygon class="st4" points="14.17047,16.42337 14.16291,17.90099 13.80144,17.69229 13.80899,16.21467        "/></g><g><g><polygon class="st3" points="9.74533,13.86851 9.95149,13.74871 9.94394,15.22633 9.73778,15.34614         "/></g><g><polygon class="st7" points="9.38385,13.65981 9.59001,13.54001 9.95149,13.74871 9.74533,13.86851         "/></g><polygon class="st4" points="9.74533,13.86851 9.73778,15.34614 9.3763,15.13744 9.38385,13.65981        "/></g></g></g><g><polygon class="st12" points="14.8102,19.17208 14.80299,21.46902 9.09705,18.17469 9.10426,15.87775      "/><g><g><g><polygon class="st3" points="10.48285,17.34989 10.68902,17.23008 10.68146,18.7077 10.4753,18.82751         "/></g><g><polygon class="st7" points="10.12138,17.14119 10.32754,17.02138 10.68902,17.23008 10.48285,17.34989         "/></g><polygon class="st4" points="10.48285,17.34989 10.4753,18.82751 10.11382,18.61881 10.12138,17.14119        "/></g><g><g><polygon class="st3" points="11.22038,17.77569 11.42654,17.65589 11.41898,19.13351 11.21282,19.25332         "/></g><g><polygon class="st7" points="10.8589,17.567 11.06506,17.44719 11.42654,17.65589 11.22038,17.77569         "/></g><polygon class="st4" points="11.22038,17.77569 11.21282,19.25332 10.85134,19.04462 10.8589,17.567        "/></g><g><g><polygon class="st3" points="11.9579,18.2015 12.16406,18.0817 12.15651,19.55932 11.95035,19.67913         "/></g><g><polygon class="st7" points="11.59642,17.9928 11.80258,17.873 12.16406,18.0817 11.9579,18.2015         "/></g><polygon class="st4" points="11.9579,18.2015 11.95035,19.67913 11.58887,19.47043 11.59642,17.9928        "/></g><g><g><polygon class="st3" points="12.69542,18.62731 12.90158,18.50751 12.89403,19.98513 12.68787,20.10493         "/></g><g><polygon class="st7" points="12.33395,18.41861 12.54011,18.29881 12.90158,18.50751 12.69542,18.62731         "/></g><polygon class="st4" points="12.69542,18.62731 12.68787,20.10493 12.32639,19.89624 12.33395,18.41861        "/></g><g><g><polygon class="st3" points="13.43295,19.05312 13.63911,18.93331 13.63155,20.41094 13.42539,20.53074         "/></g><g><polygon class="st7" points="13.07147,18.84442 13.27763,18.72462 13.63911,18.93331 13.43295,19.05312         "/></g><polygon class="st4" points="13.43295,19.05312 13.42539,20.53074 13.06391,20.32204 13.07147,18.84442        "/></g><g><g><polygon class="st3" points="14.17047,19.47893 14.37663,19.35912 14.36907,20.83675 14.16291,20.95655         "/></g><g><polygon class="st7" points="13.80899,19.27023 14.01515,19.15042 14.37663,19.35912 14.17047,19.47893         "/></g><polygon class="st4" points="14.17047,19.47893 14.16291,20.95655 13.80144,20.74785 13.80899,19.27023        "/></g><g><g><polygon class="st3" points="9.74533,16.92408 9.95149,16.80427 9.94394,18.28189 9.73778,18.4017         "/></g><g><polygon class="st7" points="9.38385,16.71538 9.59001,16.59557 9.95149,16.80427 9.74533,16.92408         "/></g><polygon class="st4" points="9.74533,16.92408 9.73778,18.4017 9.3763,18.193 9.38385,16.71538        "/></g></g></g><g><polygon class="st12" points="14.8102,22.22764 14.80299,24.52458 9.09705,21.23025 9.10426,18.93331      "/><g><g><g><polygon class="st3" points="10.48285,20.40545 10.68902,20.28564 10.68146,21.76326 10.4753,21.88307         "/></g><g><polygon class="st7" points="10.12138,20.19675 10.32754,20.07694 10.68902,20.28564 10.48285,20.40545         "/></g><polygon class="st4" points="10.48285,20.40545 10.4753,21.88307 10.11382,21.67437 10.12138,20.19675        "/></g><g><g><polygon class="st3" points="11.22038,20.83126 11.42654,20.71145 11.41898,22.18907 11.21282,22.30888         "/></g><g><polygon class="st7" points="10.8589,20.62256 11.06506,20.50275 11.42654,20.71145 11.22038,20.83126         "/></g><polygon class="st4" points="11.22038,20.83126 11.21282,22.30888 10.85134,22.10018 10.8589,20.62256        "/></g><g><g><polygon class="st3" points="11.9579,21.25707 12.16406,21.13726 12.15651,22.61488 11.95035,22.73469         "/></g><g><polygon class="st7" points="11.59642,21.04837 11.80258,20.92856 12.16406,21.13726 11.9579,21.25707         "/></g><polygon class="st4" points="11.9579,21.25707 11.95035,22.73469 11.58887,22.52599 11.59642,21.04837        "/></g><g><g><polygon class="st3" points="12.69542,21.68288 12.90158,21.56307 12.89403,23.04069 12.68787,23.1605         "/></g><g><polygon class="st7" points="12.33395,21.47418 12.54011,21.35437 12.90158,21.56307 12.69542,21.68288         "/></g><polygon class="st4" points="12.69542,21.68288 12.68787,23.1605 12.32639,22.9518 12.33395,21.47418        "/></g><g><g><polygon class="st3" points="13.43295,22.10868 13.63911,21.98888 13.63155,23.4665 13.42539,23.58631         "/></g><g><polygon class="st7" points="13.07147,21.89999 13.27763,21.78018 13.63911,21.98888 13.43295,22.10868         "/></g><polygon class="st4" points="13.43295,22.10868 13.42539,23.58631 13.06391,23.37761 13.07147,21.89999        "/></g><g><g><polygon class="st3" points="14.17047,22.53449 14.37663,22.41469 14.36907,23.89231 14.16291,24.01212         "/></g><g><polygon class="st7" points="13.80899,22.32579 14.01515,22.20599 14.37663,22.41469 14.17047,22.53449         "/></g><polygon class="st4" points="14.17047,22.53449 14.16291,24.01212 13.80144,23.80342 13.80899,22.32579        "/></g><g><g><polygon class="st3" points="9.74533,19.97964 9.95149,19.85983 9.94394,21.33746 9.73778,21.45726         "/></g><g><polygon class="st7" points="9.38385,19.77094 9.59001,19.65113 9.95149,19.85983 9.74533,19.97964         "/></g><polygon class="st4" points="9.74533,19.97964 9.73778,21.45726 9.3763,21.24856 9.38385,19.77094        "/></g></g></g><g><polygon class="st12" points="14.8102,25.2832 14.80299,27.58014 9.09705,24.28582 9.10426,21.98888      "/><g><g><g><polygon class="st3" points="10.48285,23.46101 10.68902,23.34121 10.68146,24.81883 10.4753,24.93863         "/></g><g><polygon class="st7" points="10.12138,23.25231 10.32754,23.13251 10.68902,23.34121 10.48285,23.46101         "/></g><polygon class="st4" points="10.48285,23.46101 10.4753,24.93863 10.11382,24.72993 10.12138,23.25231        "/></g><g><g><polygon class="st3" points="11.22038,23.88682 11.42654,23.76701 11.41898,25.24464 11.21282,25.36444         "/></g><g><polygon class="st7" points="10.8589,23.67812 11.06506,23.55832 11.42654,23.76701 11.22038,23.88682         "/></g><polygon class="st4" points="11.22038,23.88682 11.21282,25.36444 10.85134,25.15574 10.8589,23.67812        "/></g><g><g><polygon class="st3" points="11.9579,24.31263 12.16406,24.19282 12.15651,25.67045 11.95035,25.79025         "/></g><g><polygon class="st7" points="11.59642,24.10393 11.80258,23.98412 12.16406,24.19282 11.9579,24.31263         "/></g><polygon class="st4" points="11.9579,24.31263 11.95035,25.79025 11.58887,25.58155 11.59642,24.10393        "/></g><g><g><polygon class="st3" points="12.69542,24.73844 12.90158,24.61863 12.89403,26.09625 12.68787,26.21606         "/></g><g><polygon class="st7" points="12.33395,24.52974 12.54011,24.40993 12.90158,24.61863 12.69542,24.73844         "/></g><polygon class="st4" points="12.69542,24.73844 12.68787,26.21606 12.32639,26.00736 12.33395,24.52974        "/></g><g><g><polygon class="st3" points="13.43295,25.16425 13.63911,25.04444 13.63155,26.52206 13.42539,26.64187         "/></g><g><polygon class="st7" points="13.07147,24.95555 13.27763,24.83574 13.63911,25.04444 13.43295,25.16425         "/></g><polygon class="st4" points="13.43295,25.16425 13.42539,26.64187 13.06391,26.43317 13.07147,24.95555        "/></g><g><g><polygon class="st3" points="14.17047,25.59006 14.37663,25.47025 14.36907,26.94787 14.16291,27.06768         "/></g><g><polygon class="st7" points="13.80899,25.38136 14.01515,25.26155 14.37663,25.47025 14.17047,25.59006         "/></g><polygon class="st4" points="14.17047,25.59006 14.16291,27.06768 13.80144,26.85898 13.80899,25.38136        "/></g><g><g><polygon class="st3" points="9.74533,23.0352 9.95149,22.9154 9.94394,24.39302 9.73778,24.51283         "/></g><g><polygon class="st7" points="9.38385,22.8265 9.59001,22.7067 9.95149,22.9154 9.74533,23.0352         "/></g><polygon class="st4" points="9.74533,23.0352 9.73778,24.51283 9.3763,24.30413 9.38385,22.8265        "/></g></g></g><g><polygon class="st12" points="14.8102,28.33877 14.80299,30.63571 9.09705,27.34138 9.10426,25.04444      "/><g><g><g><polygon class="st3" points="10.48285,26.51658 10.68902,26.39677 10.68146,27.87439 10.4753,27.9942         "/></g><g><polygon class="st7" points="10.12138,26.30788 10.32754,26.18807 10.68902,26.39677 10.48285,26.51658         "/></g><polygon class="st4" points="10.48285,26.51658 10.4753,27.9942 10.11382,27.7855 10.12138,26.30788        "/></g><g><g><polygon class="st3" points="11.22038,26.94238 11.42654,26.82258 11.41898,28.3002 11.21282,28.42001         "/></g><g><polygon class="st7" points="10.8589,26.73368 11.06506,26.61388 11.42654,26.82258 11.22038,26.94238         "/></g><polygon class="st4" points="11.22038,26.94238 11.21282,28.42001 10.85134,28.21131 10.8589,26.73368        "/></g><g><g><polygon class="st3" points="11.9579,27.36819 12.16406,27.24839 12.15651,28.72601 11.95035,28.84582         "/></g><g><polygon class="st7" points="11.59642,27.15949 11.80258,27.03969 12.16406,27.24839 11.9579,27.36819         "/></g><polygon class="st4" points="11.9579,27.36819 11.95035,28.84582 11.58887,28.63712 11.59642,27.15949        "/></g><g><g><polygon class="st3" points="12.69542,27.794 12.90158,27.6742 12.89403,29.15182 12.68787,29.27163         "/></g><g><polygon class="st7" points="12.33395,27.5853 12.54011,27.4655 12.90158,27.6742 12.69542,27.794         "/></g><polygon class="st4" points="12.69542,27.794 12.68787,29.27163 12.32639,29.06293 12.33395,27.5853        "/></g><g><g><polygon class="st3" points="13.43295,28.21981 13.63911,28.1 13.63155,29.57763 13.42539,29.69744         "/></g><g><polygon class="st7" points="13.07147,28.01111 13.27763,27.89131 13.63911,28.1 13.43295,28.21981         "/></g><polygon class="st4" points="13.43295,28.21981 13.42539,29.69744 13.06391,29.48874 13.07147,28.01111        "/></g><g><g><polygon class="st3" points="14.17047,28.64562 14.37663,28.52581 14.36907,30.00344 14.16291,30.12324         "/></g><g><polygon class="st7" points="13.80899,28.43692 14.01515,28.31711 14.37663,28.52581 14.17047,28.64562         "/></g><polygon class="st4" points="14.17047,28.64562 14.16291,30.12324 13.80144,29.91455 13.80899,28.43692        "/></g><g><g><polygon class="st3" points="9.74533,26.09077 9.95149,25.97096 9.94394,27.44858 9.73778,27.56839         "/></g><g><polygon class="st7" points="9.38385,25.88207 9.59001,25.76226 9.95149,25.97096 9.74533,26.09077         "/></g><polygon class="st4" points="9.74533,26.09077 9.73778,27.56839 9.3763,27.35969 9.38385,25.88207        "/></g></g></g><path class="st11" d="M22.49034,27.72435c-0.03049,0.0176-0.0556,0.06109-0.0555,0.09613      c0.0001,0.0358,0.02537,0.0502,0.05586,0.03259l1.3549-0.78225c0.03049-0.0176,0.0556-0.06109,0.0555-0.09689      c-0.0001-0.03504-0.02537-0.04944-0.05586-0.03184L22.49034,27.72435z"/><path class="st11" d="M22.48949,27.42577c-0.03049,0.0176-0.0556,0.06109-0.0555,0.09689      c0.0001,0.03504,0.02537,0.04944,0.05586,0.03184l1.3549-0.78225c0.03049-0.0176,0.0556-0.0611,0.0555-0.09613      c-0.0001-0.0358-0.02537-0.0502-0.05586-0.03259L22.48949,27.42577z"/><path class="st11" d="M22.48865,27.12795c-0.03049,0.0176-0.0556,0.06033-0.0555,0.09613      c0.0001,0.03504,0.02537,0.04944,0.05586,0.03183l1.3549-0.78225c0.03049-0.0176,0.0556-0.06109,0.0555-0.09613      c-0.0001-0.0358-0.02537-0.04944-0.05586-0.03184L22.48865,27.12795z"/><path class="st11" d="M22.4878,26.82937c-0.03049,0.0176-0.0556,0.06032-0.0555,0.09613      c0.0001,0.03504,0.02537,0.04944,0.05586,0.03183l1.3549-0.78225c0.03049-0.0176,0.0556-0.06109,0.0555-0.09613      c-0.0001-0.0358-0.02537-0.04944-0.05586-0.03183L22.4878,26.82937z"/><path class="st11" d="M22.48611,26.23221c-0.03049,0.0176-0.0556,0.06033-0.0555,0.09613      c0.0001,0.03504,0.02537,0.04944,0.05586,0.03184l1.3549-0.78225c0.03049-0.0176,0.0556-0.06109,0.0555-0.09613      c-0.0001-0.0358-0.02537-0.04944-0.05586-0.03183L22.48611,26.23221z"/><path class="st11" d="M22.48696,26.53079c-0.03049,0.0176-0.0556,0.06033-0.0555,0.09613      c0.0001,0.03504,0.02537,0.04944,0.05586,0.03183l1.3549-0.78225c0.03049-0.0176,0.0556-0.06109,0.0555-0.09613      c-0.0001-0.0358-0.02537-0.04944-0.05586-0.03183L22.48696,26.53079z"/><path class="st11" d="M22.49034,25.00661c-0.03049,0.0176-0.0556,0.06109-0.0555,0.09613      c0.0001,0.0358,0.02537,0.0502,0.05586,0.03259l1.3549-0.78225c0.03049-0.0176,0.0556-0.06109,0.0555-0.09689      c-0.0001-0.03504-0.02537-0.04944-0.05586-0.03184L22.49034,25.00661z"/><path class="st11" d="M22.48949,24.70803c-0.03049,0.0176-0.0556,0.06109-0.0555,0.09689      c0.0001,0.03504,0.02537,0.04944,0.05586,0.03184l1.3549-0.78225c0.03049-0.0176,0.0556-0.0611,0.0555-0.09613      c-0.0001-0.0358-0.02537-0.0502-0.05586-0.03259L22.48949,24.70803z"/><path class="st11" d="M22.48865,24.41021c-0.03049,0.0176-0.0556,0.06033-0.0555,0.09613      c0.0001,0.03504,0.02537,0.04944,0.05586,0.03183l1.3549-0.78225c0.03049-0.0176,0.0556-0.06109,0.0555-0.09613      c-0.0001-0.0358-0.02537-0.04944-0.05586-0.03184L22.48865,24.41021z"/><path class="st11" d="M22.4878,24.11163c-0.03049,0.0176-0.0556,0.06033-0.0555,0.09613      c0.0001,0.03504,0.02537,0.04944,0.05586,0.03183l1.3549-0.78225c0.03049-0.0176,0.0556-0.06109,0.0555-0.09613      c-0.0001-0.0358-0.02537-0.04944-0.05586-0.03183L22.4878,24.11163z"/><path class="st11" d="M22.48611,23.51447c-0.03049,0.0176-0.0556,0.06033-0.0555,0.09613      c0.0001,0.03504,0.02537,0.04944,0.05586,0.03184l1.3549-0.78225c0.03049-0.0176,0.0556-0.0611,0.0555-0.09613      c-0.0001-0.0358-0.02537-0.04944-0.05586-0.03183L22.48611,23.51447z"/><path class="st11" d="M22.48696,23.81305c-0.03049,0.0176-0.0556,0.06033-0.0555,0.09613      c0.0001,0.03504,0.02537,0.04944,0.05586,0.03183l1.3549-0.78225c0.03049-0.0176,0.0556-0.06109,0.0555-0.09613      c-0.0001-0.0358-0.02537-0.04944-0.05586-0.03183L22.48696,23.81305z"/><path class="st11" d="M22.49034,22.28886c-0.03049,0.0176-0.0556,0.06109-0.0555,0.09613      c0.0001,0.0358,0.02537,0.0502,0.05586,0.03259l1.3549-0.78225c0.03049-0.0176,0.0556-0.06109,0.0555-0.09689      c-0.0001-0.03504-0.02537-0.04944-0.05586-0.03184L22.49034,22.28886z"/><path class="st11" d="M22.48949,21.99029c-0.03049,0.0176-0.0556,0.06109-0.0555,0.09689      c0.0001,0.03504,0.02537,0.04944,0.05586,0.03184l1.3549-0.78225c0.03049-0.0176,0.0556-0.0611,0.0555-0.09613      c-0.0001-0.0358-0.02537-0.0502-0.05586-0.03259L22.48949,21.99029z"/><path class="st11" d="M22.48865,21.69246c-0.03049,0.0176-0.0556,0.06033-0.0555,0.09613      c0.0001,0.03504,0.02537,0.04944,0.05586,0.03183l1.3549-0.78225c0.03049-0.0176,0.0556-0.06109,0.0555-0.09613      c-0.0001-0.0358-0.02537-0.04944-0.05586-0.03184L22.48865,21.69246z"/><path class="st11" d="M22.4878,21.39389c-0.03049,0.0176-0.0556,0.06033-0.0555,0.09613      c0.0001,0.03504,0.02537,0.04944,0.05586,0.03183l1.3549-0.78225c0.03049-0.0176,0.0556-0.06109,0.0555-0.09613      c-0.0001-0.0358-0.02537-0.04944-0.05586-0.03183L22.4878,21.39389z"/><path class="st11" d="M22.48611,20.79672c-0.03049,0.0176-0.0556,0.06033-0.0555,0.09613      c0.0001,0.03504,0.02537,0.04944,0.05586,0.03184l1.3549-0.78225c0.03049-0.0176,0.0556-0.0611,0.0555-0.09613      c-0.0001-0.0358-0.02537-0.04944-0.05586-0.03183L22.48611,20.79672z"/><path class="st11" d="M22.48696,21.09531c-0.03049,0.0176-0.0556,0.06033-0.0555,0.09613      c0.0001,0.03504,0.02537,0.04944,0.05586,0.03183l1.3549-0.78225c0.03049-0.0176,0.0556-0.06109,0.0555-0.09613      c-0.0001-0.0358-0.02537-0.04944-0.05586-0.03183L22.48696,21.09531z"/><path class="st11" d="M22.49034,19.57112c-0.03049,0.0176-0.0556,0.06109-0.0555,0.09613      c0.0001,0.0358,0.02537,0.0502,0.05586,0.03259l1.3549-0.78225c0.03049-0.0176,0.0556-0.06109,0.0555-0.09689      c-0.0001-0.03504-0.02537-0.04944-0.05586-0.03184L22.49034,19.57112z"/><path class="st11" d="M22.48949,19.27254c-0.03049,0.0176-0.0556,0.06109-0.0555,0.09689      c0.0001,0.03504,0.02537,0.04944,0.05586,0.03184l1.3549-0.78225c0.03049-0.0176,0.0556-0.06109,0.0555-0.09613      c-0.0001-0.0358-0.02537-0.0502-0.05586-0.03259L22.48949,19.27254z"/><path class="st11" d="M22.48865,18.97472c-0.03049,0.0176-0.0556,0.06033-0.0555,0.09613      c0.0001,0.03504,0.02537,0.04944,0.05586,0.03183l1.3549-0.78225c0.03049-0.0176,0.0556-0.06109,0.0555-0.09613      c-0.0001-0.0358-0.02537-0.04944-0.05586-0.03184L22.48865,18.97472z"/><path class="st11" d="M22.4878,18.67614c-0.03049,0.0176-0.0556,0.06032-0.0555,0.09613      c0.0001,0.03504,0.02537,0.04944,0.05586,0.03183l1.3549-0.78225c0.03049-0.0176,0.0556-0.06109,0.0555-0.09613      c-0.0001-0.0358-0.02537-0.04944-0.05586-0.03183L22.4878,18.67614z"/><path class="st11" d="M22.48611,18.07898c-0.03049,0.0176-0.0556,0.06033-0.0555,0.09613      c0.0001,0.03504,0.02537,0.04944,0.05586,0.03184l1.3549-0.78225c0.03049-0.0176,0.0556-0.0611,0.0555-0.09613      c-0.0001-0.0358-0.02537-0.04944-0.05586-0.03183L22.48611,18.07898z"/><path class="st11" d="M22.48696,18.37756c-0.03049,0.0176-0.0556,0.06033-0.0555,0.09613      c0.0001,0.03504,0.02537,0.04944,0.05586,0.03183l1.3549-0.78225c0.03049-0.0176,0.0556-0.06109,0.0555-0.09613      c-0.0001-0.0358-0.02537-0.04944-0.05586-0.03183L22.48696,18.37756z"/><path class="st11" d="M22.49034,16.85337c-0.03049,0.0176-0.0556,0.06109-0.0555,0.09613      c0.0001,0.0358,0.02537,0.0502,0.05586,0.03259l1.3549-0.78225c0.03049-0.0176,0.0556-0.06109,0.0555-0.09689      c-0.0001-0.03504-0.02537-0.04944-0.05586-0.03184L22.49034,16.85337z"/><path class="st11" d="M22.48949,16.5548c-0.03049,0.0176-0.0556,0.06109-0.0555,0.09689      c0.0001,0.03504,0.02537,0.04944,0.05586,0.03184l1.3549-0.78225c0.03049-0.0176,0.0556-0.0611,0.0555-0.09613      c-0.0001-0.0358-0.02537-0.0502-0.05586-0.03259L22.48949,16.5548z"/><path class="st11" d="M22.48865,16.25698c-0.03049,0.0176-0.0556,0.06033-0.0555,0.09613      c0.0001,0.03504,0.02537,0.04944,0.05586,0.03183l1.3549-0.78225c0.03049-0.0176,0.0556-0.06109,0.0555-0.09613      c-0.0001-0.0358-0.02537-0.04944-0.05586-0.03184L22.48865,16.25698z"/><path class="st11" d="M22.4878,15.9584c-0.03049,0.0176-0.0556,0.06032-0.0555,0.09613      c0.0001,0.03504,0.02537,0.04944,0.05586,0.03183l1.3549-0.78225c0.03049-0.0176,0.0556-0.06109,0.0555-0.09613      c-0.0001-0.0358-0.02537-0.04944-0.05586-0.03183L22.4878,15.9584z"/><path class="st11" d="M22.48611,15.36124c-0.03049,0.0176-0.0556,0.06033-0.0555,0.09613      c0.0001,0.03504,0.02537,0.04944,0.05586,0.03184l1.3549-0.78225c0.03049-0.0176,0.0556-0.0611,0.0555-0.09613      c-0.0001-0.0358-0.02537-0.04944-0.05586-0.03183L22.48611,15.36124z"/><path class="st11" d="M22.48696,15.65982c-0.03049,0.0176-0.0556,0.06033-0.0555,0.09613      c0.0001,0.03504,0.02537,0.04944,0.05586,0.03183l1.3549-0.78225c0.03049-0.0176,0.0556-0.06109,0.0555-0.09613      c-0.0001-0.0358-0.02537-0.04944-0.05586-0.03183L22.48696,15.65982z"/><path class="st11" d="M22.49034,14.13563c-0.03049,0.0176-0.0556,0.06109-0.0555,0.09613      c0.0001,0.0358,0.02537,0.0502,0.05586,0.03259l1.3549-0.78225c0.03049-0.0176,0.0556-0.06109,0.0555-0.09689      c-0.0001-0.03504-0.02537-0.04944-0.05586-0.03184L22.49034,14.13563z"/><path class="st11" d="M22.48949,13.83706c-0.03049,0.0176-0.0556,0.06109-0.0555,0.09689      c0.0001,0.03504,0.02537,0.04944,0.05586,0.03184l1.3549-0.78225c0.03049-0.0176,0.0556-0.0611,0.0555-0.09613      c-0.0001-0.0358-0.02537-0.0502-0.05586-0.03259L22.48949,13.83706z"/><path class="st11" d="M22.48865,13.53923c-0.03049,0.0176-0.0556,0.06033-0.0555,0.09613      c0.0001,0.03504,0.02537,0.04944,0.05586,0.03183l1.3549-0.78225c0.03049-0.0176,0.0556-0.06109,0.0555-0.09613      c-0.0001-0.0358-0.02537-0.04944-0.05586-0.03184L22.48865,13.53923z"/><path class="st11" d="M22.4878,13.24066c-0.03049,0.0176-0.0556,0.06032-0.0555,0.09613      c0.0001,0.03504,0.02537,0.04944,0.05586,0.03183l1.3549-0.78225c0.03049-0.0176,0.0556-0.06109,0.0555-0.09613      c-0.0001-0.0358-0.02537-0.04944-0.05586-0.03183L22.4878,13.24066z"/><path class="st11" d="M22.48611,12.64349c-0.03049,0.0176-0.0556,0.06033-0.0555,0.09613      c0.0001,0.03504,0.02537,0.04944,0.05586,0.03184l1.3549-0.78225c0.03049-0.0176,0.0556-0.0611,0.0555-0.09613      c-0.0001-0.0358-0.02537-0.04944-0.05586-0.03183L22.48611,12.64349z"/><path class="st11" d="M22.48696,12.94208c-0.03049,0.0176-0.0556,0.06033-0.0555,0.09613      c0.0001,0.03504,0.02537,0.04944,0.05586,0.03183l1.3549-0.78225c0.03049-0.0176,0.0556-0.06109,0.0555-0.09613      c-0.0001-0.0358-0.02537-0.04944-0.05586-0.03183L22.48696,12.94208z"/><path class="st11" d="M22.49034,11.41789c-0.03049,0.0176-0.0556,0.06109-0.0555,0.09613      c0.0001,0.0358,0.02537,0.0502,0.05586,0.03259l1.3549-0.78225c0.03049-0.0176,0.0556-0.06109,0.0555-0.09689      c-0.0001-0.03504-0.02537-0.04944-0.05586-0.03184L22.49034,11.41789z"/><path class="st11" d="M22.48949,11.11931c-0.03049,0.0176-0.0556,0.06109-0.0555,0.09689      c0.0001,0.03504,0.02537,0.04944,0.05586,0.03184l1.3549-0.78225c0.03049-0.0176,0.0556-0.0611,0.0555-0.09613      c-0.0001-0.0358-0.02537-0.0502-0.05586-0.03259L22.48949,11.11931z"/><path class="st11" d="M22.48865,10.82149c-0.03049,0.0176-0.0556,0.06033-0.0555,0.09613      c0.0001,0.03504,0.02537,0.04944,0.05586,0.03183l1.3549-0.78225c0.03049-0.0176,0.0556-0.06109,0.0555-0.09613      c-0.0001-0.0358-0.02537-0.04944-0.05586-0.03184L22.48865,10.82149z"/><path class="st11" d="M22.4878,10.52291c-0.03049,0.0176-0.0556,0.06032-0.0555,0.09613      c0.0001,0.03504,0.02537,0.04944,0.05586,0.03183l1.3549-0.78225c0.03049-0.0176,0.0556-0.06109,0.0555-0.09613      c-0.0001-0.0358-0.02537-0.04944-0.05586-0.03183L22.4878,10.52291z"/><path class="st11" d="M22.48611,9.92575c-0.03049,0.0176-0.0556,0.06033-0.0555,0.09613      c0.0001,0.03504,0.02537,0.04944,0.05586,0.03184l1.3549-0.78225c0.03049-0.0176,0.0556-0.0611,0.0555-0.09613      c-0.0001-0.0358-0.02537-0.04944-0.05586-0.03183L22.48611,9.92575z"/><path class="st11" d="M22.48696,10.22433c-0.03049,0.0176-0.0556,0.06033-0.0555,0.09613      c0.0001,0.03504,0.02537,0.04944,0.05586,0.03183l1.3549-0.78225c0.03049-0.0176,0.0556-0.06109,0.0555-0.09613      c-0.0001-0.0358-0.02537-0.04944-0.05586-0.03183L22.48696,10.22433z"/><g><g><g><g><g><g><g><g><g><g><polygon class="st9" points="15.02574,12.51734 15.84473,12.0414 15.83403,33.24012 15.01505,33.71606                               "/></g><g><polygon class="st9" points="6.56571,7.63294 7.38469,7.157 15.84473,12.0414 15.02574,12.51734               "/></g><path class="st12" d="M6.56824,7.6353L6.55622,28.83295l8.45736,4.88208l0.01205-21.19765L6.56824,7.6353z                M14.03614,31.10681l-6.60522-3.81319L7.43669,8.70547l6.61107,3.81319L14.03614,31.10681z"/></g></g><polygon class="st19" points="7.43939,8.70416 7.43028,28.09541 14.03528,31.90904 14.04486,12.51734            "/></g></g></g></g></g></g><g><polygon class="st19" points="8.98629,28.99381 14.0378,26.17434 14.03815,25.51464 8.31113,28.60402       "/><polygon class="st19" points="7.43027,28.09539 7.56078,28.17073 14.03855,24.78146 14.03942,23.11277 7.43102,26.55425               "/><polygon class="st19" points="14.0417,18.62873 7.43323,21.26909 7.43292,21.92874 14.04135,19.28843       "/><polygon class="st19" points="14.04297,16.22686 7.43442,18.86722 7.43359,20.53587 14.0421,17.89555       "/><polygon class="st19" points="13.25217,12.05972 7.43659,14.38322 7.43627,15.04291 13.92737,12.44948       "/><polygon class="st19" points="10.79375,10.64053 7.43777,11.98135 7.43698,13.65004 12.50171,11.62648       "/></g></g><g><g><g class="st8"><g><path class="st0" d="M14.82428,22.98304l-0.37144,0.21352c-0.02647,0.01588-0.04941,0.01676-0.06705,0.00705          l-0.21616-0.12528l0.00088,0.17381c0.00088,0.08823,0.03176,0.15087,0.08294,0.18087l-0.31145-0.18087          c-0.05029-0.02999-0.08205-0.09175-0.08205-0.18087l-0.00265-1.47058c-0.00088-0.17911,0.12529-0.39703,0.28057-0.48614          l0.37144-0.21439l0.31057,0.17998l-0.37056,0.2144c-0.15617,0.08999-0.28145,0.30792-0.28145,0.48702l0.00177,1.21913          l0.34321-0.19851L14.82428,22.98304z"/></g></g></g><g><path class="st6" d="M14.82012,21.08056l0.00061,0.21555l-0.37122,0.21432c-0.05182,0.02992-0.09337,0.10253-0.0932,0.16208        l0.00267,1.47098c0.00017,0.05955,0.04199,0.08338,0.09381,0.05346l0.37122-0.21432l0.00061,0.2162l-0.37122,0.21432        c-0.15547,0.08976-0.28207,0.01697-0.28257-0.16103l-0.00267-1.47099c-0.00051-0.17865,0.12526-0.39649,0.28074-0.48625        L14.82012,21.08056z"/></g></g></g><g><g><g><g><g><g><g><polygon class="st9" points="35.33451,22.59823 44.01411,18.2349 44.00342,39.43381 35.32381,44.47784           "/></g><g><polygon class="st11" points="26.8744,18.39449 35.554,13.35045 44.01411,18.2349 35.33451,23.27894           "/></g><g><polygon class="st12" points="35.33451,23.27894 35.32381,44.47784 26.8637,39.5934 26.8744,18.39449           "/><g><polygon class="st11" points="27.89617,19.57526 27.38534,19.28037 27.37535,39.29798 34.81269,43.59213              34.81319,42.95333 27.88668,38.9541            "/><polygon class="st9" points="27.89617,19.57526 27.88668,38.9541 34.81319,42.95333 34.82318,23.57402            "/></g></g></g><g><polygon class="st12" points="34.29997,24.29849 34.29276,26.59545 28.58677,23.3011 28.59398,21.00414          "/><g><g><g><polygon class="st3" points="29.97259,22.47629 30.17875,22.35648 30.17119,23.83411 29.96503,23.95392             "/></g><g><polygon class="st7" points="29.6111,22.26758 29.81727,22.14778 30.17875,22.35648 29.97259,22.47629             "/></g><polygon class="st4" points="29.97259,22.47629 29.96503,23.95392 29.60355,23.74522 29.6111,22.26758            "/></g><g><g><polygon class="st3" points="30.71012,22.9021 30.91628,22.78229 30.90872,24.25993 30.70256,24.37973             "/></g><g><polygon class="st7" points="30.34863,22.6934 30.5548,22.57359 30.91628,22.78229 30.71012,22.9021             "/></g><polygon class="st4" points="30.71012,22.9021 30.70256,24.37973 30.34108,24.17103 30.34863,22.6934            "/></g><g><g><polygon class="st3" points="31.44765,23.32791 31.65381,23.2081 31.64625,24.68574 31.44009,24.80555             "/></g><g><polygon class="st7" points="31.08616,23.11921 31.29232,22.9994 31.65381,23.2081 31.44765,23.32791             "/></g><polygon class="st4" points="31.44765,23.32791 31.44009,24.80555 31.07861,24.59685 31.08616,23.11921            "/></g><g><g><polygon class="st3" points="32.18517,23.75372 32.39133,23.63391 32.38378,25.11155 32.17762,25.23136             "/></g><g><polygon class="st7" points="31.82369,23.54502 32.02985,23.42521 32.39133,23.63391 32.18517,23.75372             "/></g><polygon class="st4" points="32.18517,23.75372 32.17762,25.23136 31.81614,25.02266 31.82369,23.54502            "/></g><g><g><polygon class="st3" points="32.9227,24.17954 33.12886,24.05973 33.12131,25.53736 32.91515,25.65717             "/></g><g><polygon class="st7" points="32.56122,23.97083 32.76738,23.85103 33.12886,24.05973 32.9227,24.17954             "/></g><polygon class="st4" points="32.9227,24.17954 32.91515,25.65717 32.55367,25.44847 32.56122,23.97083            "/></g><g><g><polygon class="st3" points="33.66023,24.60535 33.86639,24.48554 33.85884,25.96318 33.65268,26.08298             "/></g><g><polygon class="st7" points="33.29875,24.39665 33.50491,24.27684 33.86639,24.48554 33.66023,24.60535             "/></g><polygon class="st4" points="33.66023,24.60535 33.65268,26.08298 33.29119,25.87428 33.29875,24.39665            "/></g><g><g><polygon class="st3" points="29.23506,22.05047 29.44122,21.93066 29.43366,23.4083 29.2275,23.52811             "/></g><g><polygon class="st7" points="28.87358,21.84177 29.07974,21.72196 29.44122,21.93066 29.23506,22.05047             "/></g><polygon class="st4" points="29.23506,22.05047 29.2275,23.52811 28.86602,23.31941 28.87358,21.84177            "/></g></g></g><g><polygon class="st12" points="34.29997,27.35408 34.29276,29.65104 28.58677,26.35669 28.59398,24.05973          "/><g><g><g><polygon class="st3" points="29.97259,25.53188 30.17875,25.41207 30.17119,26.8897 29.96503,27.00951             "/></g><g><polygon class="st7" points="29.6111,25.32318 29.81727,25.20337 30.17875,25.41207 29.97259,25.53188             "/></g><polygon class="st4" points="29.97259,25.53188 29.96503,27.00951 29.60355,26.80081 29.6111,25.32318            "/></g><g><g><polygon class="st3" points="30.71012,25.95769 30.91628,25.83788 30.90872,27.31552 30.70256,27.43532             "/></g><g><polygon class="st7" points="30.34863,25.74899 30.5548,25.62918 30.91628,25.83788 30.71012,25.95769             "/></g><polygon class="st4" points="30.71012,25.95769 30.70256,27.43532 30.34108,27.22662 30.34863,25.74899            "/></g><g><g><polygon class="st3" points="31.44765,26.3835 31.65381,26.26369 31.64625,27.74133 31.44009,27.86114             "/></g><g><polygon class="st7" points="31.08616,26.1748 31.29232,26.05499 31.65381,26.26369 31.44765,26.3835             "/></g><polygon class="st4" points="31.44765,26.3835 31.44009,27.86114 31.07861,27.65244 31.08616,26.1748            "/></g><g><g><polygon class="st3" points="32.18517,26.80931 32.39133,26.68951 32.38378,28.16714 32.17762,28.28695             "/></g><g><polygon class="st7" points="31.82369,26.60061 32.02985,26.4808 32.39133,26.68951 32.18517,26.80931             "/></g><polygon class="st4" points="32.18517,26.80931 32.17762,28.28695 31.81614,28.07825 31.82369,26.60061            "/></g><g><g><polygon class="st3" points="32.9227,27.23513 33.12886,27.11532 33.12131,28.59295 32.91515,28.71276             "/></g><g><polygon class="st7" points="32.56122,27.02643 32.76738,26.90662 33.12886,27.11532 32.9227,27.23513             "/></g><polygon class="st4" points="32.9227,27.23513 32.91515,28.71276 32.55367,28.50406 32.56122,27.02643            "/></g><g><g><polygon class="st3" points="33.66023,27.66094 33.86639,27.54113 33.85884,29.01877 33.65268,29.13858             "/></g><g><polygon class="st7" points="33.29875,27.45224 33.50491,27.33243 33.86639,27.54113 33.66023,27.66094             "/></g><polygon class="st4" points="33.66023,27.66094 33.65268,29.13858 33.29119,28.92987 33.29875,27.45224            "/></g><g><g><polygon class="st3" points="29.23506,25.10606 29.44122,24.98626 29.43366,26.46389 29.2275,26.5837             "/></g><g><polygon class="st7" points="28.87358,24.89736 29.07974,24.77755 29.44122,24.98626 29.23506,25.10606             "/></g><polygon class="st4" points="29.23506,25.10606 29.2275,26.5837 28.86602,26.375 28.87358,24.89736            "/></g></g></g><g><polygon class="st12" points="34.29997,30.40967 34.29276,32.70663 28.58677,29.41228 28.59398,27.11532          "/><g><g><g><polygon class="st3" points="29.97259,28.58747 30.17875,28.46766 30.17119,29.94529 29.96503,30.0651             "/></g><g><polygon class="st7" points="29.6111,28.37877 29.81727,28.25896 30.17875,28.46766 29.97259,28.58747             "/></g><polygon class="st4" points="29.97259,28.58747 29.96503,30.0651 29.60355,29.8564 29.6111,28.37877            "/></g><g><g><polygon class="st3" points="30.71012,29.01328 30.91628,28.89347 30.90872,30.37111 30.70256,30.49092             "/></g><g><polygon class="st7" points="30.34863,28.80458 30.5548,28.68477 30.91628,28.89347 30.71012,29.01328             "/></g><polygon class="st4" points="30.71012,29.01328 30.70256,30.49092 30.34108,30.28221 30.34863,28.80458            "/></g><g><g><polygon class="st3" points="31.44765,29.43909 31.65381,29.31928 31.64625,30.79692 31.44009,30.91673             "/></g><g><polygon class="st7" points="31.08616,29.23039 31.29232,29.11058 31.65381,29.31928 31.44765,29.43909             "/></g><polygon class="st4" points="31.44765,29.43909 31.44009,30.91673 31.07861,30.70803 31.08616,29.23039            "/></g><g><g><polygon class="st3" points="32.18517,29.8649 32.39133,29.7451 32.38378,31.22273 32.17762,31.34254             "/></g><g><polygon class="st7" points="31.82369,29.6562 32.02985,29.53639 32.39133,29.7451 32.18517,29.8649             "/></g><polygon class="st4" points="32.18517,29.8649 32.17762,31.34254 31.81614,31.13384 31.82369,29.6562            "/></g><g><g><polygon class="st3" points="32.9227,30.29072 33.12886,30.17091 33.12131,31.64854 32.91515,31.76835             "/></g><g><polygon class="st7" points="32.56122,30.08202 32.76738,29.96221 33.12886,30.17091 32.9227,30.29072             "/></g><polygon class="st4" points="32.9227,30.29072 32.91515,31.76835 32.55367,31.55965 32.56122,30.08202            "/></g><g><g><polygon class="st3" points="33.66023,30.71653 33.86639,30.59672 33.85884,32.07436 33.65268,32.19416             "/></g><g><polygon class="st7" points="33.29875,30.50783 33.50491,30.38802 33.86639,30.59672 33.66023,30.71653             "/></g><polygon class="st4" points="33.66023,30.71653 33.65268,32.19416 33.29119,31.98546 33.29875,30.50783            "/></g><g><g><polygon class="st3" points="29.23506,28.16165 29.44122,28.04185 29.43366,29.51948 29.2275,29.63929             "/></g><g><polygon class="st7" points="28.87358,27.95295 29.07974,27.83314 29.44122,28.04185 29.23506,28.16165             "/></g><polygon class="st4" points="29.23506,28.16165 29.2275,29.63929 28.86602,29.43059 28.87358,27.95295            "/></g></g></g><g><polygon class="st12" points="34.29997,33.46526 34.29276,35.76222 28.58677,32.46787 28.59398,30.17091          "/><g><g><g><polygon class="st3" points="29.97259,31.64306 30.17875,31.52325 30.17119,33.00089 29.96503,33.12069             "/></g><g><polygon class="st7" points="29.6111,31.43435 29.81727,31.31455 30.17875,31.52325 29.97259,31.64306             "/></g><polygon class="st4" points="29.97259,31.64306 29.96503,33.12069 29.60355,32.91199 29.6111,31.43435            "/></g><g><g><polygon class="st3" points="30.71012,32.06887 30.91628,31.94906 30.90872,33.4267 30.70256,33.5465             "/></g><g><polygon class="st7" points="30.34863,31.86017 30.5548,31.74036 30.91628,31.94906 30.71012,32.06887             "/></g><polygon class="st4" points="30.71012,32.06887 30.70256,33.5465 30.34108,33.3378 30.34863,31.86017            "/></g><g><g><polygon class="st3" points="31.44765,32.49468 31.65381,32.37487 31.64625,33.85251 31.44009,33.97232             "/></g><g><polygon class="st7" points="31.08616,32.28598 31.29232,32.16617 31.65381,32.37487 31.44765,32.49468             "/></g><polygon class="st4" points="31.44765,32.49468 31.44009,33.97232 31.07861,33.76361 31.08616,32.28598            "/></g><g><g><polygon class="st3" points="32.18517,32.92049 32.39133,32.80069 32.38378,34.27832 32.17762,34.39813             "/></g><g><polygon class="st7" points="31.82369,32.71179 32.02985,32.59198 32.39133,32.80069 32.18517,32.92049             "/></g><polygon class="st4" points="32.18517,32.92049 32.17762,34.39813 31.81614,34.18943 31.82369,32.71179            "/></g><g><g><polygon class="st3" points="32.9227,33.34631 33.12886,33.2265 33.12131,34.70414 32.91515,34.82394             "/></g><g><polygon class="st7" points="32.56122,33.13761 32.76738,33.0178 33.12886,33.2265 32.9227,33.34631             "/></g><polygon class="st4" points="32.9227,33.34631 32.91515,34.82394 32.55367,34.61524 32.56122,33.13761            "/></g><g><g><polygon class="st3" points="33.66023,33.77212 33.86639,33.65231 33.85884,35.12995 33.65268,35.24976             "/></g><g><polygon class="st7" points="33.29875,33.56342 33.50491,33.44361 33.86639,33.65231 33.66023,33.77212             "/></g><polygon class="st4" points="33.66023,33.77212 33.65268,35.24976 33.29119,35.04105 33.29875,33.56342            "/></g><g><g><polygon class="st3" points="29.23506,31.21724 29.44122,31.09743 29.43366,32.57507 29.2275,32.69488             "/></g><g><polygon class="st7" points="28.87358,31.00854 29.07974,30.88873 29.44122,31.09743 29.23506,31.21724             "/></g><polygon class="st4" points="29.23506,31.21724 29.2275,32.69488 28.86602,32.48618 28.87358,31.00854            "/></g></g></g><g><polygon class="st12" points="34.29997,36.52085 34.29276,38.81781 28.58677,35.52346 28.59398,33.2265          "/><g><g><g><polygon class="st3" points="29.97259,34.69865 30.17875,34.57884 30.17119,36.05647 29.96503,36.17628             "/></g><g><polygon class="st7" points="29.6111,34.48994 29.81727,34.37014 30.17875,34.57884 29.97259,34.69865             "/></g><polygon class="st4" points="29.97259,34.69865 29.96503,36.17628 29.60355,35.96758 29.6111,34.48994            "/></g><g><g><polygon class="st3" points="30.71012,35.12446 30.91628,35.00465 30.90872,36.48229 30.70256,36.6021             "/></g><g><polygon class="st7" points="30.34863,34.91576 30.5548,34.79595 30.91628,35.00465 30.71012,35.12446             "/></g><polygon class="st4" points="30.71012,35.12446 30.70256,36.6021 30.34108,36.39339 30.34863,34.91576            "/></g><g><g><polygon class="st3" points="31.44765,35.55027 31.65381,35.43047 31.64625,36.9081 31.44009,37.02791             "/></g><g><polygon class="st7" points="31.08616,35.34157 31.29232,35.22176 31.65381,35.43047 31.44765,35.55027             "/></g><polygon class="st4" points="31.44765,35.55027 31.44009,37.02791 31.07861,36.81921 31.08616,35.34157            "/></g><g><g><polygon class="st3" points="32.18517,35.97609 32.39133,35.85628 32.38378,37.33391 32.17762,37.45372             "/></g><g><polygon class="st7" points="31.82369,35.76738 32.02985,35.64758 32.39133,35.85628 32.18517,35.97609             "/></g><polygon class="st4" points="32.18517,35.97609 32.17762,37.45372 31.81614,37.24502 31.82369,35.76738            "/></g><g><g><polygon class="st3" points="32.9227,36.4019 33.12886,36.28209 33.12131,37.75972 32.91515,37.87954             "/></g><g><polygon class="st7" points="32.56122,36.1932 32.76738,36.07339 33.12886,36.28209 32.9227,36.4019             "/></g><polygon class="st4" points="32.9227,36.4019 32.91515,37.87954 32.55367,37.67083 32.56122,36.1932            "/></g><g><g><polygon class="st3" points="33.66023,36.82771 33.86639,36.7079 33.85884,38.18554 33.65268,38.30535             "/></g><g><polygon class="st7" points="33.29875,36.61901 33.50491,36.4992 33.86639,36.7079 33.66023,36.82771             "/></g><polygon class="st4" points="33.66023,36.82771 33.65268,38.30535 33.29119,38.09665 33.29875,36.61901            "/></g><g><g><polygon class="st3" points="29.23506,34.27283 29.44122,34.15303 29.43366,35.63066 29.2275,35.75047             "/></g><g><polygon class="st7" points="28.87358,34.06413 29.07974,33.94432 29.44122,34.15303 29.23506,34.27283             "/></g><polygon class="st4" points="29.23506,34.27283 29.2275,35.75047 28.86602,35.54177 28.87358,34.06413            "/></g></g></g><g><polygon class="st12" points="34.29997,39.57644 34.29276,41.8734 28.58677,38.57905 28.59398,36.28209          "/><g><g><g><polygon class="st3" points="29.97259,37.75424 30.17875,37.63443 30.17119,39.11206 29.96503,39.23187             "/></g><g><polygon class="st7" points="29.6111,37.54554 29.81727,37.42573 30.17875,37.63443 29.97259,37.75424             "/></g><polygon class="st4" points="29.97259,37.75424 29.96503,39.23187 29.60355,39.02317 29.6111,37.54554            "/></g><g><g><polygon class="st3" points="30.71012,38.18005 30.91628,38.06024 30.90872,39.53788 30.70256,39.65768             "/></g><g><polygon class="st7" points="30.34863,37.97135 30.5548,37.85154 30.91628,38.06024 30.71012,38.18005             "/></g><polygon class="st4" points="30.71012,38.18005 30.70256,39.65768 30.34108,39.44899 30.34863,37.97135            "/></g><g><g><polygon class="st3" points="31.44765,38.60586 31.65381,38.48605 31.64625,39.96369 31.44009,40.0835             "/></g><g><polygon class="st7" points="31.08616,38.39716 31.29232,38.27735 31.65381,38.48605 31.44765,38.60586             "/></g><polygon class="st4" points="31.44765,38.60586 31.44009,40.0835 31.07861,39.8748 31.08616,38.39716            "/></g><g><g><polygon class="st3" points="32.18517,39.03168 32.39133,38.91187 32.38378,40.3895 32.17762,40.50931             "/></g><g><polygon class="st7" points="31.82369,38.82298 32.02985,38.70317 32.39133,38.91187 32.18517,39.03168             "/></g><polygon class="st4" points="32.18517,39.03168 32.17762,40.50931 31.81614,40.30061 31.82369,38.82298            "/></g><g><g><polygon class="st3" points="32.9227,39.45749 33.12886,39.33768 33.12131,40.81532 32.91515,40.93512             "/></g><g><polygon class="st7" points="32.56122,39.24879 32.76738,39.12898 33.12886,39.33768 32.9227,39.45749             "/></g><polygon class="st4" points="32.9227,39.45749 32.91515,40.93512 32.55367,40.72642 32.56122,39.24879            "/></g><g><g><polygon class="st3" points="33.66023,39.8833 33.86639,39.76349 33.85884,41.24113 33.65268,41.36094             "/></g><g><polygon class="st7" points="33.29875,39.6746 33.50491,39.55479 33.86639,39.76349 33.66023,39.8833             "/></g><polygon class="st4" points="33.66023,39.8833 33.65268,41.36094 33.29119,41.15224 33.29875,39.6746            "/></g><g><g><polygon class="st3" points="29.23506,37.32843 29.44122,37.20862 29.43366,38.68625 29.2275,38.80606             "/></g><g><polygon class="st7" points="28.87358,37.11972 29.07974,36.99992 29.44122,37.20862 29.23506,37.32843             "/></g><polygon class="st4" points="29.23506,37.32843 29.2275,38.80606 28.86602,38.59736 28.87358,37.11972            "/></g></g></g></g></g></g><g><g><g><path class="st11" d="M41.98018,38.96202c-0.03049,0.0176-0.0556,0.06109-0.0555,0.09613          c0.0001,0.0358,0.02537,0.0502,0.05587,0.03259l1.35491-0.78226c0.03049-0.0176,0.0556-0.06109,0.0555-0.09689          c-0.0001-0.03504-0.02537-0.04944-0.05587-0.03184L41.98018,38.96202z"/></g><g><path class="st11" d="M41.97933,38.66344c-0.03049,0.0176-0.0556,0.06109-0.0555,0.09689          c0.0001,0.03504,0.02537,0.04945,0.05586,0.03184l1.35491-0.78226c0.03049-0.0176,0.0556-0.0611,0.0555-0.09613          c-0.0001-0.0358-0.02537-0.0502-0.05586-0.03259L41.97933,38.66344z"/></g><g><path class="st11" d="M41.97849,38.36562c-0.03049,0.0176-0.0556,0.06033-0.0555,0.09613          c0.0001,0.03504,0.02537,0.04944,0.05586,0.03183l1.35491-0.78226c0.03049-0.0176,0.0556-0.06109,0.0555-0.09613          c-0.0001-0.0358-0.02537-0.04944-0.05586-0.03184L41.97849,38.36562z"/></g><g><path class="st11" d="M41.97764,38.06704c-0.03049,0.0176-0.0556,0.06032-0.0555,0.09613          c0.0001,0.03504,0.02537,0.04944,0.05586,0.03183l1.35491-0.78226c0.03049-0.0176,0.0556-0.06109,0.0555-0.09613          c-0.0001-0.0358-0.02537-0.04944-0.05587-0.03183L41.97764,38.06704z"/></g><g><path class="st11" d="M41.97594,37.46987c-0.03049,0.0176-0.0556,0.06033-0.0555,0.09613          c0.0001,0.03504,0.02537,0.04944,0.05586,0.03184l1.35491-0.78226c0.03049-0.0176,0.0556-0.0611,0.0555-0.09613          c-0.0001-0.0358-0.02537-0.04944-0.05587-0.03183L41.97594,37.46987z"/></g><g><path class="st11" d="M41.97679,37.76846c-0.03049,0.0176-0.0556,0.06033-0.0555,0.09613          c0.0001,0.03504,0.02537,0.04944,0.05586,0.03183l1.35491-0.78226c0.03049-0.0176,0.0556-0.06109,0.0555-0.09613          c-0.0001-0.0358-0.02537-0.04944-0.05587-0.03183L41.97679,37.76846z"/></g></g><g><g><path class="st11" d="M41.98018,36.24425c-0.03049,0.0176-0.0556,0.0611-0.0555,0.09613          c0.0001,0.0358,0.02537,0.0502,0.05587,0.03259l1.35491-0.78226c0.03049-0.0176,0.0556-0.06109,0.0555-0.09689          c-0.0001-0.03504-0.02537-0.04944-0.05587-0.03184L41.98018,36.24425z"/></g><g><path class="st11" d="M41.97933,35.94567c-0.03049,0.0176-0.0556,0.06109-0.0555,0.09689          c0.0001,0.03504,0.02537,0.04944,0.05586,0.03184l1.35491-0.78226c0.03049-0.0176,0.0556-0.0611,0.0555-0.09613          c-0.0001-0.0358-0.02537-0.05019-0.05586-0.03259L41.97933,35.94567z"/></g><g><path class="st11" d="M41.97849,35.64785c-0.03049,0.0176-0.0556,0.06033-0.0555,0.09613          c0.0001,0.03504,0.02537,0.04944,0.05586,0.03183l1.35491-0.78226c0.03049-0.0176,0.0556-0.06109,0.0555-0.09613          c-0.0001-0.0358-0.02537-0.04944-0.05586-0.03184L41.97849,35.64785z"/></g><g><path class="st11" d="M41.97764,35.34927c-0.03049,0.0176-0.0556,0.06033-0.0555,0.09613          c0.0001,0.03504,0.02537,0.04944,0.05586,0.03183l1.35491-0.78226c0.03049-0.0176,0.0556-0.06109,0.0555-0.09613          c-0.0001-0.0358-0.02537-0.04944-0.05587-0.03183L41.97764,35.34927z"/></g><g><path class="st11" d="M41.97594,34.7521c-0.03049,0.0176-0.0556,0.06033-0.0555,0.09613          c0.0001,0.03504,0.02537,0.04945,0.05586,0.03184l1.35491-0.78226c0.03049-0.0176,0.0556-0.0611,0.0555-0.09613          c-0.0001-0.0358-0.02537-0.04944-0.05587-0.03183L41.97594,34.7521z"/></g><g><path class="st11" d="M41.97679,35.05069c-0.03049,0.0176-0.0556,0.06033-0.0555,0.09613          c0.0001,0.03504,0.02537,0.04944,0.05586,0.03183l1.35491-0.78226c0.03049-0.0176,0.0556-0.06109,0.0555-0.09613          c-0.0001-0.0358-0.02537-0.04944-0.05587-0.03183L41.97679,35.05069z"/></g></g><g><g><path class="st11" d="M41.98018,33.52649c-0.03049,0.0176-0.0556,0.0611-0.0555,0.09613          c0.0001,0.0358,0.02537,0.0502,0.05587,0.03259l1.35491-0.78226c0.03049-0.0176,0.0556-0.06109,0.0555-0.09689          c-0.0001-0.03504-0.02537-0.04944-0.05587-0.03184L41.98018,33.52649z"/></g><g><path class="st11" d="M41.97933,33.22791c-0.03049,0.0176-0.0556,0.06109-0.0555,0.09689          c0.0001,0.03504,0.02537,0.04944,0.05586,0.03184l1.35491-0.78226c0.03049-0.0176,0.0556-0.0611,0.0555-0.09613          c-0.0001-0.0358-0.02537-0.0502-0.05586-0.03259L41.97933,33.22791z"/></g><g><path class="st11" d="M41.97849,32.93008c-0.03049,0.0176-0.0556,0.06033-0.0555,0.09613          c0.0001,0.03504,0.02537,0.04944,0.05586,0.03183l1.35491-0.78226c0.03049-0.0176,0.0556-0.06109,0.0555-0.09613          c-0.0001-0.0358-0.02537-0.04944-0.05586-0.03184L41.97849,32.93008z"/></g><g><path class="st11" d="M41.97764,32.6315c-0.03049,0.0176-0.0556,0.06033-0.0555,0.09613          c0.0001,0.03504,0.02537,0.04944,0.05586,0.03183l1.35491-0.78226c0.03049-0.0176,0.0556-0.06109,0.0555-0.09613          c-0.0001-0.0358-0.02537-0.04944-0.05587-0.03183L41.97764,32.6315z"/></g><g><path class="st11" d="M41.97594,32.03434c-0.03049,0.0176-0.0556,0.06033-0.0555,0.09613          c0.0001,0.03504,0.02537,0.04944,0.05586,0.03184l1.35491-0.78226c0.03049-0.0176,0.0556-0.06109,0.0555-0.09613          c-0.0001-0.0358-0.02537-0.04944-0.05587-0.03183L41.97594,32.03434z"/></g><g><path class="st11" d="M41.97679,32.33292c-0.03049,0.0176-0.0556,0.06033-0.0555,0.09613          c0.0001,0.03504,0.02537,0.04944,0.05586,0.03183l1.35491-0.78226c0.03049-0.0176,0.0556-0.06109,0.0555-0.09613          c-0.0001-0.0358-0.02537-0.04944-0.05587-0.03183L41.97679,32.33292z"/></g></g><g><g><path class="st11" d="M41.98018,30.80872c-0.03049,0.0176-0.0556,0.0611-0.0555,0.09613          c0.0001,0.0358,0.02537,0.0502,0.05587,0.03259l1.35491-0.78226c0.03049-0.0176,0.0556-0.06109,0.0555-0.09689          c-0.0001-0.03504-0.02537-0.04944-0.05587-0.03184L41.98018,30.80872z"/></g><g><path class="st11" d="M41.97933,30.51014c-0.03049,0.0176-0.0556,0.06109-0.0555,0.09689          c0.0001,0.03504,0.02537,0.04944,0.05586,0.03184l1.35491-0.78226c0.03049-0.0176,0.0556-0.0611,0.0555-0.09613          c-0.0001-0.0358-0.02537-0.0502-0.05586-0.03259L41.97933,30.51014z"/></g><g><path class="st11" d="M41.97849,30.21231c-0.03049,0.0176-0.0556,0.06033-0.0555,0.09613          c0.0001,0.03504,0.02537,0.04944,0.05586,0.03183l1.35491-0.78226c0.03049-0.0176,0.0556-0.06109,0.0555-0.09613          c-0.0001-0.0358-0.02537-0.04944-0.05586-0.03184L41.97849,30.21231z"/></g><g><path class="st11" d="M41.97764,29.91374c-0.03049,0.0176-0.0556,0.06033-0.0555,0.09613          c0.0001,0.03504,0.02537,0.04944,0.05586,0.03183l1.35491-0.78226c0.03049-0.0176,0.0556-0.06109,0.0555-0.09613          c-0.0001-0.0358-0.02537-0.04944-0.05587-0.03183L41.97764,29.91374z"/></g><g><path class="st11" d="M41.97594,29.31657c-0.03049,0.0176-0.0556,0.06033-0.0555,0.09613          c0.0001,0.03504,0.02537,0.04944,0.05586,0.03184l1.35491-0.78226c0.03049-0.0176,0.0556-0.0611,0.0555-0.09613          c-0.0001-0.0358-0.02537-0.04944-0.05587-0.03183L41.97594,29.31657z"/></g><g><path class="st11" d="M41.97679,29.61515c-0.03049,0.0176-0.0556,0.06033-0.0555,0.09613          c0.0001,0.03504,0.02537,0.04944,0.05586,0.03183l1.35491-0.78226c0.03049-0.0176,0.0556-0.06109,0.0555-0.09613          c-0.0001-0.0358-0.02537-0.04944-0.05587-0.03183L41.97679,29.61515z"/></g></g><g><g><path class="st11" d="M41.98018,28.09095c-0.03049,0.0176-0.0556,0.06109-0.0555,0.09613          c0.0001,0.0358,0.02537,0.0502,0.05587,0.03259l1.35491-0.78226c0.03049-0.0176,0.0556-0.06109,0.0555-0.09689          c-0.0001-0.03504-0.02537-0.04944-0.05587-0.03184L41.98018,28.09095z"/></g><g><path class="st11" d="M41.97933,27.79237c-0.03049,0.0176-0.0556,0.06109-0.0555,0.09689          c0.0001,0.03504,0.02537,0.04944,0.05586,0.03184l1.35491-0.78226c0.03049-0.0176,0.0556-0.06109,0.0555-0.09613          c-0.0001-0.0358-0.02537-0.0502-0.05586-0.03259L41.97933,27.79237z"/></g><g><path class="st11" d="M41.97849,27.49455c-0.03049,0.0176-0.0556,0.06033-0.0555,0.09613          c0.0001,0.03504,0.02537,0.04944,0.05586,0.03183l1.35491-0.78226c0.03049-0.0176,0.0556-0.06109,0.0555-0.09613          c-0.0001-0.0358-0.02537-0.04944-0.05586-0.03184L41.97849,27.49455z"/></g><g><path class="st11" d="M41.97764,27.19597c-0.03049,0.0176-0.0556,0.06033-0.0555,0.09613          c0.0001,0.03504,0.02537,0.04944,0.05586,0.03183l1.35491-0.78226c0.03049-0.0176,0.0556-0.06109,0.0555-0.09613          c-0.0001-0.0358-0.02537-0.04944-0.05587-0.03183L41.97764,27.19597z"/></g><g><path class="st11" d="M41.97594,26.5988c-0.03049,0.0176-0.0556,0.06033-0.0555,0.09613          c0.0001,0.03504,0.02537,0.04944,0.05586,0.03184l1.35491-0.78226c0.03049-0.0176,0.0556-0.0611,0.0555-0.09613          c-0.0001-0.0358-0.02537-0.04944-0.05587-0.03183L41.97594,26.5988z"/></g><g><path class="st11" d="M41.97679,26.89738c-0.03049,0.0176-0.0556,0.06033-0.0555,0.09613          c0.0001,0.03504,0.02537,0.04944,0.05586,0.03183l1.35491-0.78226c0.03049-0.0176,0.0556-0.06109,0.0555-0.09613          c-0.0001-0.0358-0.02537-0.04944-0.05587-0.03183L41.97679,26.89738z"/></g></g><g><g><path class="st11" d="M41.98018,25.37318c-0.03049,0.0176-0.0556,0.06109-0.0555,0.09613          c0.0001,0.0358,0.02537,0.0502,0.05587,0.03259l1.35491-0.78226c0.03049-0.0176,0.0556-0.06109,0.0555-0.09689          c-0.0001-0.03504-0.02537-0.04944-0.05587-0.03184L41.98018,25.37318z"/></g><g><path class="st11" d="M41.97933,25.07461c-0.03049,0.0176-0.0556,0.06109-0.0555,0.09689          c0.0001,0.03504,0.02537,0.04944,0.05586,0.03184l1.35491-0.78226c0.03049-0.0176,0.0556-0.0611,0.0555-0.09613          c-0.0001-0.0358-0.02537-0.0502-0.05586-0.03259L41.97933,25.07461z"/></g><g><path class="st11" d="M41.97849,24.77678c-0.03049,0.0176-0.0556,0.06033-0.0555,0.09613          c0.0001,0.03504,0.02537,0.04944,0.05586,0.03183l1.35491-0.78226c0.03049-0.0176,0.0556-0.06109,0.0555-0.09613          c-0.0001-0.0358-0.02537-0.04944-0.05586-0.03184L41.97849,24.77678z"/></g><g><path class="st11" d="M41.97764,24.4782c-0.03049,0.0176-0.0556,0.06032-0.0555,0.09613          c0.0001,0.03504,0.02537,0.04944,0.05586,0.03183l1.35491-0.78226c0.03049-0.0176,0.0556-0.06109,0.0555-0.09613          c-0.0001-0.0358-0.02537-0.04944-0.05587-0.03183L41.97764,24.4782z"/></g><g><path class="st11" d="M41.97594,23.88103c-0.03049,0.0176-0.0556,0.06033-0.0555,0.09613          c0.0001,0.03504,0.02537,0.04944,0.05586,0.03184l1.35491-0.78226c0.03049-0.0176,0.0556-0.0611,0.0555-0.09613          c-0.0001-0.0358-0.02537-0.04944-0.05587-0.03183L41.97594,23.88103z"/></g><g><path class="st11" d="M41.97679,24.17962c-0.03049,0.0176-0.0556,0.06033-0.0555,0.09613          c0.0001,0.03504,0.02537,0.04944,0.05586,0.03183l1.35491-0.78226c0.03049-0.0176,0.0556-0.06109,0.0555-0.09613          c-0.0001-0.0358-0.02537-0.04944-0.05587-0.03183L41.97679,24.17962z"/></g></g><g><g><path class="st11" d="M41.98018,22.65542c-0.03049,0.0176-0.0556,0.06109-0.0555,0.09613          c0.0001,0.0358,0.02537,0.0502,0.05587,0.03259l1.35491-0.78226c0.03049-0.0176,0.0556-0.06109,0.0555-0.09689          c-0.0001-0.03504-0.02537-0.04944-0.05587-0.03184L41.98018,22.65542z"/></g><g><path class="st11" d="M41.97933,22.35684c-0.03049,0.0176-0.0556,0.06109-0.0555,0.09689          c0.0001,0.03504,0.02537,0.04944,0.05586,0.03184l1.35491-0.78226c0.03049-0.0176,0.0556-0.0611,0.0555-0.09613          c-0.0001-0.0358-0.02537-0.0502-0.05586-0.03259L41.97933,22.35684z"/></g><g><path class="st11" d="M41.97849,22.05901c-0.03049,0.0176-0.0556,0.06033-0.0555,0.09613          c0.0001,0.03504,0.02537,0.04944,0.05586,0.03183l1.35491-0.78226c0.03049-0.0176,0.0556-0.06109,0.0555-0.09613          c-0.0001-0.0358-0.02537-0.04944-0.05586-0.03184L41.97849,22.05901z"/></g><g><path class="st11" d="M41.97764,21.76044c-0.03049,0.0176-0.0556,0.06032-0.0555,0.09613          c0.0001,0.03504,0.02537,0.04944,0.05586,0.03183l1.35491-0.78226c0.03049-0.0176,0.0556-0.06109,0.0555-0.09613          c-0.0001-0.0358-0.02537-0.04944-0.05587-0.03183L41.97764,21.76044z"/></g><g><path class="st11" d="M41.97594,21.16327c-0.03049,0.0176-0.0556,0.06033-0.0555,0.09613          c0.0001,0.03504,0.02537,0.04944,0.05586,0.03184l1.35491-0.78226c0.03049-0.0176,0.0556-0.0611,0.0555-0.09613          c-0.0001-0.0358-0.02537-0.04944-0.05587-0.03183L41.97594,21.16327z"/></g><g><path class="st11" d="M41.97679,21.46185c-0.03049,0.0176-0.0556,0.06033-0.0555,0.09613          c0.0001,0.03504,0.02537,0.04944,0.05586,0.03183l1.35491-0.78226c0.03049-0.0176,0.0556-0.06109,0.0555-0.09613          c-0.0001-0.0358-0.02537-0.04944-0.05587-0.03183L41.97679,21.46185z"/></g></g></g></g></g></g><g><g><path class="st17" d="M17.74071,29.02591c-0.00643,0.32756-0.23125,0.72577-0.51385,0.88634      c-0.0835,0.05139-0.17339,0.07707-0.25046,0.07707c-0.05782,0-0.1156-0.01286-0.16057-0.04496      c-0.1156-0.06421-0.18628-0.1991-0.18628-0.37253c0-0.32752,0.22482-0.71934,0.51381-0.8863      c0.14775-0.08993,0.30189-0.09636,0.41749-0.03214C17.67646,28.72406,17.74071,28.85248,17.74071,29.02591z"/></g></g><g><g><g><g><g><polygon class="st12" points="26.87703,28.16092 26.41018,27.88962 26.42088,49.08853 26.88773,49.35983        "/></g><g><polygon class="st11" points="35.33714,23.27648 34.87029,23.00517 26.41018,27.88962 26.87703,28.16092        "/></g><path class="st9" d="M26.87715,28.16096l0.01211,21.19779l8.45732-4.88203l-0.01207-21.19779L26.87715,28.16096z         M27.89651,28.1623l6.42167-3.70368l0.00602,19.37686l-6.41557,3.70369L27.89651,28.1623z"/><g><g><g class="st8"><g><path class="st0" d="M27.08705,38.27683l0.38721,0.22258c0.02759,0.01656,0.0515,0.01747,0.06989,0.00735l0.22533-0.1306            l-0.00092,0.18118c-0.00092,0.09197-0.03311,0.15728-0.08645,0.18855l0.32466-0.18855            c0.05243-0.03127,0.08554-0.09565,0.08554-0.18854l0.00276-1.53298c0.00091-0.18671-0.13061-0.41387-0.29247-0.50677            l-0.38721-0.22349l-0.32374,0.18762l0.38628,0.22349c0.16279,0.09381,0.29339,0.32099,0.29339,0.50769l-0.00184,1.27086            l-0.35777-0.20694L27.08705,38.27683z"/></g></g></g><g><path class="st6" d="M27.09138,36.29363l-0.00064,0.22469l0.38697,0.22342c0.05402,0.03119,0.09733,0.10688,0.09715,0.16896          l-0.00278,1.5334c-0.00018,0.06208-0.04377,0.08692-0.09779,0.05573l-0.38697-0.22342l-0.00064,0.22537l0.38697,0.22342          c0.16207,0.09357,0.29403,0.01769,0.29456-0.16786l0.00278-1.5334c0.00053-0.18623-0.13058-0.41332-0.29265-0.50689          L27.09138,36.29363z"/></g></g></g></g><polygon class="st19" points="34.31537,24.45725 34.32486,43.83609 27.90952,47.54023 27.89953,28.16092     "/></g><g class="st20"><polygon class="st2" points="34.31567,25.06954 27.90119,31.38981 27.90222,33.3413 34.31598,25.68649     "/><polygon class="st2" points="34.31705,27.86932 27.90333,35.52413 27.90436,37.47539 34.31963,31.2643     "/><polygon class="st2" points="34.32039,34.77201 27.90569,40.12257 27.90672,42.10728 34.32101,35.97048     "/><polygon class="st2" points="27.90783,44.29038 27.90881,46.15701 34.32395,40.0631 34.32208,38.15358     "/></g></g></g></g></svg>