<?xml version="1.0" ?><svg id="Layer_1" style="enable-background:new 0 0 50 50;" version="1.1" viewBox="0 0 50 50" xml:space="preserve" xmlns="http://www.w3.org/2000/svg" xmlns:xlink="http://www.w3.org/1999/xlink"><style type="text/css">
	.st0{fill:#B7C5FD;}
	.st1{fill:#9AADFD;}
	.st2{fill:#FFFFFF;}
	.st3{fill:#3955D1;}
	.st4{fill:#4466FB;}
	.st5{fill:#AABAFD;}
	.st6{fill:#798FFE;}
	.st7{fill:#6BB5FB;}
	.st8{enable-background:new    ;}
	.st9{fill:#1B2A4F;}
	.st10{fill:url(#);}
	.st11{fill:#384E85;}
	.st12{fill:#2E4277;}
	.st13{fill:#D9DDF6;}
	.st14{fill:#535D88;}
	.st15{fill:#2B3C67;}
	.st16{fill:#8FCCFF;}
	.st17{fill:#8CA1FD;}
	.st18{opacity:0.3;}
	.st19{opacity:0.3;fill:#4466FB;}
	.st20{opacity:0.2;}
</style><g><g><g><g><polygon class="st12" points="13.69043,11.81943 13.61844,42.77759 12.57395,43.38458 11.77465,39.0108 12.64685,12.03617           "/><path class="st11" d="M10.25868,41.44482l0.07199-30.95815c-0.00085,0.30113,0.96989,0.67184,2.31618,1.54949l-0.07291,31.34841      C11.22766,42.50693,10.25782,41.74597,10.25868,41.44482z"/><polygon class="st9" points="21.10478,16.1001 21.03279,47.05826 13.61844,42.77759 13.69043,11.81943     "/><polygon class="st3" points="21.10478,18.00796 21.09668,18.95823 13.68233,14.67755 13.69043,13.72728     "/><polygon class="st3" points="21.10478,20.46831 21.09668,21.41858 13.68233,17.1379 13.69043,16.18763     "/><polygon class="st3" points="21.10478,22.92866 21.09668,23.87893 13.68233,19.59826 13.69043,18.64799     "/><polygon class="st3" points="21.10478,25.38902 21.09668,26.33928 13.68233,22.05861 13.69043,21.10834     "/><polygon class="st3" points="21.10478,27.84937 21.09668,28.79964 13.68233,24.51896 13.69043,23.5687     "/><g><polygon class="st12" points="19.20499,29.27157 19.19989,29.86886 14.93549,27.40681 14.94059,26.80952      "/><polygon class="st12" points="19.20499,30.67727 19.19989,31.27456 14.93549,28.81251 14.94059,28.21522      "/><polygon class="st12" points="19.20499,33.48867 19.19989,34.08596 14.93549,31.6239 14.94059,31.02662      "/><polygon class="st12" points="19.20499,32.08297 19.19989,32.68026 14.93549,30.2182 14.94059,29.62092      "/><polygon class="st12" points="19.20499,36.30007 19.19989,36.89735 14.93549,34.4353 14.94059,33.83802      "/><polygon class="st12" points="19.20499,34.89437 19.19989,35.49165 14.93549,33.0296 14.94059,32.43232      "/><polygon class="st12" points="19.20499,37.70576 19.19989,38.30305 14.93549,35.841 14.94059,35.24371      "/></g><g><polygon class="st12" points="39.74132,8.61915 39.66933,39.57731 23.51467,48.96537 23.27645,17.74384      "/><path class="st11" d="M23.58758,17.61696l-0.0729,31.34841c-0.32465,0.18867-1.79373-0.41421-3.51934-1.3042l0.07199-30.95815       C21.79293,17.59299,23.26293,17.80562,23.58758,17.61696z"/></g><g><g><polygon class="st4" points="13.69043,13.72728 13.68233,14.67755 12.63784,15.28454 12.64594,14.33427       "/></g><g><polygon class="st4" points="13.69043,16.18763 13.68233,17.1379 12.63784,17.7449 12.64594,16.79463       "/></g><g><polygon class="st4" points="13.69043,18.64799 13.68233,19.59826 12.63784,20.20525 12.64594,19.25498       "/></g><g><polygon class="st4" points="13.69043,21.10834 13.68233,22.05861 12.63784,22.6656 12.64594,21.71533       "/></g><g><polygon class="st4" points="13.69043,23.5687 13.68233,24.51896 12.63784,25.12596 12.64594,24.17569       "/></g><g><path class="st7" d="M10.32257,13.34479l0.0081-0.95026c-0.00085,0.30113,0.96898,1.06209,2.31527,1.93974l-0.00811,0.95027        C11.29155,14.40689,10.32172,13.64593,10.32257,13.34479z"/></g><g><path class="st7" d="M10.32257,15.80514l0.0081-0.95026c-0.00085,0.30113,0.96898,1.06209,2.31527,1.93974l-0.00811,0.95027        C11.29155,16.86724,10.32172,16.10629,10.32257,15.80514z"/></g><g><path class="st7" d="M10.32257,18.26549l0.0081-0.95026c-0.00085,0.30113,0.96898,1.06209,2.31527,1.93974l-0.00811,0.95027        C11.29155,19.3276,10.32172,18.56664,10.32257,18.26549z"/></g><g><path class="st7" d="M10.32257,20.72585l0.0081-0.95026c-0.00085,0.30113,0.96898,1.06209,2.31527,1.93974l-0.00811,0.95027        C11.29155,21.78795,10.32172,21.02699,10.32257,20.72585z"/></g><g><path class="st7" d="M10.32257,23.1862l0.0081-0.95026c-0.00085,0.30113,0.96898,1.06209,2.31527,1.93974l-0.00811,0.95027        C11.29155,24.2483,10.32172,23.48735,10.32257,23.1862z"/></g><g><path class="st7" d="M23.58667,19.91506l-0.008,0.91519c-0.32465,0.18867-1.79384-0.37913-3.51945-1.26912l0.0081-0.95026        C21.79293,19.50085,23.26202,20.10373,23.58667,19.91506z"/></g><g><path class="st7" d="M23.58667,22.37541l-0.008,0.91519c-0.32465,0.18867-1.79384-0.37913-3.51945-1.26912l0.0081-0.95026        C21.79293,21.9612,23.26202,22.56408,23.58667,22.37541z"/></g><g><path class="st7" d="M23.58667,24.83577l-0.008,0.91519c-0.32465,0.18866-1.79384-0.37913-3.51945-1.26912l0.0081-0.95026        C21.79293,24.42155,23.26202,25.02443,23.58667,24.83577z"/></g><g><path class="st7" d="M23.58667,27.29612l-0.008,0.91519c-0.32465,0.18866-1.79384-0.37913-3.51945-1.26912l0.0081-0.95026        C21.79293,26.88191,23.26202,27.48479,23.58667,27.29612z"/></g><g><path class="st7" d="M23.58667,29.75647l-0.008,0.91519c-0.32465,0.18867-1.79384-0.37913-3.51945-1.26912l0.0081-0.95026        C21.79293,29.34226,23.26202,29.94514,23.58667,29.75647z"/></g></g></g><g><g><g><g><polygon class="st9" points="38.57426,38.47491 38.15226,38.71685 38.13961,35.65578 38.56162,35.41383        "/></g><g><polygon class="st9" points="37.77738,38.93266 37.35175,39.17669 37.3391,36.11561 37.76474,35.87158        "/></g><g><polygon class="st9" points="36.97687,39.39249 36.55487,39.63444 36.54222,36.57336 36.96423,36.33142        "/></g><g><polygon class="st9" points="36.18002,39.85023 35.75801,40.09217 35.74537,37.03109 36.16737,36.78915        "/></g><g><polygon class="st9" points="35.38316,40.30796 34.9575,40.552 34.94486,37.49092 35.37052,37.24688        "/></g></g><g><g><polygon class="st9" points="31.10788,42.75556 30.68587,42.99751 30.67323,39.93642 31.09523,39.69448        "/></g><g><polygon class="st9" points="30.311,43.21331 29.88536,43.45734 29.87272,40.39626 30.29835,40.15223        "/></g><g><polygon class="st9" points="29.51049,43.67314 29.08848,43.91508 29.07584,40.85401 29.49784,40.61206        "/></g><g><polygon class="st9" points="28.71363,44.13088 28.29163,44.37282 28.27899,41.31174 28.70099,41.0698        "/></g><g><polygon class="st9" points="27.91678,44.58861 27.49112,44.83265 27.47847,41.77158 27.90413,41.52753        "/></g></g></g><g><g><g><polygon class="st9" points="38.57426,32.81895 38.15226,33.06089 38.13961,29.99981 38.56162,29.75787        "/></g><g><polygon class="st9" points="37.77738,33.2767 37.35175,33.52072 37.3391,30.45964 37.76474,30.21562        "/></g><g><polygon class="st9" points="36.97687,33.73653 36.55487,33.97847 36.54222,30.91739 36.96423,30.67545        "/></g><g><polygon class="st9" points="36.18002,34.19426 35.75801,34.43621 35.74537,31.37513 36.16737,31.13318        "/></g><g><polygon class="st9" points="35.38316,34.652 34.9575,34.89604 34.94486,31.83496 35.37052,31.59092        "/></g></g><g><g><polygon class="st9" points="31.10788,37.09959 30.68587,37.34154 30.67323,34.28046 31.09523,34.03852        "/></g><g><polygon class="st9" points="30.311,37.55734 29.88536,37.80137 29.87272,34.74029 30.29835,34.49627        "/></g><g><polygon class="st9" points="29.51049,38.01718 29.08848,38.25912 29.07584,35.19804 29.49784,34.9561        "/></g><g><polygon class="st9" points="28.71363,38.47491 28.29163,38.71685 28.27899,35.65578 28.70099,35.41383        "/></g><g><polygon class="st9" points="27.91678,38.93265 27.49112,39.17669 27.47847,36.11561 27.90413,35.87157        "/></g></g></g></g></g></g><path class="st11" d="M39.74132,8.61915l-16.15465,9.38806c-0.32465,0.18866-1.79374-0.41421-3.51934-1.3042l1.03745-0.6029   l-7.41435-4.28068l-1.04449,0.60699c-1.53505-1.0007-2.58067-1.8497-2.25603-2.03836L26.54457,1L39.74132,8.61915z"/></g></svg>