<?xml version="1.0" ?><svg id="Layer_1" style="enable-background:new 0 0 50 50;" version="1.1" viewBox="0 0 50 50" xml:space="preserve" xmlns="http://www.w3.org/2000/svg" xmlns:xlink="http://www.w3.org/1999/xlink"><style type="text/css">
	.st0{fill:none;}
	.st1{fill:#B7C5FD;}
	.st2{fill:#9AADFD;}
	.st3{fill:#FFFFFF;}
	.st4{fill:#3955D1;}
	.st5{fill:#4466FB;}
	.st6{fill:#AABAFD;}
	.st7{fill:#798FFE;}
	.st8{fill:#6BB5FB;}
	.st9{enable-background:new    ;}
	.st10{fill:#1B2A4F;}
	.st11{fill:url(#SVGID_1_);}
	.st12{fill:url(#SVGID_2_);}
	.st13{fill:url(#);}
	.st14{fill:url(#SVGID_3_);}
	.st15{fill:url(#SVGID_4_);}
	.st16{fill:url(#SVGID_5_);}
	.st17{fill:url(#SVGID_6_);}
	.st18{fill:url(#SVGID_7_);}
	.st19{fill:#384E85;}
	.st20{fill:#2E4277;}
	.st21{fill:#D9DDF6;}
	.st22{fill:url(#SVGID_8_);}
	.st23{fill:url(#SVGID_9_);}
	.st24{fill:url(#SVGID_10_);}
	.st25{fill:url(#SVGID_11_);}
	.st26{fill:url(#SVGID_12_);}
	.st27{fill:url(#SVGID_13_);}
	.st28{fill:url(#SVGID_14_);}
	.st29{fill:url(#SVGID_15_);}
	.st30{fill:url(#SVGID_16_);}
	.st31{fill:url(#SVGID_17_);}
	.st32{fill:url(#SVGID_18_);}
	.st33{fill:url(#SVGID_19_);}
	.st34{fill:url(#SVGID_20_);}
	.st35{fill:url(#SVGID_21_);}
	.st36{fill:url(#SVGID_22_);}
	.st37{fill:url(#SVGID_23_);}
	.st38{fill:url(#SVGID_24_);}
	.st39{fill:url(#SVGID_25_);}
	.st40{fill:#535D88;}
	.st41{fill:url(#SVGID_26_);}
	.st42{fill:url(#SVGID_27_);}
	.st43{fill:url(#SVGID_28_);}
	.st44{fill:url(#SVGID_29_);}
	.st45{fill:url(#SVGID_30_);}
	.st46{fill:url(#SVGID_31_);}
	.st47{fill:url(#SVGID_32_);}
	.st48{fill:url(#SVGID_33_);}
	.st49{fill:url(#SVGID_34_);}
	.st50{fill:url(#SVGID_35_);}
	.st51{fill:url(#SVGID_36_);}
	.st52{fill:url(#SVGID_37_);}
	.st53{fill:url(#SVGID_38_);}
	.st54{fill:url(#SVGID_39_);}
	.st55{fill:url(#SVGID_40_);}
	.st56{fill:url(#SVGID_41_);}
	.st57{fill:#2B3C67;}
	.st58{fill:#8FCCFF;}
	.st59{fill:#8CA1FD;}
	.st60{opacity:0.3;}
	.st61{fill:url(#SVGID_42_);}
	.st62{fill:url(#SVGID_43_);}
	.st63{fill:url(#SVGID_44_);}
	.st64{fill:url(#SVGID_45_);}
	.st65{fill:url(#SVGID_46_);}
	.st66{fill:url(#SVGID_47_);}
	.st67{fill:url(#SVGID_48_);}
	.st68{fill:url(#SVGID_49_);}
	.st69{fill:url(#SVGID_50_);}
	.st70{opacity:0.3;fill:#4466FB;}
	.st71{fill:url(#SVGID_51_);}
	.st72{fill:url(#SVGID_52_);}
	.st73{fill:url(#SVGID_53_);}
	.st74{fill:url(#SVGID_54_);}
	.st75{fill:url(#SVGID_55_);}
	.st76{fill:url(#SVGID_56_);}
	.st77{fill:url(#SVGID_57_);}
	.st78{fill:url(#SVGID_58_);}
	.st79{fill:url(#SVGID_59_);}
	.st80{fill:url(#SVGID_60_);}
	.st81{fill:url(#SVGID_61_);}
	.st82{fill:url(#SVGID_62_);}
	.st83{fill:url(#SVGID_63_);}
	.st84{fill:url(#SVGID_64_);}
	.st85{fill:url(#SVGID_65_);}
	.st86{fill:url(#SVGID_66_);}
	.st87{fill:url(#SVGID_67_);}
	.st88{fill:url(#SVGID_68_);}
	.st89{fill:url(#SVGID_69_);}
	.st90{fill:url(#SVGID_70_);}
	.st91{fill:url(#SVGID_71_);}
	.st92{fill:url(#SVGID_72_);}
	.st93{fill:url(#SVGID_73_);}
	.st94{fill:url(#SVGID_74_);}
	.st95{fill:url(#SVGID_75_);}
	.st96{fill:url(#SVGID_76_);}
	.st97{fill:url(#SVGID_77_);}
	.st98{fill:url(#SVGID_78_);}
	.st99{opacity:0.2;}
	.st100{fill:url(#SVGID_79_);}
	.st101{fill:url(#SVGID_80_);}
	.st102{fill:url(#SVGID_81_);}
	.st103{fill:url(#SVGID_82_);}
	.st104{fill:url(#SVGID_83_);}
	.st105{fill:url(#SVGID_84_);}
	.st106{fill:url(#SVGID_85_);}
	.st107{fill:url(#SVGID_86_);}
	.st108{fill:url(#SVGID_87_);}
	.st109{fill:url(#SVGID_88_);}
	.st110{fill:url(#SVGID_89_);}
	.st111{fill:url(#SVGID_90_);}
</style><pattern height="32.25219" id="Unnamed_Pattern_12" patternUnits="userSpaceOnUse" style="overflow:visible;" viewBox="0 -32.25219 32.25219 32.25219" width="32.25219" x="-210" y="-280"><g><rect class="st0" height="32.25219" width="32.25219" y="-32.25219"/><g><rect class="st1" height="32.25219" width="32.25219" x="0" y="-32.25219"/></g></g></pattern><g><g><g><path class="st20" d="M12.43444,11.06738l0.01023,28.26536c0.00098,0.40934,0.26997,0.81771,0.80699,1.12959l12.06292,7.01047     c1.08134,0.62815,2.84005,0.62864,3.92822,0l14.63645-8.45023c0.54774-0.31627,0.82112-0.73096,0.82015-1.14567L44.68917,9.61398     C44.68917,10.02722,12.43542,11.47624,12.43444,11.06738z"/><path class="st10" d="M13.24138,12.19692l12.06295,7.01002c0.55296,0.32143,1.28205,0.47341,2.00905,0.4662v28.26671     c-0.72344,0.00554-1.44846-0.14749-1.9988-0.46714l-12.06295-7.01044c-0.53697-0.31181-0.80602-0.72021-0.80696-1.12954     l-0.01024-28.26536C12.43547,11.4762,12.70442,11.88459,13.24138,12.19692z"/><path class="st19" d="M13.25432,9.92165c-1.08834,0.62835-1.09407,1.64688-0.01281,2.27524l12.06301,7.01025     c1.08127,0.62836,2.83996,0.62855,3.9283,0.0002l14.63651-8.45039c1.08834-0.62835,1.09376-1.64705,0.0125-2.27542     L31.81882,1.47128c-1.08126-0.62836-2.83965-0.62837-3.92799-0.00002L13.25432,9.92165z"/><path class="st20" d="M17.97223,10.55613c-0.48142,0.27795-0.48363,0.72837-0.00534,1.00632l8.44852,4.90974     c0.47829,0.27795,1.2559,0.27814,1.73732,0.0002l10.99837-6.34991c0.48142-0.27795,0.48396-0.72856,0.00567-1.00651     l-8.44852-4.90974c-0.47829-0.27795-1.25622-0.27796-1.73765-0.00001L17.97223,10.55613z"/><g><g><g><path class="st5" d="M30.30571,20.69552l12.5487-7.2453c0.2599-0.15006,0.58478,0.03751,0.58478,0.33761v23.11607        c0,0.27856-0.14861,0.53596-0.38985,0.67524l-12.54869,7.24488c-0.2599,0.15005-0.58477-0.03751-0.58477-0.33762V21.37075        C29.91587,21.0922,30.06448,20.8348,30.30571,20.69552z"/><pattern id="SVGID_1_" patternTransform="matrix(-0.04873 0 0 0.04873 -8082.28662 -7365.27832)" xlink:href="#Unnamed_Pattern_12"/><path class="st11" d="M42.1995,15.27502c-0.23801,0.13742-0.42997,0.46991-0.4292,0.74341s0.19399,0.38397,0.43201,0.24655        c0.23802-0.13742,0.43029-0.47045,0.42952-0.74395C42.63105,15.24753,42.43752,15.1376,42.1995,15.27502z"/><pattern id="SVGID_2_" patternTransform="matrix(-0.04873 0 0 0.04873 -8082.28662 -7365.27832)" xlink:href="#Unnamed_Pattern_12"/><path class="st12" d="M40.81186,16.07618c-0.23771,0.13724-0.42998,0.46991-0.42921,0.74341        c0.00077,0.2735,0.19431,0.38379,0.43201,0.24654c0.23801-0.13741,0.43029-0.47045,0.42952-0.74395        C41.2434,16.04869,41.04987,15.93876,40.81186,16.07618z"/><pattern id="SVGID_3_" patternTransform="matrix(-0.04873 0 0 0.04873 -8082.28662 -7365.27832)" xlink:href="#Unnamed_Pattern_12"/><path class="st14" d="M39.42421,16.87734c-0.23771,0.13724-0.42998,0.46991-0.42921,0.74341s0.19431,0.38379,0.43201,0.24655        c0.23802-0.13742,0.43029-0.47045,0.42952-0.74395C39.85575,16.84985,39.66222,16.73992,39.42421,16.87734z"/><pattern id="SVGID_4_" patternTransform="matrix(-0.04873 0 0 0.04873 -8082.28662 -7361.85303)" xlink:href="#Unnamed_Pattern_12"/><path class="st15" d="M42.1995,18.70023c-0.23801,0.13742-0.42997,0.46991-0.4292,0.74341        c0.00077,0.2735,0.19399,0.38397,0.43201,0.24655c0.23802-0.13742,0.43029-0.47045,0.42952-0.74395        C42.63105,18.67274,42.43752,18.56281,42.1995,18.70023z"/><pattern id="SVGID_5_" patternTransform="matrix(-0.04873 0 0 0.04873 -8082.28662 -7361.85303)" xlink:href="#Unnamed_Pattern_12"/><path class="st16" d="M40.81186,19.50138c-0.23771,0.13724-0.42998,0.46991-0.42921,0.74341s0.19431,0.38379,0.43201,0.24655        c0.23801-0.13742,0.43029-0.47045,0.42952-0.74395C41.2434,19.4739,41.04987,19.36397,40.81186,19.50138z"/><pattern id="SVGID_6_" patternTransform="matrix(-0.04873 0 0 0.04873 -8082.28662 -7361.85303)" xlink:href="#Unnamed_Pattern_12"/><path class="st17" d="M39.42421,20.30254c-0.23771,0.13724-0.42998,0.46991-0.42921,0.74341        c0.00077,0.2735,0.19431,0.38379,0.43201,0.24655c0.23802-0.13742,0.43029-0.47045,0.42952-0.74395        C39.85575,20.27505,39.66222,20.16512,39.42421,20.30254z"/><pattern id="SVGID_7_" patternTransform="matrix(-0.04873 0 0 0.04873 -8084.78125 -7344.46533)" xlink:href="#Unnamed_Pattern_12"/><polygon class="st18" points="31.17121,21.43978 34.38942,19.58164 34.38942,20.80047 31.17121,22.65852       "/><pattern id="SVGID_8_" patternTransform="matrix(-0.04873 0 0 0.04873 -8084.78125 -7341.04053)" xlink:href="#Unnamed_Pattern_12"/><polygon class="st22" points="31.17121,24.86498 34.38942,23.00684 34.38942,24.22567 31.17121,26.08372       "/></g></g><g><g><path class="st19" d="M25.1896,21.3403c0.33242,0.19192,0.60112,0.65734,0.60004,1.03931l-0.01201,23.65437        c-0.00108,0.38198-0.27154,0.53611-0.60396,0.34418c-0.33242-0.19192-0.60113-0.65733-0.60004-1.03931l0.01201-23.65437        C24.58672,21.3025,24.85718,21.14837,25.1896,21.3403z"/><path class="st7" d="M24.85664,45.19009l0.01201-23.65437c0.00032-0.11381,0.02471-0.2072,0.06737-0.27744        c-0.20612-0.00887-0.3496,0.14825-0.35039,0.42619l-0.01201,23.65437c-0.00108,0.38198,0.26762,0.84739,0.60004,1.03932        c0.23338,0.13474,0.43606,0.09873,0.53659-0.06675c-0.07716-0.00332-0.16304-0.02973-0.25358-0.08201        C25.12426,46.03748,24.85556,45.57207,24.85664,45.19009z"/></g><g><path class="st19" d="M14.77074,15.28571c0.33242,0.19192,0.60112,0.65734,0.60004,1.03931L15.35877,39.9794        c-0.00108,0.38198-0.27154,0.5361-0.60396,0.34418c-0.33242-0.19193-0.60112-0.65734-0.60004-1.03931l0.01201-23.65437        C14.16786,15.24791,14.43832,15.09379,14.77074,15.28571z"/><path class="st7" d="M14.43778,39.13551l0.01202-23.65437c0.00032-0.11381,0.02471-0.20721,0.06737-0.27744        c-0.20612-0.00886-0.3496,0.14825-0.35039,0.42619l-0.01201,23.65437c-0.00108,0.38198,0.26762,0.84739,0.60004,1.03931        c0.23338,0.13474,0.43606,0.09873,0.53659-0.06675c-0.07716-0.00332-0.16304-0.02973-0.25358-0.08201        C14.7054,39.98289,14.4367,39.51749,14.43778,39.13551z"/></g><g><path class="st19" d="M17.37546,16.79936c0.33242,0.19192,0.60113,0.65734,0.60004,1.03931l-0.01201,23.65437        c-0.00108,0.38198-0.27154,0.53611-0.60396,0.34418c-0.33242-0.19193-0.60112-0.65733-0.60004-1.03931l0.01201-23.65437        C16.77258,16.76156,17.04304,16.60743,17.37546,16.79936z"/><path class="st7" d="M17.04249,40.64915l0.01201-23.65437c0.00032-0.11381,0.02471-0.2072,0.06737-0.27744        c-0.20612-0.00886-0.3496,0.14825-0.35039,0.42619l-0.01201,23.65437c-0.00108,0.38198,0.26762,0.84739,0.60004,1.03931        c0.23338,0.13474,0.43606,0.09873,0.53659-0.06675c-0.07716-0.00332-0.16304-0.02974-0.25358-0.08201        C17.31011,41.49654,17.04141,41.03113,17.04249,40.64915z"/></g><g><path class="st19" d="M19.98017,18.31301c0.33242,0.19192,0.60113,0.65734,0.60004,1.03931L20.5682,43.00669        c-0.00108,0.38198-0.27154,0.5361-0.60396,0.34418c-0.33242-0.19193-0.60113-0.65734-0.60004-1.03931l0.01201-23.65437        C19.37729,18.27521,19.64775,18.12108,19.98017,18.31301z"/><path class="st7" d="M19.64721,42.1628l0.01201-23.65437c0.00032-0.11381,0.02471-0.2072,0.06737-0.27744        c-0.20612-0.00886-0.3496,0.14825-0.35039,0.42619L19.3642,42.31156c-0.00108,0.38198,0.26762,0.84739,0.60004,1.03931        c0.23338,0.13474,0.43606,0.09873,0.53659-0.06675c-0.07716-0.00332-0.16304-0.02973-0.25358-0.08201        C19.91483,43.01019,19.64613,42.54478,19.64721,42.1628z"/></g><g><path class="st19" d="M22.58489,19.82665c0.33242,0.19192,0.60112,0.65734,0.60004,1.03931l-0.01201,23.65437        c-0.00108,0.38198-0.27154,0.5361-0.60396,0.34418c-0.33242-0.19193-0.60113-0.65733-0.60004-1.03931l0.01201-23.65437        C21.98201,19.78885,22.25247,19.63473,22.58489,19.82665z"/><path class="st7" d="M22.25192,43.67645l0.01201-23.65437c0.00032-0.11381,0.02471-0.2072,0.06737-0.27744        c-0.20612-0.00886-0.3496,0.14825-0.35039,0.42619L21.96891,43.8252c-0.00108,0.38198,0.26762,0.84739,0.60004,1.03931        c0.23338,0.13474,0.43606,0.09873,0.53659-0.06675c-0.07716-0.00332-0.16304-0.02974-0.25358-0.08201        C22.51954,44.52384,22.25084,44.05843,22.25192,43.67645z"/></g></g></g></g><g><pattern id="SVGID_9_" patternTransform="matrix(-0.04873 0 0 0.04873 -8082.28662 -7358.42773)" xlink:href="#Unnamed_Pattern_12"/><path class="st23" d="M42.1995,22.12543c-0.23801,0.13742-0.42997,0.46991-0.4292,0.74341s0.19399,0.38397,0.43201,0.24655     c0.23802-0.13742,0.43029-0.47045,0.42952-0.74395C42.63105,22.09794,42.43752,21.98801,42.1995,22.12543z"/><pattern id="SVGID_10_" patternTransform="matrix(-0.04873 0 0 0.04873 -8082.28662 -7358.42773)" xlink:href="#Unnamed_Pattern_12"/><path class="st24" d="M40.81186,22.92659c-0.23771,0.13724-0.42998,0.46991-0.42921,0.74341     c0.00077,0.2735,0.19431,0.38379,0.43201,0.24655c0.23801-0.13742,0.43029-0.47045,0.42952-0.74395     C41.2434,22.8991,41.04987,22.78917,40.81186,22.92659z"/><pattern id="SVGID_11_" patternTransform="matrix(-0.04873 0 0 0.04873 -8082.28662 -7358.42773)" xlink:href="#Unnamed_Pattern_12"/><path class="st25" d="M39.42421,23.72775c-0.23771,0.13724-0.42998,0.46991-0.42921,0.74341s0.19431,0.38379,0.43201,0.24655     c0.23802-0.13742,0.43029-0.47045,0.42952-0.74395C39.85575,23.70026,39.66222,23.59033,39.42421,23.72775z"/><pattern id="SVGID_12_" patternTransform="matrix(-0.04873 0 0 0.04873 -8084.78125 -7337.61523)" xlink:href="#Unnamed_Pattern_12"/><polygon class="st26" points="31.17121,28.29018 34.38942,26.43205 34.38942,27.65088 31.17121,29.50892    "/></g><g><pattern id="SVGID_13_" patternTransform="matrix(-0.04873 0 0 0.04873 -8082.28662 -7355.00244)" xlink:href="#Unnamed_Pattern_12"/><path class="st27" d="M42.1995,25.55064c-0.23801,0.13742-0.42997,0.46991-0.4292,0.74341     c0.00077,0.2735,0.19399,0.38397,0.43201,0.24655c0.23802-0.13742,0.43029-0.47045,0.42952-0.74395     C42.63105,25.52314,42.43752,25.41322,42.1995,25.55064z"/><pattern id="SVGID_14_" patternTransform="matrix(-0.04873 0 0 0.04873 -8082.28662 -7355.00244)" xlink:href="#Unnamed_Pattern_12"/><path class="st28" d="M40.81186,26.35179c-0.23771,0.13724-0.42998,0.46991-0.42921,0.74341s0.19431,0.38379,0.43201,0.24655     c0.23801-0.13742,0.43029-0.47045,0.42952-0.74395C41.2434,26.3243,41.04987,26.21438,40.81186,26.35179z"/><pattern id="SVGID_15_" patternTransform="matrix(-0.04873 0 0 0.04873 -8082.28662 -7355.00244)" xlink:href="#Unnamed_Pattern_12"/><path class="st29" d="M39.42421,27.15295c-0.23771,0.13724-0.42998,0.46991-0.42921,0.74341s0.19431,0.38379,0.43201,0.24655     c0.23802-0.13742,0.43029-0.47045,0.42952-0.74395C39.85575,27.12546,39.66222,27.01553,39.42421,27.15295z"/><pattern id="SVGID_16_" patternTransform="matrix(-0.04873 0 0 0.04873 -8084.78125 -7334.18994)" xlink:href="#Unnamed_Pattern_12"/><polygon class="st30" points="31.17121,31.71539 34.38942,29.85725 34.38942,31.07608 31.17121,32.93413    "/></g><g><pattern id="SVGID_17_" patternTransform="matrix(-0.04873 0 0 0.04873 -8082.28662 -7351.57764)" xlink:href="#Unnamed_Pattern_12"/><path class="st31" d="M42.1995,28.97584c-0.23801,0.13742-0.42997,0.46991-0.4292,0.74341s0.19399,0.38397,0.43201,0.24655     c0.23802-0.13742,0.43029-0.47045,0.42952-0.74395C42.63105,28.94835,42.43752,28.83842,42.1995,28.97584z"/><pattern id="SVGID_18_" patternTransform="matrix(-0.04873 0 0 0.04873 -8082.28662 -7351.57764)" xlink:href="#Unnamed_Pattern_12"/><path class="st32" d="M40.81186,29.777c-0.23771,0.13724-0.42998,0.46991-0.42921,0.74341s0.19431,0.38379,0.43201,0.24655     c0.23801-0.13742,0.43029-0.47045,0.42952-0.74395C41.2434,29.74951,41.04987,29.63958,40.81186,29.777z"/><pattern id="SVGID_19_" patternTransform="matrix(-0.04873 0 0 0.04873 -8082.28662 -7351.57764)" xlink:href="#Unnamed_Pattern_12"/><path class="st33" d="M39.42421,30.57816c-0.23771,0.13724-0.42998,0.46991-0.42921,0.74341     c0.00077,0.2735,0.19431,0.38378,0.43201,0.24654c0.23802-0.13742,0.43029-0.47045,0.42952-0.74395     C39.85575,30.55067,39.66222,30.44074,39.42421,30.57816z"/><pattern id="SVGID_20_" patternTransform="matrix(-0.04873 0 0 0.04873 -8084.78125 -7330.76465)" xlink:href="#Unnamed_Pattern_12"/><polygon class="st34" points="31.17121,35.14059 34.38942,33.28246 34.38942,34.50129 31.17121,36.35933    "/></g><g><pattern id="SVGID_21_" patternTransform="matrix(-0.04873 0 0 0.04873 -8082.28662 -7348.15234)" xlink:href="#Unnamed_Pattern_12"/><path class="st35" d="M42.1995,32.40104c-0.23801,0.13742-0.42997,0.46991-0.4292,0.74341s0.19399,0.38396,0.43201,0.24655     c0.23802-0.13742,0.43029-0.47045,0.42952-0.74395C42.63105,32.37355,42.43752,32.26363,42.1995,32.40104z"/><pattern id="SVGID_22_" patternTransform="matrix(-0.04873 0 0 0.04873 -8082.28662 -7348.15234)" xlink:href="#Unnamed_Pattern_12"/><path class="st36" d="M40.81186,33.2022c-0.23771,0.13724-0.42998,0.46991-0.42921,0.74341s0.19431,0.38379,0.43201,0.24654     c0.23801-0.13742,0.43029-0.47045,0.42952-0.74395C41.2434,33.17471,41.04987,33.06479,40.81186,33.2022z"/><pattern id="SVGID_23_" patternTransform="matrix(-0.04873 0 0 0.04873 -8082.28662 -7348.15234)" xlink:href="#Unnamed_Pattern_12"/><path class="st37" d="M39.42421,34.00336c-0.23771,0.13724-0.42998,0.46991-0.42921,0.74341s0.19431,0.38379,0.43201,0.24654     c0.23802-0.13742,0.43029-0.47045,0.42952-0.74395C39.85575,33.97587,39.66222,33.86594,39.42421,34.00336z"/><pattern id="SVGID_24_" patternTransform="matrix(-0.04873 0 0 0.04873 -8084.78125 -7327.33936)" xlink:href="#Unnamed_Pattern_12"/><polygon class="st38" points="31.17121,38.5658 34.38942,36.70766 34.38942,37.92649 31.17121,39.78453    "/></g><g><pattern id="SVGID_25_" patternTransform="matrix(-0.04873 0 0 0.04873 -8082.28662 -7344.72705)" xlink:href="#Unnamed_Pattern_12"/><path class="st39" d="M42.1995,35.82625c-0.23801,0.13742-0.42997,0.46991-0.4292,0.74341s0.19399,0.38397,0.43201,0.24655     c0.23802-0.13742,0.43029-0.47045,0.42952-0.74395C42.63105,35.79876,42.43752,35.68883,42.1995,35.82625z"/><pattern id="SVGID_26_" patternTransform="matrix(-0.04873 0 0 0.04873 -8082.28662 -7344.72705)" xlink:href="#Unnamed_Pattern_12"/><path class="st41" d="M40.81186,36.62741c-0.23771,0.13724-0.42998,0.46991-0.42921,0.74341     c0.00077,0.2735,0.19431,0.38379,0.43201,0.24655c0.23801-0.13742,0.43029-0.47045,0.42952-0.74395     C41.2434,36.59991,41.04987,36.48999,40.81186,36.62741z"/><pattern id="SVGID_27_" patternTransform="matrix(-0.04873 0 0 0.04873 -8082.28662 -7344.72705)" xlink:href="#Unnamed_Pattern_12"/><path class="st42" d="M39.42421,37.42857c-0.23771,0.13724-0.42998,0.46991-0.42921,0.74341s0.19431,0.38379,0.43201,0.24654     c0.23802-0.13742,0.43029-0.47045,0.42952-0.74395C39.85575,37.40108,39.66222,37.29115,39.42421,37.42857z"/><pattern id="SVGID_28_" patternTransform="matrix(-0.04873 0 0 0.04873 -8084.78125 -7323.91455)" xlink:href="#Unnamed_Pattern_12"/><polygon class="st43" points="31.17121,41.991 34.38942,40.13287 34.38942,41.35169 31.17121,43.20974    "/></g></g><g><g><g><path class="st1" d="M26.23495,36.07345c-0.39868-1.28772-0.22829-3.10186-1.04762-6.02242      c-0.54271-1.93451-2.44267-2.2403-2.44267-2.2403c1.59892,1.21286,0.2558,2.26607,0.2558,2.26607      c-1.08731,0.41449-1.12996-0.08542-1.32182-4.18277c-0.1919-4.09728-2.72529-3.07695-2.72529-3.07695      c1.24244,0.86516,0.23515,2.49443,0.23515,2.49443c-1.01374,1.37192-0.86631,2.22586-0.86631,2.22586      c-2.52513-2.00597-0.77411-4.21146-0.77411-4.21146c-2.50673,0.47973-1.65886,4.16933-1.65886,4.16933      c-2.13807-1.09779-1.43767-2.64691-1.84321-5.0828c-0.40546-2.43586-1.79818-1.96628-1.79818-1.96628      c1.03758,1.38821-0.56355,1.91504-0.56355,1.91504c-0.19216-0.56056-0.46114-1.14051-1.15281-1.82699      c-0.6917-0.68648-0.58921-2.09038-0.58921-2.09038c-0.48677,0.59003-0.9351,2.022-0.47399,2.67597      c0.46114,0.65401,0.56363,1.87479,0.56363,1.87479c0,2.15099-1.678,1.48059-1.678,1.48059      c-1.60114-1.4834-0.73006-3.43616-0.73006-3.43616c-1.86394,0.88275-1.2367,3.88483-1.2367,3.88483      c-1.29502,1.12385-1.02818,2.08698-0.88226,2.40917l19.14557,11.05372C26.39149,38.42423,26.23495,36.07345,26.23495,36.07345z"/><g><g><polygon class="st21" points="24.20192,37.25491 24.16862,49 5.30059,38.10654 5.33389,26.36145       "/><g class="st9"><g><polygon class="st5" points="6.76912,37.40348 6.76473,38.95186 5.30059,38.10654 5.30498,36.55817         "/></g><g><polygon class="st5" points="6.78069,33.32269 6.7763,34.87106 5.31216,34.02574 5.31655,32.47736         "/></g><g><polygon class="st5" points="8.71481,36.48486 8.71043,38.0297 5.30638,36.06437 5.31076,34.51953         "/></g><g><polygon class="st5" points="10.652,39.64527 10.64761,41.19364 7.19138,39.19819 7.19577,37.64981         "/></g><g><polygon class="st5" points="6.79225,29.24541 6.78786,30.79378 5.32372,29.94846 5.32811,28.40009         "/></g><g><polygon class="st5" points="8.72638,32.40405 8.72199,33.95243 5.31794,31.9871 5.32233,30.43873         "/></g><g><polygon class="st5" points="7.20295,35.11738 7.20734,33.569 10.66356,35.56445 10.65917,37.11283         "/></g><g><polygon class="st5" points="12.59768,38.72663 12.5933,40.27148 9.14015,38.2778 9.14453,36.73296         "/></g><g><polygon class="st5" points="14.53488,41.88705 14.53049,43.43542 11.07427,41.43997 11.07866,39.8916         "/></g><polygon class="st21" points="7.36691,25.18 26.23493,36.07346 24.20192,37.25491 5.33389,26.36145        "/><g><polygon class="st8" points="5.33389,26.36145 7.36691,25.18 10.77095,27.14532 8.73794,28.32678         "/></g><g><polygon class="st5" points="8.73794,28.32678 8.73355,29.87162 5.32951,27.9063 5.33389,26.36145         "/></g><g><polygon class="st5" points="10.67513,31.48719 10.67074,33.03556 7.21451,31.04011 7.2189,29.49174         "/></g><g><polygon class="st5" points="9.1517,34.20052 9.15609,32.65214 12.60924,34.64582 12.60485,36.1942         "/></g><g><polygon class="st5" points="14.55801,33.72897 14.55362,35.27735 11.0974,33.28189 11.10179,31.73352         "/></g><g><polygon class="st5" points="16.4952,36.88939 16.49081,38.43776 13.03459,36.44231 13.03898,34.89394         "/></g><g><polygon class="st5" points="20.36213,44.75681 16.90591,42.76135 16.91029,41.21651 20.36651,43.21196         "/></g><g><polygon class="st5" points="18.44088,35.97075 18.43649,37.51913 14.98028,35.52368 14.98467,33.97531         "/></g><g><polygon class="st5" points="16.91747,38.68409 16.92185,37.13571 20.37808,39.13116 20.37369,40.67954         "/></g><g><polygon class="st5" points="22.31221,42.28981 22.30782,43.83818 18.85466,41.84451 18.85905,40.29613         "/></g><g><polygon class="st5" points="22.32376,38.21254 22.31938,39.76091 18.86622,37.76723 18.87061,36.21886         "/></g><g><polygon class="st5" points="11.09022,35.81078 14.54644,37.80623 14.54206,39.35461 11.08583,37.35916         "/></g><g><polygon class="st5" points="16.47925,42.51502 13.02302,40.51957 13.0274,38.97472 16.48363,40.97018         "/></g><g><polygon class="st5" points="18.41776,44.12883 18.41336,45.6772 14.95715,43.68176 14.96154,42.13338         "/></g><g><polygon class="st5" points="12.62081,30.56856 12.61643,32.1134 9.16328,30.11973 9.16766,28.57488         "/></g><g><polygon class="st8" points="9.16766,28.57488 11.20067,27.39342 14.65382,29.3871 12.62081,30.56856         "/></g><g><polygon class="st5" points="18.42932,40.04803 18.42493,41.5964 14.96872,39.60095 14.97311,38.05258         "/></g><g><polygon class="st5" points="22.30064,46.37061 22.29625,47.91898 18.84309,45.9253 18.84748,44.37693         "/></g><g><polygon class="st5" points="24.17301,47.45163 24.16862,49 22.72598,48.16709 22.73037,46.61872         "/></g><g><polygon class="st5" points="16.50676,32.81211 16.50238,34.35696 13.04616,32.36151 13.05054,30.81666         "/></g><g><polygon class="st8" points="13.05054,30.81666 15.08355,29.6352 18.53977,31.63066 16.50676,32.81211         "/></g><g><polygon class="st5" points="24.17879,45.41299 24.17441,46.95784 20.78878,45.00314 20.79316,43.4583         "/></g><g><polygon class="st5" points="24.18458,43.37083 24.18019,44.9192 22.73755,44.08629 22.74194,42.53791         "/></g><g><polygon class="st8" points="16.93342,33.05844 18.96643,31.87699 22.42266,33.87244 20.38964,35.0539         "/></g><g><polygon class="st5" points="20.38964,35.0539 20.38526,36.59874 16.92904,34.60329 16.93342,33.05844         "/></g><g><polygon class="st5" points="24.19036,41.33219 24.18597,42.88056 20.80034,40.92587 20.80473,39.37749         "/></g><g><polygon class="st5" points="24.19614,39.29355 24.19175,40.84193 22.74911,40.00901 22.75349,38.46064         "/></g><g><polygon class="st8" points="20.81629,35.30022 22.84931,34.11876 26.23493,36.07346 24.20192,37.25491         "/></g><g><polygon class="st5" points="24.20192,37.25491 24.19754,38.79976 20.81191,36.84507 20.81629,35.30022         "/></g><polygon class="st21" points="26.23493,36.07346 26.20164,47.81854 24.16862,49 24.20192,37.25491        "/></g></g><g><g><polygon class="st4" points="24.17301,47.45163 26.20602,46.27017 26.20164,47.81854 24.16862,49        "/></g><g><polygon class="st4" points="24.17879,45.41299 26.2118,44.23153 26.20742,45.77637 24.17441,46.95784        "/></g><g><polygon class="st4" points="24.18458,43.37083 26.21759,42.18937 26.2132,43.73774 24.18019,44.9192        "/></g><g><polygon class="st4" points="24.19036,41.33219 26.22337,40.15073 26.21898,41.6991 24.18597,42.88056        "/></g><g><polygon class="st4" points="24.19614,39.29355 26.22915,38.11209 26.22476,39.66047 24.19175,40.84193        "/></g><g><polygon class="st4" points="24.20192,37.25491 26.23493,36.07346 26.23055,37.6183 24.19754,38.79976        "/></g></g></g><path class="st1" d="M24.20192,37.25491l2.03301-1.18146c0,0-1.21373-6.24134-2.85522-7.57142      c0,0,0.04363,2.18779-0.63061,3.37495C22.07486,33.06414,24.20192,37.25491,24.20192,37.25491z"/><path class="st21" d="M5.33389,26.41791c-0.04536-0.28308-0.05046-0.82134,0.67162-1.44797      c0.1936-0.16802,0.28111-0.42765,0.22867-0.67859c-0.00086-0.00421-0.2407-0.51269,0.08702-1.12085      c0.18469,0.4059,0.29213,0.95087,0.70718,1.3354c0.06362,0.05896,0.13757,0.1057,0.21811,0.13788      c0.06241,0.02496,0.39503,0.14937,0.8147,0.14937c0.42993-0.00003,1.8327-0.16498,1.8327-2.28641      c0-0.01975-0.00083-0.03946-0.00249-0.05914c-0.00866-0.10325-0.26187-0.79119-0.50082-1.46305      c0.33579,0.42938,0.66974,0.79672,0.77989,1.11804c0.10046,0.29312,0.37466,0.47791,0.66868,0.47791      c0.07325,0,0.14775-0.01146,0.22107-0.03559c0.10239-0.03369,1.22076-0.46953,1.53566-1.26814      c0.06166,0.18365,0.1134,0.39689,0.15324,0.63619c0.10312,0.61935-0.11566,1.30232-0.08977,1.8393      c0.07184,1.48984,0.13967,2.8971,2.06192,3.88406c0.10191,0.05233,0.21265,0.07805,0.32281,0.07805      c0.15431,0,0.30758-0.05044,0.43421-0.14899c0.2171-0.16888,0.31653-0.44829,0.25494-0.71635      c-0.04968-0.21987,0.05874-0.84941,0.05118-1.30916c0.2237,0.59812,0.48438,1.45267,1.253,2.06325      c0.13677,0.10864,0.30662,0.16884,0.47467,0.16884c0.12355,0,0.24614-0.03252,0.35405-0.10218      c0.25083-0.16187,0.37794-0.43804,0.31097-0.72716c-0.00269-0.09562,0.01105-0.71904,0.73499-1.69879      c0.0116-0.01567,0.02251-0.03183,0.03276-0.0484c0.28394-0.45927,0.58414-1.26085,0.46514-2.04121      c0.03511,0.03055,0.06894,0.06418,0.10153,0.10091c0.24734,0.27859,0.55496,0.88368,0.61586,2.18413      c0.08295,1.77118,0.13556,2.80686,0.25239,3.4969c0.06193,0.36582,0.25052,1.47906,1.2843,1.47906c0.0001,0,0.0001,0,0.00024,0      c0.21338-0.00003,0.44253-0.05112,0.743-0.16567c0.06639-0.0253,0.12856-0.06048,0.18445-0.10429      c0.08023-0.06293,0.75714-0.75434,0.78797-1.64323c0.0417,0.09921,0.09347,0.33543,0.1361,0.45463      c0.54447,1.52222,0.31801,2.3209,0.09897,3.09332c-0.1608,0.56704-0.32709,1.15346-0.10867,1.859l0.0338,0.10888      c0.14951,0.48106,0.37542,1.208,0.48816,1.87744c0.16215,0.96263,0.19386,1.33244,0.17384,1.3596      C24.19823,37.25992,5.33389,26.41791,5.33389,26.41791z"/></g></g></g></g></svg>