<?xml version="1.0" standalone="no"?>
<!DOCTYPE svg PUBLIC "-//W3C//DTD SVG 1.1//EN" "http://www.w3.org/Graphics/SVG/1.1/DTD/svg11.dtd" >
<svg xmlns="http://www.w3.org/2000/svg" xmlns:xlink="http://www.w3.org/1999/xlink" version="1.1">
<metadata>
Created by FontForge 20170731 at Sun Apr 30 20:18:15 2017
 By Aleksey,,,
Copyright (c) 2010 by Font Diner, Inc. All rights reserved.
</metadata>
<defs>
<font id="PermanentMarker-Regular" horiz-adv-x="773" >
  <font-face 
    font-family="Permanent Marker"
    font-weight="400"
    font-stretch="normal"
    units-per-em="1024"
    panose-1="2 0 0 0 0 0 0 0 0 0"
    ascent="819"
    descent="-205"
    x-height="603"
    cap-height="745"
    bbox="-297 -323 1267.67 1136"
    underline-thickness="51"
    underline-position="-152"
    unicode-range="U+0020-FB02"
  />
<missing-glyph horiz-adv-x="379" 
 />
    <glyph glyph-name=".notdef" horiz-adv-x="379" 
 />
    <glyph glyph-name=".null" horiz-adv-x="0" 
 />
    <glyph glyph-name="nonmarkingreturn" horiz-adv-x="341" 
 />
    <glyph glyph-name="space" unicode=" " horiz-adv-x="379" 
 />
    <glyph glyph-name="exclam" unicode="!" horiz-adv-x="267" 
d="M276 688q0 -9 -2.5 -22t-4.5 -26t-1 -23.5t9 -13.5q-18 -53 -24.5 -89t-11 -68.5t-11.5 -68.5t-25 -88q-11 -32 -27 -44.5t-34 -12.5t-37 10t-35 22q-3 19 -0.5 46.5t6.5 57.5t8 57.5t6 46.5q10 11 14 18t5.5 15t2.5 20t5 34q2 11 -1.5 19.5t-1.5 16.5q2 4 6.5 6t5.5 7
q4 13 2 20.5t3 18.5q5 8 12.5 25.5t5.5 36.5q9 7 17 16t16.5 16.5t19 12.5t25.5 5q8 -11 12 -21t7.5 -19t9.5 -17t18 -14zM177 119q2 -8 3 -15t2 -15q-6 -21 -13 -38q-3 -7 -4 -9t-1 -3t1 -2.5t1 -8.5l-5 -12q-5 -7 -11.5 -11t-13.5 -7q-3 -2 -6.5 -3.5t-5.5 -3.5l-3 -12
l-14 -2q-16 -4 -29 -4h-11q-12 11 -19 17t-16 11q-11 19 -13 33q-2 13 -5 17l-14 14l12 9l-12 19q12 9 18 13t10.5 8.5t9.5 11.5t16 23l9 13l12 -7q5 -3 18.5 -5.5t23.5 -4.5q16 -5 31.5 -7.5t24.5 -10.5z" />
    <glyph glyph-name="quotedbl" unicode="&#x22;" horiz-adv-x="504" 
d="M254 739q12 -10 23 -18t20 -17t13.5 -20.5t2.5 -28.5q-8 -9 -19 -33.5t-27 -70.5q-8 -23 -15.5 -62.5t-18 -82t-25.5 -80t-38 -54.5q-9 3 -19 5t-18 6t-12.5 11.5t-3.5 21.5q-23 13 -29.5 31.5t-5.5 39t4.5 41t0.5 37.5q10 41 21.5 88.5t20.5 91.5q9 9 14.5 22.5
t9.5 29.5t8.5 31.5t12.5 29.5q5 -5 17 -4.5t15 6.5q6 -10 22 -16.5t26 -4.5zM437 759q15 -6 31 -13t31 -15t27 -19t19 -26q-8 -35 -22 -68t-27 -65t-21 -63t-3 -63q-2 -3 -6 -1.5t-6 -3.5q-6 -23 -14 -50.5t-9 -56.5q-9 -5 -17 -11.5t-7 -16.5q-11 -5 -24 -10.5t-24.5 -6
t-20.5 6t-10 26.5q-10 2 -13 9t-5 15t-5.5 16t-13.5 12q14 81 25 128.5t19 72.5q9 29 15 40q5 21 10.5 38t11 34.5t11 36t11.5 42.5q8 5 15.5 10t21.5 2z" />
    <glyph glyph-name="numbersign" unicode="#" horiz-adv-x="720" 
d="M638 286q23 -5 27 -13t-3 -17.5t-20 -19.5t-25 -17q-11 2 -23.5 -3.5t-23.5 -12.5q-13 2 -26.5 2h-27.5q-7 -20 -15.5 -38.5t-22.5 -31.5q-1 -5 2.5 -9t5.5 -9q-11 -9 -15.5 -19t-6 -21t-2 -21t-4.5 -19q-9 -4 -16 -10t-13.5 -12t-14.5 -10.5t-20 -6.5q-21 7 -34 13.5
t-30 14.5q-14 18 -15.5 38t4.5 40t16 38t19 32q7 14 12 25q-23 1 -46.5 -0.5t-48.5 -4.5q-6 -17 -14.5 -32.5t-20.5 -27.5q-1 -5 3 -9t6 -9q-11 -9 -15.5 -19t-6 -20.5t-2.5 -21t-5 -18.5q-9 -4 -15.5 -10t-13.5 -12t-15 -10.5t-20 -6.5q-21 7 -33.5 13.5t-30.5 14.5
q-14 17 -15 37.5t5 40.5t16 38t19 32q-12 0 -24.5 -0.5t-24.5 -1.5q-15 8 -22 20t-9.5 25.5t-2 27.5t0.5 28q4 11 13.5 17t20.5 11q30 1 54 2.5t47 3.5q1 2 1.5 5t1.5 5q-1 14 6.5 36.5t17.5 48.5q-17 -3 -29 -5t-20 -4q-24 1 -35.5 7t-17.5 14.5t-8 19t-6 22.5q8 8 10.5 22
t-6.5 21q10 2 18 11.5t6 14.5q31 5 64 5.5t63 3.5q11 20 19.5 52.5t19 65t26 57.5t39.5 30q30 -28 45.5 -59.5t25.5 -74.5q-3 -10 -9 -25l-14 -35q24 1 48 1t47 1q9 22 17 53t18.5 60.5t25.5 51.5t38 27q29 -27 45 -59t25 -75q-3 -10 -9.5 -26.5t-14.5 -37.5q16 -1 31 -3.5
t27 -7t19 -12t8 -19.5q18 -2 24.5 -7t7 -12t-3.5 -15.5t-7 -16.5q-28 -12 -67.5 -18.5t-84.5 -9.5q-11 -32 -19 -57.5t-9 -38.5h44q-1 -9 7 -13t17 -6.5t16 -6t4 -12.5zM307 318q20 2 47 3t56 2q2 16 10.5 41t19.5 52h-56.5t-48.5 -1q-11 -31 -18.5 -55.5t-8.5 -36.5z" />
    <glyph glyph-name="dollar" unicode="$" horiz-adv-x="505" 
d="M414 306q2 -21 3.5 -38t-6.5 -34q-15 -36 -45 -63t-68 -47l-4 -14t-1 -10q-11 -9 -16 -20t-7 -22t-3 -22t-5 -20q-8 -4 -15 -10t-13.5 -12t-14.5 -11t-19 -7q-20 7 -31.5 14.5t-27.5 15.5q-11 15 -12.5 33t2.5 35q-9 1 -18 1.5t-17 -0.5q-6 5 -11.5 11t-7.5 14q-4 0 -4 4
t-4 5q6 8 5.5 9t-2.5 2t-4 2.5t-1 4.5q4 6 3 15t-2 18.5t1 18t13 13.5q32 -3 60 2.5t53.5 15.5t48.5 22t45 21q5 15 17.5 22.5t17.5 22.5q1 6 -3.5 7t-4.5 6q-27 12 -50 18.5t-38 14.5q-10 -5 -18.5 -2.5t-22.5 4.5q-32 2 -61 6t-57 15q-2 5 -4 8t-10 2q-5 7 -11 13t-11 14
q2 10 3 17t-5 14q3 11 5 18t0 18q7 18 21 31t31.5 22t36 14.5t34.5 10.5q26 12 56.5 21t62.5 18q7 24 14.5 50.5t17.5 50t23 40.5t32 22q26 -29 39 -61t21 -76q21 0 43 -2.5t45 -9.5q3 -8 8.5 -15.5t11.5 -15t10.5 -15t5.5 -15.5q9 -8 14.5 -16.5t2.5 -23.5l-18 -12t-19 -11
q-35 8 -69.5 6t-63.5 -4q-9 8 -20.5 7.5t-24 -3.5t-25 -6.5t-23.5 -1.5q-9 -7 -22.5 -9.5t-28.5 -3.5q-1 -5 1.5 -6t0.5 -6q5 -6 14.5 -8.5t19 -4.5t17 -6t10.5 -13q13 0 23.5 -6t17 -14.5t10 -18.5t2.5 -17q3 -7 6.5 -5.5t8.5 -3.5q3 -11 14 -22.5t17 -25.5z" />
    <glyph glyph-name="percent" unicode="%" horiz-adv-x="659" 
d="M455 557q13 8 29.5 24.5t34.5 35t37 38.5t38 35.5t37 24.5t34 8q8 -35 2.5 -69.5t-22.5 -77.5q-11 -11 -31.5 -29.5t-45 -41t-50.5 -47t-49.5 -47t-41 -41t-24.5 -28.5q-17 -15 -44.5 -41t-58 -55t-59 -57t-46.5 -46q-2 -5 1 -8.5t3 -8.5q-12 -10 -15.5 -18.5t-4 -16.5
t0 -16.5t-2.5 -18.5q-8 -6 -14.5 -13.5t-12.5 -15t-13.5 -14t-18.5 -11.5q-20 1 -32 4.5t-29 6.5q-14 13 -15.5 33t3 41t13 41.5t16.5 35.5q10 23 21 32t13 17q9 10 32.5 32t51.5 47t54.5 48.5t40.5 37.5q9 16 35 41t54.5 51t51.5 49.5t27 37.5zM300 680q-2 -5 -3.5 -10.5
t-6.5 -8.5q5 -11 4 -13q12 -20 21.5 -41t21.5 -41q-2 -12 4 -23t8 -22q2 -14 -3.5 -31t-16.5 -24q-7 -8 -17 -13t-18 -13q-6 -4 -12.5 -5t-13.5 -3q-11 -7 -29 -13t-30 -4q-15 -5 -29.5 -7t-33.5 2q-37 -5 -61 14.5t-35 46.5q-4 29 2 52.5t17.5 43.5t26 37t27.5 33
q6 -2 8.5 3t7.5 7q4 8 10.5 11.5t10.5 10.5q9 2 13.5 8t12.5 8q10 10 14 15t10 13h7.5t8.5 1q4 7 7 10.5t10 7.5q6 -3 13.5 -4t12.5 -6q0 -5 3 -8t6 -5.5t5.5 -5t3.5 -6.5q8 -6 9.5 -8.5t3.5 -8.5zM228 537q3 10 3 10.5t-1 2.5q-4 6 -7 13t-7 13q-6 -6 -12 -2
q-5 -5 -10.5 -9t-10.5 -10q-6 -8 -10.5 -13t-5.5 -15q7 -5 17 -3t18 2q8 2 14 5zM592 176q-2 -12 3.5 -22.5t7.5 -21.5q2 -14 -3 -31.5t-16 -23.5q-7 -9 -17.5 -14t-18.5 -13q-6 -3 -12 -4.5l-14 -3.5q-11 -6 -28.5 -12t-30.5 -5q-15 -5 -29 -7t-34 2q-37 -5 -60.5 14.5
t-34.5 47.5q-4 28 2 51.5t17 43.5t25.5 37t28.5 33q5 -2 8 3.5t8 6.5q3 8 10 11.5t11 11.5q8 2 13 7.5t13 7.5l13.5 15t10.5 13q5 1 7.5 0.5t7.5 0.5q5 8 8 11t9 8q6 -4 13.5 -4.5t12.5 -6.5q1 -11 9 -13.5t10 -11.5q7 -6 9 -8t4 -9q-2 -5 -4 -10.5t-7 -7.5q6 -11 4 -13
q12 -20 21.5 -41.5t22.5 -41.5zM483 148q2 9 2 13q-5 6 -7.5 13t-6.5 13q-5 -5 -7.5 -5t-4.5 2q-6 -5 -11.5 -9t-10.5 -9q-5 -9 -10 -14t-5 -14q7 -6 17 -4t18 2q8 2 13.5 5t12.5 7z" />
    <glyph glyph-name="ampersand" unicode="&#x26;" horiz-adv-x="614" 
d="M561 318q15 -1 21.5 -6.5t9 -13t1.5 -16t-1 -17.5q-15 -10 -37.5 -16.5t-49.5 -10.5t-56.5 -5.5t-58.5 -1.5q-5 -28 -12 -60t-23 -76q-14 -31 -32 -43.5t-37.5 -12.5t-39.5 9.5t-38 21.5q-4 26 -1 52.5t9 65.5q-6 12 -16 16.5t-21.5 5t-21.5 -1.5t-14 -4q-19 1 -39.5 9
t-39.5 18.5t-33.5 23t-21.5 24.5q5 8 2.5 23t-11.5 22q8 2 11.5 12t0.5 15q16 4 25.5 19.5t22.5 33.5t36 34.5t68 22.5q29 -17 46.5 -27t28.5 -15q12 -6 18 -8q1 4 6.5 6t6.5 7q4 13 2 20.5t4 18.5q5 8 13.5 20.5t6.5 31.5q10 7 18.5 15.5t18 16t21 13t28.5 5.5
q9 -11 13 -21t8 -19t10.5 -17t19.5 -15q1 -9 -2 -22t-5 -25.5t-1 -23t10 -13.5q-10 -26 -15 -43q17 -3 39 -3.5t42 -3.5t36.5 -12t23.5 -29zM139 323q0 -9 15 -9q4 0 8.5 0.5t9.5 1.5l10 2q-5 6 -10 10t-9.5 7.5t-8.5 3.5t-9.5 -7t-5.5 -9z" />
    <glyph glyph-name="quotesingle" unicode="'" horiz-adv-x="272" 
d="M254 739q12 -10 23 -18t20 -17t13.5 -20.5t2.5 -28.5q-8 -9 -19 -33.5t-27 -70.5q-8 -23 -15.5 -62.5t-18 -82t-25.5 -80t-38 -54.5q-9 3 -19 5t-18 6t-12.5 11.5t-3.5 21.5q-23 13 -29.5 31.5t-5.5 39t4.5 41t0.5 37.5q10 41 21.5 88.5t20.5 91.5q9 9 14.5 22.5
t9.5 29.5t8.5 31.5t12.5 29.5q5 -5 17 -4.5t15 6.5q6 -10 22 -16.5t26 -4.5z" />
    <glyph glyph-name="parenleft" unicode="(" horiz-adv-x="370" 
d="M276 474l-36 -45l-1 -28q-12 -25 -21.5 -53t-17.5 -63q-9 -38 -10 -79.5t3.5 -82.5t13.5 -80t21 -71q-3 -4 -5.5 -15.5t-4 -24.5t-2 -24.5t1.5 -16.5l7 -11q4 -2 5 -7t2 -9q2 -25 -13 -48q-20 3 -37.5 9.5t-32.5 13.5q-11 24 -23.5 39t-24.5 29q-11 12 -21.5 25t-21.5 33
q-4 33 -10 60t-14 56l-3 11q2 37 4 75.5t0 66.5q2 8 2.5 17.5t1.5 19.5v12t1 12l22 2l-7 32l11 12l4 18q3 57 16 99.5t37 83.5l8 15q17 23 34 49t39 56q35 38 61.5 65t53.5 44l9 11q19 18 32.5 29.5t24.5 22.5q11 10 20 18t18 13q14 -10 27 -8t21 5q12 -13 12 -22t-4 -25
q-3 -13 -5.5 -30t5.5 -37q-5 -11 -8.5 -22.5t-7.5 -23.5t-7 -17.5t-6.5 -9t-8 -7t-10.5 -11.5q-23 -9 -46.5 -28.5t-44 -43t-36 -48.5t-22.5 -46z" />
    <glyph glyph-name="parenright" unicode=")" horiz-adv-x="370" 
d="M329 589l-4 -76t0 -66q-2 -9 -2.5 -18.5t-1.5 -18.5v-12t-1 -12l-22 -3l7 -31l-11 -12l-4 -18q-3 -57 -16 -99.5t-37 -84.5l-8 -14q-17 -23 -34 -49.5t-39 -56.5q-35 -38 -61.5 -64.5t-53.5 -43.5l-9 -11q-19 -18 -32.5 -29.5t-24.5 -22.5q-11 -10 -20 -18t-18 -13
q-14 10 -27 7.5t-21 -4.5q-12 12 -12 21.5t4 24.5q3 14 5.5 31t-5.5 37q5 11 8.5 22t7.5 24q4 12 7 17.5t6.5 9t8 7t10.5 11.5q22 9 46 28.5t44.5 43t36 48t22.5 45.5l6 18l35 45l2 28q23 47 39 116q9 37 9.5 78.5t-4 83t-13.5 80.5t-20 71q3 4 5.5 15.5t4 24.5t2 24.5
t-1.5 16.5l-7 10q-4 3 -5 7.5t-2 9.5q-2 25 13 48q19 -3 36.5 -9.5t33.5 -13.5q11 -24 23.5 -39t24.5 -29q11 -13 21.5 -25.5t21.5 -32.5q4 -33 10 -60t14 -56z" />
    <glyph glyph-name="asterisk" unicode="*" horiz-adv-x="690" 
d="M684 526q18 -1 26 -5.5t10 -11.5t0.5 -15.5t-2.5 -16.5q-32 -16 -84.5 -23t-111.5 -10q6 -17 17 -37t18 -39.5t7 -38.5t-16 -34q6 -14 4.5 -23t-7.5 -14.5t-15 -9.5l-18 -8q-31 16 -62.5 56t-60.5 86q-23 -40 -35 -63.5t-15 -34.5q-15 -17 -28 -25t-26 -10.5t-26.5 -2.5
t-28.5 -1q-4 8 -19 12.5t-28 -0.5q5 8 -1.5 16t-13.5 7q8 17 19.5 34.5t23 34.5t21 33.5t12.5 30.5q2 4 5 7.5t6 7.5q-37 -5 -59.5 -9t-32.5 -8q-24 1 -37 6t-21 13.5t-13.5 18.5t-12.5 21q6 8 5 21.5t-12 20.5q9 2 14.5 11t2.5 14q20 4 42.5 5.5t44.5 3t42 4.5t35 9h20
q-20 26 -33 40t-21 20q-9 18 -9 31t5 23.5t13 20.5t16 22q10 1 23.5 10t15.5 21q5 -6 17 -4.5t16 6.5q12 -13 23 -29t21.5 -31.5t21 -29t23.5 -21.5q15 10 29 27t29 31t32 22t36 6q12 13 21 17t17.5 2.5t16 -6t15.5 -8.5q-2 -30 -26 -73t-56 -88q21 -2 47 -2t50 -3t43 -11
t25 -26z" />
    <glyph glyph-name="plus" unicode="+" horiz-adv-x="593" 
d="M510 298q15 -2 21.5 -7t8.5 -12.5t1.5 -16.5t-0.5 -18q-15 -10 -37.5 -16.5t-49.5 -10t-56.5 -5t-58.5 -2.5q-5 -28 -12 -59.5t-23 -76.5q-14 -31 -32 -43.5t-37.5 -12.5t-39.5 9.5t-38 21.5q-2 13 -1 31t3 38.5t5.5 41t6.5 40.5q-32 -5 -51.5 -9t-27.5 -7q-19 1 -30 7
t-18 14.5t-12 19.5t-12 23q4 8 1.5 23t-11.5 23q8 1 12 11.5t0 15.5q16 4 34.5 5.5t36.5 2.5t34 3.5t28 8.5q14 0 26.5 0.5t26.5 0.5q3 13 -1 22t-2 16q2 5 7.5 6.5t6.5 6.5q4 13 2 20.5t4 19.5q5 8 13.5 25t6.5 36q10 7 18.5 16t18 16.5t21 13t28.5 5.5q9 -11 13 -21t8 -19
t10.5 -17t19.5 -15q0 -9 -3 -22t-5 -26t-1 -23t10 -14q-4 -11 -7.5 -21.5t-6.5 -20.5q17 -3 39 -3.5t42 -4t36.5 -12t23.5 -28.5z" />
    <glyph glyph-name="comma" unicode="," horiz-adv-x="209" 
d="M9 149q6 -5 20.5 -11.5t30.5 -13t30 -11.5t20 -6q11 -20 12.5 -35.5t4.5 -32.5q-5 -5 -6.5 -16.5t-1.5 -16.5q-1 -8 -4 -9.5t-5 -8.5q-1 -2 1 -6t1 -6q-1 -5 -4.5 -5.5t-5.5 -5.5q-4 -11 -5.5 -13.5t-2 -3l-2 -2t-6.5 -11.5q-7 -15 -17 -29.5t-13 -28.5
q-14 -12 -34.5 -30.5t-38.5 -25.5q-9 4 -28.5 13t-37 20t-26.5 24t2 24q18 19 31.5 45.5t23.5 57t17.5 63t14.5 62.5q4 -4 8 -2.5t8 5t7 8.5t6 8z" />
    <glyph glyph-name="hyphen" unicode="-" horiz-adv-x="624" 
d="M520 298q15 -2 21.5 -7t9 -12.5t1.5 -16.5t-1 -18q-25 -17 -69 -23.5t-92 -9t-93 -2.5t-71 -3q-54 -6 -83.5 -11.5t-40.5 -10.5q-19 1 -30 7t-18 14.5t-12 19.5t-12 23q4 8 2 23t-12 23q8 1 12 11.5t0 15.5q16 4 34.5 5.5t36.5 2.5t34.5 3.5t28.5 8.5q50 1 103.5 3
t100.5 4q17 -5 40 -5.5t45 -3t40 -11.5t25 -30z" />
    <glyph glyph-name="period" unicode="." horiz-adv-x="234" 
d="M146 119q2 -8 3 -15t3 -15q-4 -10 -7 -19.5t-6 -18.5q-3 -7 -4 -9t-1 -3t0.5 -2.5t0.5 -8.5l-4 -12q-5 -7 -12 -11t-14 -7q-2 -2 -6 -3.5t-6 -3.5l-3 -12l-13 -2q-17 -4 -29 -4h-12q-12 11 -19 17t-15 11q-10 14 -11 20.5t-3 12.5q-2 13 -5 17l-14 14l12 9l-11 19
q12 9 18 13t10 8.5t9 11.5t16 23l9 13l13 -7q4 -3 17.5 -5.5t23.5 -4.5q17 -5 32 -7.5t24 -10.5z" />
    <glyph glyph-name="slash" unicode="/" horiz-adv-x="411" 
d="M290 561q18 13 39 42.5t44.5 58.5t48 50.5t49.5 18.5q16 -36 17 -71.5t-7 -80.5q-9 -11 -26 -30t-37.5 -42.5t-42.5 -48.5t-41.5 -48t-34 -42t-19.5 -30q-14 -15 -37.5 -42t-48.5 -57t-48.5 -58.5t-38.5 -47.5q-1 -5 3 -9t6 -9q-11 -10 -13 -18.5t-1 -17.5t3 -17.5
t1 -18.5q-7 -6 -11.5 -14t-9 -15.5t-11 -14.5t-16.5 -12q-21 2 -34 5.5t-31 6.5q-17 14 -23 34.5t-5.5 42t5 43t9.5 37.5q11 7 1 10q4 14 14 23.5t10 16.5q7 11 27 33.5t43.5 48.5t45.5 50.5t34 38.5q6 16 27.5 41.5t45 52.5t43 51t20.5 39z" />
    <glyph glyph-name="zero" unicode="0" horiz-adv-x="703" 
d="M224 -17q-39 -6 -72 4t-58.5 32t-44.5 52t-31 64q-8 71 5 129t37.5 107t55.5 91.5t60 81.5q6 -3 10 0.5t7.5 8.5l7 10t9.5 7q4 9 10 15.5t12.5 12.5t12.5 12t10 15q9 2 16 7.5t13 11.5t12.5 11.5t15.5 8.5v13q20 11 29 23.5t22 31.5q10 2 16 1.5t17 1.5q9 17 16 26t21 20
q13 -8 29 -10.5t27 -15.5q1 -13 6.5 -20t12.5 -12.5t13 -12t8 -17.5q4 0 5.5 2t5.5 1q2 -9 4 -14t4 -9.5t4.5 -9t4.5 -12.5q-5 -12 -8.5 -26t-14.5 -19q0 -8 5.5 -9t6.5 -8q0 -10 -3 -16q26 -49 46.5 -102.5t46.5 -101.5q-2 -15 1.5 -29t8 -27.5t9 -26.5t6.5 -27
q2 -18 0.5 -38.5t-7 -39.5t-14.5 -35t-21 -24q-2 1 -11 -5.5t-20.5 -16.5t-23.5 -22l-21 -21q-12 -8 -26.5 -11.5t-29.5 -7.5q-12 -8 -28.5 -16.5t-34 -14.5t-34.5 -9.5t-30 -1.5q-33 -14 -63.5 -18.5t-72.5 5.5zM246 361q-8 -24 -19 -43t-21.5 -39t-18 -42.5t-8.5 -52.5
q16 -17 38.5 -21t46 -1t46.5 8t42 6q0 9 7 8q33 4 62.5 24.5t61.5 41.5q4 13 10.5 22t6.5 26q-4 11 -5 16.5t-1 18.5q-21 38 -36.5 82.5t-35.5 82.5q-2 -5 -7 -10t-11 2q-5 -20 -17.5 -18t-23.5 12q-28 -29 -56 -56.5t-50 -63.5q-4 -3 -5 -1.5t-6 -1.5z" />
    <glyph glyph-name="one" unicode="1" horiz-adv-x="330" 
d="M179 724q11 -22 28.5 -35.5t34.5 -27.5q21 -39 26 -87t11 -105q0 -46 -6 -86.5t-15.5 -79t-21.5 -76.5t-23 -80q-14 -15 -21.5 -42.5t-1.5 -53.5q-13 -16 -26 -31t-29 -28q-6 6 -15.5 6.5t-19.5 0t-18.5 -2t-12.5 -0.5q-5 8 -13.5 17t-15 19t-10 19.5t1.5 18.5
q0 11 -12 11q3 46 15 90.5t27 87t29.5 84.5t22 83t4 82t-23.5 83q0 14 -0.5 23.5t-1 17t-1.5 14.5t-4 15q5 14 7.5 26t-0.5 22q1 7 4 11.5t7 9t7.5 9t4.5 11.5h22q11 -9 19 -16.5t21 -9.5z" />
    <glyph glyph-name="two" unicode="2" horiz-adv-x="666" 
d="M703 174q24 -12 24.5 -30t-11 -33.5t-30 -23.5t-33.5 1q-2 -8 -8.5 -10.5t-8.5 -9.5q-97 -15 -198 -37t-202 -33q-78 3 -130 23q-21 18 -31.5 45t-12.5 57t2 58.5t12 49.5q52 66 108.5 126.5t128.5 107.5q21 26 49 44.5t51 41.5q-30 11 -63 11t-65 -5.5t-60 -13.5
t-49 -12q-16 8 -37.5 9t-42.5 8q-12 10 -16.5 26t-5.5 33t-1 32.5t-4 25.5q8 13 14.5 26t15.5 24q47 13 104 21.5t115 7.5t112 -14.5t96 -44.5q5 -28 21 -44.5t39 -25.5q11 -20 19 -40.5t11 -43.5q-20 -53 -56.5 -89.5t-73.5 -66.5q-20 -17 -43 -29t-40 -28q-4 -4 -5 -10.5
t-5 -9.5q-18 -16 -40 -28.5t-40 -28.5q-13 -11 -21.5 -24t-22.5 -23q18 -6 35.5 -5t36 4t38 6t40.5 2q29 10 64 17.5t70 5.5q30 12 57.5 17.5t52.5 2.5q13 -5 19.5 -18t20.5 -18q-3 -11 -1.5 -16t1.5 -18z" />
    <glyph glyph-name="three" unicode="3" horiz-adv-x="575" 
d="M36 680q55 11 109 22.5t108.5 19.5t111.5 11t120 -3q25 -26 44 -56.5t36 -63.5q-2 -7 -2.5 -14t-2.5 -15q-5 -13 -13.5 -23.5t-13.5 -24.5q-25 -14 -47.5 -30t-44.5 -33q-18 -8 -37.5 -14.5t-29.5 -24.5q33 -14 58 -34t44 -45t33 -54t25 -60q-2 -15 -5 -31t0 -27
q-7 -21 -18.5 -33.5t-22.5 -33.5q-35 -15 -57 -42q-10 0 -10 4q-31 -21 -72 -35.5t-88 -22.5t-99 -9t-104 4q-4 3 -7 7t-12 3q-4 10 -10.5 17.5t-10.5 17.5q10 16 13.5 37t8 40.5t12.5 35t27 22.5q8 1 9 -5t6 -8q39 0 78 1.5t74 7t65.5 16.5t52.5 31q-30 24 -70 36.5
t-77.5 24.5t-66.5 30.5t-38 54.5q5 23 7 41t5 33t9.5 28.5t21.5 26.5q-5 3 -14.5 1.5t-20.5 -5t-21.5 -8l-17.5 -7.5q-21 5 -42.5 6.5t-39.5 12.5q-2 11 -5 24.5t-4 27.5t2 28t14 26q-2 7 -3 14t-4 12q11 9 23.5 18t13.5 20z" />
    <glyph glyph-name="four" unicode="4" horiz-adv-x="596" 
d="M551 499q6 -17 12 -30t23 -23q-4 -23 -2 -38t-5 -37q-14 -15 -33.5 -24t-40 -15.5t-41 -13.5t-37.5 -19q-13 -40 -27.5 -79t-25.5 -86q2 -5 7 -7t8 -6q-5 -14 -1 -22.5t11 -15.5t14.5 -14t10.5 -16q-4 -9 -5 -18t-1.5 -18t-3 -18t-9.5 -18q-20 -8 -40.5 -8t-37.5 -5
q-21 5 -35.5 20.5t-23.5 35.5t-14 41t-8 37q6 11 -3 10q-4 14 1 27t2 20q2 25 8 52.5t14 62.5q-13 3 -28.5 5.5t-30 4t-26.5 2.5t-18 1q-15 4 -26 12.5t-20 19t-17.5 21.5t-17.5 21q-3 35 -10 71t-13 70t-9 64t3 54q10 15 20 29t24 24q11 -3 17.5 -10.5t12 -16t12 -16
t17.5 -10.5q4 -19 12.5 -35.5t16 -33.5t13 -35.5t5.5 -41.5q10 -15 21.5 -18.5t24.5 -2.5t26.5 2t27.5 -3q3 5 10 5.5t12 3.5q6 2 6.5 10t8.5 9q-2 17 0.5 33.5t5 31.5t3 29t-4.5 28q10 19 12.5 45.5t6 51.5t13 45.5t33.5 28.5q60 -51 84 -137q-10 -42 -11.5 -78t-0.5 -72
q17 5 35.5 8t32.5 5z" />
    <glyph glyph-name="five" unicode="5" horiz-adv-x="594" 
d="M631 672q6 -8 12 -20t1 -22q18 -18 28.5 -44t-2.5 -57q-23 -8 -40.5 -12.5t-37.5 -10.5q-38 -2 -47.5 -3t-14.5 -2t-15.5 -3.5t-45.5 -7.5q0 4 -0.5 5t-2 0l-3 -2t-4.5 0q-20 -7 -40 -10.5t-40 -6.5t-40 -7.5t-41 -14.5q2 -5 6 -7.5t8.5 -5t8.5 -5.5t6 -8
q28 -7 46.5 -22.5t33.5 -35t29 -39.5t33 -36q0 -6 3 -9t1 -11q18 -23 28 -55t4 -74q-13 -32 -31 -54.5t-47 -46.5q-23 -10 -45 -15.5t-39 -16.5q-8 5 -14.5 4.5t-11.5 1.5q-23 -10 -49 -13.5t-55 10.5q-21 -1 -42.5 1.5t-39.5 9.5t-30.5 19.5t-16.5 31.5q-23 19 -30 47.5
t7 55.5q6 2 9.5 3.5t9.5 6.5q53 -5 108.5 -8.5t118.5 8.5q2 8 7.5 11.5t12.5 6.5t13 6t9 9q0 6 -3 8.5l-6 5t-5.5 5.5t-1.5 10q-13 0 -30.5 9t-27.5 20q-44 8 -87.5 30t-84.5 41q-7 12 -15.5 22.5t-16.5 22t-13.5 23.5t-6.5 26q1 16 2 30.5l2 29t3 30t6 33.5
q43 59 107.5 99.5t132.5 66.5q11 -11 22 -23.5t23 -23.5t25.5 -19t30.5 -9q11 3 17 4t11 1h13t23 2t29 2t26 1q25 2 36.5 4t15.5 3t4 1.5t3.5 0t13.5 -2.5t34 -5z" />
    <glyph glyph-name="six" unicode="6" horiz-adv-x="513" 
d="M449 304q10 -6 16 -15t13 -17q0 -19 3.5 -44t-0.5 -49q-20 -32 -44 -60t-59 -46q-5 -1 -3 -7.5t-3 -8.5q-8 0 -12 -4.5t-11 1.5q-11 -7 -23 -12.5t-21 -13.5q-9 1 -16 -1t-14 -4.5t-14 -4.5t-14 0q-32 -16 -71 -26t-83 -3q-30 5 -52 22t-35 42.5t-16 58t6 67.5
q-2 3 -2.5 8t-0.5 10v10t-3 7q6 10 10.5 20.5t-0.5 24.5q5 1 7 5.5t3.5 10.5t3 11t5.5 8q2 27 10 51t18.5 46.5t22.5 44.5t23 45q-4 8 -2.5 10.5t2.5 11.5q15 25 30 53.5t32 57t36 55t43 46.5q16 3 31 10t30 12t30.5 6.5t33.5 -6.5q2 -9 1.5 -13t1.5 -9q16 -8 18.5 -26
t4.5 -35q12 -6 17 -18t8 -27q-12 -12 -22.5 -23t-21.5 -19q-4 -2 -11 -1.5t-9 1.5q-30 -13 -52.5 -34.5t-39 -48.5t-28 -57t-18.5 -59q-29 -43 -47 -89t-30 -103q1 -8 8.5 -7t14.5 0q12 21 15.5 40t3.5 44q11 19 24 36t24 37q16 12 30 21t28 15.5t30.5 12t39.5 9.5
q24 -2 41.5 -10t29.5 -19.5t19 -25t10 -25.5z" />
    <glyph glyph-name="seven" unicode="7" horiz-adv-x="590" 
d="M641 374q1 -5 -4 -8.5t-9.5 -6.5t-7 -6.5t3.5 -7.5q7 2 9 -1.5t7 -1.5q-1 -2 -3.5 -7.5t3.5 -5.5q-3 -10 -10 -16.5t-14.5 -12t-15.5 -11t-13 -13.5q-35 -5 -50.5 -7.5t-28 -5t-28.5 -5t-50 -8.5q-5 -6 -10.5 -10t-11 -9.5t-9 -12.5t-3.5 -17q-12 -8 -20.5 -20t-16 -25
t-15.5 -26t-18 -24q1 -5 4 -7.5t2 -8.5q-12 -6 -17.5 -20.5t-10.5 -29.5t-14 -27.5t-29 -13.5q-13 4 -22 5.5t-17.5 1.5t-17.5 -0.5t-21 -0.5q0 8 -2.5 17t6.5 13q-5 13 -19 16q1 43 15.5 86t32.5 76q-20 -3 -31 -4.5t-20.5 -2.5t-20 -0.5t-28.5 0.5q0 12 -10 14t-16 9
q-2 11 -10.5 18t-16.5 12q0 11 10 10q-2 10 -5.5 20t9.5 17q-1 4 -5.5 4.5t-0.5 8.5q13 32 37 43.5t53 15t60 5t59 15.5q18 -4 32 -1t30 7q2 19 11 37t14 37q1 10 -4 15t-2 18q-19 18 -40 25t-44 10t-48 4t-50 7q-26 1 -45.5 -1.5t-36.5 -5.5t-33.5 -4t-37.5 3q3 6 2.5 10.5
t-3 8.5t-7 9.5t-8.5 13.5q3 15 7.5 42t1.5 50q7 1 9 3t2.5 5t1 6.5t4.5 7.5q10 0 17.5 9t18.5 14q21 1 29.5 2t14 2.5t12 3.5t23.5 5q4 1 5.5 -0.5t2.5 -3t2.5 -3t5.5 -0.5q19 2 32 2.5t24.5 0t22 -3t25.5 -6.5q6 0 12.5 0.5t12 0.5t9 -2t5.5 -9q19 2 33.5 0t28 -6.5t28 -11
t34.5 -12.5q14 -26 28.5 -50t40.5 -38q1 -5 -1 -6.5t-2 -6.5q-8 -5 -6 -6t5 -1t6 -0.5t4 -2.5q0 -4 -2.5 -5.5t-3.5 -4.5q6 -10 6.5 -27t-2 -37.5t-5 -42.5t-0.5 -41q26 -5 35.5 -6.5t16 -1.5t18 0.5t41.5 -0.5q1 -15 10.5 -21.5t17.5 -14.5z" />
    <glyph glyph-name="eight" unicode="8" horiz-adv-x="550" 
d="M524 733q22 -16 35.5 -38.5t21.5 -48t12.5 -53t7.5 -52.5q-10 -35 -34 -67t-57 -51q-30 -23 -53.5 -41.5t-55.5 -24.5q-8 -8 -15.5 -14.5t-13.5 -16.5q17 -46 35 -91t24 -99q-12 -7 -13 -21t-1 -30q-12 -14 -18 -29.5t-19 -26.5q-3 -2 -6.5 -0.5t-6.5 -0.5
q-13 -7 -26.5 -18t-27.5 -15q-26 -7 -52.5 -6t-51 8t-45.5 19.5t-37 29.5q-11 20 -18 41.5t-23 37.5q-5 32 -5.5 76t13.5 87q5 14 13 25t7 25q5 1 7.5 4t7.5 5q3 8 -0.5 11t-1.5 10q-15 21 -29.5 43.5t-24.5 46.5t-12 51t9 58q0 15 6.5 34t17.5 37t25 32.5t31 21.5
q0 7 3.5 8.5t3.5 8.5q13 4 24 10t22.5 11.5t25 10t31.5 5.5q32 2 65.5 -4t56.5 -20q10 -26 24.5 -46t21.5 -37q2 -15 4 -26.5t2 -22.5t-3 -22.5t-11 -26.5q20 5 33.5 16t20.5 32q0 17 -9 29t-14 27q6 3 8 7.5t1 9.5t-2.5 10t-1.5 10q6 2 8 0t5 1q-2 8 -2.5 8.5t-1.5 6.5
q4 5 10 10t11 -1q-6 10 -0.5 19t14.5 14q5 -2 10.5 -4t13.5 -3zM287 163q0 7 3 10.5t5 8.5q-12 25 -23.5 42.5t-37.5 33.5q-14 -9 -21 -22t-8 -26.5t4.5 -26.5t16.5 -23q10 3 28 -0.5t33 3.5zM262 453q15 8 31 14l32 12t31 13.5t26 19.5q-38 0 -62.5 13t-23.5 46
q-14 7 -30 6.5t-29 -7t-19 -18t-1 -25.5q-2 -5 -7 -5.5t-5 -7.5q15 -14 26.5 -31t30.5 -30z" />
    <glyph glyph-name="nine" unicode="9" horiz-adv-x="542" 
d="M509 594q-2 -9 0 -17.5t4 -16t4 -16t1 -17.5q4 -10 10.5 -18t12 -15.5t9 -16.5t2.5 -22q-9 -11 -14 -20.5t-12 -17t-16 -13.5t-16 -13q-8 -23 -15.5 -37.5t-15.5 -37.5q-2 -26 -6 -47.5t-9 -42t-10 -41.5t-9 -45q-1 -42 -13.5 -79.5t-35.5 -71.5q-18 2 -32.5 -0.5
t-32.5 -5.5q-8 8 -14 15.5t-14 13.5q1 50 5.5 90.5t12 79.5t17.5 80.5t21 93.5q-14 1 -32.5 -1.5t-39 -6t-41 -8t-38.5 -7.5q-11 1 -22.5 1t-21.5 1t-18.5 4.5t-14.5 11.5q-16 -4 -27 1.5t-19 15t-13.5 21.5t-11.5 22q-5 33 -2.5 59t10 48t19 42.5t23.5 42.5q26 26 57.5 53
t68.5 48t79 33t90 8q40 -29 67 -69t53 -82zM377 542q1 19 -10 26.5t-27 10.5q-25 -10 -48.5 -19.5t-40.5 -26.5q-3 -3 -7.5 -4t-8.5 -2.5t-6 -5.5t0 -11q42 -2 77 9t71 23z" />
    <glyph glyph-name="colon" unicode=":" horiz-adv-x="247" 
d="M146 119q2 -8 3 -15t3 -15q-4 -10 -7 -19.5t-6 -18.5q-3 -7 -4 -9t-1 -3t0.5 -2.5t0.5 -8.5l-4 -12q-5 -7 -12 -11t-14 -7q-2 -2 -6 -3.5t-6 -3.5l-3 -12l-13 -2q-17 -4 -29 -4h-12q-12 11 -19 17t-15 11q-10 14 -11 20.5t-3 12.5q-2 13 -5 17l-14 14l12 9l-11 19
q12 9 18 13t10 8.5t9 11.5t16 23l9 13l13 -7q4 -3 17.5 -5.5t23.5 -4.5q17 -5 32 -7.5t24 -10.5zM201 399q-2 -15 -3.5 -22t-1.5 -13.5t1.5 -15.5t5.5 -28l3 -16l-15 -3q-5 -2 -16.5 -10t-20.5 -13q-14 -8 -27 -17.5t-26 -10.5q-16 8 -22 12t-12 9q-5 10 -9 19t-9 18
q-3 7 -4 9t-1.5 2.5t-2 1.5t-6.5 6l-6 12q-1 15 6 31q2 8 4 14l-7 11l8 11q7 10 10 14.5t8 9.5l9 8q16 1 25.5 1.5t19.5 3.5q17 -4 22.5 -7.5t10.5 -7.5q11 -8 16 -8h20l-2 -16z" />
    <glyph glyph-name="semicolon" unicode=";" horiz-adv-x="251" 
d="M40 149q6 -5 20.5 -11.5t30 -13t30 -11.5t20.5 -6q11 -20 12 -35.5t5 -32.5q-5 -5 -6.5 -16.5t-2.5 -16.5q-1 -8 -3.5 -9.5t-4.5 -8.5q-1 -2 0.5 -6t1.5 -6q-2 -5 -5.5 -5.5t-5.5 -5.5q-4 -11 -5 -13.5t-2 -3t-2.5 -2t-5.5 -11.5q-7 -15 -17.5 -29.5t-12.5 -28.5
q-7 -6 -16 -14t-18.5 -16.5t-19.5 -15.5t-19 -10q-9 4 -28.5 13t-37 20t-26.5 24t2 24q18 19 31.5 45.5t23.5 57t17.5 63t14.5 62.5q4 -4 8 -2.5t8 5t7 8.5t6 8zM205 399q-2 -15 -3.5 -22t-2 -13.5t1 -15.5t5.5 -28l4 -16l-15 -3q-5 -2 -17 -10t-20 -13q-15 -8 -27.5 -17.5
t-26.5 -10.5q-15 8 -21 12t-12 9q-10 17 -18 37q-4 7 -4.5 9t-1.5 2.5t-2.5 1.5t-6.5 6l-5 12q-2 8 0.5 16t4.5 15q4 8 4 14l-6 11l8 11q7 10 10 14.5t8 9.5l9 8q16 1 25 1.5t19 3.5l10 -1q8 -3 13.5 -6.5t10.5 -7.5q11 -8 16 -8h20l-2 -16z" />
    <glyph glyph-name="less" unicode="&#x3c;" horiz-adv-x="640" 
d="M586 478q11 -8 16.5 -11.5t9 -5.5t7 -5t11.5 -9q-5 -11 -5 -17t1 -11.5t2.5 -11.5t0.5 -16q-55 -35 -97.5 -55.5t-82 -35.5t-82 -28.5t-98.5 -35.5q23 -14 59.5 -24.5t73 -24t66.5 -33.5t40 -52q14 -1 24.5 -16t8.5 -35q-10 -6 -18.5 -13.5t-21.5 -11.5q-11 -2 -28.5 2
t-38 11t-43 15t-42.5 13t-43.5 9t-43.5 12q-9 4 -15.5 9.5t-15.5 7.5q-18 3 -38.5 11.5t-41.5 18.5t-41.5 20t-38.5 18q1 6 -13 15t-30 10q0 12 -9.5 21.5t-14.5 21.5q-11 28 8 53t57 30q12 -4 18.5 -3.5t17.5 -4.5q18 12 43.5 23.5t49.5 6.5q3 8 11.5 8t10.5 9q41 7 80 22
t76 32.5t71.5 35t66.5 31.5q14 -4 26 0.5t25 3.5q-3 -3 -1 -4t6 -1.5t8.5 -1t7.5 -3.5z" />
    <glyph glyph-name="equal" unicode="=" horiz-adv-x="601" 
d="M546 410q14 -2 19 -7t5 -12t-3 -15.5t-6 -17.5q-29 -16 -74.5 -22.5t-93.5 -9t-92.5 -2t-71.5 -2.5q-54 -6 -85 -11.5t-44 -10.5q-18 1 -27.5 7t-14 14.5t-6 19t-5.5 22.5q7 8 9 22t-5 21q8 2 14.5 11.5t4.5 14.5q18 4 36.5 5.5t36.5 2.5t34.5 3t30.5 8q49 2 103 3.5
t101 3.5q15 -5 37.5 -5.5t43.5 -3t36.5 -10.5t16.5 -29zM488 217q18 -4 21 -12t-2 -17.5t-15.5 -19.5t-19.5 -18q-9 2 -19 -3.5t-18 -11.5q-28 3 -57.5 0.5t-54.5 -4.5q-5 0 -5.5 -4t-3.5 -5q-29 9 -62 7t-69 -8t-73 -12.5t-74 -7.5q-11 8 -16.5 19.5t-7.5 25t-1.5 27.5
t0.5 28q3 11 11 17t16 11q25 1 45 3t38.5 4l37 4t40.5 3q13 3 45 6q27 2 76.5 4t133.5 2q-1 -9 5.5 -13t13.5 -6.5t12.5 -6t2.5 -12.5z" />
    <glyph glyph-name="greater" unicode="&#x3e;" horiz-adv-x="650" 
d="M561 316q0 -12 9.5 -21.5t14.5 -21.5q6 -14 3.5 -28t-11.5 -25t-23.5 -19t-33.5 -11q-12 5 -18.5 4t-17.5 4q-18 -12 -43.5 -23.5t-49.5 -6.5q-3 -8 -11.5 -8t-10.5 -9q-41 -7 -80 -22t-76 -32.5t-71.5 -35.5t-66.5 -31q-14 4 -26 -0.5t-25 -3.5q3 3 1 4t-6 1.5t-8.5 1
t-7.5 3.5q-11 7 -16.5 11t-9 6t-7.5 5t-11 9q4 10 4.5 16.5t-0.5 12t-2.5 11.5t-0.5 16q55 35 97 55.5t82 35.5t82.5 28.5t98.5 35.5q-23 13 -59.5 24t-73 24.5t-66.5 33.5t-40 52q-14 1 -24.5 16t-8.5 35q10 6 18.5 13.5t21.5 11.5q11 2 28.5 -2t38 -11t43 -15t42.5 -13
t43.5 -9t43.5 -12q9 -4 15.5 -9.5t15.5 -7.5q18 -3 38.5 -11.5t41.5 -18.5t41.5 -20.5t38.5 -17.5q-1 -6 13 -15t30 -10z" />
    <glyph glyph-name="question" unicode="?" horiz-adv-x="570" 
d="M604 689q7 -8 12 -16.5t15 -12.5q-5 -25 -3 -47.5t3 -48.5q-14 -76 -62 -121.5t-111 -62.5q0 -10 -6 -14q-20 -3 -30 -10t-18.5 -15t-20 -15.5t-35.5 -11.5q-5 -11 -13.5 -14t-17 -4.5t-16.5 -5t-12 -16.5l-57 -53q-24 6 -42 5.5t-30 1.5t-18.5 12t-8.5 38q1 10 7.5 13.5
t8.5 11.5q0 22 6.5 32.5t16.5 17.5t21 15.5t19 26.5q16 7 35.5 22.5t35.5 30.5q25 13 42.5 23t32.5 20t30 22t36 30q-5 13 -18.5 14.5t-30.5 -0.5q-29 9 -56.5 11.5t-64.5 4.5q-14 -1 -20.5 -2.5t-19.5 0.5q-6 -5 -13.5 -8t-16 -5.5l-17 -5t-15.5 -6.5q-20 5 -32 19t-29 22
q-2 7 3 9t3 12q-10 5 -9.5 8t-6.5 8q4 16 11.5 27.5t16.5 22t18 20.5t16 23q16 4 27.5 12.5t22.5 18.5q54 6 105 3.5t101.5 -10.5t101 -22t103.5 -30zM220 114q-2 -15 -3.5 -22t-1.5 -13t1.5 -15t5.5 -28l3 -16l-14 -3q-5 -1 -16.5 -9t-20.5 -13q-14 -8 -26.5 -17.5
t-25.5 -9.5q-15 8 -21 12l-12 8q-5 9 -9 18t-9 18q-3 7 -4 9l-1.5 3t-2 1.5t-6.5 5.5l-6 12q-1 8 1.5 15.5t4.5 14.5l2.5 7.5t1.5 6.5l-6 10l8 11q6 11 9 15t8 9l9 7q27 1 44 5q17 -3 22 -6.5t10 -7.5q11 -8 16 -8h20l-2 -15z" />
    <glyph glyph-name="at" unicode="@" horiz-adv-x="750" 
d="M725 452q6 -38 3.5 -76t-11.5 -81q-8 -16 -27 -36.5t-41 -39.5t-43 -32.5t-31 -14.5q-18 -3 -35 -1t-32 7q-3 -2 -6.5 -4.5t-6.5 -5.5q-10 -2 -26 -3.5t-27 -7.5q-35 -5 -71.5 -4.5t-68.5 4.5q-8 5 -15 8.5t-18 4.5q-17 7 -29.5 20t-21 28t-13.5 32t-6 32q5 25 20 44.5
t31 38.5q10 11 20 17t16 15q13 4 22.5 11t18.5 13.5t18.5 13t22.5 11.5q8 10 24 16.5t23 18.5q5 -4 10 -1.5t10 4.5q7 2 11 -2.5t6 1.5q4 -5 6.5 -5.5t5.5 -1.5q5 5 8.5 9t5.5 9l12 11l19 13l10 1l17 -16q2 -2 5 -7t4 -13q0 -7 0.5 -9.5t2.5 -8.5v-12q-1 -5 -1 -8v-11
q0 -2 -0.5 -4.5t-0.5 -5.5q-13 -39 -19.5 -69.5t-3.5 -44.5q1 -7 2.5 -16t5.5 -16.5t10 -13t16 -5.5q8 1 17 6q8 5 18 13.5t21 25.5l-6 16q6 10 8 20t2 20.5t-0.5 22.5t2.5 26q-9 23 -22 52t-29 57t-34.5 50.5t-39.5 31.5q-5 2 -7.5 0.5l-5 -3t-5.5 -2t-9 2.5
q-60 -45 -120.5 -88.5t-110.5 -100.5q-48 -43 -86 -102.5t-58 -135.5q3 -2 11 -6q12 -5 23 -7t22 -6l36 -20q4 -8 4 -10q23 -8 43 -11t39 -11q50 -2 88 -3.5t76 -2.5q34 0 61.5 4t53.5 8q2 7 1.5 9.5t3.5 7.5q9 -6 18.5 -18t18.5 -25t18 -25t18 -18q-4 -7 -3 -12t-2 -12
q-24 -20 -55.5 -27t-67.5 -7.5t-75 2t-76 -0.5q-20 5 -32 6t-29 4q-31 1 -45 6q-9 2 -18 2t-17 2q-25 7 -44 20q-21 7 -43 20t-42.5 28.5t-38 33t-29.5 32.5q0 16 -2.5 27.5t-5 22t-3.5 21.5t3 26q-3 9 -6 17.5t-6 16.5q2 43 18 77t38.5 62.5t49.5 52.5t52 47q5 -5 7.5 -1.5
t12.5 1.5q0 6 5 14t12.5 15.5t16.5 12.5t17 3q10 19 30.5 32t41.5 26.5t38 29t21 39.5h19q-12 18 -11 36t12.5 30t31.5 15t46 -9q6 -1 9.5 0.5t6.5 3.5t5.5 4t6.5 3q46 -19 82 -46.5t64 -62.5q-1 -2 -3.5 -3.5t-4.5 -3t-2.5 -3.5t3.5 -5q33 -40 60 -86t50 -97zM349 272
q19 -2 38.5 -0.5t39.5 3.5q-13 24 -10 55q1 4 1.5 7t0.5 6q1 4 2 8.5t2 10.5q-9 -5 -17.5 -10t-13.5 -12q-18 -8 -28 -19t-21 -22q1 -5 -0.5 -7.5t-3.5 -5.5q2 -5 4.5 -8t5.5 -6z" />
    <glyph glyph-name="A" unicode="A" horiz-adv-x="719" 
d="M-26 95l13 10l1 21q25 61 51.5 117t55.5 115q9 19 18.5 38t18.5 39q-1 4 -1 8.5t2 10.5q14 20 22.5 36t16.5 33q9 20 19.5 40t26.5 39l7 10l11 -1q4 2 8.5 3.5t11.5 1.5l18 -3q33 15 58.5 43.5t51.5 68.5l12 17l16 -10q5 -3 16 -6t23 -7q21 -5 41 -11.5t31 -17.5l5 -9
q2 -11 3.5 -20t3.5 -18q4 -21 7 -41.5t4 -45.5q5 -20 9.5 -40.5t8.5 -40.5q5 -29 11 -55.5t16 -50.5q10 0 12 -1q12 5 28 6l13 1l4 -12q2 -3 5 -6t7 -6q16 -1 23.5 -6.5t12.5 -10.5q2 -2 5 -4.5t5 -3.5l18 -7l-10 -19q-11 -21 -33.5 -41t-50.5 -33q2 -7 2.5 -13t2.5 -14
q4 -20 6.5 -41.5t-0.5 -44.5q-10 -26 -23.5 -46.5t-32 -37t-41.5 -27t-48 -11.5q-14 3 -20.5 7t-11.5 8q-8 6 -13 8l-13 6l4 15q3 8 -0.5 14t-14.5 16q-4 3 -7 6.5t-7 7.5l-20 23l33 9q30 8 40 20.5t8 44.5q-25 5 -41 1.5t-32 -7.5q-23 -6 -45 -10.5t-48 -4.5q-17 0 -36 3
l-11 1l-3 11q0 2 -2.5 4.5l-4.5 4.5q-5 6 -12 16t-3 25q-7 11 -8 23q-4 -8 -6.5 -15.5t-4.5 -14.5l-4 -13l-13 -2q-2 -2 -3.5 -6t-0.5 -6l4 -11l-10 -9q-2 -3 -5 -5t-5 -4q-2 -11 -5.5 -21t-7.5 -20q-5 -16 -9.5 -31t-4.5 -30l-4 -13q-5 -8 -12.5 -12t-14.5 -7
q-10 -4 -14 -8l-3 -13l-15 -2q-13 -3 -18.5 -4t-12.5 -1l-13 1q-12 12 -19.5 18.5t-17.5 11.5l-6 8q-4 8 -5 14.5t-3 13.5q-2 13 -6 18zM293 355q-14 -20 -27 -42q7 1 13.5 1t13.5 1q35 2 65 5t65 10q-8 37 -17.5 75.5t-20.5 77.5l-5 -10q-25 -27 -48 -58t-38 -59z" />
    <glyph glyph-name="B" unicode="B" horiz-adv-x="703" 
d="M83 483q-42 17 -69.5 48t-44.5 73q10 27 32 45.5t49.5 31.5t58.5 21t60 14q6 -2 6 0t5 -2q36 11 83 21.5t100 7.5q7 4 17 4.5t21 0.5t21 0.5t17 3.5q6 -7 18 -8.5t25 -10.5q4 -1 0 3.5t1 6.5q13 0 23 -6t18.5 -13.5t16 -13.5t16.5 -6q9 -11 21.5 -20.5t24 -19.5t19 -22
t7.5 -27q-1 -6 4 -7t7 -6q1 -37 -11.5 -64t-31.5 -49.5t-40.5 -42.5t-39.5 -43q12 -15 27.5 -27.5t31.5 -24.5t30.5 -25.5t24.5 -30.5q3 -6 13 -8q3 -12 8.5 -24.5t10.5 -24t6 -20.5t-5 -15q7 -4 8 -12.5t0 -13.5q-22 -27 -30 -38t-12 -16t-8 -9t-18 -16
q-53 -32 -110.5 -57.5t-119.5 -34.5q-5 -7 -14.5 -11.5t-21.5 -7.5t-25.5 -5t-24.5 -4q-5 2 -5.5 6.5t-5.5 6.5q-1 -12 -10.5 -12.5t-23.5 4.5t-29 14t-26 17q-5 -9 -12.5 -19t-15.5 -14q-14 2 -20.5 3t-12.5 -5q-8 4 -12 8.5l-8 9t-9 8t-15 6.5q2 5 -3 15.5t-14 12.5
q5 8 -4 20.5t-14 28.5q1 7 1.5 14.5t2 14t4.5 11.5t10 7q-1 13 -8 25q9 7 12 17.5t5.5 21.5t6.5 21.5t13 17.5q-2 3 -4 5t-2 7q15 25 21 42.5t9.5 34t7.5 35.5t16 48q-1 18 4 32t10.5 27.5t8.5 28.5t-1 35q-17 -2 -24.5 -12t-9.5 -27q-9 -8 -23 -7.5t-25 -3.5zM523 290
q-38 21 -69.5 25t-60 -0.5t-54.5 -12.5t-52 -12q-13 -34 -27 -75t-27 -80q36 5 66 15t58 22.5t55 25t56 23.5q3 12 13 19t20 13.5t17 14.5t5 22zM453 603q-62 2 -122 -11t-101 -38q20 -17 41.5 -30t32.5 -35q48 19 84 48.5t65 65.5z" />
    <glyph glyph-name="C" unicode="C" horiz-adv-x="626" 
d="M93 87q-29 22 -47.5 55t-29 70t-14 76.5t-2.5 75.5q9 27 22 49.5t29 43t33.5 39t34.5 37.5q6 0 11 -3q4 11 12 19t17 14.5l18 13t15 15.5q25 6 44.5 17t37.5 24t37 24t44 17q9 10 22.5 17t27 13t26 13t20.5 19q6 -8 17 -5.5t20 5.5q6 1 10 -2t7.5 -6.5t6 -4.5t5.5 6
q8 -1 4.5 -7t-4.5 -8q10 2 16.5 -3.5t20.5 -7.5q5 -5 3 -8t-3 -10q36 -11 46 -34.5t2 -49t-29.5 -47t-47.5 -28.5q-31 -8 -57.5 -16t-51 -18t-46 -23.5t-37.5 -31.5q-28 -8 -50.5 -22t-42 -31t-37.5 -35.5t-36 -36.5q0 -17 -6 -26t-13 -18q2 -19 8.5 -32.5t13.5 -27.5
q80 -24 169.5 -29.5t177.5 -6.5q9 -12 20.5 -22.5t21 -21.5t15 -25.5t2.5 -34.5q-17 -17 -37 -32.5t-40 -30.5q-9 -1 -21.5 0t-26 1t-27 -1.5t-25.5 -6.5q-63 2 -129 15.5t-122 32.5q-11 13 -23 24.5t-32 16.5z" />
    <glyph glyph-name="D" unicode="D" horiz-adv-x="603" 
d="M98 -11q-29 7 -44.5 23.5t-23 39t-10 49.5t-5.5 56q4 13 10.5 22t5.5 25q11 32 20 62t12 62q6 9 12 12q8 57 2 117t-20 111q1 11 3 16.5t0 9.5q-2 9 6 9h16q0 18 -6.5 35.5t-12.5 40.5q8 18 11 35t11 31q32 -10 63 -23t61 -25.5t59 -24t57 -18.5q43 -31 88.5 -61.5
t83 -67t62.5 -83.5t29 -111q-2 -6 -3 -10l-2 -8t-1 -9v-14q-36 -63 -91 -106t-120 -76t-135.5 -60.5t-137.5 -58.5zM196 556q-9 0 -13 -4q12 -45 18 -85t6.5 -80t-4.5 -82t-14 -91q13 1 23 5t20.5 9t22 9t26.5 5q4 8 10.5 12.5t11.5 9.5q25 10 50 21t46 25t38 32t28 43
q-8 15 -19.5 25.5t-24 21t-24 22t-18.5 26.5q-16 2 -28 8.5t-23 13t-23.5 12.5t-29.5 7q-26 14 -47 19.5t-32 15.5z" />
    <glyph glyph-name="E" unicode="E" horiz-adv-x="642" 
d="M56 34q-8 8 -11.5 19t-16.5 18q-2 15 -5.5 34.5t-7 40t-5 41t1.5 37.5q2 9 6.5 17t9 15.5t7 15.5t0.5 16q6 1 7.5 6.5t9.5 3.5q7 22 15 41t17 37t18.5 36.5t17.5 41.5q-17 16 -24.5 34.5t-11.5 37.5t-6 38.5t-8 39.5q12 18 29 29.5t37.5 19t44.5 12t51 10.5
q48 15 86 23.5t74 14t75 10t90 13.5q1 -3 3.5 -3h6.5q3 -7 11 -7q0 3 -0.5 5.5t-0.5 4.5q2 0 5.5 -1t6 -2t4.5 0.5t1 6.5q12 -21 31 -34.5t42 -23.5q1 -9 0.5 -13t-1.5 -7.5t-1 -8t2 -12.5q-16 -27 -36.5 -42t-43.5 -23t-48.5 -12t-52 -8.5t-53.5 -12.5t-53 -24
q-8 3 -14.5 2.5t-13.5 -2.5t-15.5 -4t-20.5 0q-8 -7 -18.5 -10t-21.5 -6q5 -11 4.5 -22t2.5 -19q42 -4 93 0.5t100 6.5q1 -5 -1 -7t-2 -7q9 -6 17 -15t16.5 -17.5t17.5 -14t21 -4.5q5 -10 7 -21t-3 -23q-20 -13 -39 -26.5t-39.5 -24.5t-44.5 -18t-52 -6h-8.5t-8.5 4
q-10 -5 -26.5 -3.5t-27.5 -3.5q-14 5 -32.5 5t-32.5 5q-18 -26 -34 -54.5t-28 -60.5q41 -6 68 -5t51 4t49.5 6t62.5 2q25 12 57.5 16.5t60.5 13.5q10 -3 17 -11.5t13.5 -17t13.5 -14.5t18 -4q5 -5 6.5 -12t3 -13t4.5 -9.5t11 -2.5q-19 -39 -42.5 -60t-53 -32.5t-66 -17
t-81.5 -13.5q-11 -2 -18.5 0.5t-15.5 2.5q-28 -5 -66.5 -10t-77.5 -4t-75 10t-60 32z" />
    <glyph glyph-name="F" unicode="F" horiz-adv-x="589" 
d="M44 203q-30 17 -46 48t-18 59q3 24 12.5 37.5t22.5 22t27 13t27 7.5l15 -5q5 -5 10.5 -9t10.5 -8q10 4 12.5 12t5.5 16q3 11 7 22t10 22q-1 9 1 16t4 12q-6 5 -8.5 5.5t-8.5 2.5q-3 0 -6 0.5t-7 1.5q-15 11 -19.5 18.5t-9.5 15.5t-9 14t-9 11l-12 8l6 12q2 2 2 5.5
t-4 10.5q-3 13 -1 19l2 12q10 13 11 15l10 10q23 6 47 13.5t47 15.5t47 16t48 14q8 7 17.5 8.5t17.5 2.5q7 0 13 1t9 5q17 6 33 10q30 8 79 19t110 16l21 1q6 -1 12 -0.5t12 0.5q52 0 69 -32q10 -5 18 -12.5t15 -14.5q5 -5 9 -8.5t7 -5.5l8 -8q11 -24 4 -47q-6 -12 -13 -14
l-14 -4l-13 -7q-13 1 -19.5 1h-14.5q-30 0 -69.5 -3.5t-80.5 -10t-80 -16t-68 -20.5q-8 -6 -21 -11q-3 -1 -9 -5q1 -8 0 -15.5t-3 -14.5q-1 -5 -1.5 -10.5t-1.5 -11.5q-21 -25 -20 -59l-5 -10q-4 -4 -6.5 -11.5t-0.5 -15.5l4 -12q20 2 39.5 4.5t41.5 5.5q28 5 56.5 8.5
t59.5 3.5h39l-9 -9l11 -1l-6 -16l10.5 -4.5t6.5 -3.5l7 -10q5 -3 9 -9.5t5 -17.5l-3 -10l-47 -60l-6 -8l-10 3q-19 1 -36 -4q-8 -2 -17 -4.5t-18 -2.5q-24 -4 -40 -6.5t-32 -4.5q-22 -4 -42.5 -7.5t-38.5 -10.5q-11 -1 -13 -0.5t-4 0.5q-10 0 -20 -3t-19 -6q-6 -5 -8 -10.5
t-4 -11.5q-2 -7 -5.5 -13.5t-8.5 -13.5l1 -18q-9 -2 -9 -2.5t-1 -0.5q0 -8 -2.5 -15t-4.5 -13q-2 -4 -3 -7t-1 -6q10 -18 5 -41q-4 -19 -15 -33.5t-26 -22.5q-16 -2 -23.5 1t-15.5 6q-5 2 -10 3.5t-10 2.5l-12 10q-3 6 -7 11.5t-8 11.5l-10 14t-9 16q-7 35 -2.5 58.5
t12.5 46.5q2 8 4 15t4 15z" />
    <glyph glyph-name="G" unicode="G" horiz-adv-x="808" 
d="M0 237q0 11 3 20t1 23q31 66 70.5 122.5t94.5 99.5q9 7 14.5 14.5t11 14.5t12.5 12.5t18 7.5q25 29 60 53t73 46t76.5 45t69.5 50q11 -7 17.5 -4.5t13.5 0.5q9 -19 23.5 -26.5t30 -15t29 -18t20.5 -28.5q-7 0 -6.5 -5t2.5 -11t2 -11t-9 -5q0 -7 7 -7t7 -7q0 -6 -2.5 -9.5
t-0.5 -11.5q-24 -16 -53.5 -30.5t-62 -30.5t-66 -34.5t-66.5 -42.5t-66.5 -53t-64.5 -61.5t-58 -67t-46 -67.5q2 -5 5.5 -9t5.5 -9q38 -2 71 0.5t66 -4.5q4 3 5 8t6 7q68 7 127 22.5t120 31.5q-18 7 -32 11q-6 6 0.5 10.5t10.5 9.5q-16 9 -26.5 24t-12.5 39q7 6 7 14t-7 13
q-5 2 -6 0t-1.5 -4t-2 -4t-5.5 0q1 11 5 18t6 17l83 55q13 -10 32 -21t40 -22t43 -22.5t41 -22.5q18 -8 31 -19.5t25 -24t24 -24.5t29 -20q-2 -16 2 -26t2 -24q-19 -34 -46 -57.5t-60.5 -40.5t-71.5 -28.5t-78 -22t-80.5 -22t-79.5 -26.5q-17 0 -29 -1t-23 -3l-22 -4t-24 -3
q-5 1 -6.5 -2t-4.5 -5q-20 -3 -36 -3h-27q-14 0 -29 -4t-28 -3q-90 4 -141 64t-56 165q1 5 -2 6.5t-5 3.5z" />
    <glyph glyph-name="H" unicode="H" horiz-adv-x="712" 
d="M15 34q-3 -1 -4 2t-0.5 6t3 5t6.5 0q-13 16 -16.5 29t-13.5 32q3 3 4 8.5t2.5 10.5t4 7.5t6.5 -1.5q-2 11 0 18t4.5 13t3.5 12t-3 14q19 26 25 56.5t7 55.5q9 9 15.5 24t9.5 31t3 31.5t-4 24.5q1 4 4.5 4.5t8.5 -0.5q7 40 9.5 89t10 94.5t24.5 80t54 44.5q7 -25 18.5 -44
t25 -37t27.5 -36t26 -40q-1 -23 -4.5 -53t-9 -61t-11 -60t-10.5 -49q1 -5 7 -6.5t2 -11.5q29 7 60.5 13.5t62 13t60 15.5t55.5 22q6 48 15 95t2 95q6 5 10 12t12 9q-6 23 -5 48.5t8.5 47.5t22.5 38.5t37 21.5q13 -19 23 -41t20 -44.5t21.5 -42.5t29.5 -34q3 -35 5 -71.5
t3 -75.5q-9 -45 -20.5 -87.5t-16.5 -90.5q-8 -9 -13 -21.5t-9.5 -25t-10.5 -24.5t-15 -20q4 -14 1.5 -26.5t6.5 -29.5q2 -31 -7.5 -51.5t-26 -35t-38 -23t-42.5 -15.5q-10 6 -18.5 12.5t-20.5 9.5l5 9q-20 20 -34.5 42.5t-13.5 51.5q0 1 2 13.5t4.5 26.5t5 26.5t2.5 13.5
q-28 -3 -58 -13t-58.5 -22.5t-53 -26t-39.5 -22.5q0 -3 -5 -17t-12 -29.5t-15.5 -27.5t-17.5 -11q2 -5 4 -7.5t0 -9.5q-17 -5 -30.5 -13t-27.5 -13.5t-30.5 -5t-39.5 12.5q0 7 -6 12.5t-12.5 9.5t-11.5 7t-5 6z" />
    <glyph glyph-name="I" unicode="I" horiz-adv-x="528" 
d="M17 -12q-14 9 -22.5 23t-14 30t-9 33.5t-7.5 33.5q0 14 6 20.5t13 12.5q24 1 43 4t37 6t36 5.5t39 2.5q15 31 28 59.5t25 54.5q6 25 15.5 46.5t18.5 41t16 39t9 41.5q12 35 21.5 64.5t14.5 70.5q-38 -6 -61 -11.5t-33 -10.5q-20 1 -31.5 8t-18.5 17t-12 23t-12 27
q4 9 2 26.5t-12 25.5q8 2 12 13.5t1 17.5q17 5 36 6.5t37.5 3t35.5 4t29 10.5q52 2 108.5 4t104.5 5q18 -6 41.5 -6t47 -3t42 -13t25.5 -35q15 -2 22.5 -8t9.5 -14.5t1.5 -19t-0.5 -20.5q-16 -12 -40.5 -19.5t-53.5 -12t-60.5 -6t-61.5 -2.5q-5 -33 -17.5 -77.5t-25.5 -87
t-22.5 -76t-8.5 -43.5q-10 -23 -16.5 -39t-12 -30t-11 -27.5t-13.5 -30.5h68q2 -11 9 -15t15 -7t14.5 -7.5t6.5 -14.5q19 -5 24 -15t2.5 -21.5t-10 -23.5t-14.5 -21q-9 2 -17 -4.5t-15 -14.5q-29 4 -57 1t-52 -5q-5 -1 -4 -5.5t-2 -6.5q-31 10 -63.5 8t-66 -9.5t-68.5 -16
t-71 -9.5z" />
    <glyph glyph-name="J" unicode="J" horiz-adv-x="685" 
d="M326 18q-15 -2 -28.5 -5t-27.5 -7q-6 -2 -12 -3t-13 -3q-18 4 -34.5 6t-29.5 2l-15 4q-12 4 -18 6.5t-11.5 4t-13 2.5t-21.5 3q-17 -7 -33 -7q-11 0 -23 3.5t-24 14t-23 29t-19 47.5q3 23 7 40t8 27l8 9q18 7 41 7q22 0 43 -7t42 -15q9 -4 13 -6l6 -3t5.5 -1h12.5
q5 0 9.5 0.5t9.5 1.5l12 -1q7 -4 17 -4q7 0 14.5 2t15.5 4q8 3 14 4t11 3l10 9q10 4 15.5 9t9.5 11.5t7.5 13.5t9.5 15q5 6 9.5 12t9.5 11v10q16 37 28 75t21 76t15.5 74t11.5 65q-3 0 -6 0.5t-5 0.5q-30 0 -49 -1t-35 -3t-33.5 -5.5t-44.5 -8.5l-17 -3q-19 -9 -36.5 -16.5
t-36.5 -7.5q-30 0 -52 24q-23 14 -26 40q-5 9 -4 17q-4 14 -4.5 25.5t-0.5 21.5l1 17h15q6 6 8.5 9t3.5 7l3 10l10 1q21 3 43 7t45 9q23 4 39.5 7t31.5 4.5t31 2t37 0.5q8 0 14.5 -0.5t13.5 -0.5q4 5 8 6t6 1q7 -1 10.5 -2t5.5 -2q34 6 62.5 7.5t51.5 1.5h22t21 -1h38h27
q5 1 9.5 1h9.5h15.5t9.5 -0.5l8 -1t11 -1.5q17 -3 31 -5t28 -2l19 1l3 -12l9 -13q3 -6 8 -11t11 -10q12 -11 23.5 -27.5t8.5 -47.5l-9 -12q-4 -2 -7.5 -5t-7.5 -7l-10 -9q-13 -1 -22 -1.5t-20 -0.5q-18 0 -36.5 1t-38.5 2q-11 1 -17 1h-11t-11.5 -0.5t-16.5 -0.5h-14.5
t-12.5 -1q-2 -32 -7.5 -55.5t-13.5 -49.5q-19 -98 -46.5 -185t-61.5 -157q-32 -34 -61 -60.5t-65 -37.5h-3z" />
    <glyph glyph-name="K" unicode="K" horiz-adv-x="795" 
d="M20 183l1.5 6t-3.5 5q-2 7 3 9l10 4q5 60 20.5 109.5t34 96.5t37 94.5t30.5 103.5q13 13 21.5 31t17 36.5t20 35.5t31.5 28q9 -1 16.5 -3.5t14.5 -5.5t15 -5t17 -2q4 -5 7 -11.5t8 -11.5l18 3q13 -11 23 -27.5t14 -34t-1 -34t-23 -25.5q1 -6 0 -9t-2.5 -5.5t-1.5 -5
t4 -6.5q-11 -9 -20 -22.5t-15 -28.5t-9.5 -30t-4.5 -28q29 30 68 56t68 49q23 16 40.5 30.5t35.5 27t37.5 24t39.5 25.5q10 4 15.5 2t10.5 -5q1 7 -3 8.5t-3 9.5q17 5 30.5 12t28.5 13q10 -11 20 -23.5t27 -13.5q6 -13 14.5 -19.5t17 -12.5t14.5 -14.5t7 -26.5
q-4 -8 -9.5 -17.5t-9.5 -23.5q-24 -22 -48.5 -38.5t-50 -31.5t-52 -31t-53.5 -37q-6 -9 -15 -16t-18.5 -13.5t-18 -13.5t-13.5 -17q-4 0 -7 -0.5t-7 -1.5q-4 -8 -11.5 -13t-10.5 -13q18 -39 47 -59t65 -29t78 -10t87 -1q5 1 4.5 5.5t5.5 3.5q15 -5 25 -12t19 -15t17.5 -16.5
t19.5 -17.5q-2 -47 -27.5 -76.5t-67.5 -47.5q-58 -2 -101 3t-85 22q-3 1 -5.5 6t-4.5 7q-8 5 -18 4t-17 2q-9 4 -29.5 18t-37.5 26q-21 17 -40.5 33.5t-34.5 36.5q-3 5 -8.5 5t-10.5 3q-35 -22 -58.5 -54.5t-45.5 -66t-46.5 -63t-61.5 -45.5q-11 0 -19 3.5t-15 9t-14 10.5
t-16 7q0 14 -5.5 26.5t-11 23t-8 20.5t5.5 20q-11 9 -21 15q7 7 6.5 13t-3.5 12t-4.5 12.5t3.5 14.5q4 1 3.5 4t2.5 5z" />
    <glyph glyph-name="L" unicode="L" horiz-adv-x="648" 
d="M57 37q-4 4 -7 9.5t-5 14.5q-14 17 -22 39t-11 45.5t-1 47.5t7 45q3 10 5 21q5 19 10 37.5t15 30.5q-4 11 1 24t10 24q2 3 3 5.5t2 4.5q12 35 23.5 67.5t22.5 62.5q20 55 38.5 108t33.5 113q8 6 14 8q2 1 5 2t7 1q21 -11 49.5 -20.5t48.5 -9.5l17 -15q13 -15 22.5 -31.5
t5.5 -42.5q-6 -9 -10 -11q-6 -23 -13 -40.5t-14 -33.5q-8 -18 -15 -36t-12 -44q-6 -7 -7.5 -12t-3.5 -10q-2 -6 -5 -12.5t-9 -11.5q-4 -31 -12 -50.5t-16 -38.5q-14 -35 -26 -69.5t-14 -78.5q12 3 22 3q13 0 25 -4q36 18 78.5 22t84.5 5q35 0 65 3q10 -7 13 -7.5t10 -0.5h6
t8 -1q14 -14 27 -19.5t28 -10.5q13 -5 25.5 -10.5t24.5 -14.5l9 -51q8 -11 7 -15q0 -8 -4 -14l2 -13q-19 -4 -25 -8.5t-13 -11.5q-11 -1 -21 -1q-20 0 -41 -6q-30 11 -66 11q-14 0 -28.5 -1t-28.5 -3q-15 -2 -30 -3.5t-30 -1.5q-12 -2 -17 -3t-10 -3q-34 -11 -73.5 -22
t-79.5 -11q-59 0 -95 30q-4 9 -6 12t-4 7z" />
    <glyph glyph-name="M" unicode="M" horiz-adv-x="997" 
d="M90 -14q-10 0 -31 3q-16 17 -28.5 46.5t-19 63t-6 67t11.5 59.5q0 1 9.5 24t24.5 58.5t34 79t38 85.5t36.5 76.5t30.5 53.5q9 14 16.5 27t14.5 24q11 18 20.5 33.5t21 28t25.5 22t34 16.5q12 -5 21 -10.5t16 -13.5l3 -14q2 -7 6.5 -9.5t7.5 -2.5q13 -3 22.5 -6.5
t20.5 -4.5q4 -6 7.5 -12t7.5 -11q20 -29 33 -56t0 -59l1 -11q5 -7 5 -13t-2 -17q-1 -8 -1.5 -17.5t2.5 -20.5l7 -8q16 -8 31 -8q20 0 36 9t30 18q11 8 20.5 13t18.5 7q21 20 38.5 35.5t36.5 31.5q36 29 70 62.5t54 83.5q11 7 25 7t28 -5.5t28 -12.5q3 -2 5.5 -3t5.5 -3
q0 -11 9 -20q5 -4 7 -5l4 -2q8 -5 13.5 -9t8.5 -11q9 -27 30 -42q-2 -11 1 -21.5t7 -20.5q2 -4 3 -7.5t3 -8.5l-22 2l3 -22q3 -17 -2.5 -38t-12.5 -33q2 -30 2 -47.5t-2 -32.5t-6.5 -28.5t-11.5 -28.5q4 -76 -17.5 -139t-46.5 -118q-3 -7 -6 -13t-5 -12q-11 -3 -20 -7
t-17 -9q-11 -7 -22 -11.5t-23 -4.5q-48 35 -49.5 121t36.5 219q7 5 6 15v11l-10 1q-5 0 -9 -1t-6 -9q-32 -23 -69.5 -47.5t-77.5 -45t-81.5 -34t-80.5 -13.5q-100 0 -151 102l-9 18l-10 -16q-3 -5 -10.5 -19.5t-15 -33.5t-13 -39t-3.5 -35q-12 -11 -23.5 -25t-16.5 -32
q-2 -5 -1 -9.5t3 -9.5q-1 -7 -4 -10t-7 -6q-5 -5 -10 -10.5t-9 -12.5q-2 -6 -3 -12.5t-2 -11.5q0 -11 -3 -15q-10 -21 -17.5 -34.5t-14.5 -20.5t-14.5 -9.5t-17.5 -2.5z" />
    <glyph glyph-name="N" unicode="N" horiz-adv-x="701" 
d="M181 94q-10 -8 -12 -20.5t-5 -24.5t-10.5 -20.5t-26.5 -7.5q-4 -5 -1.5 -6t4.5 -9q-14 2 -20 -2t-15 -6q-23 7 -38.5 25.5t-27 40.5t-20 45t-17.5 40q0 4 3.5 3.5t6.5 -0.5q-5 10 -7.5 22.5t-9.5 20.5q29 62 62 129.5t66.5 137t67 140t64.5 138.5q28 -10 54.5 -23.5
t48.5 -31.5t37.5 -41.5t20.5 -53.5q-2 -6 -5 -4t-5 -2q5 -6 5.5 -8.5t-0.5 -5t-1 -6.5t5 -11q-5 1 -7 -1.5t-7 -0.5q5 -14 3 -22t-6 -14.5t-6.5 -14t1.5 -20.5q-4 0 -5.5 -1.5t-2.5 -3.5t-2.5 -3.5t-5.5 -0.5q3 -26 2 -52.5t-2 -54t0 -56.5t8 -60q43 25 69.5 65t42 89
t24 105t17.5 114q11 11 17.5 27t11 33t9 34.5t12.5 31.5q18 -2 30.5 -10.5t23.5 -19t23 -19.5t30 -12q14 -20 26 -38.5t16 -41.5q-6 -10 -9 -22t-6.5 -24t-9.5 -22t-17 -17q-3 -30 -9 -56t-11 -51t-9 -52t-3 -59q-9 -29 -20 -59.5t-16 -56.5q-19 -15 -30 -37t-23 -44
q-5 -4 -6 -1.5t-9 3.5q1 -9 -3.5 -11.5t0.5 -14.5q-17 -8 -30 -21t-28.5 -24t-36 -14.5t-53.5 8.5q-49 36 -88 83t-62 111q-10 -3 -15 -13t-9 -21t-8 -20t-12 -9q-2 -9 -7.5 -16.5t-10.5 -15t-7.5 -16.5t2.5 -20z" />
    <glyph glyph-name="O" unicode="O" horiz-adv-x="762" 
d="M241 -4q-44 -6 -80 4t-64.5 31t-49 50t-33.5 62q-9 68 5 123.5t41 102.5t61.5 88t66.5 79q7 -3 11.5 0t8 8t8 10t10.5 7q4 9 10.5 15t14 11.5t14 11.5t11.5 15q10 2 17.5 7t14 11t13.5 11t17 8v13q22 10 32 22t24 31q11 1 17.5 1t20.5 2q9 17 17 25t23 18q15 -8 32 -9.5
t31 -15.5q1 -12 7 -18.5t13 -12t14 -11.5t9 -17q5 0 6.5 2t6.5 1q2 -8 4 -13t4.5 -9t5 -9t4.5 -12q-5 -12 -9 -25.5t-16 -18.5q0 -8 6 -8.5t7 -7.5q1 -9 -3 -15q28 -47 51 -98.5t52 -98.5q-2 -14 1.5 -27.5t9 -26.5t10.5 -26t7 -26q2 -17 0 -36.5t-8 -37.5t-16 -33.5
t-23 -23.5q-16 -20 -40 -32.5t-44 -29.5q-14 -8 -30 -11.5t-33 -7.5q-13 -8 -31 -15.5t-37 -13.5t-38 -9.5t-34 -1.5q-36 -13 -70 -18t-80 5zM254 360q-10 -23 -23.5 -41.5t-26.5 -37.5t-22.5 -40.5t-10.5 -50.5q20 -17 47.5 -20.5t56.5 -1t58 7.5t52 5q0 9 8 9
q42 4 78 23.5t75 39.5q5 12 13 21t9 26q-5 9 -6.5 15t-1.5 18q-26 36 -45 78.5t-44 80.5q-2 -5 -8 -10t-13 2q-3 -10 -9 -13.5t-13.5 -3.5t-15 3t-13.5 8q-35 -28 -69.5 -54t-62.5 -61q-5 -3 -6 -2t-7 -1z" />
    <glyph glyph-name="P" unicode="P" horiz-adv-x="655" 
d="M45 282q1 4 4.5 3.5t6.5 0.5q-8 8 -10 21.5t-10 22.5q2 5 3.5 10t8.5 4q-3 22 1 41t12.5 36t20 33.5t22.5 33.5q9 2 11 -1.5t7 1.5q16 11 22 24.5t6 29.5q9 26 20.5 51.5t26.5 47.5t32 38.5t37 25.5q14 12 35.5 22t46 15.5t50.5 6t48 -5.5q5 -2 6 2.5t5 4.5
q50 -6 89.5 -20t67.5 -39q19 -30 36 -64.5t26.5 -72t8.5 -77.5t-17 -80q-35 -44 -85 -70.5t-107.5 -44t-119 -28.5t-119.5 -24q1 -27 0 -57.5t-6.5 -61t-16 -59.5t-28.5 -54q-20 1 -41.5 -4t-38.5 -10q-8 5 -15.5 9.5t-18.5 5.5q3 12 -5.5 25t-17 25.5t-11 25t11.5 22.5
q-8 7 -8 22q4 -4 10 -4q-2 18 4.5 43t11 49.5t1.5 45t-24 29.5zM305 516q-4 -11 -6.5 -19.5t-5.5 -15.5t-6.5 -14t-7.5 -16q2 -6 8 -9t8 -9q14 7 28 10.5t28 5.5t28 5t29 10t31.5 11.5t32.5 9.5t31 11.5t26 17.5q-14 13 -42 23t-60.5 12.5t-65 -4.5t-56.5 -29z" />
    <glyph glyph-name="Q" unicode="Q" horiz-adv-x="762" 
d="M15 87q0 16 -2.5 28.5t-5 23.5t-3.5 23t3 28q-3 9 -6 17.5t-6 17.5q2 45 18 81.5t39 67t50 56t52 49.5q5 -5 7.5 -1.5t11.5 1.5q1 6 6 15t12.5 16.5t16.5 12.5t17 4q10 19 30.5 33.5t41.5 28.5t38 31t21 42h20q-12 18 -11 37.5t12.5 32t31.5 15.5t46 -10q11 -2 15 4t13 8
q46 -20 82 -49t65 -66q-2 -3 -4.5 -4.5t-4.5 -3t-2.5 -3.5t3.5 -5q34 -43 61 -91.5t50 -102.5q5 -41 3 -81.5t-11 -85.5q-8 -17 -18.5 -31.5t-22.5 -28l-24 -27t-22 -28.5l17 -40q-1 -8 3 -17.5l8 -19t6.5 -18.5t-0.5 -15q3 -6 13 -4q-4 -2 -5.5 -8t9.5 -4q-2 -11 -9 -25
t-18 -26.5t-26.5 -21t-34.5 -8.5q-20 10 -31.5 20t-27.5 24l-37 87q-73 -33 -156 -53.5t-176 -25.5q-50 14 -91 38t-67 62zM272 351q-44 -36 -79.5 -84t-57.5 -105q9 -5 22 -6t24 -4q57 16 117.5 30.5t116.5 36.5q-23 28 -43.5 54t-32.5 52q3 6 5.5 14t6.5 16t11 14t19 6
q18 -7 42.5 -8t44.5 -5q20 -14 35 -34.5t30 -40.5q22 20 38 44.5t24 55.5q-6 16 -15 36t-20.5 39t-26 34t-31.5 20q-8 2 -10.5 -2.5t-12.5 -1.5q-54 -39 -108 -76.5t-99 -84.5z" />
    <glyph glyph-name="R" unicode="R" horiz-adv-x="662" 
d="M28 86q-5 -1 -9 7.5t-9 16.5h11q-7 22 -3.5 40.5t8.5 36t8.5 34t-3.5 34.5q5 -3 7.5 2.5t4 14t1 18t-1.5 15.5q13 31 20.5 64t13.5 65.5t13.5 63t19.5 57.5q14 2 29.5 -3.5t20.5 -13.5q31 24 55 58t48.5 66.5t55.5 57.5t77 30q24 -17 54 -36.5t49 -48.5q8 -5 15.5 -10.5
t15.5 -10.5v-15q14 -13 23.5 -30.5t17 -37t14.5 -39.5t16 -37q-2 -6 -1.5 -10.5t2 -9t2.5 -10t1 -13.5q-4 -53 -34.5 -85.5t-74 -53t-92.5 -35t-89 -31.5q0 -4 4.5 -4t2.5 -6q30 -18 46.5 -29t31 -18.5t32 -12.5t48.5 -12t48.5 -11.5t31.5 -7t30 -4.5t43 -5q11 -11 18 -26
t10 -30t1.5 -28.5t-8.5 -21.5q1 -4 5.5 -3.5t9.5 -0.5q-7 -5 -12 -12l-10 -14t-11.5 -13t-16.5 -7q-36 -14 -92 -1t-143 46q-43 16 -70 29t-47 25.5t-37 27t-39 34.5q-3 -1 -3.5 -4t-3.5 -4q-5 -40 -15.5 -65t-30.5 -51q-16 3 -21.5 -3t-13.5 -11q-10 -2 -15 0.5t-9 5.5
t-9 6t-16 2q-3 9 -6 17.5t-16 7.5q3 9 2 15.5t-3 12t-3.5 11.5t1.5 14zM362 543q-13 -19 -29 -34.5t-31.5 -32t-27.5 -36t-17 -46.5q42 5 88 23.5t87 35.5q-5 37 -26 59.5t-44 30.5z" />
    <glyph glyph-name="S" unicode="S" horiz-adv-x="590" 
d="M13 451q3 15 4 24.5t-7 20.5q4 16 6.5 25t0.5 25q9 26 27.5 44t40.5 30.5t46 21t45 14.5q0 4 -4 4t-2 5q54 10 108.5 29t111.5 34t117 18.5t126 -15.5q4 -12 11 -23t14.5 -21.5t13.5 -20.5t7 -21q12 -11 19.5 -23.5t2.5 -33.5q-11 -8 -23 -16t-25 -15q-45 11 -90 8
t-81 -7q-11 12 -26 11.5t-31.5 -5t-32.5 -9t-30 -2.5q-11 -10 -29 -13.5t-38 -5.5q-1 -5 2 -7t1 -8q7 -9 19 -12.5t24.5 -6.5t22.5 -8.5t13 -17.5q18 -1 31 -9.5t22 -20.5t13 -25.5t3 -24.5q4 -10 8.5 -8t10.5 -5q4 -15 18.5 -31.5t22.5 -35.5q2 -30 3.5 -54t-8.5 -47
q-17 -44 -49 -79t-72.5 -61.5t-85.5 -46t-89 -32.5q-4 1 -9.5 0t-2.5 6q-9 -8 -20.5 -10t-25 -1.5t-27 1.5t-26.5 -1q-8 8 -14.5 16t-10.5 19q-5 1 -4.5 6.5t-4.5 5.5q0 4 1 6l2 4q4 3 3.5 4.5t-3 3t-5 3.5t-1.5 5q5 9 3.5 21.5t-2.5 25.5t2 24.5t17 19.5q41 -4 77.5 4
t69 22t62 30.5t57.5 30.5q3 10 9.5 17t13.5 13.5t13 14t9 18.5q1 4 0 6t-3 3.5t-4 3.5t-2 6q-3 1 -5.5 2t-4.5 1q-26 13 -55 22t-49 20q-12 -8 -24 -4t-29 8q-42 2 -79.5 8t-72.5 21q-2 6 -5 10.5t-14 2.5q-7 10 -14.5 18.5t-13.5 19.5z" />
    <glyph glyph-name="T" unicode="T" horiz-adv-x="622" 
d="M22 564q-1 8 -3.5 14.5t-5.5 14.5q-5 12 -9 26t-4 33q2 10 5 14.5t6 7.5l4 18h15q8 -1 16.5 -1h16.5q38 0 78 3t82 7q46 6 99 9q5 11 6.5 14l3.5 7l11 6q23 1 32 -5.5t14 -12.5q26 2 53 5.5t56 7.5q40 5 81 10t80 5q17 0 32 -1t29 -3l12 -9q4 -7 10 -13t14 -12
q15 -12 29.5 -30t10.5 -53l-5 -10q-4 -4 -10 -8l-10 -13h-11q-10 0 -15 -1.5t-12 -4.5q-4 -2 -9 -3.5t-11 -3.5q-11 1 -17 1h-14q-30 0 -65 -4t-68 -9q-24 -3 -46 -5.5t-40 -4.5q-10 -26 -18 -46t-17 -40t-17 -40.5t-15 -45.5q-12 -18 -20 -34.5t-13 -37.5
q-15 -17 -21.5 -37t-11.5 -34l-4 -15q-7 -7 -8.5 -11t-5.5 -9q-3 -13 -8 -25q-2 -5 -4 -10.5t-1 -8.5q-2 -11 -6 -17q0 -6 -1 -12l-2 -12q-2 -7 -3 -12.5t1 -10.5l6 -8t5 -10q2 -2 5 -3t5 -3q8 -7 15 -8l10 -12q6 -36 -11 -56q-18 -23 -60 -23l-14 1q-7 7 -8 9q-9 4 -15 6.5
t-11 9.5q-2 2 -5 2.5t-5 2.5q-10 3 -16 7l-11 6q1 10 1 14q-8 11 -12.5 24t-7.5 27q-3 11 -5.5 20t-7.5 16q-2 70 13 117.5t33 92.5q10 24 19 49t16 51l11 11q7 6 9 7q0 13 5 25.5t11 25.5q4 8 7.5 16t4.5 14q-7 0 -12.5 -0.5t-11.5 -1.5q-13 -3 -25 -3q-9 0 -13 1
q-8 -4 -15 -4.5t-14 -0.5h-12h-12q-12 0 -19 -3h-18h-9h-12h-12q-8 0 -18 1.5t-21 7.5l-7 8q-6 11 -11 12l-11 3v11z" />
    <glyph glyph-name="U" unicode="U" horiz-adv-x="712" 
d="M72 495q-2 13 -5 16q7 18 10.5 35.5t5.5 33.5q2 14 4.5 26t6.5 23q17 4 25.5 14.5t13.5 18.5q18 1 23.5 -5t12.5 -20q5 -11 14 -23.5t27 -19.5q3 -11 7 -21t9 -21q9 -21 17 -43.5t9 -42.5q-12 -23 -18.5 -53t-8 -60.5t1.5 -58.5t10 -47l6 -16l22 2q36 9 65 20.5t54 27.5
t48 36.5t48 48.5q24 28 43 63.5t31.5 73.5t19.5 76t9 71q19 9 21 29l-3 13q-3 5 -2.5 9.5t2.5 8.5q8 23 34 34q18 -12 33.5 -26t28.5 -28q2 -27 8 -46.5t13 -37.5q7 -17 12.5 -33t7.5 -39q-10 -30 -14.5 -56.5t-8.5 -55.5l-2 -11q-18 -31 -35.5 -63.5t-28.5 -56.5
q-6 -6 -10.5 -14t-8.5 -16q-2 -3 -5.5 -10t-6.5 -10l-24 9l-6 -31l-16 -4l-12 -14q-23 -40 -48.5 -67t-57 -48t-71 -39.5t-90.5 -39.5q-20 3 -34.5 3.5t-28.5 1.5q-14 0 -27 1t-30 3q-4 9 -11 13t-13 4q-20 10 -30 28t-21 40q-5 12 -10.5 24t-13.5 23l20 6l-26 30
q-3 3 -6.5 6t-6.5 7v19q-4 82 -3.5 151.5t18.5 122.5z" />
    <glyph glyph-name="V" unicode="V" horiz-adv-x="598" 
d="M79 376q-5 28 -3 58t2 58q0 27 -3.5 57.5t-6 58.5t-2 51.5t6.5 36.5q8 15 20 23.5t23 19.5q13 -2 23.5 -7.5t18 -14t11 -17.5t1.5 -18q25 -15 40.5 -40.5t24 -56t12 -64.5t6 -67t5 -62.5t9.5 -51.5q44 64 74.5 113.5t61.5 95t69.5 92.5t98.5 106q13 -2 20 -5l14 -6
t15 -4.5t22 0.5q5 -12 7.5 -17.5t4.5 -10.5t5 -13l9 -24q3 -4 2.5 -10.5t-1.5 -11.5t-0.5 -8t6.5 0q-4 -17 -13 -30.5t-8 -32.5q-27 -36 -60 -74t-66 -79.5t-63.5 -86t-51.5 -94.5q-6 0 -9 -3t-5.5 -7l-5 -8t-8.5 -4q-2 -32 -23.5 -60.5t-43.5 -48.5q2 -8 2 -13t-1 -10
t-1.5 -10.5t0.5 -13.5q-9 -24 -23.5 -40t-31.5 -24t-35 -6.5t-34 12.5q-7 4 -12 11t-10.5 13.5t-11 12t-13.5 7.5q2 10 0.5 21t-4.5 20t-7 15t-8 6q-4 25 -10.5 54.5t-13 58.5t-10.5 57t-3 52q1 12 -4.5 21.5t-7.5 22.5z" />
    <glyph glyph-name="W" unicode="W" horiz-adv-x="1018" 
d="M78 71q-5 11 -10 21t-10 18q-12 24 -21 43t-17 44q3 17 10.5 57t17.5 87.5t21.5 96.5t23.5 84q11 31 24.5 66t30 64.5t35.5 50.5t41 25q6 -8 13 -12.5t13 -6.5q17 -24 33 -40.5t38 -32.5q-6 -30 -17.5 -66.5t-24 -73.5t-24.5 -71.5t-19 -59.5q-6 -20 -12 -46
q-5 -22 -10.5 -53t-10.5 -68q14 4 31.5 16t32.5 25q18 15 35 32q23 23 39 42t29.5 39.5t28 45t34.5 58.5q18 29 37.5 62t39.5 63t39 55.5t35 39.5q11 -11 25.5 -23t31.5 -17q7 -11 13.5 -19.5t12.5 -16.5q8 -11 14.5 -20t11.5 -20q-1 -8 -3.5 -21t-5.5 -28.5t-6.5 -31.5
t-6.5 -31q-10 -45 -15 -68t-7 -36t-2.5 -22t-0.5 -25q0 -12 2 -24q2 -11 4.5 -22.5t9.5 -21.5l48 37q20 15 38.5 42.5t36 63t34.5 77t34 85.5q12 32 24.5 63.5t25.5 60t25.5 52t24.5 39.5q27 -17 46.5 -34t34 -37.5t23 -47t12.5 -62.5q-22 -42 -41 -86t-38 -89
q-24 -58 -49.5 -115.5t-56.5 -109.5t-69.5 -95.5t-88.5 -73.5q-14 3 -24 3q-11 0 -18.5 -3t-13.5 -8q-41 19 -66 56.5t-49 83.5q-3 7 -6.5 13.5t-7.5 13.5l-17 31l-10 19l-14 -13l-21 -19l-12 -12q-31 -29 -63 -56.5t-67 -50t-74.5 -36.5t-84.5 -15q-8 4 -14.5 7t-12.5 6
q-23 11 -38 21t-35 31z" />
    <glyph glyph-name="X" unicode="X" horiz-adv-x="638" 
d="M52 -34q-39 29 -57.5 71.5t-4.5 84.5q2 31 15.5 59.5t33 54.5t42.5 49l43 43q4 12 14 21t21.5 17.5t23 18.5t18.5 23q-4 14 -13 28t-20 28t-23 28t-22 29q-1 5 -7.5 3t-9.5 1q2 16 -6.5 34.5t-22.5 31.5q5 12 9.5 31t-2.5 41q-1 10 2.5 19t7.5 17t6 15.5t-1 15.5
q15 2 27.5 -1.5t23 -8t20 -7.5t18.5 1q-2 -6 -0.5 -8.5t4 -4t5 -2.5t2.5 -5q19 -6 41.5 -26t43.5 -44t38 -47.5t25 -36.5q29 18 62.5 43t69 51t72 49.5t71.5 37.5q20 -9 31.5 -23t19 -29.5t14 -31t17.5 -27.5q-10 -20 -21 -33.5t-16 -32.5q-25 -10 -60 -32q-30 -19 -76 -52
t-109 -87q15 -17 24.5 -32t15.5 -26q7 -13 11 -24q11 -8 18 -19t13.5 -22.5t14.5 -21.5t21 -16q4 -18 10 -33.5t11.5 -30.5t9 -29.5t2.5 -29.5q-8 -27 -24 -45t-23 -37q-11 -3 -21.5 -6.5t-17.5 -10.5l-68 48q-18 60 -52 115t-66 95q-48 -37 -92 -82t-80 -96
q-2 -25 -6 -41.5t-13 -27.5t-23 -19t-35 -16z" />
    <glyph glyph-name="Y" unicode="Y" horiz-adv-x="505" 
d="M149 -33q-88 12 -107 93l1 11l9 27q5 17 11 33.5t20 29.5q3 9 11.5 27.5t28.5 55.5q16 29 25.5 46t15.5 26q-10 18 -28 35q-16 30 -27.5 57.5t-17.5 49.5q-1 24 -8 49l-6 26t-3 27q-4 7 -7 18l2 12q5 8 2.5 21.5t-6.5 27.5q-3 13 -5.5 27.5t-1.5 28.5t7.5 27t22.5 22
l10 7l10 -6q11 -7 21 -12l20 -10q12 -6 24 -12.5t26 -14.5l10 -7l-1 -11q0 -2 1 -5t3 -5l11 -3l1 -14v-12q0 -9 1 -12.5t4 -7.5l5 -13q0 -18 3 -32t7 -28q5 -14 8 -28.5t1 -31.5q6 3 12 9q2 2 4.5 4t5.5 4l70 95l-2 12l25 24q10 8 19 16.5t15 19.5l6 9q45 60 116 74l17 4
l5 -16q5 -14 19.5 -24.5t31.5 -20.5l11 -7q6 -12 6 -18t-1 -10l5 -13q-11 -29 -24 -41.5t-27 -23.5q-11 -9 -20 -18t-14 -20l-8 -10q-25 -13 -32 -38l-4 -14h-15q-1 0 -5 -4.5t-12 -21.5q-9 -12 -12.5 -15.5l-5.5 -5.5q-2 -5 -3.5 -9t-3.5 -10l-6 -8q-9 -8 -13 -15.5
t-9 -17.5q-4 -9 -9 -18.5t-14 -18.5l2 -11l-8 -7q-8 -7 -14 -17.5t-12 -21.5q-6 -12 -13 -24t-18 -22q-7 -18 -12.5 -28t-18.5 -24q-12 -48 -57 -103q-1 -11 -6.5 -21.5t-11.5 -19.5q-2 -4 -4.5 -8.5t-3.5 -6.5l-3 -11q-6 -11 -12.5 -18t-12.5 -13q-3 -2 -5.5 -5t-4.5 -5z
" />
    <glyph glyph-name="Z" unicode="Z" horiz-adv-x="680" 
d="M-8 88q-3 30 -1.5 54t7 46t15 42t21.5 43q14 5 25 13.5t21 16.5q10 9 19.5 15.5t18.5 7.5l10 6q20 23 49 42.5t60 37.5q26 15 51 30.5t46 35.5q10 -1 17 4q5 7 4 15q3 2 5.5 4.5t5.5 4.5q8 7 22.5 14.5t19.5 20.5l26 25l-36 -1q-27 0 -57.5 -3t-52.5 -5q-18 -2 -36.5 -3
t-41.5 -2q-19 12 -32.5 31t-21 41t-8.5 46t6 46q8 2 14.5 4.5t12.5 5.5q11 1 14.5 0t8.5 -1q60 10 98 10q42 0 76 -10q42 0 85.5 3t88.5 -5q32 10 64 5.5t55 -28.5q2 -20 11 -30.5t24 -15.5q9 -35 1.5 -61t-25.5 -46.5t-43 -36.5t-49 -31q-7 -11 -17 -18t-19 -15
q-39 -52 -90.5 -88.5t-104.5 -71.5q-38 -26 -75.5 -52t-72.5 -56l-13 -11l11 -12q14 -14 34 -14q11 0 21.5 3t19.5 7l16.5 5.5t12.5 2.5l11 -2q15 8 24.5 11.5t19.5 6.5q8 2 17.5 5t18.5 8q26 0 50 7.5t47 16.5q14 5 27.5 10t27.5 9q5 -7 11.5 -11.5t12.5 -7.5q9 -5 13 -8.5
t5 -9.5l4 -33l21 23q15 -14 16 -28.5t-3 -37.5q-39 -39 -96.5 -61t-121.5 -41q-14 -4 -27 -7.5t-27 -8.5l1 21l-26 -17q-5 -4 -8 -7.5t-6 -7.5q-31 -7 -51.5 -11t-38.5 -8q-20 -5 -37.5 -8t-38.5 -3q-7 0 -13.5 0.5t-13.5 1.5q-6 2 -14 4l-14 26l-19 -14q-11 9 -25 19
q-12 10 -22 20t-11 20l-1 12l-12 3q-2 2 -4 10q-2 6 -6 14t-12 13z" />
    <glyph glyph-name="bracketleft" unicode="[" horiz-adv-x="397" 
d="M417 -32q18 -5 23 -14t3 -20t-9.5 -22.5t-13.5 -20.5q-10 2 -17.5 -4t-13.5 -14q-28 4 -55 1t-50 -6q-4 0 -3.5 -4.5t-2.5 -5.5q-30 10 -61 7.5t-63 -9.5t-66 -15.5t-68 -9.5q-13 9 -21 22.5t-13.5 29t-9 32t-7.5 31.5q0 11 4.5 17.5t9.5 11.5q14 58 34.5 116.5
t34.5 114.5q13 49 25.5 91.5t23.5 82t22 78.5t21 81q9 34 17.5 65t16 62t15 64.5t14.5 74.5q-2 13 -1.5 19.5t-0.5 13.5q-3 17 -11 25q8 2 11.5 13t0.5 16q16 5 34.5 6.5t36.5 3t34 4t28 9.5q50 2 104 4.5t100 4.5q17 -5 40 -5.5t45 -3.5t40 -12.5t25 -33.5q15 -2 21.5 -7.5
t9 -14t1.5 -18t-1 -19.5q-17 -13 -42.5 -20t-55.5 -11t-63 -6t-63.5 -2.5t-57 -1.5t-44.5 -3q-14 -2 -26.5 -3.5t-23.5 -3.5q-10 -45 -22 -95.5t-24.5 -101t-24.5 -98.5t-22 -87.5t-16 -68t-7 -39.5q-15 -47 -25.5 -80.5t-19 -63t-17 -58.5t-21.5 -68q17 3 48 6q26 2 68.5 4
t108.5 2q2 -10 9 -14.5t14.5 -7.5t13.5 -7t6 -14z" />
    <glyph glyph-name="backslash" unicode="\" horiz-adv-x="361" 
d="M286 134q-5 -13 -4 -24.5t5 -22.5t8 -21t4 -20q-5 -8 -8 -16t-6 -16.5t-7.5 -17t-13.5 -15.5q-20 -3 -33.5 -2t-31.5 0q-19 10 -29 28.5t-14.5 40t-4.5 43t2 38.5q9 8 -1 10q0 7 -1.5 25t-4.5 39.5t-6 44.5t-6 41q-8 15 -12.5 48t-9 68.5t-10 66t-15.5 41.5q2 22 -6 57
t-14 72t-5.5 69.5t19.5 49.5q37 -12 64 -35t54 -59q2 -14 5 -39.5t7 -56t8 -64t8.5 -63t9 -53t9.5 -34.5q1 -21 7.5 -47.5t12.5 -55t9 -56.5t-3 -51q2 -5 6.5 -7t7.5 -6z" />
    <glyph glyph-name="bracketright" unicode="]" horiz-adv-x="413" 
d="M395 876q13 -2 19 -7.5t8 -14t1 -18t-1 -19.5q-10 -41 -22 -94.5t-26.5 -113t-30.5 -120t-29.5 -112.5t-22.5 -90t-10 -52q-17 -51 -27.5 -86t-20 -66.5t-19.5 -65t-26 -79.5q-2 -12 -9.5 -24.5t-14.5 -22.5q-10 2 -17.5 -4t-13.5 -14q-28 4 -55 1t-50 -6q-4 0 -3.5 -4.5
t-2.5 -5.5q-30 10 -61 7.5t-63 -9.5t-66 -15.5t-68 -9.5q-13 9 -21 22.5t-13.5 29t-9 32t-7.5 31.5q0 14 6 20t12 13q23 1 41.5 3.5t35.5 5t34.5 5t38.5 2.5q6 4 24.5 6.5t42.5 4.5t51 3t51 1q12 42 26 82.5t25 80.5q12 49 25.5 90.5t26 81t23 78.5t16.5 82q10 36 19 65.5
t17 59t15.5 63.5t15.5 79q-38 4 -72 3.5t-54 -3.5q-48 -8 -74 -14.5t-36 -11.5q-17 1 -26.5 7.5t-15.5 16.5t-10.5 22t-10.5 25q3 9 1.5 25.5t-9.5 24.5q6 2 9.5 13.5t0.5 16.5q15 5 31 6.5l32 3t30.5 4t25.5 9.5q44 2 91.5 5t89.5 5q15 -5 35 -5.5t40 -3.5t36 -12t22 -33z
" />
    <glyph glyph-name="asciicircum" unicode="^" horiz-adv-x="531" 
d="M460 464q3 -21 1.5 -44.5t-1.5 -44.5t2.5 -44.5t4.5 -45.5t2 -40t-5 -28q-6 -11 -15.5 -18t-17.5 -15q-20 2 -32 16.5t-10 27.5q-29 18 -41.5 51.5t-17 72.5t-6.5 76.5t-10 63.5q-34 -50 -57 -88t-47 -73t-53.5 -71.5t-76.5 -81.5q-10 1 -15.5 3.5t-10.5 5t-11 3.5t-17 0
q-4 9 -6 13t-3.5 8t-4 10.5t-7.5 18.5q-2 3 -1.5 7.5t1 8.5t0 6t-4.5 0q3 13 10 24t6 25q21 28 46.5 57.5t51 61t48.5 66t40 73.5q4 0 6.5 2.5t4.5 5.5l4 6t6 3q2 25 18.5 47t33.5 37q-3 12 -0.5 18t1.5 18q14 37 41.5 49.5t53.5 -4.5q11 -8 17.5 -19.5t18.5 -14.5
q-2 -16 3 -31.5t12 -16.5q3 -20 8 -42t10 -44.5t8 -44.5t2 -40q0 -9 4 -16.5t6 -17.5z" />
    <glyph glyph-name="underscore" unicode="_" horiz-adv-x="726" 
d="M670 70q23 -2 33.5 -7t14.5 -12.5t3 -16.5t-1 -18q-26 -11 -65.5 -17t-86.5 -9t-98 -3.5t-99 -0.5h-89t-68 -1q-83 -5 -129 -10t-63 -10q-30 1 -47.5 7t-28.5 15t-19 20.5t-19 23.5q6 8 2.5 23t-18.5 22q12 2 18 12t1 15q25 4 53.5 5t56.5 1.5t53 3t44 8.5q77 0 161 0.5
t157 2.5q26 -5 61.5 -6t70 -4.5t63 -12.5t39.5 -31z" />
    <glyph glyph-name="grave" unicode="`" 
d="M306 624q-8 12 -8.5 23t2.5 22t9 22.5t12 25.5q8 4 18 14.5t11 21.5q5 -3 14.5 2.5t11.5 11.5q11 -6 20.5 -15.5l18.5 -18.5t18 -16.5t20 -9.5q24 -27 51.5 -53.5t50.5 -51.5q4 -14 14.5 -21t19 -15t10.5 -19t-11 -32q6 -10 5 -18t-5.5 -15t-11.5 -14l-14 -14
q-24 1 -50 15t-50.5 32.5t-45.5 38t-36 32.5q-29 26 -47.5 38t-26.5 14z" />
    <glyph glyph-name="a" unicode="a" horiz-adv-x="595" 
d="M529 84q-6 -17 -17.5 -34.5t-27 -31t-34.5 -22.5t-40 -10q-13 3 -17.5 6.5t-9.5 6.5q-3 2 -5.5 3.5t-4.5 2.5l-12 5l4 13q2 8 -1 12.5t-12 12.5l-6 6t-5 6l-17 19l27 7q25 7 33.5 18t6.5 37q-20 4 -33.5 1t-27.5 -7q-18 -5 -36.5 -8.5t-40.5 -3.5q-8 0 -15 0.5t-15 1.5
l-10 2q-2 11 -4 12.5t-4 3.5q-5 5 -10.5 13.5t-2.5 21.5q-5 9 -6 18q-6 -12 -9 -25l-4 -10l-10 -2q-2 -1 -3 -4.5t-1 -5.5l-5 -17q-2 -2 -4 -3.5t-4 -3.5q-2 -9 -5 -18t-6 -17q-5 -13 -8.5 -25.5t-2.5 -24.5l-4 -11q-5 -6 -11 -9.5t-12 -6.5q-2 -2 -5.5 -3.5t-5.5 -2.5
l-3 -11l-12 -2q-11 -2 -15.5 -3t-10.5 -1l-10 1q-11 9 -17 14.5t-14 10.5q-9 12 -10 18t-2 11q-2 6 -2.5 10t-2.5 6l-13 12l11 9l1 17q20 51 42.5 98t46.5 96q8 16 15.5 32t15.5 32q-1 3 -1 7t2 9q11 17 18 30.5t14 27.5q8 17 16.5 33t21.5 33l16 7q3 1 7 2.5t9 1.5l15 -2
q28 13 49 36.5t43 56.5l10 14l13 -8q5 -3 14 -5.5t19 -5.5q18 -4 34 -9t26 -15q6 -16 7 -24t3 -16q3 -17 5.5 -34t3.5 -38q5 -17 8.5 -33.5t6.5 -33.5q5 -24 10 -46.5t13 -42.5q8 0 10 -1q5 2 10.5 3t12.5 2l11 1l4 -10q1 -5 10 -10q13 -1 19 -5.5t11 -9.5q4 -4 8 -6l15 -6
l-8 -15q-10 -18 -28.5 -34.5t-41.5 -27.5q1 -6 1.5 -11.5t2.5 -11.5q3 -17 5 -35t0 -37zM240 257q30 2 54.5 4.5t54.5 8.5q-7 30 -15 62.5t-17 64.5l-6 -10q-20 -21 -38.5 -47t-31.5 -49l-12 -18t-11 -18q6 1 11.5 1t10.5 1z" />
    <glyph glyph-name="b" unicode="b" horiz-adv-x="587" 
d="M549 163q6 -3 7 -10t0 -11q-18 -23 -25 -32t-10 -13.5t-6.5 -7.5t-15.5 -13q-45 -27 -92.5 -48t-99.5 -29q-8 -11 -30.5 -15.5t-41.5 -8.5q-4 2 -4.5 5.5t-4.5 5.5q-1 -10 -9 -10.5t-19.5 4t-24 12t-21.5 13.5q-5 -8 -10.5 -16t-13.5 -11l-16.5 3t-10.5 -4q-6 3 -9.5 7
t-7 7.5t-8 6.5t-12.5 5q2 4 -2 12.5t-12 10.5q4 7 -3.5 17.5t-11.5 23.5q2 11 3 24t12 15q-1 7 -3 12l-4 10q7 6 10 14.5t5 17.5t5 18t11 15q9 30 14 44.5t7.5 28.5t6 30t12.5 40q-1 15 3 26.5t8.5 23t7.5 24t-1 29.5q-14 -1 -20 -9.5t-8 -22.5q-8 -8 -19.5 -7.5t-20.5 -2.5
q-35 14 -58 40t-37 61q9 23 27 38.5t41 26t49 17l50 12.5q39 7 78 16t84 6q6 3 14.5 3.5t17.5 0.5t17.5 0.5t14.5 3.5q5 -6 14.5 -7.5t20.5 -9.5q12 9 20.5 4t15.5 -11t13.5 -11t13.5 -5q7 -9 17.5 -17t20 -16.5t16 -18.5t6.5 -23q-1 -5 3 -6t6 -4q1 -31 -9.5 -53.5
t-26 -41.5t-34 -36t-33.5 -36q10 -13 23 -23t26.5 -20t25.5 -21t20 -26q2 -2 5 -3.5t6 -3.5q3 -10 8 -20.5t8.5 -20t4.5 -17t-4 -12.5zM373 497q-51 2 -101.5 -9t-84.5 -31q17 -14 34.5 -25t27.5 -30q39 16 69 40.5t55 54.5zM386 178q3 10 11 16t16 11.5t14 12t5 18.5
q-32 17 -58.5 20.5t-50 0t-45 -10.5t-43.5 -10q-11 -29 -23 -63t-23 -66q30 4 55 12.5t48.5 18.5t46 20.5t47.5 19.5z" />
    <glyph glyph-name="c" unicode="c" horiz-adv-x="526" 
d="M416 -2q-16 -1 -39.5 1t-43.5 -7q-53 2 -108 13t-101 27q-10 11 -20 20.5t-27 13.5q-24 19 -39 46.5t-24 58.5t-12 63.5t-2 62.5q15 45 42.5 77.5t56.5 64.5q13 6 19.5 12.5t14 12l15 11t13.5 13.5q21 5 36.5 14.5t30.5 20t31 19.5t37 14q8 9 19 14.5t22.5 11t22 11.5
t16.5 16q5 -8 14 -5.5t17 5.5q5 1 8.5 -2t6.5 -6t5.5 -3.5t4.5 4.5q5 0 3 -5t-3 -7q8 1 13.5 -3.5t17.5 -5.5q4 -5 2 -7.5t-2 -8.5q30 -9 38 -28.5t1 -40.5t-25 -39t-39 -24q-48 -13 -90.5 -28.5t-69.5 -45.5q-24 -7 -42.5 -18.5t-35 -26t-31 -30t-30.5 -30.5
q1 -14 -4.5 -21.5t-10.5 -15.5q2 -15 7 -26.5t11 -22.5q66 -20 140.5 -25t149.5 -6q7 -10 16.5 -18.5t17.5 -18t13 -21t2 -28.5q-14 -15 -31 -27.5t-34 -25.5z" />
    <glyph glyph-name="d" unicode="d" horiz-adv-x="509" 
d="M493 270q-1 -5 -2 -8.5t-2 -6.5t-1 -7.5v-11.5q-30 -53 -75.5 -89t-100 -63.5t-113.5 -50t-115 -48.5q-24 6 -36.5 20t-19 32.5t-9 41t-4.5 46.5q3 11 8.5 18.5t5.5 21.5q8 26 16 51t10 51q3 8 11 11q5 48 0.5 97.5t-16.5 92.5q1 10 2.5 14.5t-0.5 6.5q-1 8 5.5 8h13.5
q0 15 -5.5 30t-10.5 34q7 15 9 29.5t9 25.5q54 -17 103.5 -41t97.5 -35q36 -26 74 -51.5t69 -56t52 -69.5t24 -93zM256 215q21 8 41.5 17t38 20.5t31.5 26.5t23 36q-6 12 -16 21.5t-20 18t-19.5 17.5t-15.5 22q-13 2 -23 7.5t-19.5 11t-20 10.5t-24.5 6q-22 11 -39.5 16
t-26.5 13q-7 0 -11 -3q10 -38 15 -71.5t5.5 -67t-3.5 -68.5t-11 -76q10 1 18.5 4.5t17 7.5t18 7.5t22.5 4.5q3 6 8.5 10t10.5 9z" />
    <glyph glyph-name="e" unicode="e" horiz-adv-x="534" 
d="M558 563q1 -7 0.5 -10.5t-1 -6.5t-0.5 -6.5t2 -10.5q-21 -34 -48.5 -46.5t-59.5 -18t-65.5 -11.5t-66.5 -26q-13 5 -23.5 0t-30.5 -3q-6 -6 -15 -8.5t-18 -5.5q4 -9 3.5 -18.5t2.5 -15.5q35 -3 77.5 1t83.5 5q1 -5 -1 -6.5t-1 -5.5q7 -5 14 -12.5t14 -14.5t14.5 -11.5
t17.5 -3.5q4 -8 5.5 -17.5t-2.5 -19.5q-16 -11 -32 -22.5t-33.5 -20.5t-37 -14.5t-43.5 -4.5h-7.5t-6.5 3q-8 -5 -22.5 -3t-22.5 -3q-11 5 -26.5 4.5t-27.5 3.5q-16 -21 -29 -45t-23 -51q34 -5 56.5 -4t42.5 3.5t41 5t53 1.5q20 11 47.5 14.5t50.5 11.5q8 -3 14 -10.5
t11.5 -14t11.5 -11.5t15 -4q4 -4 5.5 -9.5t2.5 -10.5t3.5 -8.5t8.5 -2.5q-15 -33 -34.5 -50.5t-44.5 -26.5t-55.5 -14t-67.5 -12q-9 -2 -15 0.5t-14 2.5q-23 -5 -55 -9t-65 -3t-63 8.5t-49 26.5q-8 7 -10.5 16.5t-13.5 14.5q-1 13 -4 29t-6 33.5t-4.5 34.5t1.5 31
q3 15 12.5 27t6.5 26q5 1 6 5.5t8 3.5q6 18 13 34t14.5 31t15 30.5t14.5 34.5q-14 13 -20.5 28.5t-9.5 31t-5 32t-7 33.5q10 15 24.5 24.5t31.5 15.5t37 10t42 9q40 13 71.5 20t62 11.5t63.5 8.5t75 12q9 -9 17 -9q4 9 9.5 5.5t4.5 5.5q10 -17 25.5 -28.5t34.5 -19.5z" />
    <glyph glyph-name="f" unicode="f" horiz-adv-x="466" 
d="M140 34q-6 -34 -34 -47q-13 -1 -19.5 1t-13.5 5q-9 4 -16 5l-11 8q-2 5 -5 10t-7 10q-8 10 -16 25q-6 29 -2 48.5t10 38.5q2 6 4 12.5t4 12.5q-26 14 -39 40t-15 50q3 19 11 30.5t18.5 18.5t22 11t22.5 7l13 -5q9 -9 18 -14q7 3 9.5 9.5t4.5 14.5q3 9 6.5 18t8.5 18
q-1 13 4 24q-7 5 -15 6q-2 0 -10 2q-12 9 -16.5 15.5t-8.5 12.5q-6 13 -15 21l-10 7l5 10q2 2 2 5t-4 9q-2 11 0 15l2 10q8 11 8 12l9 9q20 5 39.5 11.5t39.5 13.5q19 6 38.5 12.5t39.5 11.5q7 5 15 6.5t15 2.5q6 1 11 1.5t7 3.5q12 4 28 9q25 7 66 15.5t92 13.5l17 1
q5 -1 10 -0.5t10 0.5q45 0 57 -27q9 -5 16 -11t13 -12q3 -4 6.5 -7t5.5 -4q17 -26 11 -46q-9 -13 -23 -15l-11 -6q-11 1 -16.5 1h-11.5q-25 0 -58 -3t-67.5 -8.5t-66.5 -13.5t-56 -17l-18 -9q-7 -11 -8 -17.5t-2 -12.5q-1 -4 -1.5 -8t-1.5 -9q-17 -21 -17 -50
q-7 -12 -9 -17.5t0 -13.5q19 -8 36 -6t34 5q23 4 47.5 7t50.5 3h32l-8 -8l5 -14q6 -3 8.5 -4t5.5 -3l5 -9q4 -2 7.5 -7t4.5 -15l-41 -58l-14 -4q-17 1 -30 -4q-7 -2 -14 -3.5t-15 -1.5q-20 -4 -33.5 -6t-27.5 -4q-18 -2 -35 -5.5t-32 -9.5h-14q-8 0 -16.5 -2.5t-15.5 -4.5
q-5 -4 -7 -8.5t-4 -9.5q-4 -14 -11 -23v-15q-8 -10 -9.5 -15.5t-3.5 -10.5q-2 -3 -3 -5.5t-1 -5.5q8 -15 4 -34z" />
    <glyph glyph-name="g" unicode="g" horiz-adv-x="668" 
d="M709 180q-24 -43 -63 -66.5t-86 -39t-98.5 -27.5t-99.5 -31q-14 0 -24.5 -1t-20 -2.5t-18.5 -3t-20 -2.5q-4 1 -5 -1.5t-3 -4.5q-17 -3 -30.5 -3h-22.5q-12 0 -24.5 -3.5t-22.5 -2.5q-75 4 -117.5 53.5t-47.5 137.5q1 5 -1.5 6t-4.5 3q0 10 2.5 17t0.5 18q26 55 59 102.5
t79 83.5q7 6 12 12t9.5 12t10.5 10.5t15 6.5q21 24 50 44t61 38.5t63.5 37t57.5 41.5q11 -5 16 -3t11 0q7 -15 19.5 -21t25 -12.5t23.5 -15.5t17 -24q-6 0 -5.5 -4.5t2.5 -9t1.5 -9t-7.5 -4.5q1 -5 6.5 -5.5t5.5 -5.5t-2.5 -8t-0.5 -10q-20 -13 -44.5 -25t-51 -25.5t-55 -29
t-55.5 -35.5t-55 -44.5t-54 -51.5t-49 -55.5t-39 -56.5q2 -5 4.5 -7.5t4.5 -7.5q32 -2 59.5 0.5t55.5 -3.5q3 2 4 6t5 6q57 6 106 18.5t100 26.5q-8 3 -14.5 5.5t-12.5 4.5q-5 5 0.5 8.5t9.5 7.5q-14 8 -22.5 20t-10.5 32q6 5 6 12t-6 11q-4 1 -5 0t-1.5 -3t-1.5 -3.5
t-5 0.5q1 9 4.5 15t5.5 14l69 46q11 -8 27 -17.5t33.5 -19t36 -19t34.5 -18.5q14 -6 25 -16t21 -20.5t20.5 -20.5t24.5 -17q-2 -13 1 -21t2 -20z" />
    <glyph glyph-name="h" unicode="h" horiz-adv-x="596" 
d="M512 97q2 -26 -6 -43t-22 -29t-32 -19t-35 -13q-8 5 -15.5 10.5t-17.5 8.5q-13 24 -25 42.5t-11 42.5q0 1 1.5 11t4 22t4 22.5t1.5 11.5q-23 -2 -48 -10t-48.5 -19t-44 -22t-33.5 -19q0 -3 -4 -14.5t-10 -24t-13 -22.5t-14 -10q1 -3 3 -6t0 -8q-14 -4 -25 -10.5t-23 -11
t-26 -4.5t-33 10q0 6 -5 10.5t-10.5 8t-9.5 6t-4 4.5q-5 -1 -4 7t8 4q-11 14 -13.5 24.5t-11.5 26.5q2 2 3.5 7t2.5 9t3 6t5 -1q-2 9 0 15t4 11t3 10t-3 11q16 22 21 47.5t6 46.5q7 7 12.5 20t8.5 26.5t2.5 26t-3.5 20.5q1 5 11 3q6 33 8.5 74.5t8.5 79t20 66t45 37.5
q6 -21 15.5 -37t21 -30.5t23 -29.5t21.5 -34q-1 -19 -4 -44t-7.5 -51t-9 -50t-8.5 -41q1 -5 5.5 -6t1.5 -9q24 6 50 11t52 11t50.5 13.5t45.5 18.5q5 39 13 78t2 80q5 4 8 10t10 8q-5 19 -4 40t7.5 40t19 32.5t30.5 17.5q11 -16 19 -34.5t16.5 -37t18 -35t24.5 -28.5
q3 -29 4.5 -60t2.5 -63q-8 -38 -17.5 -73.5t-13.5 -75.5q-7 -8 -11 -18t-8 -20.5t-9 -20t-12 -16.5q4 -12 1.5 -22.5t5.5 -25.5z" />
    <glyph glyph-name="i" unicode="i" horiz-adv-x="328" 
d="M212 70q5 -30 -3.5 -47t-24 -25.5t-35.5 -9.5t-38 2q-10 14 -18 35t-15 43.5t-12.5 44.5t-9.5 39q5 12 6.5 27.5t2 31.5t1 32.5t2.5 31.5q7 42 20.5 80t21.5 79q2 9 -1.5 17t-1.5 15q1 4 6 5.5t6 6.5q3 11 1.5 18t3.5 17q5 8 12.5 23.5t5.5 32.5q9 6 17 14t16.5 14.5
t19 11.5t25.5 5q8 -10 10.5 -22l5 -24t7.5 -22.5t17 -16.5v-20t1 -23.5t4.5 -21t11.5 -12.5q-18 -48 -33.5 -95t-25.5 -94.5t-12.5 -95.5t6.5 -97z" />
    <glyph glyph-name="j" unicode="j" horiz-adv-x="547" 
d="M484 464q-2 -26 -6 -46t-11 -42q-17 -81 -39.5 -154t-51.5 -131q-26 -29 -50.5 -51t-54.5 -31q-15 -2 -26.5 -4.5t-22.5 -5.5q-5 -1 -10.5 -2t-10.5 -3q-15 3 -28.5 4.5t-24.5 1.5l-13 4q-10 3 -15.5 5t-10 3.5t-10 2.5t-17.5 2q-15 -6 -28 -6q-18 0 -39 15t-35 64
q2 19 5.5 33.5t7.5 22.5q24 14 40 14q19 0 36.5 -6t34.5 -13q8 -3 11 -5t5 -3t4.5 -1h10.5q5 0 8.5 0.5t7.5 1.5l10 -1q6 -3 14 -3q10 0 25 5q7 3 11.5 4t9.5 2l8 8q9 3 13.5 7t8 9t6.5 11t8 13q4 5 7.5 10t7.5 10v10q13 29 23 60.5t18 63.5t13.5 62t9.5 54h-10
q-25 0 -41 -0.5t-29 -2t-27.5 -4.5t-36.5 -7l-15 -3q-15 -8 -30 -14t-30 -6q-26 0 -44 20q-19 13 -22 34q-5 6 -3 14q-4 12 -4 21.5v17.5v14h13q5 5 7 7.5t3 6.5l11 9q17 2 35.5 5.5t38.5 7.5q19 4 32.5 6t26 3t26 1.5t31.5 0.5h23q3 4 6.5 4.5t5.5 0.5q5 0 8 -1t5 -2
q28 5 52 6.5t43 1.5h18.5t16.5 -1h33h22q5 1 16 1q16 0 20.5 -0.5t16.5 -2.5q14 -2 25.5 -3.5t23.5 -1.5h15l3 -10l8 -10q2 -5 6.5 -9t9.5 -9q10 -10 19.5 -23t6.5 -39l-7 -11q-5 -2 -12 -9l-9 -8q-11 -1 -19 -1.5t-16 -0.5q-15 0 -30.5 1t-32.5 2h-14h-9.5h-9.5h-13h-12
t-11 -1z" />
    <glyph glyph-name="k" unicode="k" horiz-adv-x="661" 
d="M603 36q-48 -2 -84.5 2t-71.5 19q-2 1 -4 5t-4 6q-6 3 -14.5 2.5t-14.5 1.5q-8 4 -25 15.5t-31 21.5q-18 14 -34 28t-28 30q-3 4 -8 4.5t-9 2.5q-29 -18 -49 -45t-38 -55t-38 -53t-51 -38q-9 0 -16 3t-13 7.5t-12 8.5t-13 6q0 12 -4.5 22t-9 19t-6.5 17.5t4 16.5
q-6 6 -18 13q6 6 5.5 11t-2.5 10t-3.5 11t2.5 12q5 0 12 2q-6 8 -5.5 9.5t-2.5 4.5q-2 6 2 7.5t8 3.5q4 49 17 91t29 81t31.5 79t25.5 86q11 11 17.5 26t14 30t17 29.5t26.5 23.5q14 -1 25 -7.5t27 -5.5q3 -5 5.5 -10t6.5 -10l15 3q11 -9 19.5 -22.5t11.5 -28.5t-1 -28.5
t-19 -21.5q1 -5 0.5 -7.5t-1.5 -4.5t-1 -4t3 -6q-20 -15 -30 -42t-11 -48q12 12 26.5 23.5t30 22.5t30 21t26.5 20q33 30 63.5 48.5t64.5 41.5q8 2 12.5 0.5t9.5 -3.5q0 6 -3.5 7t-2.5 8q15 4 26 9.5t24 10.5q9 -9 17 -18.5t22 -11.5q5 -11 12 -16.5t14 -10.5t12.5 -12
t6.5 -22q-4 -7 -8.5 -15t-8.5 -19q-20 -18 -40.5 -32t-41.5 -27t-43 -26t-45 -31q-5 -7 -12.5 -12.5t-15.5 -11t-15 -11.5t-11 -14q-3 -1 -6 -1t-6 -1q-3 -7 -9.5 -11t-8.5 -11q15 -32 39 -49t54 -24.5t65 -8t73 -0.5q4 1 3.5 4.5t4.5 2.5q24 -8 37 -22.5t31 -28.5
q-2 -38 -23 -63t-56 -40z" />
    <glyph glyph-name="l" unicode="l" horiz-adv-x="546" 
d="M264 11q-28 -9 -61 -18t-66 -9q-50 0 -79 25q-5 11 -9 15q-3 4 -5.5 8.5t-3.5 12.5q-12 14 -19 32.5t-9.5 38t-1 39.5t6.5 38q2 4 2.5 8t1.5 9q4 16 8.5 31t12.5 26q-4 9 0 20t9 20q14 38 23.5 64.5t19.5 52.5q17 45 32 89t27 95q8 5 12 7q6 2 10 3q18 -9 42 -17.5
t40 -8.5q8 -5 10 -7.5t4 -4.5q11 -13 19 -26.5t5 -35.5q-6 -9 -9 -9q-5 -20 -10.5 -34t-11.5 -28q-7 -15 -13 -30t-10 -37q-4 -5 -5.5 -9t-3.5 -9t-4.5 -10.5t-7.5 -9.5q-3 -26 -9.5 -42t-13.5 -32q-12 -29 -21.5 -58t-11.5 -66q5 2 9.5 2h8.5q9 0 21 -3q30 16 65.5 19
t70.5 4h28t26 2q9 -5 11.5 -5.5t7.5 -0.5q7 0 12 -1q12 -11 23 -16t23 -9q11 -4 21.5 -8.5t20.5 -12.5l7 -43q7 -9 6 -12q0 -8 -4 -12l2 -11q-15 -3 -20.5 -7t-10.5 -9q-8 -1 -11.5 -1h-6.5q-14 0 -34 -5q-27 9 -56 9q-11 0 -23 -1l-24 -2q-12 -2 -24.5 -3t-25.5 -1z" />
    <glyph glyph-name="m" unicode="m" horiz-adv-x="834" 
d="M692 18q-10 -5 -18.5 -9t-19.5 -4q-39 29 -40.5 101t30.5 183q5 3 5 12l-9 10q-4 0 -7.5 -1t-5.5 -7q-26 -19 -57 -39.5t-64.5 -38t-68 -28.5t-67.5 -11q-84 0 -126 85l-8 15l-8 -13q-3 -4 -9 -16.5t-12 -28.5t-10.5 -32.5t-3.5 -28.5q-9 -9 -19 -21t-15 -27q-2 -8 2 -15
q-2 -9 -9 -14q-4 -5 -8.5 -9.5t-7.5 -9.5q-2 -5 -2.5 -10t-1.5 -10q0 -7 -2 -13q-17 -35 -27 -45.5t-27 -10.5q-8 0 -26 3q-13 14 -23.5 38.5t-16 52.5t-5 56.5t9.5 49.5q0 1 8 20t20.5 49t28.5 66.5t32 71t30.5 63.5t24.5 44q8 12 14.5 22.5t12.5 20.5q18 31 34.5 51.5
t48.5 32.5q22 -9 32 -21l2 -11q4 -10 12 -10q11 -3 18.5 -5.5t16.5 -4.5q7 -8 13 -19q8 -12 15.5 -23.5t12 -23t5 -23.5t-4.5 -25l1 -10q5 -9 2 -25q-1 -7 -1 -14.5t2 -16.5q18 -14 32 -14q16 0 29.5 7.5t25.5 15.5q8 6 16 10.5t16 5.5q18 17 32.5 30t30.5 26q30 24 58 52
t45 70q10 6 21 6t23 -5t23 -10q3 -2 5.5 -3t4.5 -2q0 -10 8 -17q4 -3 5 -4t3 -2q15 -8 19 -16q7 -23 25 -35q-2 -10 0.5 -18.5t6.5 -17.5l2 -6t3 -7l-19 2l3 -19q2 -14 -2.5 -31t-10.5 -27q1 -26 1.5 -40.5t-1.5 -27t-5.5 -23.5t-9.5 -24q4 -64 -14.5 -116.5t-38.5 -98.5
q-2 -5 -4.5 -10t-4.5 -10q-9 -3 -16 -6.5z" />
    <glyph glyph-name="n" unicode="n" horiz-adv-x="578" 
d="M205 182q-9 -2 -13 -10.5t-7.5 -17.5t-7 -16.5t-10.5 -7.5q-1 -8 -5.5 -14t-8.5 -12.5t-6 -14t2 -17.5q-8 -6 -10 -17t-4.5 -21t-8.5 -17t-22 -6q-3 -4 -1 -5t3 -7q-11 2 -16.5 -1.5t-13.5 -4.5q-19 6 -31.5 21t-22 33.5t-17 37.5t-14.5 33q3 11 1 21.5t-7 17.5
q49 104 107 222t110 233q23 -9 45.5 -20.5t41 -26.5t31.5 -34.5t17 -43.5q-2 -6 -4.5 -4.5t-4.5 -1.5q4 -5 4.5 -7t0 -4t-0.5 -5.5t3 -9.5q-4 1 -5.5 -1t-6.5 0q4 -11 2.5 -18t-4.5 -12.5t-5 -12t1 -16.5q-3 0 -4.5 -1.5t-2.5 -3t-2.5 -3t-4.5 -0.5q3 -22 2 -44t-1.5 -44.5
t0.5 -47t7 -50.5q36 21 57.5 54t35 74t20.5 88t15 96q9 9 14 22t9 27.5l8 29t10 26.5q15 -2 25.5 -9.5t19.5 -16t19 -16t25 -9.5q12 -17 22 -33t13 -34q-5 -8 -7.5 -18t-5.5 -20t-8 -18.5t-14 -14.5q-3 -26 -7.5 -47.5t-9 -42.5t-7.5 -43.5t-2 -49.5q-8 -23 -17 -49t-14 -47
q-16 -13 -25 -31t-19 -36q-4 -4 -5 -2t-7 3q1 -4 0 -6t-2.5 -3.5t-2 -4.5t1.5 -8q-14 -6 -25 -17t-23.5 -20t-30 -12t-45.5 7q-41 30 -72.5 69t-51.5 93z" />
    <glyph glyph-name="o" unicode="o" horiz-adv-x="644" 
d="M583 300q-1 -12 2 -23t7.5 -21.5t8.5 -21.5t6 -22q2 -14 0 -30.5t-7 -32t-13 -28t-19 -18.5q-14 -18 -34 -28t-37 -24q-11 -7 -24.5 -10t-27.5 -6q-11 -6 -26 -12.5t-31 -12t-32 -8t-28 -1.5q-30 -11 -58.5 -14.5t-66.5 4.5q-36 -5 -66.5 3t-54 25.5t-41 42t-28.5 51.5
q-8 57 4 103.5t34.5 86t51.5 73t56 65.5q6 -2 9.5 0.5t6.5 7t6.5 8.5t8.5 5q7 15 20.5 22.5t21.5 21.5q9 2 15 6t11.5 9t11.5 9.5t14 6.5v11q18 8 26.5 18.5t20.5 25.5q9 1 14.5 1t16.5 2q8 14 14.5 21t19.5 15q12 -6 26.5 -8t25.5 -13q1 -10 6 -15.5t11 -10t11.5 -9.5
t7.5 -14q4 -1 5.5 1t5.5 1q3 -14 7 -18.5t8 -17.5q-5 -10 -7.5 -20.5t-12.5 -15.5q-1 -7 4 -7.5t6 -5.5q1 -9 -3 -13q24 -39 43 -82.5t43 -82.5zM458 205q4 11 10.5 18t7.5 21q-5 8 -6 12.5t-1 14.5q-22 31 -38 66.5t-36 66.5q-2 -4 -7 -8t-11 2q-2 -8 -7 -11.5t-11 -3
t-12.5 3t-11.5 6.5q-29 -23 -58 -45t-52 -51q-4 -2 -5 -1.5t-6 -1.5q-8 -19 -19.5 -34.5t-22.5 -31.5t-19 -34t-9 -42q17 -14 40 -17t47.5 -1t48 6.5t43.5 4.5q42 10 72 26.5t63 33.5z" />
    <glyph glyph-name="p" unicode="p" horiz-adv-x="537" 
d="M377 620q42 -5 75 -17t56 -32q16 -25 30.5 -54t22 -60.5t7 -64.5t-14.5 -67q-29 -36 -70.5 -58.5t-89.5 -36.5t-99.5 -24t-100.5 -20q1 -23 0.5 -48.5t-5 -51t-13.5 -49.5t-24 -44q-17 0 -35 -4.5t-32 -7.5q-7 4 -12.5 7.5t-15.5 4.5q2 10 -5 20.5t-14 21.5t-9.5 21
t9.5 19q-7 7 -7 18q7 12 12.5 33t9 41.5t1.5 37.5t-20 25q1 2 4 2t6 1q-8 6 -9.5 17t-7.5 19q2 5 3 9t7 3q-3 18 0.5 34t10.5 30.5t17 28.5t19 28q7 1 8.5 -2t6.5 1q13 10 18 21t5 25q7 21 17 42.5t22 39.5t26.5 32t30.5 21q12 10 30 18.5t39 13t42.5 5t39.5 -4.5
q5 -2 5.5 2t3.5 4zM336 381q25 11 53.5 17.5t47.5 24.5q-12 11 -35 19.5t-50 10.5t-54.5 -4.5t-47.5 -24.5q-6 -18 -10 -28.5t-11 -25.5q2 -5 6.5 -7.5t6.5 -7.5q23 12 46.5 13.5t47.5 12.5z" />
    <glyph glyph-name="q" unicode="q" horiz-adv-x="640" 
d="M421 49q-61 -27 -130 -44t-147 -22q-42 12 -76 31.5t-57 51.5q1 14 -1 24.5t-4.5 19.5t-3 19t2.5 23q-2 8 -5 15t-5 15q2 38 15 68.5t32 55.5t41.5 46.5t43.5 41.5q5 -5 7 -1.5t10 1.5q0 5 4.5 12.5t10.5 14t13.5 10.5t14.5 3q9 16 26 27.5t34.5 23.5t31.5 26t17 35h17
q-11 16 -10 32t10.5 26.5t26.5 13t39 -8.5q10 -2 13 3.5t10 6.5q38 -17 68.5 -41t54.5 -55q-2 -5 -7.5 -6t0.5 -7q29 -36 51.5 -76.5t41.5 -85.5q5 -34 3 -67.5t-10 -71.5q-14 -29 -35 -50.5t-38 -46.5l15 -33q-1 -6 2.5 -14t7 -16.5t5.5 -16t-1 -12.5q3 -5 11 -3
q-3 -1 -5 -6.5t8 -3.5q-2 -9 -7.5 -20.5t-15 -22t-22.5 -18t-28 -7.5q-17 9 -26.5 17t-22.5 21zM226 287q-36 -30 -66 -70t-48 -88q8 -4 18.5 -5t19.5 -3q48 14 98.5 26t97.5 29q-19 23 -36 45.5t-28 43.5q3 5 5 12t5 13.5t9 11.5t16 5q15 -6 35.5 -7t37.5 -4
q17 -12 29 -28.5t25 -33.5q18 17 31 37t21 46q-5 13 -12.5 30t-17.5 32.5t-22 28t-26 17.5q-7 1 -9 -2.5t-10 -1.5q-45 -32 -90 -63.5t-83 -70.5z" />
    <glyph glyph-name="r" unicode="r" horiz-adv-x="554" 
d="M161 104q-11 -40 -19.5 -60.5t-25.5 -42.5q-13 2 -18 -3t-11 -9q-9 -2 -13 0t-7 4.5t-7.5 5t-13.5 2.5q-2 8 -4.5 15t-13.5 5q2 8 1 13.5t-2.5 10t-2.5 9t1 11.5q-5 0 -8 7t-7 14q3 18 6 34t7.5 30t7.5 28t-3 29q4 -3 6 1.5t3 12t1 15t-1 12.5q10 26 16.5 53.5t12 54.5
t11.5 53t16 48q11 2 24.5 -2.5t16.5 -11.5q26 20 46 48.5t41 55.5t46.5 48t64.5 25q20 -15 44.5 -30.5t40.5 -40.5q8 -4 13.5 -8.5t13.5 -9.5v-12q12 -11 19.5 -25.5t13.5 -31l12 -33t14 -31.5q-2 -5 -2 -8.5t1.5 -7.5t2.5 -8t0 -11q-3 -44 -28.5 -71t-61.5 -44.5t-77 -29.5
t-74 -26q0 -4 3.5 -4t2.5 -5q24 -15 38 -24t26.5 -15t27 -10.5t40.5 -10.5t40.5 -9.5t26.5 -6t24.5 -4t35.5 -3.5q9 -9 15.5 -21.5t8.5 -25t1 -24t-7 -18.5q1 -3 4.5 -2.5t7.5 -0.5q-6 -4 -10 -10l-8 -12t-9 -10.5t-14 -5.5q-31 -12 -78 -1.5t-119 38.5q-36 14 -58.5 24.5
t-39 21t-30 22.5t-32.5 29zM304 447q-11 -16 -24.5 -29t-26 -26.5t-22.5 -30t-14 -38.5q35 4 73 19.5t72 29.5q-4 31 -21.5 50t-36.5 25z" />
    <glyph glyph-name="s" unicode="s" horiz-adv-x="475" 
d="M16 450q7 21 22.5 36t34 25.5t38.5 17.5t38 12q40 17 85.5 32.5t93 27.5t97.5 15.5t105 -12.5q3 -10 9 -19t12.5 -18t11.5 -17.5t6 -17.5q10 -9 16 -19.5t2 -27.5q-10 -8 -19.5 -14.5t-20.5 -11.5q-37 9 -75 6t-68 -5q-9 9 -21.5 9t-26 -4l-27 -8t-25.5 -2
q-10 -8 -24.5 -10.5t-31.5 -4.5q-1 -5 2 -6.5t1 -6.5q6 -7 15.5 -10t20 -6t18.5 -7.5t11 -14.5q15 0 26 -7t18 -17t10.5 -21.5t3.5 -20.5q3 -8 7 -7t9 -4q3 -13 15 -26.5t19 -29.5q2 -25 3 -44.5t-7 -39.5q-15 -37 -41.5 -66t-60 -51.5t-71.5 -38.5t-74 -27q-4 1 -8 0t-2 5
q-8 -7 -17.5 -9t-20.5 -1.5t-22.5 1.5t-21.5 -1q-7 7 -12.5 13.5t-8.5 16.5q-5 0 -4.5 5t-3.5 5q6 10 5.5 11.5t-3 2.5t-4.5 2.5t-1 4.5q4 8 3 18.5t-2 21.5t1.5 21t14.5 16q34 -4 64.5 2.5t57.5 18.5t51.5 26t48.5 25q3 9 8.5 15t11.5 11t11 11t7 15q1 7 -3.5 8.5t-4.5 7.5
l-11 3q-19 11 -43 18.5t-41 16.5q-11 -6 -20.5 -3t-24.5 6q-34 2 -65.5 7t-60.5 18q-2 5 -5 9t-11 2q-6 8 -12 15.5t-11 16.5q2 12 3 20.5t-6 16.5q4 13 6 21t0 21z" />
    <glyph glyph-name="t" unicode="t" horiz-adv-x="491" 
d="M569 481q-25 0 -54 -3.5t-57 -7.5q-20 -3 -38.5 -5t-33.5 -3q-7 -22 -14 -39t-15 -33q-8 -17 -14.5 -34.5t-12.5 -37.5q-10 -16 -16.5 -29.5t-10.5 -30.5q-12 -15 -18 -31.5t-9 -28.5l-4 -12q-6 -6 -7 -9.5t-5 -6.5q-1 -11 -7 -22q-2 -5 -3 -9.5t-1 -6.5q0 -10 -5 -13
q1 -5 0 -10.5t-2 -10.5q-3 -12 -2 -19q3 -4 5.5 -7t3.5 -8q6 -4 9 -5q4 -3 12 -7l9 -10q5 -29 -9 -46q-15 -19 -51 -19h-12q-5 5 -6 8q-8 3 -13 5t-9 8q-13 6 -21 10l-9 5v12q-7 9 -10.5 20t-5.5 22q-2 9 -4.5 17t-6.5 14q-2 58 11 98t27 77q8 20 16 40.5t14 42.5l9 10
q7 16 11.5 26.5t9.5 21.5q3 7 5.5 13.5t4.5 11.5q-6 0 -11 -0.5t-10 -1.5q-6 -1 -11 -1.5t-10 -0.5q-7 0 -10 1q-11 -5 -24 -5h-10q-3 0 -5.5 0.5t-4.5 0.5q-10 0 -16 -3h-23h-10q-2 0 -5 -0.5t-5 -0.5q-7 0 -15 1.5t-17 6.5q-12 16 -16 17l-9 12q-1 6 -3 11.5t-4 12.5
q-4 10 -7.5 21.5t-3.5 27.5q1 8 4 12t5 7l3 15l13 -1h28q32 0 65 2.5t68 5.5q20 2 40.5 4t42.5 4q4 9 8 17l10 5q18 1 25.5 -4.5t12.5 -10.5q22 2 44.5 4.5t45.5 6.5q34 5 68.5 9t66.5 4q14 0 27 -1t24 -3l10 -7q3 -6 8.5 -11t11.5 -10q12 -11 24 -26t9 -44q-8 -12 -12 -14
l-9 -12l-10 1q-6 0 -11 -1.5t-10 -3.5q-4 -2 -8 -3.5t-9 -2.5q-9 0 -14.5 0.5t-11.5 0.5z" />
    <glyph glyph-name="u" unicode="u" horiz-adv-x="599" 
d="M590 569q2 -22 7 -38t11 -31q5 -14 9.5 -27.5t6.5 -32.5q-8 -26 -11.5 -48t-7.5 -46q-16 -35 -31 -62t-24 -47q-5 -5 -8.5 -11.5t-7.5 -13.5q-2 -3 -5 -9t-5 -8l-20 7l-4 -25l-14 -4l-10 -12q-19 -33 -40 -55.5t-47.5 -40t-60 -32.5t-75.5 -33q-17 2 -29.5 2.5t-23.5 1.5
q-19 0 -47 3q-3 8 -9 11t-11 3q-17 8 -25.5 23.5t-16.5 33.5q-5 11 -10 20.5t-11 19.5l17 5l-22 24q-2 3 -5 5.5t-5 5.5l-1 16q-3 69 -2.5 126.5t15.5 102.5v11q3 22 6 36.5t5 27.5q3 22 9 41q14 3 21 11.5t12 15.5q14 1 19 -4t10 -16q5 -9 12.5 -20t22.5 -17
q2 -8 5.5 -16.5t7.5 -18.5q8 -17 14.5 -35.5t7.5 -35.5q-10 -19 -15.5 -44t-7 -50.5t1 -49t8.5 -39.5l6 -13l17 2q30 8 54.5 17.5t45.5 22.5t40 30.5t40 40.5t36.5 52.5t26 61.5t16 63.5t7.5 59.5q17 6 17 24l-2 11q-4 6 0 14q6 19 28 29q16 -10 28.5 -22t23.5 -24z" />
    <glyph glyph-name="v" unicode="v" horiz-adv-x="497" 
d="M333 176q-1 -14 -6.5 -26.5t-13.5 -24t-17.5 -22t-18.5 -18.5q3 -13 0.5 -19.5t-1.5 -19.5q-15 -40 -45.5 -53.5t-57.5 5.5q-11 8 -18.5 20.5t-20.5 15.5q3 17 -3 34t-13 18q-3 21 -9 45t-11 48.5t-8.5 48t-2.5 43.5q1 10 -3.5 18t-6.5 19q-4 23 -2.5 48.5t1.5 48.5
q0 22 -2.5 47.5t-4.5 49t-2 43t5 30.5q6 12 16.5 19.5t19.5 16.5q22 -2 35 -18t10 -30q21 -13 33.5 -33.5t20 -46t10.5 -54t5 -56t4 -52.5t8 -43q37 53 62 94.5t51 79.5t58 77t83 88q10 -1 16.5 -4t11.5 -5t12 -3.5t19 0.5q4 -10 6 -14.5t3.5 -9t4 -11.5t8.5 -20q3 -3 2 -8
t-1.5 -9.5t-0.5 -6.5t5 0q-3 -14 -10.5 -25.5t-6.5 -27.5q-23 -30 -50.5 -62t-55 -66t-52.5 -71.5t-43 -78.5q-5 0 -7.5 -3t-4.5 -6.5t-4.5 -6.5t-6.5 -3z" />
    <glyph glyph-name="w" unicode="w" horiz-adv-x="845" 
d="M563 -13q-35 16 -55.5 47t-40.5 69l-6 12t-6 11l-14 26l-8 16l-12 -11l-18 -16l-10 -10q-26 -24 -52.5 -47.5t-56 -42t-62 -30t-70.5 -12.5l-22 11q-19 10 -32 18t-30 25q-5 9 -8.5 17t-7.5 16q-11 20 -18 36t-14 36q3 14 9 47.5t14.5 73.5t18 80.5t19.5 70.5
q9 26 20.5 55t25 53.5t29.5 42t34 20.5q5 -7 11 -10t11 -5q14 -20 27.5 -34t31.5 -28q-5 -25 -14.5 -55.5t-20 -61t-20.5 -59.5t-16 -50q-6 -17 -10 -38q-9 -37 -17 -101q12 3 26 13t27 21q15 12 30 27q19 19 32 35t24.5 33t23.5 37.5t29 48.5q15 24 31.5 51.5t33 53
t32.5 46.5t29 33q8 -10 20.5 -19t26.5 -14q6 -9 11.5 -16.5t10.5 -13.5q6 -9 11.5 -17t10.5 -16q-1 -7 -3 -18t-4.5 -24t-5.5 -26.5t-6 -25.5l-12 -57t-5.5 -30t-2 -18.5t-0.5 -20.5q-1 -10 1 -20q1 -9 4 -19t8 -18l40 31q17 13 32.5 35.5t30 52t28.5 64.5t28 71
q21 53 42.5 103t41.5 77q22 -14 38.5 -28.5t28.5 -31.5t19.5 -39t10.5 -52q-18 -35 -34.5 -72t-31.5 -74q-20 -48 -41.5 -96t-47.5 -91.5t-58 -80t-74 -61.5q-11 3 -19 3q-16 0 -27 -9z" />
    <glyph glyph-name="x" unicode="x" horiz-adv-x="519" 
d="M347 26q-15 50 -43.5 96t-54.5 79q-41 -31 -77.5 -68.5t-66.5 -80.5q-2 -21 -5 -34.5t-10.5 -22.5t-19 -15.5t-29.5 -13.5q-33 24 -48 59.5t-4 70.5q1 25 12.5 49t28 45.5t35.5 41t36 36.5q3 10 11.5 17.5t18 14.5t19 15t15.5 19q-7 23 -27 46.5t-37 48.5q-2 5 -7.5 3
t-7.5 1q2 13 -5.5 28t-18.5 26q3 11 7 26.5t-2 34.5q0 8 3 15.5t6 14t5 13t-1 12.5q13 2 23 -1t19 -7t16.5 -6t15.5 1q-1 -5 0 -7t3 -3t4 -2.5t2 -4.5q16 -5 35 -21.5t36.5 -36.5t31.5 -40l21 -30q24 15 52 35.5t58 42.5t60.5 41.5t59.5 31.5q17 -8 26.5 -19.5t16 -24
t11.5 -26t14 -23.5q-8 -17 -17.5 -28.5t-13.5 -26.5q-21 -9 -50 -27q-26 -16 -63.5 -43t-90.5 -72q12 -14 20 -27t13 -22q5 -11 9 -20q9 -7 15 -16t11.5 -18.5t12.5 -18t18 -13.5q6 -30 17 -53.5t10 -48.5q-7 -23 -20.5 -38t-19.5 -31l-18 -6t-14 -9z" />
    <glyph glyph-name="y" unicode="y" horiz-adv-x="410" 
d="M320 262q-7 -6 -12 -14.5t-10 -17.5q-5 -11 -11 -21t-15 -18q-5 -15 -10 -23.5t-16 -19.5q-10 -40 -47 -87q-1 -9 -5.5 -17.5t-9.5 -16.5q-2 -3 -4 -6.5t-3 -5.5l-2 -10q-5 -8 -11 -14l-11 -11q-2 -3 -7 -8l-15 -6q-73 10 -89 78l1 10q2 5 3.5 10.5t3.5 11.5q4 14 9.5 28
t16.5 25q2 7 9 22.5t24 46.5q14 24 22 38t13 22q-10 16 -24 29q-13 25 -22.5 48t-14.5 41q-1 13 -3 22t-4 19q-3 11 -5 22t-2 23q-5 7 -6 14l2 10q3 7 1 18.5t-5 23.5q-2 10 -4.5 22t-1.5 24t6.5 22.5t18.5 18.5l17 1q9 -5 17.5 -9.5t16.5 -9.5q11 -5 21 -10t21 -13l7 -14
l13 -11v-11q1 -4 1 -11q0 -13 4 -16l4 -12q0 -14 3 -26.5t6 -23.5t6 -23t1 -26q6 3 10 7q2 2 4 3t4 3l59 80l-2 10l21 20q8 8 15.5 15t12.5 15l11 8q32 50 91 62l14 2l4 -13q4 -11 16.5 -20t26.5 -17l9 -6q5 -10 5 -15t-1 -9l4 -10q-8 -24 -19.5 -35t-22.5 -20
q-9 -8 -16.5 -14.5t-11.5 -16.5l-7 -8q-21 -12 -27 -32l-3 -12h-12q-1 0 -4.5 -3.5t-10.5 -17.5q-7 -10 -10 -13l-5 -5q-1 -4 -2.5 -7.5t-3.5 -8.5q-13 -13 -16 -19.5t-7 -14.5t-7.5 -15.5t-11.5 -15.5z" />
    <glyph glyph-name="z" unicode="z" horiz-adv-x="561" 
d="M108 -39q-5 2 -11 4l-12 22l-16 -12q-7 4 -11 7.5t-9 8.5q-11 8 -19 16.5t-9 16.5l-1 10l-10 2q-5 14 -8 20.5t-10 10.5q-6 50 4 83.5t30 71.5q12 4 21.5 11t17.5 14t16 12.5t15 6.5l9 5q17 20 41 35.5t50 31.5q21 12 42.5 25.5t38.5 29.5q8 -1 14 3q4 5 4 13
q2 2 4.5 3.5t4.5 3.5q7 5 19 12t16 18l22 21l-30 -1q-23 -1 -48.5 -3t-43.5 -4q-15 -2 -31 -2.5t-35 -1.5q-31 20 -44.5 59.5t-1.5 77.5q7 1 12 3.5t10 4.5q9 1 12 0t8 -1q28 5 46.5 6.5t34.5 1.5q17 0 33 -1.5t31 -6.5q35 0 71 3t74 -5q27 9 53.5 5t46.5 -24
q1 -17 8.5 -25.5t19.5 -12.5q8 -29 1.5 -51t-21.5 -39t-35.5 -30.5t-40.5 -25.5q-6 -9 -14.5 -14.5t-15.5 -13.5q-33 -42 -75.5 -73.5t-87.5 -60.5q-32 -21 -63.5 -42.5t-60.5 -46.5l-10 -9l9 -10q12 -12 28 -12q9 0 17.5 2.5t16.5 5.5q8 2 14 4.5t11 2.5h13q8 5 16 8t16 5
t15 4t15 7q22 0 41.5 6t39.5 14q12 5 23.5 9t23.5 6q4 -5 9.5 -8.5t10.5 -6.5q13 -8 14 -15l3 -28l19 19q12 -10 13 -22.5t-3 -32.5q-32 -32 -80 -50t-102 -35q-11 -3 -22.5 -6t-22.5 -7l1 17l-22 -14q-4 -3 -6.5 -6t-4.5 -6q-26 -7 -43 -10t-32 -6q-17 -4 -32 -6.5
t-32 -2.5h-11t-12 1z" />
    <glyph glyph-name="braceleft" unicode="{" horiz-adv-x="459" 
d="M509 -32q18 -5 23.5 -14t3 -20t-9.5 -22.5t-14 -20.5q-9 2 -17 -4t-14 -14q-27 4 -54.5 1t-50.5 -6q-4 0 -3.5 -4.5t-2.5 -5.5q-29 10 -60 7.5t-63.5 -9.5t-66 -15.5t-67.5 -9.5q-13 9 -21.5 22.5t-14 29t-9 32t-6.5 31.5q-1 11 3.5 17.5t10.5 11.5q14 58 33 116.5
t36 114.5q5 15 7.5 28.5t6.5 27.5q-21 14 -43 31t-42 29q1 8 -10 18t-23 11q1 14 -6.5 24.5t-11.5 24.5q-8 32 6 60t43 34q9 -5 14 -4t13 -5q14 14 33 27t37 8q1 4 3.5 6t5 3t5 3t2.5 7q15 4 29.5 9.5t28.5 13.5q8 30 15.5 58t14.5 56.5t13.5 60t12.5 68.5q1 18 -2 33
q-2 9 -4 15t-7 10q8 2 12 13t0 16q16 5 34.5 6.5t36.5 3t34 4t28 9.5q50 2 104 4.5t101 4.5q16 -5 39 -5.5t45.5 -3.5t40.5 -12.5t25 -33.5q15 -2 21.5 -7.5t8.5 -14t1 -18t-1 -19.5q-25 -19 -69 -26.5t-92 -10.5t-93 -3t-71 -4q-14 -2 -27 -3.5t-24 -3.5q-6 -29 -16.5 -75
t-21 -91t-19 -79t-11.5 -38t-16.5 -10t-33.5 -15.5t-46 -22.5t-54 -29q10 -9 28.5 -19.5t36.5 -21t32 -19.5t16 -14q1 -6 0 -14.5t-3.5 -17.5t-4.5 -16t-2 -8q-15 -47 -25.5 -80.5t-19 -63t-17.5 -58.5t-22 -68q17 3 48 6q26 2 69 4t109 2q1 -10 8 -14.5t14.5 -7.5t13.5 -7
t6 -14z" />
    <glyph glyph-name="bar" unicode="|" horiz-adv-x="340" 
d="M234 321q-8 -19 -15 -46t-15 -54.5t-19 -53.5t-27 -43q-2 -5 1.5 -9.5t5.5 -9.5q-11 -9 -16 -20t-7 -22t-3 -22t-5 -20q-8 -4 -15 -10t-13.5 -12t-14.5 -11t-19 -7q-20 7 -31.5 14.5t-27.5 15.5q-12 18 -12.5 39t6 42t17 40t19.5 33l14 32t15 36.5t16 42t14 38.5
q0 18 11.5 49t24.5 64.5t23 63t6 43.5q12 18 22 53t22 70.5t28 64t40 34.5q27 -29 40.5 -62t20.5 -78q-5 -14 -14 -37.5t-20.5 -52.5t-23.5 -60t-22.5 -59.5t-17.5 -51t-8 -34.5z" />
    <glyph glyph-name="braceright" unicode="}" horiz-adv-x="493" 
d="M452 404q0 -14 7.5 -24.5t10.5 -23.5q8 -33 -6 -60.5t-43 -33.5q-9 5 -14 4t-13 5q-14 -14 -32.5 -27t-37.5 -8q-2 -9 -8 -9t-8 -10q-15 -4 -26 -12.5t-25 -16.5q-11 -36 -20 -64.5t-17.5 -56.5t-18.5 -58.5t-24 -70.5q-1 -12 -8.5 -24.5t-15.5 -22.5q-9 2 -16.5 -4
t-14.5 -14q-27 4 -54.5 1t-50.5 -6q-4 0 -3.5 -4.5t-2.5 -5.5q-29 10 -60 7.5t-63.5 -9.5t-66 -15.5t-67.5 -9.5q-13 9 -21 22.5t-13.5 29t-9.5 32t-7 31.5q0 14 6 20t12 13q23 1 41.5 3.5t35.5 5l34 5t38 2.5q7 4 25.5 6.5t42.5 4.5t50.5 3t50.5 1q12 42 26.5 82.5
t25.5 80.5q7 25 14 51.5t14 48.5q3 4 16.5 11.5t34.5 18l47 23.5t54 30q-10 9 -28.5 19.5t-36.5 21t-32.5 19.5t-15.5 15q-2 5 1 16t7 22.5t7.5 20.5t3.5 11q9 34 19 64t19.5 61.5t18 66.5t15.5 79q-39 4 -72.5 3.5t-53.5 -3.5q-48 -8 -74 -14.5t-36 -11.5q-17 1 -27 7.5
t-16 16.5t-10.5 22t-10.5 25q4 9 2 25.5t-10 24.5q7 2 10.5 13.5t0.5 16.5q15 5 31 6.5l32 3t30.5 4t25.5 9.5q44 2 91.5 5t89.5 5q15 -5 35 -5.5t39.5 -3.5t36 -12t22.5 -33q13 -2 18.5 -7.5t7.5 -14t1.5 -18t-0.5 -19.5q-9 -27 -14.5 -55.5t-13 -61t-15.5 -67.5t-17 -69
q-4 -15 -9 -36t-9 -35q22 -14 44 -31t42 -29q-1 -8 9.5 -17.5t22.5 -11.5z" />
    <glyph glyph-name="asciitilde" unicode="~" horiz-adv-x="595" 
d="M33 219q-15 1 -24 7.5t-9 17.5q0 10 9 18q6 15 12.5 24.5t13.5 19.5l20 28t22 28q6 5 10 7q11 8 22 15.5t25 12.5q25 9 49 9.5t41 -0.5q14 -1 26.5 -2.5t21.5 -3.5q15 -7 24.5 -13t18.5 -14q11 -6 17.5 -12.5t11.5 -13.5q3 -4 12 -13t22 -9q12 0 20.5 11t17.5 19
q8 21 26 32q8 4 13.5 5t10.5 2q3 1 6 1.5t5 1.5l11 1h13q17 5 30 5q15 -1 24 -7.5t9 -17.5t-9 -18q-6 -16 -12.5 -25t-13.5 -19l-20 -28t-23 -28q-4 -5 -10 -7q-10 -8 -21 -15.5t-25 -12.5q-26 -9 -49.5 -9.5t-40.5 0.5q-14 1 -26.5 2.5t-22.5 3.5q-14 7 -24 13t-19 13
q-11 7 -17 13.5t-11 13.5q-3 4 -13 13.5t-21 8.5t-20.5 -11.5t-18.5 -18.5q-6 -20 -25 -32q-8 -4 -13.5 -5t-10.5 -2q-3 -1 -6 -1.5t-5 -1.5l-11 -1h-13q-17 -5 -30 -5z" />
    <glyph glyph-name="uni00A0" unicode="&#xa0;" horiz-adv-x="379" 
 />
    <glyph glyph-name="exclamdown" unicode="&#xa1;" horiz-adv-x="267" 
d="M-9 45q0 9 2.5 22t4.5 25.5t1 23t-9 13.5q18 53 24.5 89t11 69t11 68.5t24.5 87.5q11 32 27.5 44.5t34.5 12.5t37 -10t35 -22q3 -19 0.5 -46.5t-6.5 -57.5t-8.5 -57.5t-5.5 -46.5q-10 -11 -14 -18t-5.5 -15t-2.5 -20t-5 -34q-2 -11 1.5 -19.5t1.5 -16.5q-2 -4 -6.5 -6
t-6.5 -7q-3 -13 -1 -20.5t-4 -18.5q-4 -8 -12 -25.5t-6 -36.5q-9 -7 -16.5 -15.5t-16.5 -16t-19.5 -13t-25.5 -5.5q-8 10 -11.5 20.5t-7.5 19.5t-9.5 17t-17.5 15zM90 613q-3 16 -6 30q7 21 14 38q2 7 3 9t1 3t-0.5 2.5t-0.5 8.5l4 13q5 6 12 10t14 7q3 2 6.5 3.5t5.5 3.5
l3 12l13 2q17 4 29 4h12q12 -11 19 -17t15 -11q10 -14 11 -20.5t3 -12.5q1 -14 5 -17l14 -14l-12 -9l11 -19q-12 -9 -18 -13t-10 -8.5t-9.5 -11.5t-15.5 -23l-9 -13l-13 8q-4 2 -17.5 4.5t-23.5 5.5q-17 4 -32 6.5t-24 11.5z" />
    <glyph glyph-name="cent" unicode="&#xa2;" horiz-adv-x="500" 
d="M319 106l-28 2t-28 3q-2 -10 -2 -11q-11 -9 -15.5 -20t-6.5 -22t-3 -22t-5 -20q-8 -4 -15 -10t-13.5 -12t-14.5 -11t-19 -7q-20 7 -31.5 14.5t-27.5 15.5q-10 15 -12 32t1.5 34t11 34t15.5 31h10q-6 1 -11 4q-9 8 -18.5 16.5t-24.5 11.5q-22 16 -36.5 39.5t-22.5 50
t-10.5 54.5t-1.5 53q14 38 39.5 66t51.5 55q12 5 18.5 10.5t13 10.5t13.5 9.5t12 11.5q26 5 44 17t37 23q9 23 16.5 52.5t18 56.5t24 47.5t34.5 25.5q24 -26 37 -54.5t20 -65.5q4 0 7 -2.5t5.5 -4.5t4.5 -2.5t4 4.5q5 0 3 -4.5t-3 -5.5q8 1 13 -3t16 -5q4 -4 2 -6t-2 -7
q28 -8 35 -25t1 -35t-22.5 -33t-36.5 -20q-45 -11 -84 -24t-65 -39q-22 -6 -39.5 -16t-32.5 -22t-28.5 -25.5t-28.5 -25.5q1 -12 -4 -18.5t-10 -13.5q2 -14 7 -23t10 -19q62 -17 131 -21t138 -5q7 -9 15.5 -16t16 -15.5t12 -18.5t2.5 -24q-14 -12 -29.5 -22.5t-30.5 -21.5
q-15 -2 -37.5 0t-40.5 -6z" />
    <glyph glyph-name="sterling" unicode="&#xa3;" horiz-adv-x="601" 
d="M492 106q-33 -4 -73 -12q-19 -4 -32.5 -6t-25.5 -3.5t-24.5 -2t-30.5 -0.5h-11.5t-11.5 1q-2 -4 -5.5 -5t-5.5 -1q-10 1 -13 4q-28 -5 -51.5 -6.5t-41.5 -1.5h-35q-6 1 -14 1q-2 0 -4.5 0.5l-7.5 1.5q-14 2 -25 3.5t-23 1.5l-15 -1l-3 10l-8 10q-2 5 -6 9l-9 9
q-10 9 -19 22.5t-7 38.5l7 10q5 2 12 9l8 8q12 1 19.5 1.5t15.5 0.5q12 0 23.5 -0.5t24.5 -1.5q5 26 9 45t10 40q-10 1 -18 -1.5t-13 -4.5q-17 1 -27 7t-16 14.5t-10.5 19.5t-10.5 22q4 8 2 22.5t-10 22.5q7 1 10.5 11t0.5 15q15 4 31 5.5t32 2.5t30 3.5t25 8.5h10
q12 36 25.5 69t27.5 62q25 29 49 50t53 30q15 3 26 5t23 5q5 2 9.5 2.5t9.5 2.5q15 -3 28.5 -4.5t24.5 -1.5l13 -3l15 -6t9.5 -3.5t10 -2t17.5 -1.5q15 5 27 5q9 0 18.5 -3t19.5 -11.5t18.5 -23t15.5 -38.5q-2 -20 -5.5 -33.5t-6.5 -21.5q-15 -10 -23 -12t-17 -2
q-18 0 -35 6t-34 13q-8 3 -11 4.5l-5 2.5t-5 1h-10q-4 0 -7.5 -0.5t-8.5 -1.5q-14 5 -23 5q-5 0 -11.5 -2t-13.5 -4q-6 -2 -10.5 -3t-9.5 -2l-8 -8q-8 -3 -12.5 -7t-7.5 -9t-6 -11t-8 -13q-4 -5 -7.5 -9.5t-8.5 -9.5q7 -9 13.5 -9t12.5 1q15 -5 35.5 -5.5t40 -3t35.5 -11
t22 -29.5q13 -1 19 -6t8 -12.5t1.5 -16t-0.5 -17.5q-17 -12 -44 -19t-59 -10t-65 -4t-62 -2q-6 -28 -10.5 -54t-7.5 -47q33 0 48.5 0.5t28.5 2t27 4.5t36 7l14 3q16 8 30.5 14t28.5 6q25 0 43 -20q18 -10 21 -33q5 -6 4 -13q3 -12 3.5 -21.5t0.5 -17.5l-1 -14l-12 1
q-5 -5 -7 -7.5t-3 -6.5z" />
    <glyph glyph-name="currency" unicode="&#xa4;" horiz-adv-x="522" 
d="M512 468q-7 -14 -15 -23.5t-11 -23.5q-17 -6 -39 -20t-45 -31l10 -18l10 -18l2 -11q0 -5 2 -11t4 -13q6 -12 9 -27q3 -21 -5 -46t-25 -38q-2 -2 -4.5 -4t-4.5 -4q6 -21 14 -39t7 -37q-6 -19 -17 -31t-16 -26q-8 -2 -15.5 -4.5t-12.5 -7.5l-47 34q-9 29 -24 58
q-18 -6 -36 -6q-13 -4 -26 -7t-28 -3q-14 0 -29 3q-4 0 -7.5 -0.5t-8.5 -0.5q-12 0 -24 3q-5 -6 -9.5 -12.5t-9.5 -12.5q-2 -35 -13 -48t-41 -24q-27 20 -39.5 49.5t-3.5 58.5q1 18 7.5 34.5t17.5 32.5l-4 12q-5 33 1 61t17 52t26.5 44t30.5 38q-4 8 -8.5 6.5t-6.5 1.5
q2 11 -4.5 24t-15.5 21q3 9 6 22.5t-2 28.5q0 7 2.5 13l5 12t4 11t-0.5 10q10 1 18.5 -1.5t16 -5.5t14 -5t13.5 1q-2 -8 2.5 -8.5t4.5 -5.5q11 -3 24 -13.5t26 -24.5q11 10 14.5 13.5t8.5 10.5l16 11l10 1q5 7 9.5 11.5t12.5 9.5l18 1q15 -5 22.5 -7t14.5 -10l5 -11
q8 -5 12 -9t7 -10l8 -6q22 16 44 30t44 22q14 -6 22 -16t13 -20.5t9.5 -21t12.5 -19.5zM297 288v13q-5 7 -9 14.5t-8 15.5q-2 5 -4 8.5t-4 7.5q-8 -4 -12 -4t-10 2q-17 -13 -25.5 -20t-16.5 -17q-9 -9 -12 -13.5t-6 -9.5q-5 -7 -9 -13t-6 -14q6 -3 16 -3q6 0 13 1t15 2
q10 2 16 2q4 4 11 4q10 1 20 5.5t21 10.5q10 7 10 8z" />
    <glyph glyph-name="yen" unicode="&#xa5;" horiz-adv-x="577" 
d="M161 641q9 -5 17.5 -9.5t16.5 -8.5q11 -6 21 -11t21 -12l9 -6q-1 -11 0 -13l2 -4l10 -14v-11q0 -8 1 -11t3 -5l5 -12q0 -14 2.5 -26.5t6.5 -23.5q3 -11 5.5 -23t1.5 -26q6 4 10 7q2 2 8 6l58 80l-1 10l21 20q8 8 15.5 15t12.5 15l11 8q32 50 91 62l14 3l4 -14
q4 -11 16.5 -20t26.5 -17l9 -6q5 -10 5 -15t-1 -9l4 -10q-9 -24 -20 -35t-22 -20q-9 -8 -16.5 -14.5t-12.5 -16.5l-7 -8q-20 -12 -26 -32l-3 -12h-13q-1 0 -4 -3.5t-10 -17.5q-7 -10 -10 -13l-5 -5q-2 -4 -3 -7.5t-3 -8.5q-9 -10 -15 -18q15 -1 29.5 -2.5t27 -6t22 -13
t14.5 -22.5q15 -1 21.5 -6.5t8.5 -13t1.5 -16t-0.5 -17.5q-15 -10 -37.5 -16.5t-49.5 -10.5t-56.5 -5.5t-58.5 -1.5q-7 -17 -12 -25.5t-16 -19.5q-10 -40 -47 -87q-1 -9 -5.5 -17.5t-9.5 -16.5q-5 -7 -7 -12l-3 -10q-5 -8 -10.5 -14t-10.5 -11l-4 -4l-4 -4l-14 -6
q-73 10 -89 78l1 10q2 5 3.5 10.5t3.5 11.5q4 14 9.5 28t16.5 25q2 6 7.5 18t17.5 35q-58 -9 -74 -16q-19 1 -30 7t-18 15t-12 20t-12 23q4 8 1.5 23t-11.5 22q8 2 12 12t0 15q16 4 34.5 5.5t36.5 2.5t34 3.5t28 8.5h12q-6 14 -11 28t-8 26q-1 12 -3 21t-4 19q-3 11 -5.5 22
t-1.5 23q-5 6 -6 14l1 10q4 7 2 18.5t-5 23.5q-3 10 -5 22t-1 24t6.5 22.5t18.5 18.5z" />
    <glyph glyph-name="brokenbar" unicode="&#xa6;" horiz-adv-x="309" 
d="M157 545q12 18 21 51t20 66.5t26.5 60.5t39.5 33q27 -29 40 -62t21 -78q-8 -23 -25.5 -65.5t-37.5 -94.5q-1 -8 -1.5 -15.5t-2.5 -14.5q-8 -4 -13.5 -10t-11.5 -12t-13 -11.5t-17 -8.5q-19 5 -30 11t-27 13q-12 15 -14 32.5t1 35.5t10 35.5t15 31.5zM97 301
q14 3 29.5 -1.5t29.5 -13t24 -18.5t13 -17q2 -8 -1 -22q-2 -13 -10 -34t-24 -55q-1 -5 -5.5 -17.5t-3.5 -17.5q-11 -9 -15.5 -20t-6.5 -22t-3 -22t-5 -20q-9 -4 -15.5 -10t-13.5 -12t-15 -11t-19 -7q-20 7 -31 14.5t-28 15.5q-12 18 -12 39t6 42t16.5 40t19.5 33
q20 55 32.5 80t20.5 38q10 14 17 18z" />
    <glyph glyph-name="section" unicode="&#xa7;" horiz-adv-x="646" 
d="M548 5q-10 -4 -16.5 -12t-14.5 -15q-109 -35 -209 -57.5t-204 -17.5q-9 8 -19.5 14.5t-25.5 9.5q-5 11 -12.5 19.5l-15 17t-14 18t-7.5 23.5q7 5 7 7.5t11 8.5q2 4 1 6t-2.5 3.5t-2.5 3t0 5.5q18 8 32.5 20.5t34.5 18.5q12 -7 29.5 -8.5t27.5 -9.5q13 2 19.5 1t20.5 -1
q36 4 63.5 8t57.5 13q17 -1 30.5 1.5t20.5 13.5q-38 29 -86.5 47.5t-94.5 40.5q-14 12 -31 24.5t-32 17.5q-6 15 -18.5 27t-24.5 23.5t-20 25t-5 33.5q-2 7 -8 9.5t-4 11.5q11 48 41 86.5t76 55.5q-29 19 -47.5 49t-20.5 72q5 23 10 43t2 41q11 5 17.5 13t14.5 15
q108 35 208.5 57t204.5 18q9 -8 19.5 -15t25.5 -9q5 -11 12.5 -19.5l15 -17t13.5 -18.5t8 -24q-4 -2 -5 -3.5t-2.5 -3l-3.5 -3.5t-7 -5q-2 -4 -1.5 -6t2 -3.5l3 -3t0.5 -5.5q-18 -8 -32.5 -21t-34.5 -18q-12 7 -30 8.5t-28 9.5q-12 -3 -18.5 -1.5t-20.5 1.5
q-36 -5 -63.5 -8.5t-57.5 -12.5q-17 0 -30.5 -2t-20.5 -13q18 -15 40 -26.5t46 -21.5t48 -19.5t47 -20.5q14 -12 31 -24.5t32 -17.5q6 -16 18.5 -27.5t24.5 -23t20 -25.5t5 -33q2 -7 7.5 -10t4.5 -11q-11 -48 -41.5 -86.5t-75.5 -55.5q29 -20 47.5 -49.5t20.5 -71.5
q-5 -23 -10 -43t-3 -42zM345 316q25 12 53 20t52 20q-2 10 -10.5 15.5t-19 9t-20 7.5t-14.5 13q-18 -1 -37.5 -5.5t-36.5 -9.5q-3 2 -5 3.5t-6 2.5q-25 -11 -53 -19t-52 -20q2 -11 10.5 -16t18.5 -9t19.5 -8t14.5 -12q19 1 38 5t36 9q4 -1 6 -2.5t6 -3.5z" />
    <glyph glyph-name="dieresis" unicode="&#xa8;" 
d="M669 674l1 -11q-7 -12 -11.5 -20t-6.5 -17q-11 -11 -17 -13.5t-11 -4.5q-11 -4 -15 -8l-10 -15l-10 9l-15 -14q-11 9 -16 13.5t-9.5 7.5t-12 6.5t-23.5 10.5l-14 5l4 13q2 5 1.5 18t0.5 22q1 16 0 30t5 25q21 11 33 15q10 -1 19 -2l18 -2q7 -1 9 -1.5t2.5 -0.5t2.5 0.5
t8 2.5l12 -2q7 -3 11.5 -8.5t9.5 -10.5q4 -8 8 -10l12 -1l4 -12q5 -10 6.5 -14.5zM370 713q11 -12 22 -22t13 -22q-4 -16 -6.5 -22t-5.5 -13q-13 -11 -30 -23q-6 -5 -8 -6t-2.5 -1.5t-1 -2t-3.5 -7.5l-10 -7q-8 -3 -15 -2.5t-14 1.5q-3 0 -7.5 0.5t-6.5 0.5l-8 -8l-12 5
q-11 5 -15.5 6.5t-9.5 5.5l-9 6q-4 15 -6.5 23.5t-6.5 16.5q0 17 2 23t4 11q6 11 5 16l-4 18l15 1v21q14 1 21 1t13 1.5t13.5 4.5t24.5 10l14 6l6 -13q2 -4 11.5 -13t16.5 -16z" />
    <glyph glyph-name="copyright" unicode="&#xa9;" horiz-adv-x="629" 
d="M458 709q39 -17 66 -41.5t56 -55.5q12 -26 21 -56t19 -56q5 -42 3.5 -78.5t-3.5 -63.5q0 -11 -10 -10q-5 -35 -23.5 -60.5t-40.5 -49.5l-82 -76q-23 -10 -44.5 -21.5t-44.5 -20.5t-49 -12t-56 5q-5 -1 -8 -2t-11 0q-17 4 -31.5 8.5t-32.5 10.5q-6 2 -9.5 6t-8.5 7
q-40 14 -64.5 37t-42 48.5t-28 51.5t-13.5 49q-3 60 10.5 108t38.5 92h10q-1 2 -4.5 2t-4.5 3q3 8 8.5 15t11.5 13.5t10.5 14.5t5.5 18q21 15 36.5 33t29.5 37q16 3 28 15l23 23q9 1 20 5t22.5 7t23 3.5t22.5 -3.5q7 13 25 20.5t40 7.5t44 -8.5t37 -25.5zM508 334
q13 26 20 53t6.5 57.5t-9.5 65.5t-29 79q5 0 2.5 3.5t-6.5 7.5t-6 6.5t4 -0.5q-8 7 -12.5 12.5t-7.5 10t-5.5 10t-7.5 14.5q-15 8 -30 12t-24 -1l-95 -34q-17 -6 -31 -12.5t-20 -18.5q-6 2 -6.5 -0.5t-8.5 -0.5q-40 -45 -70 -94t-50 -107q2 -8 -3 -14.5t1 -14.5
q-5 0 -3.5 -2.5t4 -5.5t4 -6t-1.5 -3q5 -16 7 -33.5t7 -36.5t15 -38.5t30 -39.5q16 -5 34.5 -10.5t36 -8.5t31.5 -3.5t22 4.5q17 5 32 10t26 13q9 6 21.5 11t26 11t23.5 14.5t9 20.5zM462 576q15 -7 17 -19t-4 -24t-17.5 -21.5t-23.5 -12.5q-28 -5 -52 -12t-42 -24
q-27 -6 -46.5 -22.5t-39.5 -32.5q-2 -8 -5.5 -12t-7.5 -9q-1 -9 1 -16l4 -14q33 -15 72.5 -21t79.5 -10q3 -6 7 -11.5t7 -11.5t4.5 -13t-1.5 -17q-10 -8 -20 -14.5t-21 -13.5q-8 0 -21 2.5t-24 -2.5q-29 4 -57 13t-51 21q-4 6 -8.5 12.5t-12.5 9.5q-11 12 -16 28.5
t-6.5 35.5t0.5 38t6 37q14 26 32 43.5t37 34.5q10 9 20 13.5t18 12.5q23 4 40 17t40 17q11 10 25.5 13t23.5 14q2 -5 7 -4l10 2q3 0 4.5 -1.5t2.5 -3.5t2 -2t3 3q4 -7 6 -10t8 -4z" />
    <glyph glyph-name="ordfeminine" unicode="&#xaa;" horiz-adv-x="465" 
d="M131 245q-5 -6 -11.5 -9.5t-11.5 -6.5l-15 -12q-9 -2 -11 -2q-8 -2 -18 -2l-21 5q-11 9 -18 14l-11 10q-4 9 -5 14t-2 9l-6 8l1 22l2 15q14 34 29.5 65t32.5 63l9.5 19l9.5 19q0 7 3 13q9 15 13.5 23t9.5 17q5 11 11.5 23t16.5 24l22 12q8 2 16 2l11 -1q12 11 23.5 23.5
t22.5 29.5l7 9l27 6l9 -6q2 -1 7.5 -2t10.5 -2q14 -4 27 -8t23 -13l8 -13q3 -15 5 -24q2 -11 3.5 -22t2.5 -25q3 -11 5.5 -22t4.5 -22t4.5 -21t5.5 -20l15 1l21 -12q10 -4 15.5 -8t9.5 -8l20 -30l-6 -10q-14 -25 -44 -42q2 -13 4 -26.5t0 -27.5q-14 -36 -40.5 -59t-62.5 -25
l-10 2q-7 2 -12 5t-8 5l-12 6l-11 23q-3 7 -5.5 9t-4.5 5l-12 13l9 27q-10 -2 -20.5 -3.5t-22.5 -1.5q-5 0 -11 0.5t-12 1.5l-24 15l-9 -8l-6 -18q-3 -8 -5 -14.5t-2 -11.5l-4 -16zM246 464q-9 -11 -17 -22t-15 -22q11 1 21 1.5t21 2.5q-2 10 -4.5 20t-5.5 20z" />
    <glyph glyph-name="guillemotleft" unicode="&#xab;" horiz-adv-x="580" 
d="M528 430q5 -8 8 -11.5t4.5 -6t3.5 -5.5t5 -9q-2 -10 -2 -16.5t0.5 -11.5t1 -11t0.5 -16q-27 -35 -47.5 -55.5t-40 -35.5t-40.5 -29t-49 -35q12 -14 29.5 -24.5t35.5 -24t33 -33.5t20 -53q6 0 12 -15t4 -35q-5 -7 -9.5 -14.5t-10.5 -10.5q-5 -2 -13.5 2t-19 11t-21 14.5
t-20.5 12.5q-11 5 -22 9.5t-21 12.5q-5 3 -7.5 9t-7.5 8q-9 3 -19 11.5t-20.5 18t-20.5 19.5t-19 18q1 7 -6 15.5t-15 10.5q0 12 -5 21.5t-7 21.5q-5 29 4 53t28 29q6 -4 9.5 -3.5t8.5 -4.5q9 13 21.5 24.5t24.5 6.5q1 8 5 8t6 9q20 7 39 22t37 32.5t35 35t33 31.5
q6 -4 12 0t13 4q-2 -4 -1 -5t3 -1t4.5 -0.5t3.5 -3.5zM239 53q7 0 12.5 -15t3.5 -35q-5 -7 -9 -14.5t-10 -10.5q-6 -2 -14.5 2t-19 11t-21 14.5t-20.5 12.5q-11 5 -22 9.5t-21 12.5q-5 3 -7.5 9t-7.5 8q-9 3 -18.5 11.5t-20 18t-20.5 19.5t-19 18q0 7 -6.5 15.5t-14.5 10.5
q0 12 -5 21.5t-7 21.5q-6 29 3 53t29 29q5 -4 8.5 -3.5t8.5 -4.5q9 13 21.5 24.5t24.5 6.5q2 8 6 8t5 9q20 7 39 22t37 32.5t35 35t33 31.5q7 -4 12.5 0t12.5 4q-2 -4 -1 -5t3 -1t4.5 -0.5t3.5 -3.5q5 -8 8 -11.5t4.5 -6t3.5 -5.5l6 -9q-2 -10 -2.5 -16.5t0.5 -11.5t1.5 -11
t-0.5 -16q-27 -35 -47.5 -55.5t-40 -35.5t-40.5 -29t-48 -35q11 -14 29 -24.5t36 -24t32.5 -33.5t19.5 -53z" />
    <glyph glyph-name="logicalnot" unicode="&#xac;" horiz-adv-x="715" 
d="M491 214q-34 -2 -69.5 -3t-68 -1.5t-61 -1t-47.5 -2.5q-63 -6 -98 -11.5t-49 -10.5q-23 1 -36.5 7t-22 14.5t-14.5 19.5t-14 23q5 8 2.5 23t-13.5 23q9 1 14 11.5t0 15.5q20 4 42 5.5t43.5 2.5t40.5 3.5t34 8.5q60 1 124 3t120 4q19 -5 46 -5.5t53 -3t47.5 -10.5
t31.5 -27q2 -2 4.5 -2.5t4.5 -2.5q17 -2 23 -9t8 -16q4 -6 6 -11q2 -8 -1 -22q-2 -13 -10 -34t-24 -55q-1 -5 -5.5 -17.5t-3.5 -17.5q-11 -9 -15.5 -19.5t-6.5 -22t-3 -22t-5 -19.5q-9 -4 -15.5 -10t-13.5 -12t-15 -11.5t-19 -7.5q-19 8 -30.5 15t-28.5 15q-12 18 -12 39
t6 42t16.5 40t19.5 33q7 17 10 24.5t5 14.5z" />
    <glyph glyph-name="sfthyphen" unicode="&#xad;" horiz-adv-x="623" 
d="M519 298q15 -2 22 -7t9 -12.5t1.5 -16.5t-0.5 -18q-25 -17 -69 -23.5t-92.5 -9t-93.5 -2.5t-71 -3q-53 -6 -83 -11.5t-41 -10.5q-19 1 -30 7t-18 14.5t-12 19.5t-12 23q4 8 2 23t-11 23q8 1 11.5 11.5t0.5 15.5q16 4 34.5 5.5t36.5 2.5t34 3.5t28 8.5q50 1 104 3t100 4
q17 -5 40 -5.5t45 -3t40 -11.5t25 -30z" />
    <glyph glyph-name="registered" unicode="&#xae;" horiz-adv-x="639" 
d="M474 162q-22 -10 -44 -21.5t-45 -20.5t-49 -12t-56 5q-5 -1 -8 -2t-10 0q-17 4 -32 8.5t-33 10.5q-5 2 -9 6t-9 7q-40 14 -64.5 37t-42 48.5t-28 51.5t-13.5 49q-3 60 10.5 108t38.5 92h11q-2 2 -5.5 2t-4.5 3q3 8 8.5 15t11.5 13.5t10.5 14.5t5.5 18q21 15 36.5 33
t29.5 37q16 3 28 15l23 23q9 1 20.5 5t23 7t23 3.5t21.5 -3.5q7 13 25 20.5t40 7.5t44.5 -8.5t37.5 -25.5q38 -17 65.5 -41.5t55.5 -55.5q12 -26 21 -56t19 -56q5 -42 3.5 -78.5t-3.5 -63.5q1 -12 -9 -10q-5 -35 -24 -60.5t-41 -49.5zM317 185q16 5 31.5 10t26.5 13
q9 7 22.5 11.5t27.5 12.5q-12 3 -27 8t-32 12q-21 9 -33.5 15.5t-22 12.5t-17 13t-17.5 17q-9 -23 -15 -35.5t-17 -26.5q-8 2 -10.5 -1.5t-7.5 -5.5q-5 -1 -7 0.5l-4 3t-4.5 2.5t-7.5 1q-1 5 -2 9.5t-8 3.5q4 9 1 13.5t0 12.5q-3 0 -4.5 4.5t-3.5 8.5q3 11 5.5 20t6 17.5
t6 17t-0.5 17.5q2 -2 4 1t3 7.5t1 9v7.5q15 31 22.5 65t21.5 61q7 1 14.5 -1.5t9.5 -7.5q16 12 29.5 29t27 33.5t30 29t39.5 14.5q11 -8 25 -17.5t22 -24.5q4 -2 7 -5t8 -6q5 -13 9 -22t6.5 -19t5 -19.5t6.5 -18.5q-2 -7 0 -10.5t0 -11.5q-4 -27 -20.5 -43t-39 -26.5
t-47 -17.5t-45.5 -15q17 -15 25 -20.5t14.5 -9t15 -6.5t23.5 -6q15 -4 23.5 -6t15.5 -3.5t14.5 -2.5t20.5 -2l24 26q13 26 20 53t6.5 57.5t-9.5 65.5t-29 79q5 0 2.5 3.5t-6.5 7.5t-5.5 6.5t4.5 -0.5q-9 7 -13.5 12.5t-7.5 10t-5.5 10t-7.5 14.5q-15 8 -30 12t-24 -1
l-95 -34q-16 -6 -30 -12.5t-21 -18.5q-6 2 -6 -0.5t-8 -0.5q-41 -45 -71 -94t-50 -107q2 -8 -2.5 -14.5t0.5 -14.5q-5 0 -3.5 -2.5t4 -5.5t4 -6t-1.5 -3q5 -16 7.5 -33.5t7.5 -36.5t14.5 -38.5t29.5 -39.5q16 -5 35 -10.5t36 -8.5t31.5 -3.5t22.5 4.5zM321 442
q21 2 44.5 11.5t44.5 18.5q-1 18 -10.5 29.5t-20.5 15.5q-7 -10 -16 -18t-17 -16t-15 -18t-10 -23z" />
    <glyph glyph-name="macron" unicode="&#xaf;" 
d="M614 708q12 -6 13.5 -14.5t-3 -18.5t-12.5 -20t-15 -18q-7 2 -14 -3t-14 -12q-20 5 -41 4t-39 -2q-3 0 -4 -4t-3 -5q-20 11 -44 10.5t-50 -5t-53 -10t-54 -4.5q-14 19 -13 49t3 59q3 12 9 18t12 11q18 0 32.5 0.5t28 2t27 2.5t29.5 1q9 3 32 5q20 2 55.5 1.5t95.5 -5.5
q-1 -10 3 -14.5t9 -7.5t8.5 -7t1.5 -13z" />
    <glyph glyph-name="degree" unicode="&#xb0;" horiz-adv-x="291" 
d="M331 548q-5 -7 -11 -8t-14 -3q-11 -7 -28.5 -13t-30.5 -4q-15 -5 -29 -7.5t-34 2.5q-37 -5 -61 14.5t-35 46.5q-4 29 2 52.5t17.5 43.5t26 37t28.5 33q5 -2 8 3t8 7q3 8 10 11.5t11 10.5q8 2 13 8t13 8l13.5 15t9.5 13h8t8 1q5 7 8 10.5t9 7.5q6 -3 13.5 -4t12.5 -6
q1 -11 9 -13.5t10 -11.5q7 -6 9 -8.5t4 -8.5q-2 -5 -4 -10.5t-7 -8.5q6 -9 4 -13q12 -20 21.5 -41t22.5 -41q-2 -12 3.5 -23t7.5 -22q3 -18 -1.5 -29t-12.5 -19.5t-19 -16t-22 -16.5zM267 642q2 10 2 13q-5 6 -7.5 13t-7.5 13q-4 -4 -6.5 -4t-4.5 2q-6 -5 -11.5 -9
t-10.5 -10q-5 -8 -10 -13t-5 -15q6 -5 16.5 -3t18.5 2q8 2 13.5 5t12.5 6z" />
    <glyph glyph-name="plusminus" unicode="&#xb1;" horiz-adv-x="573" 
d="M541 462q15 -2 21.5 -7t8.5 -12.5t1.5 -16.5t-0.5 -18q-15 -10 -38 -16.5t-50 -10t-56.5 -5t-57.5 -2.5q-5 -28 -12.5 -59.5t-22.5 -76.5q-14 -31 -32 -43.5t-38 -12.5t-40 9.5t-38 21.5q-2 13 -1 31t3.5 38t6 41t6.5 41q-32 -5 -51.5 -9t-27.5 -8q-19 1 -30 7t-18.5 15
t-12.5 20t-12 23q5 8 2.5 23t-11.5 22q8 2 11.5 12t0.5 15q16 4 34.5 5.5t36.5 2.5t34 3.5t28 8.5q13 1 26 1t27 1q3 13 -1 21.5t-2 16.5q2 4 7 6t7 7q4 13 1.5 20.5t4.5 19.5l12.5 25t6.5 36q10 7 18.5 16t18 16.5t21 13t28.5 5.5q9 -11 13.5 -21t8.5 -19.5t10.5 -17.5
t19.5 -14q0 -9 -3 -22t-5 -26t-1 -23.5t10 -13.5q-4 -11 -7.5 -21.5t-6.5 -20.5q17 -3 39 -3.5t42 -4t36.5 -12t23.5 -28.5zM469 93q15 -2 21.5 -7t9 -12.5t1.5 -16t-1 -17.5q-17 -11 -42.5 -18t-55.5 -10.5t-63 -5t-63.5 -2t-57 -1t-44.5 -2.5q-53 -6 -82.5 -11.5
t-40.5 -10.5q-19 1 -30 7t-18 15t-12 20t-12 23q4 8 2 22.5t-12 22.5q8 2 12 12t0 15q16 4 34.5 5.5t36.5 2.5t34.5 3.5t28.5 8.5q49 1 103 3t101 4q16 -5 39 -5.5t45.5 -3t40.5 -11.5t25 -30z" />
    <glyph glyph-name="twosuperior" unicode="&#xb2;" horiz-adv-x="396" 
d="M431 469q11 -8 14 -17.5t1 -18.5q-3 -15 -17 -26t-31 -11l-14 -7q-20 -3 -41 -6.5t-44 -7.5q-29 -5 -58.5 -10t-59.5 -8q-9 1 -11 2q-18 0 -33.5 2.5t-29.5 7.5q-19 13 -26 28.5t-8.5 32t0.5 32t7 26.5q31 36 59.5 63.5t66.5 48.5q6 6 9 8q-12 -2 -23 -4t-21 -4
q-5 -2 -9.5 -2.5t-9.5 -1.5l-10 1q-6 2 -15 2q-5 1 -11.5 2t-12.5 3q-20 13 -22.5 27t-2.5 25v6t-1 5l1 18q6 8 9.5 14t8.5 11l10 6q27 6 55 9.5t54 3.5q77 0 121 -30l9 -12q1 -5 4 -9t13 -8l10 -7q8 -12 12 -22.5t6 -22.5l-1 -11q-11 -26 -31 -44t-41 -34q-5 -4 -11 -7
t-11 -6q-5 -2 -9 -4.5t-7 -4.5q-2 -2 -3.5 -5.5t-5.5 -6.5q-3 -2 -6.5 -4.5t-6.5 -4.5q3 1 11 1q15 4 32 7t34 3q29 10 52 10q3 0 6 -0.5t5 -0.5q12 -3 16.5 -7.5t6.5 -7.5z" />
    <glyph glyph-name="threesuperior" unicode="&#xb3;" horiz-adv-x="375" 
d="M405 453q-2 -9 -5 -14.5t-5 -10.5q-2 -2 -3 -4.5t-3 -5.5l-10 -10q-11 -6 -17 -13l-15 -8q-26 -14 -61.5 -22t-78.5 -8q-10 0 -20 0.5t-21 1.5q-11 4 -13 6l-12 8q-10 11 -13 15l-1 19q2 3 2 8.5v11.5t1 13.5t4 15t8.5 13.5t15.5 10q15 1 23 -5l38 2t36 4q-5 2 -10 3
t-10 3q-26 7 -51 17.5t-36 36.5l-1 29v11h-15t-7 1q-8 1 -16.5 2.5t-16.5 6.5l-9 11q-7 17 -10.5 30t2.5 27l3 23q7 7 8.5 7.5t1.5 1.5l14 14q8 2 15 3t14 3q38 8 74.5 13.5t78.5 5.5h20t21 -1l10 -5q14 -11 26.5 -25.5t25.5 -32.5l4 -11v-13q-3 -11 -4.5 -14.5t-3.5 -5.5
l-12 -19q-11 -7 -20.5 -14.5t-16.5 -13.5q23 -18 39.5 -39t27.5 -43l3 -19z" />
    <glyph glyph-name="acute" unicode="&#xb4;" 
d="M590 624q-8 -2 -26.5 -14t-47.5 -38q-15 -13 -36 -32.5t-45.5 -38t-50.5 -32.5t-50 -15l-14 14t-11.5 14t-5.5 15t5 18q-13 21 -11 32t10.5 19t19 15t14.5 21q23 25 50.5 51.5t51.5 53.5q10 2 19.5 9.5t18.5 16.5l18.5 18.5t20.5 15.5q2 -6 11.5 -11.5t14.5 -2.5
q1 -11 11 -21.5t18 -14.5q6 -14 12 -25.5t9 -22.5t2.5 -22t-8.5 -23z" />
    <glyph glyph-name="mu" unicode="&#xb5;" horiz-adv-x="583" 
d="M58 289q2 20 4.5 38.5t8.5 34.5v11q3 20 5.5 32.5t4.5 24.5q2 11 3.5 20t4.5 17q13 2 19.5 10.5t9.5 14.5q13 0 17.5 -4.5t9.5 -14.5q4 -8 10.5 -18t20.5 -15q2 -8 5.5 -15.5t6.5 -15.5q7 -16 13 -33t7 -31q-9 -17 -14 -39.5t-6.5 -46t1 -44.5t7.5 -35l5 -12l16 2
q27 7 48.5 15.5t40.5 20.5t36.5 27.5t36.5 36.5q18 21 32 47.5t23.5 55t15 57t6.5 53.5q14 6 16 22q-6 15 -2 23q5 16 25 26q14 -10 25.5 -20.5t21.5 -20.5q1 -20 6 -34.5t10 -28.5q5 -13 9 -25t6 -29q-8 -23 -11.5 -43t-6.5 -41q-15 -31 -28 -56t-21 -43q-9 -9 -15 -23
q-2 -2 -4.5 -7t-4.5 -7l-17 6l-5 -23l-12 -3l-9 -11q-17 -30 -36 -50t-43 -36t-54 -29.5t-68 -29.5q-15 2 -26 2.5t-21 0.5q-10 1 -20 1.5t-23 2.5q-4 10 -15 12q-4 -17 -9 -36t-13 -42q-10 -29 -24.5 -40t-31 -10.5t-33.5 9t-31 19.5q-2 17 0 42t5.5 51.5t7.5 51.5t5 42
q9 10 12 16t4.5 13.5t2.5 18.5t5 31q2 9 -1 17t-1 15q1 4 5 5.5t6 5.5q1 6 1 10.5v8.5t0.5 8t2.5 9q2 4 5.5 10.5t6.5 14.5z" />
    <glyph glyph-name="paragraph" unicode="&#xb6;" horiz-adv-x="747" 
d="M138 368q-30 23 -47 51.5t-24 59t-5.5 60.5t8.5 56q29 37 73 58.5t89 42.5q7 -1 12 -6q7 7 17.5 11.5t22 7.5t22.5 6t20 8q30 -1 54 3t47 9.5t46.5 9.5t53.5 3q17 8 39 9t43 4q11 13 26 18q2 -2 4.5 -4t4.5 -4q10 -6 23 -6.5t24 0.5q7 0 11.5 -4t8.5 -7t7 -4.5t7 3.5
q7 -2 3 -6l-5 -5q11 -2 18 -7.5t23 -9.5q5 -5 2 -7t-4 -7q39 -16 47.5 -34.5t-2.5 -35t-37 -28.5t-56 -13q-6 -25 -13 -54t-13.5 -57t-10.5 -52t-4 -38q-4 -13 -9 -31.5t-11 -40.5q9 -9 19.5 -18t18.5 -19t11 -20.5t-3 -23.5q-17 -7 -34.5 -12t-36.5 -10q-6 -25 -11 -46.5
t-9 -37.5q2 -5 7 -7t9 -6q-5 -13 -3 -22t7 -16t10.5 -14t8.5 -16q-3 -9 -4 -18t-1.5 -18t-3 -18t-9.5 -18q-20 -8 -40.5 -8t-37.5 -5q-21 5 -35.5 20.5t-24 35.5t-14.5 41t-7 38q-7 23 -2 36t2 20q1 9 5.5 27.5t10.5 41.5l-54 11q-2 -3 -3.5 -6.5t-3.5 -7.5q1 -5 5.5 -8
t7.5 -8q-8 -12 -16 -38t-14.5 -54.5t-11 -54t-5.5 -35.5q-14 -12 -21.5 -28.5t-28.5 -27.5q-21 2 -40.5 10.5t-37.5 12.5q-18 14 -16.5 33t9.5 39.5t17 40.5t6 37q-7 23 -1.5 36t1.5 20q2 12 7.5 33.5t12.5 46.5q-27 9 -53 19t-49 20q-12 12 -24.5 23.5t-34.5 19.5zM469 374
q14 -3 27.5 -6t27.5 -6q2 6 3 11l2 10q-2 16 5 45t15.5 61t15.5 62t6 47q-31 -2 -54 -7q-6 -24 -13.5 -52t-13.5 -54.5t-9.5 -49.5t-3.5 -36q-2 -6 -4 -12.5t-4 -12.5zM256 520q-2 -13 -10.5 -18.5t-17.5 -10.5q0 -14 6 -26t12 -23q20 -8 40.5 -15.5t41.5 -14.5q6 32 19 74
t20 76q-29 -9 -56 -20.5t-55 -21.5z" />
    <glyph glyph-name="periodcentered" unicode="&#xb7;" horiz-adv-x="232" 
d="M185 426q11 -12 22 -22t14 -22q-5 -15 -7.5 -21.5t-5.5 -12.5q-8 -7 -15 -12.5t-15 -11.5q-6 -5 -8 -5.5t-2.5 -1t-1 -2t-3.5 -7.5l-10 -8q-7 -2 -14.5 -2t-14.5 1q-3 1 -7 1h-6l-9 -8l-11 6q-16 5 -26 11l-9 7q-3 14 -5.5 22.5t-7.5 17.5q0 16 2.5 22t4.5 11q5 12 4 16
l-3 18l14 1v21q15 1 21.5 1t12.5 1.5t13.5 4.5t24.5 10l14 6l6 -13q2 -4 11.5 -13t16.5 -16z" />
    <glyph glyph-name="cedilla" unicode="&#xb8;" 
d="M597 -139q14 -14 22 -32t4 -44q-10 -20 -24 -34.5t-36 -30.5q-17 -7 -34 -11.5t-31 -11.5q-6 2 -11 1t-9 1q-17 -8 -37.5 -11t-42.5 4q-17 -2 -33.5 -1.5t-30.5 3.5t-24 10t-13 18q-17 10 -23 27t5 34q5 1 7.5 2t7.5 5q41 -1 83.5 0t91.5 12q3 9 15.5 11t17.5 10
q0 7 -7 8t-6 9q-10 0 -23.5 4t-21.5 11q-17 1 -24.5 2.5t-13 3.5t-12.5 4.5t-22 7.5q-6 6 -12.5 10t-11.5 7.5t-8.5 8.5t-4.5 13q1 10 1 17t1 14.5t2.5 15.5t4.5 19q5 6 14.5 18t22 24.5t27.5 24t30 17.5q18 -11 33 -18.5t41 -6.5l-52 -78q4 -6 12 -7t11 -7
q22 -3 36.5 -11.5t26 -19t22.5 -22t26 -19.5q0 -4 2.5 -5.5t0.5 -6.5z" />
    <glyph glyph-name="onesuperior" unicode="&#xb9;" horiz-adv-x="211" 
d="M229 608q0 -5 0.5 -9.5t1.5 -9.5q2 -37 -6.5 -65t-18.5 -57q-2 -7 -4.5 -14t-5.5 -15q-8 -12 -10.5 -19t-0.5 -13l-4 -19l-17 -17t-14 -12l-24 1q-11 -2 -14 -2.5t-5 -0.5l-17 8q-12 13 -19 23t-5 23q-3 31 5 55t18 47q13 33 20.5 62.5t-8.5 57.5q-2 11 -2.5 13.5
t-0.5 4.5q0 11 -2 16v14q2 5 2.5 7t0.5 3q1 15 5 20t6 7l19 15l16 -3l11 -3q6 -6 9 -6l13 -10q2 -5 7.5 -8.5t12.5 -8.5l11 -10q11 -17 14.5 -36t5.5 -39z" />
    <glyph glyph-name="ordmasculine" unicode="&#xba;" horiz-adv-x="456" 
d="M12 305q-5 37 2 68.5t20.5 58t30.5 48.5t34 42q4 4 7.5 8t6.5 8q6 5 10.5 8t6.5 5l13 13t8 6q3 2 5 4l4 4l12 10q4 1 10 6q7 7 15 11l6 9q8 4 11.5 7.5t8.5 11.5l17 12q4 1 10 1l12 12t13 10l19 1q6 -2 10 -3q6 -2 14 -4t16 -10l5 -13q8 -5 12.5 -9t8.5 -10l10 -9
q5 -10 6.5 -13.5t3.5 -9.5l-1 -13q-3 -8 -3.5 -11t-2.5 -6l1 -14q7 -11 12.5 -23t11.5 -24q7 -14 13.5 -27.5t14.5 -26.5l3 -13q-1 -5 1.5 -11t5.5 -14l4.5 -13.5t4.5 -15.5q3 -23 -5 -49t-27 -40q-7 -8 -14.5 -13.5t-15.5 -10.5q-11 -5 -17 -11q-15 -8 -23 -10t-15 -4
q-17 -8 -39.5 -16t-42.5 -8q-15 -4 -28 -7t-30 -3q-15 0 -31 3q-5 -1 -8.5 -1h-8.5q-42 0 -75.5 25t-50.5 70zM178 390q-5 -8 -9 -14.5t-6 -14.5q6 -3 16 -3q8 0 15 1t15 2l18 3q4 3 11 3q11 2 21.5 6.5t22.5 11.5q3 1 9 5q3 9 2.5 11.5t-0.5 5.5q-5 8 -9.5 16.5t-8.5 16.5
q-2 4 -4.5 8t-4.5 8q-8 -4 -13 -4t-11 2q-17 -13 -26.5 -21t-17.5 -18q-10 -10 -13.5 -15t-6.5 -10z" />
    <glyph glyph-name="guillemotright" unicode="&#xbb;" horiz-adv-x="610" 
d="M287 225q5 -29 -4 -53.5t-28 -29.5q-6 4 -9.5 3.5t-8.5 4.5q-9 -13 -21.5 -24.5t-24.5 -6.5q0 -4 -1.5 -5.5t-3.5 -2.5t-3.5 -2.5t-2.5 -6.5q-20 -7 -39 -21.5t-37 -32t-35 -35.5t-33 -31q-6 4 -12 -0.5t-13 -4.5q1 4 0.5 5t-2.5 1t-4.5 1t-3.5 4q-5 7 -8 11l-4.5 6
t-3.5 5t-5 9q2 10 2 16.5t-0.5 12t-1 11.5t-0.5 15q27 35 47.5 55.5t40 35.5t40.5 29t49 36q-12 13 -29.5 24t-35.5 24.5t-33 33.5t-20 52q-6 0 -12 15.5t-4 35.5q5 6 9.5 13.5t10.5 10.5q5 3 13.5 -1.5t19 -11t21 -14.5t20.5 -13q11 -5 22 -9t21 -12q5 -4 7.5 -10t7.5 -8
q9 -3 19 -11t20.5 -18t20.5 -20.5t19 -17.5q-1 -7 6 -15.5t15 -9.5q0 -13 5 -22.5t7 -20.5zM547 225q5 -29 -4 -53.5t-28 -29.5q-6 4 -9 3.5t-8 4.5q-9 -13 -21.5 -24.5t-24.5 -6.5q-1 -4 -2.5 -5.5t-3.5 -2.5t-3.5 -2.5t-1.5 -6.5q-20 -7 -39.5 -21.5t-37.5 -32
t-34.5 -35.5t-32.5 -31q-7 4 -13 -0.5t-12 -4.5q1 4 0.5 5t-2.5 1t-4.5 1t-3.5 4q-6 7 -8.5 11t-4.5 6t-3.5 5t-5.5 9q2 10 2.5 16.5t-0.5 12t-1.5 11.5t0.5 15q27 35 47.5 55.5t40 35.5t40.5 29t48 36q-11 13 -29 24t-36 24.5t-32.5 33.5t-19.5 52q-7 0 -12.5 15.5
t-3.5 35.5q5 6 9 13.5t10 10.5q5 3 13.5 -1.5t19 -11t21.5 -14.5t21 -13t21 -9t21 -12q5 -4 8 -10t7 -8q9 -3 19 -11t20.5 -18t20.5 -20.5t19 -17.5q-1 -7 6 -15.5t15 -9.5q0 -13 5 -22.5t7 -20.5z" />
    <glyph glyph-name="onequarter" unicode="&#xbc;" horiz-adv-x="722" 
d="M664 262q2 -8 3.5 -10t4.5 -4l9 -22q-1 -4 -1 -11q0 -5 -0.5 -12t-3.5 -15l-7 -9q-12 -11 -26.5 -16t-28.5 -9q-17 -5 -26 -9q-2 -5 -4 -9t-4 -9q-5 -10 -9 -20t-8 -21l4 -19q7 -1 11.5 -5.5t6.5 -12.5l-2 -16q-2 -13 -4 -21.5t-10 -17.5l-10 -6q-8 -3 -15.5 -3.5
t-14.5 -1.5q-6 0 -14 -2h-10q-8 2 -17 6.5t-17.5 14t-14.5 24t-7 36.5q-3 11 -2 17t3 11q3 21 9 41q-7 1 -15 1.5t-16 0.5q-21 6 -30 14.5t-16 16.5q-3 4 -9 10l-7 14q0 12 -2 24.5t-4 24.5q-4 23 -6 44t4 39q10 15 17 22.5t17 14.5l16 2q11 -3 17 -9t10 -11l18 -20
q3 -9 9 -22q5 -8 9 -18.5t5 -24.5q7 0 10 1h12h11q2 16 4 23q3 14 2 18l2 19q2 5 3.5 11.5t3.5 14.5q1 8 3.5 18t7 19t12.5 17t21 12l19 -4q37 -29 49 -76v-11q-4 -11 -5.5 -21t-2.5 -20q4 0 7.5 0.5t7.5 0.5l20 -13zM183 430q-4 -4 -6.5 -11t-0.5 -13l-4 -19
q-10 -11 -16.5 -17t-14.5 -12l-24 1q-11 -2 -14 -2.5t-5 -0.5l-17 8q-12 13 -19 23t-5 23q-2 31 6 55t17 47q14 33 21 62.5t-9 57.5q-2 15 -3 18q0 11 -2 16l1 14l3 10q0 15 4 20t6 7l19 15l16 -3l11 -3q6 -6 9 -6l13 -10q4 -7 20 -17l11 -10q11 -17 14.5 -36t5.5 -39
q0 -5 0.5 -9.5t1.5 -9.5q2 -37 -6.5 -65t-18.5 -57q-2 -7 -4.5 -14t-5.5 -15zM556 596q-14 -17 -44.5 -51.5t-63.5 -73t-60.5 -73t-35.5 -51.5q-15 -15 -38.5 -43t-49 -58.5t-50 -60.5t-39.5 -49q-1 -5 2.5 -9t5.5 -9q-10 -11 -12 -20t-1 -18t3 -17.5t0 -18.5
q-7 -7 -11.5 -15t-9.5 -16t-11.5 -15t-16.5 -13q-21 2 -34 5.5t-31 6.5q-17 14 -23 35t-5 43.5t6 44t10 38.5q11 7 1 10q4 15 14 24.5t10 17.5q7 11 27.5 34.5t44.5 50t46.5 51.5t34.5 40q6 17 28 43t46.5 54t44 53t20.5 40q18 14 39.5 44t45.5 60.5t49.5 52.5t50.5 19
q15 -37 15.5 -73.5t-8.5 -82.5z" />
    <glyph glyph-name="onehalf" unicode="&#xbd;" horiz-adv-x="768" 
d="M702 109q10 -8 13 -17.5t1 -17.5q-3 -15 -16.5 -26.5t-28.5 -11.5l-13 -7q-20 -3 -39.5 -6t-39.5 -8q-27 -5 -55 -9.5t-56 -7.5q-7 0 -7.5 0.5t-2.5 0.5q-35 2 -59 10q-18 14 -24.5 29.5t-8 31.5t1 31.5t6.5 26.5q29 36 56 63.5t62 49.5l4 4l4 4q-11 -2 -21.5 -4.5
t-19.5 -4.5q-5 -1 -9 -2l-8 -2l-10 1q-2 1 -6 1.5t-8 1.5q-5 1 -11 1.5t-12 2.5q-18 13 -20.5 27.5t-2.5 25.5v10l1 18q5 9 8 14.5t8 10.5l9 6q26 7 52 10t50 3q72 0 113 -29l8 -13q1 -5 4 -9t13 -7l9 -8q12 -21 17 -45l-1 -10q-11 -26 -29.5 -44.5t-38.5 -34.5
q-11 -8 -21 -12q-4 -3 -8 -5.5t-7 -4.5q-1 -2 -2.5 -5.5t-4.5 -5.5q-5 -5 -13 -9h11q14 4 29 7.5t32 3.5q29 9 49 9q7 0 10 -1q11 -3 15 -7.5t6 -7.5zM183 430q-4 -4 -6.5 -11t-0.5 -13l-4 -19q-10 -11 -16.5 -17t-14.5 -12l-24 1q-11 -2 -14 -2.5t-5 -0.5l-17 8
q-12 13 -19 23t-5 23q-2 31 6 55t17 47q14 33 21 62.5t-9 57.5q-2 15 -3 18q0 11 -2 16l1 14l3 10q0 15 4 20t6 7l19 15l16 -3l11 -3q6 -6 9 -6l13 -10q4 -7 20 -17l11 -10q11 -17 14.5 -36t5.5 -39q0 -5 0.5 -9.5t1.5 -9.5q2 -37 -6.5 -65t-18.5 -57q-2 -7 -4.5 -14
t-5.5 -15zM556 596q-14 -17 -44.5 -51.5t-63.5 -73t-60.5 -73t-35.5 -51.5q-15 -15 -38.5 -43t-49 -58.5t-50 -60.5t-39.5 -49q-1 -5 2.5 -9t5.5 -9q-10 -11 -12 -20t-1 -18t3 -17.5t0 -18.5q-7 -7 -11.5 -15t-9.5 -16t-11.5 -15t-16.5 -13q-21 2 -34 5.5t-31 6.5
q-17 14 -23 35t-5 43.5t6 44t10 38.5q11 7 1 10q4 15 14 24.5t10 17.5q7 11 27.5 34.5t44.5 50t46.5 51.5t34.5 40q6 17 28 43t46.5 54t44 53t20.5 40q18 14 39.5 44t45.5 60.5t49.5 52.5t50.5 19q15 -37 15.5 -73.5t-8.5 -82.5z" />
    <glyph glyph-name="threequarters" unicode="&#xbe;" horiz-adv-x="838" 
d="M94 385l-13 12q-5 8 -6.5 10.5t-2.5 6.5l3 19q2 3 3.5 8t3.5 11q3 12 10.5 28t30.5 22q16 0 21 -7q19 -1 38.5 -1t36.5 2q-5 2 -9.5 3.5t-9.5 3.5q-23 8 -45.5 20.5t-27.5 39.5l1 10q2 5 3 9.5t2 9.5q1 3 1.5 5.5t1.5 5.5q-17 2 -22 2q-7 2 -15 4.5t-16 7.5l-6 12
q-3 17 -3 30.5t9 26.5l8 23q11 6 13 8l17 12q8 1 15 2t15 2q38 5 75.5 8t79.5 0l20 -2t20 -3l10 -5q21 -25 37 -62l1 -12l-3 -13q-5 -10 -7.5 -13t-4.5 -6l-16 -18q-13 -5 -24.5 -12t-19.5 -12q18 -19 29 -41.5t18 -45.5q-1 -16 -2 -19l-3 -20q-7 -16 -17 -24
q-2 -2 -3.5 -4.5t-3.5 -5.5l-13 -9q-13 -5 -20 -12l-16 -6q-59 -27 -145 -19q-11 1 -20.5 2t-20.5 3zM773 262q2 -8 3 -10t4 -4l7 -22q-2 -3 -2 -5.5t-1 -5.5q-1 -5 -2 -12t-5 -15l-7 -9q-14 -11 -29.5 -16t-29.5 -9l-27 -9q-2 -5 -5 -9t-5 -9q-5 -10 -10.5 -20t-10.5 -21
l1 -19q7 -1 10.5 -5.5t5.5 -12.5l-3 -16q-4 -13 -7 -21.5t-12 -17.5l-10 -6q-8 -3 -15.5 -3.5t-15.5 -1.5q-6 0 -14 -2q-17 2 -26 6.5t-16 14t-11.5 24t-3.5 36.5q-2 11 0 17t4 11q5 21 13 41q-6 1 -14 1.5t-16 0.5q-20 6 -28.5 14.5t-14.5 16.5q-2 4 -8 10l-4 14
q1 12 0.5 24.5t-2.5 24.5q-2 23 -1 44t9 39q12 15 19.5 22.5t18.5 14.5l16 2q11 -3 16 -9t8 -11l17 -20q1 -10 6 -22q4 -8 7 -18.5t3 -24.5l22 1h11q1 7 2.5 12.5t3.5 10.5q5 14 4 18l4 19q3 5 5.5 11.5t4.5 14.5q5 17 15 37.5t36 28.5l19 -4q33 -29 41 -76l-2 -11
q-9 -23 -12 -41q4 0 7.5 0.5t6.5 0.5l20 -13v-1zM729 606q-7 -10 -27.5 -30t-47.5 -45t-57.5 -52.5t-57.5 -53t-47.5 -46.5t-27.5 -32q-17 -15 -45.5 -43t-59.5 -58.5t-60 -60.5t-47 -49q-2 -5 1 -9t4 -9q-12 -11 -16 -20t-4.5 -18t0 -17.5t-2.5 -18.5q-8 -7 -14 -15
l-12 -16t-14 -15t-19 -13q-20 2 -33 5.5t-30 6.5q-14 14 -16.5 35t2 43.5t13 44t16.5 38.5q12 7 3 10q6 15 18 24.5t13 17.5q9 11 33.5 34.5t53 50t55.5 51.5t41 40q9 17 35 43t55 54t53 53t28 40q20 14 45 42.5t51 57t51.5 49.5t48.5 18q16 -32 19.5 -64.5t-1.5 -72.5z" />
    <glyph glyph-name="questiondown" unicode="&#xbf;" horiz-adv-x="570" 
d="M-34 31q-7 8 -12 16.5t-15 12.5q5 25 3 47.5t-3 48.5q14 76 62 121t111 62q0 10 6 15q20 3 30 10t18.5 15t20 15.5t35.5 11.5q5 11 13.5 14t17 4.5t16.5 5t12 16.5l57 53q24 -6 41.5 -5.5t29.5 -1.5t18.5 -12t9.5 -38q-1 -10 -7.5 -13.5t-8.5 -11.5q0 -22 -7 -32.5
t-16.5 -17.5t-20.5 -15.5t-19 -26.5q-16 -7 -35.5 -22.5t-35.5 -30.5q-25 -14 -42.5 -23.5t-32.5 -19.5t-30 -22t-36 -30q5 -13 18.5 -14.5t30.5 0.5q29 -9 56.5 -11.5t64.5 -4.5q14 1 20.5 2.5t19.5 -0.5q11 10 29.5 13.5t32.5 11.5q20 -5 32 -19t29 -22q1 -8 -3.5 -9.5
t-2.5 -11.5q10 -5 9.5 -8.5t6.5 -7.5q-4 -16 -11.5 -27.5t-16.5 -22t-18 -20.5t-16 -23q-17 -4 -28 -12.5t-22 -18.5q-54 -6 -105 -3.5t-101.5 10.5t-101 21.5t-103.5 30.5zM350 606q2 15 3.5 22t1.5 13t-1.5 15t-5.5 27l-3 16l14 4q5 1 16.5 9t20.5 13q14 8 26.5 17.5
t25.5 9.5q15 -8 21 -12l12 -8q5 -9 9 -18t9 -18q3 -7 4 -9l1.5 -3t2 -2t6.5 -5l5 -12q2 -8 -0.5 -15.5t-4.5 -14.5q-4 -8 -4 -14l6 -10l-8 -11q-6 -11 -9 -15t-8 -9l-9 -8q-27 0 -44 -4q-17 3 -22 6.5t-10 7.5q-11 8 -16 8h-20l2 15z" />
    <glyph glyph-name="Agrave" unicode="&#xc0;" horiz-adv-x="719" 
d="M-26 95l13 10l1 21q25 61 51.5 117t55.5 115q9 19 18.5 38t18.5 39q-1 4 -1 8.5t2 10.5q14 20 22.5 36t16.5 33q9 20 19.5 40t26.5 39l7 10l11 -1q4 2 8.5 3.5t11.5 1.5l18 -3q33 15 58.5 43.5t51.5 68.5l12 17l16 -10q5 -3 16 -6t23 -7q21 -5 41 -11.5t31 -17.5l5 -9
q2 -11 3.5 -20t3.5 -18q4 -21 7 -41.5t4 -45.5q5 -20 9.5 -40.5t8.5 -40.5q5 -29 11 -55.5t16 -50.5q10 0 12 -1q12 5 28 6l13 1l4 -12q2 -3 5 -6t7 -6q16 -1 23.5 -6.5t12.5 -10.5q2 -2 5 -4.5t5 -3.5l18 -7l-10 -19q-11 -21 -33.5 -41t-50.5 -33q2 -7 2.5 -13t2.5 -14
q4 -20 6.5 -41.5t-0.5 -44.5q-10 -26 -23.5 -46.5t-32 -37t-41.5 -27t-48 -11.5q-14 3 -20.5 7t-11.5 8q-8 6 -13 8l-13 6l4 15q3 8 -0.5 14t-14.5 16q-4 3 -7 6.5t-7 7.5l-20 23l33 9q30 8 40 20.5t8 44.5q-25 5 -41 1.5t-32 -7.5q-23 -6 -45 -10.5t-48 -4.5q-17 0 -36 3
l-11 1l-3 11q0 2 -2.5 4.5l-4.5 4.5q-5 6 -12 16t-3 25q-7 11 -8 23q-4 -8 -6.5 -15.5t-4.5 -14.5l-4 -13l-13 -2q-2 -2 -3.5 -6t-0.5 -6l4 -11l-10 -9q-2 -3 -5 -5t-5 -4q-2 -11 -5.5 -21t-7.5 -20q-5 -16 -9.5 -31t-4.5 -30l-4 -13q-5 -8 -12.5 -12t-14.5 -7
q-10 -4 -14 -8l-3 -13l-15 -2q-13 -3 -18.5 -4t-12.5 -1l-13 1q-12 12 -19.5 18.5t-17.5 11.5l-6 8q-4 8 -5 14.5t-3 13.5q-2 13 -6 18zM293 355q-14 -20 -27 -42q7 1 13.5 1t13.5 1q35 2 65 5t65 10q-8 37 -17.5 75.5t-20.5 77.5l-5 -10q-25 -27 -48 -58t-38 -59zM306 941
q-8 12 -8.5 23t2.5 22t9 22.5t12 25.5q8 4 18 14.5t11 21.5q5 -3 14.5 2.5t11.5 11.5q11 -6 20.5 -15.5l18.5 -18.5t18 -16.5t20 -9.5q24 -27 51.5 -53.5t50.5 -51.5q4 -14 14.5 -21t19 -15t10.5 -19t-11 -32q6 -10 5 -18t-5.5 -15t-11.5 -14l-14 -14q-24 1 -50 15
t-50.5 32.5t-45.5 38t-36 32.5q-29 26 -47.5 38t-26.5 14z" />
    <glyph glyph-name="Aacute" unicode="&#xc1;" horiz-adv-x="719" 
d="M-26 95l13 10l1 21q25 61 51.5 117t55.5 115q9 19 18.5 38t18.5 39q-1 4 -1 8.5t2 10.5q14 20 22.5 36t16.5 33q9 20 19.5 40t26.5 39l7 10l11 -1q4 2 8.5 3.5t11.5 1.5l18 -3q33 15 58.5 43.5t51.5 68.5l12 17l16 -10q5 -3 16 -6t23 -7q21 -5 41 -11.5t31 -17.5l5 -9
q2 -11 3.5 -20t3.5 -18q4 -21 7 -41.5t4 -45.5q5 -20 9.5 -40.5t8.5 -40.5q5 -29 11 -55.5t16 -50.5q10 0 12 -1q12 5 28 6l13 1l4 -12q2 -3 5 -6t7 -6q16 -1 23.5 -6.5t12.5 -10.5q2 -2 5 -4.5t5 -3.5l18 -7l-10 -19q-11 -21 -33.5 -41t-50.5 -33q2 -7 2.5 -13t2.5 -14
q4 -20 6.5 -41.5t-0.5 -44.5q-10 -26 -23.5 -46.5t-32 -37t-41.5 -27t-48 -11.5q-14 3 -20.5 7t-11.5 8q-8 6 -13 8l-13 6l4 15q3 8 -0.5 14t-14.5 16q-4 3 -7 6.5t-7 7.5l-20 23l33 9q30 8 40 20.5t8 44.5q-25 5 -41 1.5t-32 -7.5q-23 -6 -45 -10.5t-48 -4.5q-17 0 -36 3
l-11 1l-3 11q0 2 -2.5 4.5l-4.5 4.5q-5 6 -12 16t-3 25q-7 11 -8 23q-4 -8 -6.5 -15.5t-4.5 -14.5l-4 -13l-13 -2q-2 -2 -3.5 -6t-0.5 -6l4 -11l-10 -9q-2 -3 -5 -5t-5 -4q-2 -11 -5.5 -21t-7.5 -20q-5 -16 -9.5 -31t-4.5 -30l-4 -13q-5 -8 -12.5 -12t-14.5 -7
q-10 -4 -14 -8l-3 -13l-15 -2q-13 -3 -18.5 -4t-12.5 -1l-13 1q-12 12 -19.5 18.5t-17.5 11.5l-6 8q-4 8 -5 14.5t-3 13.5q-2 13 -6 18zM293 355q-14 -20 -27 -42q7 1 13.5 1t13.5 1q35 2 65 5t65 10q-8 37 -17.5 75.5t-20.5 77.5l-5 -10q-25 -27 -48 -58t-38 -59zM600 962
q-8 -2 -26.5 -14t-47.5 -38q-15 -13 -36 -32.5t-45.5 -38t-50.5 -32.5t-50 -15l-14 14t-11.5 14t-5.5 15t5 18q-13 21 -11 32t10.5 19t19 15t14.5 21q23 25 50.5 51.5t51.5 53.5q10 2 19.5 9.5t18.5 16.5l18.5 18.5t20.5 15.5q2 -6 11.5 -11.5t14.5 -2.5q1 -11 11 -21.5
t18 -14.5q6 -14 12 -25.5t9 -22.5t2.5 -22t-8.5 -23z" />
    <glyph glyph-name="Acircumflex" unicode="&#xc2;" horiz-adv-x="719" 
d="M-26 95l13 10l1 21q25 61 51.5 117t55.5 115q9 19 18.5 38t18.5 39q-1 4 -1 8.5t2 10.5q14 20 22.5 36t16.5 33q9 20 19.5 40t26.5 39l7 10l11 -1q4 2 8.5 3.5t11.5 1.5l18 -3q33 15 58.5 43.5t51.5 68.5l12 17l16 -10q5 -3 16 -6t23 -7q21 -5 41 -11.5t31 -17.5l5 -9
q2 -11 3.5 -20t3.5 -18q4 -21 7 -41.5t4 -45.5q5 -20 9.5 -40.5t8.5 -40.5q5 -29 11 -55.5t16 -50.5q10 0 12 -1q12 5 28 6l13 1l4 -12q2 -3 5 -6t7 -6q16 -1 23.5 -6.5t12.5 -10.5q2 -2 5 -4.5t5 -3.5l18 -7l-10 -19q-11 -21 -33.5 -41t-50.5 -33q2 -7 2.5 -13t2.5 -14
q4 -20 6.5 -41.5t-0.5 -44.5q-10 -26 -23.5 -46.5t-32 -37t-41.5 -27t-48 -11.5q-14 3 -20.5 7t-11.5 8q-8 6 -13 8l-13 6l4 15q3 8 -0.5 14t-14.5 16q-4 3 -7 6.5t-7 7.5l-20 23l33 9q30 8 40 20.5t8 44.5q-25 5 -41 1.5t-32 -7.5q-23 -6 -45 -10.5t-48 -4.5q-17 0 -36 3
l-11 1l-3 11q0 2 -2.5 4.5l-4.5 4.5q-5 6 -12 16t-3 25q-7 11 -8 23q-4 -8 -6.5 -15.5t-4.5 -14.5l-4 -13l-13 -2q-2 -2 -3.5 -6t-0.5 -6l4 -11l-10 -9q-2 -3 -5 -5t-5 -4q-2 -11 -5.5 -21t-7.5 -20q-5 -16 -9.5 -31t-4.5 -30l-4 -13q-5 -8 -12.5 -12t-14.5 -7
q-10 -4 -14 -8l-3 -13l-15 -2q-13 -3 -18.5 -4t-12.5 -1l-13 1q-12 12 -19.5 18.5t-17.5 11.5l-6 8q-4 8 -5 14.5t-3 13.5q-2 13 -6 18zM293 355q-14 -20 -27 -42q7 1 13.5 1t13.5 1q35 2 65 5t65 10q-8 37 -17.5 75.5t-20.5 77.5l-5 -10q-25 -27 -48 -58t-38 -59zM283 780
q-1 10 -9 19t-14 13q-5 12 -10 22t-8 19.5t-2 18.5t7 20q8 2 22.5 13t37.5 33q11 10 26 25.5t33 30.5t37 27t37 17q10 2 14 2q20 -7 39 -19t37 -27t33 -30.5t26 -25.5q23 -22 37.5 -33t22.5 -13q6 -11 7 -20t-2 -18.5t-8 -19.5t-10 -22q-6 -4 -14 -13t-9 -19q-4 3 -11.5 -2
t-9.5 -10q-9 5 -16.5 13.5t-15 16.5t-15 14t-15.5 8q-20 23 -41.5 46.5t-40.5 44.5q-19 -21 -40.5 -44.5t-41.5 -46.5q-8 -2 -15.5 -8t-15 -14t-15 -16.5t-16.5 -13.5q-2 5 -9.5 10t-11.5 2z" />
    <glyph glyph-name="Atilde" unicode="&#xc3;" horiz-adv-x="719" 
d="M-26 95l13 10l1 21q25 61 51.5 117t55.5 115q9 19 18.5 38t18.5 39q-1 4 -1 8.5t2 10.5q14 20 22.5 36t16.5 33q9 20 19.5 40t26.5 39l7 10l11 -1q4 2 8.5 3.5t11.5 1.5l18 -3q33 15 58.5 43.5t51.5 68.5l12 17l16 -10q5 -3 16 -6t23 -7q21 -5 41 -11.5t31 -17.5l5 -9
q2 -11 3.5 -20t3.5 -18q4 -21 7 -41.5t4 -45.5q5 -20 9.5 -40.5t8.5 -40.5q5 -29 11 -55.5t16 -50.5q10 0 12 -1q12 5 28 6l13 1l4 -12q2 -3 5 -6t7 -6q16 -1 23.5 -6.5t12.5 -10.5q2 -2 5 -4.5t5 -3.5l18 -7l-10 -19q-11 -21 -33.5 -41t-50.5 -33q2 -7 2.5 -13t2.5 -14
q4 -20 6.5 -41.5t-0.5 -44.5q-10 -26 -23.5 -46.5t-32 -37t-41.5 -27t-48 -11.5q-14 3 -20.5 7t-11.5 8q-8 6 -13 8l-13 6l4 15q3 8 -0.5 14t-14.5 16q-4 3 -7 6.5t-7 7.5l-20 23l33 9q30 8 40 20.5t8 44.5q-25 5 -41 1.5t-32 -7.5q-23 -6 -45 -10.5t-48 -4.5q-17 0 -36 3
l-11 1l-3 11q0 2 -2.5 4.5l-4.5 4.5q-5 6 -12 16t-3 25q-7 11 -8 23q-4 -8 -6.5 -15.5t-4.5 -14.5l-4 -13l-13 -2q-2 -2 -3.5 -6t-0.5 -6l4 -11l-10 -9q-2 -3 -5 -5t-5 -4q-2 -11 -5.5 -21t-7.5 -20q-5 -16 -9.5 -31t-4.5 -30l-4 -13q-5 -8 -12.5 -12t-14.5 -7
q-10 -4 -14 -8l-3 -13l-15 -2q-13 -3 -18.5 -4t-12.5 -1l-13 1q-12 12 -19.5 18.5t-17.5 11.5l-6 8q-4 8 -5 14.5t-3 13.5q-2 13 -6 18zM293 355q-14 -20 -27 -42q7 1 13.5 1t13.5 1q35 2 65 5t65 10q-8 37 -17.5 75.5t-20.5 77.5l-5 -10q-25 -27 -48 -58t-38 -59zM711 988
q17 -1 26.5 -9t9.5 -22q-2 -12 -7 -20q-7 -16 -12.5 -24.5t-11.5 -17.5q-9 -14 -17.5 -27t-19.5 -27q-7 -6 -11 -8q-9 -8 -19 -14.5t-21 -11.5q-18 -7 -33.5 -8.5t-33.5 -1.5h-14q-11 1 -22.5 2t-19.5 3q-15 8 -23.5 14t-16.5 12q-9 6 -15 13t-11 14q-4 6 -9.5 11.5
t-10.5 5.5q-5 -1 -9.5 -6t-9.5 -10q-2 -2 -4 -4.5t-4 -4.5q-6 -19 -24 -31q-9 -5 -14 -6t-9 -3l-10 -2l-10 -2l-10 1q-15 -5 -25 -5q-20 1 -29.5 9.5t-9.5 21.5q2 12 7 20q8 16 13.5 25t11.5 18q8 13 16.5 26t19.5 27q7 6 11 8q9 8 19 14.5t21 11.5q18 7 33.5 8.5t33.5 1.5
h14q23 -2 42 -5q15 -8 23.5 -14t16.5 -12q9 -6 15 -13t11 -14q12 -17 21 -16q5 0 9 4.5t9 10.5q2 3 8 9q6 19 24 31q14 7 23 9l10 2l10 2h10q12 4 25 4h3z" />
    <glyph glyph-name="Adieresis" unicode="&#xc4;" horiz-adv-x="719" 
d="M-26 95l13 10l1 21q25 61 51.5 117t55.5 115q9 19 18.5 38t18.5 39q-1 4 -1 8.5t2 10.5q14 20 22.5 36t16.5 33q9 20 19.5 40t26.5 39l7 10l11 -1q4 2 8.5 3.5t11.5 1.5l18 -3q33 15 58.5 43.5t51.5 68.5l12 17l16 -10q5 -3 16 -6t23 -7q21 -5 41 -11.5t31 -17.5l5 -9
q2 -11 3.5 -20t3.5 -18q4 -21 7 -41.5t4 -45.5q5 -20 9.5 -40.5t8.5 -40.5q5 -29 11 -55.5t16 -50.5q10 0 12 -1q12 5 28 6l13 1l4 -12q2 -3 5 -6t7 -6q16 -1 23.5 -6.5t12.5 -10.5q2 -2 5 -4.5t5 -3.5l18 -7l-10 -19q-11 -21 -33.5 -41t-50.5 -33q2 -7 2.5 -13t2.5 -14
q4 -20 6.5 -41.5t-0.5 -44.5q-10 -26 -23.5 -46.5t-32 -37t-41.5 -27t-48 -11.5q-14 3 -20.5 7t-11.5 8q-8 6 -13 8l-13 6l4 15q3 8 -0.5 14t-14.5 16q-4 3 -7 6.5t-7 7.5l-20 23l33 9q30 8 40 20.5t8 44.5q-25 5 -41 1.5t-32 -7.5q-23 -6 -45 -10.5t-48 -4.5q-17 0 -36 3
l-11 1l-3 11q0 2 -2.5 4.5l-4.5 4.5q-5 6 -12 16t-3 25q-7 11 -8 23q-4 -8 -6.5 -15.5t-4.5 -14.5l-4 -13l-13 -2q-2 -2 -3.5 -6t-0.5 -6l4 -11l-10 -9q-2 -3 -5 -5t-5 -4q-2 -11 -5.5 -21t-7.5 -20q-5 -16 -9.5 -31t-4.5 -30l-4 -13q-5 -8 -12.5 -12t-14.5 -7
q-10 -4 -14 -8l-3 -13l-15 -2q-13 -3 -18.5 -4t-12.5 -1l-13 1q-12 12 -19.5 18.5t-17.5 11.5l-6 8q-4 8 -5 14.5t-3 13.5q-2 13 -6 18zM293 355q-14 -20 -27 -42q7 1 13.5 1t13.5 1q35 2 65 5t65 10q-8 37 -17.5 75.5t-20.5 77.5l-5 -10q-25 -27 -48 -58t-38 -59zM679 899
l1 -11q-7 -12 -11.5 -20t-6.5 -17q-11 -11 -17 -13.5t-11 -4.5q-11 -4 -15 -8l-10 -15l-10 9l-15 -14q-11 9 -16 13.5t-9.5 7.5t-12 6.5t-23.5 10.5l-14 5l4 13q2 5 1.5 18t0.5 22q1 16 0 30t5 25q21 11 33 15q10 -1 19 -2l18 -2q7 -1 9 -1.5t2.5 -0.5t2.5 0.5t8 2.5l12 -2
q7 -3 11.5 -8.5t9.5 -10.5q4 -8 8 -10l12 -1l4 -12q5 -10 6.5 -14.5zM380 938q11 -12 22 -22t13 -22q-4 -16 -6.5 -22t-5.5 -13q-13 -11 -30 -23q-6 -5 -8 -6t-2.5 -1.5t-1 -2t-3.5 -7.5l-10 -7q-8 -3 -15 -2.5t-14 1.5q-3 0 -7.5 0.5t-6.5 0.5l-8 -8l-12 5q-11 5 -15.5 6.5
t-9.5 5.5l-9 6q-4 15 -6.5 23.5t-6.5 16.5q0 17 2 23t4 11q6 11 5 16l-4 18l15 1v21q14 1 21 1t13 1.5t13.5 4.5t24.5 10l14 6l6 -13q2 -4 11.5 -13t16.5 -16z" />
    <glyph glyph-name="Aring" unicode="&#xc5;" horiz-adv-x="719" 
d="M293 355q-14 -20 -27 -42l27 2q35 2 65 5t65 10q-8 37 -17.5 75.5t-20.5 77.5l-5 -10q-25 -27 -48 -58t-38 -59zM572 701q-5 -6 -11 -7t-14 -3l-9 -4.5t-10 -4.5l3.5 -21t3.5 -18q4 -21 7 -41.5t4 -45.5q5 -20 9.5 -40.5t8.5 -40.5q5 -29 11 -55.5t16 -50.5q10 0 12 -1
q12 5 28 6l13 1l4 -12q2 -3 5 -6t7 -6q16 -1 23.5 -6.5t12.5 -10.5q2 -2 5 -4.5t5 -3.5l18 -7l-10 -19q-11 -21 -33.5 -41t-50.5 -33q2 -7 2.5 -13t2.5 -14q4 -20 6.5 -41.5t-0.5 -44.5q-10 -26 -23.5 -46.5t-32 -37t-41.5 -27t-48 -11.5q-14 3 -20.5 7t-11.5 8q-8 6 -13 8
l-13 6l4 15q3 8 -0.5 14t-14.5 16q-4 3 -7 6.5t-7 7.5l-20 23l33 9q30 8 40 20.5t8 44.5q-25 5 -41 1.5t-32 -7.5q-23 -6 -45 -10.5t-48 -4.5q-17 0 -36 3l-11 1l-3 11q0 2 -2.5 4.5l-4.5 4.5q-5 6 -12 16t-3 25q-7 11 -8 23q-4 -8 -6.5 -15.5t-4.5 -14.5l-4 -13l-13 -2
q-2 -2 -3.5 -6t-0.5 -6l4 -11l-10 -9q-2 -3 -5 -5t-5 -4q-2 -11 -5.5 -21t-7.5 -20q-5 -16 -9.5 -31t-4.5 -30l-4 -13q-5 -8 -12.5 -12t-14.5 -7q-10 -4 -14 -8l-3 -13l-15 -2q-13 -3 -18.5 -4t-12.5 -1l-13 1q-12 12 -19.5 18.5t-17.5 11.5l-6 8q-4 8 -5 14.5t-3 13.5
q-2 13 -6 18l-15 15l13 10l1 21q25 61 51.5 117t55.5 115q9 19 18.5 38t18.5 39q-1 4 -1 8.5t2 10.5q14 20 22.5 36t16.5 33q9 20 19.5 40t26.5 39l7 10l11 -1q4 2 8.5 3.5t11.5 1.5l18 -3q47 26 84 75q-19 17 -28 42q-4 28 2 51.5t17 43.5t25.5 37t28.5 33q6 -2 8.5 3.5
t7.5 7.5q3 8 10 11.5t11 10.5q8 2 13 8t13 8q9 9 13.5 14t10.5 13q5 1 7.5 0.5t7.5 1.5q5 7 8 10t9 8q7 -3 14 -4t13 -7q0 -5 2.5 -8t5.5 -5t6 -5t4 -7q7 -6 9 -8t4 -9q-2 -5 -3.5 -10.5t-6.5 -7.5q5 -12 4 -13q11 -20 21 -41.5t22 -41.5q-2 -12 4 -22.5t8 -21.5
q2 -18 -2.5 -29t-12.5 -19.5t-19 -16t-21 -16.5zM508 796q2 10 2 13q-4 6 -7 13t-7 13q-5 -5 -7.5 -4.5t-4.5 2.5q-5 -5 -10.5 -9.5t-10.5 -9.5q-6 -8 -11 -13.5t-5 -14.5q7 -5 17 -3.5t18 1.5q8 3 14 6z" />
    <glyph glyph-name="AE" unicode="&#xc6;" horiz-adv-x="1181" 
d="M-72 95l15 10l4 21q33 61 67.5 117t71.5 115q12 19 24.5 38t24.5 39q-2 9 3 19q17 20 27.5 36t21.5 33q12 20 25.5 40t31.5 39l9 10l11 -1q4 2 8.5 3.5t11.5 1.5l18 -3q35 15 64.5 43.5t61.5 68.5l14 17l15 -10q5 -3 15.5 -6t21.5 -7q20 -5 39 -11.5t29 -17.5
q4 -20 4.5 -29t0.5 -18q1 -21 1 -41.5t-2 -45.5q4 -38 6 -81q2 -29 4 -55.5t8 -50.5h13.5t9.5 -1q5 2 15 4q10 20 19.5 39.5t17.5 42.5q-17 16 -24.5 34.5t-11.5 37.5t-6 38.5t-8 39.5q12 18 29 29.5t38 19t45 12t50 10.5q48 15 86 23.5t74 14t75 10t90 13.5q1 -3 4 -3h7
q2 -7 10 -7v10q2 0 5 -1l6 -2t4.5 0.5t1.5 6.5q12 -21 30.5 -34.5t41.5 -23.5q2 -9 1.5 -13t-1.5 -7.5t-1.5 -8t2.5 -12.5q-17 -27 -37.5 -42t-43.5 -23t-48.5 -12t-52 -8.5t-53 -12.5t-52.5 -24q-8 3 -14.5 2.5t-13.5 -2.5t-16 -4t-21 0q-7 -7 -18 -10l-22 -6
q5 -11 4.5 -22t2.5 -19q42 -4 93 0.5t101 6.5q0 -5 -2 -7t-2 -7q9 -6 17.5 -15t16.5 -17.5t17.5 -14t21.5 -4.5q5 -10 6.5 -21t-2.5 -23q-20 -13 -39 -26.5t-40 -24.5t-44.5 -18t-51.5 -6h-9t-8 4q-11 -5 -27.5 -3.5t-27.5 -3.5q-14 5 -32 5t-32 5q-19 -26 -35 -54.5
t-28 -60.5q41 -6 68.5 -5t51 4t49 6t62.5 2q26 12 58 16.5t61 13.5q10 -3 16.5 -11.5l13 -17t14 -14.5t18.5 -4q5 -5 6.5 -12t2.5 -13t4 -9.5t11 -2.5q-19 -39 -42.5 -60t-53 -32.5t-66 -17t-81.5 -13.5q-11 -2 -18 0.5t-16 2.5q-28 -5 -66.5 -10t-77.5 -4t-75 10t-60 32
q-7 6 -9.5 14.5t-9.5 15.5q-12 -15 -28.5 -28t-35.5 -23t-38.5 -16t-38.5 -6q-14 3 -19.5 7t-10.5 8q-3 2 -5.5 4t-5.5 4l-13 6l7 15q4 8 1 14t-12 16q-3 3 -6 6.5t-6 7.5l-17 23l34 9q31 8 42.5 20.5t14.5 44.5q-23 5 -40 1.5t-34 -7.5q-23 -6 -45.5 -10.5t-48.5 -4.5
q-18 0 -36 3l-11 1l-1 11q-1 2 -2.5 4.5t-3.5 4.5q-5 6 -10 16t0 25q-2 5 -3 11t-1 12q-5 -8 -8.5 -15.5t-7.5 -14.5l-5 -13l-13 -2q-2 -2 -4 -6t-2 -6l2 -11l-11 -9q-3 -3 -5.5 -5t-5.5 -4q-5 -11 -9.5 -21t-9.5 -20q-8 -16 -14 -31t-8 -30l-7 -13q-6 -8 -14 -12t-16 -7
q-3 -2 -7.5 -4t-6.5 -4l-6 -13l-14 -2q-14 -3 -19.5 -4t-12.5 -1l-13 1q-11 12 -17.5 18.5t-15.5 11.5q-9 21 -9 36t-3 18zM284 355q-8 -10 -16.5 -20.5t-16.5 -21.5q8 1 14 1t13 1q36 2 66 5t66 10q-2 37 -6.5 75.5t-9.5 77.5l-6 -10q-29 -27 -56 -58t-47 -59z" />
    <glyph glyph-name="Ccedilla" unicode="&#xc7;" horiz-adv-x="626" 
d="M402 -149q15 -14 23 -32.5t3 -43.5q-9 -20 -23.5 -34.5t-35.5 -30.5q-18 -8 -35 -12t-30 -12q-6 2 -11.5 1.5t-8.5 1.5q-17 -8 -37.5 -11t-43.5 3q-17 -2 -33.5 -1.5t-30 4t-23.5 10t-13 18.5q-18 10 -24 27t5 34q8 1 15 7q41 -1 84 -0.5t92 11.5q1 5 5.5 7.5t9.5 4.5
l10 4t7 6q0 3 -2 4.5t-4.5 3t-4.5 3.5t-1 6q-11 -1 -24.5 3.5t-21.5 10.5q-17 1 -24 2.5t-12.5 3.5t-12.5 5t-23 8q-6 6 -12 10t-11 7.5t-8.5 8t-4.5 13.5q0 10 0.5 17t1 14.5t2 15.5t4.5 19q8 8 22.5 26t34.5 34q-15 5 -29.5 9t-28.5 9q-11 13 -23 24.5t-32 16.5
q-29 22 -47.5 55t-29 70t-14 76.5t-2.5 75.5q9 27 22 49.5t29 43t33.5 39t34.5 37.5q6 0 11 -3q4 11 12 19t17 14.5l18 13t15 15.5q25 6 44.5 17t37.5 24t37 24t44 17q9 10 22.5 17t27 13t26 13t20.5 19q6 -8 17 -5.5t20 5.5q6 1 10 -2t7.5 -6.5t6 -4.5t5.5 6q8 -1 4.5 -7
t-4.5 -8q10 2 16.5 -3.5t20.5 -7.5q5 -5 3 -8t-3 -10q36 -11 46 -34.5t2 -49t-29.5 -47t-47.5 -28.5q-31 -8 -57.5 -16t-51 -18t-46 -23.5t-37.5 -31.5q-28 -8 -50.5 -22t-42 -31t-37.5 -35.5t-36 -36.5q0 -17 -6 -26t-13 -18q2 -19 8.5 -32.5t13.5 -27.5
q80 -24 169.5 -29.5t177.5 -6.5q9 -12 20.5 -22.5t21 -21.5t15 -25.5t2.5 -34.5q-17 -17 -37 -32.5t-40 -30.5q-9 -1 -21.5 0t-26 1t-27 -1.5t-25.5 -6.5q-46 1 -94 9l-39 -58q3 -6 11.5 -7t10.5 -7q22 -3 36.5 -11.5t26.5 -19t23 -22t26 -20.5q0 -3 2 -4.5t0 -6.5z" />
    <glyph glyph-name="Egrave" unicode="&#xc8;" horiz-adv-x="642" 
d="M56 34q-8 8 -11.5 19t-16.5 18q-2 15 -5.5 34.5t-7 40t-5 41t1.5 37.5q2 9 6.5 17t9 15.5t7 15.5t0.5 16q6 1 7.5 6.5t9.5 3.5q7 22 15 41t17 37t18.5 36.5t17.5 41.5q-17 16 -24.5 34.5t-11.5 37.5t-6 38.5t-8 39.5q12 18 29 29.5t37.5 19t44.5 12t51 10.5
q48 15 86 23.5t74 14t75 10t90 13.5q1 -3 3.5 -3h6.5q3 -7 11 -7q0 3 -0.5 5.5t-0.5 4.5q2 0 5.5 -1t6 -2t4.5 0.5t1 6.5q12 -21 31 -34.5t42 -23.5q1 -9 0.5 -13t-1.5 -7.5t-1 -8t2 -12.5q-16 -27 -36.5 -42t-43.5 -23t-48.5 -12t-52 -8.5t-53.5 -12.5t-53 -24
q-8 3 -14.5 2.5t-13.5 -2.5t-15.5 -4t-20.5 0q-8 -7 -18.5 -10t-21.5 -6q5 -11 4.5 -22t2.5 -19q42 -4 93 0.5t100 6.5q1 -5 -1 -7t-2 -7q9 -6 17 -15t16.5 -17.5t17.5 -14t21 -4.5q5 -10 7 -21t-3 -23q-20 -13 -39 -26.5t-39.5 -24.5t-44.5 -18t-52 -6h-8.5t-8.5 4
q-10 -5 -26.5 -3.5t-27.5 -3.5q-14 5 -32.5 5t-32.5 5q-18 -26 -34 -54.5t-28 -60.5q41 -6 68 -5t51 4t49.5 6t62.5 2q25 12 57.5 16.5t60.5 13.5q10 -3 17 -11.5t13.5 -17t13.5 -14.5t18 -4q5 -5 6.5 -12t3 -13t4.5 -9.5t11 -2.5q-19 -39 -42.5 -60t-53 -32.5t-66 -17
t-81.5 -13.5q-11 -2 -18.5 0.5t-15.5 2.5q-28 -5 -66.5 -10t-77.5 -4t-75 10t-60 32zM256 962q-8 12 -8.5 23t2.5 22t9 22.5t12 25.5q8 4 18 14.5t11 21.5q5 -3 14.5 2.5t11.5 11.5q11 -6 20.5 -15.5l18.5 -18.5t18 -16.5t20 -9.5q24 -27 51.5 -53.5t50.5 -51.5
q4 -14 14.5 -21t19 -15t10.5 -19t-11 -32q6 -10 5 -18t-5.5 -15t-11.5 -14l-14 -14q-24 1 -50 15t-50.5 32.5t-45.5 38t-36 32.5q-29 26 -47.5 38t-26.5 14z" />
    <glyph glyph-name="Eacute" unicode="&#xc9;" horiz-adv-x="642" 
d="M56 34q-8 8 -11.5 19t-16.5 18q-2 15 -5.5 34.5t-7 40t-5 41t1.5 37.5q2 9 6.5 17t9 15.5t7 15.5t0.5 16q6 1 7.5 6.5t9.5 3.5q7 22 15 41t17 37t18.5 36.5t17.5 41.5q-17 16 -24.5 34.5t-11.5 37.5t-6 38.5t-8 39.5q12 18 29 29.5t37.5 19t44.5 12t51 10.5
q48 15 86 23.5t74 14t75 10t90 13.5q1 -3 3.5 -3h6.5q3 -7 11 -7q0 3 -0.5 5.5t-0.5 4.5q2 0 5.5 -1t6 -2t4.5 0.5t1 6.5q12 -21 31 -34.5t42 -23.5q1 -9 0.5 -13t-1.5 -7.5t-1 -8t2 -12.5q-16 -27 -36.5 -42t-43.5 -23t-48.5 -12t-52 -8.5t-53.5 -12.5t-53 -24
q-8 3 -14.5 2.5t-13.5 -2.5t-15.5 -4t-20.5 0q-8 -7 -18.5 -10t-21.5 -6q5 -11 4.5 -22t2.5 -19q42 -4 93 0.5t100 6.5q1 -5 -1 -7t-2 -7q9 -6 17 -15t16.5 -17.5t17.5 -14t21 -4.5q5 -10 7 -21t-3 -23q-20 -13 -39 -26.5t-39.5 -24.5t-44.5 -18t-52 -6h-8.5t-8.5 4
q-10 -5 -26.5 -3.5t-27.5 -3.5q-14 5 -32.5 5t-32.5 5q-18 -26 -34 -54.5t-28 -60.5q41 -6 68 -5t51 4t49.5 6t62.5 2q25 12 57.5 16.5t60.5 13.5q10 -3 17 -11.5t13.5 -17t13.5 -14.5t18 -4q5 -5 6.5 -12t3 -13t4.5 -9.5t11 -2.5q-19 -39 -42.5 -60t-53 -32.5t-66 -17
t-81.5 -13.5q-11 -2 -18.5 0.5t-15.5 2.5q-28 -5 -66.5 -10t-77.5 -4t-75 10t-60 32zM590 952q-8 -2 -26.5 -14t-47.5 -38q-15 -13 -36 -32.5t-45.5 -38t-50.5 -32.5t-50 -15l-14 14t-11.5 14t-5.5 15t5 18q-13 21 -11 32t10.5 19t19 15t14.5 21q23 25 50.5 51.5t51.5 53.5
q10 2 19.5 9.5t18.5 16.5l18.5 18.5t20.5 15.5q2 -6 11.5 -11.5t14.5 -2.5q1 -11 11 -21.5t18 -14.5q6 -14 12 -25.5t9 -22.5t2.5 -22t-8.5 -23z" />
    <glyph glyph-name="Ecircumflex" unicode="&#xca;" horiz-adv-x="642" 
d="M56 34q-8 8 -11.5 19t-16.5 18q-2 15 -5.5 34.5t-7 40t-5 41t1.5 37.5q2 9 6.5 17t9 15.5t7 15.5t0.5 16q6 1 7.5 6.5t9.5 3.5q7 22 15 41t17 37t18.5 36.5t17.5 41.5q-17 16 -24.5 34.5t-11.5 37.5t-6 38.5t-8 39.5q12 18 29 29.5t37.5 19t44.5 12t51 10.5
q48 15 86 23.5t74 14t75 10t90 13.5q1 -3 3.5 -3h6.5q3 -7 11 -7q0 3 -0.5 5.5t-0.5 4.5q2 0 5.5 -1t6 -2t4.5 0.5t1 6.5q12 -21 31 -34.5t42 -23.5q1 -9 0.5 -13t-1.5 -7.5t-1 -8t2 -12.5q-16 -27 -36.5 -42t-43.5 -23t-48.5 -12t-52 -8.5t-53.5 -12.5t-53 -24
q-8 3 -14.5 2.5t-13.5 -2.5t-15.5 -4t-20.5 0q-8 -7 -18.5 -10t-21.5 -6q5 -11 4.5 -22t2.5 -19q42 -4 93 0.5t100 6.5q1 -5 -1 -7t-2 -7q9 -6 17 -15t16.5 -17.5t17.5 -14t21 -4.5q5 -10 7 -21t-3 -23q-20 -13 -39 -26.5t-39.5 -24.5t-44.5 -18t-52 -6h-8.5t-8.5 4
q-10 -5 -26.5 -3.5t-27.5 -3.5q-14 5 -32.5 5t-32.5 5q-18 -26 -34 -54.5t-28 -60.5q41 -6 68 -5t51 4t49.5 6t62.5 2q25 12 57.5 16.5t60.5 13.5q10 -3 17 -11.5t13.5 -17t13.5 -14.5t18 -4q5 -5 6.5 -12t3 -13t4.5 -9.5t11 -2.5q-19 -39 -42.5 -60t-53 -32.5t-66 -17
t-81.5 -13.5q-11 -2 -18.5 0.5t-15.5 2.5q-28 -5 -66.5 -10t-77.5 -4t-75 10t-60 32zM253 800q-1 10 -9 19t-14 13q-5 12 -10 22t-8 19.5t-2 18.5t7 20q8 2 22.5 13t37.5 33q11 10 26 25.5t33 30.5t37 27t37 17q10 2 14 2q20 -7 39 -19t37 -27t33 -30.5t26 -25.5
q23 -22 37.5 -33t22.5 -13q6 -11 7 -20t-2 -18.5t-8 -19.5t-10 -22q-6 -4 -14 -13t-9 -19q-4 3 -11.5 -2t-9.5 -10q-9 5 -16.5 13.5t-15 16.5t-15 14t-15.5 8q-20 23 -41.5 46.5t-40.5 44.5q-19 -21 -40.5 -44.5t-41.5 -46.5q-8 -2 -15.5 -8t-15 -14t-15 -16.5t-16.5 -13.5
q-2 5 -9.5 10t-11.5 2z" />
    <glyph glyph-name="Edieresis" unicode="&#xcb;" horiz-adv-x="642" 
d="M56 34q-8 8 -11.5 19t-16.5 18q-2 15 -5.5 34.5t-7 40t-5 41t1.5 37.5q2 9 6.5 17t9 15.5t7 15.5t0.5 16q6 1 7.5 6.5t9.5 3.5q7 22 15 41t17 37t18.5 36.5t17.5 41.5q-17 16 -24.5 34.5t-11.5 37.5t-6 38.5t-8 39.5q12 18 29 29.5t37.5 19t44.5 12t51 10.5
q48 15 86 23.5t74 14t75 10t90 13.5q1 -3 3.5 -3h6.5q3 -7 11 -7q0 3 -0.5 5.5t-0.5 4.5q2 0 5.5 -1t6 -2t4.5 0.5t1 6.5q12 -21 31 -34.5t42 -23.5q1 -9 0.5 -13t-1.5 -7.5t-1 -8t2 -12.5q-16 -27 -36.5 -42t-43.5 -23t-48.5 -12t-52 -8.5t-53.5 -12.5t-53 -24
q-8 3 -14.5 2.5t-13.5 -2.5t-15.5 -4t-20.5 0q-8 -7 -18.5 -10t-21.5 -6q5 -11 4.5 -22t2.5 -19q42 -4 93 0.5t100 6.5q1 -5 -1 -7t-2 -7q9 -6 17 -15t16.5 -17.5t17.5 -14t21 -4.5q5 -10 7 -21t-3 -23q-20 -13 -39 -26.5t-39.5 -24.5t-44.5 -18t-52 -6h-8.5t-8.5 4
q-10 -5 -26.5 -3.5t-27.5 -3.5q-14 5 -32.5 5t-32.5 5q-18 -26 -34 -54.5t-28 -60.5q41 -6 68 -5t51 4t49.5 6t62.5 2q25 12 57.5 16.5t60.5 13.5q10 -3 17 -11.5t13.5 -17t13.5 -14.5t18 -4q5 -5 6.5 -12t3 -13t4.5 -9.5t11 -2.5q-19 -39 -42.5 -60t-53 -32.5t-66 -17
t-81.5 -13.5q-11 -2 -18.5 0.5t-15.5 2.5q-28 -5 -66.5 -10t-77.5 -4t-75 10t-60 32zM650 889l1 -11q-7 -12 -11.5 -20t-6.5 -17q-11 -11 -17 -13.5t-11 -4.5q-11 -4 -15 -8l-10 -15l-10 9l-15 -14q-11 9 -16 13.5t-9.5 7.5t-12 6.5t-23.5 10.5l-14 5l4 13q2 5 1.5 18
t0.5 22q1 16 0 30t5 25q21 11 33 15q10 -1 19 -2l18 -2q7 -1 9 -1.5t2.5 -0.5t2.5 0.5t8 2.5l12 -2q7 -3 11.5 -8.5t9.5 -10.5q4 -8 8 -10l12 -1l4 -12q5 -10 6.5 -14.5zM351 928q11 -12 22 -22t13 -22q-4 -16 -6.5 -22t-5.5 -13q-13 -11 -30 -23q-6 -5 -8 -6t-2.5 -1.5
t-1 -2t-3.5 -7.5l-10 -7q-8 -3 -15 -2.5t-14 1.5q-3 0 -7.5 0.5t-6.5 0.5l-8 -8l-12 5q-11 5 -15.5 6.5t-9.5 5.5l-9 6q-4 15 -6.5 23.5t-6.5 16.5q0 17 2 23t4 11q6 11 5 16l-4 18l15 1v21q14 1 21 1t13 1.5t13.5 4.5t24.5 10l14 6l6 -13q2 -4 11.5 -13t16.5 -16z" />
    <glyph glyph-name="Igrave" unicode="&#xcc;" horiz-adv-x="528" 
d="M17 -12q-14 9 -22.5 23t-14 30t-9 33.5t-7.5 33.5q0 14 6 20.5t13 12.5q24 1 43 4t37 6t36 5.5t39 2.5q15 31 28 59.5t25 54.5q6 25 15.5 46.5t18.5 41t16 39t9 41.5q12 35 21.5 64.5t14.5 70.5q-38 -6 -61 -11.5t-33 -10.5q-20 1 -31.5 8t-18.5 17t-12 23t-12 27
q4 9 2 26.5t-12 25.5q8 2 12 13.5t1 17.5q17 5 36 6.5t37.5 3t35.5 4t29 10.5q52 2 108.5 4t104.5 5q18 -6 41.5 -6t47 -3t42 -13t25.5 -35q15 -2 22.5 -8t9.5 -14.5t1.5 -19t-0.5 -20.5q-16 -12 -40.5 -19.5t-53.5 -12t-60.5 -6t-61.5 -2.5q-5 -33 -17.5 -77.5t-25.5 -87
t-22.5 -76t-8.5 -43.5q-10 -23 -16.5 -39t-12 -30t-11 -27.5t-13.5 -30.5h68q2 -11 9 -15t15 -7t14.5 -7.5t6.5 -14.5q19 -5 24 -15t2.5 -21.5t-10 -23.5t-14.5 -21q-9 2 -17 -4.5t-15 -14.5q-29 4 -57 1t-52 -5q-5 -1 -4 -5.5t-2 -6.5q-31 10 -63.5 8t-66 -9.5t-68.5 -16
t-71 -9.5zM225 993q-8 12 -8.5 23t2.5 22t9 22.5t12 25.5q8 4 18 14.5t11 21.5q5 -3 14.5 2.5t11.5 11.5q11 -6 20.5 -15.5l18.5 -18.5t18 -16.5t20 -9.5q24 -27 51.5 -53.5t50.5 -51.5q4 -14 14.5 -21t19 -15t10.5 -19t-11 -32q6 -10 5 -18t-5.5 -15t-11.5 -14l-14 -14
q-24 1 -50 15t-50.5 32.5t-45.5 38t-36 32.5q-29 26 -47.5 38t-26.5 14z" />
    <glyph glyph-name="Iacute" unicode="&#xcd;" horiz-adv-x="528" 
d="M17 -12q-14 9 -22.5 23t-14 30t-9 33.5t-7.5 33.5q0 14 6 20.5t13 12.5q24 1 43 4t37 6t36 5.5t39 2.5q15 31 28 59.5t25 54.5q6 25 15.5 46.5t18.5 41t16 39t9 41.5q12 35 21.5 64.5t14.5 70.5q-38 -6 -61 -11.5t-33 -10.5q-20 1 -31.5 8t-18.5 17t-12 23t-12 27
q4 9 2 26.5t-12 25.5q8 2 12 13.5t1 17.5q17 5 36 6.5t37.5 3t35.5 4t29 10.5q52 2 108.5 4t104.5 5q18 -6 41.5 -6t47 -3t42 -13t25.5 -35q15 -2 22.5 -8t9.5 -14.5t1.5 -19t-0.5 -20.5q-16 -12 -40.5 -19.5t-53.5 -12t-60.5 -6t-61.5 -2.5q-5 -33 -17.5 -77.5t-25.5 -87
t-22.5 -76t-8.5 -43.5q-10 -23 -16.5 -39t-12 -30t-11 -27.5t-13.5 -30.5h68q2 -11 9 -15t15 -7t14.5 -7.5t6.5 -14.5q19 -5 24 -15t2.5 -21.5t-10 -23.5t-14.5 -21q-9 2 -17 -4.5t-15 -14.5q-29 4 -57 1t-52 -5q-5 -1 -4 -5.5t-2 -6.5q-31 10 -63.5 8t-66 -9.5t-68.5 -16
t-71 -9.5zM641 993q-8 -2 -26.5 -14t-47.5 -38q-15 -13 -36 -32.5t-45.5 -38t-50.5 -32.5t-50 -15l-14 14t-11.5 14t-5.5 15t5 18q-13 21 -11 32t10.5 19t19 15t14.5 21q23 25 50.5 51.5t51.5 53.5q10 2 19.5 9.5t18.5 16.5l18.5 18.5t20.5 15.5q2 -6 11.5 -11.5t14.5 -2.5
q1 -11 11 -21.5t18 -14.5q6 -14 12 -25.5t9 -22.5t2.5 -22t-8.5 -23z" />
    <glyph glyph-name="Icircumflex" unicode="&#xce;" horiz-adv-x="528" 
d="M17 -12q-14 9 -22.5 23t-14 30t-9 33.5t-7.5 33.5q0 14 6 20.5t13 12.5q24 1 43 4t37 6t36 5.5t39 2.5q15 31 28 59.5t25 54.5q6 25 15.5 46.5t18.5 41t16 39t9 41.5q12 35 21.5 64.5t14.5 70.5q-38 -6 -61 -11.5t-33 -10.5q-20 1 -31.5 8t-18.5 17t-12 23t-12 27
q4 9 2 26.5t-12 25.5q8 2 12 13.5t1 17.5q17 5 36 6.5t37.5 3t35.5 4t29 10.5q52 2 108.5 4t104.5 5q18 -6 41.5 -6t47 -3t42 -13t25.5 -35q15 -2 22.5 -8t9.5 -14.5t1.5 -19t-0.5 -20.5q-16 -12 -40.5 -19.5t-53.5 -12t-60.5 -6t-61.5 -2.5q-5 -33 -17.5 -77.5t-25.5 -87
t-22.5 -76t-8.5 -43.5q-10 -23 -16.5 -39t-12 -30t-11 -27.5t-13.5 -30.5h68q2 -11 9 -15t15 -7t14.5 -7.5t6.5 -14.5q19 -5 24 -15t2.5 -21.5t-10 -23.5t-14.5 -21q-9 2 -17 -4.5t-15 -14.5q-29 4 -57 1t-52 -5q-5 -1 -4 -5.5t-2 -6.5q-31 10 -63.5 8t-66 -9.5t-68.5 -16
t-71 -9.5zM264 831q-1 10 -9 19t-14 13q-5 12 -10 22t-8 19.5t-2 18.5t7 20q8 2 22.5 13t37.5 33q11 10 26 25.5t33 30.5t37 27t37 17q10 2 14 2q20 -7 39 -19t37 -27t33 -30.5t26 -25.5q23 -22 37.5 -33t22.5 -13q6 -11 7 -20t-2 -18.5t-8 -19.5t-10 -22q-6 -4 -14 -13
t-9 -19q-4 3 -11.5 -2t-9.5 -10q-9 5 -16.5 13.5t-15 16.5t-15 14t-15.5 8q-20 23 -41.5 46.5t-40.5 44.5q-19 -21 -40.5 -44.5t-41.5 -46.5q-8 -2 -15.5 -8t-15 -14t-15 -16.5t-16.5 -13.5q-2 5 -9.5 10t-11.5 2z" />
    <glyph glyph-name="Idieresis" unicode="&#xcf;" horiz-adv-x="528" 
d="M17 -12q-14 9 -22.5 23t-14 30t-9 33.5t-7.5 33.5q0 14 6 20.5t13 12.5q24 1 43 4t37 6t36 5.5t39 2.5q15 31 28 59.5t25 54.5q6 25 15.5 46.5t18.5 41t16 39t9 41.5q12 35 21.5 64.5t14.5 70.5q-38 -6 -61 -11.5t-33 -10.5q-20 1 -31.5 8t-18.5 17t-12 23t-12 27
q4 9 2 26.5t-12 25.5q8 2 12 13.5t1 17.5q17 5 36 6.5t37.5 3t35.5 4t29 10.5q52 2 108.5 4t104.5 5q18 -6 41.5 -6t47 -3t42 -13t25.5 -35q15 -2 22.5 -8t9.5 -14.5t1.5 -19t-0.5 -20.5q-16 -12 -40.5 -19.5t-53.5 -12t-60.5 -6t-61.5 -2.5q-5 -33 -17.5 -77.5t-25.5 -87
t-22.5 -76t-8.5 -43.5q-10 -23 -16.5 -39t-12 -30t-11 -27.5t-13.5 -30.5h68q2 -11 9 -15t15 -7t14.5 -7.5t6.5 -14.5q19 -5 24 -15t2.5 -21.5t-10 -23.5t-14.5 -21q-9 2 -17 -4.5t-15 -14.5q-29 4 -57 1t-52 -5q-5 -1 -4 -5.5t-2 -6.5q-31 10 -63.5 8t-66 -9.5t-68.5 -16
t-71 -9.5zM669 920l1 -11q-7 -12 -11.5 -20t-6.5 -17q-11 -11 -17 -13.5t-11 -4.5q-11 -4 -15 -8l-10 -15l-10 9l-15 -14q-11 9 -16 13.5t-9.5 7.5t-12 6.5t-23.5 10.5l-14 5l4 13q2 5 1.5 18t0.5 22q1 16 0 30t5 25q21 11 33 15q10 -1 19 -2l18 -2q7 -1 9 -1.5t2.5 -0.5
t2.5 0.5t8 2.5l12 -2q7 -3 11.5 -8.5t9.5 -10.5q4 -8 8 -10l12 -1l4 -12q5 -10 6.5 -14.5zM370 959q11 -12 22 -22t13 -22q-4 -16 -6.5 -22t-5.5 -13q-13 -11 -30 -23q-6 -5 -8 -6t-2.5 -1.5t-1 -2t-3.5 -7.5l-10 -7q-8 -3 -15 -2.5t-14 1.5q-3 0 -7.5 0.5t-6.5 0.5l-8 -8
l-12 5q-11 5 -15.5 6.5t-9.5 5.5l-9 6q-4 15 -6.5 23.5t-6.5 16.5q0 17 2 23t4 11q6 11 5 16l-4 18l15 1v21q14 1 21 1t13 1.5t13.5 4.5t24.5 10l14 6l6 -13q2 -4 11.5 -13t16.5 -16z" />
    <glyph glyph-name="Eth" unicode="&#xd0;" horiz-adv-x="672" 
d="M-9 345q1 4 2 11.5t0 15.5t-3 15.5t-5 11.5q5 2 8 14t1 18q12 5 26 7t27 3.5t25 4.5t21 11q13 1 25.5 2t26.5 2q-4 55 -20 107q2 11 4 16.5t0 9.5q-2 9 6 9h16q0 18 -6.5 35.5t-12.5 40.5q8 18 11 35t11 31q64 -20 123.5 -48.5t116.5 -42.5q43 -31 88.5 -61.5t83 -67
t62.5 -83.5t29 -111q-2 -6 -3 -10l-2 -8t-1.5 -9t0.5 -14q-36 -63 -91 -106t-120 -76t-135.5 -60.5t-137.5 -58.5q-29 7 -44.5 23.5t-23 39t-10 49.5t-5.5 56q4 13 10.5 22t5.5 25q8 23 15 46t12 46q-35 -8 -55.5 -15t-28.5 -13q-14 1 -22 8t-13 17.5t-8.5 24t-8.5 27.5z
M265 556q-9 0 -13 -4q12 -47 18 -88q12 -1 25.5 -2t25 -5.5t20.5 -14.5t13 -30q11 -2 16 -8t6.5 -14.5t1 -19.5t-0.5 -21q-17 -19 -44.5 -28t-59.5 -13q-4 -42 -15 -94q13 1 23 5t20.5 9t22 9t26.5 5q4 8 10.5 12.5t11.5 9.5q25 10 49.5 21t46 25t38.5 32t28 43
q-8 15 -19.5 25.5t-24 21t-24 22t-18.5 26.5q-16 2 -28 8.5t-23 13t-23.5 12.5t-29.5 7q-26 14 -47 19.5t-32 15.5z" />
    <glyph glyph-name="Ntilde" unicode="&#xd1;" horiz-adv-x="701" 
d="M181 94q-10 -8 -12 -20.5t-5 -24.5t-10.5 -20.5t-26.5 -7.5q-4 -5 -1.5 -6t4.5 -9q-14 2 -20 -2t-15 -6q-23 7 -38.5 25.5t-27 40.5t-20 45t-17.5 40q0 4 3.5 3.5t6.5 -0.5q-5 10 -7.5 22.5t-9.5 20.5q29 62 62 129.5t66.5 137t67 140t64.5 138.5q28 -10 54.5 -23.5
t48.5 -31.5t37.5 -41.5t20.5 -53.5q-2 -6 -5 -4t-5 -2q5 -6 5.5 -8.5t-0.5 -5t-1 -6.5t5 -11q-5 1 -7 -1.5t-7 -0.5q5 -14 3 -22t-6 -14.5t-6.5 -14t1.5 -20.5q-4 0 -5.5 -1.5t-2.5 -3.5t-2.5 -3.5t-5.5 -0.5q3 -26 2 -52.5t-2 -54t0 -56.5t8 -60q43 25 69.5 65t42 89
t24 105t17.5 114q11 11 17.5 27t11 33t9 34.5t12.5 31.5q18 -2 30.5 -10.5t23.5 -19t23 -19.5t30 -12q14 -20 26 -38.5t16 -41.5q-6 -10 -9 -22t-6.5 -24t-9.5 -22t-17 -17q-3 -30 -9 -56t-11 -51t-9 -52t-3 -59q-9 -29 -20 -59.5t-16 -56.5q-19 -15 -30 -37t-23 -44
q-5 -4 -6 -1.5t-9 3.5q1 -9 -3.5 -11.5t0.5 -14.5q-17 -8 -30 -21t-28.5 -24t-36 -14.5t-53.5 8.5q-49 36 -88 83t-62 111q-10 -3 -15 -13t-9 -21t-8 -20t-12 -9q-2 -9 -7.5 -16.5t-10.5 -15t-7.5 -16.5t2.5 -20zM732 1009q17 -1 26.5 -9t9.5 -22q-2 -12 -7 -20
q-7 -16 -12.5 -24.5t-11.5 -17.5q-9 -14 -17.5 -27t-19.5 -27q-7 -6 -11 -8q-9 -8 -19 -14.5t-21 -11.5q-18 -7 -33.5 -8.5t-33.5 -1.5h-14q-11 1 -22.5 2t-19.5 3q-15 8 -23.5 14t-16.5 12q-9 6 -15 13t-11 14q-4 6 -9.5 11.5t-10.5 5.5q-5 -1 -9.5 -6t-9.5 -10
q-2 -2 -4 -4.5t-4 -4.5q-6 -19 -24 -31q-9 -5 -14 -6t-9 -3l-10 -2l-10 -2l-10 1q-15 -5 -25 -5q-20 1 -29.5 9.5t-9.5 21.5q2 12 7 20q8 16 13.5 25t11.5 18q8 13 16.5 26t19.5 27q7 6 11 8q9 8 19 14.5t21 11.5q18 7 33.5 8.5t33.5 1.5h14q23 -2 42 -5q15 -8 23.5 -14
t16.5 -12q9 -6 15 -13t11 -14q12 -17 21 -16q5 0 9 4.5t9 10.5q2 3 8 9q6 19 24 31q14 7 23 9l10 2l10 2h10q12 4 25 4h3z" />
    <glyph glyph-name="Ograve" unicode="&#xd2;" horiz-adv-x="762" 
d="M241 -4q-44 -6 -80 4t-64.5 31t-49 50t-33.5 62q-9 68 5 123.5t41 102.5t61.5 88t66.5 79q7 -3 11.5 0t8 8t8 10t10.5 7q4 9 10.5 15t14 11.5t14 11.5t11.5 15q10 2 17.5 7t14 11t13.5 11t17 8v13q22 10 32 22t24 31q11 1 17.5 1t20.5 2q9 17 17 25t23 18q15 -8 32 -9.5
t31 -15.5q1 -12 7 -18.5t13 -12t14 -11.5t9 -17q5 0 6.5 2t6.5 1q2 -8 4 -13t4.5 -9t5 -9t4.5 -12q-5 -12 -9 -25.5t-16 -18.5q0 -8 6 -8.5t7 -7.5q1 -9 -3 -15q28 -47 51 -98.5t52 -98.5q-2 -14 1.5 -27.5t9 -26.5t10.5 -26t7 -26q2 -17 0 -36.5t-8 -37.5t-16 -33.5
t-23 -23.5q-16 -20 -40 -32.5t-44 -29.5q-14 -8 -30 -11.5t-33 -7.5q-13 -8 -31 -15.5t-37 -13.5t-38 -9.5t-34 -1.5q-36 -13 -70 -18t-80 5zM254 360q-10 -23 -23.5 -41.5t-26.5 -37.5t-22.5 -40.5t-10.5 -50.5q20 -17 47.5 -20.5t56.5 -1t58 7.5t52 5q0 9 8 9
q42 4 78 23.5t75 39.5q5 12 13 21t9 26q-5 9 -6.5 15t-1.5 18q-26 36 -45 78.5t-44 80.5q-2 -5 -8 -10t-13 2q-3 -10 -9 -13.5t-13.5 -3.5t-15 3t-13.5 8q-35 -28 -69.5 -54t-62.5 -61q-5 -3 -6 -2t-7 -1zM388 941q-8 12 -8.5 23t2.5 22t9 22.5t12 25.5q8 4 18 14.5t11 21.5
q5 -3 14.5 2.5t11.5 11.5q11 -6 20.5 -15.5l18.5 -18.5t18 -16.5t20 -9.5q24 -27 51.5 -53.5t50.5 -51.5q4 -14 14.5 -21t19 -15t10.5 -19t-11 -32q6 -10 5 -18t-5.5 -15t-11.5 -14l-14 -14q-24 1 -50 15t-50.5 32.5t-45.5 38t-36 32.5q-29 26 -47.5 38t-26.5 14z" />
    <glyph glyph-name="Oacute" unicode="&#xd3;" horiz-adv-x="762" 
d="M241 -4q-44 -6 -80 4t-64.5 31t-49 50t-33.5 62q-9 68 5 123.5t41 102.5t61.5 88t66.5 79q7 -3 11.5 0t8 8t8 10t10.5 7q4 9 10.5 15t14 11.5t14 11.5t11.5 15q10 2 17.5 7t14 11t13.5 11t17 8v13q22 10 32 22t24 31q11 1 17.5 1t20.5 2q9 17 17 25t23 18q15 -8 32 -9.5
t31 -15.5q1 -12 7 -18.5t13 -12t14 -11.5t9 -17q5 0 6.5 2t6.5 1q2 -8 4 -13t4.5 -9t5 -9t4.5 -12q-5 -12 -9 -25.5t-16 -18.5q0 -8 6 -8.5t7 -7.5q1 -9 -3 -15q28 -47 51 -98.5t52 -98.5q-2 -14 1.5 -27.5t9 -26.5t10.5 -26t7 -26q2 -17 0 -36.5t-8 -37.5t-16 -33.5
t-23 -23.5q-16 -20 -40 -32.5t-44 -29.5q-14 -8 -30 -11.5t-33 -7.5q-13 -8 -31 -15.5t-37 -13.5t-38 -9.5t-34 -1.5q-36 -13 -70 -18t-80 5zM254 360q-10 -23 -23.5 -41.5t-26.5 -37.5t-22.5 -40.5t-10.5 -50.5q20 -17 47.5 -20.5t56.5 -1t58 7.5t52 5q0 9 8 9
q42 4 78 23.5t75 39.5q5 12 13 21t9 26q-5 9 -6.5 15t-1.5 18q-26 36 -45 78.5t-44 80.5q-2 -5 -8 -10t-13 2q-3 -10 -9 -13.5t-13.5 -3.5t-15 3t-13.5 8q-35 -28 -69.5 -54t-62.5 -61q-5 -3 -6 -2t-7 -1zM600 952q-8 -2 -26.5 -14t-47.5 -38q-15 -13 -36 -32.5t-45.5 -38
t-50.5 -32.5t-50 -15l-14 14t-11.5 14t-5.5 15t5 18q-13 21 -11 32t10.5 19t19 15t14.5 21q23 25 50.5 51.5t51.5 53.5q10 2 19.5 9.5t18.5 16.5l18.5 18.5t20.5 15.5q2 -6 11.5 -11.5t14.5 -2.5q1 -11 11 -21.5t18 -14.5q6 -14 12 -25.5t9 -22.5t2.5 -22t-8.5 -23z" />
    <glyph glyph-name="Ocircumflex" unicode="&#xd4;" horiz-adv-x="762" 
d="M241 -4q-44 -6 -80 4t-64.5 31t-49 50t-33.5 62q-9 68 5 123.5t41 102.5t61.5 88t66.5 79q7 -3 11.5 0t8 8t8 10t10.5 7q4 9 10.5 15t14 11.5t14 11.5t11.5 15q10 2 17.5 7t14 11t13.5 11t17 8v13q22 10 32 22t24 31q11 1 17.5 1t20.5 2q9 17 17 25t23 18q15 -8 32 -9.5
t31 -15.5q1 -12 7 -18.5t13 -12t14 -11.5t9 -17q5 0 6.5 2t6.5 1q2 -8 4 -13t4.5 -9t5 -9t4.5 -12q-5 -12 -9 -25.5t-16 -18.5q0 -8 6 -8.5t7 -7.5q1 -9 -3 -15q28 -47 51 -98.5t52 -98.5q-2 -14 1.5 -27.5t9 -26.5t10.5 -26t7 -26q2 -17 0 -36.5t-8 -37.5t-16 -33.5
t-23 -23.5q-16 -20 -40 -32.5t-44 -29.5q-14 -8 -30 -11.5t-33 -7.5q-13 -8 -31 -15.5t-37 -13.5t-38 -9.5t-34 -1.5q-36 -13 -70 -18t-80 5zM254 360q-10 -23 -23.5 -41.5t-26.5 -37.5t-22.5 -40.5t-10.5 -50.5q20 -17 47.5 -20.5t56.5 -1t58 7.5t52 5q0 9 8 9
q42 4 78 23.5t75 39.5q5 12 13 21t9 26q-5 9 -6.5 15t-1.5 18q-26 36 -45 78.5t-44 80.5q-2 -5 -8 -10t-13 2q-3 -10 -9 -13.5t-13.5 -3.5t-15 3t-13.5 8q-35 -28 -69.5 -54t-62.5 -61q-5 -3 -6 -2t-7 -1zM334 790q-1 10 -9 19t-14 13q-5 12 -10 22t-8 19.5t-2 18.5t7 20
q8 2 22.5 13t37.5 33q11 10 26 25.5t33 30.5t37 27t37 17q10 2 14 2q20 -7 39 -19t37 -27t33 -30.5t26 -25.5q23 -22 37.5 -33t22.5 -13q6 -11 7 -20t-2 -18.5t-8 -19.5t-10 -22q-6 -4 -14 -13t-9 -19q-4 3 -11.5 -2t-9.5 -10q-9 5 -16.5 13.5t-15 16.5t-15 14t-15.5 8
q-20 23 -41.5 46.5t-40.5 44.5q-19 -21 -40.5 -44.5t-41.5 -46.5q-8 -2 -15.5 -8t-15 -14t-15 -16.5t-16.5 -13.5q-2 5 -9.5 10t-11.5 2z" />
    <glyph glyph-name="Otilde" unicode="&#xd5;" horiz-adv-x="762" 
d="M241 -4q-44 -6 -80 4t-64.5 31t-49 50t-33.5 62q-9 68 5 123.5t41 102.5t61.5 88t66.5 79q7 -3 11.5 0t8 8t8 10t10.5 7q4 9 10.5 15t14 11.5t14 11.5t11.5 15q10 2 17.5 7t14 11t13.5 11t17 8v13q22 10 32 22t24 31q11 1 17.5 1t20.5 2q9 17 17 25t23 18q15 -8 32 -9.5
t31 -15.5q1 -12 7 -18.5t13 -12t14 -11.5t9 -17q5 0 6.5 2t6.5 1q2 -8 4 -13t4.5 -9t5 -9t4.5 -12q-5 -12 -9 -25.5t-16 -18.5q0 -8 6 -8.5t7 -7.5q1 -9 -3 -15q28 -47 51 -98.5t52 -98.5q-2 -14 1.5 -27.5t9 -26.5t10.5 -26t7 -26q2 -17 0 -36.5t-8 -37.5t-16 -33.5
t-23 -23.5q-16 -20 -40 -32.5t-44 -29.5q-14 -8 -30 -11.5t-33 -7.5q-13 -8 -31 -15.5t-37 -13.5t-38 -9.5t-34 -1.5q-36 -13 -70 -18t-80 5zM254 360q-10 -23 -23.5 -41.5t-26.5 -37.5t-22.5 -40.5t-10.5 -50.5q20 -17 47.5 -20.5t56.5 -1t58 7.5t52 5q0 9 8 9
q42 4 78 23.5t75 39.5q5 12 13 21t9 26q-5 9 -6.5 15t-1.5 18q-26 36 -45 78.5t-44 80.5q-2 -5 -8 -10t-13 2q-3 -10 -9 -13.5t-13.5 -3.5t-15 3t-13.5 8q-35 -28 -69.5 -54t-62.5 -61q-5 -3 -6 -2t-7 -1zM732 999q17 -1 26.5 -9t9.5 -22q-2 -12 -7 -20q-7 -16 -12.5 -24.5
t-11.5 -17.5q-9 -14 -17.5 -27t-19.5 -27q-7 -6 -11 -8q-9 -8 -19 -14.5t-21 -11.5q-18 -7 -33.5 -8.5t-33.5 -1.5h-14q-11 1 -22.5 2t-19.5 3q-15 8 -23.5 14t-16.5 12q-9 6 -15 13t-11 14q-4 6 -9.5 11.5t-10.5 5.5q-5 -1 -9.5 -6t-9.5 -10q-2 -2 -4 -4.5t-4 -4.5
q-6 -19 -24 -31q-9 -5 -14 -6t-9 -3l-10 -2l-10 -2l-10 1q-15 -5 -25 -5q-20 1 -29.5 9.5t-9.5 21.5q2 12 7 20q8 16 13.5 25t11.5 18q8 13 16.5 26t19.5 27q7 6 11 8q9 8 19 14.5t21 11.5q18 7 33.5 8.5t33.5 1.5h14q23 -2 42 -5q15 -8 23.5 -14t16.5 -12q9 -6 15 -13
t11 -14q12 -17 21 -16q5 0 9 4.5t9 10.5q2 3 8 9q6 19 24 31q14 7 23 9l10 2l10 2h10q12 4 25 4h3z" />
    <glyph glyph-name="Odieresis" unicode="&#xd6;" horiz-adv-x="762" 
d="M241 -4q-44 -6 -80 4t-64.5 31t-49 50t-33.5 62q-9 68 5 123.5t41 102.5t61.5 88t66.5 79q7 -3 11.5 0t8 8t8 10t10.5 7q4 9 10.5 15t14 11.5t14 11.5t11.5 15q10 2 17.5 7t14 11t13.5 11t17 8v13q22 10 32 22t24 31q11 1 17.5 1t20.5 2q9 17 17 25t23 18q15 -8 32 -9.5
t31 -15.5q1 -12 7 -18.5t13 -12t14 -11.5t9 -17q5 0 6.5 2t6.5 1q2 -8 4 -13t4.5 -9t5 -9t4.5 -12q-5 -12 -9 -25.5t-16 -18.5q0 -8 6 -8.5t7 -7.5q1 -9 -3 -15q28 -47 51 -98.5t52 -98.5q-2 -14 1.5 -27.5t9 -26.5t10.5 -26t7 -26q2 -17 0 -36.5t-8 -37.5t-16 -33.5
t-23 -23.5q-16 -20 -40 -32.5t-44 -29.5q-14 -8 -30 -11.5t-33 -7.5q-13 -8 -31 -15.5t-37 -13.5t-38 -9.5t-34 -1.5q-36 -13 -70 -18t-80 5zM254 360q-10 -23 -23.5 -41.5t-26.5 -37.5t-22.5 -40.5t-10.5 -50.5q20 -17 47.5 -20.5t56.5 -1t58 7.5t52 5q0 9 8 9
q42 4 78 23.5t75 39.5q5 12 13 21t9 26q-5 9 -6.5 15t-1.5 18q-26 36 -45 78.5t-44 80.5q-2 -5 -8 -10t-13 2q-3 -10 -9 -13.5t-13.5 -3.5t-15 3t-13.5 8q-35 -28 -69.5 -54t-62.5 -61q-5 -3 -6 -2t-7 -1zM720 899l1 -11q-7 -12 -11.5 -20t-6.5 -17q-11 -11 -17 -13.5
t-11 -4.5q-11 -4 -15 -8l-10 -15l-10 9l-15 -14q-11 9 -16 13.5t-9.5 7.5t-12 6.5t-23.5 10.5l-14 5l4 13q2 5 1.5 18t0.5 22q1 16 0 30t5 25q21 11 33 15q10 -1 19 -2l18 -2q7 -1 9 -1.5t2.5 -0.5t2.5 0.5t8 2.5l12 -2q7 -3 11.5 -8.5t9.5 -10.5q4 -8 8 -10l12 -1l4 -12
q5 -10 6.5 -14.5zM421 938q11 -12 22 -22t13 -22q-4 -16 -6.5 -22t-5.5 -13q-13 -11 -30 -23q-6 -5 -8 -6t-2.5 -1.5t-1 -2t-3.5 -7.5l-10 -7q-8 -3 -15 -2.5t-14 1.5q-3 0 -7.5 0.5t-6.5 0.5l-8 -8l-12 5q-11 5 -15.5 6.5t-9.5 5.5l-9 6q-4 15 -6.5 23.5t-6.5 16.5
q0 17 2 23t4 11q6 11 5 16l-4 18l15 1v21q14 1 21 1t13 1.5t13.5 4.5t24.5 10l14 6l6 -13q2 -4 11.5 -13t16.5 -16z" />
    <glyph glyph-name="multiply" unicode="&#xd7;" horiz-adv-x="502" 
d="M445 525q14 -6 22 -16t13 -20.5t9.5 -21.5t12.5 -19q-7 -14 -15 -24t-11 -23q-17 -7 -42 -22q-21 -13 -53 -36t-76 -61q11 -12 17 -22t11 -18q4 -9 8 -17q7 -6 12 -13.5t9.5 -15.5t10.5 -15t15 -11q5 -25 14.5 -45t8.5 -41q-6 -19 -17.5 -31t-16.5 -26q-8 -2 -15 -4.5
t-12 -7.5l-47 34q-13 42 -36 80t-46 66q-34 -26 -64.5 -57.5t-55.5 -66.5q-3 -35 -13.5 -48.5t-40.5 -24.5q-28 21 -40.5 50.5t-2.5 58.5q1 21 10.5 41t23 38.5t29.5 34.5l30 30q3 8 10 14t15 12t16 13t13 16q-6 20 -23 39.5t-31 40.5q-1 3 -5.5 1.5t-6.5 0.5
q2 11 -4.5 24.5t-15.5 21.5q2 8 5.5 21.5t-1.5 29.5q0 7 2.5 13t5 11.5t4 11t-0.5 10.5q10 1 18.5 -1.5t16 -5.5t14 -5t13.5 1q-2 -8 2.5 -8.5t4.5 -5.5q13 -4 29 -18t31 -31t26.5 -33t17.5 -25q20 12 43.5 30t48 36t50.5 34t50 26z" />
    <glyph glyph-name="Oslash" unicode="&#xd8;" horiz-adv-x="762" 
d="M103 26q-31 21 -53 51.5t-36 65.5q-9 68 5 123.5t41 102.5t61.5 88t66.5 79q7 -3 11.5 0t8 8t8 10t10.5 7q4 9 10.5 15t14 11.5t14 11.5t11.5 15q10 2 17.5 7t14 11t13.5 11t17 8v13q22 10 32 22t24 31q11 1 17.5 1t20.5 2q9 17 17 25t23 18q15 -8 32 -9.5t31 -15.5
q1 -12 7 -18.5t13 -12t14 -11.5t9 -17q5 0 6.5 2t6.5 1q26 30 53.5 52t55.5 19q19 -44 20.5 -86t-9.5 -96q-11 -13 -31 -35.5t-44 -50.5q14 -30 29 -60t32 -58q-2 -14 1.5 -27.5t9 -26.5t10.5 -26t7 -26q2 -17 0 -36.5t-8 -37.5t-16 -33.5t-23 -23.5q-16 -20 -40 -32.5
t-44 -29.5q-14 -8 -30 -11.5t-33 -7.5q-13 -8 -31 -15.5t-37 -13.5t-38 -9.5t-34 -1.5q-32 -11 -62 -16.5t-68 0.5q-2 -15 2.5 -29t2.5 -30q-8 -8 -13.5 -17t-11.5 -18t-13.5 -17.5t-19.5 -14.5q-24 2 -40 6.5t-37 8.5q-15 13 -23 30t-10 36.5t-0.5 39.5t5.5 38zM560 333
q-7 8 -12.5 17.5t-11.5 19.5q-23 -27 -40 -49.5t-23 -35.5q-15 -16 -37 -41.5t-47 -54.5q46 5 82 24.5t75 39.5q5 12 13 21t9 26q-5 9 -6.5 15t-1.5 18zM254 360q-10 -23 -23.5 -41.5t-26.5 -37.5t-22.5 -40.5t-10.5 -50.5q4 -3 7.5 -5.5t7.5 -4.5q17 19 37 40.5t39 42
t35 38.5t26 30q4 12 15 27.5t26 33.5t32.5 37t33.5 38q-8 -1 -16 2.5t-15 8.5q-35 -28 -69.5 -54t-62.5 -61q-5 -3 -6 -2t-7 -1z" />
    <glyph glyph-name="Ugrave" unicode="&#xd9;" horiz-adv-x="712" 
d="M72 495q-2 13 -5 16q7 18 10.5 35.5t5.5 33.5q2 14 4.5 26t6.5 23q17 4 25.5 14.5t13.5 18.5q18 1 23.5 -5t12.5 -20q5 -11 14 -23.5t27 -19.5q3 -11 7 -21t9 -21q9 -21 17 -43.5t9 -42.5q-12 -23 -18.5 -53t-8 -60.5t1.5 -58.5t10 -47l6 -16l22 2q36 9 65 20.5t54 27.5
t48 36.5t48 48.5q24 28 43 63.5t31.5 73.5t19.5 76t9 71q19 9 21 29l-3 13q-3 5 -2.5 9.5t2.5 8.5q8 23 34 34q18 -12 33.5 -26t28.5 -28q2 -27 8 -46.5t13 -37.5q7 -17 12.5 -33t7.5 -39q-10 -30 -14.5 -56.5t-8.5 -55.5l-2 -11q-18 -31 -35.5 -63.5t-28.5 -56.5
q-6 -6 -10.5 -14t-8.5 -16q-2 -3 -5.5 -10t-6.5 -10l-24 9l-6 -31l-16 -4l-12 -14q-23 -40 -48.5 -67t-57 -48t-71 -39.5t-90.5 -39.5q-20 3 -34.5 3.5t-28.5 1.5q-14 0 -27 1t-30 3q-4 9 -11 13t-13 4q-20 10 -30 28t-21 40q-5 12 -10.5 24t-13.5 23l20 6l-26 30
q-3 3 -6.5 6t-6.5 7v19q-4 82 -3.5 151.5t18.5 122.5zM215 890q-8 12 -8.5 23t2.5 22t9 22.5t12 25.5q8 4 18 14.5t11 21.5q5 -3 14.5 2.5t11.5 11.5q11 -6 20.5 -15.5l18.5 -18.5t18 -16.5t20 -9.5q24 -27 51.5 -53.5t50.5 -51.5q4 -14 14.5 -21t19 -15t10.5 -19t-11 -32
q6 -10 5 -18t-5.5 -15t-11.5 -14l-14 -14q-24 1 -50 15t-50.5 32.5t-45.5 38t-36 32.5q-29 26 -47.5 38t-26.5 14z" />
    <glyph glyph-name="Uacute" unicode="&#xda;" horiz-adv-x="712" 
d="M72 495q-2 13 -5 16q7 18 10.5 35.5t5.5 33.5q2 14 4.5 26t6.5 23q17 4 25.5 14.5t13.5 18.5q18 1 23.5 -5t12.5 -20q5 -11 14 -23.5t27 -19.5q3 -11 7 -21t9 -21q9 -21 17 -43.5t9 -42.5q-12 -23 -18.5 -53t-8 -60.5t1.5 -58.5t10 -47l6 -16l22 2q36 9 65 20.5t54 27.5
t48 36.5t48 48.5q24 28 43 63.5t31.5 73.5t19.5 76t9 71q19 9 21 29l-3 13q-3 5 -2.5 9.5t2.5 8.5q8 23 34 34q18 -12 33.5 -26t28.5 -28q2 -27 8 -46.5t13 -37.5q7 -17 12.5 -33t7.5 -39q-10 -30 -14.5 -56.5t-8.5 -55.5l-2 -11q-18 -31 -35.5 -63.5t-28.5 -56.5
q-6 -6 -10.5 -14t-8.5 -16q-2 -3 -5.5 -10t-6.5 -10l-24 9l-6 -31l-16 -4l-12 -14q-23 -40 -48.5 -67t-57 -48t-71 -39.5t-90.5 -39.5q-20 3 -34.5 3.5t-28.5 1.5q-14 0 -27 1t-30 3q-4 9 -11 13t-13 4q-20 10 -30 28t-21 40q-5 12 -10.5 24t-13.5 23l20 6l-26 30
q-3 3 -6.5 6t-6.5 7v19q-4 82 -3.5 151.5t18.5 122.5zM641 931q-8 -2 -26.5 -14t-47.5 -38q-15 -13 -36 -32.5t-45.5 -38t-50.5 -32.5t-50 -15l-14 14t-11.5 14t-5.5 15t5 18q-13 21 -11 32t10.5 19t19 15t14.5 21q23 25 50.5 51.5t51.5 53.5q10 2 19.5 9.5t18.5 16.5
l18.5 18.5t20.5 15.5q2 -6 11.5 -11.5t14.5 -2.5q1 -11 11 -21.5t18 -14.5q6 -14 12 -25.5t9 -22.5t2.5 -22t-8.5 -23z" />
    <glyph glyph-name="Ucircumflex" unicode="&#xdb;" horiz-adv-x="712" 
d="M72 495q-2 13 -5 16q7 18 10.5 35.5t5.5 33.5q2 14 4.5 26t6.5 23q17 4 25.5 14.5t13.5 18.5q18 1 23.5 -5t12.5 -20q5 -11 14 -23.5t27 -19.5q3 -11 7 -21t9 -21q9 -21 17 -43.5t9 -42.5q-12 -23 -18.5 -53t-8 -60.5t1.5 -58.5t10 -47l6 -16l22 2q36 9 65 20.5t54 27.5
t48 36.5t48 48.5q24 28 43 63.5t31.5 73.5t19.5 76t9 71q19 9 21 29l-3 13q-3 5 -2.5 9.5t2.5 8.5q8 23 34 34q18 -12 33.5 -26t28.5 -28q2 -27 8 -46.5t13 -37.5q7 -17 12.5 -33t7.5 -39q-10 -30 -14.5 -56.5t-8.5 -55.5l-2 -11q-18 -31 -35.5 -63.5t-28.5 -56.5
q-6 -6 -10.5 -14t-8.5 -16q-2 -3 -5.5 -10t-6.5 -10l-24 9l-6 -31l-16 -4l-12 -14q-23 -40 -48.5 -67t-57 -48t-71 -39.5t-90.5 -39.5q-20 3 -34.5 3.5t-28.5 1.5q-14 0 -27 1t-30 3q-4 9 -11 13t-13 4q-20 10 -30 28t-21 40q-5 12 -10.5 24t-13.5 23l20 6l-26 30
q-3 3 -6.5 6t-6.5 7v19q-4 82 -3.5 151.5t18.5 122.5zM264 790q-1 10 -9 19t-14 13q-5 12 -10 22t-8 19.5t-2 18.5t7 20q8 2 22.5 13t37.5 33q11 10 26 25.5t33 30.5t37 27t37 17q10 2 14 2q20 -7 39 -19t37 -27t33 -30.5t26 -25.5q23 -22 37.5 -33t22.5 -13q6 -11 7 -20
t-2 -18.5t-8 -19.5t-10 -22q-6 -4 -14 -13t-9 -19q-4 3 -11.5 -2t-9.5 -10q-9 5 -16.5 13.5t-15 16.5t-15 14t-15.5 8q-20 23 -41.5 46.5t-40.5 44.5q-19 -21 -40.5 -44.5t-41.5 -46.5q-8 -2 -15.5 -8t-15 -14t-15 -16.5t-16.5 -13.5q-2 5 -9.5 10t-11.5 2z" />
    <glyph glyph-name="Udieresis" unicode="&#xdc;" horiz-adv-x="712" 
d="M72 495q-2 13 -5 16q7 18 10.5 35.5t5.5 33.5q2 14 4.5 26t6.5 23q17 4 25.5 14.5t13.5 18.5q18 1 23.5 -5t12.5 -20q5 -11 14 -23.5t27 -19.5q3 -11 7 -21t9 -21q9 -21 17 -43.5t9 -42.5q-12 -23 -18.5 -53t-8 -60.5t1.5 -58.5t10 -47l6 -16l22 2q36 9 65 20.5t54 27.5
t48 36.5t48 48.5q24 28 43 63.5t31.5 73.5t19.5 76t9 71q19 9 21 29l-3 13q-3 5 -2.5 9.5t2.5 8.5q8 23 34 34q18 -12 33.5 -26t28.5 -28q2 -27 8 -46.5t13 -37.5q7 -17 12.5 -33t7.5 -39q-10 -30 -14.5 -56.5t-8.5 -55.5l-2 -11q-18 -31 -35.5 -63.5t-28.5 -56.5
q-6 -6 -10.5 -14t-8.5 -16q-2 -3 -5.5 -10t-6.5 -10l-24 9l-6 -31l-16 -4l-12 -14q-23 -40 -48.5 -67t-57 -48t-71 -39.5t-90.5 -39.5q-20 3 -34.5 3.5t-28.5 1.5q-14 0 -27 1t-30 3q-4 9 -11 13t-13 4q-20 10 -30 28t-21 40q-5 12 -10.5 24t-13.5 23l20 6l-26 30
q-3 3 -6.5 6t-6.5 7v19q-4 82 -3.5 151.5t18.5 122.5zM660 899l1 -11q-7 -12 -11.5 -20t-6.5 -17q-11 -11 -17 -13.5t-11 -4.5q-11 -4 -15 -8l-10 -15l-10 9l-15 -14q-11 9 -16 13.5t-9.5 7.5t-12 6.5t-23.5 10.5l-14 5l4 13q2 5 1.5 18t0.5 22q1 16 0 30t5 25q21 11 33 15
q10 -1 19 -2l18 -2q7 -1 9 -1.5t2.5 -0.5t2.5 0.5t8 2.5l12 -2q7 -3 11.5 -8.5t9.5 -10.5q4 -8 8 -10l12 -1l4 -12q5 -10 6.5 -14.5zM361 938q11 -12 22 -22t13 -22q-4 -16 -6.5 -22t-5.5 -13q-13 -11 -30 -23q-6 -5 -8 -6t-2.5 -1.5t-1 -2t-3.5 -7.5l-10 -7q-8 -3 -15 -2.5
t-14 1.5q-3 0 -7.5 0.5t-6.5 0.5l-8 -8l-12 5q-11 5 -15.5 6.5t-9.5 5.5l-9 6q-4 15 -6.5 23.5t-6.5 16.5q0 17 2 23t4 11q6 11 5 16l-4 18l15 1v21q14 1 21 1t13 1.5t13.5 4.5t24.5 10l14 6l6 -13q2 -4 11.5 -13t16.5 -16z" />
    <glyph glyph-name="Yacute" unicode="&#xdd;" horiz-adv-x="505" 
d="M149 -33q-88 12 -107 93l1 11l9 27q5 17 11 33.5t20 29.5q3 9 11.5 27.5t28.5 55.5q16 29 25.5 46t15.5 26q-10 18 -28 35q-16 30 -27.5 57.5t-17.5 49.5q-1 24 -8 49l-6 26t-3 27q-4 7 -7 18l2 12q5 8 2.5 21.5t-6.5 27.5q-3 13 -5.5 27.5t-1.5 28.5t7.5 27t22.5 22
l10 7l10 -6q11 -7 21 -12l20 -10q12 -6 24 -12.5t26 -14.5l10 -7l-1 -11q0 -2 1 -5t3 -5l11 -3l1 -14v-12q0 -9 1 -12.5t4 -7.5l5 -13q0 -18 3 -32t7 -28q5 -14 8 -28.5t1 -31.5q6 3 12 9q2 2 4.5 4t5.5 4l70 95l-2 12l25 24q10 8 19 16.5t15 19.5l6 9q45 60 116 74l17 4
l5 -16q5 -14 19.5 -24.5t31.5 -20.5l11 -7q6 -12 6 -18t-1 -10l5 -13q-11 -29 -24 -41.5t-27 -23.5q-11 -9 -20 -18t-14 -20l-8 -10q-25 -13 -32 -38l-4 -14h-15q-1 0 -5 -4.5t-12 -21.5q-9 -12 -12.5 -15.5l-5.5 -5.5q-2 -5 -3.5 -9t-3.5 -10l-6 -8q-9 -8 -13 -15.5
t-9 -17.5q-4 -9 -9 -18.5t-14 -18.5l2 -11l-8 -7q-8 -7 -14 -17.5t-12 -21.5q-6 -12 -13 -24t-18 -22q-7 -18 -12.5 -28t-18.5 -24q-12 -48 -57 -103q-1 -11 -6.5 -21.5t-11.5 -19.5q-2 -4 -4.5 -8.5t-3.5 -6.5l-3 -11q-6 -11 -12.5 -18t-12.5 -13q-3 -2 -5.5 -5t-4.5 -5z
M581 993q-8 -2 -26.5 -14t-47.5 -38q-15 -13 -36 -32.5t-45.5 -38t-50.5 -32.5t-50 -15l-14 14t-11.5 14t-5.5 15t5 18q-13 21 -11 32t10.5 19t19 15t14.5 21q23 25 50.5 51.5t51.5 53.5q10 2 19.5 9.5t18.5 16.5l18.5 18.5t20.5 15.5q2 -6 11.5 -11.5t14.5 -2.5
q1 -11 11 -21.5t18 -14.5q6 -14 12 -25.5t9 -22.5t2.5 -22t-8.5 -23z" />
    <glyph glyph-name="Thorn" unicode="&#xde;" horiz-adv-x="697" 
d="M609 551q28 -15 47 -36.5t29.5 -46t14 -50t2.5 -48.5q-18 -35 -51 -60.5t-67 -50.5q-7 0 -11 2q-5 -8 -13 -13t-17 -9t-18 -8.5t-15 -10.5q-25 -4 -44.5 -11t-37.5 -15.5t-37 -15.5t-44 -11q-9 -7 -22 -11.5t-27 -8.5t-26.5 -8.5t-20.5 -12.5q-6 5 -17 3.5t-20 -3.5
q-6 -8 -4.5 -17t2.5 -17q5 -36 -5 -57t-28.5 -30.5t-42 -11t-45.5 1.5q-12 16 -22 41.5t-17.5 52.5t-14 53.5t-11.5 46.5q6 15 7.5 33t2.5 37.5t1 39.5t3 38q8 50 23.5 96t26.5 94q2 11 -2 20.5t-2 17.5q2 5 7.5 7t7.5 7q4 14 1.5 22.5t4.5 20.5q5 9 14.5 28t7.5 39
q11 7 20 16.5t19 17.5t22.5 14t30.5 6q9 -12 12.5 -26.5l7 -29t9 -27t19.5 -19.5q1 -8 0.5 -17t0.5 -20q8 1 16.5 2t16.5 3q63 -2 129 -10.5t122 -20.5q11 -8 23.5 -16t31.5 -11zM476 401q-1 9 3.5 14t9.5 10q-2 10 -7.5 16.5t-11.5 13.5q-49 7 -102 7t-108 -2
q-13 -46 -23.5 -91.5t-13.5 -90.5q37 9 70 20.5t55 29.5q22 6 39.5 14t32.5 18t28.5 20.5t27.5 20.5z" />
    <glyph glyph-name="germandbls" unicode="&#xdf;" horiz-adv-x="954" 
d="M494 450q2 4 3.5 7.5t3.5 7.5q-26 2 -51 -0.5t-46 -4.5q-9 9 -21.5 9t-26 -4l-27 -8t-25.5 -2q-10 -8 -24.5 -10.5t-31.5 -4.5q-1 -5 2 -6.5t1 -6.5q6 -7 15.5 -10t20 -6t18.5 -7.5t11 -14.5q15 0 26 -7t18 -17t10.5 -21.5t3.5 -20.5q3 -8 7 -7t9 -4q3 -13 15 -26.5
t19 -29.5q2 -25 3 -44.5t-7 -39.5q-15 -37 -41.5 -66t-60 -51.5t-71.5 -38.5t-74 -27q-4 1 -8 0t-2 5q-8 -7 -17.5 -9t-20.5 -1.5t-22.5 1.5t-21.5 -1q-7 7 -12.5 13.5t-8.5 16.5q-5 0 -4.5 5t-3.5 5q6 10 5.5 11.5t-3 2.5t-4.5 2.5t-1 4.5q4 8 3 18.5t-2 21.5t1.5 21
t14.5 16q34 -4 64.5 2.5t57.5 18.5t51.5 26t48.5 25q3 9 8.5 15t11.5 11t11 11t7 15q1 7 -3.5 8.5t-4.5 7.5l-11 3q-19 11 -43 18.5t-41 16.5q-11 -6 -20.5 -3t-24.5 6q-34 2 -65.5 7t-60.5 18q-2 5 -5 9t-11 2q-6 8 -12 15.5t-11 16.5q2 12 3 20.5t-6 16.5q4 13 6 21t0 21
q7 21 22.5 36t34 25.5t38.5 17.5t38 12q40 17 85.5 32.5t93 27.5t97.5 15.5t105 -12.5q3 -10 9 -19t12.5 -18t11.5 -17.5t6 -17.5l4 -4l4 -4q28 11 50 17q40 17 85.5 32.5t93 27.5t97.5 15.5t105 -12.5q3 -10 9.5 -19t12.5 -18t11 -17.5t6 -17.5q10 -9 16 -19.5t2 -27.5
q-10 -8 -19.5 -14.5t-20.5 -11.5q-37 9 -75 6t-68 -5q-9 9 -21.5 9t-26 -4l-27 -8t-25.5 -2q-10 -8 -24.5 -10.5t-31.5 -4.5q-1 -5 2 -6.5t1 -6.5q6 -7 16 -10l20 -6t18.5 -7.5t11.5 -14.5q14 0 25 -7t18.5 -17t11 -21.5t2.5 -20.5q3 -8 7 -7t9 -4q3 -13 15 -26.5t19 -29.5
q2 -25 3 -44.5t-7 -39.5q-14 -37 -41 -66t-60.5 -51.5t-71.5 -38.5t-74 -27q-3 1 -7.5 0t-2.5 5q-8 -7 -17.5 -9t-20.5 -1.5t-22.5 1.5t-21.5 -1q-7 7 -12.5 13.5t-8.5 16.5q-5 0 -4.5 5t-3.5 5q7 10 6 11.5t-3 2.5t-4 2.5t-1 4.5q4 8 2.5 18.5t-2.5 21.5t1.5 21t14.5 16
q34 -4 64.5 2.5t57.5 18.5t52 26t49 25q3 9 8 15t11 11t11 11t7 15q1 7 -3.5 8.5t-4.5 7.5l-10 3q-20 11 -44 18.5t-41 16.5q-10 -6 -20 -3t-24 6q-35 2 -66.5 7t-60.5 18q-2 5 -5 9t-11 2q-5 8 -11.5 15.5t-11.5 16.5q2 12 3.5 20.5t-6.5 16.5q4 13 6 21t0 21z" />
    <glyph glyph-name="agrave" unicode="&#xe0;" horiz-adv-x="595" 
d="M529 84q-6 -17 -17.5 -34.5t-27 -31t-34.5 -22.5t-40 -10q-13 3 -17.5 6.5t-9.5 6.5q-3 2 -5.5 3.5t-4.5 2.5l-12 5l4 13q2 8 -1 12.5t-12 12.5l-6 6t-5 6l-17 19l27 7q25 7 33.5 18t6.5 37q-20 4 -33.5 1t-27.5 -7q-18 -5 -36.5 -8.5t-40.5 -3.5q-8 0 -15 0.5t-15 1.5
l-10 2q-2 11 -4 12.5t-4 3.5q-5 5 -10.5 13.5t-2.5 21.5q-5 9 -6 18q-6 -12 -9 -25l-4 -10l-10 -2q-2 -1 -3 -4.5t-1 -5.5l-5 -17q-2 -2 -4 -3.5t-4 -3.5q-2 -9 -5 -18t-6 -17q-5 -13 -8.5 -25.5t-2.5 -24.5l-4 -11q-5 -6 -11 -9.5t-12 -6.5q-2 -2 -5.5 -3.5t-5.5 -2.5
l-3 -11l-12 -2q-11 -2 -15.5 -3t-10.5 -1l-10 1q-11 9 -17 14.5t-14 10.5q-9 12 -10 18t-2 11q-2 6 -2.5 10t-2.5 6l-13 12l11 9l1 17q20 51 42.5 98t46.5 96q8 16 15.5 32t15.5 32q-1 3 -1 7t2 9q11 17 18 30.5t14 27.5q8 17 16.5 33t21.5 33l16 7q3 1 7 2.5t9 1.5l15 -2
q28 13 49 36.5t43 56.5l10 14l13 -8q5 -3 14 -5.5t19 -5.5q18 -4 34 -9t26 -15q6 -16 7 -24t3 -16q3 -17 5.5 -34t3.5 -38q5 -17 8.5 -33.5t6.5 -33.5q5 -24 10 -46.5t13 -42.5q8 0 10 -1q5 2 10.5 3t12.5 2l11 1l4 -10q1 -5 10 -10q13 -1 19 -5.5t11 -9.5q4 -4 8 -6l15 -6
l-8 -15q-10 -18 -28.5 -34.5t-41.5 -27.5q1 -6 1.5 -11.5t2.5 -11.5q3 -17 5 -35t0 -37zM240 257q30 2 54.5 4.5t54.5 8.5q-7 30 -15 62.5t-17 64.5l-6 -10q-20 -21 -38.5 -47t-31.5 -49l-12 -18t-11 -18q6 1 11.5 1t10.5 1zM235 819q-8 12 -8.5 23t2.5 22t9 22.5t12 25.5
q8 4 18 14.5t11 21.5q5 -3 14.5 2.5t11.5 11.5q11 -6 20.5 -15.5l18.5 -18.5t18 -16.5t20 -9.5q24 -27 51.5 -53.5t50.5 -51.5q4 -14 14.5 -21t19 -15t10.5 -19t-11 -32q6 -10 5 -18t-5.5 -15t-11.5 -14l-14 -14q-24 1 -50 15t-50.5 32.5t-45.5 38t-36 32.5q-29 26 -47.5 38
t-26.5 14z" />
    <glyph glyph-name="aacute" unicode="&#xe1;" horiz-adv-x="595" 
d="M529 84q-6 -17 -17.5 -34.5t-27 -31t-34.5 -22.5t-40 -10q-13 3 -17.5 6.5t-9.5 6.5q-3 2 -5.5 3.5t-4.5 2.5l-12 5l4 13q2 8 -1 12.5t-12 12.5l-6 6t-5 6l-17 19l27 7q25 7 33.5 18t6.5 37q-20 4 -33.5 1t-27.5 -7q-18 -5 -36.5 -8.5t-40.5 -3.5q-8 0 -15 0.5t-15 1.5
l-10 2q-2 11 -4 12.5t-4 3.5q-5 5 -10.5 13.5t-2.5 21.5q-5 9 -6 18q-6 -12 -9 -25l-4 -10l-10 -2q-2 -1 -3 -4.5t-1 -5.5l-5 -17q-2 -2 -4 -3.5t-4 -3.5q-2 -9 -5 -18t-6 -17q-5 -13 -8.5 -25.5t-2.5 -24.5l-4 -11q-5 -6 -11 -9.5t-12 -6.5q-2 -2 -5.5 -3.5t-5.5 -2.5
l-3 -11l-12 -2q-11 -2 -15.5 -3t-10.5 -1l-10 1q-11 9 -17 14.5t-14 10.5q-9 12 -10 18t-2 11q-2 6 -2.5 10t-2.5 6l-13 12l11 9l1 17q20 51 42.5 98t46.5 96q8 16 15.5 32t15.5 32q-1 3 -1 7t2 9q11 17 18 30.5t14 27.5q8 17 16.5 33t21.5 33l16 7q3 1 7 2.5t9 1.5l15 -2
q28 13 49 36.5t43 56.5l10 14l13 -8q5 -3 14 -5.5t19 -5.5q18 -4 34 -9t26 -15q6 -16 7 -24t3 -16q3 -17 5.5 -34t3.5 -38q5 -17 8.5 -33.5t6.5 -33.5q5 -24 10 -46.5t13 -42.5q8 0 10 -1q5 2 10.5 3t12.5 2l11 1l4 -10q1 -5 10 -10q13 -1 19 -5.5t11 -9.5q4 -4 8 -6l15 -6
l-8 -15q-10 -18 -28.5 -34.5t-41.5 -27.5q1 -6 1.5 -11.5t2.5 -11.5q3 -17 5 -35t0 -37zM240 257q30 2 54.5 4.5t54.5 8.5q-7 30 -15 62.5t-17 64.5l-6 -10q-20 -21 -38.5 -47t-31.5 -49l-12 -18t-11 -18q6 1 11.5 1t10.5 1zM519 829q-8 -2 -26.5 -14t-47.5 -38
q-15 -13 -36 -32.5t-45.5 -38t-50.5 -32.5t-50 -15l-14 14t-11.5 14t-5.5 15t5 18q-13 21 -11 32t10.5 19t19 15t14.5 21q23 25 50.5 51.5t51.5 53.5q10 2 19.5 9.5t18.5 16.5l18.5 18.5t20.5 15.5q2 -6 11.5 -11.5t14.5 -2.5q1 -11 11 -21.5t18 -14.5q6 -14 12 -25.5
t9 -22.5t2.5 -22t-8.5 -23z" />
    <glyph glyph-name="acircumflex" unicode="&#xe2;" horiz-adv-x="595" 
d="M529 84q-6 -17 -17.5 -34.5t-27 -31t-34.5 -22.5t-40 -10q-13 3 -17.5 6.5t-9.5 6.5q-3 2 -5.5 3.5t-4.5 2.5l-12 5l4 13q2 8 -1 12.5t-12 12.5l-6 6t-5 6l-17 19l27 7q25 7 33.5 18t6.5 37q-20 4 -33.5 1t-27.5 -7q-18 -5 -36.5 -8.5t-40.5 -3.5q-8 0 -15 0.5t-15 1.5
l-10 2q-2 11 -4 12.5t-4 3.5q-5 5 -10.5 13.5t-2.5 21.5q-5 9 -6 18q-6 -12 -9 -25l-4 -10l-10 -2q-2 -1 -3 -4.5t-1 -5.5l-5 -17q-2 -2 -4 -3.5t-4 -3.5q-2 -9 -5 -18t-6 -17q-5 -13 -8.5 -25.5t-2.5 -24.5l-4 -11q-5 -6 -11 -9.5t-12 -6.5q-2 -2 -5.5 -3.5t-5.5 -2.5
l-3 -11l-12 -2q-11 -2 -15.5 -3t-10.5 -1l-10 1q-11 9 -17 14.5t-14 10.5q-9 12 -10 18t-2 11q-2 6 -2.5 10t-2.5 6l-13 12l11 9l1 17q20 51 42.5 98t46.5 96q8 16 15.5 32t15.5 32q-1 3 -1 7t2 9q11 17 18 30.5t14 27.5q8 17 16.5 33t21.5 33l16 7q3 1 7 2.5t9 1.5l15 -2
q28 13 49 36.5t43 56.5l10 14l13 -8q5 -3 14 -5.5t19 -5.5q18 -4 34 -9t26 -15q6 -16 7 -24t3 -16q3 -17 5.5 -34t3.5 -38q5 -17 8.5 -33.5t6.5 -33.5q5 -24 10 -46.5t13 -42.5q8 0 10 -1q5 2 10.5 3t12.5 2l11 1l4 -10q1 -5 10 -10q13 -1 19 -5.5t11 -9.5q4 -4 8 -6l15 -6
l-8 -15q-10 -18 -28.5 -34.5t-41.5 -27.5q1 -6 1.5 -11.5t2.5 -11.5q3 -17 5 -35t0 -37zM240 257q30 2 54.5 4.5t54.5 8.5q-7 30 -15 62.5t-17 64.5l-6 -10q-20 -21 -38.5 -47t-31.5 -49l-12 -18t-11 -18q6 1 11.5 1t10.5 1zM202 647q-1 10 -9 19t-14 13q-5 12 -10 22
t-8 19.5t-2 18.5t7 20q8 2 22.5 13t37.5 33q11 10 26 25.5t33 30.5t37 27t37 17q10 2 14 2q20 -7 39 -19t37 -27t33 -30.5t26 -25.5q23 -22 37.5 -33t22.5 -13q6 -11 7 -20t-2 -18.5t-8 -19.5t-10 -22q-6 -4 -14 -13t-9 -19q-4 3 -11.5 -2t-9.5 -10q-9 5 -16.5 13.5
t-15 16.5t-15 14t-15.5 8q-20 23 -41.5 46.5t-40.5 44.5q-19 -21 -40.5 -44.5t-41.5 -46.5q-8 -2 -15.5 -8t-15 -14t-15 -16.5t-16.5 -13.5q-2 5 -9.5 10t-11.5 2z" />
    <glyph glyph-name="atilde" unicode="&#xe3;" horiz-adv-x="595" 
d="M529 84q-6 -17 -17.5 -34.5t-27 -31t-34.5 -22.5t-40 -10q-13 3 -17.5 6.5t-9.5 6.5q-3 2 -5.5 3.5t-4.5 2.5l-12 5l4 13q2 8 -1 12.5t-12 12.5l-6 6t-5 6l-17 19l27 7q25 7 33.5 18t6.5 37q-20 4 -33.5 1t-27.5 -7q-18 -5 -36.5 -8.5t-40.5 -3.5q-8 0 -15 0.5t-15 1.5
l-10 2q-2 11 -4 12.5t-4 3.5q-5 5 -10.5 13.5t-2.5 21.5q-5 9 -6 18q-6 -12 -9 -25l-4 -10l-10 -2q-2 -1 -3 -4.5t-1 -5.5l-5 -17q-2 -2 -4 -3.5t-4 -3.5q-2 -9 -5 -18t-6 -17q-5 -13 -8.5 -25.5t-2.5 -24.5l-4 -11q-5 -6 -11 -9.5t-12 -6.5q-2 -2 -5.5 -3.5t-5.5 -2.5
l-3 -11l-12 -2q-11 -2 -15.5 -3t-10.5 -1l-10 1q-11 9 -17 14.5t-14 10.5q-9 12 -10 18t-2 11q-2 6 -2.5 10t-2.5 6l-13 12l11 9l1 17q20 51 42.5 98t46.5 96q8 16 15.5 32t15.5 32q-1 3 -1 7t2 9q11 17 18 30.5t14 27.5q8 17 16.5 33t21.5 33l16 7q3 1 7 2.5t9 1.5l15 -2
q28 13 49 36.5t43 56.5l10 14l13 -8q5 -3 14 -5.5t19 -5.5q18 -4 34 -9t26 -15q6 -16 7 -24t3 -16q3 -17 5.5 -34t3.5 -38q5 -17 8.5 -33.5t6.5 -33.5q5 -24 10 -46.5t13 -42.5q8 0 10 -1q5 2 10.5 3t12.5 2l11 1l4 -10q1 -5 10 -10q13 -1 19 -5.5t11 -9.5q4 -4 8 -6l15 -6
l-8 -15q-10 -18 -28.5 -34.5t-41.5 -27.5q1 -6 1.5 -11.5t2.5 -11.5q3 -17 5 -35t0 -37zM240 257q30 2 54.5 4.5t54.5 8.5q-7 30 -15 62.5t-17 64.5l-6 -10q-20 -21 -38.5 -47t-31.5 -49l-12 -18t-11 -18q6 1 11.5 1t10.5 1zM610 855q17 -1 26.5 -9t9.5 -22q-2 -12 -7 -20
q-7 -16 -12.5 -24.5t-11.5 -17.5q-9 -14 -17.5 -27t-19.5 -27q-7 -6 -11 -8q-9 -8 -19 -14.5t-21 -11.5q-18 -7 -33.5 -8.5t-33.5 -1.5h-14q-11 1 -22.5 2t-19.5 3q-15 8 -23.5 14t-16.5 12q-9 6 -15 13t-11 14q-4 6 -9.5 11.5t-10.5 5.5q-5 -1 -9.5 -6t-9.5 -10
q-2 -2 -4 -4.5t-4 -4.5q-6 -19 -24 -31q-9 -5 -14 -6t-9 -3l-10 -2l-10 -2l-10 1q-15 -5 -25 -5q-20 1 -29.5 9.5t-9.5 21.5q2 12 7 20q8 16 13.5 25t11.5 18q8 13 16.5 26t19.5 27q7 6 11 8q9 8 19 14.5t21 11.5q18 7 33.5 8.5t33.5 1.5h14q23 -2 42 -5q15 -8 23.5 -14
t16.5 -12q9 -6 15 -13t11 -14q12 -17 21 -16q5 0 9 4.5t9 10.5q2 3 8 9q6 19 24 31q14 7 23 9l10 2l10 2h10q12 4 25 4h3z" />
    <glyph glyph-name="adieresis" unicode="&#xe4;" horiz-adv-x="595" 
d="M529 84q-6 -17 -17.5 -34.5t-27 -31t-34.5 -22.5t-40 -10q-13 3 -17.5 6.5t-9.5 6.5q-3 2 -5.5 3.5t-4.5 2.5l-12 5l4 13q2 8 -1 12.5t-12 12.5l-6 6t-5 6l-17 19l27 7q25 7 33.5 18t6.5 37q-20 4 -33.5 1t-27.5 -7q-18 -5 -36.5 -8.5t-40.5 -3.5q-8 0 -15 0.5t-15 1.5
l-10 2q-2 11 -4 12.5t-4 3.5q-5 5 -10.5 13.5t-2.5 21.5q-5 9 -6 18q-6 -12 -9 -25l-4 -10l-10 -2q-2 -1 -3 -4.5t-1 -5.5l-5 -17q-2 -2 -4 -3.5t-4 -3.5q-2 -9 -5 -18t-6 -17q-5 -13 -8.5 -25.5t-2.5 -24.5l-4 -11q-5 -6 -11 -9.5t-12 -6.5q-2 -2 -5.5 -3.5t-5.5 -2.5
l-3 -11l-12 -2q-11 -2 -15.5 -3t-10.5 -1l-10 1q-11 9 -17 14.5t-14 10.5q-9 12 -10 18t-2 11q-2 6 -2.5 10t-2.5 6l-13 12l11 9l1 17q20 51 42.5 98t46.5 96q8 16 15.5 32t15.5 32q-1 3 -1 7t2 9q11 17 18 30.5t14 27.5q8 17 16.5 33t21.5 33l16 7q3 1 7 2.5t9 1.5l15 -2
q28 13 49 36.5t43 56.5l10 14l13 -8q5 -3 14 -5.5t19 -5.5q18 -4 34 -9t26 -15q6 -16 7 -24t3 -16q3 -17 5.5 -34t3.5 -38q5 -17 8.5 -33.5t6.5 -33.5q5 -24 10 -46.5t13 -42.5q8 0 10 -1q5 2 10.5 3t12.5 2l11 1l4 -10q1 -5 10 -10q13 -1 19 -5.5t11 -9.5q4 -4 8 -6l15 -6
l-8 -15q-10 -18 -28.5 -34.5t-41.5 -27.5q1 -6 1.5 -11.5t2.5 -11.5q3 -17 5 -35t0 -37zM240 257q30 2 54.5 4.5t54.5 8.5q-7 30 -15 62.5t-17 64.5l-6 -10q-20 -21 -38.5 -47t-31.5 -49l-12 -18t-11 -18q6 1 11.5 1t10.5 1zM619 787l1 -11q-7 -12 -11.5 -20t-6.5 -17
q-11 -11 -17 -13.5t-11 -4.5q-11 -4 -15 -8l-10 -15l-10 9l-15 -14q-11 9 -16 13.5t-9.5 7.5t-12 6.5t-23.5 10.5l-14 5l4 13q2 5 1.5 18t0.5 22q1 16 0 30t5 25q21 11 33 15q10 -1 19 -2l18 -2q7 -1 9 -1.5t2.5 -0.5t2.5 0.5t8 2.5l12 -2q7 -3 11.5 -8.5t9.5 -10.5
q4 -8 8 -10l12 -1l4 -12q5 -10 6.5 -14.5zM320 826q11 -12 22 -22t13 -22q-4 -16 -6.5 -22t-5.5 -13q-13 -11 -30 -23q-6 -5 -8 -6t-2.5 -1.5t-1 -2t-3.5 -7.5l-10 -7q-8 -3 -15 -2.5t-14 1.5q-3 0 -7.5 0.5t-6.5 0.5l-8 -8l-12 5q-11 5 -15.5 6.5t-9.5 5.5l-9 6
q-4 15 -6.5 23.5t-6.5 16.5q0 17 2 23t4 11q6 11 5 16l-4 18l15 1v21q14 1 21 1t13 1.5t13.5 4.5t24.5 10l14 6l6 -13q2 -4 11.5 -13t16.5 -16z" />
    <glyph glyph-name="aring" unicode="&#xe5;" horiz-adv-x="595" 
d="M240 257q30 2 54.5 4.5t54.5 8.5q-7 30 -15 62.5t-17 64.5l-6 -10q-20 -21 -38.5 -47t-31.5 -49l-12 -18t-11 -18zM490 558q-5 -6 -11 -7.5l-14 -3.5q-5 -2 -11 -5t-13 -6q4 -23 6.5 -40t3.5 -38q5 -17 8.5 -33.5t6.5 -33.5q5 -24 10 -46.5t13 -42.5q8 0 10 -1
q5 2 10.5 3t12.5 2l11 1l4 -10q1 -5 10 -10q13 -1 19 -5.5t11 -9.5q4 -4 8 -6l15 -6l-8 -15q-10 -18 -28.5 -34.5t-41.5 -27.5q1 -6 1.5 -11.5t2.5 -11.5q3 -17 5 -35t0 -37q-8 -21 -19.5 -38.5t-27 -31t-34.5 -22.5t-40 -10q-13 3 -17.5 6.5t-9.5 6.5q-3 2 -5.5 3.5
t-4.5 2.5l-12 5l4 13q2 8 -1 12.5t-12 12.5l-6 6t-5 6l-17 19l27 7q25 7 33.5 18t6.5 37q-20 4 -33.5 1t-27.5 -7q-18 -5 -36.5 -8.5t-40.5 -3.5q-8 0 -15 0.5t-15 1.5l-10 2q-2 11 -4 12.5t-4 3.5q-5 5 -10.5 13.5t-2.5 21.5q-5 9 -6 18q-6 -12 -9 -25l-4 -10l-10 -2
q-2 -1 -3 -4.5t-1 -5.5l-5 -17q-2 -2 -4 -3.5t-4 -3.5q-2 -9 -5 -18t-6 -17q-5 -13 -8.5 -25.5t-2.5 -24.5l-4 -11q-5 -6 -11 -9.5t-12 -6.5q-2 -2 -5.5 -3.5t-5.5 -2.5l-3 -11l-12 -2q-11 -2 -15.5 -3t-10.5 -1l-10 1q-11 9 -17 14.5t-14 10.5q-9 12 -10 18t-2 11
q-2 6 -2.5 10t-2.5 6l-13 12l11 9l1 17q20 51 42.5 98t46.5 96q8 16 15.5 32t15.5 32q-1 3 -1 7t2 9q11 17 18 30.5t14 27.5q8 17 16.5 33t21.5 33l16 7q3 1 7 2.5t9 1.5l15 -2q16 4 28 15t24 24q-19 17 -28 42q-4 28 2 51.5t17.5 43.5t26 37t27.5 33q6 -2 8.5 3.5t7.5 6.5
q3 8 10 11.5t11 11.5q8 2 13 7.5t13 7.5l13.5 15t10.5 13q5 1 7.5 0.5t7.5 0.5q5 7 8 10.5t10 7.5q6 -3 13.5 -4t12.5 -6q0 -5 3 -8t6 -5.5t5.5 -5t3.5 -6.5q7 -6 9 -8t4 -9q-2 -5 -3.5 -10.5t-6.5 -7.5q5 -12 4 -13q11 -20 21 -41.5t22 -41.5q-2 -12 4 -22.5t8 -22.5
q2 -18 -2.5 -29t-12.5 -19.5t-19 -16t-21 -16.5zM426 653q2 9 2 13q-4 6 -7 13t-7 13q-5 -7 -12 -3q-5 -5 -10.5 -9t-10.5 -9q-6 -9 -10.5 -14t-5.5 -15q7 -5 17 -3t18 2q8 2 14 5t12 7z" />
    <glyph glyph-name="ae" unicode="&#xe6;" horiz-adv-x="971" 
d="M140 161l-11 -2l-3 -19l-9 -8q-2 -2 -4.5 -3.5t-5.5 -3.5q-3 -9 -7 -17.5t-8 -16.5q-7 -14 -12 -26.5t-7 -24.5l-5 -11q-5 -6 -12 -9.5l-13 -6.5q-3 -2 -7 -3.5t-6 -2.5l-4 -11l-12 -2q-12 -2 -16.5 -3t-10.5 -1l-10 1l-14.5 14.5t-13.5 10.5q-6 12 -6.5 18t-0.5 12
q-1 5 -1 9t-2 6l-11 12l12 9l4 17q27 51 56 98t60 96q11 16 20.5 32t20.5 33q-2 7 3 15q14 17 23 30.5t17 27.5q11 17 22 33.5t26 32.5l7 8l10 -1q3 2 7 3t10 1l14 -2q30 13 54.5 37t51.5 57l12 14l12 -8q4 -3 12.5 -5.5t18.5 -5.5q17 -5 33 -10t24 -14q3 -17 3.5 -24.5
t0.5 -15.5q1 -17 1 -34.5t-2 -37.5q2 -17 3 -34l2 -34q2 -23 3.5 -45.5t6.5 -42.5q5 0 11.5 -0.5t8.5 -0.5l12 3q8 16 16 32.5t15 36.5q-14 13 -20.5 28t-9.5 31t-5 32t-7 33q10 16 24.5 25.5t31.5 15.5t37 10t42 9q40 13 72 20t62.5 11.5t63 8.5t74.5 11q11 -8 17 -8
q4 9 9.5 5.5t4.5 5.5q11 -17 26 -28.5t35 -19.5q1 -7 0.5 -10.5t-1 -6.5t-1 -6.5t1.5 -10.5q-20 -34 -48 -46.5t-59.5 -18t-65.5 -11.5t-66 -26q-7 3 -12.5 2t-11.5 -2.5t-13 -3t-17 0.5q-6 -6 -15.5 -8.5t-18.5 -5.5q5 -10 4.5 -19t1.5 -15q35 -4 77.5 0t84.5 5
q1 -4 -1 -5.5t-2 -5.5q8 -5 14.5 -12.5t13.5 -14.5t14.5 -12t17.5 -4q10 -16 4 -37q-17 -11 -33 -22t-33.5 -20t-37 -15t-42.5 -5h-8t-7 3q-8 -5 -22.5 -3t-22.5 -3q-11 5 -26.5 5t-27.5 4q-16 -22 -29 -46t-23 -51q34 -5 57 -4t42.5 4t41 5t52.5 1q21 11 48.5 14.5
t50.5 11.5q8 -3 13.5 -10l11 -14t12 -12t15.5 -4q4 -4 5.5 -9.5t2.5 -10.5t3.5 -8.5t8.5 -2.5q-16 -33 -35.5 -50.5t-44.5 -26.5t-55.5 -13.5t-67.5 -11.5q-9 -2 -15 0t-13 2q-24 -4 -56 -8t-65 -3.5t-63 8t-49 26.5q-6 5 -8.5 12.5t-7.5 13.5q-21 -25 -54 -43t-64 -19
q-12 3 -16.5 6.5t-8.5 6.5q-3 2 -5.5 3.5t-4.5 2.5l-10 6l5 12q4 8 1.5 13t-10.5 13l-5 5t-5 6l-14 19l28 8q26 6 36 17t12 37q-20 4 -34 1l-28 -6q-19 -5 -37.5 -8.5t-41.5 -3.5h-14t-15 2l-10 1q-1 11 -2.5 13t-3.5 4q-4 5 -8 13t1 21q-4 8 -4 19q-4 -7 -7.5 -13t-5.5 -12
zM226 290q-15 -17 -28 -34q6 0 11.5 0.5t11.5 0.5q29 2 54.5 4.5t55.5 8.5q-2 31 -5.5 63.5t-8.5 64.5l-7 -10q-22 -21 -44.5 -47t-39.5 -49v-2z" />
    <glyph glyph-name="ccedilla" unicode="&#xe7;" horiz-adv-x="526" 
d="M367 -137q14 -12 20.5 -29t2.5 -40q-8 -18 -20.5 -31t-32.5 -27q-16 -7 -31.5 -11t-27.5 -10q-5 2 -9.5 1t-8.5 1q-15 -7 -33.5 -10t-38.5 3q-15 -2 -30 -1.5t-27.5 3.5t-21 9t-11.5 16q-17 10 -22 25t5 30q5 2 7 2.5t7 4.5q36 -1 74.5 0t83.5 10q1 4 5 6.5t8.5 4t9 3.5
t6.5 6q0 3 -2 4.5t-4.5 2.5t-4 2.5t-1.5 5.5q-9 -1 -21 3.5t-20 9.5q-15 1 -21.5 2t-11.5 3t-11 4.5t-20 6.5q-5 6 -10.5 9.5t-10.5 6.5t-8 7.5t-4 12.5q1 17 1.5 28t5.5 31q6 7 17.5 20t25.5 27q-16 4 -30 8t-28 9q-10 11 -20 20.5t-27 13.5q-24 19 -39 46.5t-24 58.5
t-12 63.5t-2 62.5q15 45 42.5 77.5t56.5 64.5q13 6 19.5 12.5t14 12l15 11t13.5 13.5q21 5 36.5 14.5t30.5 20t31 19.5t37 14q8 9 19 14.5t22.5 11t22 11.5t16.5 16q5 -8 14 -5.5t17 5.5q5 1 8.5 -2t6.5 -6t5.5 -3.5t4.5 4.5q5 0 3 -5t-3 -7q8 1 13.5 -3.5t17.5 -5.5
q4 -5 2 -7.5t-2 -8.5q30 -9 38 -28.5t1 -40.5t-25 -39t-39 -24q-48 -13 -90.5 -28.5t-69.5 -45.5q-24 -7 -42.5 -18.5t-35 -26t-31 -30t-30.5 -30.5q1 -14 -4.5 -21.5t-10.5 -15.5q2 -15 7 -26.5t11 -22.5q66 -20 140.5 -25t149.5 -6q7 -10 16.5 -18.5t17.5 -18t13 -21
t2 -28.5q-14 -15 -31 -27.5t-34 -25.5q-16 -1 -39.5 1t-43.5 -7q-14 1 -28.5 2t-29.5 3l-31 -46q3 -5 11 -6.5t10 -6.5q19 -2 32.5 -10t24 -17.5t20.5 -20t23 -17.5q0 -3 2 -4.5t0 -5.5z" />
    <glyph glyph-name="egrave" unicode="&#xe8;" horiz-adv-x="534" 
d="M558 563q1 -7 0.5 -10.5t-1 -6.5t-0.5 -6.5t2 -10.5q-21 -34 -48.5 -46.5t-59.5 -18t-65.5 -11.5t-66.5 -26q-13 5 -23.5 0t-30.5 -3q-6 -6 -15 -8.5t-18 -5.5q4 -9 3.5 -18.5t2.5 -15.5q35 -3 77.5 1t83.5 5q1 -5 -1 -6.5t-1 -5.5q7 -5 14 -12.5t14 -14.5t14.5 -11.5
t17.5 -3.5q4 -8 5.5 -17.5t-2.5 -19.5q-16 -11 -32 -22.5t-33.5 -20.5t-37 -14.5t-43.5 -4.5h-7.5t-6.5 3q-8 -5 -22.5 -3t-22.5 -3q-11 5 -26.5 4.5t-27.5 3.5q-16 -21 -29 -45t-23 -51q34 -5 56.5 -4t42.5 3.5t41 5t53 1.5q20 11 47.5 14.5t50.5 11.5q8 -3 14 -10.5
t11.5 -14t11.5 -11.5t15 -4q4 -4 5.5 -9.5t2.5 -10.5t3.5 -8.5t8.5 -2.5q-15 -33 -34.5 -50.5t-44.5 -26.5t-55.5 -14t-67.5 -12q-9 -2 -15 0.5t-14 2.5q-23 -5 -55 -9t-65 -3t-63 8.5t-49 26.5q-8 7 -10.5 16.5t-13.5 14.5q-1 13 -4 29t-6 33.5t-4.5 34.5t1.5 31
q3 15 12.5 27t6.5 26q5 1 6 5.5t8 3.5q6 18 13 34t14.5 31t15 30.5t14.5 34.5q-14 13 -20.5 28.5t-9.5 31t-5 32t-7 33.5q10 15 24.5 24.5t31.5 15.5t37 10t42 9q40 13 71.5 20t62 11.5t63.5 8.5t75 12q9 -9 17 -9q4 9 9.5 5.5t4.5 5.5q10 -17 25.5 -28.5t34.5 -19.5z
M133 819q-8 12 -8.5 23t2.5 22t9 22.5t12 25.5q8 4 18 14.5t11 21.5q5 -3 14.5 2.5t11.5 11.5q11 -6 20.5 -15.5l18.5 -18.5t18 -16.5t20 -9.5q24 -27 51.5 -53.5t50.5 -51.5q4 -14 14.5 -21t19 -15t10.5 -19t-11 -32q6 -10 5 -18t-5.5 -15t-11.5 -14l-14 -14q-24 1 -50 15
t-50.5 32.5t-45.5 38t-36 32.5q-29 26 -47.5 38t-26.5 14z" />
    <glyph glyph-name="eacute" unicode="&#xe9;" horiz-adv-x="534" 
d="M558 563q1 -7 0.5 -10.5t-1 -6.5t-0.5 -6.5t2 -10.5q-21 -34 -48.5 -46.5t-59.5 -18t-65.5 -11.5t-66.5 -26q-13 5 -23.5 0t-30.5 -3q-6 -6 -15 -8.5t-18 -5.5q4 -9 3.5 -18.5t2.5 -15.5q35 -3 77.5 1t83.5 5q1 -5 -1 -6.5t-1 -5.5q7 -5 14 -12.5t14 -14.5t14.5 -11.5
t17.5 -3.5q4 -8 5.5 -17.5t-2.5 -19.5q-16 -11 -32 -22.5t-33.5 -20.5t-37 -14.5t-43.5 -4.5h-7.5t-6.5 3q-8 -5 -22.5 -3t-22.5 -3q-11 5 -26.5 4.5t-27.5 3.5q-16 -21 -29 -45t-23 -51q34 -5 56.5 -4t42.5 3.5t41 5t53 1.5q20 11 47.5 14.5t50.5 11.5q8 -3 14 -10.5
t11.5 -14t11.5 -11.5t15 -4q4 -4 5.5 -9.5t2.5 -10.5t3.5 -8.5t8.5 -2.5q-15 -33 -34.5 -50.5t-44.5 -26.5t-55.5 -14t-67.5 -12q-9 -2 -15 0.5t-14 2.5q-23 -5 -55 -9t-65 -3t-63 8.5t-49 26.5q-8 7 -10.5 16.5t-13.5 14.5q-1 13 -4 29t-6 33.5t-4.5 34.5t1.5 31
q3 15 12.5 27t6.5 26q5 1 6 5.5t8 3.5q6 18 13 34t14.5 31t15 30.5t14.5 34.5q-14 13 -20.5 28.5t-9.5 31t-5 32t-7 33.5q10 15 24.5 24.5t31.5 15.5t37 10t42 9q40 13 71.5 20t62 11.5t63.5 8.5t75 12q9 -9 17 -9q4 9 9.5 5.5t4.5 5.5q10 -17 25.5 -28.5t34.5 -19.5z
M509 819q-8 -2 -26.5 -14t-47.5 -38q-15 -13 -36 -32.5t-45.5 -38t-50.5 -32.5t-50 -15l-14 14t-11.5 14t-5.5 15t5 18q-13 21 -11 32t10.5 19t19 15t14.5 21q23 25 50.5 51.5t51.5 53.5q10 2 19.5 9.5t18.5 16.5l18.5 18.5t20.5 15.5q2 -6 11.5 -11.5t14.5 -2.5
q1 -11 11 -21.5t18 -14.5q6 -14 12 -25.5t9 -22.5t2.5 -22t-8.5 -23z" />
    <glyph glyph-name="ecircumflex" unicode="&#xea;" horiz-adv-x="534" 
d="M558 563q1 -7 0.5 -10.5t-1 -6.5t-0.5 -6.5t2 -10.5q-21 -34 -48.5 -46.5t-59.5 -18t-65.5 -11.5t-66.5 -26q-13 5 -23.5 0t-30.5 -3q-6 -6 -15 -8.5t-18 -5.5q4 -9 3.5 -18.5t2.5 -15.5q35 -3 77.5 1t83.5 5q1 -5 -1 -6.5t-1 -5.5q7 -5 14 -12.5t14 -14.5t14.5 -11.5
t17.5 -3.5q4 -8 5.5 -17.5t-2.5 -19.5q-16 -11 -32 -22.5t-33.5 -20.5t-37 -14.5t-43.5 -4.5h-7.5t-6.5 3q-8 -5 -22.5 -3t-22.5 -3q-11 5 -26.5 4.5t-27.5 3.5q-16 -21 -29 -45t-23 -51q34 -5 56.5 -4t42.5 3.5t41 5t53 1.5q20 11 47.5 14.5t50.5 11.5q8 -3 14 -10.5
t11.5 -14t11.5 -11.5t15 -4q4 -4 5.5 -9.5t2.5 -10.5t3.5 -8.5t8.5 -2.5q-15 -33 -34.5 -50.5t-44.5 -26.5t-55.5 -14t-67.5 -12q-9 -2 -15 0.5t-14 2.5q-23 -5 -55 -9t-65 -3t-63 8.5t-49 26.5q-8 7 -10.5 16.5t-13.5 14.5q-1 13 -4 29t-6 33.5t-4.5 34.5t1.5 31
q3 15 12.5 27t6.5 26q5 1 6 5.5t8 3.5q6 18 13 34t14.5 31t15 30.5t14.5 34.5q-14 13 -20.5 28.5t-9.5 31t-5 32t-7 33.5q10 15 24.5 24.5t31.5 15.5t37 10t42 9q40 13 71.5 20t62 11.5t63.5 8.5t75 12q9 -9 17 -9q4 9 9.5 5.5t4.5 5.5q10 -17 25.5 -28.5t34.5 -19.5z
M212 657q-1 10 -9 19t-14 13q-5 12 -10 22t-8 19.5t-2 18.5t7 20q8 2 22.5 13t37.5 33q11 10 26 25.5t33 30.5t37 27t37 17q10 2 14 2q20 -7 39 -19t37 -27t33 -30.5t26 -25.5q23 -22 37.5 -33t22.5 -13q6 -11 7 -20t-2 -18.5t-8 -19.5t-10 -22q-6 -4 -14 -13t-9 -19
q-4 3 -11.5 -2t-9.5 -10q-9 5 -16.5 13.5t-15 16.5t-15 14t-15.5 8q-20 23 -41.5 46.5t-40.5 44.5q-19 -21 -40.5 -44.5t-41.5 -46.5q-8 -2 -15.5 -8t-15 -14t-15 -16.5t-16.5 -13.5q-2 5 -9.5 10t-11.5 2z" />
    <glyph glyph-name="edieresis" unicode="&#xeb;" horiz-adv-x="534" 
d="M558 563q1 -7 0.5 -10.5t-1 -6.5t-0.5 -6.5t2 -10.5q-21 -34 -48.5 -46.5t-59.5 -18t-65.5 -11.5t-66.5 -26q-13 5 -23.5 0t-30.5 -3q-6 -6 -15 -8.5t-18 -5.5q4 -9 3.5 -18.5t2.5 -15.5q35 -3 77.5 1t83.5 5q1 -5 -1 -6.5t-1 -5.5q7 -5 14 -12.5t14 -14.5t14.5 -11.5
t17.5 -3.5q4 -8 5.5 -17.5t-2.5 -19.5q-16 -11 -32 -22.5t-33.5 -20.5t-37 -14.5t-43.5 -4.5h-7.5t-6.5 3q-8 -5 -22.5 -3t-22.5 -3q-11 5 -26.5 4.5t-27.5 3.5q-16 -21 -29 -45t-23 -51q34 -5 56.5 -4t42.5 3.5t41 5t53 1.5q20 11 47.5 14.5t50.5 11.5q8 -3 14 -10.5
t11.5 -14t11.5 -11.5t15 -4q4 -4 5.5 -9.5t2.5 -10.5t3.5 -8.5t8.5 -2.5q-15 -33 -34.5 -50.5t-44.5 -26.5t-55.5 -14t-67.5 -12q-9 -2 -15 0.5t-14 2.5q-23 -5 -55 -9t-65 -3t-63 8.5t-49 26.5q-8 7 -10.5 16.5t-13.5 14.5q-1 13 -4 29t-6 33.5t-4.5 34.5t1.5 31
q3 15 12.5 27t6.5 26q5 1 6 5.5t8 3.5q6 18 13 34t14.5 31t15 30.5t14.5 34.5q-14 13 -20.5 28.5t-9.5 31t-5 32t-7 33.5q10 15 24.5 24.5t31.5 15.5t37 10t42 9q40 13 71.5 20t62 11.5t63.5 8.5t75 12q9 -9 17 -9q4 9 9.5 5.5t4.5 5.5q10 -17 25.5 -28.5t34.5 -19.5z
M619 787l1 -11q-7 -12 -11.5 -20t-6.5 -17q-11 -11 -17 -13.5t-11 -4.5q-11 -4 -15 -8l-10 -15l-10 9l-15 -14q-11 9 -16 13.5t-9.5 7.5t-12 6.5t-23.5 10.5l-14 5l4 13q2 5 1.5 18t0.5 22q1 16 0 30t5 25q21 11 33 15q10 -1 19 -2l18 -2q7 -1 9 -1.5t2.5 -0.5t2.5 0.5
t8 2.5l12 -2q7 -3 11.5 -8.5t9.5 -10.5q4 -8 8 -10l12 -1l4 -12q5 -10 6.5 -14.5zM320 826q11 -12 22 -22t13 -22q-4 -16 -6.5 -22t-5.5 -13q-13 -11 -30 -23q-6 -5 -8 -6t-2.5 -1.5t-1 -2t-3.5 -7.5l-10 -7q-8 -3 -15 -2.5t-14 1.5q-3 0 -7.5 0.5t-6.5 0.5l-8 -8l-12 5
q-11 5 -15.5 6.5t-9.5 5.5l-9 6q-4 15 -6.5 23.5t-6.5 16.5q0 17 2 23t4 11q6 11 5 16l-4 18l15 1v21q14 1 21 1t13 1.5t13.5 4.5t24.5 10l14 6l6 -13q2 -4 11.5 -13t16.5 -16z" />
    <glyph glyph-name="igrave" unicode="&#xec;" horiz-adv-x="328" 
d="M212 70q5 -30 -3.5 -47t-24 -25.5t-35.5 -9.5t-38 2q-10 14 -18 35t-15 43.5t-12.5 44.5t-9.5 39q5 12 6.5 27.5t2 31.5t1 32.5t2.5 31.5q7 42 20.5 80t21.5 79q2 9 -1.5 17t-1.5 15q1 4 6 5.5t6 6.5q3 11 1.5 18t3.5 17q5 8 12.5 23.5t5.5 32.5q9 6 17 14t16.5 14.5
t19 11.5t25.5 5q8 -10 10.5 -22l5 -24t7.5 -22.5t17 -16.5v-20t1 -23.5t4.5 -21t11.5 -12.5q-18 -48 -33.5 -95t-25.5 -94.5t-12.5 -95.5t6.5 -97zM92 829q-8 12 -8.5 23t2.5 22t9 22.5t12 25.5q8 4 18 14.5t11 21.5q5 -3 14.5 2.5t11.5 11.5q11 -6 20.5 -15.5l18.5 -18.5
t18 -16.5t20 -9.5q24 -27 51.5 -53.5t50.5 -51.5q4 -14 14.5 -21t19 -15t10.5 -19t-11 -32q6 -10 5 -18t-5.5 -15t-11.5 -14l-14 -14q-24 1 -50 15t-50.5 32.5t-45.5 38t-36 32.5q-29 26 -47.5 38t-26.5 14z" />
    <glyph glyph-name="iacute" unicode="&#xed;" horiz-adv-x="328" 
d="M212 70q5 -30 -3.5 -47t-24 -25.5t-35.5 -9.5t-38 2q-10 14 -18 35t-15 43.5t-12.5 44.5t-9.5 39q5 12 6.5 27.5t2 31.5t1 32.5t2.5 31.5q7 42 20.5 80t21.5 79q2 9 -1.5 17t-1.5 15q1 4 6 5.5t6 6.5q3 11 1.5 18t3.5 17q5 8 12.5 23.5t5.5 32.5q9 6 17 14t16.5 14.5
t19 11.5t25.5 5q8 -10 10.5 -22l5 -24t7.5 -22.5t17 -16.5v-20t1 -23.5t4.5 -21t11.5 -12.5q-18 -48 -33.5 -95t-25.5 -94.5t-12.5 -95.5t6.5 -97zM530 839q-8 -2 -26.5 -14t-47.5 -38q-15 -13 -36 -32.5t-45.5 -38t-50.5 -32.5t-50 -15l-14 14t-11.5 14t-5.5 15t5 18
q-13 21 -11 32t10.5 19t19 15t14.5 21q23 25 50.5 51.5t51.5 53.5q10 2 19.5 9.5t18.5 16.5l18.5 18.5t20.5 15.5q2 -6 11.5 -11.5t14.5 -2.5q1 -11 11 -21.5t18 -14.5q6 -14 12 -25.5t9 -22.5t2.5 -22t-8.5 -23z" />
    <glyph glyph-name="icircumflex" unicode="&#xee;" horiz-adv-x="328" 
d="M212 70q5 -30 -3.5 -47t-24 -25.5t-35.5 -9.5t-38 2q-10 14 -18 35t-15 43.5t-12.5 44.5t-9.5 39q5 12 6.5 27.5t2 31.5t1 32.5t2.5 31.5q7 42 20.5 80t21.5 79q2 9 -1.5 17t-1.5 15q1 4 6 5.5t6 6.5q3 11 1.5 18t3.5 17q5 8 12.5 23.5t5.5 32.5q9 6 17 14t16.5 14.5
t19 11.5t25.5 5q8 -10 10.5 -22l5 -24t7.5 -22.5t17 -16.5v-20t1 -23.5t4.5 -21t11.5 -12.5q-18 -48 -33.5 -95t-25.5 -94.5t-12.5 -95.5t6.5 -97zM89 667q-1 10 -9 19t-14 13q-5 12 -10 22t-8 19.5t-2 18.5t7 20q8 2 22.5 13t37.5 33q11 10 26 25.5t33 30.5t37 27t37 17
q10 2 14 2q20 -7 39 -19t37 -27t33 -30.5t26 -25.5q23 -22 37.5 -33t22.5 -13q6 -11 7 -20t-2 -18.5t-8 -19.5t-10 -22q-6 -4 -14 -13t-9 -19q-4 3 -11.5 -2t-9.5 -10q-9 5 -16.5 13.5t-15 16.5t-15 14t-15.5 8q-20 23 -41.5 46.5t-40.5 44.5q-19 -21 -40.5 -44.5
t-41.5 -46.5q-8 -2 -15.5 -8t-15 -14t-15 -16.5t-16.5 -13.5q-2 5 -9.5 10t-11.5 2z" />
    <glyph glyph-name="idieresis" unicode="&#xef;" horiz-adv-x="328" 
d="M212 70q5 -30 -3.5 -47t-24 -25.5t-35.5 -9.5t-38 2q-10 14 -18 35t-15 43.5t-12.5 44.5t-9.5 39q5 12 6.5 27.5t2 31.5t1 32.5t2.5 31.5q7 42 20.5 80t21.5 79q2 9 -1.5 17t-1.5 15q1 4 6 5.5t6 6.5q3 11 1.5 18t3.5 17q5 8 12.5 23.5t5.5 32.5q9 6 17 14t16.5 14.5
t19 11.5t25.5 5q8 -10 10.5 -22l5 -24t7.5 -22.5t17 -16.5v-20t1 -23.5t4.5 -21t11.5 -12.5q-18 -48 -33.5 -95t-25.5 -94.5t-12.5 -95.5t6.5 -97zM475 797l1 -11q-7 -12 -11.5 -20t-6.5 -17q-11 -11 -17 -13.5t-11 -4.5q-11 -4 -15 -8l-10 -15l-10 9l-15 -14
q-11 9 -16 13.5t-9.5 7.5t-12 6.5t-23.5 10.5l-14 5l4 13q2 5 1.5 18t0.5 22q1 16 0 30t5 25q21 11 33 15q10 -1 19 -2l18 -2q7 -1 9 -1.5t2.5 -0.5t2.5 0.5t8 2.5l12 -2q7 -3 11.5 -8.5t9.5 -10.5q4 -8 8 -10l12 -1l4 -12q5 -10 6.5 -14.5zM176 836q11 -12 22 -22t13 -22
q-4 -16 -6.5 -22t-5.5 -13q-13 -11 -30 -23q-6 -5 -8 -6t-2.5 -1.5t-1 -2t-3.5 -7.5l-10 -7q-8 -3 -15 -2.5t-14 1.5q-3 0 -7.5 0.5t-6.5 0.5l-8 -8l-12 5q-11 5 -15.5 6.5t-9.5 5.5l-9 6q-4 15 -6.5 23.5t-6.5 16.5q0 17 2 23t4 11q6 11 5 16l-4 18l15 1v21q14 1 21 1
t13 1.5t13.5 4.5t24.5 10l14 6l6 -13q2 -4 11.5 -13t16.5 -16z" />
    <glyph glyph-name="eth" unicode="&#xf0;" horiz-adv-x="554" 
d="M533 237q-30 -53 -76 -89t-100.5 -63.5t-114 -50.5t-115.5 -49q-24 6 -37 20t-19.5 32.5t-8.5 41.5t-4 47q3 11 8.5 18.5t4.5 21.5q7 19 13 37.5t10 38.5q-30 -7 -47 -12.5t-23 -10.5q-12 1 -19 7t-11 14.5t-7 19.5t-7 23q2 8 1 23t-7 23q5 1 7.5 11.5t0.5 15.5
q10 4 21.5 5.5l23 3t21 4t17.5 9.5q11 1 22 1.5t22 1.5q-2 23 -6.5 46t-9.5 44q1 9 2.5 13.5t-0.5 7.5q-2 8 5 8h14q0 15 -5.5 30t-10.5 34q7 15 9 29.5t9 26.5q27 -8 53 -19t51.5 -22t49.5 -20.5t48 -15.5q36 -26 74 -51.5t69.5 -56.5t53 -70t24.5 -93q-2 -11 -4.5 -15.5
t-1.5 -19.5zM300 216q21 8 41.5 17t38.5 21t32 27t23 36q-6 12 -16 21.5t-20 18t-20 18t-16 22.5q-13 2 -23 7t-19.5 11t-20 10.5t-24.5 5.5q-22 12 -39.5 16.5t-27.5 12.5q-6 2 -10 -2q10 -39 15 -74q10 -1 21.5 -2t21 -4.5t17.5 -12.5t11 -25q9 -1 13 -6.5t5.5 -13
t0.5 -16.5t-1 -18q-14 -15 -37.5 -22.5t-49.5 -10.5q-3 -36 -12 -80q11 1 19.5 4.5t17 7.5t18 7.5t22.5 4.5q3 7 8.5 10.5t10.5 8.5z" />
    <glyph glyph-name="ntilde" unicode="&#xf1;" horiz-adv-x="578" 
d="M205 182q-9 -2 -13 -10.5t-7.5 -17.5t-7 -16.5t-10.5 -7.5q-1 -8 -5.5 -14t-8.5 -12.5t-6 -14t2 -17.5q-8 -6 -10 -17t-4.5 -21t-8.5 -17t-22 -6q-3 -4 -1 -5t3 -7q-11 2 -16.5 -1.5t-13.5 -4.5q-19 6 -31.5 21t-22 33.5t-17 37.5t-14.5 33q3 11 1 21.5t-7 17.5
q49 104 107 222t110 233q23 -9 45.5 -20.5t41 -26.5t31.5 -34.5t17 -43.5q-2 -6 -4.5 -4.5t-4.5 -1.5q4 -5 4.5 -7t0 -4t-0.5 -5.5t3 -9.5q-4 1 -5.5 -1t-6.5 0q4 -11 2.5 -18t-4.5 -12.5t-5 -12t1 -16.5q-3 0 -4.5 -1.5t-2.5 -3t-2.5 -3t-4.5 -0.5q3 -22 2 -44t-1.5 -44.5
t0.5 -47t7 -50.5q36 21 57.5 54t35 74t20.5 88t15 96q9 9 14 22t9 27.5l8 29t10 26.5q15 -2 25.5 -9.5t19.5 -16t19 -16t25 -9.5q12 -17 22 -33t13 -34q-5 -8 -7.5 -18t-5.5 -20t-8 -18.5t-14 -14.5q-3 -26 -7.5 -47.5t-9 -42.5t-7.5 -43.5t-2 -49.5q-8 -23 -17 -49t-14 -47
q-16 -13 -25 -31t-19 -36q-4 -4 -5 -2t-7 3q1 -4 0 -6t-2.5 -3.5t-2 -4.5t1.5 -8q-14 -6 -25 -17t-23.5 -20t-30 -12t-45.5 7q-41 30 -72.5 69t-51.5 93zM680 876q17 -1 26.5 -9t9.5 -22q-2 -12 -7 -20q-7 -16 -12.5 -24.5t-11.5 -17.5q-9 -14 -17.5 -27t-19.5 -27
q-7 -6 -11 -8q-9 -8 -19 -14.5t-21 -11.5q-18 -7 -33.5 -8.5t-33.5 -1.5h-14q-11 1 -22.5 2t-19.5 3q-15 8 -23.5 14t-16.5 12q-9 6 -15 13t-11 14q-4 6 -9.5 11.5t-10.5 5.5q-5 -1 -9.5 -6t-9.5 -10q-2 -2 -4 -4.5t-4 -4.5q-6 -19 -24 -31q-9 -5 -14 -6t-9 -3l-10 -2
l-10 -2l-10 1q-15 -5 -25 -5q-20 1 -29.5 9.5t-9.5 21.5q2 12 7 20q8 16 13.5 25t11.5 18q8 13 16.5 26t19.5 27q7 6 11 8q9 8 19 14.5t21 11.5q18 7 33.5 8.5t33.5 1.5h14q23 -2 42 -5q15 -8 23.5 -14t16.5 -12q9 -6 15 -13t11 -14q12 -17 21 -16q5 0 9 4.5t9 10.5q2 3 8 9
q6 19 24 31q14 7 23 9l10 2l10 2h10q12 4 25 4h3z" />
    <glyph glyph-name="ograve" unicode="&#xf2;" horiz-adv-x="644" 
d="M583 300q-1 -12 2 -23t7.5 -21.5t8.5 -21.5t6 -22q2 -14 0 -30.5t-7 -32t-13 -28t-19 -18.5q-14 -18 -34 -28t-37 -24q-11 -7 -24.5 -10t-27.5 -6q-11 -6 -26 -12.5t-31 -12t-32 -8t-28 -1.5q-30 -11 -58.5 -14.5t-66.5 4.5q-36 -5 -66.5 3t-54 25.5t-41 42t-28.5 51.5
q-8 57 4 103.5t34.5 86t51.5 73t56 65.5q6 -2 9.5 0.5t6.5 7t6.5 8.5t8.5 5q7 15 20.5 22.5t21.5 21.5q9 2 15 6t11.5 9t11.5 9.5t14 6.5v11q18 8 26.5 18.5t20.5 25.5q9 1 14.5 1t16.5 2q8 14 14.5 21t19.5 15q12 -6 26.5 -8t25.5 -13q1 -10 6 -15.5t11 -10t11.5 -9.5
t7.5 -14q4 -1 5.5 1t5.5 1q3 -14 7 -18.5t8 -17.5q-5 -10 -7.5 -20.5t-12.5 -15.5q-1 -7 4 -7.5t6 -5.5q1 -9 -3 -13q24 -39 43 -82.5t43 -82.5zM458 205q4 11 10.5 18t7.5 21q-5 8 -6 12.5t-1 14.5q-22 31 -38 66.5t-36 66.5q-2 -4 -7 -8t-11 2q-2 -8 -7 -11.5t-11 -3
t-12.5 3t-11.5 6.5q-29 -23 -58 -45t-52 -51q-4 -2 -5 -1.5t-6 -1.5q-8 -19 -19.5 -34.5t-22.5 -31.5t-19 -34t-9 -42q17 -14 40 -17t47.5 -1t48 6.5t43.5 4.5q42 10 72 26.5t63 33.5zM276 808q-8 12 -8.5 23t2.5 22t9 22.5t12 25.5q8 4 18 14.5t11 21.5q5 -3 14.5 2.5
t11.5 11.5q11 -6 20.5 -15.5l18.5 -18.5t18 -16.5t20 -9.5q24 -27 51.5 -53.5t50.5 -51.5q4 -14 14.5 -21t19 -15t10.5 -19t-11 -32q6 -10 5 -18t-5.5 -15t-11.5 -14l-14 -14q-24 1 -50 15t-50.5 32.5t-45.5 38t-36 32.5q-29 26 -47.5 38t-26.5 14z" />
    <glyph glyph-name="oacute" unicode="&#xf3;" horiz-adv-x="644" 
d="M583 300q-1 -12 2 -23t7.5 -21.5t8.5 -21.5t6 -22q2 -14 0 -30.5t-7 -32t-13 -28t-19 -18.5q-14 -18 -34 -28t-37 -24q-11 -7 -24.5 -10t-27.5 -6q-11 -6 -26 -12.5t-31 -12t-32 -8t-28 -1.5q-30 -11 -58.5 -14.5t-66.5 4.5q-36 -5 -66.5 3t-54 25.5t-41 42t-28.5 51.5
q-8 57 4 103.5t34.5 86t51.5 73t56 65.5q6 -2 9.5 0.5t6.5 7t6.5 8.5t8.5 5q7 15 20.5 22.5t21.5 21.5q9 2 15 6t11.5 9t11.5 9.5t14 6.5v11q18 8 26.5 18.5t20.5 25.5q9 1 14.5 1t16.5 2q8 14 14.5 21t19.5 15q12 -6 26.5 -8t25.5 -13q1 -10 6 -15.5t11 -10t11.5 -9.5
t7.5 -14q4 -1 5.5 1t5.5 1q3 -14 7 -18.5t8 -17.5q-5 -10 -7.5 -20.5t-12.5 -15.5q-1 -7 4 -7.5t6 -5.5q1 -9 -3 -13q24 -39 43 -82.5t43 -82.5zM458 205q4 11 10.5 18t7.5 21q-5 8 -6 12.5t-1 14.5q-22 31 -38 66.5t-36 66.5q-2 -4 -7 -8t-11 2q-2 -8 -7 -11.5t-11 -3
t-12.5 3t-11.5 6.5q-29 -23 -58 -45t-52 -51q-4 -2 -5 -1.5t-6 -1.5q-8 -19 -19.5 -34.5t-22.5 -31.5t-19 -34t-9 -42q17 -14 40 -17t47.5 -1t48 6.5t43.5 4.5q42 10 72 26.5t63 33.5zM540 829q-8 -2 -26.5 -14t-47.5 -38q-15 -13 -36 -32.5t-45.5 -38t-50.5 -32.5t-50 -15
l-14 14t-11.5 14t-5.5 15t5 18q-13 21 -11 32t10.5 19t19 15t14.5 21q23 25 50.5 51.5t51.5 53.5q10 2 19.5 9.5t18.5 16.5l18.5 18.5t20.5 15.5q2 -6 11.5 -11.5t14.5 -2.5q1 -11 11 -21.5t18 -14.5q6 -14 12 -25.5t9 -22.5t2.5 -22t-8.5 -23z" />
    <glyph glyph-name="ocircumflex" unicode="&#xf4;" horiz-adv-x="644" 
d="M583 300q-1 -12 2 -23t7.5 -21.5t8.5 -21.5t6 -22q2 -14 0 -30.5t-7 -32t-13 -28t-19 -18.5q-14 -18 -34 -28t-37 -24q-11 -7 -24.5 -10t-27.5 -6q-11 -6 -26 -12.5t-31 -12t-32 -8t-28 -1.5q-30 -11 -58.5 -14.5t-66.5 4.5q-36 -5 -66.5 3t-54 25.5t-41 42t-28.5 51.5
q-8 57 4 103.5t34.5 86t51.5 73t56 65.5q6 -2 9.5 0.5t6.5 7t6.5 8.5t8.5 5q7 15 20.5 22.5t21.5 21.5q9 2 15 6t11.5 9t11.5 9.5t14 6.5v11q18 8 26.5 18.5t20.5 25.5q9 1 14.5 1t16.5 2q8 14 14.5 21t19.5 15q12 -6 26.5 -8t25.5 -13q1 -10 6 -15.5t11 -10t11.5 -9.5
t7.5 -14q4 -1 5.5 1t5.5 1q3 -14 7 -18.5t8 -17.5q-5 -10 -7.5 -20.5t-12.5 -15.5q-1 -7 4 -7.5t6 -5.5q1 -9 -3 -13q24 -39 43 -82.5t43 -82.5zM458 205q4 11 10.5 18t7.5 21q-5 8 -6 12.5t-1 14.5q-22 31 -38 66.5t-36 66.5q-2 -4 -7 -8t-11 2q-2 -8 -7 -11.5t-11 -3
t-12.5 3t-11.5 6.5q-29 -23 -58 -45t-52 -51q-4 -2 -5 -1.5t-6 -1.5q-8 -19 -19.5 -34.5t-22.5 -31.5t-19 -34t-9 -42q17 -14 40 -17t47.5 -1t48 6.5t43.5 4.5q42 10 72 26.5t63 33.5zM264 677q-1 10 -9 19t-14 13q-5 12 -10 22t-8 19.5t-2 18.5t7 20q8 2 22.5 13t37.5 33
q11 10 26 25.5t33 30.5t37 27t37 17q10 2 14 2q20 -7 39 -19t37 -27t33 -30.5t26 -25.5q23 -22 37.5 -33t22.5 -13q6 -11 7 -20t-2 -18.5t-8 -19.5t-10 -22q-6 -4 -14 -13t-9 -19q-4 3 -11.5 -2t-9.5 -10q-9 5 -16.5 13.5t-15 16.5t-15 14t-15.5 8q-20 23 -41.5 46.5
t-40.5 44.5q-19 -21 -40.5 -44.5t-41.5 -46.5q-8 -2 -15.5 -8t-15 -14t-15 -16.5t-16.5 -13.5q-2 5 -9.5 10t-11.5 2z" />
    <glyph glyph-name="otilde" unicode="&#xf5;" horiz-adv-x="644" 
d="M583 300q-1 -12 2 -23t7.5 -21.5t8.5 -21.5t6 -22q2 -14 0 -30.5t-7 -32t-13 -28t-19 -18.5q-14 -18 -34 -28t-37 -24q-11 -7 -24.5 -10t-27.5 -6q-11 -6 -26 -12.5t-31 -12t-32 -8t-28 -1.5q-30 -11 -58.5 -14.5t-66.5 4.5q-36 -5 -66.5 3t-54 25.5t-41 42t-28.5 51.5
q-8 57 4 103.5t34.5 86t51.5 73t56 65.5q6 -2 9.5 0.5t6.5 7t6.5 8.5t8.5 5q7 15 20.5 22.5t21.5 21.5q9 2 15 6t11.5 9t11.5 9.5t14 6.5v11q18 8 26.5 18.5t20.5 25.5q9 1 14.5 1t16.5 2q8 14 14.5 21t19.5 15q12 -6 26.5 -8t25.5 -13q1 -10 6 -15.5t11 -10t11.5 -9.5
t7.5 -14q4 -1 5.5 1t5.5 1q3 -14 7 -18.5t8 -17.5q-5 -10 -7.5 -20.5t-12.5 -15.5q-1 -7 4 -7.5t6 -5.5q1 -9 -3 -13q24 -39 43 -82.5t43 -82.5zM458 205q4 11 10.5 18t7.5 21q-5 8 -6 12.5t-1 14.5q-22 31 -38 66.5t-36 66.5q-2 -4 -7 -8t-11 2q-2 -8 -7 -11.5t-11 -3
t-12.5 3t-11.5 6.5q-29 -23 -58 -45t-52 -51q-4 -2 -5 -1.5t-6 -1.5q-8 -19 -19.5 -34.5t-22.5 -31.5t-19 -34t-9 -42q17 -14 40 -17t47.5 -1t48 6.5t43.5 4.5q42 10 72 26.5t63 33.5zM680 865q17 -1 26.5 -9t9.5 -22q-2 -12 -7 -20q-7 -16 -12.5 -24.5t-11.5 -17.5
q-9 -14 -17.5 -27t-19.5 -27q-7 -6 -11 -8q-9 -8 -19 -14.5t-21 -11.5q-18 -7 -33.5 -8.5t-33.5 -1.5h-14q-11 1 -22.5 2t-19.5 3q-15 8 -23.5 14t-16.5 12q-9 6 -15 13t-11 14q-4 6 -9.5 11.5t-10.5 5.5q-5 -1 -9.5 -6t-9.5 -10q-2 -2 -4 -4.5t-4 -4.5q-6 -19 -24 -31
q-9 -5 -14 -6t-9 -3l-10 -2l-10 -2l-10 1q-15 -5 -25 -5q-20 1 -29.5 9.5t-9.5 21.5q2 12 7 20q8 16 13.5 25t11.5 18q8 13 16.5 26t19.5 27q7 6 11 8q9 8 19 14.5t21 11.5q18 7 33.5 8.5t33.5 1.5h14q23 -2 42 -5q15 -8 23.5 -14t16.5 -12q9 -6 15 -13t11 -14
q12 -17 21 -16q5 0 9 4.5t9 10.5q2 3 8 9q6 19 24 31q14 7 23 9l10 2l10 2h10q12 4 25 4h3z" />
    <glyph glyph-name="odieresis" unicode="&#xf6;" horiz-adv-x="644" 
d="M583 300q-1 -12 2 -23t7.5 -21.5t8.5 -21.5t6 -22q2 -14 0 -30.5t-7 -32t-13 -28t-19 -18.5q-14 -18 -34 -28t-37 -24q-11 -7 -24.5 -10t-27.5 -6q-11 -6 -26 -12.5t-31 -12t-32 -8t-28 -1.5q-30 -11 -58.5 -14.5t-66.5 4.5q-36 -5 -66.5 3t-54 25.5t-41 42t-28.5 51.5
q-8 57 4 103.5t34.5 86t51.5 73t56 65.5q6 -2 9.5 0.5t6.5 7t6.5 8.5t8.5 5q7 15 20.5 22.5t21.5 21.5q9 2 15 6t11.5 9t11.5 9.5t14 6.5v11q18 8 26.5 18.5t20.5 25.5q9 1 14.5 1t16.5 2q8 14 14.5 21t19.5 15q12 -6 26.5 -8t25.5 -13q1 -10 6 -15.5t11 -10t11.5 -9.5
t7.5 -14q4 -1 5.5 1t5.5 1q3 -14 7 -18.5t8 -17.5q-5 -10 -7.5 -20.5t-12.5 -15.5q-1 -7 4 -7.5t6 -5.5q1 -9 -3 -13q24 -39 43 -82.5t43 -82.5zM458 205q4 11 10.5 18t7.5 21q-5 8 -6 12.5t-1 14.5q-22 31 -38 66.5t-36 66.5q-2 -4 -7 -8t-11 2q-2 -8 -7 -11.5t-11 -3
t-12.5 3t-11.5 6.5q-29 -23 -58 -45t-52 -51q-4 -2 -5 -1.5t-6 -1.5q-8 -19 -19.5 -34.5t-22.5 -31.5t-19 -34t-9 -42q17 -14 40 -17t47.5 -1t48 6.5t43.5 4.5q42 10 72 26.5t63 33.5zM669 787l1 -11q-7 -12 -11.5 -20t-6.5 -17q-11 -11 -17 -13.5t-11 -4.5q-11 -4 -15 -8
l-10 -15l-10 9l-15 -14q-11 9 -16 13.5t-9.5 7.5t-12 6.5t-23.5 10.5l-14 5l4 13q2 5 1.5 18t0.5 22q1 16 0 30t5 25q21 11 33 15q10 -1 19 -2l18 -2q7 -1 9 -1.5t2.5 -0.5t2.5 0.5t8 2.5l12 -2q7 -3 11.5 -8.5t9.5 -10.5q4 -8 8 -10l12 -1l4 -12q5 -10 6.5 -14.5zM370 826
q11 -12 22 -22t13 -22q-4 -16 -6.5 -22t-5.5 -13q-13 -11 -30 -23q-6 -5 -8 -6t-2.5 -1.5t-1 -2t-3.5 -7.5l-10 -7q-8 -3 -15 -2.5t-14 1.5q-3 0 -7.5 0.5t-6.5 0.5l-8 -8l-12 5q-11 5 -15.5 6.5t-9.5 5.5l-9 6q-4 15 -6.5 23.5t-6.5 16.5q0 17 2 23t4 11q6 11 5 16l-4 18
l15 1v21q14 1 21 1t13 1.5t13.5 4.5t24.5 10l14 6l6 -13q2 -4 11.5 -13t16.5 -16z" />
    <glyph glyph-name="divide" unicode="&#xf7;" horiz-adv-x="573" 
d="M500 316q15 -2 21.5 -7t8.5 -12.5t1.5 -16t-0.5 -17.5q-25 -17 -69 -24.5t-92 -10t-93 -3t-71 -3.5q-53 -7 -83 -13t-41 -11q-19 1 -30 7t-18 15t-12 20t-12 23q4 8 1.5 22.5t-11.5 22.5q8 1 11.5 11.5t0.5 15.5q16 4 34.5 5.5t36.5 3t34 4t28 8.5q50 2 103.5 4t100.5 5
q17 -5 40 -5t45 -3t40 -11.5t26 -29.5zM309 134q1 -8 2 -15.5t3 -14.5q-3 -11 -6.5 -20t-6.5 -18q-2 -8 -3 -10t-1 -2.5t0.5 -2t0.5 -8.5l-4 -13q-5 -6 -12 -10t-13 -8q-3 -2 -7 -3.5t-6 -3.5l-3 -11l-13 -2q-16 -5 -29 -5h-12q-12 11 -19 17t-15 11q-10 14 -11 20.5
t-3 12.5q-2 14 -5 17l-14 13l12 10l-12 18l18 13.5t10.5 9t9.5 11.5t15 23l9 13l13 -8q4 -2 17.5 -4.5t23.5 -4.5q17 -5 32 -7t25 -11zM247 421q-4 8 -7.5 14t-7.5 13q-1 10 -1 20v20q0 7 0.5 9.5t0.5 3t-1 2.5l-4 8l-1 13q2 8 7.5 14t10.5 11q2 2 5 5.5t4 5.5l-1 12l12 6
q14 11 26 15l11 3q14 -6 23 -9t19 -5q13 -10 16.5 -16t6.5 -11l6 -9t5 -5l18 -8l-8 -13l17 -14q-8 -13 -12.5 -18.5t-7 -11t-5 -14.5t-6.5 -27l-4 -15l-14 3q-5 1 -18.5 -1.5t-23.5 -3.5q-17 -2 -32.5 -5t-27.5 2z" />
    <glyph glyph-name="oslash" unicode="&#xf8;" horiz-adv-x="648" 
d="M13 110q-8 57 4 103.5t35 86.5t52 74t56 66q6 -2 9.5 0.5t6.5 7t6.5 8.5t8.5 5q7 15 20.5 23t21.5 22q9 2 15 6t12 9t12 9.5t14 6.5v11q18 8 26.5 18.5t20.5 25.5q9 2 14.5 1.5t16.5 1.5q8 14 15 21t20 16q12 -7 26.5 -8.5t25.5 -12.5q1 -11 6 -16.5t11.5 -10t12 -9.5
t7.5 -14q4 -1 5.5 1t4.5 1q23 25 46 43.5t46 16.5q16 -37 17 -72.5t-8 -80.5q-9 -11 -26 -30t-37 -42q12 -26 24.5 -51t26.5 -48q-1 -12 2 -23t7.5 -22t8.5 -22t6 -22q2 -14 0 -30.5t-7 -32.5t-13 -28.5t-19 -19.5q-14 -17 -34 -27.5t-37 -24.5q-11 -7 -25 -10l-28 -6
q-23 -13 -57.5 -24.5t-60.5 -9.5q-26 -9 -51.5 -13.5t-57.5 0.5q-2 -13 2 -24.5t2 -25.5q-7 -6 -11.5 -13.5t-9.5 -15t-11 -15t-16 -12.5q-21 2 -34.5 5.5t-30.5 7.5q-13 10 -19.5 24.5t-8.5 30.5t0 33t5 33q-26 17 -45.5 43t-30.5 55zM472 269l-10 16l-10 16
q-19 -23 -33.5 -42t-19.5 -30q-12 -13 -31 -34t-40 -46q39 3 69.5 20t63.5 34q4 10 10.5 17.5t7.5 21.5q-5 8 -5.5 12.5t-1.5 14.5zM215 293q-8 -20 -19.5 -35.5t-22.5 -31.5t-19 -34.5t-9 -42.5q6 -5 13 -8q14 16 31 34.5t32.5 35.5t29.5 32t22 25q3 10 12.5 23t22.5 28
t27 31.5t28 31.5q-14 0 -26 10q-29 -23 -58.5 -45.5t-52.5 -51.5q-4 -2 -5 -1t-6 -1z" />
    <glyph glyph-name="ugrave" unicode="&#xf9;" horiz-adv-x="599" 
d="M590 569q2 -22 7 -38t11 -31q5 -14 9.5 -27.5t6.5 -32.5q-8 -26 -11.5 -48t-7.5 -46q-16 -35 -31 -62t-24 -47q-5 -5 -8.5 -11.5t-7.5 -13.5q-2 -3 -5 -9t-5 -8l-20 7l-4 -25l-14 -4l-10 -12q-19 -33 -40 -55.5t-47.5 -40t-60 -32.5t-75.5 -33q-17 2 -29.5 2.5t-23.5 1.5
q-19 0 -47 3q-3 8 -9 11t-11 3q-17 8 -25.5 23.5t-16.5 33.5q-5 11 -10 20.5t-11 19.5l17 5l-22 24q-2 3 -5 5.5t-5 5.5l-1 16q-3 69 -2.5 126.5t15.5 102.5v11q3 22 6 36.5t5 27.5q3 22 9 41q14 3 21 11.5t12 15.5q14 1 19 -4t10 -16q5 -9 12.5 -20t22.5 -17
q2 -8 5.5 -16.5t7.5 -18.5q8 -17 14.5 -35.5t7.5 -35.5q-10 -19 -15.5 -44t-7 -50.5t1 -49t8.5 -39.5l6 -13l17 2q30 8 54.5 17.5t45.5 22.5t40 30.5t40 40.5t36.5 52.5t26 61.5t16 63.5t7.5 59.5q17 6 17 24l-2 11q-4 6 0 14q6 19 28 29q16 -10 28.5 -22t23.5 -24zM194 819
q-8 12 -8.5 23t2.5 22t9 22.5t12 25.5q8 4 18 14.5t11 21.5q5 -3 14.5 2.5t11.5 11.5q11 -6 20.5 -15.5l18.5 -18.5t18 -16.5t20 -9.5q24 -27 51.5 -53.5t50.5 -51.5q4 -14 14.5 -21t19 -15t10.5 -19t-11 -32q6 -10 5 -18t-5.5 -15t-11.5 -14l-14 -14q-24 1 -50 15
t-50.5 32.5t-45.5 38t-36 32.5q-29 26 -47.5 38t-26.5 14z" />
    <glyph glyph-name="uacute" unicode="&#xfa;" horiz-adv-x="599" 
d="M590 569q2 -22 7 -38t11 -31q5 -14 9.5 -27.5t6.5 -32.5q-8 -26 -11.5 -48t-7.5 -46q-16 -35 -31 -62t-24 -47q-5 -5 -8.5 -11.5t-7.5 -13.5q-2 -3 -5 -9t-5 -8l-20 7l-4 -25l-14 -4l-10 -12q-19 -33 -40 -55.5t-47.5 -40t-60 -32.5t-75.5 -33q-17 2 -29.5 2.5t-23.5 1.5
q-19 0 -47 3q-3 8 -9 11t-11 3q-17 8 -25.5 23.5t-16.5 33.5q-5 11 -10 20.5t-11 19.5l17 5l-22 24q-2 3 -5 5.5t-5 5.5l-1 16q-3 69 -2.5 126.5t15.5 102.5v11q3 22 6 36.5t5 27.5q3 22 9 41q14 3 21 11.5t12 15.5q14 1 19 -4t10 -16q5 -9 12.5 -20t22.5 -17
q2 -8 5.5 -16.5t7.5 -18.5q8 -17 14.5 -35.5t7.5 -35.5q-10 -19 -15.5 -44t-7 -50.5t1 -49t8.5 -39.5l6 -13l17 2q30 8 54.5 17.5t45.5 22.5t40 30.5t40 40.5t36.5 52.5t26 61.5t16 63.5t7.5 59.5q17 6 17 24l-2 11q-4 6 0 14q6 19 28 29q16 -10 28.5 -22t23.5 -24zM581 778
q-8 -2 -26.5 -14t-47.5 -38q-15 -13 -36 -32.5t-45.5 -38t-50.5 -32.5t-50 -15l-14 14t-11.5 14t-5.5 15t5 18q-13 21 -11 32t10.5 19t19 15t14.5 21q23 25 50.5 51.5t51.5 53.5q10 2 19.5 9.5t18.5 16.5l18.5 18.5t20.5 15.5q2 -6 11.5 -11.5t14.5 -2.5q1 -11 11 -21.5
t18 -14.5q6 -14 12 -25.5t9 -22.5t2.5 -22t-8.5 -23z" />
    </font>
</defs>
</svg>
