<svg viewBox="-1 -2 33 26" preserveAspectRatio="xMidYMid" xmlns="http://www.w3.org/2000/svg" xmlns:xhtml="http://www.w3.org/1999/xhtml" xmlns:xlink="http://www.w3.org/1999/xlink" class="export-svg-preview"> <g><g transform="translate(-2.3900000000000006,-3) rotate(0)" data-svg-item-container-id="3d81zw0ep" style="opacity: 1; mix-blend-mode: normal;">       <g><g transform="translate(2.39,3.41) rotate(0)" data-svg-item-container-id="GaXEw6IQV" style="opacity: 1; mix-blend-mode: normal;"> <g mode="edit" style="opacity: 1;"><g> </g> <path d="M 0 0 Q 5.04 1.02 6.57 1.94 C 8.1 2.86 11.4 5.04 9.68 8.18 C 7.96 11.32 3.61 9.59 2.61 13.59 C 1.61 17.59 4.5 17.52 6.61 18.59 C 8.72 19.66 5.61 22.59 9.61 23.59 " stroke-width="1px" stroke="rgba(0, 0, 0, 1)" stroke-dasharray="" fill="none" style="stroke-linejoin: round;"></path> </g>      </g><g transform="translate(13,3) rotate(0)" data-svg-item-container-id="VdpUFexKS" style="opacity: 1; mix-blend-mode: normal;"> <g mode="edit" style="opacity: 1;"><g> </g> <path d="M 14 0 L 20 6 L 6 21 L 0 22 L 0 15 L 14 0  Z" stroke-width="2px" stroke="rgba(0, 0, 0, 1)" stroke-dasharray="" fill="none" style="stroke-linejoin: round;"></path> </g>      </g><g transform="translate(15,4) rotate(0)" data-svg-item-container-id="p8O360TkT" style="opacity: 1; mix-blend-mode: normal;"> <g mode="edit" style="opacity: 1;"><g> </g> <path d="M 0 13 L 12 0 L 17 5 L 5 18 L 0 13  Z" stroke-width="2px" stroke="rgba(0, 0, 0, 1)" stroke-dasharray="" fill="rgba(0, 0, 0, 1)" style="stroke-linejoin: round;"></path> </g>      </g></g></g></g></svg>