<svg xmlns="http://www.w3.org/2000/svg" xmlns:xhtml="http://www.w3.org/1999/xhtml" xmlns:xlink="http://www.w3.org/1999/xlink" viewBox="-2 -2 30 29"><g xmlns="http://www.w3.org/2000/svg" transform="translate(-6.4419355260851034,-2.712620221905496) rotate(0)" data-svg-item-container-id="TBU26PuaQ" data-item-id="TBU26PuaQ">  <g style="opacity: 1; mix-blend-mode: normal;"> <defs/> <g filter="">   </g>  <g id="animation-container-TBU26PuaQ"/>       <g><g transform="matrix(1,0,0,1,6.4419355260851034,2.712620221905496)">  <g style="opacity: 1; mix-blend-mode: normal;"> <defs/> <g filter=""><g mode="edit" style="opacity: 1;"><g> </g> <path d="M 14.24 0 C 12.84 0 11.23 0.66 9.77 2.93 Q 8.31 5.2 7.6 8.65 L 4.76 8.63 L 3.71 10.78 L 7.03 10.8 Q 6.49 14.21 6 16.54 C 5.51 18.87 4.83 23.1 3.13 23.46 C 3.8 22.38 3.59 20.01 1.44 20.32 C -0.71 20.63 -0.14 23.74 1.14 24.62 C 2.42 25.5 5.67 25.32 7.35 22.06 Q 9.03 18.8 10.48 10.78 L 13.34 10.78 L 14.39 8.58 L 10.9 8.61 Q 12.65 1.69 13.92 1.63 C 13.26 2.54 13.05 4.49 14.99 4.84 C 16.93 5.19 17.34 3.1 16.94 2.06 C 16.54 1.02 15.64 0 14.24 0  Z M 13.92 12.89 Q 15.47 8.62 17.99 8.64 C 20.51 8.66 20.74 10.37 21.09 11.76 C 22.64 9.99 23.2 8.77 24.73 8.73 C 26.26 8.69 26.47 10.17 25.89 11.07 C 25.31 11.97 24.65 11.82 24.02 11.61 Q 22.94 12.83 21.77 14.13 Q 22.04 17.35 22.94 17.39 Q 23.84 17.43 24.32 15.32 L 26.4 15.71 Q 24.62 20.22 22.14 19.84 C 19.66 19.46 19.51 18.1 19.23 16.92 C 17.74 18.5 17.02 19.95 15.76 19.99 C 14.5 20.03 13.99 18.43 14.54 17.49 Q 15.09 16.55 16.36 16.84 L 18.65 14.43 Q 18.41 11.2 17.58 11.2 Q 16.75 11.2 16.21 13.23 L 13.92 12.89  Z " stroke-width="0px" stroke="rgba(14, 14, 14, 1)" stroke-dasharray="" stroke-dashoffset="0" fill="rgba(54, 52, 52, 1)" style="stroke-linejoin: round;"/></g>   </g>  <g id="animation-container-LanCEU-dI"/>        </g></g></g> </g></g></svg>