<svg width="42" height="32" xmlns="http://www.w3.org/2000/svg">
 <!-- Created with Method Draw - http://github.com/duopixel/Method-Draw/ -->
<g style="opacity: 1; mix-blend-mode: normal;" transform="translate(6, 2)"><path d="M 34 28  L 0 28 a 0 0 0 0 1 0 0  L 0 0  a 0 0 0 0 1 0 0   L 34 0   a 0 0 0 0 1 0 0  L 34 28   a 0 0 0 0 1 0 0 Z" stroke-width="2px" stroke="rgba(30,30,30,1.0)" fill="rgba(240,240,240,0.5)"></path> <g transform="translate(-5.666666666666667, 3.5)"><path d="M 0 0  L 11.333333333333334 0  L 11.333333333333334 3.5  L 0 3.5 Z" stroke-width="2px" stroke="rgba(30,30,30,1.0)" fill="rgba(240,240,240,0.5)"></path></g> <g transform="translate(-5.666666666666667, 10.5)"><path d="M 0 0  L 11.333333333333334 0  L 11.333333333333334 3.5  L 0 3.5 Z" stroke-width="2px" stroke="rgba(30,30,30,1.0)" fill="rgba(240,240,240,0.5)"></path></g> </g>
</svg>