<svg width="42" height="32" viewBox="-1 -1 42 32"   xmlns="http://www.w3.org/2000/svg">
    <g>
        <path d="M 35.50933540568258 20.12593748084447  L 4.490664594317423 20.12593748084447 a 4.490664594317423 4.490664594317423 0 0 1 -4.490664594317423 -4.490664594317423  L 0 4.490664594317423  a 4.490664594317423 4.490664594317423 0 0 1 4.490664594317423 -4.490664594317423   L 35.50933540568258 0   a 4.490664594317423 4.490664594317423 0 0 1 4.490664594317423 4.490664594317423  L 40 15.635272886527048   a 4.490664594317423 4.490664594317423 0 0 1 -4.490664594317423 4.490664594317423 Z" stroke-width="2px" stroke="rgba(30,30,30,1.0)" stroke-dasharray="" fill="rgba(255, 255, 255, 1)"></path>
    </g>
    <g transform="translate(9,4) rotate(-8.831307547512703)">
        <path d="M 7.780601374843117 17.252967873513064 Q 7.6452705170933 6.1084396187314445 7.557933835558763 2.1416302722241216 C 7.578731311918712 0.20630159720650232 10.230902070632482 0 10.675279385539755 2.1416302722241216 C 10.9574554636053 4.094285598263154 11.714394568866748 10.897126307305692 11.714394568866748 10.897126307305692 C 11.714394568866748 10.897126307305692 21.361395144551622 11.540089936791311 21.289098758094088 14.204758142780959 Q 21.216802371636554 16.869426348770606 19.285090904534876 22.83054312549095 L 8.658509031871183 22.83054312549095 Q 1.8249779079491395 16.57813806427598 1.2490202225019924 16.150423928354634 C 0 15.109018224578385 1.409832179276158 12.798361163372345 2.9561380236820582 13.750769459480429 Q 5.6144602336568195 15.521433179395045 7.780601374843117 17.252967873513064  Z" stroke-width="2px" stroke="rgba(30,30,30,1.0)" stroke-dasharray="" fill="rgba(255, 255, 255, 1)"></path>
    </g>
</svg>

