<svg viewBox="1 -1 13 20" preserveAspectRatio="xMidYMid" xmlns="http://www.w3.org/2000/svg" xmlns:xhtml="http://www.w3.org/1999/xhtml" xmlns:xlink="http://www.w3.org/1999/xlink" class="export-svg-preview"><g transform="translate(0, 0)"><g transform="translate(1.8000000000000114,0) rotate(0)" data-svg-item-container-id="D6fC8k3L4" style="opacity: 1; mix-blend-mode: normal;"><g mode="edit" style="opacity: 1;"><g> </g> <path d="M 9 14 C 6 14 3 14 0 14 C 0 9 2 10 2 8 Q 2 6 0 3 L 0 2 Q 3.1999999999999886 1 4 0 C 4.400000000000034 0 4.600000000000023 0 5 0 Q 5.800000000000011 1 9 2 L 9 3 Q 7 6 7 8 C 7 10 9 9 9 14  Z" stroke-width="1px" stroke="rgba(30,30,30,1.0)" stroke-dasharray="" fill="rgba(255, 255, 255, 1)"></path> </g>     <g><g transform="translate(4.400000000000034,14) rotate(0)" data-svg-item-container-id="wPAKyXT8Y" style="opacity: 1; mix-blend-mode: normal;"><g mode="edit" style="opacity: 1;"><g> </g> <path d="M 0 0 L 0 3.4000000000000057 " stroke-width="1px" stroke="rgba(30,30,30,1.0)" stroke-dasharray="" fill="none"></path> </g>     </g><g transform="translate(-1.8000000000000114,17) rotate(0)" data-svg-item-container-id="laeUXOBff" style="opacity: 1; mix-blend-mode: normal;"><g mode="edit" style="opacity: 1;"><g> </g> <path d="M 1.8000000000000114 1.4000000000000057 C 3.6000000000000227 1.4000000000000057 3.6000000000000796 0 6.2000000000000455 0 C 8.800000000000011 0 8.800000000000011 1.4000000000000057 10.800000000000011 1.4000000000000057 " stroke-width="1px" stroke="rgba(30,30,30,1.0)" stroke-dasharray="" fill="none"></path> </g>     </g></g></g></g></svg>