<?xml version="1.0" ?><svg id="Layer_1" style="enable-background:new 0 0 50 50;" version="1.1" viewBox="0 0 50 50" xml:space="preserve" xmlns="http://www.w3.org/2000/svg" xmlns:xlink="http://www.w3.org/1999/xlink"><style type="text/css">
	.st0{fill:#B7C5FD;}
	.st1{fill:#9AADFD;}
	.st2{fill:#FFFFFF;}
	.st3{fill:#3955D1;}
	.st4{fill:#4466FB;}
	.st5{fill:#AABAFD;}
	.st6{fill:#798FFE;}
	.st7{fill:#6BB5FB;}
	.st8{enable-background:new    ;}
	.st9{fill:#1B2A4F;}
	.st10{fill:url(#);}
	.st11{fill:#384E85;}
	.st12{fill:#2E4277;}
	.st13{fill:#D9DDF6;}
	.st14{fill:#535D88;}
	.st15{fill:#2B3C67;}
	.st16{fill:#8FCCFF;}
	.st17{fill:#8CA1FD;}
	.st18{opacity:0.3;}
	.st19{opacity:0.3;fill:#4466FB;}
	.st20{opacity:0.2;}
</style><g><g><path class="st0" d="M40.92025,1.0683c-0.18382-0.10684-0.4383-0.09191-0.71893,0.07011L8.41569,19.48986    c-0.55993,0.32328-1.01141,1.10526-1.00958,1.74605l0.05425,26.27869c0.00089,0.31801,0.11328,0.54198,0.29469,0.64742    l1.32443,0.76966c-0.18143-0.10542-0.29379-0.32939-0.29471-0.64742L8.73051,22.00557    c-0.00181-0.64079,0.44968-1.42277,1.00961-1.74605L41.52575,1.90807c0.28063-0.16202,0.53511-0.17692,0.71893-0.07011    L40.92025,1.0683z"/><g><path class="st1" d="M41.52575,1.90808c0.55766-0.32196,1.01209-0.063,1.0139,0.57779l0.05424,26.27869     c0.00182,0.6408-0.44967,1.42278-1.00732,1.74475L9.80094,48.86075c-0.55993,0.32328-1.01436,0.06432-1.01618-0.57648     L8.73052,22.00558c-0.00182-0.6408,0.44966-1.42278,1.00959-1.74606L41.52575,1.90808z"/></g><g><g><polygon class="st2" points="41.28501,5.69294 41.32981,29.2036 10.04949,47.2633 10.00468,23.75265     "/></g></g><g><g><path class="st2" d="M37.43862,5.67588c0.2864-0.16535,0.51958-0.03247,0.52052,0.29663      C37.96007,6.3016,37.7284,6.70114,37.442,6.8665c-0.2849,0.16449-0.51808,0.03333-0.51901-0.29577      C36.92205,6.24163,37.15372,5.84037,37.43862,5.67588z"/></g><g><path class="st2" d="M40.76449,3.75607c0.2864-0.16535,0.51958-0.03247,0.52051,0.29663      c0.00093,0.3291-0.23074,0.72864-0.51714,0.89399c-0.2849,0.16449-0.51808,0.03333-0.51901-0.29577      C40.24792,4.32182,40.47959,3.92056,40.76449,3.75607z"/></g><g><path class="st2" d="M39.10155,4.71578c0.2864-0.16535,0.51958-0.03247,0.52052,0.29663      c0.00093,0.3291-0.23074,0.72864-0.51714,0.89399c-0.2864,0.16536-0.51808,0.03333-0.51901-0.29577      C38.58499,5.28154,38.81515,4.88114,39.10155,4.71578z"/></g></g></g><g><g><g><path class="st3" d="M16.17335,26.35378l3.16917-0.45514c-0.47799,1.74807-1.70967,3.50637-3.15815,4.34265L16.17335,26.35378z"/></g><g><path class="st4" d="M18.83965,22.43209c0.44771,0.39862,0.71431,1.07131,0.71686,1.96842      c0.00137,0.48449-0.07598,0.99122-0.21398,1.49813l-3.16917,0.45514L18.83965,22.43209z"/></g><g><path class="st5" d="M13.00417,26.80893l3.16918-0.45515l0.01102,3.88751c-1.86811,1.07856-3.3881,0.21235-3.39419-1.93424      C12.78882,27.82488,12.86416,27.31699,13.00417,26.80893z"/></g><g><path class="st6" d="M16.16233,22.46627l0.01102,3.88751l-3.16918,0.45515      C13.48216,25.06085,14.71383,23.30256,16.16233,22.46627z"/></g><g><path class="st7" d="M16.16233,22.46627c1.08738-0.6278,2.05739-0.59574,2.67732-0.03418l-2.6663,3.92168L16.16233,22.46627z"/></g><g><path class="st6" d="M25.25067,17.21911l0.00436,1.53692c-0.87555,0.5055-1.62019,1.56931-1.91019,2.62604l-1.25231,0.17969      C22.57051,19.81369,23.8042,18.05423,25.25067,17.21911z"/></g><g><path class="st7" d="M25.25067,17.21911c1.08939-0.62896,2.0574-0.59575,2.67934-0.03534l-1.05445,1.54917      c-0.37681-0.33739-0.96286-0.35661-1.62053,0.0231L25.25067,17.21911z"/></g><g><path class="st3" d="M27.17855,20.83117l1.25231-0.17969c-0.47799,1.74807-1.70967,3.50637-3.15815,4.34265l-0.00436-1.53692      C26.1439,22.95172,26.88855,21.88791,27.17855,20.83117z"/></g><g><path class="st4" d="M27.93001,17.18377c0.44568,0.39979,0.7123,1.07247,0.71485,1.96958      c0.00137,0.48449-0.07399,0.99007-0.214,1.49813l-1.25231,0.17969c0.084-0.30623,0.1296-0.61351,0.12877-0.9056      c-0.00154-0.54244-0.16232-0.94883-0.43176-1.19264L27.93001,17.18377z"/></g><g><path class="st5" d="M22.09252,21.56176l1.25231-0.17969c-0.084,0.30623-0.1296,0.61351-0.12877,0.9056      c0.00368,1.29816,0.92256,1.8218,2.05229,1.16955l0.00436,1.53692c-1.8681,1.07855-3.3881,0.21235-3.39419-1.93424      C21.87716,22.57772,21.95452,22.06867,22.09252,21.56176z"/></g><g><path class="st7" d="M34.46854,12.04577c0.91601-0.48706,1.77681-0.49876,2.37019-0.03099l-0.85522,1.25767      c-0.3888-0.28867-0.92426-0.28137-1.51143,0.02048L34.46854,12.04577z"/></g><g><path class="st4" d="M36.99472,12.15691c0.39923,0.40571,0.61118,1.03565,0.6134,1.8215      c0.00114,0.40336-0.05422,0.83469-0.16409,1.28124l-1.016,0.14543c0.06388-0.27836,0.09747-0.54852,0.09675-0.8012      c-0.00144-0.50767-0.13396-0.91877-0.38528-1.18929L36.99472,12.15691z"/></g><g><path class="st6" d="M34.21435,12.19253l0.00354,1.24716c-0.80479,0.51805-1.5274,1.51109-1.85384,2.54706l-1.01599,0.14773      C31.83652,14.51504,32.95365,12.97845,34.21435,12.19253z"/></g><g><path class="st5" d="M31.25805,16.46044l1.01598-0.14773c-0.06387,0.27835-0.09745,0.54852-0.09674,0.80119      c0.00377,1.32829,0.90459,1.89719,2.05472,1.30978l0.00354,1.24716c-1.72912,0.92168-3.13392,0.06095-3.13957-1.93265      C31.09484,17.33484,31.14818,16.90467,31.25805,16.46044z"/></g><g><path class="st3" d="M36.33802,15.7287l1.01802-0.14658c-0.48845,1.61944-1.6076,3.1572-2.8663,3.94196l-0.00354-1.24716      C35.29099,17.75655,36.01159,16.76468,36.33802,15.7287z"/></g></g></g><g><g class="st8"><g><polygon class="st7" points="16.68677,37.75036 16.69865,40.78558 15.65133,41.39025 15.63945,38.35503     "/></g><g><polygon class="st4" points="17.72712,35.38117 17.74597,40.18091 16.69865,40.78558 16.6798,35.98584     "/></g></g><g><polygon class="st7" points="20.38162,37.70696 20.39001,38.65437 19.34271,39.25903 19.33432,38.31162    "/></g><g><polygon class="st4" points="21.42197,36.03276 21.43733,38.0497 20.39001,38.65437 20.37465,36.63743    "/></g><g><polygon class="st4" points="25.09939,28.97595 25.12872,35.91848 24.0814,36.52315 24.05207,29.58062    "/></g><g><polygon class="st7" points="24.05904,32.04013 24.0814,36.52315 23.03408,37.12782 23.01172,32.6448    "/></g><g class="st8"><g><polygon class="st7" points="27.7574,32.53809 27.77276,34.39194 26.72544,34.99661 26.71008,33.14276     "/></g><g><polygon class="st4" points="28.79773,30.85731 28.82008,33.78727 27.77276,34.39194 27.75041,31.46198     "/></g></g><g><polygon class="st9" points="30.16275,33.01521 30.16275,33.10556 13.90005,42.49486 13.90005,41.9597 13.60813,42.13345      13.60813,42.03614 13.90005,41.86935 13.90005,41.34115 13.60813,41.5149 13.60813,41.41068 13.90005,41.24389      13.90005,40.71569 13.60813,40.88248 13.60813,40.79213 13.90005,40.62534 13.90005,40.09018 13.60813,40.25697      13.60813,40.15971 13.90005,39.98596 13.8931,39.46472 13.60117,39.63847 13.60117,39.5342 13.8931,39.36045 13.8931,38.83921      13.60117,39.01296 13.60117,38.9087 13.8931,38.74191 13.8931,38.21371 13.60117,38.37358 13.60117,38.29019 13.8931,38.11644      13.8931,37.5952 13.60117,37.75503 13.60117,37.65772 13.8931,37.48398 13.8931,36.96273 13.60117,37.12953 13.60117,37.0253      13.8931,36.86543 13.88614,36.33031 13.59426,36.50406 13.59426,36.3998 13.88614,36.23996 13.88614,35.70481 13.59426,35.8716      13.59426,35.78125 13.88614,35.61446 13.88614,35.08626 13.59426,35.25309 13.59426,35.14883 13.88614,34.97508      13.88614,34.45384 13.59426,34.62759 13.59426,34.53028 13.97649,34.30788 13.99732,42.34889    "/></g></g><g><g><polygon class="st1" points="39.28428,24.99655 39.2865,25.78168 32.56761,29.66084 32.56538,28.8757    "/></g><g><polygon class="st1" points="35.59944,28.83445 35.60165,29.61305 32.57243,31.36197 32.57022,30.58337    "/></g><g><polygon class="st1" points="37.43463,24.36052 37.43686,25.14566 32.56279,27.9597 32.56056,27.17457    "/></g><g><polygon class="st1" points="39.27463,21.59428 39.27686,22.37942 32.55796,26.25857 32.55574,25.47343    "/></g></g></g></svg>