<?xml version="1.0" ?><svg id="Layer_1" style="enable-background:new 0 0 50 50;" version="1.1" viewBox="0 0 50 50" xml:space="preserve" xmlns="http://www.w3.org/2000/svg" xmlns:xlink="http://www.w3.org/1999/xlink"><style type="text/css">
	.st0{fill:#B7C5FD;}
	.st1{fill:#9AADFD;}
	.st2{fill:#FFFFFF;}
	.st3{fill:#3955D1;}
	.st4{fill:#4466FB;}
	.st5{fill:#AABAFD;}
	.st6{fill:#798FFE;}
	.st7{fill:#6BB5FB;}
	.st8{enable-background:new    ;}
	.st9{fill:#1B2A4F;}
	.st10{fill:url(#);}
	.st11{fill:#384E85;}
	.st12{fill:#2E4277;}
	.st13{fill:#D9DDF6;}
	.st14{fill:#535D88;}
	.st15{fill:#2B3C67;}
	.st16{fill:#8FCCFF;}
	.st17{fill:#8CA1FD;}
	.st18{opacity:0.3;}
	.st19{opacity:0.3;fill:#4466FB;}
	.st20{opacity:0.2;}
</style><g><g><path class="st9" d="M37.39108,36.81255v0.56578c-0.00141,0.38881-0.25547,0.77482-0.765,1.07099    c-1.02326,0.59515-2.69081,0.59515-3.7211,0l-4.2573-2.4578c-0.51935-0.30039-0.77762-0.69201-0.77622-1.08503V34.3393    c0,0.39302,0.25827,0.78605,0.77622,1.08502l4.2587,2.45781c1.03029,0.59515,2.69643,0.59515,3.7211,0    C37.13561,37.58736,37.39108,37.19995,37.39108,36.81255z"/><g><path class="st11" d="M36.6151,35.72717c1.03061,0.59502,1.03605,1.56053,0.01213,2.15556     c-1.02391,0.59504-2.69077,0.59504-3.72139,0.00002l-4.25778-2.45823c-1.03062-0.59503-1.03515-1.56001-0.01124-2.15505     c1.02392-0.59504,2.68987-0.59556,3.72049-0.00053L36.6151,35.72717z"/></g><g><g><polygon class="st9" points="34.94671,32.52815 35.79699,32.03402 35.78759,36.31499 34.93731,36.80912     "/></g><g><polygon class="st12" points="34.94671,32.52815 34.93731,36.80912 30.61429,34.31323 30.62369,30.03226     "/></g></g><g><g><g><g><g><g><path class="st7" d="M42.952,37.18893l-0.00315,1.57542c-0.0014,0.49556-0.34965,0.69402-0.78092,0.44503l-17.14209-9.89699          c-0.43127-0.24899-0.77725-0.84827-0.77585-1.34383l0.00315-1.57543L42.952,37.18893z"/></g><g><path class="st9" d="M42.2089,24.88754c0.43127,0.24899,0.77724,0.85229,0.77585,1.34383L42.952,37.18893L24.25314,26.39313          l0.03275-10.95756c0.00139-0.49153,0.34965-0.69402,0.78092-0.44503L42.2089,24.88754z"/><g><polygon class="st2" points="42.44904,25.64242 42.42229,36.8825 24.78846,26.70149 24.82056,15.46662          "/></g></g></g></g></g></g></g></g><g><g><g class="st8"><g><path class="st7" d="M40.96437,45.16728c0,0.27763-0.19369,0.61337-0.43582,0.75542l-0.52945,0.30346L22.21097,35.88904       l0.52943-0.30347c0.24213-0.13884,0.43907-0.47781,0.43584-0.75544c0-0.13558-0.04843-0.23243-0.12591-0.27763       l17.78814,10.33712C40.91594,44.93483,40.96437,45.03167,40.96437,45.16728z"/></g><g><polygon class="st4" points="39.99975,46.47453 22.2127,36.13783 22.212,35.89046 39.99905,46.22717      "/></g><g><polygon class="st4" points="35.06477,48.07224 17.27772,37.73554 17.27702,37.48892 35.06407,47.82562      "/></g><g><path class="st7" d="M40.99021,44.62813c-0.11945-0.07101-0.2841-0.06134-0.46488,0.0452l-5.46143,3.1512L17.27574,37.48738       l5.46143-3.1512c0.18079-0.10652,0.34543-0.11622,0.46488-0.04519L40.99021,44.62813z"/></g><g><path class="st3" d="M40.52531,44.67188c0.35964-0.20764,0.65256-0.04071,0.65373,0.3718       c0.00117,0.41252-0.28985,0.91732-0.64949,1.12496l-0.5298,0.30588l-0.0007-0.24736l0.5298-0.30588       c0.24105-0.13917,0.43635-0.4767,0.43557-0.75368c-0.00079-0.27625-0.19735-0.38827-0.43841-0.2491l-5.46124,3.15374       l-0.0007-0.24662L40.52531,44.67188z"/></g></g></g><g><g><polygon class="st12" points="23.56749,35.33142 23.1095,35.59758 22.33198,35.14868 22.78997,34.88253     "/></g><g><polygon class="st12" points="24.6148,35.93609 24.15681,36.20225 23.37929,35.75335 23.83728,35.48719     "/></g><g><polygon class="st12" points="25.6621,36.54075 25.20411,36.80691 24.4266,36.35801 24.88459,36.09186     "/></g><g><polygon class="st12" points="26.70941,37.14542 26.25142,37.41158 25.46966,36.96022 25.92765,36.69407     "/></g><g><polygon class="st12" points="23.29354,35.94346 22.5042,36.40218 21.3358,35.7276 22.12514,35.26888     "/></g><g><polygon class="st12" points="24.34085,36.54812 23.5515,37.00684 22.76974,36.55549 23.55909,36.09677     "/></g><g><polygon class="st12" points="25.38816,37.15278 24.59881,37.6115 23.81705,37.16015 24.60639,36.70143     "/></g><g><polygon class="st12" points="26.43547,37.75745 25.64613,38.21617 24.86436,37.76481 25.65371,37.3061     "/></g><g><polygon class="st12" points="27.75673,37.75008 27.29873,38.01624 26.51697,37.56488 26.97496,37.29873     "/></g><g><polygon class="st12" points="27.48278,38.36211 26.69343,38.82083 25.91167,38.36948 26.70102,37.91076     "/></g><g><polygon class="st12" points="22.95379,36.90136 22.16656,37.35885 20.34173,36.30529 21.12896,35.8478     "/></g><g><polygon class="st12" points="24.0011,37.50602 23.21386,37.96352 22.4321,37.51217 23.21934,37.05468     "/></g><g><polygon class="st12" points="25.04841,38.11069 24.26117,38.56818 23.47941,38.11683 24.26664,37.65934     "/></g><g><polygon class="st12" points="26.09572,38.71535 25.30849,39.17285 24.52672,38.72149 25.31395,38.264     "/></g><g><polygon class="st12" points="22.22527,37.63237 21.43592,38.09108 19.34555,36.8842 20.13489,36.42549     "/></g><g><polygon class="st12" points="23.27257,38.23703 22.48323,38.69574 21.70571,38.24685 22.49505,37.78813     "/></g><g><polygon class="st12" points="24.2689,38.81226 23.47955,39.27097 22.69778,38.81962 23.48713,38.3609     "/></g><g><polygon class="st12" points="25.26097,39.38503 24.47163,39.84375 23.69199,39.39362 24.48133,38.93491     "/></g><g><polygon class="st12" points="28.80403,38.35474 28.34604,38.6209 27.56428,38.16955 28.02227,37.9034     "/></g><g><polygon class="st12" points="28.53009,38.96678 27.74074,39.4255 26.95897,38.97414 27.74832,38.51542     "/></g><g><polygon class="st12" points="27.14302,39.32002 26.35579,39.77751 25.57403,39.32616 26.36126,38.86867     "/></g><g><polygon class="st12" points="26.25517,39.95903 25.46583,40.41775 24.68406,39.9664 25.47341,39.50768     "/></g><g><polygon class="st12" points="29.85134,38.95941 29.39335,39.22557 28.61158,38.77421 29.06957,38.50806     "/></g><g><polygon class="st12" points="30.89865,39.56407 30.44065,39.83023 29.6589,39.37888 30.11689,39.11272     "/></g><g><polygon class="st12" points="31.94596,40.16874 31.48797,40.43489 30.7062,39.98354 31.16419,39.71738     "/></g><g><polygon class="st12" points="32.99327,40.7734 32.53528,41.03956 31.75351,40.58821 32.2115,40.32205     "/></g><g><polygon class="st12" points="34.04057,41.37807 33.58258,41.64422 32.80082,41.19287 33.25881,40.92672     "/></g><g><polygon class="st12" points="29.5774,39.57144 28.78805,40.03016 28.00629,39.57881 28.79563,39.12009     "/></g><g><polygon class="st12" points="30.6247,40.17611 29.83536,40.63482 29.0536,40.18347 29.84294,39.72475     "/></g><g><polygon class="st12" points="33.37575,41.76442 32.5864,42.22314 30.1009,40.78813 30.89025,40.32941     "/></g><g><polygon class="st12" points="28.19033,39.92468 27.4031,40.38217 26.62133,39.93082 27.40857,39.47333     "/></g><g><polygon class="st12" points="29.23764,40.52934 28.45041,40.98684 27.66865,40.53548 28.45588,40.078     "/></g><g><polygon class="st12" points="30.28495,41.13401 29.49772,41.5915 28.71595,41.14015 29.50318,40.68266     "/></g><g><polygon class="st12" points="32.37957,42.34334 31.59233,42.80083 29.76326,41.74481 30.5505,41.28732     "/></g><g><polygon class="st12" points="30.33819,42.31636 29.54885,42.77508 28.76708,42.32373 29.55643,41.86501     "/></g><g><polygon class="st12" points="36.34126,42.70636 35.88326,42.97252 35.1015,42.52117 35.55949,42.25501     "/></g><g><polygon class="st12" points="35.67643,43.09272 34.88708,43.55144 34.10532,43.10008 34.89466,42.64137     "/></g><g><polygon class="st12" points="34.68025,43.67163 33.89301,44.12913 33.11125,43.67777 33.89848,43.22028     "/></g><g><polygon class="st12" points="33.68618,44.24932 32.89684,44.70804 32.11507,44.25669 32.90441,43.79797     "/></g><g><polygon class="st12" points="37.38856,43.31103 36.93057,43.57718 36.14881,43.12583 36.6068,42.85968     "/></g><g><polygon class="st12" points="36.72373,43.69738 35.93439,44.1561 35.15263,43.70475 35.94197,43.24603     "/></g><g><polygon class="st12" points="35.72755,44.2763 34.94032,44.73379 34.15856,44.28244 34.94579,43.82495     "/></g><g><polygon class="st12" points="34.73348,44.85399 33.94414,45.31271 33.16238,44.86135 33.95173,44.40264     "/></g><g><polygon class="st12" points="33.7373,45.4329 32.94796,45.89162 31.11889,44.83561 31.90823,44.37689     "/></g><g><polygon class="st12" points="38.43162,43.91324 37.97363,44.17939 37.19611,43.7305 37.6541,43.46434     "/></g><g><polygon class="st12" points="39.47893,44.5179 39.02094,44.78406 38.24342,44.33516 38.70142,44.069     "/></g><g><polygon class="st12" points="27.24938,40.53304 26.46003,40.99175 25.67826,40.5404 26.46761,40.08168     "/></g><g><polygon class="st12" points="28.24357,41.10703 27.45422,41.56575 26.67246,41.1144 27.46181,40.65569     "/></g><g><polygon class="st12" points="19.91623,37.4533 19.12688,37.91202 18.34512,37.46067 19.13446,37.00195     "/></g><g><polygon class="st12" points="20.96354,38.05797 20.1742,38.51669 19.39243,38.06533 20.18178,37.60662     "/></g><g><polygon class="st12" points="22.01085,38.66263 21.2215,39.12135 20.43974,38.67 21.22909,38.21128     "/></g><g><polygon class="st12" points="26.2447,41.10704 25.45535,41.56576 21.48705,39.27466 22.27639,38.81594     "/></g><g><polygon class="st12" points="27.24739,41.68595 26.45804,42.14467 25.67628,41.69332 26.46563,41.2346     "/></g><g><polygon class="st12" points="28.2947,42.29062 27.50536,42.74933 26.72359,42.29798 27.51293,41.83926     "/></g><g><polygon class="st12" points="29.34201,42.89528 28.55267,43.354 27.7709,42.90265 28.56025,42.44393     "/></g><g><polygon class="st12" points="30.38932,43.49994 29.59997,43.95866 28.81821,43.50731 29.60756,43.0486     "/></g><g><polygon class="st12" points="37.7668,44.29959 36.97745,44.75831 36.19993,44.30941 36.98928,43.85069     "/></g><g><polygon class="st12" points="36.77061,44.87851 35.98338,45.336 35.20586,44.8871 35.9931,44.42961     "/></g><g><polygon class="st12" points="35.77655,45.4562 34.9872,45.91492 34.20968,45.46602 34.99903,45.0073     "/></g><g><polygon class="st12" points="34.78036,46.03512 33.99102,46.49384 33.2135,46.04493 34.00285,45.58622     "/></g><g><polygon class="st12" points="38.81411,44.90426 38.02476,45.36298 37.24725,44.91408 38.03659,44.45536     "/></g><g><polygon class="st12" points="37.81792,45.48317 37.03069,45.94067 36.25317,45.49177 37.04041,45.03428     "/></g><g><polygon class="st12" points="36.82386,46.06086 35.03833,47.0985 34.26081,46.6496 36.04634,45.61197     "/></g></g></g><g><path class="st11" d="M43.7248,25.80019c0-0.49068-0.3397-1.09459-0.76997-1.34372l-17.14368-9.89669    c-0.21893-0.12831-0.41519-0.13585-0.55863-0.06041l-0.73976,0.43786c0.14334-0.08303,0.33206-0.07544,0.55858,0.05287    l17.13609,9.89664c0.43032,0.24913,0.77756,0.85305,0.77756,1.34377L42.952,37.1889l0.73977-0.42709L43.7248,25.80019z"/><path class="st3" d="M42.952,37.1889l-0.00471,1.57282c0,0.24913-0.08303,0.42273-0.22647,0.50581l0.7473-0.43785    c0.1359-0.07549,0.21893-0.24913,0.21893-0.49822l0.00471-1.56964L42.952,37.1889z"/></g><g><path class="st4" d="M32.77983,31.97394c0.28275,0.16325,0.51377,0.55804,0.51286,0.88293    c-0.00092,0.3249-0.23344,0.4574-0.51619,0.29415c-0.28274-0.16323-0.50911-0.56068-0.50819-0.88557    C32.26923,31.94055,32.4971,31.8107,32.77983,31.97394z"/></g><g><g><g><g><g class="st8"><g><polygon class="st5" points="20.08877,30.6034 20.08608,31.77894 16.04356,34.12819 16.04625,32.95266        "/></g><g><polygon class="st0" points="16.04625,32.95266 16.04356,34.12819 11.97087,31.77682 11.97357,30.60129        "/></g><g><polygon class="st13" points="20.08877,30.6034 16.04625,32.95266 11.97357,30.60129 16.01608,28.25204        "/></g></g></g><g><polygon class="st11" points="15.75814,19.69696 15.81818,19.77106 16.17555,19.57415 14.72545,17.79885 15.69014,17.67666        15.72703,17.65607 15.7878,17.73018 16.14445,17.53327 14.68891,15.75005 15.69665,15.62243 15.73354,15.60185        15.79359,15.67595 16.15096,15.47904 14.6947,13.69583 15.70244,13.56821 15.73933,13.54762 15.8001,13.62173        16.15675,13.42481 14.70121,11.6416 15.70895,11.51398 15.74584,11.4934 15.80589,11.5675 16.16326,11.37058 14.707,9.58737        15.71473,9.45976 15.75163,9.43917 15.8124,9.51327 16.16905,9.31636 14.71351,7.53315 15.72124,7.40553 15.75814,7.38494        15.81818,7.45904 16.17555,7.26213 14.62091,5.35885 14.26426,5.55508 15.65758,7.26213 14.55219,7.4021 14.19554,7.59901        14.44946,7.56676 14.2932,7.65253 15.65179,9.31636 14.5464,9.45632 14.18903,9.65324 14.44295,9.62099 14.28741,9.70675        15.64528,11.37058 14.53989,11.51055 14.18324,11.70746 14.43716,11.67522 14.2809,11.76098 15.6395,13.42481        14.5341,13.56477 14.17672,13.76169 14.43065,13.72945 14.27511,13.81521 15.63299,15.47904 14.52759,15.619        14.17094,15.81592 14.42486,15.78367 14.2686,15.86944 15.6272,17.53327 14.55725,17.66911 14.2006,17.86534        14.28745,17.85434 14.26426,17.8671 15.65758,19.57415 14.55219,19.71412 14.19554,19.91103 14.44946,19.87878        14.2932,19.96455 15.65179,21.62838 14.5464,21.76834 14.18903,21.96526 14.44295,21.93301 14.28741,22.01878        15.64528,23.6826 14.53989,23.82257 14.18324,24.01948 14.43716,23.98724 14.2809,24.073 15.6395,25.73683 14.5341,25.87679        14.17672,26.07371 14.43065,26.04147 14.27511,26.12723 15.63299,27.79106 14.52759,27.93102 14.17094,28.12794        14.42486,28.09569 14.2686,28.18146 15.6272,29.84528 14.55725,29.98113 14.2006,30.17736 15.69014,29.98868 15.72703,29.9681        15.7878,30.0422 16.14445,29.84528 14.68891,28.06207 15.69665,27.93445 15.73354,27.91387 15.79359,27.98797        16.15096,27.79106 14.6947,26.00785 15.70244,25.88023 15.73933,25.85965 15.8001,25.93375 16.15675,25.73683        14.70121,23.95362 15.70895,23.826 15.74584,23.80542 15.80589,23.87952 16.16326,23.6826 14.707,21.89939 15.71473,21.77178        15.75163,21.75119 15.8124,21.82529 16.16905,21.62838 14.71351,19.84517 15.72124,19.71755      "/><polygon class="st11" points="17.89068,28.12786 17.63608,28.09556 17.79283,28.18144 16.43376,29.84535 17.5038,29.98113        17.86078,30.1771 16.37125,29.98847 16.3341,29.96792 16.27339,30.04205 15.91641,29.84535 17.37242,28.0618 16.3649,27.93409        16.32775,27.91354 16.26796,27.98767 15.91007,27.79097 17.36699,26.00816 16.35856,25.88045 16.32232,25.85989        16.26161,25.93402 15.90463,25.73659 17.35974,23.95378 16.35222,23.82606 16.31507,23.80551 16.25527,23.87964        15.89829,23.68294 17.3543,21.89939 16.34678,21.77168 16.30964,21.75113 16.24893,21.82526 15.89195,21.62855        17.34796,19.84501 16.34044,19.7173 16.30329,19.69675 16.24349,19.77088 15.88561,19.57417 17.33618,17.7987        16.37125,17.67686 16.3341,17.65631 16.27339,17.73044 15.91641,17.533 17.37242,15.75019 16.3649,15.62248 16.32775,15.60193        16.26796,15.67606 15.91007,15.47935 17.36699,13.69581 16.35856,13.5681 16.32232,13.54755 16.26161,13.62168        15.90463,13.42497 17.35974,11.64143 16.35222,11.51371 16.31507,11.49316 16.25527,11.5673 15.89829,11.37059        17.3543,9.58704 16.34678,9.46007 16.30964,9.43952 16.24893,9.51291 15.89195,9.31621 17.34796,7.53339 16.34044,7.40568        16.30329,7.38513 16.24349,7.45926 15.88561,7.26182 17.44038,5.35864 17.79736,5.55534 16.40386,7.26182 17.50924,7.40202        17.86531,7.59872 17.61162,7.56642 17.76836,7.6523 16.4093,9.31621 17.51467,9.4564 17.87256,9.6531 17.61796,9.62081        17.7738,9.70668 16.41564,11.37059 17.52102,11.51078 17.878,11.70748 17.6243,11.67519 17.78014,11.76106 16.42199,13.42497        17.52736,13.56443 17.88434,13.76186 17.63064,13.72957 17.78649,13.81545 16.42833,15.47935 17.5337,15.61881        17.89068,15.81625 17.63608,15.78395 17.79283,15.86909 16.43376,17.533 17.5038,17.66879 17.86078,17.86549        17.77471,17.85448 17.79736,17.86696 16.40386,19.57417 17.50924,19.71436 17.86531,19.91107 17.61162,19.87877        17.76836,19.96465 16.4093,21.62855 17.51467,21.76801 17.87256,21.96545 17.61796,21.93315 17.7738,22.01903        16.41564,23.68294 17.52102,23.82239 17.878,24.01983 17.6243,23.98754 17.78014,24.07268 16.42199,25.73659        17.52736,25.87677 17.88434,26.07348 17.63064,26.04119 17.78649,26.12706 16.42833,27.79097 17.5337,27.93115      "/><g><g><g><g class="st8"><g><polygon class="st9" points="15.81856,19.77088 14.29369,19.96465 15.81221,21.82526 14.28735,22.01903             15.80588,23.87891 14.281,24.07341 15.79953,25.93329 14.27466,26.12779 15.7941,27.98767 14.26922,28.18144             15.78775,30.04205 14.22664,30.24022 14.20036,30.17784 15.6899,29.98847 14.17046,28.12786 15.69624,27.93409             14.17681,26.07348 15.70259,25.88045 14.18315,24.01983 15.70893,23.82606 14.18949,21.96545 15.71437,21.77168             14.19584,19.91107 15.72071,19.7173 14.25745,17.92421 14.22664,17.92788 14.20036,17.86549 15.6899,17.67686             14.17046,15.81625 15.69624,15.62248 14.17681,13.76186 15.70259,13.5681 14.18315,11.70748 15.70893,11.51371             14.18949,9.6531 15.71437,9.45933 14.19584,7.59945 15.72071,7.40568 14.23752,5.58837 14.26379,5.55534             15.81856,7.45853 14.29369,7.65303 15.81221,9.51291 14.28735,9.70668 15.80588,11.5673 14.281,11.76106             15.79953,13.62168 14.27466,13.81545 15.7941,15.67532 14.26922,15.86983 15.78775,17.72971 14.30456,17.9176                       "/></g></g></g></g><g><g><g class="st8"><g><polygon class="st9" points="17.89068,28.12786 16.37125,29.98847 17.86078,30.17784 17.8345,30.24022 16.27339,30.04205             17.79283,28.18144 16.26705,27.98767 17.78649,26.12779 16.26161,25.93329 17.78014,24.07341 16.25527,23.87891             17.7738,22.01903 16.24893,21.82526 17.76746,19.96465 16.24258,19.77088 17.75659,17.9176 16.27339,17.72971             17.79283,15.86983 16.26705,15.67532 17.78649,13.81545 16.26161,13.62168 17.78014,11.76106 16.25527,11.5673             17.7738,9.70668 16.24893,9.51291 17.76746,7.65303 16.24258,7.45853 17.79736,5.55534 17.82454,5.58837             16.34044,7.40568 17.86622,7.59945 16.34678,9.45933 17.87165,9.6531 16.35312,11.51371 17.878,11.70748             16.35856,13.5681 17.88434,13.76186 16.3649,15.62248 17.89068,15.81625 16.37125,17.67686 17.86078,17.86549             17.8345,17.92788 17.80461,17.92421 16.34044,19.7173 17.86622,19.91107 16.34678,21.77168 17.87165,21.96545             16.35312,23.82606 17.878,24.01983 16.35856,25.88045 17.88434,26.07348 16.3649,27.93409           "/></g></g></g></g></g><g><g><g><g class="st8"><g><polygon class="st11" points="15.74166,17.53532 16.03065,17.39928 16.32047,17.53483 16.03148,17.67087           "/></g></g></g><g><g class="st8"><g><polygon class="st11" points="17.4565,16.72803 17.74548,16.59199 18.0353,16.72754 17.74632,16.86358           "/></g><g><polygon class="st12" points="17.74596,18.13398 17.74596,30.81633 17.45412,30.68126 17.45412,17.99887           "/></g></g></g><g><g class="st8"><g><polygon class="st11" points="14.60479,16.72803 14.31581,16.59199 14.02599,16.72754 14.31497,16.86358           "/></g></g></g></g></g><g><g><g class="st8"><g><polygon class="st9" points="16.32162,5.22258 16.32162,31.69493 16.02982,31.83564 16.02982,5.35766          "/></g><g><polygon class="st11" points="15.74166,5.2233 16.03065,5.08726 16.32047,5.22281 16.03148,5.35885          "/></g><g><polygon class="st12" points="16.02982,5.35766 16.02982,31.83564 15.73802,31.69493 15.74498,5.22258          "/></g></g></g><g><g class="st8"><g><polygon class="st9" points="18.03776,4.41774 18.03776,30.68126 17.74596,30.81633 17.74596,4.55281          "/></g><g><polygon class="st11" points="17.4565,4.41601 17.74548,4.27996 18.0353,4.41551 17.74632,4.55156          "/></g><g><polygon class="st12" points="17.74596,4.55281 17.74596,18.13398 17.45412,17.99887 17.45412,4.41774          "/></g></g></g><g><g class="st8"><g><polygon class="st9" points="14.31372,4.55281 14.31372,30.81633 14.02884,30.68126 14.02884,4.41774          "/></g><g><polygon class="st11" points="14.60479,4.41601 14.31581,4.27996 14.02599,4.41551 14.31497,4.55156          "/></g><g><polygon class="st12" points="14.60552,4.41774 14.60552,30.68126 14.31372,30.81633 14.31372,4.55281          "/></g></g></g></g></g></g></g><g><g><g class="st8"><g><polygon class="st5" points="18.50522,2.3966 18.50357,4.60512 16.0382,6.03784 16.03984,3.82931       "/></g><g><polygon class="st0" points="16.03984,3.82931 16.0382,6.03784 13.55443,4.60383 13.55607,2.39531       "/></g><g><polygon class="st13" points="18.50522,2.3966 16.03984,3.82931 13.55607,2.39531 16.02144,0.96259       "/></g></g></g></g></g><g><g><g><g class="st8"><g><path class="st11" d="M32.78014,15.55936l0.35369,0.20554c0.22115-0.06933,0.41883-0.05328,0.57364,0.03668l-0.3537-0.20554        C33.19897,15.50608,33.00128,15.49002,32.78014,15.55936z"/><polygon class="st11" points="32.60039,16.65186 32.59193,13.35448 33.12702,13.04554 32.77332,12.84 32.23824,13.14894         32.24669,16.44632       "/></g></g></g><g><path class="st13" d="M33.51886,16.86651c-0.00057-0.20348-0.07275-0.34662-0.18886-0.41408l-0.35371-0.20555      c0.11615,0.0675,0.18829,0.2106,0.18886,0.41408c0.00077,0.26886-0.13024,0.57074-0.31654,0.80972      c0.10341,0.0881,0.19745,0.19147,0.27301,0.31361C33.35519,17.53638,33.51971,17.17539,33.51886,16.86651z"/></g><g><path class="st9" d="M34.05235,16.55848c-0.00183-0.64244-0.39425-0.95795-0.9185-0.79356L33.127,13.04554l-0.53508,0.30892      l0.00846,3.29741l0.26752-0.1545c0.35725-0.20625,0.64976-0.04136,0.65094,0.36913      c0.0009,0.30888-0.16362,0.66988-0.39723,0.91777c0.09254,0.14962,0.15104,0.31161,0.17954,0.47315      C33.74123,17.80541,34.05397,17.13407,34.05235,16.55848z"/></g></g><g><g class="st8"><g><path class="st13" d="M33.61323,18.56499l-0.46693,0.27346c-0.11338,0.06673-0.2735,0.05337-0.4469-0.0467       c-0.34687-0.2001-0.62701-0.68702-0.62037-1.08726c0-0.19342,0.06673-0.32684,0.18011-0.39352l0.46693-0.2735       c-0.11338,0.06673-0.18011,0.20014-0.18011,0.39356c0,0.4002,0.28014,0.88716,0.62701,1.08726       C33.34641,18.61837,33.49981,18.63168,33.61323,18.56499z"/><path class="st13" d="M37.35524,19.73897l-0.01336,5.90984c-0.00668,0.30017-0.1067,0.51362-0.28014,0.60698l-0.46692,0.2735       c0.16676-0.09339,0.2735-0.30685,0.2735-0.60702l0.01999-5.90984c0-0.6003-0.42023-1.33405-0.94717-1.6409l-6.47016-3.73533       c-0.26015-0.14673-0.50027-0.16008-0.6737-0.06001l0.4736-0.2735c0.17343-0.10007,0.40688-0.08672,0.66702,0.06005       l6.47016,3.73533C36.93501,18.40491,37.35524,19.13863,37.35524,19.73897z"/></g><g><path class="st0" d="M35.93889,18.3738c0.52806,0.30487,0.94825,1.03768,0.94654,1.6396l-0.01675,5.90657       c-0.00172,0.60678-0.42467,0.84793-0.95273,0.54306l-6.46898-3.73487c-0.5196-0.29999-0.94414-1.03045-0.94242-1.63723       l0.01674-5.90657c0.00171-0.60192,0.42901-0.84543,0.94861-0.54544L35.93889,18.3738z M32.69998,18.79288       c0.34925,0.20164,0.62701,0.03366,0.62813-0.36268c0.00113-0.39646-0.2748-0.87438-0.62405-1.07602       c-0.34492-0.19914-0.62687-0.04331-0.62799,0.35315C32.07494,18.10367,32.35506,18.59374,32.69998,18.79288"/></g><g><g><polygon class="st11" points="31.19657,19.87567 31.19486,20.47763 30.2454,20.537 31.19139,21.70452 31.18967,22.31107         29.7567,20.54481 29.75829,19.98421       "/></g><g><polygon class="st11" points="33.44397,21.17321 34.87694,22.93946 34.87535,23.50006 33.43706,23.6086 33.43878,23.00205         34.38831,22.92891 33.44226,21.77516       "/></g><g><polygon class="st11" points="33.19393,20.36607 31.94358,23.40912 31.43973,23.11822 32.69005,20.07516       "/></g></g></g></g><path class="st11" d="M32.84861,17.47067c-0.09816,0.12588-0.2069,0.23927-0.33013,0.31043    c-0.09405,0.05427-0.18467,0.08089-0.26772,0.08496l0.01286-0.01303l-0.3537-0.20555l-0.49921,0.50581    c0.06001,0.14673,0.15202,0.25449,0.26683,0.32122l0.3537,0.20555c-0.11481-0.06673-0.20682-0.17449-0.26683-0.32122    l0.44181-0.44767l0.20405,0.1186c0.12043,0.06998,0.28645,0.05814,0.46188-0.04316    c0.08847-0.05105,0.17262-0.12079,0.24948-0.20234C33.04607,17.66214,32.95202,17.55877,32.84861,17.47067z"/><path class="st9" d="M32.87215,17.98666c-0.26756,0.15446-0.51318,0.10084-0.60852-0.13362l-0.49925,0.50581    c0.17453,0.42658,0.61931,0.52384,1.10953,0.24081c0.15116-0.08729,0.29447-0.2058,0.42727-0.34223    c-0.0285-0.16154-0.087-0.32354-0.17954-0.47315C33.04477,17.86582,32.96061,17.93556,32.87215,17.98666z"/></g><g class="st8"><g><polygon class="st9" points="33.81065,13.87525 34.94671,13.21504 34.94341,14.34589 33.80735,15.0061    "/></g><g><polygon class="st11" points="16.72216,4.00921 17.85823,3.349 34.94671,13.21504 33.81065,13.87525    "/></g><g><polygon class="st12" points="33.81065,13.87525 33.80735,15.0061 16.71886,5.14006 16.72216,4.00921    "/></g></g><g><g><path class="st4" d="M38.67532,30.61989c0.1641,0.09474,0.29675,0.32449,0.29621,0.51307l-0.00665,2.34461     c-0.00053,0.18859-0.13405,0.26466-0.29815,0.16993l-2.04044-1.17805c-0.16413-0.09476-0.29232-0.32193-0.29179-0.51052     l0.00665-2.34462c0.00053-0.18859,0.1296-0.26723,0.29372-0.17248L38.67532,30.61989z"/></g><g><path class="st11" d="M34.31498,28.10245c0.16412,0.09476,0.29677,0.3245,0.29624,0.51309l-0.00665,2.34461     c-0.00054,0.18859-0.13405,0.26467-0.29818,0.16991l-2.04041-1.17803c-0.1597-0.09221-0.29235-0.32195-0.29182-0.51054     l0.00665-2.34462c0.00053-0.18859,0.13405-0.26466,0.29375-0.17246L34.31498,28.10245z"/></g><g><path class="st1" d="M29.95467,25.58502c0.16413,0.09476,0.29677,0.3245,0.29624,0.51309l-0.00665,2.34461     c-0.00053,0.18859-0.13405,0.26466-0.29817,0.16991l-2.04044-1.17805c-0.16413-0.09476-0.29232-0.32193-0.29179-0.51052     l0.00665-2.34462c0.00053-0.18859,0.1296-0.26723,0.29372-0.17248L29.95467,25.58502z"/></g></g><g><g><g class="st8"><g><path class="st0" d="M15.82351,41.3617v1.32458c0,0.12191-0.08129,0.23569-0.23569,0.3332l-3.94933,2.29155       c-0.31693,0.1788-0.82889,0.1788-1.15391,0l-3.9656-2.29155c-0.16253-0.09751-0.24378-0.21942-0.24378-0.34134l0.00808-1.32458       c0,0.12191,0.08129,0.24382,0.23569,0.34134l3.97373,2.28347c0.31688,0.18689,0.83698,0.18689,1.14578,0.00814l3.94933-2.29974       C15.75035,41.59739,15.82351,41.48362,15.82351,41.3617z"/></g><g><path class="st13" d="M15.58196,41.02283c0.32167,0.18571,0.32336,0.48527,0.00893,0.668l-3.94842,2.29457       c-0.31443,0.18273-0.83158,0.18272-1.15325-0.00299l-3.96907-2.29154c-0.31649-0.18273-0.31819-0.48228-0.00376-0.66501       l3.94842-2.29457c0.31443-0.18273,0.83158-0.18273,1.14808,0L15.58196,41.02283z"/></g></g></g><g><g class="st8"><g><path class="st11" d="M12.52198,40.38527c0.63169,0.36471,1.02467,0.86824,1.0281,1.42352       c-0.00025,0.06588-0.09503,0.12096-0.20814,0.12096c-0.05966,0-0.11334-0.01377-0.15177-0.03595       c-0.03842-0.02218-0.06159-0.05278-0.06023-0.08644c-0.0043-0.48724-0.34984-0.92912-0.90461-1.24942       c-0.55477-0.3203-1.31876-0.519-2.15994-0.5199c-0.05966,0-0.11007-0.01188-0.14935-0.03456       C9.87739,39.98116,9.8536,39.9502,9.8534,39.91564c-0.00037-0.06552,0.09441-0.12059,0.20814-0.12096       C11.01987,39.79468,11.89029,40.02057,12.52198,40.38527z"/></g><g><path class="st11" d="M11.8292,40.78815c0.47792,0.27593,0.77481,0.65706,0.77717,1.07789       c0.00038,0.0684-0.09192,0.12204-0.21062,0.12239c-0.05687-0.00018-0.10915-0.01404-0.14726-0.03604       c-0.03811-0.022-0.06205-0.05215-0.06224-0.08491c-0.00199-0.35351-0.25239-0.67426-0.65448-0.9064       c-0.40209-0.23215-0.95586-0.37569-1.5646-0.37479c-0.05966,0-0.11319-0.01368-0.15184-0.036       c-0.03928-0.02268-0.05995-0.05184-0.06015-0.0864C9.7548,40.39478,9.84709,40.34114,9.9658,40.3415       C10.69232,40.3415,11.35127,40.51222,11.8292,40.78815z"/></g><g><path class="st11" d="M11.13463,41.19143c0.34044,0.19655,0.52649,0.45898,0.52805,0.73473       c0.00037,0.06551-0.09441,0.12059-0.21062,0.12239c-0.05811-0.0009-0.11024-0.01467-0.14828-0.03663       c-0.03803-0.02196-0.06197-0.0521-0.06372-0.08577c-0.00119-0.21203-0.16157-0.41029-0.41315-0.55555       c-0.25159-0.14525-0.59439-0.2375-0.96044-0.2375c-0.05656-0.0018-0.11009-0.01548-0.14625-0.03636       c-0.03866-0.02232-0.06307-0.05364-0.06574-0.08604c0.00273-0.06732,0.09751-0.12239,0.21062-0.1224       C10.34364,40.88976,10.79419,40.99488,11.13463,41.19143z"/></g></g><g class="st8"><g><path class="st11" d="M10.33676,41.65509c0.24504,0.14147,0.24882,0.37114,0.00289,0.51406       c-0.24345,0.14148-0.64244,0.14148-0.88748,0c-0.24753-0.14291-0.24572-0.37223-0.00227-0.5137       C9.69583,41.51254,10.08923,41.51218,10.33676,41.65509z"/></g></g></g></g><g><g><g class="st8"><g><path class="st9" d="M27.40381,44.95398v1.32458c0,0.12191-0.08129,0.23569-0.23569,0.3332l-3.94933,2.29155       c-0.31693,0.1788-0.82889,0.1788-1.15391,0l-3.9656-2.29155c-0.16253-0.09751-0.24378-0.21943-0.24378-0.34134l0.00809-1.32458       c0,0.12191,0.08129,0.24383,0.23569,0.34134l3.97373,2.28347c0.31688,0.18689,0.83698,0.18689,1.14577,0.00813l3.94933-2.29974       C27.33065,45.18967,27.40381,45.07589,27.40381,44.95398z"/></g><g><path class="st11" d="M27.16226,44.61511c0.32167,0.18571,0.32336,0.48527,0.00893,0.668l-3.94842,2.29457       c-0.31443,0.18273-0.83158,0.18273-1.15325-0.00299l-3.96907-2.29154c-0.31649-0.18273-0.31819-0.48228-0.00376-0.66501       l3.94842-2.29457c0.31443-0.18273,0.83158-0.18272,1.14808,0L27.16226,44.61511z"/></g></g></g></g></g></svg>