<?xml version="1.0" ?><svg id="Layer_1" style="enable-background:new 0 0 50 50;" version="1.1" viewBox="0 0 50 50" xml:space="preserve" xmlns="http://www.w3.org/2000/svg" xmlns:xlink="http://www.w3.org/1999/xlink"><style type="text/css">
	.st0{fill:#B7C5FD;}
	.st1{fill:#9AADFD;}
	.st2{fill:#FFFFFF;}
	.st3{fill:#3955D1;}
	.st4{fill:#4466FB;}
	.st5{fill:#AABAFD;}
	.st6{fill:#798FFE;}
	.st7{fill:#6BB5FB;}
	.st8{enable-background:new    ;}
	.st9{fill:#1B2A4F;}
	.st10{fill:url(#);}
	.st11{fill:#384E85;}
	.st12{fill:#2E4277;}
	.st13{fill:#D9DDF6;}
	.st14{fill:#535D88;}
	.st15{fill:#2B3C67;}
	.st16{fill:#8FCCFF;}
	.st17{fill:#8CA1FD;}
	.st18{opacity:0.3;}
	.st19{opacity:0.3;fill:#4466FB;}
	.st20{opacity:0.2;}
</style><g><g><g><g><g><g><g><g class="st8"><g><polygon class="st1" points="20.79154,19.4463 40.96881,7.91124 40.95106,37.14261 20.77379,48.86836          "/></g><g><polygon class="st5" points="20.79154,19.4463 20.77379,48.86836 9.03119,42.08876 9.04894,12.85739          "/></g></g></g></g></g><g><g><path class="st6" d="M31.19895,37.79519c0.17247-0.09958,0.31318-0.02156,0.31374,0.17662        c0.00056,0.19819-0.13924,0.44032-0.31171,0.5399c-0.17248,0.09958-0.31319,0.01939-0.31375-0.17879        C30.88667,38.13473,31.02647,37.89477,31.19895,37.79519z"/></g><g><path class="st6" d="M31.19594,36.73674c0.17248-0.09958,0.31318-0.02157,0.31374,0.17661        c0.00056,0.19819-0.13923,0.44033-0.31171,0.53991c-0.17248,0.09958-0.31319,0.01939-0.31375-0.1788        C30.88367,37.07628,31.02347,36.83632,31.19594,36.73674z"/></g><g><path class="st6" d="M31.19294,35.67612c0.17248-0.09958,0.31319-0.0194,0.31375,0.17879        c0.00056,0.19818-0.13923,0.44033-0.31171,0.53991c-0.17247,0.09958-0.31318,0.01939-0.31375-0.1788        C30.88066,36.01783,31.02046,35.7757,31.19294,35.67612z"/></g><g><path class="st6" d="M32.11407,35.14431c0.17247-0.09958,0.31318-0.01939,0.31375,0.17879        c0.00056,0.19819-0.13924,0.44033-0.31171,0.53991c-0.17248,0.09958-0.31319,0.01939-0.31375-0.1788        C31.80179,35.48602,31.94159,35.24389,32.11407,35.14431z"/></g><g><ellipse class="st6" cx="32.11208" cy="34.44521" rx="0.44083" ry="0.25534" transform="matrix(0.50246 -0.8646 0.8646 0.50246 -13.80431 44.90194)"/></g><g><path class="st6" d="M32.11707,36.20493c0.17247-0.09958,0.31318-0.02157,0.31374,0.17662        c0.00056,0.19818-0.13923,0.44033-0.31171,0.53991c-0.17247,0.09958-0.31318,0.01939-0.31375-0.1788        C31.80479,36.54446,31.9446,36.30451,32.11707,36.20493z"/></g><g><path class="st6" d="M32.12307,38.32182c0.17247-0.09958,0.31319-0.01939,0.31375,0.1788s-0.13924,0.43814-0.31171,0.53772        c-0.17248,0.09958-0.31318,0.02157-0.31374-0.17662C31.8108,38.66354,31.9506,38.4214,32.12307,38.32182z"/></g><g><path class="st6" d="M32.12007,37.26338c0.17248-0.09958,0.31318-0.02157,0.31374,0.17662        c0.00056,0.19818-0.13924,0.44032-0.31171,0.5399c-0.17248,0.09958-0.31319,0.0194-0.31375-0.17879        C31.80779,37.60292,31.9476,37.36296,32.12007,37.26338z"/></g><g><path class="st6" d="M33.02919,32.49559c0.17247-0.09958,0.31319-0.01939,0.31375,0.1788        c0.00056,0.19818-0.13923,0.44032-0.31171,0.5399c-0.17247,0.09958-0.31129,0.0183-0.31186-0.17988        C32.71881,32.83622,32.85672,32.59517,33.02919,32.49559z"/></g><g><path class="st6" d="M33.0322,33.55405c0.17247-0.09958,0.31319-0.0194,0.31375,0.17879        c0.00056,0.19818-0.13924,0.44032-0.31171,0.5399c-0.17247,0.09958-0.31129,0.0183-0.31186-0.17988        C32.72182,33.89466,32.85972,33.65363,33.0322,33.55405z"/></g><g><path class="st6" d="M33.0412,36.73156c0.17248-0.09958,0.31318-0.02157,0.31374,0.17662        c0.00056,0.19818-0.13924,0.44032-0.31171,0.5399s-0.31129,0.0183-0.31186-0.17988        C32.73082,37.07001,32.86873,36.83114,33.0412,36.73156z"/></g><g><path class="st6" d="M33.0382,35.67311c0.17247-0.09958,0.31318-0.02157,0.31374,0.17661        c0.00056,0.19819-0.13924,0.44033-0.31171,0.53991s-0.31129,0.0183-0.31186-0.17989        C32.72782,36.01156,32.86573,35.77269,33.0382,35.67311z"/></g><g><path class="st6" d="M33.03519,34.61249c0.17248-0.09958,0.31319-0.01939,0.31375,0.17879        c0.00056,0.19819-0.13924,0.44033-0.31171,0.53991c-0.17248,0.09958-0.31129,0.0183-0.31186-0.17989        C32.72482,34.95311,32.86272,34.71207,33.03519,34.61249z"/></g><g><path class="st6" d="M33.0442,37.79001c0.17247-0.09958,0.31319-0.01939,0.31375,0.1788        c0.00056,0.19818-0.13924,0.43814-0.31172,0.53772c-0.17247,0.09958-0.31129,0.02048-0.31185-0.1777        C32.73383,38.13063,32.87173,37.88959,33.0442,37.79001z"/></g><g><path class="st6" d="M33.04721,38.84846c0.17247-0.09958,0.31318-0.01939,0.31375,0.17879        c0.00056,0.19819-0.13924,0.43815-0.31172,0.53773c-0.17247,0.09958-0.31129,0.02047-0.31185-0.17772        C32.73682,39.18908,32.87473,38.94804,33.04721,38.84846z"/></g><g><path class="st6" d="M33.95632,34.08068c0.17248-0.09958,0.31319-0.01939,0.31375,0.17879        c0.00056,0.19819-0.13924,0.44033-0.31171,0.53991c-0.17248,0.09958-0.31129,0.01829-0.31186-0.17989        C33.64595,34.4213,33.78385,34.18026,33.95632,34.08068z"/></g><g><path class="st6" d="M33.95332,33.02223c0.17247-0.09958,0.31319-0.01939,0.31375,0.17879        c0.00056,0.19819-0.13924,0.44032-0.31171,0.5399s-0.31129,0.0183-0.31185-0.17989        C33.64295,33.36285,33.78085,33.12181,33.95332,33.02223z"/></g><g><path class="st6" d="M33.95032,31.96378c0.17247-0.09958,0.31319-0.01939,0.31375,0.1788        c0.00056,0.19818-0.13923,0.44032-0.31171,0.5399c-0.17247,0.09958-0.31129,0.0183-0.31185-0.17989        C33.63995,32.30441,33.77785,32.06336,33.95032,31.96378z"/></g><g><path class="st6" d="M33.96233,36.19975c0.17248-0.09958,0.31318-0.02157,0.31374,0.17662        c0.00056,0.19818-0.13924,0.44032-0.31171,0.5399c-0.17247,0.09958-0.31129,0.0183-0.31185-0.17989        C33.65195,36.5382,33.78986,36.29933,33.96233,36.19975z"/></g><g><path class="st6" d="M33.95933,35.1413c0.17247-0.09958,0.31318-0.02158,0.31374,0.17661        c0.00056,0.19818-0.13924,0.44033-0.31171,0.53991s-0.31129,0.0183-0.31185-0.17989        C33.64895,35.47974,33.78685,35.24088,33.95933,35.1413z"/></g><g><path class="st6" d="M33.96533,37.25819c0.17247-0.09958,0.31319-0.01939,0.31375,0.1788        c0.00056,0.19819-0.13924,0.43814-0.31172,0.53772c-0.17247,0.09958-0.31128,0.02048-0.31184-0.17771        C33.65496,37.59882,33.79286,37.35777,33.96533,37.25819z"/></g><g><path class="st6" d="M33.96833,38.31665c0.17247-0.09958,0.31318-0.01939,0.31375,0.17879        c0.00056,0.19818-0.13924,0.43815-0.31172,0.53773s-0.31128,0.02047-0.31184-0.17772        C33.65796,38.65727,33.79586,38.41623,33.96833,38.31665z"/></g><g><path class="st6" d="M34.87445,32.49042c0.17247-0.09958,0.31319-0.01939,0.31375,0.17879        c0.00056,0.19818-0.13924,0.44032-0.31171,0.5399c-0.17058,0.09848-0.31129,0.0183-0.31185-0.17989        C34.56408,32.83104,34.70387,32.5889,34.87445,32.49042z"/></g><g><path class="st6" d="M34.87145,31.43196c0.17248-0.09958,0.31319-0.01939,0.31375,0.1788        c0.00056,0.19819-0.13923,0.44032-0.31171,0.5399c-0.17058,0.09848-0.31129,0.0183-0.31185-0.17989        C34.56107,31.77259,34.70087,31.53045,34.87145,31.43196z"/></g><g><path class="st6" d="M34.87745,33.54887c0.17247-0.09958,0.31318-0.0194,0.31375,0.17879        c0.00056,0.19818-0.13924,0.44033-0.31171,0.53991c-0.17058,0.09848-0.31129,0.0183-0.31185-0.17989        C34.56707,33.88948,34.70687,33.64735,34.87745,33.54887z"/></g><g><path class="st6" d="M34.88946,37.78484c0.17247-0.09958,0.31318-0.0194,0.31375,0.17879        c0.00056,0.19818-0.13924,0.43815-0.31172,0.53773c-0.17058,0.09848-0.31128,0.02047-0.31184-0.17772        C34.57908,38.12545,34.71888,37.88332,34.88946,37.78484z"/></g><g><path class="st6" d="M34.88646,36.72638c0.17247-0.09958,0.31319-0.01939,0.31375,0.1788        c0.00056,0.19818-0.13924,0.43814-0.31172,0.53772c-0.17058,0.09848-0.31128,0.02048-0.31184-0.17771        C34.57608,37.06701,34.71588,36.82486,34.88646,36.72638z"/></g><g><path class="st6" d="M34.88346,35.66793c0.17248-0.09958,0.31318-0.02156,0.31374,0.17662        c0.00056,0.19819-0.13924,0.44032-0.31171,0.5399c-0.17058,0.09848-0.31129,0.0183-0.31185-0.17989        C34.57307,36.00638,34.71288,35.76642,34.88346,35.66793z"/></g><g><path class="st6" d="M34.88046,34.60949c0.17247-0.09958,0.31318-0.02157,0.31374,0.17661        c0.00056,0.19819-0.13924,0.44033-0.31171,0.53991c-0.17058,0.09848-0.31129,0.01829-0.31185-0.17989        C34.57008,34.94793,34.70988,34.70797,34.88046,34.60949z"/></g><g><path class="st6" d="M35.79748,31.95751c0.17247-0.09958,0.31129-0.0183,0.31185,0.17988        c0.00056,0.19819-0.13734,0.43923-0.30981,0.53881s-0.31319,0.01939-0.31375-0.17879        C35.4852,32.29922,35.625,32.05709,35.79748,31.95751z"/></g><g class="st8"><g><path class="st6" d="M35.80949,36.19347c0.17247-0.09958,0.31129-0.01829,0.31185,0.17989         c0.00056,0.19819-0.13734,0.43705-0.30982,0.53663c-0.17247,0.09958-0.31318,0.02157-0.31374-0.17661         C35.49722,36.53519,35.63701,36.29305,35.80949,36.19347z"/></g><g><path class="st6" d="M35.80648,35.13503c0.17247-0.09958,0.31128-0.02047,0.31185,0.17772         c0.00056,0.19819-0.13734,0.43923-0.30981,0.53881s-0.31319,0.01939-0.31375-0.17879         C35.49421,35.47457,35.63401,35.2346,35.80648,35.13503z"/></g></g><g><path class="st6" d="M35.80349,34.07658c0.17247-0.09958,0.31128-0.02048,0.31184,0.17771        c0.00056,0.19818-0.13734,0.43924-0.30981,0.53881c-0.17247,0.09958-0.31319,0.01939-0.31375-0.1788        C35.49121,34.41611,35.63101,34.17616,35.80349,34.07658z"/></g><g><path class="st6" d="M35.80048,33.01596c0.17248-0.09958,0.31129-0.0183,0.31186,0.17989        c0.00056,0.19818-0.13734,0.43923-0.30981,0.53881c-0.17248,0.09958-0.31319,0.01939-0.31375-0.1788        C35.4882,33.35767,35.628,33.11553,35.80048,33.01596z"/></g><g><path class="st6" d="M36.72462,33.54477c0.17247-0.09958,0.31128-0.02048,0.31184,0.17771        c0.00056,0.19819-0.13734,0.43924-0.30981,0.53881c-0.17248,0.09958-0.31319,0.01939-0.31375-0.17879        C36.41233,33.8843,36.55214,33.64434,36.72462,33.54477z"/></g><g><path class="st6" d="M36.72161,32.48414c0.17248-0.09958,0.31129-0.0183,0.31185,0.17989        c0.00056,0.19819-0.13734,0.43923-0.30981,0.53881c-0.17248,0.09958-0.31319,0.01939-0.31375-0.17879        C36.40933,32.82586,36.54913,32.58372,36.72161,32.48414z"/></g><g><path class="st6" d="M36.72762,34.60321c0.17247-0.09958,0.31128-0.02047,0.31184,0.17772        c0.00056,0.19818-0.13734,0.43922-0.30981,0.5388c-0.17248,0.09958-0.31319,0.01939-0.31375-0.17879        C36.41533,34.94276,36.55514,34.70279,36.72762,34.60321z"/></g></g><g><g><path class="st6" d="M19.98927,21.46214l-0.00995,2.97003c0,0.17999-0.13,0.25995-0.29004,0.16998l-9.57001-5.53003        c-0.15997-0.08997-0.27997-0.31-0.27997-0.48999v-2.97998c0-0.17999,0.13-0.26001,0.28998-0.16998l9.58002,5.52997        C19.85926,21.05216,19.98927,21.27213,19.98927,21.46214z"/><path class="st6" d="M19.68928,27.11216c0.15002,0.08997,0.28003,0.31,0.28003,0.48999l-0.01001,2.97998        c0,0.17999-0.13,0.26001-0.28003,0.16998l-9.57996-5.52997c-0.16003-0.09003-0.28003-0.32001-0.28003-0.5l0.01001-2.97003        c0-0.19,0.12-0.25995,0.27997-0.16998L19.68928,27.11216z"/></g><g><polygon class="st1" points="19.60232,21.52591 19.59508,24.07889 10.22158,18.6671 10.22882,16.11411       "/></g><g class="st8"><g><polygon class="st1" points="19.58489,27.67352 19.57764,30.22868 10.20414,24.81688 10.21139,22.26173        "/></g><g><path class="st6" d="M19.92085,25.20983c0.03106,0.01793,0.05738,0.06351,0.05727,0.10099l-0.00172,0.60673         c-0.00011,0.03747-0.0266,0.05257-0.05765,0.03464l-1.86512-1.07683c-0.03262-0.01883-0.05893-0.06441-0.05882-0.10188         l0.00172-0.60673c0.0001-0.03747,0.02659-0.05257,0.05921-0.03374L19.92085,25.20983z"/></g><g><path class="st6" d="M19.92085,31.35853c0.03106,0.01793,0.05738,0.06351,0.05727,0.10099l-0.00172,0.60673         c-0.00011,0.03748-0.0266,0.05257-0.05765,0.03464l-1.86512-1.07683c-0.03262-0.01883-0.05893-0.06441-0.05882-0.10188         l0.00172-0.60673c0.0001-0.03747,0.02659-0.05257,0.05921-0.03374L19.92085,31.35853z"/></g></g></g><g><path class="st6" d="M14.34465,33.41287c0.8331,0.48099,1.50779,1.64499,1.50507,2.60689       c-0.00271,0.95728-0.6818,1.33969-1.51489,0.8587c-0.8331-0.48099-1.50379-1.64269-1.50108-2.59998       C12.83647,33.31659,13.51154,32.93188,14.34465,33.41287z"/><path class="st6" d="M14.33156,38.02906c0.46862,0.27056,0.84788,0.92745,0.84635,1.46593       c-0.00153,0.53848-0.38325,0.75142-0.85187,0.48086c-0.46862-0.27056-0.84389-0.92054-0.84236-1.45902       S13.86294,37.7585,14.33156,38.02906z"/><g><g><path class="st2" d="M14.91701,34.74839c0.03519,0.02032,0.07055,0.05636,0.09763,0.10326         c0.3676,0.63671,0.36565,1.32726-0.00437,1.54001c-0.18665,0.10448-0.42898,0.07069-0.67101-0.06905         c-0.24367-0.14069-0.4854-0.38637-0.6692-0.70472c-0.36924-0.63956-0.36729-1.33011,0.00437-1.54001         c0.02643-0.01601,0.06146-0.01141,0.09645,0.00879c0.03499,0.0202,0.06993,0.05601,0.09619,0.10243         c0.05416,0.09191,0.05388,0.19218-0.00063,0.22325c-0.26264,0.14967-0.26403,0.63967-0.0031,1.09352         c0.13129,0.22645,0.30354,0.40123,0.47601,0.5008c0.17247,0.09958,0.34515,0.12394,0.47729,0.04959         c0.26264-0.15156,0.26403-0.64156,0.0031-1.09352c-0.05416-0.0938-0.05387-0.19408,0.00063-0.22325         C14.84678,34.72348,14.88181,34.72807,14.91701,34.74839z"/></g><g><path class="st2" d="M14.34606,33.85825c0.07574,0.04373,0.13646,0.1489,0.13621,0.23593l-0.00423,1.25191         c-0.00025,0.08703-0.06137,0.12185-0.1371,0.07813c-0.07573-0.04373-0.1381-0.14985-0.13786-0.23687l0.00423-1.2519         C14.20756,33.8484,14.27032,33.81452,14.34606,33.85825z"/></g></g></g><g><polygon class="st1" points="10.21786,39.23776 10.21126,42.77007 19.29585,48.01507 19.30246,44.48277      "/></g></g><g><g><path class="st17" d="M40.14274,19.63698l-2.52697,2.47782l0.01719,6.064l2.53273-0.44586l-2.80716,1.62071       c-0.13225,0.07636-0.23712,0.01415-0.23755-0.13537l-0.02141-7.55181c-0.00043-0.14951,0.10375-0.33242,0.236-0.40877       L40.14274,19.63698z"/></g><g><polygon class="st5" points="40.14274,19.63698 40.1657,27.73293 37.63297,28.1788 37.61578,22.1148      "/></g></g></g></g><g><polygon class="st0" points="9.04894,12.85739 29.22621,1.13164 40.96881,7.91124 20.79154,19.63698   "/></g></g></svg>