<?xml version="1.0" ?><svg id="Layer_1" style="enable-background:new 0 0 50 50;" version="1.1" viewBox="0 0 50 50" xml:space="preserve" xmlns="http://www.w3.org/2000/svg" xmlns:xlink="http://www.w3.org/1999/xlink"><style type="text/css">
	.st0{fill:none;}
	.st1{fill:#B7C5FD;}
	.st2{fill:#9AADFD;}
	.st3{fill:#FFFFFF;}
	.st4{fill:#3955D1;}
	.st5{fill:#4466FB;}
	.st6{fill:#AABAFD;}
	.st7{fill:#798FFE;}
	.st8{fill:#6BB5FB;}
	.st9{enable-background:new    ;}
	.st10{fill:#1B2A4F;}
	.st11{fill:url(#SVGID_1_);}
	.st12{fill:url(#SVGID_2_);}
	.st13{fill:url(#);}
	.st14{fill:url(#SVGID_3_);}
	.st15{fill:url(#SVGID_4_);}
	.st16{fill:url(#SVGID_5_);}
	.st17{fill:url(#SVGID_6_);}
	.st18{fill:url(#SVGID_7_);}
	.st19{fill:#384E85;}
	.st20{fill:#2E4277;}
	.st21{fill:#D9DDF6;}
	.st22{fill:url(#SVGID_8_);}
	.st23{fill:url(#SVGID_9_);}
	.st24{fill:url(#SVGID_10_);}
	.st25{fill:url(#SVGID_11_);}
	.st26{fill:url(#SVGID_12_);}
	.st27{fill:url(#SVGID_13_);}
	.st28{fill:url(#SVGID_14_);}
	.st29{fill:url(#SVGID_15_);}
	.st30{fill:url(#SVGID_16_);}
	.st31{fill:url(#SVGID_17_);}
	.st32{fill:url(#SVGID_18_);}
	.st33{fill:url(#SVGID_19_);}
	.st34{fill:url(#SVGID_20_);}
	.st35{fill:url(#SVGID_21_);}
	.st36{fill:url(#SVGID_22_);}
	.st37{fill:url(#SVGID_23_);}
	.st38{fill:url(#SVGID_24_);}
	.st39{fill:url(#SVGID_25_);}
	.st40{fill:#535D88;}
	.st41{fill:url(#SVGID_26_);}
	.st42{fill:url(#SVGID_27_);}
	.st43{fill:url(#SVGID_28_);}
	.st44{fill:url(#SVGID_29_);}
	.st45{fill:url(#SVGID_30_);}
	.st46{fill:url(#SVGID_31_);}
	.st47{fill:url(#SVGID_32_);}
	.st48{fill:url(#SVGID_33_);}
	.st49{fill:url(#SVGID_34_);}
	.st50{fill:url(#SVGID_35_);}
	.st51{fill:url(#SVGID_36_);}
	.st52{fill:url(#SVGID_37_);}
	.st53{fill:url(#SVGID_38_);}
	.st54{fill:url(#SVGID_39_);}
	.st55{fill:url(#SVGID_40_);}
	.st56{fill:url(#SVGID_41_);}
	.st57{fill:#2B3C67;}
	.st58{fill:#8FCCFF;}
	.st59{fill:#8CA1FD;}
	.st60{opacity:0.3;}
	.st61{fill:url(#SVGID_42_);}
	.st62{fill:url(#SVGID_43_);}
	.st63{fill:url(#SVGID_44_);}
	.st64{fill:url(#SVGID_45_);}
	.st65{fill:url(#SVGID_46_);}
	.st66{fill:url(#SVGID_47_);}
	.st67{fill:url(#SVGID_48_);}
	.st68{fill:url(#SVGID_49_);}
	.st69{fill:url(#SVGID_50_);}
	.st70{opacity:0.3;fill:#4466FB;}
	.st71{fill:url(#SVGID_51_);}
	.st72{fill:url(#SVGID_52_);}
	.st73{fill:url(#SVGID_53_);}
	.st74{fill:url(#SVGID_54_);}
	.st75{fill:url(#SVGID_55_);}
	.st76{fill:url(#SVGID_56_);}
	.st77{fill:url(#SVGID_57_);}
	.st78{fill:url(#SVGID_58_);}
	.st79{fill:url(#SVGID_59_);}
	.st80{fill:url(#SVGID_60_);}
	.st81{fill:url(#SVGID_61_);}
	.st82{fill:url(#SVGID_62_);}
	.st83{fill:url(#SVGID_63_);}
	.st84{fill:url(#SVGID_64_);}
	.st85{fill:url(#SVGID_65_);}
	.st86{fill:url(#SVGID_66_);}
	.st87{fill:url(#SVGID_67_);}
	.st88{fill:url(#SVGID_68_);}
	.st89{fill:url(#SVGID_69_);}
	.st90{fill:url(#SVGID_70_);}
	.st91{fill:url(#SVGID_71_);}
	.st92{fill:url(#SVGID_72_);}
	.st93{fill:url(#SVGID_73_);}
	.st94{fill:url(#SVGID_74_);}
	.st95{fill:url(#SVGID_75_);}
	.st96{fill:url(#SVGID_76_);}
	.st97{fill:url(#SVGID_77_);}
	.st98{fill:url(#SVGID_78_);}
	.st99{opacity:0.2;}
	.st100{fill:url(#SVGID_79_);}
	.st101{fill:url(#SVGID_80_);}
	.st102{fill:url(#SVGID_81_);}
	.st103{fill:url(#SVGID_82_);}
	.st104{fill:url(#SVGID_83_);}
	.st105{fill:url(#SVGID_84_);}
	.st106{fill:url(#SVGID_85_);}
	.st107{fill:url(#SVGID_86_);}
	.st108{fill:url(#SVGID_87_);}
	.st109{fill:url(#SVGID_88_);}
	.st110{fill:url(#SVGID_89_);}
	.st111{fill:url(#SVGID_90_);}
</style><pattern height="32.25219" id="Unnamed_Pattern_12" patternUnits="userSpaceOnUse" style="overflow:visible;" viewBox="0 -32.25219 32.25219 32.25219" width="32.25219" x="-280" y="-350"><g><rect class="st0" height="32.25219" width="32.25219" y="-32.25219"/><g><rect class="st1" height="32.25219" width="32.25219" x="0" y="-32.25219"/></g></g></pattern><g><g><g><polygon class="st1" points="11.08352,32.20311 12.70621,31.2601 38.92119,46.39533 37.2985,47.33833    "/></g><g><polygon class="st59" points="37.2985,47.33833 37.29379,49 11.07881,33.86477 11.08352,32.20311    "/></g><g><g><polygon class="st10" points="26.67282,41.26093 28.8959,39.96902 28.88944,42.2455 26.66637,43.53741     "/></g><g><polygon class="st19" points="20.43504,37.65955 22.65812,36.36764 28.8959,39.96902 26.67282,41.26093     "/></g><g><polygon class="st20" points="26.67282,41.26093 26.66637,43.53741 20.42859,39.93603 20.43504,37.65955     "/></g></g><g><g><polygon class="st7" points="37.2985,47.33833 38.92119,46.39533 38.91648,48.057 37.29379,49     "/></g><g><polygon class="st1" points="26.96046,41.36966 28.58315,40.42666 38.92119,46.39533 37.2985,47.33833     "/></g><g><polygon class="st59" points="37.2985,47.33833 37.29379,49 26.95575,43.03133 26.96046,41.36966     "/></g></g><g><g><polygon class="st1" points="23.18559,23.97754 23.24044,38.98574 25.02943,40.00312 24.97087,23.97754     "/></g><g><polygon class="st59" points="24.97087,23.97754 25.02943,40.00312 26.80563,38.97568 26.75084,23.97754     "/></g></g></g><g><g><g><path class="st20" d="M38.79904,25.87545L38.7875,31.2183c-0.0011,0.46147-0.30436,0.92185-0.90976,1.27345l-3.65482,2.16333      c-1.21906,0.70815-3.20175,0.70869-4.4285,0l-15.74066-9.08773c-0.6175-0.35654-0.92569-0.82406-0.9246-1.29158l0.01154-5.34009      c0,0.46587,16.66471,10.37657,16.66471,10.37657c1.2273,0.70814,3.20999,0.70814,4.42906-0.00055      C34.23446,29.31168,38.79794,26.33638,38.79904,25.87545z"/><path class="st19" d="M28.59615,29.89869l-13.38703-7.72934c-0.293-0.16917-0.65926,0.04228-0.65926,0.38061v1.76793      c0,0.31404,0.16754,0.60422,0.43951,0.76124L28.37638,32.808c0.293,0.16916,0.65925-0.04229,0.65925-0.38062v-1.76747      C29.03563,30.34588,28.8681,30.05571,28.59615,29.89869z"/><path class="st10" d="M37.87474,24.58381c1.22695,0.70838,1.23341,1.85662,0.01443,2.565l-3.65492,2.16309      c-1.21897,0.70839-3.20165,0.7086-4.42859,0.00022l-15.74074-9.08792c-1.22695-0.70838-1.23306-1.85682-0.01409-2.56521      l3.65492-2.16309c1.21897-0.70839,3.2013-0.7084,4.42825-0.00002L37.87474,24.58381z"/><pattern id="SVGID_1_" patternTransform="matrix(0.05494 0 0 0.05494 -7304.65918 -7141.04248)" xlink:href="#Unnamed_Pattern_12"/><path class="st11" d="M15.94744,23.66476c0.26833,0.15492,0.48474,0.52976,0.48386,0.83809      c-0.00087,0.30833-0.2187,0.43287-0.48703,0.27795s-0.48509-0.53036-0.48422-0.8387      C15.46093,23.63376,15.67911,23.50984,15.94744,23.66476z"/><pattern id="SVGID_2_" patternTransform="matrix(0.05494 0 0 0.05494 -7304.65918 -7141.04248)" xlink:href="#Unnamed_Pattern_12"/><path class="st12" d="M17.51181,24.56795c0.26798,0.15472,0.48474,0.52976,0.48387,0.83809      c-0.00087,0.30833-0.21905,0.43266-0.48703,0.27794c-0.26832-0.15492-0.48509-0.53036-0.48421-0.83869      C17.0253,24.53696,17.24348,24.41303,17.51181,24.56795z"/><pattern id="SVGID_3_" patternTransform="matrix(0.05494 0 0 0.05494 -7304.65918 -7141.04248)" xlink:href="#Unnamed_Pattern_12"/><path class="st14" d="M19.07618,25.47114c0.26798,0.15472,0.48474,0.52976,0.48387,0.83809      c-0.00088,0.30833-0.21905,0.43266-0.48703,0.27794c-0.26833-0.15492-0.48509-0.53036-0.48421-0.83869      C18.58968,25.44015,18.80785,25.31622,19.07618,25.47114z"/><polygon class="st8" points="27.62042,30.29886 23.99234,28.20408 23.99234,29.57813 27.62042,31.67281     "/></g><g><path class="st20" d="M38.79904,18.89315l-0.01154,5.34284c-0.0011,0.46147-0.30436,0.92185-0.90976,1.27345l-3.65482,2.16333      c-1.21906,0.70815-3.20175,0.70869-4.4285,0l-15.74066-9.08773c-0.6175-0.35654-0.92569-0.82406-0.9246-1.29158l0.01154-5.34009      c0,0.46587,16.66471,10.37656,16.66471,10.37656c1.2273,0.70815,3.20999,0.70815,4.42906-0.00055      C34.23446,22.32938,38.79794,19.35407,38.79904,18.89315z"/><path class="st19" d="M28.59615,22.91638l-13.38703-7.72934c-0.293-0.16917-0.65926,0.04228-0.65926,0.38061v1.76793      c0,0.31404,0.16754,0.60422,0.43951,0.76124l13.38702,7.72888c0.293,0.16916,0.65925-0.04229,0.65925-0.38062v-1.76747      C29.03563,23.36358,28.8681,23.0734,28.59615,22.91638z"/><path class="st10" d="M37.87474,17.6015c1.22695,0.70838,1.23341,1.85662,0.01443,2.565l-3.65492,2.16309      c-1.21897,0.70839-3.20165,0.7086-4.42859,0.00022L14.06493,13.2419c-1.22695-0.70838-1.23306-1.85682-0.01409-2.56521      l3.65492-2.16309c1.21897-0.70839,3.2013-0.7084,4.42825-0.00002L37.87474,17.6015z"/><pattern id="SVGID_4_" patternTransform="matrix(0.05494 0 0 0.05494 -7304.65918 -7148.0249)" xlink:href="#Unnamed_Pattern_12"/><path class="st15" d="M15.94744,16.68245c0.26833,0.15492,0.48474,0.52976,0.48386,0.83809      c-0.00087,0.30833-0.2187,0.43287-0.48703,0.27795c-0.26833-0.15492-0.48509-0.53037-0.48422-0.8387      C15.46093,16.65146,15.67911,16.52753,15.94744,16.68245z"/><pattern id="SVGID_5_" patternTransform="matrix(0.05494 0 0 0.05494 -7304.65918 -7148.0249)" xlink:href="#Unnamed_Pattern_12"/><path class="st16" d="M17.51181,17.58564c0.26798,0.15472,0.48474,0.52976,0.48387,0.83809      c-0.00087,0.30833-0.21905,0.43266-0.48703,0.27794c-0.26832-0.15492-0.48509-0.53036-0.48421-0.83869      S17.24348,17.43072,17.51181,17.58564z"/><pattern id="SVGID_6_" patternTransform="matrix(0.05494 0 0 0.05494 -7304.65918 -7148.0249)" xlink:href="#Unnamed_Pattern_12"/><path class="st17" d="M19.07618,18.48883c0.26798,0.15472,0.48474,0.52976,0.48387,0.83809      c-0.00088,0.30833-0.21905,0.43266-0.48703,0.27794c-0.26833-0.15492-0.48509-0.53036-0.48421-0.83869      S18.80785,18.33391,19.07618,18.48883z"/><polygon class="st8" points="27.62042,23.31656 23.99234,21.22177 23.99234,22.59583 27.62042,24.69051     "/></g><g><path class="st20" d="M38.79904,11.91084l-0.01154,5.34284c-0.0011,0.46147-0.30436,0.92185-0.90976,1.27345l-3.65482,2.16333      c-1.21906,0.70814-3.20175,0.70869-4.4285,0l-15.74066-9.08773c-0.6175-0.35654-0.92569-0.82406-0.9246-1.29158l0.01154-5.34009      c0,0.46587,16.66471,10.37656,16.66471,10.37656c1.2273,0.70814,3.20999,0.70814,4.42906-0.00055      C34.23446,15.34707,38.79794,12.37177,38.79904,11.91084z"/><path class="st19" d="M28.59615,15.93407L15.20912,8.20473c-0.293-0.16917-0.65926,0.04228-0.65926,0.38061v1.76793      c0,0.31404,0.16754,0.60422,0.43951,0.76124l13.38702,7.72888c0.293,0.16916,0.65925-0.04229,0.65925-0.38062V16.6953      C29.03563,16.38127,28.8681,16.09109,28.59615,15.93407z"/><path class="st19" d="M37.87474,10.61919c1.22695,0.70838,1.23341,1.85662,0.01443,2.56501l-3.65492,2.16309      c-1.21897,0.70839-3.20165,0.7086-4.42859,0.00022L14.06493,6.25959c-1.22695-0.70838-1.23306-1.85682-0.01409-2.56521      l3.65492-2.16309c1.21897-0.70839,3.2013-0.7084,4.42825-0.00002L37.87474,10.61919z"/><pattern id="SVGID_7_" patternTransform="matrix(0.05494 0 0 0.05494 -7304.65918 -7155.00732)" xlink:href="#Unnamed_Pattern_12"/><path class="st18" d="M15.94744,9.70014c0.26833,0.15492,0.48474,0.52976,0.48386,0.83809      c-0.00087,0.30833-0.2187,0.43287-0.48703,0.27795c-0.26833-0.15492-0.48509-0.53036-0.48422-0.8387      C15.46093,9.66915,15.67911,9.54523,15.94744,9.70014z"/><pattern id="SVGID_8_" patternTransform="matrix(0.05494 0 0 0.05494 -7304.65918 -7155.00732)" xlink:href="#Unnamed_Pattern_12"/><path class="st22" d="M17.51181,10.60333c0.26798,0.15472,0.48474,0.52976,0.48387,0.83809      c-0.00087,0.30833-0.21905,0.43266-0.48703,0.27794c-0.26832-0.15492-0.48509-0.53036-0.48421-0.83869      C17.0253,10.57234,17.24348,10.44842,17.51181,10.60333z"/><pattern id="SVGID_9_" patternTransform="matrix(0.05494 0 0 0.05494 -7304.65918 -7155.00732)" xlink:href="#Unnamed_Pattern_12"/><path class="st23" d="M19.07618,11.50653c0.26798,0.15472,0.48474,0.52976,0.48387,0.83809      c-0.00088,0.30833-0.21905,0.43266-0.48703,0.27794c-0.26833-0.15492-0.48509-0.53036-0.48421-0.83869      C18.58968,11.47554,18.80785,11.35161,19.07618,11.50653z"/><polygon class="st8" points="27.62042,16.33425 23.99234,14.23947 23.99234,15.61352 27.62042,17.7082     "/></g></g></g></g></svg>