<?xml version="1.0" ?><svg id="Layer_1" style="enable-background:new 0 0 50 50;" version="1.1" viewBox="0 0 50 50" xml:space="preserve" xmlns="http://www.w3.org/2000/svg" xmlns:xlink="http://www.w3.org/1999/xlink"><style type="text/css">
	.st0{fill:#B7C5FD;}
	.st1{fill:#9AADFD;}
	.st2{fill:#FFFFFF;}
	.st3{fill:#3955D1;}
	.st4{fill:#4466FB;}
	.st5{fill:#AABAFD;}
	.st6{fill:#798FFE;}
	.st7{fill:#6BB5FB;}
	.st8{enable-background:new    ;}
	.st9{fill:#1B2A4F;}
	.st10{fill:url(#);}
	.st11{fill:#384E85;}
	.st12{fill:#2E4277;}
	.st13{fill:#D9DDF6;}
	.st14{fill:#535D88;}
	.st15{fill:#2B3C67;}
	.st16{fill:#8FCCFF;}
	.st17{fill:#8CA1FD;}
	.st18{opacity:0.3;}
	.st19{opacity:0.3;fill:#4466FB;}
	.st20{opacity:0.2;}
</style><g><g><g><g><polygon class="st0" points="42.899,1.64971 42.97616,28.86583 8.16348,48.96584 8.08632,21.74972     "/></g><g><polygon class="st1" points="42.89206,1.65362 41.8368,1.03416 7.02384,21.12719 7.10477,48.34324 8.16347,48.96467       8.08631,21.74959     "/></g><g><g class="st8"><g><polygon class="st5" points="25.48422,22.32867 42.97616,28.86583 8.16348,48.96584       "/></g><g><polygon class="st17" points="25.47762,20.00017 42.97616,28.86583 25.48422,22.32867 8.16348,48.96584 42.93758,28.86583         8.16348,48.96584       "/></g></g></g><g><g><polygon class="st0" points="42.899,1.64971 25.57827,28.28692 8.08632,21.74972      "/></g><g><polygon class="st5" points="42.899,1.64971 25.58421,30.38255 8.08632,21.74972 25.57827,28.28692      "/></g></g></g><g><g><path class="st7" d="M31.71483,2.17866c-1.31689-0.77021-3.15544-0.67073-5.16792,0.49694      c-4.0001,2.33549-7.23014,7.90087-7.20527,12.52211c0,2.2859,0.79508,3.90077,2.11196,4.64626l-1.12907-0.65661      c-1.31674-0.74549-2.11181-2.36036-2.11181-4.64611c-0.02487-4.62139,3.20502-10.18677,7.20512-12.52226      c2.03736-1.1428,3.85118-1.26715,5.16792-0.49694L31.71483,2.17866z"/></g><g><g><ellipse class="st4" cx="26.58115" cy="11.01277" rx="10.21899" ry="5.91912" transform="matrix(0.50245 -0.86461 0.86461 0.50245 3.70372 28.4616)"/></g><g><g><path class="st2" d="M27.1367,6.97641c1.85592-1.07152,3.09955-0.18279,3.10515,1.79229        c0.00499,1.76162-0.8672,3.17026-1.69145,3.64614c-0.55191,0.31864-0.86699,0.05839-0.89718-0.39955l-0.00022-0.07668        c-0.3429,0.76261-0.93146,1.53213-1.55912,1.89451c-0.91443,0.52795-1.50633,0.12236-1.50943-0.97191        c-0.00445-1.57095,1.14267-3.49953,2.30059-4.16806c0.63848-0.36863,1.07247-0.22269,1.26142,0.15397l0.12607-0.77444        l0.66734-0.38529l-0.55044,3.38387c-0.01064,0.07257-0.02117,0.18037-0.02098,0.24876        c0.00106,0.37305,0.20908,0.46676,0.46519,0.3189c0.38237-0.22076,1.06814-1.11283,1.06372-2.67134        c-0.00525-1.85281-1.11828-2.55537-2.79023-1.59007c-1.90462,1.09963-3.52058,3.96733-3.5146,6.0792        c0.00512,1.80513,1.18861,2.5127,2.81908,1.57135c0.698-0.40299,1.2961-0.99534,1.82527-1.68697l0.17759,0.19224        c-0.60834,0.80377-1.31462,1.47103-2.04148,1.89068c-1.78738,1.03195-3.11743,0.24916-3.12309-1.74872        C23.24298,11.23806,25.0932,8.15622,27.1367,6.97641z M27.74852,11.22541l0.28052-1.7334        c-0.10741-0.28882-0.4334-0.57598-1.01417-0.24068c-0.98117,0.56648-1.72484,2.06076-1.72174,3.15504        c0.00205,0.7233,0.36608,1.04455,1.00456,0.67593C26.96503,12.69701,27.4649,11.86453,27.74852,11.22541"/></g></g></g></g></g></g></svg>