<?xml version="1.0" ?><svg id="Layer_1" style="enable-background:new 0 0 50 50;" version="1.1" viewBox="0 0 50 50" xml:space="preserve" xmlns="http://www.w3.org/2000/svg" xmlns:xlink="http://www.w3.org/1999/xlink"><style type="text/css">
	.st0{fill:#B7C5FD;}
	.st1{fill:#9AADFD;}
	.st2{fill:#FFFFFF;}
	.st3{fill:#3955D1;}
	.st4{fill:#4466FB;}
	.st5{fill:#AABAFD;}
	.st6{fill:#798FFE;}
	.st7{fill:#6BB5FB;}
	.st8{enable-background:new    ;}
	.st9{fill:#1B2A4F;}
	.st10{fill:url(#);}
	.st11{fill:#384E85;}
	.st12{fill:#2E4277;}
	.st13{fill:#D9DDF6;}
	.st14{fill:#535D88;}
	.st15{fill:#2B3C67;}
	.st16{fill:#8FCCFF;}
	.st17{fill:#8CA1FD;}
	.st18{opacity:0.3;}
	.st19{opacity:0.3;fill:#4466FB;}
	.st20{opacity:0.2;}
</style><g><g><g><path class="st0" d="M41.4398,28.69398c-0.62628-2.02285-0.35862-4.87265-1.64568-9.46048     c-0.85253-3.03888-3.83714-3.51923-3.83714-3.51923c2.5117,1.90525,0.40184,3.55971,0.40184,3.55971     c-1.70803,0.65112-1.77503-0.13418-2.07642-6.57061c-0.30145-6.43632-4.28109-4.83351-4.28109-4.83351     c1.95172,1.35906,0.36938,3.91845,0.36938,3.91845c-1.59246,2.15511-1.36086,3.49655-1.36086,3.49655     c-3.96667-3.15113-1.21604-6.61569-1.21604-6.61569c-3.93776,0.7536-2.60587,6.5495-2.60587,6.5495     c-3.35865-1.72449-2.25841-4.15796-2.89545-7.98446c-0.63693-3.82644-2.82473-3.08878-2.82473-3.08878     c1.62992,2.18071-0.88527,3.00828-0.88527,3.00828c-0.30186-0.88056-0.7244-1.7916-1.81091-2.86998     C15.68498,3.20537,15.84597,1,15.84597,1c-0.76465,0.92686-1.46893,3.17631-0.74458,4.20362     c0.7244,1.02736,0.88539,2.94506,0.88539,2.94506c0,3.37895-2.63593,2.32582-2.63593,2.32582     c-2.51519-2.33024-1.14683-5.39779-1.14683-5.39779c-2.92802,1.38668-1.94271,6.10259-1.94271,6.10259     c-2.03431,1.76543-1.61514,3.27839-1.38593,3.78451l30.07534,17.36404C41.6857,32.38676,41.4398,28.69398,41.4398,28.69398z"/><g><g><polygon class="st13" points="38.24615,30.54991 38.19385,49 8.55449,31.88771 8.6068,13.43762      "/><g class="st8"><g><polygon class="st4" points="10.86137,30.7833 10.85447,33.2156 8.55449,31.88771 8.56139,29.4554        "/></g><g><polygon class="st4" points="10.87954,24.37286 10.87265,26.80516 8.57267,25.47727 8.57956,23.04497        "/></g><g><polygon class="st4" points="13.9178,29.34024 13.91092,31.767 8.56359,28.67972 8.57047,26.25296        "/></g><g><polygon class="st4" points="16.96089,34.30486 16.954,36.73717 11.52469,33.60255 11.53159,31.17025        "/></g><g><polygon class="st4" points="10.8977,17.96796 10.8908,20.40027 8.59082,19.07237 8.59772,16.64007        "/></g><g><polygon class="st4" points="13.93598,22.9298 13.92908,25.36211 8.58175,22.27482 8.58864,19.84252        "/></g><g><polygon class="st4" points="11.54286,27.19211 11.54976,24.75979 16.97905,27.8944 16.97215,30.32671        "/></g><g><polygon class="st4" points="20.01732,32.8618 20.01044,35.28856 14.58597,32.15674 14.59284,29.72998        "/></g><g><polygon class="st4" points="23.06042,37.82643 23.05353,40.25873 17.62423,37.12412 17.63112,34.69182        "/></g><polygon class="st13" points="11.80041,11.5817 41.43977,28.69399 38.24615,30.54991 8.6068,13.43762       "/><g><polygon class="st7" points="8.6068,13.43762 11.80041,11.5817 17.14775,14.66898 13.95413,16.52491        "/></g><g><polygon class="st4" points="13.95413,16.52491 13.94725,18.95167 8.59992,15.86438 8.6068,13.43762        "/></g><g><polygon class="st4" points="16.99722,21.48953 16.99033,23.92183 11.56102,20.78722 11.56792,18.35492        "/></g><g><polygon class="st4" points="14.60411,25.75184 14.61101,23.31952 20.03548,26.45134 20.02859,28.88366        "/></g><g><polygon class="st4" points="23.09676,25.01109 23.08986,27.4434 17.66056,24.30879 17.66745,21.87648        "/></g><g><polygon class="st4" points="26.13985,29.97571 26.13295,32.40802 20.70365,29.27341 20.71054,26.8411        "/></g><g><polygon class="st4" points="32.21432,42.33447 26.78501,39.19985 26.79189,36.77309 32.2212,39.9077        "/></g><g><polygon class="st4" points="29.19627,28.53265 29.18938,30.96496 23.76009,27.83035 23.76698,25.39805        "/></g><g><polygon class="st4" points="26.80317,32.79497 26.81007,30.36265 32.23938,33.49726 32.23248,35.92958        "/></g><g><polygon class="st4" points="35.27765,38.45911 35.27075,40.89142 29.84627,37.75959 29.85317,35.32729        "/></g><g><polygon class="st4" points="35.29581,32.05422 35.28891,34.48652 29.86443,31.3547 29.87132,28.92239        "/></g><g><polygon class="st4" points="17.64928,28.28135 23.07859,31.41597 23.07169,33.84828 17.64239,30.71367        "/></g><g><polygon class="st4" points="26.11478,38.81289 20.68547,35.67828 20.69235,33.25152 26.12166,36.38613        "/></g><g><polygon class="st4" points="29.15994,41.34798 29.15305,43.78029 23.72376,40.64569 23.73065,38.21339        "/></g><g><polygon class="st4" points="20.05365,20.04646 20.04677,22.47323 14.6223,19.34141 14.62918,16.91464        "/></g><g><polygon class="st7" points="14.62918,16.91464 17.82279,15.05872 23.24726,18.19054 20.05365,20.04646        "/></g><g><polygon class="st4" points="29.17812,34.93755 29.17122,37.36985 23.74193,34.23525 23.74883,31.80295        "/></g><g><polygon class="st4" points="35.25948,44.86955 35.25258,47.30186 29.8281,44.17003 29.83499,41.73773        "/></g><g><polygon class="st4" points="38.20074,46.5677 38.19385,49 35.92763,47.6916 35.93452,45.2593        "/></g><g><polygon class="st4" points="26.158,23.57082 26.15112,25.99758 20.72182,22.86297 20.7287,20.43621        "/></g><g><polygon class="st7" points="20.7287,20.43621 23.92232,18.58028 29.35162,21.71489 26.158,23.57082        "/></g><g><polygon class="st4" points="38.20982,43.36525 38.20294,45.79201 32.88454,42.72143 32.89142,40.29467        "/></g><g><polygon class="st4" points="38.21892,40.15726 38.21202,42.58956 35.9458,41.28116 35.9527,38.84885        "/></g><g><polygon class="st7" points="26.82823,23.95777 30.02185,22.10185 35.45115,25.23646 32.25754,27.09238        "/></g><g><polygon class="st4" points="32.25754,27.09238 32.25066,29.51915 26.82135,26.38453 26.82823,23.95777        "/></g><g><polygon class="st4" points="38.228,36.95481 38.2211,39.38711 32.9027,36.31653 32.90959,33.88423        "/></g><g><polygon class="st4" points="38.23708,33.75236 38.23018,36.18467 35.96396,34.87626 35.97086,32.44396        "/></g><g><polygon class="st7" points="32.92775,27.47933 36.12136,25.6234 41.43977,28.69399 38.24615,30.54991        "/></g><g><polygon class="st4" points="38.24615,30.54991 38.23927,32.97667 32.92087,29.90609 32.92775,27.47933        "/></g><polygon class="st13" points="41.43977,28.69399 41.38746,47.14407 38.19385,49 38.24615,30.54991       "/></g></g><g><g><polygon class="st3" points="38.20074,46.5677 41.39436,44.71177 41.38746,47.14407 38.19385,49       "/></g><g><polygon class="st3" points="38.20982,43.36525 41.40344,41.50932 41.39656,43.93608 38.20294,45.79201       "/></g><g><polygon class="st3" points="38.21892,40.15726 41.41253,38.30133 41.40564,40.73363 38.21202,42.58956       "/></g><g><polygon class="st3" points="38.228,36.95481 41.42161,35.09888 41.41471,37.53119 38.2211,39.38711       "/></g><g><polygon class="st3" points="38.23708,33.75236 41.43069,31.89643 41.42379,34.32874 38.23018,36.18467       "/></g><g><polygon class="st3" points="38.24615,30.54991 41.43977,28.69399 41.43289,31.12075 38.23927,32.97667       "/></g></g></g><path class="st0" d="M38.24615,30.54991l3.19361-1.85593c0,0-1.90662-9.80438-4.4852-11.89377     c0,0,0.06855,3.43675-0.99061,5.30163S38.24615,30.54991,38.24615,30.54991z"/><path class="st13" d="M8.6068,13.52631c-0.07126-0.44468-0.07927-1.29022,1.05503-2.27458     c0.30412-0.26393,0.44158-0.67179,0.35921-1.06597c-0.00136-0.00662-0.37811-0.80537,0.13669-1.76072     c0.29012,0.63762,0.4589,1.4937,1.11089,2.09775c0.09994,0.09262,0.2161,0.16605,0.34262,0.21659     c0.09805,0.03921,0.62054,0.23465,1.2798,0.23465c0.67536-0.00005,2.87895-0.25916,2.87895-3.59168     c0-0.03102-0.0013-0.06198-0.0039-0.09289c-0.01361-0.1622-0.41136-1.24287-0.78673-2.29827     c0.52748,0.6745,1.05207,1.25154,1.22512,1.75631c0.15781,0.46046,0.58854,0.75074,1.05041,0.75074     c0.11507,0,0.2321-0.018,0.34728-0.05591c0.16084-0.05293,1.91766-0.73757,2.41233-1.9921     c0.09685,0.2885,0.17814,0.62347,0.24072,0.99938c0.16198,0.97292-0.18169,2.04579-0.14102,2.88931     c0.11285,2.34035,0.21941,4.55098,3.23903,6.10138c0.16008,0.08221,0.33405,0.12261,0.50709,0.12261     c0.2424,0,0.48318-0.07923,0.68209-0.23405c0.34104-0.26529,0.49722-0.70421,0.40048-1.1253     c-0.07804-0.34538,0.09228-1.33432,0.0804-2.05654c0.3514,0.93957,0.76091,2.28196,1.96831,3.24111     c0.21486,0.17066,0.48166,0.26523,0.74565,0.26523c0.19408,0,0.38665-0.05108,0.55617-0.16052     c0.39403-0.25428,0.5937-0.68811,0.48849-1.14227c-0.00423-0.15021,0.01735-1.12953,1.15458-2.66859     c0.01822-0.02462,0.03536-0.05,0.05146-0.07603c0.44603-0.72146,0.9176-1.98065,0.73068-3.20649     c0.05515,0.04799,0.1083,0.10081,0.15949,0.15851c0.38855,0.43763,0.87178,1.38815,0.96744,3.431     c0.13031,2.78231,0.21296,4.40923,0.39647,5.49321c0.09729,0.57466,0.39354,2.32343,2.01747,2.32343     c0.00016,0,0.00016,0,0.00038,0c0.33519-0.00005,0.69516-0.08031,1.16716-0.26024     c0.10428-0.03975,0.20195-0.09501,0.28975-0.16382c0.12603-0.09886,1.18937-1.18498,1.2378-2.58132     c0.06551,0.15585,0.14682,0.52692,0.2138,0.71417c0.85529,2.39122,0.49955,3.64585,0.15547,4.85922     c-0.2526,0.89076-0.51382,1.81194-0.17071,2.92027l0.05309,0.17104c0.23487,0.75568,0.58974,1.89762,0.76685,2.94923     c0.25471,1.51217,0.30454,2.0931,0.27309,2.13577C38.24035,30.55778,8.6068,13.52631,8.6068,13.52631z"/></g></g></g></svg>