<?xml version="1.0" ?><svg id="Layer_1" style="enable-background:new 0 0 50 50;" version="1.1" viewBox="0 0 50 50" xml:space="preserve" xmlns="http://www.w3.org/2000/svg" xmlns:xlink="http://www.w3.org/1999/xlink"><style type="text/css">
	.st0{fill:#B7C5FD;}
	.st1{fill:#9AADFD;}
	.st2{fill:#FFFFFF;}
	.st3{fill:#3955D1;}
	.st4{fill:#4466FB;}
	.st5{fill:#AABAFD;}
	.st6{fill:#798FFE;}
	.st7{fill:#6BB5FB;}
	.st8{enable-background:new    ;}
	.st9{fill:#1B2A4F;}
	.st10{fill:url(#);}
	.st11{fill:#384E85;}
	.st12{fill:#2E4277;}
	.st13{fill:#D9DDF6;}
	.st14{fill:#535D88;}
	.st15{fill:#2B3C67;}
	.st16{fill:#8FCCFF;}
	.st17{fill:#8CA1FD;}
	.st18{opacity:0.3;}
	.st19{opacity:0.3;fill:#4466FB;}
	.st20{opacity:0.2;}
</style><g><g><g><g><g><path class="st0" d="M42.58408,33.68399l-12.81105,7.44497c-0.32873,0.19176-0.85833,0.19176-1.18706,0.00305L5.01837,27.52349       c-0.32873-0.18871-0.32873-0.49613,0-0.68789l12.81105-7.44495c0.32568-0.18871,0.85529-0.18871,1.18402,0l23.5676,13.60547       C42.90976,33.18788,42.9128,33.49529,42.58408,33.68399z"/></g><g><path class="st1" d="M24.95806,32.80642c0.16869,0.09739,0.1677,0.25606,0.0001,0.35345l-3.47985,2.02227       c-0.16759,0.09739-0.44152,0.09849-0.61021,0.0011l-6.8574-3.95912c-0.16869-0.09739-0.16769-0.25607-0.0001-0.35346       l3.47985-2.02227c0.16759-0.0974,0.44152-0.09849,0.61021-0.0011L24.95806,32.80642z"/></g><g><path class="st1" d="M42.82757,33.3431l-0.00305,1.24185c0,0.12175-0.08217,0.24654-0.24349,0.3409l-12.81105,7.44497       c-0.32873,0.18871-0.85833,0.18871-1.18706,0L5.01532,28.76534c-0.16435-0.09436-0.24654-0.21914-0.24654-0.34699       l0.00305-1.2388c0,0.1248,0.08217,0.24959,0.24654,0.34394l23.5676,13.60852c0.32873,0.18871,0.85833,0.18871,1.18706-0.00305       l12.81105-7.44497C42.74843,33.58964,42.82757,33.4679,42.82757,33.3431z"/></g><g><g><polygon class="st11" points="21.67125,23.06352 21.22928,23.32037 20.16236,22.70438 20.60433,22.44753       "/></g><g><polygon class="st11" points="15.85398,24.78471 14.87651,25.35276 12.37533,23.9087 13.35279,23.34065       "/></g><g><polygon class="st11" points="15.65027,23.24153 14.6728,23.80957 13.60587,23.19358 14.58334,22.62554       "/></g><g><polygon class="st11" points="17.08453,24.0696 16.10706,24.63764 15.04013,24.02165 16.0176,23.45361       "/></g><g><polygon class="st11" points="18.31507,23.35448 17.33761,23.92253 14.83642,22.47846 15.81389,21.91042       "/></g><g><polygon class="st11" points="19.74749,24.18149 18.77003,24.74953 17.7031,24.13354 18.68056,23.5655       "/></g><g><polygon class="st11" points="21.50967,23.77543 20.53403,24.34241 19.46711,23.72642 20.44274,23.15944       "/></g><g><polygon class="st11" points="20.07725,22.94843 19.10162,23.51541 18.03469,22.89941 19.01032,22.33244       "/></g><g><polygon class="st11" points="20.23884,22.23652 19.79687,22.49336 18.72994,21.87737 19.17191,21.62052       "/></g><g><polygon class="st11" points="18.64299,22.12036 17.66736,22.68733 16.06697,21.76335 17.0426,21.19637       "/></g><g><polygon class="st11" points="18.80458,21.40844 18.36261,21.66529 17.29568,21.0493 17.73765,20.79245       "/></g><g><polygon class="st11" points="27.40461,26.37367 26.96264,26.63052 25.89571,26.01453 26.33768,25.75768       "/></g><g><polygon class="st11" points="27.24302,27.08559 26.26739,27.65256 25.20046,27.03657 26.17609,26.4696       "/></g><g><polygon class="st11" points="25.81061,26.25858 24.83497,26.82556 23.76805,26.20957 24.74368,25.64259       "/></g><g><polygon class="st11" points="21.38362,26.55168 20.40616,27.11972 19.33923,26.50373 20.31669,25.93569       "/></g><g><polygon class="st11" points="22.81788,27.37975 21.84042,27.94779 20.77349,27.3318 21.75095,26.76376       "/></g><g class="st8"><g><polygon class="st11" points="23.10551,23.89159 22.66354,24.14844 21.59662,23.53245 22.03859,23.2756        "/></g><g><polygon class="st11" points="24.53793,24.7186 24.09596,24.97544 23.02903,24.35945 23.471,24.10261        "/></g><g><polygon class="st11" points="22.94393,24.60351 21.9683,25.17048 20.90137,24.55449 21.877,23.98751        "/></g><g><polygon class="st11" points="21.18175,25.00956 20.20428,25.5776 19.13736,24.96161 20.11483,24.39357        "/></g><g><polygon class="st11" points="24.37634,25.43051 23.40071,25.99749 22.33378,25.3815 23.30942,24.81452        "/></g><g><polygon class="st11" points="19.95121,25.72468 18.97374,26.29272 17.90681,25.67673 18.88428,25.10868        "/></g><g><polygon class="st11" points="22.61417,25.83657 21.6367,26.40461 20.56977,25.78862 21.54724,25.22057        "/></g><g><polygon class="st11" points="23.01975,28.92187 22.04412,29.48885 15.24384,25.56271 16.21947,24.99573        "/></g></g><g><polygon class="st11" points="25.97219,25.54667 25.53022,25.80351 24.46329,25.18752 24.90526,24.93068       "/></g><g><polygon class="st11" points="28.83887,27.20174 28.3969,27.45859 27.32812,26.84153 27.77009,26.58469       "/></g><g><polygon class="st11" points="31.7037,28.85575 31.26173,29.1126 30.1948,28.49661 30.63677,28.23977       "/></g><g class="st8"><g><polygon class="st11" points="24.04843,26.66464 23.07096,27.23268 22.00403,26.61669 22.9815,26.04865        "/></g><g><polygon class="st11" points="25.48084,27.49164 24.50338,28.05968 23.43645,27.44369 24.41392,26.87565        "/></g></g><g><polygon class="st11" points="26.9151,28.31971 25.93764,28.88775 24.86886,28.2707 25.84633,27.70266       "/></g><g><polygon class="st11" points="28.67544,27.91259 27.6998,28.47957 26.63472,27.86464 27.61035,27.29767       "/></g><g><polygon class="st11" points="28.34752,29.14672 27.37005,29.71476 26.30313,29.09877 27.28059,28.53073       "/></g><g><polygon class="st11" points="27.31884,31.40395 26.34138,31.972 25.27445,31.356 26.25191,30.78796       "/></g><g><polygon class="st11" points="28.54939,30.68884 27.57192,31.25688 26.505,30.64089 27.48246,30.07285       "/></g><g><polygon class="st11" points="31.2142,30.80179 30.23673,31.36984 27.73554,29.92578 28.71301,29.35773       "/></g><g class="st8"><g><polygon class="st11" points="33.13796,29.68383 32.69599,29.94067 31.62906,29.32468 32.07103,29.06783        "/></g><g><polygon class="st11" points="32.44291,30.08774 31.46728,30.65472 29.49955,29.51865 30.47518,28.95168        "/></g></g><g><polygon class="st11" points="30.1097,28.74067 29.13406,29.30764 28.06714,28.69165 29.04277,28.12467       "/></g><g><polygon class="st11" points="30.27128,28.02875 29.82931,28.28559 28.76239,27.66961 29.20436,27.41276       "/></g><g><polygon class="st11" points="35.31393,33.16878 34.33646,33.73682 33.26954,33.12083 34.24701,32.55279       "/></g><g><polygon class="st11" points="38.18061,34.82386 37.20314,35.3919 36.13621,34.7759 37.11368,34.20786       "/></g><g><polygon class="st11" points="31.41858,33.77094 30.44111,34.33898 29.37418,33.72299 30.35165,33.15495       "/></g><g class="st8"><g><polygon class="st11" points="35.80343,31.22274 35.36146,31.47958 34.29453,30.86359 34.7365,30.60675        "/></g><g><polygon class="st11" points="35.10838,31.62666 34.13275,32.19363 33.06582,31.57764 34.04145,31.01067        "/></g><g><polygon class="st11" points="37.23769,32.05081 36.79572,32.30766 35.72879,31.69166 36.17076,31.43482        "/></g><g><polygon class="st11" points="33.87967,32.34071 32.9022,32.90875 31.83528,32.29276 32.81274,31.72472        "/></g><g><polygon class="st11" points="36.54264,32.45473 35.56701,33.0217 34.50008,32.40571 35.47572,31.83874        "/></g><g><polygon class="st11" points="32.64912,33.05582 31.67166,33.62386 30.60473,33.00787 31.5822,32.43983        "/></g><g><polygon class="st11" points="37.97506,33.28173 36.99943,33.84871 35.9325,33.23272 36.90813,32.66574        "/></g><g><polygon class="st11" points="34.08339,33.88389 33.10592,34.45193 32.03899,33.83595 33.01646,33.2679        "/></g><g><polygon class="st11" points="36.74635,33.99578 35.76888,34.56382 34.70195,33.94783 35.67942,33.37979        "/></g><g><polygon class="st11" points="35.5158,34.7109 34.53833,35.27894 33.47141,34.66295 34.44888,34.09491        "/></g></g><g><polygon class="st11" points="18.51694,24.8966 17.53948,25.46465 16.47255,24.84866 17.45002,24.28061       "/></g><g><polygon class="st11" points="24.45401,29.74994 23.47654,30.31799 22.40777,29.70093 23.38524,29.13289       "/></g><g><polygon class="st11" points="25.68456,29.03483 24.70709,29.60287 23.63832,28.98581 24.61579,28.41777       "/></g><g><polygon class="st11" points="25.88643,30.57695 24.90896,31.14499 23.84203,30.529 24.8195,29.96096       "/></g><g><polygon class="st11" points="27.11698,29.86183 26.13951,30.42988 25.07258,29.81388 26.05005,29.24584       "/></g><g><polygon class="st11" points="24.2503,28.20676 23.27283,28.7748 22.2059,28.15881 23.18337,27.59077       "/></g><g><polygon class="st11" points="28.7531,32.23203 27.77564,32.80007 26.70871,32.18407 27.68618,31.61603       "/></g><g><polygon class="st11" points="39.40932,34.10981 38.43369,34.67678 37.36676,34.06079 38.34239,33.49381       "/></g><g><polygon class="st11" points="40.10437,33.70589 39.6624,33.96273 38.59547,33.34674 39.03744,33.08989       "/></g><g><polygon class="st11" points="38.67011,32.87782 38.22814,33.13466 37.16121,32.51867 37.60318,32.26183       "/></g><g><polygon class="st11" points="32.85284,34.59901 31.87537,35.16705 30.80844,34.55106 31.78591,33.98302       "/></g><g><polygon class="st11" points="36.95007,35.53897 34.74205,36.82213 33.67512,36.20613 35.88313,34.92298       "/></g><g><polygon class="st11" points="34.28526,35.42601 33.30779,35.99406 32.24086,35.37807 33.21833,34.81002       "/></g></g></g><g><g><path class="st9" d="M42.2873,14.8526c0.32841,0.18961,0.59378,0.64924,0.59271,1.02662L42.838,32.46009       c-0.00106,0.37515-0.26817,0.52959-0.59659,0.33998L19.01343,19.39065c-0.32841-0.18961-0.59378-0.65147-0.59271-1.02662       l0.04202-16.58087c0.00107-0.37738,0.26817-0.52959,0.59659-0.33998L42.2873,14.8526z"/></g><g><path class="st11" d="M43.50378,15.51782l-0.04262,16.58023c0,0.18566-0.06697,0.31959-0.17349,0.38047l-0.62298,0.36229       c0.10654-0.06086,0.1735-0.19478,0.1735-0.38047l0.04261-16.58021c0-0.37744-0.2648-0.83703-0.59353-1.02878L19.05919,1.44344       c-0.16437-0.09435-0.31351-0.10348-0.42308-0.04262l0.62298-0.36229c0.10652-0.06088,0.25871-0.05176,0.42306,0.0426       l23.2281,13.41095C43.23898,14.6808,43.50378,15.1404,43.50378,15.51782z"/></g><g><polygon class="st13" points="42.04166,15.67702 42.00124,31.69517 19.25909,18.56625 19.29951,2.5481      "/></g></g></g><g><g><polygon class="st5" points="22.19684,5.82502 22.19636,7.30456 21.90714,7.13865 21.9066,6.01594 21.70514,6.01058       21.642,5.68179 21.95582,5.68587     "/></g><g><polygon class="st5" points="23.12086,9.37043 23.12131,10.85052 22.83209,10.6846 22.83156,9.56189 22.63009,9.55653       22.56695,9.22774 22.87985,9.23128     "/></g><g><polygon class="st5" points="25.03616,8.79262 25.0366,10.27377 24.74089,10.1041 24.74035,8.98459 24.55002,8.97926       24.47482,8.64671 24.79514,8.65453     "/></g><g><path class="st5" d="M26.47738,10.69057c0.13032,0.21181,0.19646,0.46444,0.19657,0.75045      c0.00051,0.47614-0.16802,0.6413-0.47393,0.46576c-0.07416-0.04282-0.13807-0.09892-0.19083-0.15712      c-0.05091-0.05607-0.09067-0.11317-0.12118-0.16279c-0.13216-0.21501-0.202-0.47191-0.20582-0.76219      c-0.00057-0.45271,0.18099-0.62955,0.47392-0.46043C26.31093,10.45363,26.41639,10.59134,26.47738,10.69057z M26.14426,11.60144      c0.14925,0.0851,0.23414-0.05686,0.23416-0.38974c-0.00024-0.24233-0.04713-0.4049-0.09149-0.47746      c-0.00278-0.0048-0.00925-0.01494-0.02035-0.02775c-0.01203-0.01335-0.02963-0.02885-0.05466-0.0433      c-0.10845-0.06262-0.23399,0.00467-0.23418,0.39613c0.00027,0.23381,0.04994,0.39799,0.09615,0.47375      C26.08128,11.54374,26.09976,11.57574,26.14426,11.60144"/></g><g><path class="st5" d="M21.34135,10.1952c0.13974,0.08068,0.25486,0.19513,0.34353,0.33919      c0.08688,0.14191,0.13473,0.29437,0.13527,0.43018c-0.00073,0.25884-0.17652,0.36433-0.42847,0.4792l0.46443,0.26707      l-0.00079,0.27908l-0.9446-0.5443l0.00064-0.22475l0.14409-0.06191c0.33094-0.13755,0.46861-0.22557,0.46913-0.41091      c-0.00074-0.06658-0.0173-0.11882-0.03394-0.14549c-0.02049-0.03343-0.06599-0.07336-0.12073-0.10497      c-0.00204-0.00118-0.0041-0.00235-0.00617-0.00351c-0.08343-0.04817-0.16788-0.06172-0.25058-0.04012l-0.06133,0.01581      l-0.11508-0.34811l0.01951-0.0058c0.07805-0.02002,0.20712-0.02339,0.38047,0.0767      C21.33828,10.19343,21.33981,10.1943,21.34135,10.1952z"/></g><g><path class="st5" d="M23.27835,12.77202c0.12939,0.21128,0.19553,0.46391,0.19565,0.74885      c0.0005,0.4804-0.16804,0.64876-0.47302,0.47268c-0.07508-0.04335-0.13807-0.09892-0.19083-0.15712      c-0.05091-0.05607-0.09067-0.11317-0.12118-0.16172c-0.13309-0.21661-0.20292-0.47564-0.20673-0.77018      c0.00035-0.45217,0.18098-0.62849,0.47391-0.46043C23.11097,12.53348,23.21643,12.67119,23.27835,12.77202z M22.94428,13.68769      c0.14924,0.08616,0.23414-0.05687,0.23416-0.38974c-0.00024-0.2434-0.04621-0.40544-0.09057-0.47693l-0.02035-0.02668      c-0.01481-0.01709-0.03333-0.03205-0.05558-0.04489c-0.10753-0.06208-0.234,0.00467-0.23418,0.39612      c0.00027,0.23381,0.04994,0.39799,0.09708,0.47428C22.88131,13.62998,22.90071,13.66253,22.94428,13.68769"/></g><g><polygon class="st5" points="24.85958,11.79543 24.86005,13.27018 24.56433,13.09945 24.56379,11.98313 24.37251,11.98473       24.29827,11.64206 24.61857,11.65627     "/></g><g><path class="st5" d="M26.47679,14.1748c0.13032,0.21287,0.19645,0.46551,0.19657,0.75044      c-0.00043,0.47987-0.16804,0.64877-0.47395,0.47215c-0.07416-0.04282-0.13807-0.09892-0.1899-0.15659      c-0.05091-0.05606-0.0916-0.1137-0.12117-0.16171c-0.13403-0.21608-0.20292-0.47564-0.20673-0.77018      c-0.00057-0.45271,0.18098-0.62849,0.47299-0.46097C26.30941,13.93733,26.41579,14.07557,26.47679,14.1748z M26.14364,15.09206      c0.14832,0.08457,0.23415-0.05687,0.23416-0.38974c-0.00024-0.2434-0.04713-0.40596-0.09057-0.47692l-0.02035-0.02669      c-0.01574-0.01762-0.03426-0.03259-0.05651-0.04543c-0.10753-0.06208-0.234,0.00467-0.23325,0.39666      c-0.00066,0.23328,0.04994,0.39799,0.09615,0.47375C26.07974,15.03383,26.10008,15.06691,26.14364,15.09206"/></g><g><path class="st5" d="M22.63379,17.74944c0.13031,0.21287,0.19645,0.46551,0.19657,0.75151      c0.00051,0.47721-0.16802,0.64237-0.473,0.46629c-0.00187-0.00105-0.00373-0.00212-0.00559-0.00319      c-0.07174-0.04142-0.13288-0.09664-0.18431-0.15233c-0.0509-0.05713-0.09159-0.11477-0.1221-0.16438      c-0.13309-0.21553-0.20293-0.47245-0.20675-0.76272c0.00035-0.45217,0.18376-0.62688,0.47948-0.45722      C22.46918,17.51464,22.57371,17.65074,22.63379,17.74944z M22.30712,18.67151c0.14739,0.0851,0.22765-0.05741,0.22768-0.39881      c-0.00025-0.23913-0.04622-0.40011-0.08966-0.47l-0.02127-0.02829c-0.01481-0.01708-0.03334-0.03098-0.05559-0.04383      c-0.11031-0.06369-0.22843,0.00575-0.22766,0.39242c-0.00068,0.23967,0.04806,0.40437,0.09428,0.47906      C22.24137,18.61221,22.26077,18.64475,22.30712,18.67151"/></g><g><path class="st5" d="M21.52147,14.13373c0.13031,0.21287,0.19645,0.46551,0.19657,0.75257      c0.00051,0.47615-0.16802,0.64131-0.473,0.46523c-0.07602-0.04389-0.13992-0.09999-0.19268-0.15819      c-0.05091-0.05607-0.0916-0.1137-0.12117-0.16171c-0.13217-0.21395-0.20108-0.47032-0.20489-0.76272      c0.00035-0.45217,0.18376-0.62688,0.47948-0.45721C21.35686,13.89893,21.4614,14.03503,21.52147,14.13373z M21.19481,15.0558      c0.14739,0.08403,0.22764-0.05742,0.22769-0.39987c-0.00025-0.23914-0.04622-0.39905-0.08966-0.47l-0.02128-0.02722      c-0.01481-0.01708-0.03334-0.03205-0.05559-0.0449c-0.10753-0.06102-0.23399,0.00254-0.23416,0.38974      c0.00026,0.237,0.04992,0.40224,0.09706,0.47854C21.12535,14.99329,21.1466,15.02797,21.19481,15.0558"/></g><g><path class="st5" d="M24.42343,16.29463c0.13032,0.2118,0.19553,0.46391,0.19564,0.75097      c0.00051,0.4772-0.16802,0.64237-0.473,0.46629c-0.07601-0.04388-0.13992-0.09999-0.19268-0.15819      c-0.05091-0.05606-0.0916-0.1137-0.12117-0.16171c-0.13217-0.21501-0.20015-0.46977-0.2049-0.76272      c0.00035-0.45217,0.18377-0.62688,0.47948-0.45722C24.26024,16.06064,24.36285,16.19608,24.42343,16.29463z M24.09028,17.21188      c0.14832,0.08563,0.23415-0.05793,0.23325-0.3956c0.00067-0.23754-0.04622-0.39904-0.08966-0.47      c-0.01756-0.02827-0.04349-0.05285-0.07686-0.07211c-0.10753-0.06208-0.23399,0.00254-0.23416,0.38973      c0.00025,0.23808,0.05085,0.40492,0.09706,0.48067c0.00631,0.00989,0.02583,0.04162,0.06725,0.06553      C24.08818,17.2107,24.08922,17.2113,24.09028,17.21188"/></g><g><path class="st5" d="M26.47727,17.27983c0.12939,0.21127,0.19553,0.46391,0.19565,0.74991      c0.00051,0.47615-0.16802,0.64131-0.473,0.46523c-0.00202-0.00114-0.00402-0.00228-0.00602-0.00343      c-0.07337-0.04236-0.13531-0.09706-0.18666-0.15476c-0.05091-0.055-0.0916-0.11263-0.12117-0.16171      c-0.13217-0.21395-0.20108-0.47032-0.2049-0.76272c0.00035-0.45217,0.18191-0.62795,0.47391-0.45936      C26.31134,17.04319,26.41578,17.17969,26.47727,17.27983z M26.1432,18.19549c0.14924,0.08616,0.23414-0.05793,0.23417-0.39506      c-0.00025-0.23913-0.04622-0.40011-0.08966-0.47l-0.02035-0.02775c-0.01574-0.01656-0.03427-0.03152-0.05651-0.04436      c-0.10753-0.06208-0.23399,0.00253-0.23415,0.38867c0.00025,0.23913,0.05085,0.40491,0.09705,0.48174      C26.08022,18.13886,26.09963,18.17034,26.1432,18.19549"/></g><g><path class="st5" d="M28.36778,9.39741c0.13032,0.21181,0.19553,0.46391,0.19565,0.74885      c0.00053,0.46975-0.17451,0.63862-0.47949,0.46255c-0.07231-0.04175-0.13529-0.09731-0.18712-0.15391      c-0.05091-0.05713-0.09252-0.11637-0.12303-0.16492c-0.13216-0.21607-0.20198-0.4783-0.20211-0.76111      c0.00035-0.45111,0.18191-0.62689,0.47391-0.45936C28.20039,9.15887,28.30585,9.29657,28.36778,9.39741z M28.03372,10.30668      c0.14924,0.08617,0.23414-0.0558,0.23416-0.38974c0.00068-0.23967-0.04714-0.40277-0.09151-0.47533l-0.0222-0.02989      c-0.01574-0.01656-0.03519-0.03206-0.05837-0.04544c-0.11402-0.06583-0.2285,0.03238-0.22861,0.39827      c0.00026,0.23595,0.04901,0.39852,0.0943,0.47268C27.96796,10.24737,27.9883,10.28045,28.03372,10.30668"/></g><g><path class="st5" d="M29.61821,13.09286c0.13032,0.21181,0.19646,0.46445,0.19657,0.75045      c-0.0004,0.46815-0.17544,0.63702-0.47949,0.46255c-0.07323-0.04228-0.13621-0.09785-0.18805-0.15551      c-0.05091-0.05606-0.0916-0.1137-0.1221-0.16332c-0.13217-0.21501-0.20477-0.47885-0.2086-0.76486      c0.00035-0.45217,0.18377-0.62688,0.47947-0.45615C29.45082,12.85539,29.55629,12.99203,29.61821,13.09286z M29.28508,14.00267      c0.14647,0.08456,0.22764-0.05528,0.22767-0.39242c-0.00006-0.30731-0.06745-0.44118-0.08871-0.47586      c-0.01663-0.02774-0.04349-0.05285-0.07779-0.07265c-0.1131-0.06423-0.22851,0.03237-0.22769,0.3988      c-0.00067,0.23541,0.04808,0.39905,0.09337,0.47214C29.2184,13.9439,29.23873,13.97591,29.28508,14.00267"/></g><g><path class="st5" d="M31.04774,11.26049c0.13032,0.21074,0.19553,0.46284,0.19565,0.74885      c0.00052,0.46975-0.17451,0.63863-0.47949,0.46255c-0.07231-0.04175-0.13529-0.09731-0.18712-0.15391      c-0.05091-0.05713-0.09252-0.1153-0.1221-0.16438c-0.13309-0.21448-0.20477-0.47884-0.2086-0.7638      c-0.00058-0.4527,0.18376-0.62688,0.47948-0.45721C30.88035,11.02195,30.98581,11.15966,31.04774,11.26049z M30.71368,12.16976      c0.14553,0.08295,0.22858-0.06008,0.22859-0.39295c-0.00024-0.24233-0.04713-0.40491-0.09149-0.47746      c-0.00278-0.0048-0.00924-0.01494-0.02035-0.02668c-0.01204-0.01335-0.02963-0.02991-0.05466-0.04436      c-0.13905-0.07922-0.22863,0.07712-0.22861,0.39934c0.00026,0.23594,0.04901,0.39852,0.0943,0.47268      C30.64792,12.11045,30.66733,12.143,30.71368,12.16976"/></g><g><polygon class="st5" points="32.43634,13.7106 32.43678,15.19069 32.14663,15.02423 32.14703,13.90206 31.94556,13.8967       31.88149,13.56844 32.19532,13.57252     "/></g><g><polygon class="st5" points="33.86461,12.32028 33.86505,13.80143 33.5749,13.63391 33.57438,12.5112 33.3729,12.50584       33.30977,12.17705 33.62359,12.18113     "/></g><g><polygon class="st5" points="35.28067,14.91 35.28111,16.39009 34.99189,16.22417 34.99136,15.10146 34.78989,15.0961       34.72675,14.76731 35.04058,14.77139     "/></g><g><polygon class="st5" points="37.85688,15.67159 37.85733,17.15273 37.56161,16.98307 37.562,15.86409 37.37075,15.85823       37.29555,15.52568 37.61679,15.53404     "/></g><g><polygon class="st5" points="39.67936,19.37005 39.6798,20.8512 39.38409,20.68048 39.38355,19.56096 39.19322,19.55669       39.11802,19.22414 39.43834,19.2309     "/></g><g><path class="st5" d="M40.69403,16.18716c0.13032,0.21181,0.19645,0.46444,0.19657,0.75044      c0.00051,0.47614-0.16802,0.6413-0.473,0.46522c-0.00189-0.00106-0.00378-0.00215-0.00566-0.00323      c-0.07265-0.04194-0.13464-0.09767-0.18517-0.15389c-0.05091-0.05606-0.0916-0.1137-0.1221-0.16225      c-0.13217-0.21501-0.20201-0.47192-0.20582-0.76325c0.00035-0.45217,0.18098-0.62849,0.47392-0.46043      C40.52757,15.94916,40.63303,16.08686,40.69403,16.18716z M40.3609,17.09697c0.14924,0.08616,0.23415-0.0558,0.23416-0.38867      c-0.00024-0.24339-0.04713-0.40597-0.0915-0.47746c-0.00277-0.00587-0.00924-0.016-0.02035-0.02775      c-0.01203-0.01335-0.02962-0.02884-0.05466-0.04329c-0.10845-0.06262-0.23399,0.0036-0.23417,0.39506      c0.00027,0.23381,0.04994,0.39799,0.09708,0.47428C40.29792,17.04033,40.31733,17.07181,40.3609,17.09697"/></g><g><path class="st5" d="M28.54831,16.45906c0.12939,0.21127,0.19553,0.46391,0.19565,0.74991      c0.0005,0.4804-0.16804,0.6477-0.47302,0.47269c-0.07508-0.04335-0.13899-0.10052-0.19175-0.15872      c-0.05276-0.05713-0.09345-0.11583-0.12395-0.16545c-0.13494-0.21981-0.20292-0.47671-0.20303-0.76591      c0.00035-0.45217,0.18191-0.62795,0.47391-0.45936C28.38235,16.2224,28.48681,16.35997,28.54831,16.45906z M28.21424,17.37472      c0.14924,0.08616,0.23414-0.0558,0.23416-0.38867c-0.00024-0.2434-0.04621-0.40544-0.08964-0.47639l-0.02127-0.02829      c-0.01481-0.01708-0.03334-0.03099-0.05559-0.04383c-0.10753-0.06208-0.234,0.00467-0.23417,0.39506      c0.00026,0.23381,0.04994,0.39799,0.09708,0.47428C28.15126,17.31808,28.17067,17.34956,28.21424,17.37472"/></g><g><polygon class="st5" points="30.12954,15.48353 30.13001,16.95722 29.8343,16.78756 29.83375,15.67124 29.64247,15.67176       29.56823,15.33016 29.88853,15.34438     "/></g><g><polygon class="st5" points="28.04002,13.32545 28.04049,14.79914 27.74477,14.62947 27.74515,13.51369 27.55388,13.51422       27.47871,13.17208 27.79993,13.18683     "/></g><g><path class="st5" d="M31.74675,17.8629c0.13032,0.21181,0.19646,0.46445,0.19658,0.75045      c-0.00043,0.47987-0.16804,0.6477-0.47395,0.47108c-0.00197-0.00111-0.00393-0.00222-0.00588-0.00335      c-0.07166-0.04137-0.13357-0.09603-0.18402-0.15217c-0.05091-0.05606-0.0916-0.1137-0.12117-0.16278      c-0.13309-0.21554-0.20293-0.47458-0.20673-0.77018c-0.00058-0.45271,0.18098-0.62848,0.47298-0.4599      C31.58171,17.62678,31.68617,17.76435,31.74675,17.8629z M31.41361,18.77909c0.14832,0.08563,0.23414-0.0558,0.23416-0.38867      c-0.00024-0.2434-0.04713-0.40597-0.09057-0.47693l-0.02035-0.02776c-0.01573-0.01762-0.03426-0.03152-0.05558-0.04383      c-0.10846-0.06262-0.234,0.00467-0.23417,0.39506c0.00026,0.23381,0.04994,0.39799,0.09615,0.47374      C31.3497,18.72193,31.37004,18.75394,31.41361,18.77909"/></g><g><path class="st5" d="M33.01002,16.69098c0.13886,0.08018,0.25488,0.19514,0.34356,0.3392      c0.08688,0.14191,0.13473,0.29437,0.13435,0.42965c0.00019,0.25937-0.17652,0.36433-0.42847,0.4792l0.46442,0.26707      l-0.00079,0.27908l-0.94368-0.54377l-0.00029-0.22529l0.1441-0.06191c0.33094-0.13754,0.46953-0.22504,0.46913-0.41091      c0.00019-0.06604-0.01731-0.11775-0.03394-0.14549c-0.02055-0.03248-0.06621-0.07348-0.12113-0.10519      c-0.00191-0.0011-0.00384-0.0022-0.00577-0.00328c-0.08343-0.04817-0.16788-0.06172-0.25058-0.04012l-0.06041,0.0174      l-0.116-0.34971l0.02044-0.0042c0.07713-0.02162,0.2062-0.02498,0.38047,0.07563      C33.00697,16.68922,33.00848,16.69009,33.01002,16.69098z"/></g><g><path class="st5" d="M35.90595,21.64589c0.14183,0.08189,0.2585,0.19619,0.34815,0.34291      c0.08688,0.14191,0.13472,0.29437,0.13434,0.42965c0.00019,0.25937-0.17652,0.36433-0.42754,0.47867l0.4635,0.26653      l0.00013,0.27961l-0.94461-0.54323l-0.00029-0.22529l0.14502-0.06137c0.33001-0.13915,0.46861-0.22664,0.4682-0.41145      c0.00019-0.06604-0.0173-0.11882-0.03394-0.14549c-0.02125-0.03468-0.06849-0.07582-0.12597-0.109      c-0.08343-0.04817-0.16789-0.06066-0.25059-0.03905l-0.06133,0.0158l-0.11507-0.34811l0.01951-0.00581      C35.60353,21.55024,35.7326,21.54688,35.90595,21.64589z"/></g><g><path class="st5" d="M34.94612,19.26728c0.13032,0.21181,0.19553,0.4639,0.19565,0.74884      c0.0005,0.4804-0.16804,0.6477-0.47302,0.47268c-0.07508-0.04335-0.13807-0.09892-0.19083-0.15711      c-0.05091-0.05607-0.09068-0.11317-0.12118-0.16172c-0.13309-0.2166-0.20292-0.47564-0.20673-0.77018      c0.00035-0.45217,0.18191-0.62795,0.47392-0.46043C34.77874,19.02875,34.8842,19.16645,34.94612,19.26728z M34.61205,20.18294      c0.14925,0.0851,0.23415-0.05686,0.23416-0.38973c-0.00024-0.2434-0.0462-0.40544-0.08964-0.47639l-0.02128-0.02722      c-0.01481-0.01708-0.03334-0.03205-0.05558-0.04489c-0.10754-0.06102-0.234,0.00467-0.23418,0.39612      c0.00027,0.23381,0.04994,0.39799,0.09708,0.47429C34.54907,20.12525,34.56848,20.15779,34.61205,20.18294"/></g><g><polygon class="st5" points="36.52735,18.29069 36.52781,19.76545 36.2321,19.59472 36.23155,18.4784 36.04028,18.47999       35.96603,18.13839 36.28633,18.15154     "/></g><g><path class="st5" d="M38.14456,20.67006c0.13032,0.21287,0.19645,0.46551,0.19657,0.75045      c-0.00043,0.48093-0.16804,0.64876-0.47395,0.47215c-0.07416-0.04282-0.13807-0.09892-0.1899-0.15658      c-0.05091-0.05606-0.0916-0.1137-0.12117-0.16171c-0.13309-0.21554-0.20292-0.47565-0.20673-0.77018      c-0.00058-0.45271,0.18098-0.62849,0.47298-0.46097C37.9781,20.43313,38.08356,20.57083,38.14456,20.67006z M37.81141,21.58733      c0.14832,0.08457,0.23415-0.05687,0.23416-0.38974c-0.00024-0.24339-0.04713-0.40597-0.09057-0.47692l-0.02035-0.02669      c-0.01574-0.01762-0.03426-0.03258-0.05559-0.0449c-0.10845-0.06262-0.23399,0.00467-0.23417,0.39613      c0.00026,0.23381,0.04994,0.39799,0.09615,0.47375C37.74751,21.52909,37.76785,21.56217,37.81141,21.58733"/></g><g><path class="st5" d="M26.96483,20.52524c0.13032,0.2118,0.19552,0.4639,0.19564,0.7499      c0.00051,0.47614-0.16987,0.64023-0.47949,0.46255c-0.07323-0.04228-0.13714-0.09838-0.18897-0.15605      c-0.05184-0.0566-0.09253-0.1153-0.1221-0.16438c-0.13309-0.21661-0.20108-0.47245-0.20119-0.75951      c0.00035-0.45217,0.18191-0.62795,0.47391-0.45936C26.79886,20.28857,26.90332,20.42615,26.96483,20.52524z M26.63075,21.44089      c0.14924,0.08616,0.23507-0.05739,0.23417-0.39506c-0.00008-0.29878-0.06841-0.43426-0.08967-0.46787      c-0.01848-0.03094-0.04626-0.05658-0.08242-0.07746c-0.10568-0.06101-0.22843,0.00575-0.2286,0.39295      c0.00025,0.23913,0.04899,0.40491,0.09428,0.478C26.56499,21.38266,26.58533,21.41467,26.63075,21.44089"/></g><g><path class="st5" d="M29.612,21.50732c0.13032,0.21181,0.19646,0.46444,0.19657,0.74938      c-0.00042,0.47561-0.16987,0.6413-0.47949,0.46254c-0.07416-0.04282-0.13714-0.09838-0.1899-0.15658      c-0.05091-0.05606-0.0916-0.1137-0.1221-0.16331c-0.13309-0.21554-0.20201-0.47192-0.20675-0.76272      c0.00035-0.45217,0.18377-0.62688,0.48041-0.45668C29.44554,21.26931,29.551,21.40701,29.612,21.50732z M29.27885,22.42351      c0.14739,0.08403,0.22857-0.05688,0.22769-0.39987c-0.00007-0.30305-0.06655-0.43425-0.08688-0.46839l-0.02035-0.02668      c-0.01574-0.01762-0.03519-0.03312-0.0593-0.04704c-0.10475-0.06048-0.2275,0.00628-0.22767,0.39348      c0.00025,0.2402,0.04899,0.40491,0.09428,0.47907C29.2131,22.36421,29.2325,22.39675,29.27885,22.42351"/></g><g><path class="st5" d="M31.54964,22.24152c0.13031,0.21287,0.19646,0.46444,0.19657,0.75044      c-0.00042,0.47668-0.1708,0.6397-0.47949,0.46255c-0.07416-0.04282-0.13714-0.09838-0.1899-0.15658      c-0.05091-0.05606-0.09159-0.11476-0.1221-0.16331c-0.13309-0.21554-0.20293-0.47351-0.20675-0.76272      c0.00035-0.45217,0.18376-0.62795,0.47948-0.45722C31.38368,22.00486,31.48905,22.14297,31.54964,22.24152z M31.21649,23.15772      c0.14739,0.08509,0.22764-0.05742,0.22768-0.39881c0.00068-0.2386-0.04622-0.39904-0.08966-0.47l-0.02035-0.02775      c-0.01573-0.01655-0.03426-0.03152-0.05651-0.04437c-0.11031-0.06369-0.22843,0.00575-0.22767,0.39348      c0.00025,0.2402,0.04899,0.40385,0.09428,0.47907C31.15073,23.09948,31.17014,23.13095,31.21649,23.15772"/></g><g><polygon class="st5" points="32.43639,19.91587 32.43685,21.39063 32.14762,21.22364 32.14709,20.10413 31.9456,20.10516       31.88249,19.76678 32.19537,19.77778     "/></g><g><path class="st5" d="M33.80699,23.79914c0.13032,0.21287,0.19553,0.46497,0.19564,0.75097      c0.0005,0.47721-0.16803,0.64237-0.47301,0.46629c-0.00196-0.0011-0.00392-0.00222-0.00587-0.00335      c-0.07161-0.04135-0.13267-0.09551-0.18402-0.15216c-0.05091-0.05607-0.09159-0.11477-0.1221-0.16332      c-0.13309-0.2166-0.20293-0.47351-0.20675-0.76378c0.00035-0.45217,0.18377-0.62688,0.47947-0.45615      C33.6438,23.56621,33.74641,23.70164,33.80699,23.79914z M33.4794,24.72066c0.14739,0.0851,0.22858-0.05688,0.22769-0.3988      c0.00068-0.2386-0.04622-0.40011-0.08966-0.47l-0.02035-0.02775c-0.01574-0.01656-0.03426-0.03152-0.05651-0.04437      c-0.11031-0.06369-0.22843,0.00575-0.22767,0.39241c0.00025,0.2402,0.04807,0.40438,0.09428,0.47907      C33.41365,24.66243,33.43305,24.69391,33.4794,24.72066"/></g><g><path class="st5" d="M35.90356,25.25807c0.13032,0.21288,0.19646,0.46551,0.19657,0.75258      c-0.00042,0.47561-0.16802,0.6413-0.47393,0.46576c-0.07508-0.04335-0.13992-0.10105-0.19267-0.15926      c-0.05091-0.05607-0.09068-0.11317-0.12118-0.16172c-0.13124-0.21341-0.20015-0.46978-0.20396-0.76218      c-0.00057-0.45271,0.18376-0.62689,0.47947-0.45722C35.73896,25.02327,35.84257,25.15884,35.90356,25.25807z M35.57598,26.17961      c0.14739,0.08403,0.22857-0.05688,0.22861-0.39827c-0.00025-0.23913-0.04622-0.4001-0.08966-0.47l-0.02128-0.02829      c-0.0148-0.01708-0.03426-0.03152-0.05558-0.04383c-0.10846-0.06262-0.23399,0.00147-0.23415,0.38867      c0.00026,0.23701,0.04993,0.40225,0.09706,0.47854C35.50744,26.11763,35.5287,26.15231,35.57598,26.17961"/></g><g><path class="st5" d="M40.91594,28.43727c0.13032,0.21287,0.19645,0.46551,0.19656,0.75257      c-0.00042,0.47561-0.16802,0.64131-0.47393,0.46576c-0.07601-0.04388-0.13992-0.09999-0.19268-0.15819      c-0.05091-0.05713-0.09068-0.11316-0.12118-0.16278c-0.13124-0.21341-0.20015-0.46978-0.20396-0.76219      c-0.00058-0.45271,0.18283-0.62741,0.47947-0.45615C40.75275,28.20434,40.85536,28.33978,40.91594,28.43727z M40.58279,29.35559      c0.14832,0.08563,0.23415-0.05793,0.23417-0.39506c-0.00025-0.23913-0.04622-0.40011-0.08966-0.47      c-0.01756-0.02828-0.04349-0.05285-0.07686-0.07212c-0.10845-0.06262-0.23492,0.002-0.23415,0.38867      c0.00025,0.23807,0.04992,0.40438,0.09706,0.48067C40.51981,29.29896,40.53922,29.33044,40.58279,29.35559"/></g><g><path class="st5" d="M39.55898,25.35627c0.13032,0.21181,0.19646,0.46444,0.19658,0.75044      c-0.00042,0.47561-0.16802,0.6413-0.47393,0.46469c-0.00191-0.00107-0.00383-0.00217-0.00573-0.00327      c-0.07351-0.04244-0.13552-0.09819-0.18695-0.15492c-0.05091-0.055-0.09068-0.11317-0.12117-0.16172      c-0.13124-0.21341-0.20016-0.46978-0.20396-0.76218c-0.00058-0.45271,0.18098-0.62849,0.47391-0.45936      C39.39398,25.12016,39.49841,25.25666,39.55898,25.35627z M39.22585,26.27246c0.14924,0.08617,0.23414-0.05792,0.23417-0.39507      c-0.00024-0.23913-0.04622-0.4001-0.08966-0.47l-0.02128-0.02829c-0.01481-0.01709-0.03427-0.03152-0.05558-0.04383      c-0.10846-0.06262-0.23399,0.00254-0.23416,0.38867c0.00026,0.23807,0.04992,0.40438,0.09706,0.48068      C39.16287,26.21477,39.18227,26.2473,39.22585,26.27246"/></g></g><g><polygon class="st11" points="38.29292,36.54519 38.29455,37.12139 39.51972,36.41404 39.51809,35.83784    "/></g><g><polygon class="st11" points="40.49958,35.27118 40.50121,35.84738 41.72638,35.14003 41.72475,34.56382    "/></g><g><path class="st11" d="M37.09007,45.11707l-0.17049-0.29274l7.90591-4.59427c0.05022-0.02874,0.0674-0.05617,0.0674-0.0641     c0-0.00859-0.01784-0.03767-0.06939-0.06806l-6.0445-3.48943l0.16917-0.29274l6.04516,3.48976     c0.15199,0.08822,0.23789,0.22005,0.23789,0.36146c-0.00066,0.14042-0.08657,0.27027-0.23591,0.35617L37.09007,45.11707z"/></g><g><g><g class="st8"><path class="st13" d="M39.03005,43.75431c-1.16285-0.66639-2.7961-0.83914-4.05831-0.33761       c-0.25606,0.10174-0.47832,0.26933-0.68525,0.45126c-0.54656,0.48052-1.55189,1.01761-2.91469,1.59881       c-1.29353,0.74963-0.83786,1.71242,0.46303,2.46945c0.56959,0.32705,1.20719,0.56223,1.85303,0.66052       c0.82775,0.12598,1.58793-0.38469,1.93201-1.14801c0.19068-0.42301,0.65536-0.84105,1.57955-1.19793       c0.71708-0.27688,1.4268-0.47704,1.86766-0.33808c0.43406,0.13683,0.91706-0.06195,1.02638-0.50373       C40.2349,44.83751,39.84582,44.23015,39.03005,43.75431z"/><g><path class="st5" d="M40.12126,45.1871c-0.00087,0.07431-0.00961,0.14841-0.02779,0.2219        c-0.10932,0.44178-0.59232,0.64055-1.02638,0.50373c-0.44086-0.13896-1.15058,0.0612-1.86766,0.33808        c-0.92419,0.35688-1.38887,0.77492-1.57955,1.19793c-0.34409,0.76332-1.10427,1.27399-1.93201,1.14801        c-0.64585-0.0983-1.28345-0.33347-1.85303-0.66052c-0.7607-0.44268-1.22868-0.95559-1.2306-1.45522        c-0.00043-0.00231-0.00412-0.00396-0.00412-0.00635v0.35622c0,0.49976,0.47039,1.01424,1.23473,1.45523        c1.30825,0.75699,2.96921,1.0142,4.2701,0.26458l3.14563-1.83004c0.59533-0.34544,0.86724-0.76438,0.87461-1.19062v-0.34892        C40.12516,45.18298,40.12164,45.18518,40.12126,45.1871z"/></g></g></g><g><g class="st8"><g><path class="st5" d="M37.77395,44.2956c-0.16143-0.09417-0.38678-0.08072-0.63397,0.06222        c-0.36156,0.20853-0.67099,0.63399-0.81224,1.07122l-0.47422-0.27579c0.14126-0.43724,0.45068-0.86269,0.81224-1.07121        c0.24888-0.14295,0.47255-0.15639,0.63398-0.06222L37.77395,44.2956z"/></g><g><path class="st1" d="M37.14035,44.35719c0.36075-0.20828,0.67175-0.14068,0.81448,0.13281l-1.62661,0.93913        C36.46893,44.99199,36.77852,44.56609,37.14035,44.35719z"/></g></g></g></g></g></g></svg>