<?xml version="1.0" ?><svg id="Layer_1" style="enable-background:new 0 0 50 50;" version="1.1" viewBox="0 0 50 50" xml:space="preserve" xmlns="http://www.w3.org/2000/svg" xmlns:xlink="http://www.w3.org/1999/xlink"><style type="text/css">
	.st0{fill:#B7C5FD;}
	.st1{fill:#9AADFD;}
	.st2{fill:#FFFFFF;}
	.st3{fill:#3955D1;}
	.st4{fill:#4466FB;}
	.st5{fill:#AABAFD;}
	.st6{fill:#798FFE;}
	.st7{fill:#6BB5FB;}
	.st8{enable-background:new    ;}
	.st9{fill:#1B2A4F;}
	.st10{fill:url(#);}
	.st11{fill:#384E85;}
	.st12{fill:#2E4277;}
	.st13{fill:#D9DDF6;}
	.st14{fill:#535D88;}
	.st15{fill:#2B3C67;}
	.st16{fill:#8FCCFF;}
	.st17{fill:#8CA1FD;}
	.st18{opacity:0.3;}
	.st19{opacity:0.3;fill:#4466FB;}
	.st20{opacity:0.2;}
</style><g><g><g><g><g><g><g><path class="st0" d="M4.97986,38.486l15.68488,9.11506c0.33243,0.19391,0.86799,0.19391,1.20041,0.00308L45.6978,33.84258         c0.33242-0.19083,0.33242-0.50171,0-0.69562l-15.68489-9.11504c-0.32934-0.19083-0.8649-0.19083-1.19733,0L4.98294,37.7904         C4.65051,37.98431,4.64743,38.29517,4.97986,38.486z"/></g><g><path class="st1" d="M22.97457,39.73228c-0.20498,0.11834-0.20377,0.31115-0.00012,0.4295l4.22851,2.45734         c0.20364,0.11835,0.53651,0.11968,0.74149,0.00134l8.3327-4.81089c0.20498-0.11834,0.20377-0.31116,0.00012-0.4295         l-4.22851-2.45734c-0.20365-0.11835-0.53651-0.11967-0.74149-0.00133L22.97457,39.73228z"/></g><g><path class="st1" d="M4.73362,38.14127l0.00308,1.25581c0,0.12313,0.08309,0.24932,0.24623,0.34473l15.68489,9.11506         c0.33242,0.19083,0.86799,0.19083,1.20041,0l23.83264-13.75849c0.1662-0.09541,0.24931-0.2216,0.24931-0.35089         l-0.00308-1.25273c0,0.12621-0.08309,0.2524-0.24931,0.34781L21.86515,47.60415         c-0.33242,0.19083-0.86799,0.19083-1.20041-0.00308L4.97986,38.486C4.81365,38.39059,4.73362,38.26748,4.73362,38.14127z"/></g></g><g><g><path class="st12" d="M28.76918,7.13196c0.33211-0.19174,0.60221-0.03783,0.6033,0.3438l0.04249,15.51799         c0.00108,0.37937-0.26727,0.84642-0.59938,1.03816L5.32637,37.59214c-0.33211,0.19175-0.60222,0.03557-0.6033-0.3438         L4.68059,21.73035c-0.00108-0.38163,0.26727-0.84642,0.59938-1.03817L28.76918,7.13196z"/></g><g><path class="st11" d="M4.04981,21.36488l0.0431,15.51735c0,0.18775,0.06772,0.32318,0.17545,0.38475l0.62998,0.36636         c-0.10774-0.06154-0.17545-0.19698-0.17545-0.38475l-0.0431-15.51733c0-0.38168,0.26778-0.84644,0.60021-1.04035         L28.76931,7.13222c0.16622-0.09542,0.31704-0.10464,0.42784-0.0431l-0.62998-0.36636         c-0.10772-0.06156-0.26162-0.05234-0.42782,0.04308L4.65001,20.32761C4.31759,20.51844,4.04981,20.98322,4.04981,21.36488z"/></g><g><polygon class="st2" points="5.52838,21.50975 5.56925,36.47481 28.56716,23.19824 28.52629,8.23318        "/></g></g></g><g><g><polygon class="st11" points="9.78973,37.36081 8.28426,38.23569 7.63573,37.86126 9.14121,36.98638       "/></g><g><polygon class="st11" points="25.98851,27.9471 24.48098,28.82319 23.83245,28.44876 25.33999,27.57268       "/></g><g><polygon class="st11" points="30.03821,25.59368 28.53067,26.46976 27.88214,26.09534 29.38968,25.21925       "/></g><g><polygon class="st11" points="27.33625,31.07217 25.83077,31.94706 24.49215,31.1742 25.99762,30.29931       "/></g><g><polygon class="st11" points="34.76163,30.66771 33.2541,31.54379 31.91339,30.76973 33.42092,29.89365       "/></g><g><polygon class="st11" points="36.78752,29.49039 35.27998,30.36648 32.25143,28.61794 33.75896,27.74186       "/></g><g class="st8"><g><polygon class="st11" points="31.72606,26.56816 28.94642,28.18351 27.60571,27.40945 30.38535,25.7941        "/></g><g><polygon class="st11" points="28.43014,28.48354 26.9226,29.35963 25.58189,28.58557 27.08943,27.70948        "/></g><g><polygon class="st11" points="33.41182,27.54143 29.87841,29.59483 28.53978,28.82197 32.07319,26.76858        "/></g><g><polygon class="st11" points="29.36213,29.89486 27.85459,30.77094 26.51596,29.99809 28.0235,29.122        "/></g><g><polygon class="st11" points="31.04998,30.86934 29.54245,31.74543 28.20173,30.97136 29.70927,30.09528        "/></g></g><g><polygon class="st11" points="26.40426,29.66086 24.89672,30.53694 23.55601,29.76288 25.06355,28.8868       "/></g><g><polygon class="st11" points="23.96264,29.12442 22.45716,29.9993 21.80864,29.62487 23.31411,28.74999       "/></g><g><polygon class="st11" points="21.93882,30.30053 20.43128,31.17661 19.78276,30.80219 21.29029,29.9261       "/></g><g><polygon class="st11" points="22.95059,35.57619 21.44305,36.45228 20.10234,35.67822 21.60988,34.80213       "/></g><g class="st8"><g><polygon class="st11" points="19.91294,31.47784 18.40747,32.35273 17.75894,31.9783 19.26441,31.10341        "/></g><g><polygon class="st11" points="22.35456,32.01428 20.84909,32.88917 19.50838,32.11511 21.01385,31.24022        "/></g><g><polygon class="st11" points="17.88913,32.65395 16.38159,33.53004 15.73306,33.15561 17.2406,32.27953        "/></g><g><polygon class="st11" points="20.33075,33.1904 18.82321,34.06648 17.4825,33.29242 18.99004,32.41633        "/></g><g><polygon class="st11" points="23.28655,33.4256 21.78108,34.30048 20.44246,33.52762 21.94792,32.65274        "/></g><g><polygon class="st11" points="15.86531,33.83007 14.35777,34.70615 13.70925,34.33172 15.21678,33.45564        "/></g><g><polygon class="st11" points="18.30693,34.36651 16.7994,35.24259 15.45869,34.46853 16.96622,33.59245        "/></g><g><polygon class="st11" points="24.97441,34.40008 23.46894,35.27496 22.12822,34.5009 23.63369,33.62602        "/></g><g><polygon class="st11" points="21.26274,34.60171 19.7552,35.47779 18.41657,34.70494 19.92411,33.82885        "/></g><g><polygon class="st11" points="13.83943,35.00738 12.33189,35.88346 11.68336,35.50904 13.1909,34.63295        "/></g><g><polygon class="st11" points="16.28105,35.54382 14.77352,36.41991 13.4328,35.64584 14.94034,34.76976        "/></g><g><polygon class="st11" points="19.23892,35.77782 17.73139,36.6539 16.39276,35.88105 17.90029,35.00497        "/></g><g><polygon class="st11" points="14.25724,36.71994 12.7497,37.59602 11.40899,36.82196 12.91652,35.94587        "/></g><g><polygon class="st11" points="20.92677,36.75231 19.41924,37.62839 18.07853,36.85433 19.58606,35.97824        "/></g><g><polygon class="st11" points="17.21304,36.95514 15.7055,37.83122 14.36688,37.05836 15.87441,36.18228        "/></g><g><polygon class="st11" points="18.9009,37.92962 17.39336,38.8057 16.05265,38.03164 17.56018,37.15556        "/></g><g><polygon class="st11" points="26.74898,35.32415 19.0812,39.78018 17.74049,39.00612 25.40827,34.55009        "/></g><g><polygon class="st11" points="16.87708,39.10573 15.36954,39.98182 14.02883,39.20776 15.53637,38.33167        "/></g><g><polygon class="st11" points="15.18923,38.13125 11.65787,40.18344 10.31925,39.41059 13.8506,37.35839        "/></g><g><polygon class="st11" points="14.8512,40.28305 13.34573,41.15793 12.00502,40.38387 13.51049,39.50898        "/></g><g><polygon class="st11" points="18.56492,40.08021 15.03357,42.1324 13.69286,41.35835 17.22421,39.30614        "/></g></g><g><polygon class="st11" points="11.81562,36.18349 10.30808,37.05958 9.65955,36.68515 11.16709,35.80906       "/></g><g><polygon class="st11" points="28.01233,26.77099 26.5048,27.64707 25.85627,27.27264 27.3638,26.39656       "/></g><g><polygon class="st11" points="24.38044,30.83697 22.87291,31.71305 21.5322,30.93899 23.03973,30.06291       "/></g><g><polygon class="st11" points="28.68813,34.19724 27.18059,35.07333 25.83988,34.29927 27.34742,33.42318       "/></g><g><polygon class="st11" points="27.00029,33.22277 25.49275,34.09885 24.15204,33.32479 25.65957,32.4487       "/></g><g><polygon class="st11" points="25.31243,32.24828 23.8049,33.12437 22.46627,32.35151 23.97381,31.47543       "/></g><g><polygon class="st11" points="32.73782,31.84382 31.23029,32.7199 29.88958,31.94584 31.39711,31.06976       "/></g><g><polygon class="st11" points="30.71194,33.02113 29.20647,33.89602 27.86576,33.12196 29.37123,32.24707       "/></g><g><polygon class="st11" points="12.23136,37.89725 9.97212,39.21017 8.6314,38.43612 10.89065,37.12319       "/></g></g></g></g><g><g><polygon class="st0" points="27.22065,1.3459 27.264,16.63969 7.70142,27.93465 7.65806,12.64087     "/></g><g><polygon class="st1" points="27.21674,1.3481 26.62375,1 7.06101,12.29104 7.10649,27.58479 7.70142,27.934 7.65805,12.6408           "/></g><g><g class="st8"><g><polygon class="st5" points="17.43461,12.9662 27.264,16.63969 7.70142,27.93465       "/></g><g><polygon class="st17" points="17.4309,11.65773 27.264,16.63969 17.43461,12.9662 7.70142,27.93465 27.24232,16.63969         7.70142,27.93465       "/></g></g></g><g><g><polygon class="st0" points="27.22065,1.3459 17.48746,16.31437 7.65806,12.64087      "/></g><g><polygon class="st5" points="27.22065,1.3459 17.4908,17.49199 7.65806,12.64087 17.48746,16.31437      "/></g></g></g></g></g></svg>