<?xml version="1.0" ?><svg id="Layer_1" style="enable-background:new 0 0 50 50;" version="1.1" viewBox="0 0 50 50" xml:space="preserve" xmlns="http://www.w3.org/2000/svg" xmlns:xlink="http://www.w3.org/1999/xlink"><style type="text/css">
	.st0{fill:none;}
	.st1{fill:#AABAFD;}
	.st2{fill:#B7C5FD;}
	.st3{fill:#1B2A4F;}
	.st4{fill:#798FFE;}
	.st5{fill:#9AADFD;}
	.st6{fill:#FFFFFF;}
	.st7{fill:#3955D1;}
	.st8{fill:#4466FB;}
	.st9{fill:#6BB5FB;}
	.st10{enable-background:new    ;}
	.st11{fill:url(#SVGID_1_);}
	.st12{fill:url(#SVGID_2_);}
	.st13{fill:url(#);}
	.st14{fill:url(#SVGID_3_);}
	.st15{fill:url(#SVGID_4_);}
	.st16{fill:url(#SVGID_5_);}
	.st17{fill:url(#SVGID_6_);}
	.st18{fill:url(#SVGID_7_);}
	.st19{fill:#384E85;}
	.st20{fill:#2E4277;}
	.st21{fill:#D9DDF6;}
	.st22{fill:url(#SVGID_8_);}
	.st23{fill:url(#SVGID_9_);}
	.st24{fill:url(#SVGID_10_);}
	.st25{fill:url(#SVGID_11_);}
	.st26{fill:url(#SVGID_12_);}
	.st27{fill:url(#SVGID_13_);}
	.st28{fill:url(#SVGID_14_);}
	.st29{fill:url(#SVGID_15_);}
	.st30{fill:url(#SVGID_16_);}
	.st31{fill:url(#SVGID_17_);}
	.st32{fill:url(#SVGID_18_);}
	.st33{fill:url(#SVGID_19_);}
	.st34{fill:url(#SVGID_20_);}
	.st35{fill:url(#SVGID_21_);}
	.st36{fill:url(#SVGID_22_);}
	.st37{fill:url(#SVGID_23_);}
	.st38{fill:url(#SVGID_24_);}
	.st39{fill:url(#SVGID_25_);}
	.st40{fill:url(#SVGID_26_);}
	.st41{fill:url(#SVGID_27_);}
	.st42{fill:url(#SVGID_28_);}
	.st43{fill:url(#SVGID_29_);}
	.st44{fill:url(#SVGID_30_);}
	.st45{fill:url(#SVGID_31_);}
	.st46{fill:url(#SVGID_32_);}
	.st47{fill:url(#SVGID_33_);}
	.st48{fill:url(#SVGID_34_);}
	.st49{fill:url(#SVGID_35_);}
	.st50{fill:url(#SVGID_36_);}
	.st51{fill:url(#SVGID_37_);}
	.st52{fill:url(#SVGID_38_);}
	.st53{fill:url(#SVGID_39_);}
	.st54{fill:url(#SVGID_40_);}
	.st55{fill:url(#SVGID_41_);}
	.st56{fill:url(#SVGID_42_);}
	.st57{fill:url(#SVGID_43_);}
	.st58{fill:url(#SVGID_44_);}
	.st59{fill:url(#SVGID_45_);}
	.st60{fill:url(#SVGID_46_);}
	.st61{fill:url(#SVGID_47_);}
	.st62{fill:url(#SVGID_48_);}
	.st63{fill:url(#SVGID_49_);}
	.st64{fill:url(#SVGID_50_);}
	.st65{fill:url(#SVGID_51_);}
	.st66{fill:url(#SVGID_52_);}
	.st67{fill:url(#SVGID_53_);}
	.st68{fill:url(#SVGID_54_);}
	.st69{fill:url(#SVGID_55_);}
	.st70{fill:url(#SVGID_56_);}
	.st71{fill:url(#SVGID_57_);}
	.st72{fill:url(#SVGID_58_);}
	.st73{fill:url(#SVGID_59_);}
	.st74{fill:url(#SVGID_60_);}
	.st75{fill:url(#SVGID_61_);}
	.st76{fill:url(#SVGID_62_);}
	.st77{fill:url(#SVGID_63_);}
	.st78{fill:url(#SVGID_64_);}
	.st79{fill:url(#SVGID_65_);}
	.st80{fill:url(#SVGID_66_);}
	.st81{fill:url(#SVGID_67_);}
	.st82{fill:url(#SVGID_68_);}
	.st83{fill:url(#SVGID_69_);}
	.st84{fill:url(#SVGID_70_);}
	.st85{fill:url(#SVGID_71_);}
	.st86{fill:url(#SVGID_72_);}
	.st87{fill:url(#SVGID_73_);}
	.st88{fill:url(#SVGID_74_);}
	.st89{fill:url(#SVGID_75_);}
	.st90{fill:url(#SVGID_76_);}
	.st91{fill:url(#SVGID_77_);}
	.st92{fill:url(#SVGID_78_);}
	.st93{fill:url(#SVGID_79_);}
	.st94{fill:url(#SVGID_80_);}
	.st95{fill:url(#SVGID_81_);}
	.st96{fill:url(#SVGID_82_);}
	.st97{fill:url(#SVGID_83_);}
	.st98{fill:url(#SVGID_84_);}
	.st99{fill:url(#SVGID_85_);}
	.st100{fill:url(#SVGID_86_);}
	.st101{fill:url(#SVGID_87_);}
	.st102{fill:url(#SVGID_88_);}
	.st103{fill:url(#SVGID_89_);}
	.st104{fill:url(#SVGID_90_);}
	.st105{fill:url(#SVGID_91_);}
	.st106{fill:url(#SVGID_92_);}
	.st107{fill:url(#SVGID_93_);}
	.st108{fill:url(#SVGID_94_);}
	.st109{fill:url(#SVGID_95_);}
	.st110{fill:url(#SVGID_96_);}
	.st111{fill:url(#SVGID_97_);}
	.st112{fill:url(#SVGID_98_);}
	.st113{fill:url(#SVGID_99_);}
	.st114{fill:#535D88;}
	.st115{fill:url(#SVGID_100_);}
	.st116{fill:url(#SVGID_101_);}
	.st117{fill:url(#SVGID_102_);}
	.st118{fill:url(#SVGID_103_);}
	.st119{fill:url(#SVGID_104_);}
	.st120{fill:url(#SVGID_105_);}
	.st121{fill:url(#SVGID_106_);}
	.st122{fill:url(#SVGID_107_);}
	.st123{fill:url(#SVGID_108_);}
	.st124{fill:url(#SVGID_109_);}
	.st125{fill:url(#SVGID_110_);}
	.st126{fill:url(#SVGID_111_);}
	.st127{fill:url(#SVGID_112_);}
	.st128{fill:url(#SVGID_113_);}
	.st129{fill:url(#SVGID_114_);}
	.st130{fill:url(#SVGID_115_);}
	.st131{fill:#2B3C67;}
	.st132{fill:#8FCCFF;}
	.st133{fill:#8CA1FD;}
	.st134{opacity:0.3;}
	.st135{fill:url(#SVGID_116_);}
	.st136{fill:url(#SVGID_117_);}
	.st137{fill:url(#SVGID_118_);}
	.st138{fill:url(#SVGID_119_);}
	.st139{fill:url(#SVGID_120_);}
	.st140{fill:url(#SVGID_121_);}
	.st141{fill:url(#SVGID_122_);}
	.st142{fill:url(#SVGID_123_);}
	.st143{fill:url(#SVGID_124_);}
	.st144{opacity:0.3;fill:#4466FB;}
	.st145{fill:url(#SVGID_125_);}
	.st146{fill:url(#SVGID_126_);}
	.st147{fill:url(#SVGID_127_);}
	.st148{fill:url(#SVGID_128_);}
	.st149{fill:url(#SVGID_129_);}
	.st150{fill:url(#SVGID_130_);}
	.st151{fill:url(#SVGID_131_);}
	.st152{fill:url(#SVGID_132_);}
	.st153{fill:url(#SVGID_133_);}
	.st154{fill:url(#SVGID_134_);}
	.st155{fill:url(#SVGID_135_);}
	.st156{fill:url(#SVGID_136_);}
	.st157{fill:url(#SVGID_137_);}
	.st158{fill:url(#SVGID_138_);}
	.st159{fill:url(#SVGID_139_);}
	.st160{fill:url(#SVGID_140_);}
	.st161{fill:url(#SVGID_141_);}
	.st162{fill:url(#SVGID_142_);}
	.st163{fill:url(#SVGID_143_);}
	.st164{fill:url(#SVGID_144_);}
	.st165{fill:url(#SVGID_145_);}
	.st166{fill:url(#SVGID_146_);}
	.st167{fill:url(#SVGID_147_);}
	.st168{fill:url(#SVGID_148_);}
	.st169{fill:url(#SVGID_149_);}
	.st170{fill:url(#SVGID_150_);}
	.st171{fill:url(#SVGID_151_);}
	.st172{fill:url(#SVGID_152_);}
	.st173{opacity:0.2;}
	.st174{fill:url(#SVGID_153_);}
	.st175{fill:url(#SVGID_154_);}
	.st176{fill:url(#SVGID_155_);}
	.st177{fill:url(#SVGID_156_);}
	.st178{fill:url(#SVGID_157_);}
	.st179{fill:url(#SVGID_158_);}
	.st180{fill:url(#SVGID_159_);}
	.st181{fill:url(#SVGID_160_);}
	.st182{fill:url(#SVGID_161_);}
	.st183{fill:url(#SVGID_162_);}
	.st184{fill:url(#SVGID_163_);}
	.st185{fill:url(#SVGID_164_);}
	.st186{fill:url(#SVGID_165_);}
	.st187{fill:url(#SVGID_166_);}
	.st188{fill:url(#SVGID_167_);}
	.st189{fill:url(#SVGID_168_);}
	.st190{fill:url(#SVGID_169_);}
	.st191{fill:url(#SVGID_170_);}
	.st192{fill:url(#SVGID_171_);}
	.st193{fill:url(#SVGID_172_);}
	.st194{fill:url(#SVGID_173_);}
	.st195{fill:url(#SVGID_174_);}
	.st196{fill:url(#SVGID_175_);}
	.st197{fill:url(#SVGID_176_);}
	.st198{fill:url(#SVGID_177_);}
	.st199{fill:url(#SVGID_178_);}
	.st200{fill:url(#SVGID_179_);}
	.st201{fill:url(#SVGID_180_);}
	.st202{fill:url(#SVGID_181_);}
	.st203{fill:url(#SVGID_182_);}
	.st204{fill:url(#SVGID_183_);}
	.st205{fill:url(#SVGID_184_);}
	.st206{fill:url(#SVGID_185_);}
	.st207{fill:url(#SVGID_186_);}
	.st208{fill:url(#SVGID_187_);}
	.st209{fill:url(#SVGID_188_);}
	.st210{fill:url(#SVGID_189_);}
	.st211{fill:url(#SVGID_190_);}
	.st212{fill:url(#SVGID_191_);}
	.st213{fill:url(#SVGID_192_);}
	.st214{fill:url(#SVGID_193_);}
	.st215{fill:url(#SVGID_194_);}
	.st216{fill:url(#SVGID_195_);}
	.st217{fill:url(#SVGID_196_);}
	.st218{fill:url(#SVGID_197_);}
	.st219{fill:url(#SVGID_198_);}
	.st220{fill:url(#SVGID_199_);}
	.st221{fill:url(#SVGID_200_);}
	.st222{fill:url(#SVGID_201_);}
	.st223{fill:url(#SVGID_202_);}
	.st224{fill:url(#SVGID_203_);}
	.st225{fill:url(#SVGID_204_);}
	.st226{fill:url(#SVGID_205_);}
	.st227{fill:url(#SVGID_206_);}
	.st228{fill:url(#SVGID_207_);}
	.st229{fill:url(#SVGID_208_);}
	.st230{fill:url(#SVGID_209_);}
	.st231{fill:url(#SVGID_210_);}
	.st232{fill:url(#SVGID_211_);}
	.st233{fill:url(#SVGID_212_);}
	.st234{fill:url(#SVGID_213_);}
	.st235{fill:url(#SVGID_214_);}
	.st236{fill:url(#SVGID_215_);}
	.st237{fill:url(#SVGID_216_);}
	.st238{fill:url(#SVGID_217_);}
	.st239{fill:url(#SVGID_218_);}
	.st240{fill:url(#SVGID_219_);}
	.st241{fill:url(#SVGID_220_);}
	.st242{fill:url(#SVGID_221_);}
	.st243{fill:url(#SVGID_222_);}
	.st244{fill:url(#SVGID_223_);}
	.st245{fill:url(#SVGID_224_);}
	.st246{fill:url(#SVGID_225_);}
	.st247{fill:url(#SVGID_226_);}
	.st248{fill:url(#SVGID_227_);}
	.st249{fill:url(#SVGID_228_);}
	.st250{fill:url(#SVGID_229_);}
	.st251{fill:url(#SVGID_230_);}
	.st252{fill:url(#SVGID_231_);}
</style><pattern height="32.25219" id="Unnamed_Pattern_11" patternUnits="userSpaceOnUse" style="overflow:visible;" viewBox="0 -32.25219 32.25219 32.25219" width="32.25219" x="-210"><g><rect class="st0" height="32.25219" width="32.25219" y="-32.25219"/><g><rect class="st1" height="32.25219" width="32.25219" x="0" y="-32.25219"/></g></g></pattern><pattern height="32.25219" id="Unnamed_Pattern_12" patternUnits="userSpaceOnUse" style="overflow:visible;" viewBox="0 -32.25219 32.25219 32.25219" width="32.25219" x="-210"><g><rect class="st0" height="32.25219" width="32.25219" y="-32.25219"/><g><rect class="st2" height="32.25219" width="32.25219" x="0" y="-32.25219"/></g></g></pattern><pattern height="32.25219" id="Unnamed_Pattern_17" patternUnits="userSpaceOnUse" style="overflow:visible;" viewBox="0 -32.25219 32.25219 32.25219" width="32.25219" x="-210"><g><rect class="st0" height="32.25219" width="32.25219" y="-32.25219"/><g><rect class="st3" height="32.25219" width="32.25219" x="0" y="-32.25219"/></g></g></pattern><pattern height="32.25219" id="Unnamed_Pattern_8" patternUnits="userSpaceOnUse" style="overflow:visible;" viewBox="0 -32.25219 32.25219 32.25219" width="32.25219" x="-210"><g><rect class="st0" height="32.25219" width="32.25219" y="-32.25219"/><g><rect class="st4" height="32.25219" width="32.25219" x="0" y="-32.25219"/></g></g></pattern><g><g><g><g><g><g><g><path class="st20" d="M24.28224,22.7307l-0.00801,5.42889c-0.00076,0.32013-0.21113,0.6395-0.63111,0.88341l-9.43393,5.48261         c-0.84568,0.49125-2.22109,0.49163-3.07211,0l-9.49567-5.48223C1.21304,28.79605,0.99924,28.47172,1,28.1474l0.00801-5.42699         c0,0.32318,10.13669,6.37631,10.13669,6.37631c0.85139,0.49125,2.22681,0.49125,3.07249-0.00038         C14.21719,29.09634,24.28147,23.05045,24.28224,22.7307z"/><g><g><g><pattern id="SVGID_1_" patternTransform="matrix(-0.00857 0 0 0.00857 -7900.0332 -7864.72461)" xlink:href="#Unnamed_Pattern_8"/><path class="st11" d="M14.68691,29.81866c-0.09988,0.05766-0.18061,0.1975-0.18029,0.31227l0.00361,2.71555            c0.00033,0.11477,0.08159,0.16108,0.18147,0.10341c0.09988-0.05767,0.18061-0.1975,0.18029-0.31227l-0.00361-2.71555            C14.86805,29.80731,14.78679,29.761,14.68691,29.81866z"/></g><g><pattern id="SVGID_2_" patternTransform="matrix(-0.00857 0 0 0.00857 -7900.0332 -7865.34961)" xlink:href="#Unnamed_Pattern_11"/><path class="st12" d="M14.78695,32.59293l-0.00361-2.71555c-0.0001-0.03419-0.00742-0.06226-0.02024-0.08336            c0.06193-0.00266,0.10504,0.04454,0.10528,0.12805l0.00361,2.71555c0.00033,0.11477-0.08041,0.2546-0.18029,0.31227            c-0.07012,0.04048-0.13102,0.02966-0.16122-0.02006c0.02318-0.001,0.04899-0.00893,0.07619-0.02464            C14.70654,32.84753,14.78727,32.7077,14.78695,32.59293z"/></g></g><g><g><pattern id="SVGID_3_" patternTransform="matrix(-0.00857 0 0 0.00857 -7900.0083 -7864.53809)" xlink:href="#Unnamed_Pattern_8"/><path class="st14" d="M22.45271,25.3055c-0.09988,0.05766-0.18061,0.1975-0.18029,0.31227l0.00361,2.71555            c0.00032,0.11477,0.08159,0.16108,0.18147,0.10341s0.18061-0.1975,0.18029-0.31227l-0.00361-2.71555            C22.63386,25.29414,22.55259,25.24783,22.45271,25.3055z"/></g><g><pattern id="SVGID_4_" patternTransform="matrix(-0.00857 0 0 0.00857 -7900.0083 -7865.37256)" xlink:href="#Unnamed_Pattern_11"/><path class="st15" d="M22.55276,28.07976l-0.00361-2.71555c-0.0001-0.03419-0.00742-0.06226-0.02024-0.08336            c0.06193-0.00266,0.10504,0.04454,0.10528,0.12805l0.00361,2.71555c0.00033,0.11477-0.08041,0.2546-0.18029,0.31227            c-0.07012,0.04048-0.13102,0.02966-0.16122-0.02005c0.02318-0.001,0.04899-0.00893,0.07619-0.02464            C22.47235,28.33437,22.55308,28.19453,22.55276,28.07976z"/></g></g><g><g><pattern id="SVGID_5_" patternTransform="matrix(-0.00857 0 0 0.00857 -7901.11768 -7863.89307)" xlink:href="#Unnamed_Pattern_8"/><path class="st16" d="M21.34331,25.95024c-0.09988,0.05766-0.18061,0.1975-0.18029,0.31227l0.00361,2.71555            c0.00032,0.11477,0.08159,0.16108,0.18147,0.10341c0.09988-0.05767,0.18061-0.1975,0.18029-0.31227l-0.00361-2.71555            C21.52445,25.93888,21.44319,25.89257,21.34331,25.95024z"/></g><g><pattern id="SVGID_6_" patternTransform="matrix(-0.00857 0 0 0.00857 -7901.11768 -7864.72803)" xlink:href="#Unnamed_Pattern_11"/><path class="st17" d="M21.44336,28.7245l-0.00361-2.71555c-0.0001-0.03419-0.00743-0.06226-0.02024-0.08336            c0.06193-0.00266,0.10504,0.04454,0.10528,0.12805l0.00361,2.71555c0.00033,0.11477-0.08041,0.25461-0.18029,0.31227            c-0.07012,0.04048-0.13102,0.02966-0.16122-0.02006c0.02318-0.001,0.04899-0.00893,0.07619-0.02464            C21.36295,28.9791,21.44368,28.83927,21.44336,28.7245z"/></g></g><g><g><pattern id="SVGID_7_" patternTransform="matrix(-0.00857 0 0 0.00857 -7902.22705 -7863.24854)" xlink:href="#Unnamed_Pattern_8"/><path class="st18" d="M20.23391,26.59497c-0.09988,0.05766-0.18061,0.1975-0.18029,0.31227l0.00361,2.71555            c0.00033,0.11477,0.08159,0.16108,0.18147,0.10341c0.09988-0.05766,0.18061-0.1975,0.18029-0.31227l-0.00361-2.71555            C20.41505,26.58362,20.33379,26.53731,20.23391,26.59497z"/></g><g><pattern id="SVGID_8_" patternTransform="matrix(-0.00857 0 0 0.00857 -7902.22705 -7864.08301)" xlink:href="#Unnamed_Pattern_11"/><path class="st22" d="M20.33396,29.36924l-0.00361-2.71555c-0.0001-0.03419-0.00743-0.06226-0.02024-0.08336            c0.06193-0.00266,0.10504,0.04454,0.10528,0.12805l0.00361,2.71555c0.00032,0.11477-0.08041,0.2546-0.18029,0.31227            c-0.07012,0.04048-0.13102,0.02966-0.16122-0.02005c0.02318-0.001,0.04898-0.00893,0.07619-0.02464            C20.25355,29.62384,20.33428,29.48401,20.33396,29.36924z"/></g></g><g><g><pattern id="SVGID_9_" patternTransform="matrix(-0.00857 0 0 0.00857 -7903.33643 -7862.60352)" xlink:href="#Unnamed_Pattern_8"/><path class="st23" d="M19.12451,27.23971c-0.09988,0.05766-0.18061,0.1975-0.18029,0.31227l0.00361,2.71555            c0.00033,0.11477,0.08159,0.16108,0.18147,0.10341c0.09988-0.05767,0.18061-0.1975,0.18029-0.31227l-0.00361-2.71555            C19.30565,27.22836,19.22439,27.18204,19.12451,27.23971z"/></g><g><pattern id="SVGID_10_" patternTransform="matrix(-0.00857 0 0 0.00857 -7903.33643 -7863.43848)" xlink:href="#Unnamed_Pattern_11"/><path class="st24" d="M19.22455,30.01398l-0.00361-2.71555c-0.0001-0.03419-0.00743-0.06226-0.02024-0.08336            c0.06193-0.00266,0.10504,0.04454,0.10528,0.12805l0.00361,2.71555c0.00033,0.11477-0.08041,0.2546-0.18029,0.31227            c-0.07012,0.04048-0.13102,0.02966-0.16122-0.02006c0.02318-0.001,0.04898-0.00893,0.07619-0.02464            C19.14414,30.26858,19.22488,30.12874,19.22455,30.01398z"/></g></g><g><g><pattern id="SVGID_11_" patternTransform="matrix(-0.00857 0 0 0.00857 -7904.4458 -7861.95898)" xlink:href="#Unnamed_Pattern_8"/><path class="st25" d="M18.01511,27.88445c-0.09988,0.05766-0.18061,0.1975-0.18029,0.31227l0.00361,2.71555            c0.00032,0.11477,0.08159,0.16108,0.18147,0.10341s0.18061-0.1975,0.18029-0.31227l-0.00361-2.71555            C18.19625,27.87309,18.11499,27.82678,18.01511,27.88445z"/></g><g><pattern id="SVGID_12_" patternTransform="matrix(-0.00857 0 0 0.00857 -7904.4458 -7862.79395)" xlink:href="#Unnamed_Pattern_11"/><path class="st26" d="M18.11515,30.65871l-0.00361-2.71555c-0.0001-0.0342-0.00742-0.06226-0.02024-0.08336            c0.06193-0.00266,0.10504,0.04454,0.10528,0.12805l0.00361,2.71555c0.00033,0.11477-0.08041,0.25461-0.18029,0.31227            c-0.07012,0.04048-0.13102,0.02966-0.16122-0.02005c0.02318-0.001,0.04899-0.00893,0.07619-0.02464            C18.03474,30.91332,18.11548,30.77348,18.11515,30.65871z"/></g></g><g><g><pattern id="SVGID_13_" patternTransform="matrix(-0.00857 0 0 0.00857 -7905.55518 -7861.31445)" xlink:href="#Unnamed_Pattern_8"/><path class="st27" d="M16.90571,28.52919c-0.09988,0.05766-0.18061,0.1975-0.18029,0.31227l0.00361,2.71555            c0.00032,0.11477,0.08159,0.16108,0.18147,0.10341c0.09988-0.05766,0.18061-0.1975,0.18029-0.31227l-0.00361-2.71555            C17.08685,28.51783,17.00559,28.47152,16.90571,28.52919z"/></g><g><pattern id="SVGID_14_" patternTransform="matrix(-0.00857 0 0 0.00857 -7905.55518 -7862.14893)" xlink:href="#Unnamed_Pattern_11"/><path class="st28" d="M17.00575,31.30345l-0.00361-2.71555c-0.0001-0.03419-0.00743-0.06226-0.02024-0.08336            c0.06193-0.00266,0.10504,0.04454,0.10528,0.12805l0.00361,2.71555c0.00033,0.11477-0.08041,0.2546-0.18029,0.31227            c-0.07012,0.04048-0.13102,0.02966-0.16122-0.02005c0.02318-0.001,0.04899-0.00893,0.07619-0.02464            C16.92534,31.55806,17.00607,31.41822,17.00575,31.30345z"/></g></g><g><g><pattern id="SVGID_15_" patternTransform="matrix(-0.00857 0 0 0.00857 -7906.66504 -7860.66943)" xlink:href="#Unnamed_Pattern_8"/><path class="st29" d="M15.79631,29.17393c-0.09988,0.05766-0.18061,0.1975-0.18029,0.31227l0.00361,2.71555            c0.00033,0.11477,0.08159,0.16108,0.18147,0.10341c0.09988-0.05766,0.18061-0.1975,0.18029-0.31227l-0.00361-2.71555            C15.97745,29.16257,15.89619,29.11626,15.79631,29.17393z"/></g><g><pattern id="SVGID_16_" patternTransform="matrix(-0.00857 0 0 0.00857 -7906.66504 -7861.50439)" xlink:href="#Unnamed_Pattern_11"/><path class="st30" d="M15.89635,31.94819l-0.00361-2.71555c-0.0001-0.0342-0.00743-0.06226-0.02024-0.08336            c0.06193-0.00266,0.10504,0.04454,0.10528,0.12805l0.00361,2.71555c0.00033,0.11477-0.08041,0.25461-0.18029,0.31227            c-0.07012,0.04049-0.13102,0.02967-0.16122-0.02005c0.02318-0.001,0.04899-0.00893,0.07619-0.02464            C15.81594,32.20279,15.89667,32.06296,15.89635,31.94819z"/></g></g></g><pattern id="SVGID_17_" patternTransform="matrix(0.03811 0 0 0.03811 -7519.43457 -7621.54834)" xlink:href="#Unnamed_Pattern_17"/><path class="st31" d="M23.64104,21.83467c0.85115,0.49141,0.85563,1.28796,0.01001,1.77937l-9.434,5.48244         c-0.84562,0.49142-2.22102,0.49156-3.07217,0.00015l-9.49572-5.48236c-0.85115-0.49141-0.85539-1.2881-0.00977-1.77951         l9.434-5.48244c0.84562-0.49142,2.22078-0.49142,3.07193-0.00002L23.64104,21.83467z"/><g><path class="st20" d="M19.95135,22.33087c0.3765,0.21737,0.37823,0.56963,0.00417,0.787l-6.60725,3.83972          c-0.37405,0.21737-0.98219,0.21753-1.35869,0.00015l-6.65048-3.83965c-0.3765-0.21737-0.37848-0.56978-0.00443-0.78715          l6.60725-3.83972c0.37405-0.21737,0.98244-0.21738,1.35894-0.00001L19.95135,22.33087z"/></g><g><g><pattern id="SVGID_18_" patternTransform="matrix(0.05589 0 0 0.05589 -7373.9209 -7486.23828)" xlink:href="#Unnamed_Pattern_12"/><path class="st32" d="M2.60164,26.42456c0.27296,0.1576,0.49311,0.53891,0.49222,0.85256s-0.22248,0.44034-0.49544,0.28275           c-0.27296-0.1576-0.49347-0.53953-0.49258-0.85318C2.10673,26.39303,2.32868,26.26697,2.60164,26.42456z"/></g><g><pattern id="SVGID_19_" patternTransform="matrix(0.05589 0 0 0.05589 -7373.9209 -7486.23828)" xlink:href="#Unnamed_Pattern_12"/><path class="st33" d="M4.19303,27.34335c0.27261,0.15739,0.49311,0.53891,0.49223,0.85257           c-0.00089,0.31366-0.22283,0.44014-0.49544,0.28275c-0.27296-0.15759-0.49347-0.53952-0.49258-0.85318           C3.69812,27.31183,3.92007,27.18576,4.19303,27.34335z"/></g><g><pattern id="SVGID_20_" patternTransform="matrix(0.05589 0 0 0.05589 -7373.9209 -7486.23828)" xlink:href="#Unnamed_Pattern_12"/><path class="st34" d="M5.78443,28.26215c0.27261,0.15739,0.49311,0.53891,0.49223,0.85257           c-0.00089,0.31366-0.22284,0.44014-0.49544,0.28275c-0.27296-0.1576-0.49347-0.53952-0.49258-0.85318           C5.28952,28.23062,5.51146,28.10455,5.78443,28.26215z"/></g></g></g></g></g><g><g><g><path class="st20" d="M24.28224,15.61992l-0.00801,5.42889c-0.00076,0.32013-0.21113,0.6395-0.63111,0.88341         l-9.43393,5.48261c-0.84568,0.49125-2.22109,0.49163-3.07211,0L1.64141,21.9326         C1.21304,21.68526,0.99924,21.36094,1,21.03662l0.00801-5.42699c0,0.32318,10.13669,6.37631,10.13669,6.37631         c0.85139,0.49125,2.22681,0.49125,3.07249-0.00038C14.21719,21.98555,24.28147,15.93967,24.28224,15.61992z"/><g><g><g><pattern id="SVGID_21_" patternTransform="matrix(-0.00857 0 0 0.00857 -7900.0332 -7871.83545)" xlink:href="#Unnamed_Pattern_8"/><path class="st35" d="M14.68691,22.70788c-0.09988,0.05766-0.18061,0.1975-0.18029,0.31227l0.00361,2.71555            c0.00033,0.11477,0.08159,0.16108,0.18147,0.10341c0.09988-0.05767,0.18061-0.1975,0.18029-0.31227l-0.00361-2.71555            C14.86805,22.69652,14.78679,22.65021,14.68691,22.70788z"/></g><g><pattern id="SVGID_22_" patternTransform="matrix(-0.00857 0 0 0.00857 -7900.0332 -7872.45996)" xlink:href="#Unnamed_Pattern_11"/><path class="st36" d="M14.78695,25.48214l-0.00361-2.71555c-0.0001-0.03419-0.00742-0.06226-0.02024-0.08336            c0.06193-0.00266,0.10504,0.04454,0.10528,0.12805l0.00361,2.71555c0.00033,0.11477-0.08041,0.25461-0.18029,0.31227            c-0.07012,0.04048-0.13102,0.02966-0.16122-0.02006c0.02318-0.001,0.04899-0.00893,0.07619-0.02464            C14.70654,25.73675,14.78727,25.59691,14.78695,25.48214z"/></g></g><g><g><pattern id="SVGID_23_" patternTransform="matrix(-0.00857 0 0 0.00857 -7900.0083 -7871.64893)" xlink:href="#Unnamed_Pattern_8"/><path class="st37" d="M22.45271,18.19471c-0.09988,0.05766-0.18061,0.1975-0.18029,0.31227l0.00361,2.71555            c0.00032,0.11477,0.08159,0.16108,0.18147,0.10341c0.09988-0.05767,0.18061-0.1975,0.18029-0.31227l-0.00361-2.71555            C22.63386,18.18336,22.55259,18.13705,22.45271,18.19471z"/></g><g><pattern id="SVGID_24_" patternTransform="matrix(-0.00857 0 0 0.00857 -7900.0083 -7872.4834)" xlink:href="#Unnamed_Pattern_11"/><path class="st38" d="M22.55276,20.96898l-0.00361-2.71555c-0.0001-0.03419-0.00742-0.06226-0.02024-0.08336            c0.06193-0.00266,0.10504,0.04454,0.10528,0.12805l0.00361,2.71555c0.00033,0.11477-0.08041,0.25461-0.18029,0.31227            c-0.07012,0.04048-0.13102,0.02966-0.16122-0.02006c0.02318-0.001,0.04899-0.00893,0.07619-0.02464            C22.47235,21.22358,22.55308,21.08374,22.55276,20.96898z"/></g></g><g><g><pattern id="SVGID_25_" patternTransform="matrix(-0.00857 0 0 0.00857 -7901.11768 -7871.00391)" xlink:href="#Unnamed_Pattern_8"/><path class="st39" d="M21.34331,18.83945c-0.09988,0.05766-0.18061,0.1975-0.18029,0.31227l0.00361,2.71555            c0.00032,0.11477,0.08159,0.16108,0.18147,0.10341c0.09988-0.05766,0.18061-0.1975,0.18029-0.31227l-0.00361-2.71555            C21.52445,18.82809,21.44319,18.78178,21.34331,18.83945z"/></g><g><pattern id="SVGID_26_" patternTransform="matrix(-0.00857 0 0 0.00857 -7901.11768 -7871.83887)" xlink:href="#Unnamed_Pattern_11"/><path class="st40" d="M21.44336,21.61371l-0.00361-2.71555c-0.0001-0.0342-0.00743-0.06226-0.02024-0.08336            c0.06193-0.00266,0.10504,0.04454,0.10528,0.12805l0.00361,2.71555c0.00033,0.11477-0.08041,0.2546-0.18029,0.31227            c-0.07012,0.04048-0.13102,0.02966-0.16122-0.02005c0.02318-0.001,0.04899-0.00893,0.07619-0.02464            C21.36295,21.86832,21.44368,21.72848,21.44336,21.61371z"/></g></g><g><g><pattern id="SVGID_27_" patternTransform="matrix(-0.00857 0 0 0.00857 -7902.22705 -7870.35938)" xlink:href="#Unnamed_Pattern_8"/><path class="st41" d="M20.23391,19.48419c-0.09988,0.05766-0.18061,0.1975-0.18029,0.31227l0.00361,2.71555            c0.00033,0.11477,0.08159,0.16108,0.18147,0.10341c0.09988-0.05767,0.18061-0.1975,0.18029-0.31227l-0.00361-2.71555            C20.41505,19.47283,20.33379,19.42652,20.23391,19.48419z"/></g><g><pattern id="SVGID_28_" patternTransform="matrix(-0.00857 0 0 0.00857 -7902.22705 -7871.19385)" xlink:href="#Unnamed_Pattern_11"/><path class="st42" d="M20.33396,22.25845l-0.00361-2.71555c-0.0001-0.03419-0.00743-0.06226-0.02024-0.08336            c0.06193-0.00266,0.10504,0.04454,0.10528,0.12805l0.00361,2.71555c0.00032,0.11477-0.08041,0.2546-0.18029,0.31227            c-0.07012,0.04048-0.13102,0.02966-0.16122-0.02006c0.02318-0.001,0.04898-0.00893,0.07619-0.02464            C20.25355,22.51306,20.33428,22.37322,20.33396,22.25845z"/></g></g><g><g><pattern id="SVGID_29_" patternTransform="matrix(-0.00857 0 0 0.00857 -7903.33643 -7869.71436)" xlink:href="#Unnamed_Pattern_8"/><path class="st43" d="M19.12451,20.12893c-0.09988,0.05766-0.18061,0.1975-0.18029,0.31227l0.00361,2.71555            c0.00033,0.11477,0.08159,0.16108,0.18147,0.10341s0.18061-0.1975,0.18029-0.31227l-0.00361-2.71555            C19.30565,20.11757,19.22439,20.07126,19.12451,20.12893z"/></g><g><pattern id="SVGID_30_" patternTransform="matrix(-0.00857 0 0 0.00857 -7903.33643 -7870.54932)" xlink:href="#Unnamed_Pattern_11"/><path class="st44" d="M19.22455,22.90319l-0.00361-2.71555c-0.0001-0.0342-0.00743-0.06226-0.02024-0.08336            c0.06193-0.00266,0.10504,0.04454,0.10528,0.12805l0.00361,2.71555c0.00033,0.11477-0.08041,0.25461-0.18029,0.31227            c-0.07012,0.04048-0.13102,0.02966-0.16122-0.02005c0.02318-0.001,0.04898-0.00893,0.07619-0.02464            C19.14414,23.15779,19.22488,23.01796,19.22455,22.90319z"/></g></g><g><g><pattern id="SVGID_31_" patternTransform="matrix(-0.00857 0 0 0.00857 -7904.4458 -7869.06982)" xlink:href="#Unnamed_Pattern_8"/><path class="st45" d="M18.01511,20.77366c-0.09988,0.05766-0.18061,0.1975-0.18029,0.31227l0.00361,2.71555            c0.00032,0.11477,0.08159,0.16108,0.18147,0.10341s0.18061-0.1975,0.18029-0.31227l-0.00361-2.71555            C18.19625,20.76231,18.11499,20.716,18.01511,20.77366z"/></g><g><pattern id="SVGID_32_" patternTransform="matrix(-0.00857 0 0 0.00857 -7904.4458 -7869.90479)" xlink:href="#Unnamed_Pattern_11"/><path class="st46" d="M18.11515,23.54793l-0.00361-2.71555c-0.0001-0.03419-0.00742-0.06226-0.02024-0.08336            c0.06193-0.00266,0.10504,0.04454,0.10528,0.12805l0.00361,2.71555c0.00033,0.11477-0.08041,0.2546-0.18029,0.31227            c-0.07012,0.04048-0.13102,0.02966-0.16122-0.02005c0.02318-0.001,0.04899-0.00893,0.07619-0.02464            C18.03474,23.80253,18.11548,23.6627,18.11515,23.54793z"/></g></g><g><g><pattern id="SVGID_33_" patternTransform="matrix(-0.00857 0 0 0.00857 -7905.55518 -7868.42529)" xlink:href="#Unnamed_Pattern_8"/><path class="st47" d="M16.90571,21.4184c-0.09988,0.05766-0.18061,0.1975-0.18029,0.31227l0.00361,2.71555            c0.00032,0.11477,0.08159,0.16108,0.18147,0.10341c0.09988-0.05766,0.18061-0.1975,0.18029-0.31227l-0.00361-2.71555            C17.08685,21.40705,17.00559,21.36074,16.90571,21.4184z"/></g><g><pattern id="SVGID_34_" patternTransform="matrix(-0.00857 0 0 0.00857 -7905.55518 -7869.25977)" xlink:href="#Unnamed_Pattern_11"/><path class="st48" d="M17.00575,24.19267l-0.00361-2.71555c-0.0001-0.0342-0.00743-0.06226-0.02024-0.08336            c0.06193-0.00266,0.10504,0.04454,0.10528,0.12805l0.00361,2.71555c0.00033,0.11477-0.08041,0.25461-0.18029,0.31227            c-0.07012,0.04048-0.13102,0.02966-0.16122-0.02006c0.02318-0.001,0.04899-0.00893,0.07619-0.02464            C16.92534,24.44727,17.00607,24.30743,17.00575,24.19267z"/></g></g><g><g><pattern id="SVGID_35_" patternTransform="matrix(-0.00857 0 0 0.00857 -7906.66504 -7867.78027)" xlink:href="#Unnamed_Pattern_8"/><path class="st49" d="M15.79631,22.06314c-0.09988,0.05766-0.18061,0.1975-0.18029,0.31227l0.00361,2.71555            c0.00033,0.11477,0.08159,0.16108,0.18147,0.10341c0.09988-0.05766,0.18061-0.1975,0.18029-0.31227l-0.00361-2.71555            C15.97745,22.05178,15.89619,22.00547,15.79631,22.06314z"/></g><g><pattern id="SVGID_36_" patternTransform="matrix(-0.00857 0 0 0.00857 -7906.66504 -7868.61523)" xlink:href="#Unnamed_Pattern_11"/><path class="st50" d="M15.89635,24.8374l-0.00361-2.71555c-0.0001-0.03419-0.00743-0.06226-0.02024-0.08336            c0.06193-0.00266,0.10504,0.04454,0.10528,0.12805l0.00361,2.71555c0.00033,0.11477-0.08041,0.2546-0.18029,0.31227            c-0.07012,0.04048-0.13102,0.02966-0.16122-0.02005c0.02318-0.001,0.04899-0.00893,0.07619-0.02464            C15.81594,25.09201,15.89667,24.95217,15.89635,24.8374z"/></g></g></g><pattern id="SVGID_37_" patternTransform="matrix(0.03811 0 0 0.03811 -7519.43457 -7628.65918)" xlink:href="#Unnamed_Pattern_17"/><path class="st51" d="M23.64104,14.72389c0.85115,0.49141,0.85563,1.28796,0.01001,1.77938l-9.434,5.48244         c-0.84562,0.49142-2.22102,0.49157-3.07217,0.00015L1.64916,16.5035c-0.85115-0.49141-0.85539-1.2881-0.00977-1.77951         l9.434-5.48244c0.84562-0.49142,2.22078-0.49142,3.07193-0.00001L23.64104,14.72389z"/><g><path class="st20" d="M19.95135,15.22009c0.3765,0.21737,0.37823,0.56963,0.00417,0.787l-6.60725,3.83972          c-0.37405,0.21737-0.98219,0.21753-1.35869,0.00015l-6.65048-3.83965c-0.3765-0.21737-0.37848-0.56978-0.00443-0.78715          l6.60725-3.83972c0.37405-0.21737,0.98244-0.21738,1.35894-0.00001L19.95135,15.22009z"/></g><g><g><pattern id="SVGID_38_" patternTransform="matrix(0.05589 0 0 0.05589 -7373.9209 -7493.34912)" xlink:href="#Unnamed_Pattern_12"/><path class="st52" d="M2.60164,19.31378c0.27296,0.15759,0.49311,0.53891,0.49222,0.85256           C3.09297,20.48,2.87138,20.60669,2.59842,20.44909s-0.49347-0.53953-0.49258-0.85318           C2.10673,19.28225,2.32868,19.15618,2.60164,19.31378z"/></g><g><pattern id="SVGID_39_" patternTransform="matrix(0.05589 0 0 0.05589 -7373.9209 -7493.34912)" xlink:href="#Unnamed_Pattern_12"/><path class="st53" d="M4.19303,20.23257c0.27261,0.15739,0.49311,0.53891,0.49223,0.85257           c-0.00089,0.31366-0.22283,0.44014-0.49544,0.28275c-0.27296-0.15759-0.49347-0.53952-0.49258-0.85318           C3.69812,20.20104,3.92007,20.07497,4.19303,20.23257z"/></g><g><pattern id="SVGID_40_" patternTransform="matrix(0.05589 0 0 0.05589 -7373.9209 -7493.34912)" xlink:href="#Unnamed_Pattern_12"/><path class="st54" d="M5.78443,21.15136c0.27261,0.15739,0.49311,0.53891,0.49223,0.85257           c-0.00089,0.31366-0.22284,0.44014-0.49544,0.28275c-0.27296-0.15759-0.49347-0.53952-0.49258-0.85318           C5.28952,21.11983,5.51146,20.99376,5.78443,21.15136z"/></g></g></g></g></g><g><g><g><path class="st20" d="M24.28224,8.50913l-0.00801,5.42889c-0.00076,0.32013-0.21113,0.6395-0.63111,0.88341l-9.43393,5.48261         c-0.84568,0.49125-2.22109,0.49163-3.07211,0l-9.49567-5.48223C1.21304,14.57448,0.99924,14.25015,1,13.92583         l0.00801-5.42699c0,0.32318,10.13669,6.37631,10.13669,6.37631c0.85139,0.49125,2.22681,0.49125,3.07249-0.00038         C14.21719,14.87477,24.28147,8.82888,24.28224,8.50913z"/><g><g><g><pattern id="SVGID_41_" patternTransform="matrix(-0.00857 0 0 0.00857 -7900.0332 -7878.94629)" xlink:href="#Unnamed_Pattern_8"/><path class="st55" d="M14.68691,15.59709c-0.09988,0.05766-0.18061,0.1975-0.18029,0.31227l0.00361,2.71555            c0.00033,0.11477,0.08159,0.16108,0.18147,0.10341c0.09988-0.05766,0.18061-0.1975,0.18029-0.31227l-0.00361-2.71555            C14.86805,15.58574,14.78679,15.53943,14.68691,15.59709z"/></g><g><pattern id="SVGID_42_" patternTransform="matrix(-0.00857 0 0 0.00857 -7900.0332 -7879.5708)" xlink:href="#Unnamed_Pattern_11"/><path class="st56" d="M14.78695,18.37136l-0.00361-2.71555c-0.0001-0.0342-0.00742-0.06226-0.02024-0.08336            c0.06193-0.00266,0.10504,0.04454,0.10528,0.12805l0.00361,2.71555c0.00033,0.11477-0.08041,0.2546-0.18029,0.31227            c-0.07012,0.04048-0.13102,0.02966-0.16122-0.02005c0.02318-0.001,0.04899-0.00893,0.07619-0.02464            C14.70654,18.62596,14.78727,18.48613,14.78695,18.37136z"/></g></g><g><g><pattern id="SVGID_43_" patternTransform="matrix(-0.00857 0 0 0.00857 -7900.0083 -7878.75977)" xlink:href="#Unnamed_Pattern_8"/><path class="st57" d="M22.45271,11.08393c-0.09988,0.05766-0.18061,0.1975-0.18029,0.31227l0.00361,2.71555            c0.00032,0.11477,0.08159,0.16108,0.18147,0.10341s0.18061-0.1975,0.18029-0.31227l-0.00361-2.71555            C22.63386,11.07257,22.55259,11.02626,22.45271,11.08393z"/></g><g><pattern id="SVGID_44_" patternTransform="matrix(-0.00857 0 0 0.00857 -7900.0083 -7879.59424)" xlink:href="#Unnamed_Pattern_11"/><path class="st58" d="M22.55276,13.85819l-0.00361-2.71555c-0.0001-0.0342-0.00742-0.06226-0.02024-0.08336            c0.06193-0.00266,0.10504,0.04454,0.10528,0.12805l0.00361,2.71555c0.00033,0.11477-0.08041,0.25461-0.18029,0.31227            c-0.07012,0.04048-0.13102,0.02966-0.16122-0.02005c0.02318-0.001,0.04899-0.00893,0.07619-0.02464            C22.47235,14.11279,22.55308,13.97296,22.55276,13.85819z"/></g></g><g><g><pattern id="SVGID_45_" patternTransform="matrix(-0.00857 0 0 0.00857 -7901.11768 -7878.11475)" xlink:href="#Unnamed_Pattern_8"/><path class="st59" d="M21.34331,11.72866c-0.09988,0.05766-0.18061,0.1975-0.18029,0.31227l0.00361,2.71555            c0.00032,0.11477,0.08159,0.16108,0.18147,0.10341c0.09988-0.05766,0.18061-0.1975,0.18029-0.31227l-0.00361-2.71555            C21.52445,11.71731,21.44319,11.671,21.34331,11.72866z"/></g><g><pattern id="SVGID_46_" patternTransform="matrix(-0.00857 0 0 0.00857 -7901.11768 -7878.94971)" xlink:href="#Unnamed_Pattern_11"/><path class="st60" d="M21.44336,14.50293l-0.00361-2.71555c-0.0001-0.0342-0.00743-0.06226-0.02024-0.08336            c0.06193-0.00266,0.10504,0.04454,0.10528,0.12805l0.00361,2.71555c0.00033,0.11477-0.08041,0.25461-0.18029,0.31227            c-0.07012,0.04048-0.13102,0.02966-0.16122-0.02005c0.02318-0.001,0.04899-0.00893,0.07619-0.02464            C21.36295,14.75753,21.44368,14.6177,21.44336,14.50293z"/></g></g><g><g><pattern id="SVGID_47_" patternTransform="matrix(-0.00857 0 0 0.00857 -7902.22705 -7877.47021)" xlink:href="#Unnamed_Pattern_8"/><path class="st61" d="M20.23391,12.3734c-0.09988,0.05766-0.18061,0.1975-0.18029,0.31227l0.00361,2.71555            c0.00033,0.11477,0.08159,0.16108,0.18147,0.10341c0.09988-0.05767,0.18061-0.1975,0.18029-0.31227l-0.00361-2.71555            C20.41505,12.36205,20.33379,12.31574,20.23391,12.3734z"/></g><g><pattern id="SVGID_48_" patternTransform="matrix(-0.00857 0 0 0.00857 -7902.22705 -7878.30469)" xlink:href="#Unnamed_Pattern_11"/><path class="st62" d="M20.33396,15.14767l-0.00361-2.71555c-0.0001-0.03419-0.00743-0.06226-0.02024-0.08336            c0.06193-0.00266,0.10504,0.04454,0.10528,0.12805l0.00361,2.71555c0.00032,0.11477-0.08041,0.25461-0.18029,0.31227            c-0.07012,0.04048-0.13102,0.02966-0.16122-0.02005c0.02318-0.001,0.04898-0.00893,0.07619-0.02464            C20.25355,15.40227,20.33428,15.26243,20.33396,15.14767z"/></g></g><g><g><pattern id="SVGID_49_" patternTransform="matrix(-0.00857 0 0 0.00857 -7903.33643 -7876.8252)" xlink:href="#Unnamed_Pattern_8"/><path class="st63" d="M19.12451,13.01814c-0.09988,0.05766-0.18061,0.1975-0.18029,0.31227l0.00361,2.71555            c0.00033,0.11477,0.08159,0.16108,0.18147,0.10341s0.18061-0.1975,0.18029-0.31227l-0.00361-2.71555            C19.30565,13.00678,19.22439,12.96047,19.12451,13.01814z"/></g><g><pattern id="SVGID_50_" patternTransform="matrix(-0.00857 0 0 0.00857 -7903.33643 -7877.66016)" xlink:href="#Unnamed_Pattern_11"/><path class="st64" d="M19.22455,15.7924l-0.00361-2.71555c-0.0001-0.03419-0.00743-0.06226-0.02024-0.08336            c0.06193-0.00266,0.10504,0.04454,0.10528,0.12805l0.00361,2.71555c0.00033,0.11477-0.08041,0.2546-0.18029,0.31227            c-0.07012,0.04048-0.13102,0.02966-0.16122-0.02005c0.02318-0.001,0.04898-0.00893,0.07619-0.02464            C19.14414,16.04701,19.22488,15.90717,19.22455,15.7924z"/></g></g><g><g><pattern id="SVGID_51_" patternTransform="matrix(-0.00857 0 0 0.00857 -7904.4458 -7876.18066)" xlink:href="#Unnamed_Pattern_8"/><path class="st65" d="M18.01511,13.66288c-0.09988,0.05766-0.18061,0.1975-0.18029,0.31227l0.00361,2.71555            c0.00032,0.11477,0.08159,0.16108,0.18147,0.10341s0.18061-0.1975,0.18029-0.31227l-0.00361-2.71555            C18.19625,13.65152,18.11499,13.60521,18.01511,13.66288z"/></g><g><pattern id="SVGID_52_" patternTransform="matrix(-0.00857 0 0 0.00857 -7904.4458 -7877.01514)" xlink:href="#Unnamed_Pattern_11"/><path class="st66" d="M18.11515,16.43714l-0.00361-2.71555c-0.0001-0.0342-0.00742-0.06226-0.02024-0.08336            c0.06193-0.00266,0.10504,0.04454,0.10528,0.12805l0.00361,2.71555c0.00033,0.11477-0.08041,0.25461-0.18029,0.31227            c-0.07012,0.04048-0.13102,0.02966-0.16122-0.02006c0.02318-0.001,0.04899-0.00893,0.07619-0.02464            C18.03474,16.69175,18.11548,16.55191,18.11515,16.43714z"/></g></g><g><g><pattern id="SVGID_53_" patternTransform="matrix(-0.00857 0 0 0.00857 -7905.55518 -7875.53564)" xlink:href="#Unnamed_Pattern_8"/><path class="st67" d="M16.90571,14.30762c-0.09988,0.05766-0.18061,0.1975-0.18029,0.31227l0.00361,2.71555            c0.00032,0.11477,0.08159,0.16108,0.18147,0.10341c0.09988-0.05766,0.18061-0.1975,0.18029-0.31227l-0.00361-2.71555            C17.08685,14.29626,17.00559,14.24995,16.90571,14.30762z"/></g><g><pattern id="SVGID_54_" patternTransform="matrix(-0.00857 0 0 0.00857 -7905.55518 -7876.37061)" xlink:href="#Unnamed_Pattern_11"/><path class="st68" d="M17.00575,17.08188l-0.00361-2.71555c-0.0001-0.0342-0.00743-0.06226-0.02024-0.08336            c0.06193-0.00266,0.10504,0.04454,0.10528,0.12805l0.00361,2.71555c0.00033,0.11477-0.08041,0.2546-0.18029,0.31227            c-0.07012,0.04048-0.13102,0.02966-0.16122-0.02005c0.02318-0.001,0.04899-0.00893,0.07619-0.02464            C16.92534,17.33648,17.00607,17.19665,17.00575,17.08188z"/></g></g><g><g><pattern id="SVGID_55_" patternTransform="matrix(-0.00857 0 0 0.00857 -7906.66504 -7874.89111)" xlink:href="#Unnamed_Pattern_8"/><path class="st69" d="M15.79631,14.95235c-0.09988,0.05766-0.18061,0.1975-0.18029,0.31227l0.00361,2.71555            c0.00033,0.11477,0.08159,0.16108,0.18147,0.10341c0.09988-0.05767,0.18061-0.1975,0.18029-0.31227l-0.00361-2.71555            C15.97745,14.941,15.89619,14.89469,15.79631,14.95235z"/></g><g><pattern id="SVGID_56_" patternTransform="matrix(-0.00857 0 0 0.00857 -7906.66504 -7875.72607)" xlink:href="#Unnamed_Pattern_11"/><path class="st70" d="M15.89635,17.72662l-0.00361-2.71555c-0.0001-0.0342-0.00743-0.06226-0.02024-0.08336            c0.06193-0.00266,0.10504,0.04454,0.10528,0.12805l0.00361,2.71555c0.00033,0.11477-0.08041,0.25461-0.18029,0.31227            c-0.07012,0.04048-0.13102,0.02966-0.16122-0.02006c0.02318-0.001,0.04899-0.00893,0.07619-0.02464            C15.81594,17.98122,15.89667,17.84139,15.89635,17.72662z"/></g></g></g><path class="st19" d="M23.64104,7.6131c0.85115,0.49141,0.85563,1.28796,0.01001,1.77937l-9.434,5.48244         c-0.84562,0.49142-2.22102,0.49156-3.07217,0.00016L1.64916,9.39272C0.79802,8.90131,0.79377,8.10462,1.63939,7.6132         l9.434-5.48244c0.84562-0.49142,2.22078-0.49142,3.07193-0.00001L23.64104,7.6131z"/><g><g><path class="st20" d="M12.57347,2.92695c0.09189,0.05305,0.09237,0.13843,0.00213,0.19088l-1.51322,0.87939           c-0.0913,0.05306-0.23869,0.05306-0.33059,0c-0.09084-0.05244-0.09237-0.13843-0.00108-0.19149l1.51322-0.87939           C12.33418,2.8739,12.48263,2.87451,12.57347,2.92695z"/></g><g><path class="st20" d="M14.05962,3.78498c0.0919,0.05306,0.09237,0.13843,0.00213,0.19088l-1.51322,0.87939           c-0.0913,0.05306-0.23869,0.05306-0.33059,0c-0.09084-0.05244-0.09132-0.13782-0.00002-0.19088l1.51322-0.87939           C13.82139,3.73253,13.96878,3.73253,14.05962,3.78498z"/></g><g><path class="st20" d="M15.54682,4.64362c0.09084,0.05245,0.09238,0.13843,0.00213,0.19088l-1.51322,0.87939           c-0.0913,0.05306-0.23975,0.05245-0.33059,0c-0.09189-0.05305-0.09237-0.13843-0.00108-0.19149l1.51322-0.87939           C15.30754,4.59056,15.45493,4.59056,15.54682,4.64362z"/></g><g><path class="st20" d="M14.80322,4.2143c0.0919,0.05306,0.09238,0.13843,0.00213,0.19088l-1.51322,0.87939           c-0.0913,0.05306-0.23869,0.05306-0.33059,0c-0.09084-0.05244-0.09237-0.13843-0.00108-0.19149l1.51322-0.87939           C14.56393,4.16124,14.71238,4.16185,14.80322,4.2143z"/></g><g><path class="st20" d="M13.31707,3.35627c0.09084,0.05245,0.09237,0.13843,0.00213,0.19088l-1.51322,0.87939           c-0.0913,0.05306-0.23975,0.05245-0.33059,0c-0.09189-0.05305-0.09237-0.13843-0.00108-0.19149l1.51322-0.87939           C13.07778,3.30322,13.22518,3.30322,13.31707,3.35627z"/></g><g><path class="st20" d="M19.62925,7.00061c0.09189,0.05305,0.09237,0.13843,0.00212,0.19088l-1.51322,0.87939           c-0.0913,0.05306-0.23869,0.05306-0.33058,0c-0.09084-0.05245-0.09132-0.13783-0.00003-0.19088l1.51322-0.87939           C19.39101,6.94816,19.53841,6.94816,19.62925,7.00061z"/></g><g><path class="st20" d="M21.11646,7.85925c0.09084,0.05244,0.09132,0.13782,0.00107,0.19027L19.60431,8.9289           c-0.0913,0.05306-0.23869,0.05306-0.32953,0.00061c-0.0919-0.05306-0.09238-0.13843-0.00108-0.19149l1.51322-0.87939           C20.87717,7.80619,21.02456,7.80619,21.11646,7.85925z"/></g><g><path class="st20" d="M20.37286,7.42993c0.09084,0.05244,0.09237,0.13843,0.00212,0.19088l-1.51322,0.87939           c-0.0913,0.05306-0.23975,0.05245-0.33058,0c-0.0919-0.05306-0.09238-0.13843-0.00108-0.19149l1.51322-0.87939           C20.13356,7.37687,20.28096,7.37687,20.37286,7.42993z"/></g><g><path class="st20" d="M18.8867,6.5719c0.09084,0.05244,0.09132,0.13782,0.00107,0.19027l-1.51322,0.87939           c-0.0913,0.05306-0.23869,0.05306-0.32953,0.00061c-0.0919-0.05306-0.09238-0.13843-0.00108-0.19149l1.51322-0.87939           C18.64741,6.51884,18.79481,6.51884,18.8867,6.5719z"/></g><g><path class="st20" d="M21.859,8.28796c0.0919,0.05306,0.09238,0.13843,0.00213,0.19088l-1.51322,0.87939           c-0.0913,0.05306-0.23869,0.05306-0.33059,0c-0.09084-0.05244-0.09237-0.13843-0.00107-0.19149l1.51322-0.87939           C21.61972,8.2349,21.76817,8.23551,21.859,8.28796z"/></g></g><g><g><pattern id="SVGID_57_" patternTransform="matrix(0.05589 0 0 0.05589 -7373.9209 -7500.45996)" xlink:href="#Unnamed_Pattern_12"/><path class="st71" d="M2.60164,12.20299c0.27296,0.1576,0.49311,0.53891,0.49222,0.85256           c-0.00089,0.31366-0.22248,0.44034-0.49544,0.28275c-0.27296-0.1576-0.49347-0.53953-0.49258-0.85318           C2.10673,12.17146,2.32868,12.0454,2.60164,12.20299z"/></g><g><pattern id="SVGID_58_" patternTransform="matrix(0.05589 0 0 0.05589 -7373.9209 -7500.45996)" xlink:href="#Unnamed_Pattern_12"/><path class="st72" d="M4.19303,13.12178c0.27261,0.15739,0.49311,0.53891,0.49223,0.85257           c-0.00089,0.31366-0.22283,0.44014-0.49544,0.28275c-0.27296-0.15759-0.49347-0.53952-0.49258-0.85318           C3.69812,13.09026,3.92007,12.96419,4.19303,13.12178z"/></g><g><pattern id="SVGID_59_" patternTransform="matrix(0.05589 0 0 0.05589 -7373.9209 -7500.45996)" xlink:href="#Unnamed_Pattern_12"/><path class="st73" d="M5.78443,14.04058c0.27261,0.15739,0.49311,0.53891,0.49223,0.85257           c-0.00089,0.31366-0.22284,0.44014-0.49544,0.28275c-0.27296-0.1576-0.49347-0.53952-0.49258-0.85318           C5.28952,14.00905,5.51146,13.88298,5.78443,14.04058z"/></g></g></g></g></g></g><g><g><g><g><path class="st8" d="M48.99989,36.83651l-0.008,5.42889c-0.00076,0.32013-0.21114,0.6395-0.63111,0.88341l-9.43393,5.48261         c-0.84568,0.49125-2.2211,0.49163-3.07211,0l-9.49567-5.48223c-0.42836-0.24734-0.64217-0.57166-0.64141-0.89598         l0.00801-5.42699c0,0.32318,10.13669,6.37631,10.13669,6.37631c0.85139,0.49125,2.22681,0.49125,3.07249-0.00038         C38.93484,43.20215,48.99913,37.15626,48.99989,36.83651z"/><g><g><g><path class="st7" d="M39.40456,43.92447c-0.09988,0.05766-0.18061,0.1975-0.18029,0.31227l0.00361,2.71555            c0.00032,0.11477,0.08158,0.16108,0.18147,0.10341c0.09988-0.05766,0.18061-0.1975,0.18029-0.31227l-0.00361-2.71555            C39.5857,43.91311,39.50444,43.86681,39.40456,43.92447z"/></g><g><pattern id="SVGID_60_" patternTransform="matrix(-0.00857 0 0 0.00857 -7875.31592 -7851.24365)" xlink:href="#Unnamed_Pattern_11"/><path class="st74" d="M39.5046,46.69873l-0.00361-2.71555c-0.0001-0.03419-0.00742-0.06226-0.02024-0.08336            c0.06193-0.00266,0.10504,0.04454,0.10527,0.12805l0.00361,2.71555c0.00032,0.11477-0.08041,0.2546-0.18029,0.31227            c-0.07012,0.04049-0.13102,0.02967-0.16122-0.02005c0.02318-0.001,0.04899-0.00893,0.07619-0.02464            C39.42419,46.95334,39.50492,46.8135,39.5046,46.69873z"/></g></g><g><g><path class="st7" d="M47.17037,39.4113c-0.09988,0.05767-0.18061,0.1975-0.18029,0.31227l0.00361,2.71555            c0.00032,0.11477,0.08158,0.16108,0.18147,0.10341c0.09988-0.05767,0.18061-0.1975,0.18029-0.31227l-0.00361-2.71555            C47.35151,39.39995,47.27025,39.35364,47.17037,39.4113z"/></g><g><pattern id="SVGID_61_" patternTransform="matrix(-0.00857 0 0 0.00857 -7875.29053 -7851.26709)" xlink:href="#Unnamed_Pattern_11"/><path class="st75" d="M47.27041,42.18557l-0.00361-2.71555c-0.0001-0.03419-0.00742-0.06226-0.02024-0.08335            c0.06193-0.00267,0.10504,0.04454,0.10527,0.12805l0.00361,2.71555c0.00032,0.11477-0.08041,0.2546-0.18029,0.31227            c-0.07012,0.04048-0.13102,0.02966-0.16122-0.02005c0.02319-0.001,0.04899-0.00893,0.07619-0.02464            C47.19,42.44017,47.27074,42.30034,47.27041,42.18557z"/></g></g><g><g><path class="st7" d="M46.06097,40.05604c-0.09988,0.05767-0.18061,0.1975-0.18029,0.31227l0.00361,2.71555            c0.00032,0.11477,0.08159,0.16108,0.18147,0.10341c0.09988-0.05766,0.18061-0.1975,0.18029-0.31227l-0.00361-2.71555            C46.24211,40.04469,46.16085,39.99838,46.06097,40.05604z"/></g><g><pattern id="SVGID_62_" patternTransform="matrix(-0.00857 0 0 0.00857 -7876.40039 -7850.62207)" xlink:href="#Unnamed_Pattern_11"/><path class="st76" d="M46.16101,42.83031l-0.00361-2.71555c-0.0001-0.0342-0.00742-0.06226-0.02024-0.08336            c0.06193-0.00266,0.10504,0.04454,0.10527,0.12805l0.00361,2.71555c0.00033,0.11477-0.08041,0.25461-0.18029,0.31227            c-0.07012,0.04049-0.13102,0.02966-0.16122-0.02005c0.02318-0.001,0.04898-0.00893,0.07619-0.02464            C46.0806,43.08491,46.16133,42.94508,46.16101,42.83031z"/></g></g><g><g><path class="st7" d="M44.95156,40.70078c-0.09988,0.05767-0.18061,0.1975-0.18029,0.31227l0.00361,2.71555            c0.00032,0.11477,0.08159,0.16108,0.18147,0.10341c0.09988-0.05766,0.18061-0.1975,0.18029-0.31227l-0.00361-2.71555            C45.13271,40.68942,45.05145,40.64312,44.95156,40.70078z"/></g><g><pattern id="SVGID_63_" patternTransform="matrix(-0.00857 0 0 0.00857 -7877.50977 -7849.97754)" xlink:href="#Unnamed_Pattern_11"/><path class="st77" d="M45.05161,43.47504L45.048,40.7595c-0.0001-0.03419-0.00742-0.06226-0.02024-0.08336            c0.06193-0.00266,0.10504,0.04454,0.10528,0.12805l0.0036,2.71555c0.00033,0.11477-0.08041,0.2546-0.18029,0.31227            c-0.07012,0.04049-0.13102,0.02967-0.16122-0.02005c0.02318-0.001,0.04898-0.00893,0.07619-0.02464            C44.9712,43.72965,45.05193,43.58981,45.05161,43.47504z"/></g></g><g><g><path class="st7" d="M43.84216,41.34552c-0.09988,0.05766-0.18061,0.1975-0.18029,0.31227l0.00361,2.71555            c0.00032,0.11477,0.08159,0.16108,0.18147,0.10341c0.09988-0.05767,0.18061-0.1975,0.18029-0.31227l-0.00361-2.71555            C44.0233,41.33416,43.94204,41.28785,43.84216,41.34552z"/></g><g><pattern id="SVGID_64_" patternTransform="matrix(-0.00857 0 0 0.00857 -7878.61914 -7849.33252)" xlink:href="#Unnamed_Pattern_11"/><path class="st78" d="M43.94221,44.11979l-0.00361-2.71555c-0.0001-0.03419-0.00743-0.06226-0.02024-0.08336            c0.06193-0.00266,0.10504,0.04454,0.10528,0.12805l0.0036,2.71555c0.00033,0.11477-0.08041,0.2546-0.18029,0.31227            c-0.07012,0.04048-0.13102,0.02966-0.16122-0.02006c0.02318-0.001,0.04898-0.00893,0.07619-0.02464            C43.8618,44.37439,43.94253,44.23455,43.94221,44.11979z"/></g></g><g><g><path class="st7" d="M42.73277,41.99026c-0.09988,0.05766-0.18061,0.1975-0.18029,0.31227l0.00361,2.71555            c0.00033,0.11477,0.08159,0.16108,0.18147,0.10341c0.09988-0.05767,0.18061-0.1975,0.18029-0.31227l-0.00361-2.71555            C42.9139,41.9789,42.83264,41.93259,42.73277,41.99026z"/></g><g><pattern id="SVGID_65_" patternTransform="matrix(-0.00857 0 0 0.00857 -7879.72852 -7848.68799)" xlink:href="#Unnamed_Pattern_11"/><path class="st79" d="M42.83281,44.76452l-0.00361-2.71555c-0.0001-0.03419-0.00743-0.06226-0.02024-0.08335            c0.06193-0.00267,0.10504,0.04454,0.10528,0.12805l0.00361,2.71555c0.00032,0.11477-0.08041,0.2546-0.18029,0.31227            c-0.07012,0.04048-0.13102,0.02966-0.16122-0.02005c0.02318-0.001,0.04898-0.00893,0.07619-0.02464            C42.7524,45.01913,42.83313,44.87929,42.83281,44.76452z"/></g></g><g><g><path class="st7" d="M41.62336,42.63499c-0.09988,0.05767-0.18061,0.1975-0.18029,0.31227l0.00361,2.71555            c0.00033,0.11477,0.08159,0.16108,0.18147,0.10341c0.09988-0.05767,0.18061-0.1975,0.18029-0.31227l-0.00361-2.71555            C41.8045,42.62364,41.72324,42.57733,41.62336,42.63499z"/></g><g><pattern id="SVGID_66_" patternTransform="matrix(-0.00857 0 0 0.00857 -7880.83789 -7848.04346)" xlink:href="#Unnamed_Pattern_11"/><path class="st80" d="M41.7234,45.40926l-0.00361-2.71555c-0.0001-0.03419-0.00743-0.06226-0.02024-0.08335            c0.06193-0.00266,0.10504,0.04454,0.10528,0.12805l0.00361,2.71555c0.00032,0.11477-0.08041,0.2546-0.18029,0.31227            c-0.07012,0.04049-0.13102,0.02966-0.16122-0.02005c0.02318-0.001,0.04898-0.00893,0.07619-0.02464            C41.64299,45.66386,41.72373,45.52403,41.7234,45.40926z"/></g></g><g><g><path class="st7" d="M40.51396,43.27973c-0.09988,0.05767-0.18061,0.1975-0.18029,0.31227l0.00361,2.71555            c0.00032,0.11477,0.08158,0.16108,0.18147,0.10341c0.09988-0.05766,0.18061-0.1975,0.18029-0.31227l-0.00361-2.71555            C40.6951,43.26838,40.61384,43.22207,40.51396,43.27973z"/></g><g><pattern id="SVGID_67_" patternTransform="matrix(-0.00857 0 0 0.00857 -7881.94727 -7847.39844)" xlink:href="#Unnamed_Pattern_11"/><path class="st81" d="M40.614,46.054l-0.00361-2.71555c-0.0001-0.0342-0.00742-0.06226-0.02024-0.08336            c0.06193-0.00266,0.10504,0.04454,0.10528,0.12805l0.00361,2.71555c0.00032,0.11477-0.08041,0.2546-0.18029,0.31227            c-0.07012,0.04049-0.13102,0.02966-0.16122-0.02005c0.02318-0.001,0.04899-0.00893,0.07619-0.02464            C40.5336,46.3086,40.61433,46.16877,40.614,46.054z"/></g></g></g><path class="st7" d="M48.3587,35.94048c0.85115,0.49141,0.85563,1.28796,0.01001,1.77937L38.9347,43.2023         c-0.84562,0.49142-2.22102,0.49157-3.07217,0.00016l-9.49572-5.48236c-0.85115-0.49141-0.85539-1.2881-0.00978-1.77951         l9.434-5.48244c0.84562-0.49142,2.22078-0.49142,3.07193-0.00002L48.3587,35.94048z"/><g><path class="st8" d="M44.669,36.43668c0.3765,0.21737,0.37823,0.56963,0.00417,0.787l-6.60725,3.83972          c-0.37405,0.21737-0.98219,0.21753-1.35869,0.00015l-6.65048-3.83965c-0.3765-0.21737-0.37848-0.56978-0.00443-0.78715          l6.60725-3.83972c0.37405-0.21737,0.98244-0.21738,1.35894,0L44.669,36.43668z"/></g><g><g><pattern id="SVGID_68_" patternTransform="matrix(0.05589 0 0 0.05589 -7349.20313 -7472.13232)" xlink:href="#Unnamed_Pattern_12"/><path class="st82" d="M27.31929,40.53037c0.27296,0.1576,0.49311,0.53891,0.49222,0.85257           s-0.22248,0.44034-0.49544,0.28275c-0.27296-0.1576-0.49347-0.53953-0.49258-0.85318           C26.82438,40.49884,27.04633,40.37278,27.31929,40.53037z"/></g><g><pattern id="SVGID_69_" patternTransform="matrix(0.05589 0 0 0.05589 -7349.20313 -7472.13232)" xlink:href="#Unnamed_Pattern_12"/><path class="st83" d="M28.91068,41.44916c0.27261,0.15739,0.49311,0.53891,0.49223,0.85257           s-0.22283,0.44014-0.49544,0.28275c-0.27296-0.15759-0.49347-0.53952-0.49258-0.85318S28.63773,41.29157,28.91068,41.44916           z"/></g><g><pattern id="SVGID_70_" patternTransform="matrix(0.05589 0 0 0.05589 -7349.20313 -7472.13232)" xlink:href="#Unnamed_Pattern_12"/><path class="st84" d="M30.50208,42.36795c0.27261,0.15739,0.49312,0.53891,0.49223,0.85257           c-0.00089,0.31366-0.22284,0.44014-0.49544,0.28275c-0.27296-0.1576-0.49347-0.53952-0.49258-0.85318           S30.22912,42.21036,30.50208,42.36795z"/></g></g></g></g></g><g><g><g><path class="st8" d="M48.99989,29.72573l-0.008,5.42889c-0.00076,0.32013-0.21114,0.6395-0.63111,0.88341l-9.43393,5.48261         c-0.84568,0.49125-2.2211,0.49163-3.07211,0l-9.49567-5.48223c-0.42836-0.24734-0.64217-0.57166-0.64141-0.89598         l0.00801-5.42698c0,0.32318,10.13669,6.37631,10.13669,6.37631c0.85139,0.49125,2.22681,0.49125,3.07249-0.00038         C38.93484,36.09136,48.99913,30.04548,48.99989,29.72573z"/><g><g><g><path class="st7" d="M39.40456,36.81369c-0.09988,0.05766-0.18061,0.1975-0.18029,0.31227l0.00361,2.71555            c0.00032,0.11477,0.08158,0.16108,0.18147,0.10341c0.09988-0.05767,0.18061-0.1975,0.18029-0.31227l-0.00361-2.71555            C39.5857,36.80233,39.50444,36.75602,39.40456,36.81369z"/></g><g><pattern id="SVGID_71_" patternTransform="matrix(-0.00857 0 0 0.00857 -7875.31592 -7858.35449)" xlink:href="#Unnamed_Pattern_11"/><path class="st85" d="M39.5046,39.58795l-0.00361-2.71555c-0.0001-0.03419-0.00742-0.06226-0.02024-0.08336            c0.06193-0.00266,0.10504,0.04454,0.10527,0.12805l0.00361,2.71555c0.00032,0.11477-0.08041,0.2546-0.18029,0.31227            c-0.07012,0.04048-0.13102,0.02966-0.16122-0.02006c0.02318-0.001,0.04899-0.00893,0.07619-0.02464            C39.42419,39.84256,39.50492,39.70272,39.5046,39.58795z"/></g></g><g><g><path class="st7" d="M47.17037,32.30052c-0.09988,0.05767-0.18061,0.1975-0.18029,0.31227l0.00361,2.71555            c0.00032,0.11477,0.08158,0.16108,0.18147,0.10341c0.09988-0.05766,0.18061-0.1975,0.18029-0.31227l-0.00361-2.71555            C47.35151,32.28916,47.27025,32.24286,47.17037,32.30052z"/></g><g><pattern id="SVGID_72_" patternTransform="matrix(-0.00857 0 0 0.00857 -7875.29053 -7858.37793)" xlink:href="#Unnamed_Pattern_11"/><path class="st86" d="M47.27041,35.07478l-0.00361-2.71555c-0.0001-0.0342-0.00742-0.06226-0.02024-0.08336            c0.06193-0.00266,0.10504,0.04454,0.10527,0.12805l0.00361,2.71555c0.00032,0.11477-0.08041,0.25461-0.18029,0.31227            c-0.07012,0.04049-0.13102,0.02966-0.16122-0.02005c0.02319-0.001,0.04899-0.00893,0.07619-0.02464            C47.19,35.32939,47.27074,35.18955,47.27041,35.07478z"/></g></g><g><g><path class="st7" d="M46.06097,32.94526c-0.09988,0.05767-0.18061,0.1975-0.18029,0.31227l0.00361,2.71555            c0.00032,0.11477,0.08159,0.16108,0.18147,0.10341c0.09988-0.05766,0.18061-0.1975,0.18029-0.31227l-0.00361-2.71555            C46.24211,32.9339,46.16085,32.88759,46.06097,32.94526z"/></g><g><pattern id="SVGID_73_" patternTransform="matrix(-0.00857 0 0 0.00857 -7876.40039 -7857.73291)" xlink:href="#Unnamed_Pattern_11"/><path class="st87" d="M46.16101,35.71952l-0.00361-2.71555c-0.0001-0.03419-0.00742-0.06226-0.02024-0.08336            c0.06193-0.00266,0.10504,0.04454,0.10527,0.12805l0.00361,2.71555c0.00033,0.11477-0.08041,0.2546-0.18029,0.31227            c-0.07012,0.04049-0.13102,0.02967-0.16122-0.02005c0.02318-0.001,0.04898-0.00893,0.07619-0.02464            C46.0806,35.97412,46.16133,35.83429,46.16101,35.71952z"/></g></g><g><g><path class="st7" d="M44.95156,33.59c-0.09988,0.05766-0.18061,0.1975-0.18029,0.31227l0.00361,2.71555            c0.00032,0.11477,0.08159,0.16108,0.18147,0.10341c0.09988-0.05767,0.18061-0.1975,0.18029-0.31227l-0.00361-2.71555            C45.13271,33.57864,45.05145,33.53233,44.95156,33.59z"/></g><g><pattern id="SVGID_74_" patternTransform="matrix(-0.00857 0 0 0.00857 -7877.50977 -7857.08838)" xlink:href="#Unnamed_Pattern_11"/><path class="st88" d="M45.05161,36.36426L45.048,33.64871c-0.0001-0.03419-0.00742-0.06226-0.02024-0.08336            c0.06193-0.00266,0.10504,0.04454,0.10528,0.12805l0.0036,2.71555c0.00033,0.11477-0.08041,0.2546-0.18029,0.31227            c-0.07012,0.04048-0.13102,0.02966-0.16122-0.02006c0.02318-0.001,0.04898-0.00893,0.07619-0.02464            C44.9712,36.61887,45.05193,36.47903,45.05161,36.36426z"/></g></g><g><g><path class="st7" d="M43.84216,34.23473c-0.09988,0.05766-0.18061,0.1975-0.18029,0.31227l0.00361,2.71555            c0.00032,0.11477,0.08159,0.16108,0.18147,0.10341c0.09988-0.05767,0.18061-0.1975,0.18029-0.31227l-0.00361-2.71555            C44.0233,34.22338,43.94204,34.17707,43.84216,34.23473z"/></g><g><pattern id="SVGID_75_" patternTransform="matrix(-0.00857 0 0 0.00857 -7878.61914 -7856.44336)" xlink:href="#Unnamed_Pattern_11"/><path class="st89" d="M43.94221,37.009l-0.00361-2.71555c-0.0001-0.03419-0.00743-0.06226-0.02024-0.08335            c0.06193-0.00267,0.10504,0.04454,0.10528,0.12805l0.0036,2.71555c0.00033,0.11477-0.08041,0.2546-0.18029,0.31227            c-0.07012,0.04048-0.13102,0.02966-0.16122-0.02005c0.02318-0.001,0.04898-0.00893,0.07619-0.02464            C43.8618,37.2636,43.94253,37.12377,43.94221,37.009z"/></g></g><g><g><path class="st7" d="M42.73277,34.87947c-0.09988,0.05767-0.18061,0.1975-0.18029,0.31227l0.00361,2.71555            c0.00033,0.11477,0.08159,0.16108,0.18147,0.10341c0.09988-0.05767,0.18061-0.1975,0.18029-0.31227l-0.00361-2.71555            C42.9139,34.86811,42.83264,34.8218,42.73277,34.87947z"/></g><g><pattern id="SVGID_76_" patternTransform="matrix(-0.00857 0 0 0.00857 -7879.72852 -7855.79883)" xlink:href="#Unnamed_Pattern_11"/><path class="st90" d="M42.83281,37.65374l-0.00361-2.71555c-0.0001-0.03419-0.00743-0.06226-0.02024-0.08335            c0.06193-0.00266,0.10504,0.04454,0.10528,0.12805l0.00361,2.71555c0.00032,0.11477-0.08041,0.2546-0.18029,0.31227            c-0.07012,0.04049-0.13102,0.02966-0.16122-0.02005c0.02318-0.001,0.04898-0.00893,0.07619-0.02464            C42.7524,37.90834,42.83313,37.76851,42.83281,37.65374z"/></g></g><g><g><path class="st7" d="M41.62336,35.52421c-0.09988,0.05767-0.18061,0.1975-0.18029,0.31227l0.00361,2.71555            c0.00033,0.11477,0.08159,0.16108,0.18147,0.10341c0.09988-0.05766,0.18061-0.1975,0.18029-0.31227l-0.00361-2.71555            C41.8045,35.51285,41.72324,35.46655,41.62336,35.52421z"/></g><g><pattern id="SVGID_77_" patternTransform="matrix(-0.00857 0 0 0.00857 -7880.83789 -7855.15381)" xlink:href="#Unnamed_Pattern_11"/><path class="st91" d="M41.7234,38.29847l-0.00361-2.71555c-0.0001-0.0342-0.00743-0.06226-0.02024-0.08336            c0.06193-0.00266,0.10504,0.04454,0.10528,0.12805l0.00361,2.71555c0.00032,0.11477-0.08041,0.2546-0.18029,0.31227            c-0.07012,0.04049-0.13102,0.02966-0.16122-0.02005c0.02318-0.001,0.04898-0.00893,0.07619-0.02464            C41.64299,38.55308,41.72373,38.41324,41.7234,38.29847z"/></g></g><g><g><path class="st7" d="M40.51396,36.16895c-0.09988,0.05766-0.18061,0.1975-0.18029,0.31227l0.00361,2.71555            c0.00032,0.11477,0.08158,0.16108,0.18147,0.10341c0.09988-0.05766,0.18061-0.1975,0.18029-0.31227l-0.00361-2.71555            C40.6951,36.15759,40.61384,36.11128,40.51396,36.16895z"/></g><g><pattern id="SVGID_78_" patternTransform="matrix(-0.00857 0 0 0.00857 -7881.94727 -7854.50928)" xlink:href="#Unnamed_Pattern_11"/><path class="st92" d="M40.614,38.94321l-0.00361-2.71555c-0.0001-0.03419-0.00742-0.06226-0.02024-0.08336            c0.06193-0.00266,0.10504,0.04454,0.10528,0.12805l0.00361,2.71555c0.00032,0.11477-0.08041,0.2546-0.18029,0.31227            c-0.07012,0.04049-0.13102,0.02967-0.16122-0.02005c0.02318-0.001,0.04899-0.00893,0.07619-0.02464            C40.5336,39.19781,40.61433,39.05798,40.614,38.94321z"/></g></g></g><path class="st7" d="M48.3587,28.82969c0.85115,0.49141,0.85563,1.28796,0.01001,1.77937l-9.43401,5.48244         c-0.84562,0.49142-2.22102,0.49157-3.07217,0.00016l-9.49572-5.48236c-0.85115-0.49141-0.85539-1.2881-0.00978-1.77951         l9.434-5.48244c0.84562-0.49142,2.22078-0.49142,3.07193-0.00001L48.3587,28.82969z"/><g><path class="st8" d="M44.669,29.3259c0.3765,0.21737,0.37823,0.56963,0.00417,0.787l-6.60725,3.83972          c-0.37405,0.21738-0.98219,0.21753-1.35869,0.00015l-6.65048-3.83965c-0.3765-0.21737-0.37848-0.56978-0.00443-0.78715          l6.60725-3.83972c0.37405-0.21737,0.98244-0.21738,1.35894-0.00001L44.669,29.3259z"/></g><g><g><pattern id="SVGID_79_" patternTransform="matrix(0.05589 0 0 0.05589 -7349.20313 -7479.24316)" xlink:href="#Unnamed_Pattern_12"/><path class="st93" d="M27.31929,33.41959c0.27296,0.15759,0.49311,0.53891,0.49222,0.85256           s-0.22248,0.44035-0.49544,0.28275s-0.49347-0.53953-0.49258-0.85318           C26.82438,33.38806,27.04633,33.26199,27.31929,33.41959z"/></g><g><pattern id="SVGID_80_" patternTransform="matrix(0.05589 0 0 0.05589 -7349.20313 -7479.24316)" xlink:href="#Unnamed_Pattern_12"/><path class="st94" d="M28.91068,34.33838c0.27261,0.15739,0.49311,0.53891,0.49223,0.85257           s-0.22283,0.44014-0.49544,0.28275c-0.27296-0.15759-0.49347-0.53952-0.49258-0.85318S28.63773,34.18078,28.91068,34.33838           z"/></g><g><pattern id="SVGID_81_" patternTransform="matrix(0.05589 0 0 0.05589 -7349.20313 -7479.24316)" xlink:href="#Unnamed_Pattern_12"/><path class="st95" d="M30.50208,35.25717c0.27261,0.15739,0.49312,0.53891,0.49223,0.85257           c-0.00089,0.31366-0.22284,0.44014-0.49544,0.28275c-0.27296-0.15759-0.49347-0.53952-0.49258-0.85318           C30.00717,35.22564,30.22912,35.09957,30.50208,35.25717z"/></g></g></g></g></g><g><g><g><path class="st8" d="M48.99989,22.61494l-0.008,5.42889c-0.00076,0.32013-0.21114,0.6395-0.63111,0.88341l-9.43393,5.48261         c-0.84568,0.49125-2.2211,0.49163-3.07211,0l-9.49567-5.48223c-0.42836-0.24734-0.64217-0.57166-0.64141-0.89598         l0.00801-5.42699c0,0.32318,10.13669,6.37631,10.13669,6.37631c0.85139,0.49125,2.22681,0.49125,3.07249-0.00038         C38.93484,28.98058,48.99913,22.93469,48.99989,22.61494z"/><g><g><g><path class="st7" d="M39.40456,29.7029c-0.09988,0.05766-0.18061,0.1975-0.18029,0.31227l0.00361,2.71555            c0.00032,0.11477,0.08158,0.16108,0.18147,0.10341c0.09988-0.05767,0.18061-0.1975,0.18029-0.31227l-0.00361-2.71555            C39.5857,29.69154,39.50444,29.64524,39.40456,29.7029z"/></g><g><pattern id="SVGID_82_" patternTransform="matrix(-0.00857 0 0 0.00857 -7875.31592 -7865.46533)" xlink:href="#Unnamed_Pattern_11"/><path class="st96" d="M39.5046,32.47717l-0.00361-2.71555c-0.0001-0.0342-0.00742-0.06226-0.02024-0.08336            c0.06193-0.00266,0.10504,0.04454,0.10527,0.12805l0.00361,2.71555c0.00032,0.11477-0.08041,0.2546-0.18029,0.31227            c-0.07012,0.04048-0.13102,0.02966-0.16122-0.02005c0.02318-0.001,0.04899-0.00893,0.07619-0.02464            C39.42419,32.73177,39.50492,32.59193,39.5046,32.47717z"/></g></g><g><g><path class="st7" d="M47.17037,25.18973c-0.09988,0.05766-0.18061,0.1975-0.18029,0.31227l0.00361,2.71555            c0.00032,0.11477,0.08158,0.16108,0.18147,0.10341s0.18061-0.1975,0.18029-0.31227l-0.00361-2.71555            C47.35151,25.17838,47.27025,25.13207,47.17037,25.18973z"/></g><g><pattern id="SVGID_83_" patternTransform="matrix(-0.00857 0 0 0.00857 -7875.29053 -7865.48828)" xlink:href="#Unnamed_Pattern_11"/><path class="st97" d="M47.27041,27.964l-0.00361-2.71555c-0.0001-0.0342-0.00742-0.06226-0.02024-0.08336            c0.06193-0.00266,0.10504,0.04454,0.10527,0.12805l0.00361,2.71555c0.00032,0.11477-0.08041,0.25461-0.18029,0.31227            c-0.07012,0.04048-0.13102,0.02966-0.16122-0.02006c0.02319-0.001,0.04899-0.00893,0.07619-0.02464            C47.19,28.2186,47.27074,28.07877,47.27041,27.964z"/></g></g><g><g><path class="st7" d="M46.06097,25.83447c-0.09988,0.05766-0.18061,0.1975-0.18029,0.31227l0.00361,2.71555            c0.00032,0.11477,0.08159,0.16108,0.18147,0.10341c0.09988-0.05766,0.18061-0.1975,0.18029-0.31227l-0.00361-2.71555            C46.24211,25.82311,46.16085,25.77681,46.06097,25.83447z"/></g><g><pattern id="SVGID_84_" patternTransform="matrix(-0.00857 0 0 0.00857 -7876.40039 -7864.84375)" xlink:href="#Unnamed_Pattern_11"/><path class="st98" d="M46.16101,28.60874l-0.00361-2.71555c-0.0001-0.03419-0.00742-0.06226-0.02024-0.08336            c0.06193-0.00266,0.10504,0.04454,0.10527,0.12805l0.00361,2.71555c0.00033,0.11477-0.08041,0.2546-0.18029,0.31227            c-0.07012,0.04048-0.13102,0.02966-0.16122-0.02005c0.02318-0.001,0.04898-0.00893,0.07619-0.02464            C46.0806,28.86334,46.16133,28.72351,46.16101,28.60874z"/></g></g><g><g><path class="st7" d="M44.95156,26.47921c-0.09988,0.05766-0.18061,0.1975-0.18029,0.31227l0.00361,2.71555            c0.00032,0.11477,0.08159,0.16108,0.18147,0.10341c0.09988-0.05767,0.18061-0.1975,0.18029-0.31227l-0.00361-2.71555            C45.13271,26.46785,45.05145,26.42155,44.95156,26.47921z"/></g><g><pattern id="SVGID_85_" patternTransform="matrix(-0.00857 0 0 0.00857 -7877.50977 -7864.19922)" xlink:href="#Unnamed_Pattern_11"/><path class="st99" d="M45.05161,29.25347L45.048,26.53793c-0.0001-0.03419-0.00742-0.06226-0.02024-0.08336            c0.06193-0.00266,0.10504,0.04454,0.10528,0.12805l0.0036,2.71555c0.00033,0.11477-0.08041,0.25461-0.18029,0.31227            c-0.07012,0.04048-0.13102,0.02966-0.16122-0.02006c0.02318-0.001,0.04898-0.00893,0.07619-0.02464            C44.9712,29.50808,45.05193,29.36824,45.05161,29.25347z"/></g></g><g><g><path class="st7" d="M43.84216,27.12395c-0.09988,0.05766-0.18061,0.1975-0.18029,0.31227l0.00361,2.71555            c0.00032,0.11477,0.08159,0.16108,0.18147,0.10341c0.09988-0.05766,0.18061-0.1975,0.18029-0.31227l-0.00361-2.71555            C44.0233,27.11259,43.94204,27.06628,43.84216,27.12395z"/></g><g><pattern id="SVGID_86_" patternTransform="matrix(-0.00857 0 0 0.00857 -7878.61914 -7863.5542)" xlink:href="#Unnamed_Pattern_11"/><path class="st100" d="M43.94221,29.89821l-0.00361-2.71555c-0.0001-0.0342-0.00743-0.06226-0.02024-0.08336            c0.06193-0.00266,0.10504,0.04454,0.10528,0.12805l0.0036,2.71555c0.00033,0.11477-0.08041,0.2546-0.18029,0.31227            c-0.07012,0.04048-0.13102,0.02966-0.16122-0.02005c0.02318-0.001,0.04898-0.00893,0.07619-0.02464            C43.8618,30.15282,43.94253,30.01298,43.94221,29.89821z"/></g></g><g><g><path class="st7" d="M42.73277,27.76869c-0.09988,0.05766-0.18061,0.1975-0.18029,0.31227l0.00361,2.71555            c0.00033,0.11477,0.08159,0.16108,0.18147,0.10341c0.09988-0.05766,0.18061-0.1975,0.18029-0.31227l-0.00361-2.71555            C42.9139,27.75733,42.83264,27.71102,42.73277,27.76869z"/></g><g><pattern id="SVGID_87_" patternTransform="matrix(-0.00857 0 0 0.00857 -7879.72852 -7862.90967)" xlink:href="#Unnamed_Pattern_11"/><path class="st101" d="M42.83281,30.54295L42.8292,27.8274c-0.0001-0.03419-0.00743-0.06226-0.02024-0.08336            c0.06193-0.00266,0.10504,0.04454,0.10528,0.12805l0.00361,2.71555c0.00032,0.11477-0.08041,0.2546-0.18029,0.31227            c-0.07012,0.04048-0.13102,0.02966-0.16122-0.02006c0.02318-0.001,0.04898-0.00893,0.07619-0.02464            C42.7524,30.79755,42.83313,30.65772,42.83281,30.54295z"/></g></g><g><g><path class="st7" d="M41.62336,28.41342c-0.09988,0.05766-0.18061,0.1975-0.18029,0.31227l0.00361,2.71555            c0.00033,0.11477,0.08159,0.16108,0.18147,0.10341c0.09988-0.05766,0.18061-0.1975,0.18029-0.31227l-0.00361-2.71555            C41.8045,28.40207,41.72324,28.35576,41.62336,28.41342z"/></g><g><pattern id="SVGID_88_" patternTransform="matrix(-0.00857 0 0 0.00857 -7880.83789 -7862.26465)" xlink:href="#Unnamed_Pattern_11"/><path class="st102" d="M41.7234,31.18769l-0.00361-2.71555c-0.0001-0.0342-0.00743-0.06226-0.02024-0.08336            c0.06193-0.00266,0.10504,0.04454,0.10528,0.12805l0.00361,2.71555c0.00032,0.11477-0.08041,0.25461-0.18029,0.31227            c-0.07012,0.04048-0.13102,0.02966-0.16122-0.02005c0.02318-0.001,0.04898-0.00893,0.07619-0.02464            C41.64299,31.44229,41.72373,31.30246,41.7234,31.18769z"/></g></g><g><g><path class="st7" d="M40.51396,29.05816c-0.09988,0.05766-0.18061,0.1975-0.18029,0.31227l0.00361,2.71555            c0.00032,0.11477,0.08158,0.16108,0.18147,0.10341c0.09988-0.05767,0.18061-0.1975,0.18029-0.31227l-0.00361-2.71555            C40.6951,29.0468,40.61384,29.0005,40.51396,29.05816z"/></g><g><pattern id="SVGID_89_" patternTransform="matrix(-0.00857 0 0 0.00857 -7881.94727 -7861.62012)" xlink:href="#Unnamed_Pattern_11"/><path class="st103" d="M40.614,31.83243l-0.00361-2.71555c-0.0001-0.03419-0.00742-0.06226-0.02024-0.08336            c0.06193-0.00266,0.10504,0.04454,0.10528,0.12805l0.00361,2.71555c0.00032,0.11477-0.08041,0.2546-0.18029,0.31227            c-0.07012,0.04048-0.13102,0.02966-0.16122-0.02006c0.02318-0.001,0.04899-0.00893,0.07619-0.02464            C40.5336,32.08703,40.61433,31.9472,40.614,31.83243z"/></g></g></g><path class="st9" d="M48.3587,21.71891c0.85115,0.49141,0.85563,1.28796,0.01001,1.77938l-9.43401,5.48244         c-0.84562,0.49142-2.22102,0.49157-3.07217,0.00016l-9.49572-5.48236c-0.85115-0.49141-0.85539-1.2881-0.00978-1.77951         l9.434-5.48244c0.84562-0.49142,2.22078-0.49142,3.07193-0.00001L48.3587,21.71891z"/><g><g><path class="st8" d="M37.29112,17.03276c0.09189,0.05305,0.09237,0.13843,0.00212,0.19088l-1.51322,0.87939           c-0.0913,0.05306-0.23869,0.05306-0.33059,0c-0.09084-0.05244-0.09238-0.13843-0.00108-0.19149l1.51322-0.87939           C37.05183,16.9797,37.20029,16.98031,37.29112,17.03276z"/></g><g><path class="st8" d="M38.77727,17.89079c0.0919,0.05306,0.09237,0.13843,0.00212,0.19088l-1.51322,0.87939           c-0.0913,0.05305-0.23869,0.05306-0.33059,0c-0.09084-0.05244-0.09132-0.13782-0.00002-0.19088l1.51322-0.87939           C38.53904,17.83834,38.68644,17.83834,38.77727,17.89079z"/></g><g><path class="st8" d="M40.26448,18.74943c0.09084,0.05245,0.09238,0.13843,0.00213,0.19088l-1.51322,0.87939           c-0.0913,0.05306-0.23975,0.05245-0.33059,0c-0.09189-0.05305-0.09237-0.13843-0.00108-0.19149l1.51322-0.87939           C40.02519,18.69637,40.17258,18.69637,40.26448,18.74943z"/></g><g><path class="st8" d="M39.52087,18.32011c0.0919,0.05306,0.09238,0.13843,0.00213,0.19088l-1.51322,0.87939           c-0.0913,0.05305-0.23869,0.05306-0.33059,0c-0.09084-0.05244-0.09237-0.13843-0.00108-0.19149l1.51322-0.87939           C39.28159,18.26705,39.43004,18.26766,39.52087,18.32011z"/></g><g><path class="st8" d="M38.03473,17.46208c0.09084,0.05245,0.09237,0.13843,0.00212,0.19088l-1.51322,0.87939           c-0.0913,0.05306-0.23975,0.05245-0.33059,0c-0.09189-0.05305-0.09238-0.13843-0.00108-0.19149l1.51322-0.87939           C37.79544,17.40902,37.94283,17.40902,38.03473,17.46208z"/></g><g><path class="st8" d="M44.3469,21.10642c0.09189,0.05305,0.09237,0.13843,0.00212,0.19088l-1.51322,0.87939           c-0.0913,0.05306-0.23869,0.05306-0.33058,0c-0.09084-0.05245-0.09132-0.13783-0.00003-0.19088l1.51322-0.87939           C44.10867,21.05397,44.25606,21.05397,44.3469,21.10642z"/></g><g><path class="st8" d="M45.83411,21.96506c0.09084,0.05244,0.09132,0.13782,0.00107,0.19027l-1.51322,0.87939           c-0.0913,0.05306-0.23869,0.05306-0.32953,0.00061c-0.0919-0.05306-0.09238-0.13843-0.00108-0.19149l1.51322-0.87939           C45.59482,21.912,45.74221,21.912,45.83411,21.96506z"/></g><g><path class="st8" d="M45.09051,21.53574c0.09084,0.05244,0.09237,0.13843,0.00212,0.19088L43.57941,22.606           c-0.0913,0.05306-0.23974,0.05245-0.33058,0c-0.0919-0.05306-0.09238-0.13843-0.00108-0.19149l1.51322-0.87939           C44.85122,21.48268,44.99861,21.48268,45.09051,21.53574z"/></g><g><path class="st8" d="M43.60435,20.67771c0.09084,0.05244,0.09132,0.13782,0.00107,0.19027l-1.51322,0.87939           c-0.0913,0.05306-0.23869,0.05306-0.32953,0.00061c-0.0919-0.05306-0.09238-0.13843-0.00108-0.19149l1.51322-0.87939           C43.36506,20.62465,43.51246,20.62465,43.60435,20.67771z"/></g><g><path class="st8" d="M46.57666,22.39376c0.0919,0.05306,0.09238,0.13843,0.00213,0.19088l-1.51322,0.87939           c-0.0913,0.05306-0.23869,0.05306-0.33059,0c-0.09084-0.05244-0.09237-0.13843-0.00108-0.19148l1.51322-0.87939           C46.33737,22.34071,46.48582,22.34132,46.57666,22.39376z"/></g></g><g><g><pattern id="SVGID_90_" patternTransform="matrix(0.05589 0 0 0.05589 -7349.20313 -7486.354)" xlink:href="#Unnamed_Pattern_12"/><path class="st104" d="M27.31929,26.3088c0.27296,0.15759,0.49311,0.53891,0.49222,0.85256           c-0.00089,0.31366-0.22248,0.44034-0.49544,0.28275s-0.49347-0.53953-0.49258-0.85318           C26.82438,26.27727,27.04633,26.1512,27.31929,26.3088z"/></g><g><pattern id="SVGID_91_" patternTransform="matrix(0.05589 0 0 0.05589 -7349.20313 -7486.354)" xlink:href="#Unnamed_Pattern_12"/><path class="st105" d="M28.91068,27.22759c0.27261,0.15739,0.49311,0.53891,0.49223,0.85257           c-0.00089,0.31366-0.22283,0.44014-0.49544,0.28275c-0.27296-0.15759-0.49347-0.53952-0.49258-0.85318           C28.41578,27.19606,28.63773,27.07,28.91068,27.22759z"/></g><g><pattern id="SVGID_92_" patternTransform="matrix(0.05589 0 0 0.05589 -7349.20313 -7486.354)" xlink:href="#Unnamed_Pattern_12"/><path class="st106" d="M30.50208,28.14638c0.27261,0.15739,0.49312,0.53891,0.49223,0.85257           c-0.00089,0.31366-0.22284,0.44014-0.49544,0.28275c-0.27296-0.15759-0.49347-0.53952-0.49258-0.85318           S30.22912,27.98879,30.50208,28.14638z"/></g></g></g></g></g></g></g></g><g><g class="st10"><g><path class="st4" d="M21.97092,5.14869l0.70665-0.4107c0.25293-0.30109,0.5461-0.55044,0.87645-0.74242l-0.70665,0.41067      C22.51699,4.59821,22.22382,4.84756,21.97092,5.14869z"/><path class="st2" d="M29.47985,1.93405c-0.93725-0.54114-1.89037-0.86883-2.80332-0.9254      c-0.79634-0.04917-1.49256,0.11276-2.07369,0.45048l-0.70668,0.41067c0.58114-0.33769,1.27736-0.49965,2.07369-0.45048      c0.91295,0.05658,1.86608,0.38426,2.80336,0.9254c1.80733,1.04355,3.55523,2.88068,4.83892,5.09681l0.70665-0.4107      C33.03511,4.81473,31.2872,2.9776,29.47985,1.93405z"/><polygon class="st2" points="35.54921,6.14236 34.84256,6.55303 36.12823,13.31873 36.83492,12.90807     "/></g><g><path class="st5" d="M28.77318,2.34474c1.80735,1.04353,3.55525,2.88066,4.83892,5.09678l1.23045-0.88847l1.28571,6.7657      l-5.33368-3.83463l0.99271-0.71627c-1.17411-1.67018-2.60238-3.04044-4.0697-3.88754      c-0.93507-0.53982-1.88612-0.86727-2.79691-0.92423c-1.24695-0.07522-2.25169,0.36148-2.94977,1.1926      c0.34336-2.36953,1.78392-3.86613,3.99893-3.72935C26.88279,1.47591,27.83592,1.80359,28.77318,2.34474z"/></g></g></g></g></svg>