<?xml version="1.0" ?><svg id="Layer_1" style="enable-background:new 0 0 50 50;" version="1.1" viewBox="0 0 50 50" xml:space="preserve" xmlns="http://www.w3.org/2000/svg" xmlns:xlink="http://www.w3.org/1999/xlink"><style type="text/css">
	.st0{fill:#B7C5FD;}
	.st1{fill:#9AADFD;}
	.st2{fill:#FFFFFF;}
	.st3{fill:#3955D1;}
	.st4{fill:#4466FB;}
	.st5{fill:#AABAFD;}
	.st6{fill:#798FFE;}
	.st7{fill:#6BB5FB;}
	.st8{enable-background:new    ;}
	.st9{fill:#1B2A4F;}
	.st10{fill:url(#);}
	.st11{fill:#384E85;}
	.st12{fill:#2E4277;}
	.st13{fill:#D9DDF6;}
	.st14{fill:#535D88;}
	.st15{fill:#2B3C67;}
	.st16{fill:#8FCCFF;}
	.st17{fill:#8CA1FD;}
	.st18{opacity:0.3;}
	.st19{opacity:0.3;fill:#4466FB;}
	.st20{opacity:0.2;}
</style><g><g><g><g><path class="st0" d="M22.42982,17.96816l16.98163-9.80408c0.50977-0.29547,0.97156-0.32135,1.30774-0.12927L28.82001,1.12472      c-0.3324-0.1958-0.79419-0.16626-1.30395,0.12561l-16.98169,9.80401c-0.45355,0.26154-0.86316,0.69476-1.18274,1.19385      l11.89807,6.90948C21.56891,18.66066,21.97748,18.22902,22.42982,17.96816z"/><path class="st5" d="M20.6012,21.13399c-0.00201-0.64362,0.25336-1.36115,0.6485-1.97632L9.35163,12.24819      c-0.39362,0.61475-0.64789,1.33142-0.64581,1.97571l0.04065,26.56305c0,0.57996,0.20685,0.98633,0.53564,1.17841      l11.57373,6.72332l0.07117-0.04108c-0.17603-0.22192-0.28253-0.53918-0.28516-0.94684L20.6012,21.13399z"/></g><g><path class="st11" d="M19.28674,20.3685l0.04065,26.56307c0,0.57997,0.20687,0.98631,0.53562,1.17841l1.31449,0.76551      c-0.32878-0.1921-0.53195-0.59844-0.53564-1.17471c0,0,19.74112-39.85804,20.0773-39.66596l-1.31819-0.76551      c-0.33245-0.19577-0.79421-0.16624-1.304,0.12561l-16.98166,9.80406C20.10314,17.78265,19.28304,19.20116,19.28674,20.3685z"/></g><g><path class="st11" d="M8.70581,14.2239l0.04065,26.56307c0,0.57997,0.20687,0.98631,0.53562,1.17841l1.31449,0.76551      c-0.32878-0.1921-0.53195-0.59844-0.53565-1.17471L10.02031,14.9894c-0.0037-1.16362,0.8164-2.58215,1.82857-3.16582      l16.98164-9.80406c0.50978-0.29552,0.97154-0.32138,1.30772-0.12931l-1.31819-0.76551      c-0.33245-0.19577-0.79421-0.16624-1.304,0.12561l-16.98166,9.80406C9.52221,11.63805,8.70212,13.05656,8.70581,14.2239z"/></g><g><path class="st12" d="M22.43035,17.96743c-1.01181,0.58417-1.83227,2.00254-1.82897,3.1679l0.04144,26.56413      c0.00331,1.16536,0.82911,1.63326,1.84092,1.04909l16.98148-9.80426c1.01181-0.58417,1.83227-2.00254,1.82896-3.1679      L41.25275,9.21226c-0.0033-1.16536-0.82911-1.63326-1.84092-1.04909L22.43035,17.96743z"/></g></g><g><g><path class="st11" d="M26.83031,30.54027l0.83623,1.12562l-0.90277,0.52122l-0.72463-1.08328l-0.57196,0.33022l0.00425,1.49919      l-0.78221,0.45161l-0.01196-4.21695l1.7159-0.99068c0.76365-0.44089,1.23831-0.13847,1.24054,0.64666      C27.6358,29.56282,27.22575,30.20523,26.83031,30.54027z M26.29042,30.16876c0.30608-0.17672,0.54353-0.53085,0.54251-0.88969      c-0.00099-0.34814-0.23966-0.42386-0.54574-0.24715l-0.82548,0.47659l0.00322,1.13684L26.29042,30.16876"/></g><g><path class="st11" d="M30.52677,25.79068l1.42178,3.40299l-0.88423,0.51051l-0.2339-0.5802l-1.57059,0.90678l-0.22986,0.84796      l-0.88423,0.51051l1.40096-5.03269L30.52677,25.79068z M29.47092,29.11536l1.14393-0.66045l-0.57711-1.48159L29.47092,29.11536"/></g><g><polygon class="st11" points="33.36498,24.15206 33.37693,28.369 32.59782,28.81882 32.58587,24.60188     "/></g><g><path class="st11" d="M35.84143,22.72226c1.14702-0.66223,1.94706-0.28079,1.95064,0.9804      c0.00363,1.27892-0.79166,2.57432-1.9325,3.23298l-1.45311,0.83895l-0.01196-4.21695L35.84143,22.72226z M35.85114,26.14698      c0.72345-0.41769,1.14532-1.26262,1.14328-1.9838c-0.00209-0.73895-0.39946-1.08245-1.14456-0.65227l-0.6709,0.38734      l0.00747,2.63249L35.85114,26.14698"/></g></g><g><g><polygon class="st11" points="14.55767,31.87456 14.5551,32.78404 10.87025,30.65659 10.87283,29.74711     "/></g><g><polygon class="st11" points="14.55177,33.95586 14.5492,34.86534 10.86435,32.73789 10.86693,31.82841     "/></g><g class="st8"><g><polygon class="st11" points="14.56356,29.79764 14.56098,30.7071 10.87614,28.57965 10.87871,27.67019      "/></g><g><polygon class="st11" points="14.56946,27.71634 14.56688,28.6258 10.88204,26.49835 10.88461,25.58889      "/></g><g><polygon class="st11" points="14.57536,25.63504 14.57278,26.5445 10.88794,24.41706 10.89051,23.50759      "/></g><g><polygon class="st11" points="14.58125,23.5581 14.57867,24.46758 10.89382,22.34013 10.8964,21.43065      "/></g><g><polygon class="st11" points="14.58715,21.4768 14.58457,22.38628 10.89972,20.25883 10.9023,19.34935      "/></g><g><polygon class="st11" points="14.59305,19.3955 14.59047,20.30498 10.90563,18.17753 10.9082,17.26805      "/></g></g><g><polygon class="st11" points="14.59894,17.31858 14.59636,18.22806 10.91151,16.10061 10.91409,15.19113     "/></g><g><polygon class="st11" points="18.31506,23.62911 18.31248,24.53859 16.99708,23.77914 16.99966,22.86966     "/></g><g><polygon class="st11" points="18.32096,21.54781 18.31838,22.45729 17.00298,21.69784 17.00556,20.78836     "/></g><g><polygon class="st11" points="18.32685,19.47088 18.32427,20.38036 17.00887,19.62092 17.01144,18.71144     "/></g><g><ellipse class="st2" cx="15.76205" cy="18.44558" rx="0.32312" ry="0.55785" transform="matrix(0.86461 -0.50245 0.50245 0.86461 -7.13391 10.4171)"/></g><g><ellipse class="st2" cx="15.75616" cy="20.5225" rx="0.32312" ry="0.55785" transform="matrix(0.86461 -0.50245 0.50245 0.86461 -8.17827 10.69534)"/></g><g><ellipse class="st2" cx="15.75026" cy="22.6038" rx="0.32312" ry="0.55785" transform="matrix(0.86461 -0.50245 0.50245 0.86461 -9.22482 10.97418)"/></g><g><polygon class="st11" points="18.30327,27.78735 18.30069,28.69681 16.98529,27.93736 16.98787,27.0279     "/></g><g><polygon class="st11" points="18.30916,25.71041 18.30658,26.61989 16.99118,25.86044 16.99376,24.95096     "/></g><g><ellipse class="st2" cx="15.74436" cy="24.6851" rx="0.32312" ry="0.55785" transform="matrix(0.86461 -0.50245 0.50245 0.86461 -10.27137 11.25301)"/></g><g><path class="st2" d="M15.73976,26.3073c0.2169,0.12523,0.39516,0.43398,0.39446,0.68321      c-0.00072,0.2536-0.18014,0.35148-0.39703,0.22626c-0.2207-0.12742-0.39517-0.42962-0.39445-0.68322      C15.34343,26.28431,15.51906,26.17988,15.73976,26.3073z"/></g><g><polygon class="st11" points="18.28558,34.02687 18.283,34.93635 16.9676,34.1769 16.97018,33.26742     "/></g><g><polygon class="st11" points="18.29147,31.94994 18.28889,32.85941 16.97349,32.09996 16.97607,31.1905     "/></g><g><polygon class="st11" points="18.29737,29.86864 18.29479,30.77811 16.97939,30.01866 16.98197,29.1092     "/></g><g><path class="st2" d="M15.73386,28.3886c0.2169,0.12523,0.39516,0.43398,0.39445,0.68321s-0.18014,0.35148-0.39703,0.22626      c-0.2207-0.12742-0.39516-0.43399-0.39445-0.68322S15.51316,28.26118,15.73386,28.3886z"/></g><g><path class="st2" d="M15.72796,30.4699c0.2169,0.12523,0.39517,0.42962,0.39445,0.68322      c-0.00071,0.24923-0.18013,0.35147-0.39703,0.22624c-0.2207-0.12742-0.39516-0.43398-0.39445-0.68321      C15.33165,30.44255,15.50726,30.34248,15.72796,30.4699z"/></g><g><ellipse class="st2" cx="15.72078" cy="33.00156" rx="0.32312" ry="0.55785" transform="matrix(0.86461 -0.50245 0.50245 0.86461 -14.45318 12.36717)"/></g><g><polygon class="st11" points="18.27968,36.10817 18.2771,37.01765 16.9617,36.2582 16.96428,35.34872     "/></g><g><ellipse class="st2" cx="15.71488" cy="35.08286" rx="0.32312" ry="0.55785" transform="matrix(0.86461 -0.50245 0.50245 0.86461 -15.49973 12.646)"/></g><g><polygon class="st11" points="14.53998,38.11408 14.53741,39.02356 10.85256,36.89611 10.85514,35.98663     "/></g><g><polygon class="st11" points="14.54587,36.03716 14.54329,36.94664 10.85845,34.81919 10.86102,33.90971     "/></g><g><polygon class="st11" points="18.2561,44.42463 18.25351,45.33847 16.93811,44.57902 16.9407,43.66518     "/></g><g><polygon class="st11" points="18.26199,42.34769 18.25941,43.25717 16.94401,42.49772 16.94659,41.58824     "/></g><g><polygon class="st11" points="18.26789,40.26639 18.26531,41.17587 16.94991,40.41642 16.95249,39.50694     "/></g><g><polygon class="st11" points="18.27378,38.18946 18.2712,39.09895 16.9558,38.3395 16.95838,37.43002     "/></g><g><ellipse class="st2" cx="15.70898" cy="37.16416" rx="0.32312" ry="0.55785" transform="matrix(0.86461 -0.50245 0.50245 0.86461 -16.54628 12.92483)"/></g><g><ellipse class="st2" cx="15.70309" cy="39.24109" rx="0.32312" ry="0.55785" transform="matrix(0.86461 -0.50245 0.50245 0.86461 -17.59063 13.20308)"/></g><g><polygon class="st11" points="14.53408,40.19538 14.53151,41.10486 10.84666,38.97741 10.84924,38.06793     "/></g><g><ellipse class="st2" cx="15.69719" cy="41.32238" rx="0.32312" ry="0.55785" transform="matrix(0.86461 -0.50245 0.50245 0.86461 -18.63718 13.48191)"/></g><g><polygon class="st11" points="14.5282,42.27232 14.52561,43.18616 10.84076,41.05871 10.84335,40.14487     "/></g><g><path class="st2" d="M15.69259,42.94458c0.2169,0.12523,0.39516,0.43399,0.39444,0.68758      c-0.00071,0.24923-0.18014,0.35148-0.39703,0.22626c-0.2207-0.12742-0.39516-0.43399-0.39445-0.68322      C15.29627,42.92161,15.47189,42.81716,15.69259,42.94458z"/></g></g></g><g><g class="st8"><g><path class="st9" d="M29.3384,9.26226l0.00001,0.93088c-0.00188,0.66274-0.43744,1.3245-1.30767,1.83023      c-1.75146,1.01784-4.60095,1.01786-6.36389,0.00003c-0.88725-0.51226-1.33032-1.18461-1.32841-1.85593l-0.00001-0.93088      c-0.0019,0.67132,0.44116,1.34367,1.32841,1.85593c1.76294,1.01783,4.61243,1.01781,6.36389-0.00003      C28.90096,10.58676,29.33652,9.925,29.3384,9.26226z"/></g><ellipse class="st11" cx="24.8384" cy="9.2494" rx="2.60652" ry="4.49999" transform="matrix(0.00284 -1 1 0.00284 15.51859 34.06147)"/></g></g><path class="st7" d="M28.32931,9.00092c-0.0033,0.51486-0.33995,1.02641-1.01322,1.41916c-1.35975,0.7888-3.57101,0.7888-4.93737,0   c-0.68977-0.39603-1.033-0.91749-1.02972-1.43896c0,0,0-4.08587,0.0033-4.13536c0.07921-1.86142,1.60728-3.34329,3.4852-3.34329   c0.96373,0,1.83501,0.38944,2.4687,1.02311c0.60726,0.60398,0.99011,1.43568,1.01981,2.35317   C28.32931,4.91504,28.32931,9.00092,28.32931,9.00092z"/><g><path class="st2" d="M27.17594,5.48831c-0.12255,0-0.22363-0.09661-0.229-0.21916    c-0.05635-1.34626-1.15573-2.40002-2.50199-2.40002c-0.12613,0-0.229-0.10287-0.229-0.229c0-0.12613,0.10287-0.229,0.229-0.229    c1.59226,0,2.89201,1.24697,2.95999,2.83834c0.00537,0.12613-0.09303,0.23347-0.21916,0.23884    C27.1822,5.48831,27.17862,5.48831,27.17594,5.48831z"/></g></g></svg>