<?xml version="1.0" ?><svg id="Layer_1" style="enable-background:new 0 0 50 50;" version="1.1" viewBox="0 0 50 50" xml:space="preserve" xmlns="http://www.w3.org/2000/svg" xmlns:xlink="http://www.w3.org/1999/xlink"><style type="text/css">
	.st0{fill:#B7C5FD;}
	.st1{fill:#9AADFD;}
	.st2{fill:#FFFFFF;}
	.st3{fill:#3955D1;}
	.st4{fill:#4466FB;}
	.st5{fill:#AABAFD;}
	.st6{fill:#798FFE;}
	.st7{fill:#6BB5FB;}
	.st8{enable-background:new    ;}
	.st9{fill:#1B2A4F;}
	.st10{fill:url(#);}
	.st11{fill:#384E85;}
	.st12{fill:#2E4277;}
	.st13{fill:#D9DDF6;}
	.st14{fill:#535D88;}
	.st15{fill:#2B3C67;}
	.st16{fill:#8FCCFF;}
	.st17{fill:#8CA1FD;}
	.st18{opacity:0.3;}
	.st19{opacity:0.3;fill:#4466FB;}
	.st20{opacity:0.2;}
</style><g><g><g><g><polygon class="st13" points="7.45207,37.56189 24.69261,27.54278 42.56638,37.8622 25.32584,47.88131     "/></g><g><g><polygon class="st5" points="25.32584,47.88131 42.56638,37.8622 42.54793,38.98089 25.30739,49      "/></g><g><polygon class="st0" points="25.32584,47.88131 25.30739,49 7.43362,38.68057 7.45207,37.56189      "/></g></g></g><g><g><g><g><g><polygon class="st9" points="24.70035,16.70086 38.65442,9.02133 38.64008,38.2888 25.23893,46.07669        "/></g><g><g><g><polygon class="st11" points="32.86272,39.08636 32.86452,39.72319 37.28928,37.16856 37.28748,36.53173          "/></g><g><polygon class="st11" points="32.85023,34.68332 32.85204,35.32016 37.2768,32.76552 37.27499,32.12868          "/></g><g><polygon class="st11" points="32.85336,35.78408 32.85516,36.42091 37.27992,33.86628 37.27811,33.22945          "/></g><g><polygon class="st11" points="32.85648,36.88484 32.85828,37.52168 37.28304,34.96704 37.28123,34.33021          "/></g><g><polygon class="st11" points="32.8596,37.9856 32.8614,38.62244 37.28616,36.0678 37.28436,35.43097          "/></g></g><g><g><polygon class="st11" points="32.86272,19.6955 32.86452,20.33233 37.28928,17.77769 37.28748,17.14086          "/></g><g><polygon class="st11" points="32.85023,15.29245 32.85204,15.92929 37.2768,13.37466 37.27499,12.73782          "/></g><g><polygon class="st11" points="32.85336,16.39322 32.85516,17.03005 37.27992,14.47541 37.27811,13.83858          "/></g><g><polygon class="st11" points="32.85648,17.49398 32.85828,18.13081 37.28304,15.57618 37.28123,14.93934          "/></g><g><polygon class="st11" points="32.8596,18.59474 32.8614,19.23157 37.28616,16.67694 37.28436,16.04011          "/></g></g></g><g><polygon class="st12" points="25.25328,16.70086 25.23893,46.07669 11.34558,38.05536 11.35992,8.78789        "/></g></g><g><g><g><polygon class="st4" points="24.12654,17.77246 24.70035,17.439 24.68813,20.55261 24.11432,20.88607         "/></g><g><polygon class="st0" points="11.91073,10.71966 12.48454,10.38619 24.70035,17.439 24.12654,17.77246         "/></g><g><polygon class="st0" points="24.12654,17.77246 24.11432,20.88607 11.8985,13.83327 11.91073,10.71966         "/><polygon class="st7" points="24.12654,17.77246 24.11432,20.88607 11.8985,13.83327 11.91073,10.71966         "/></g></g><g><g><polygon class="st11" points="13.55578,12.51362 13.55405,12.93904 12.69853,12.44511 12.70026,12.01969         "/></g><g><polygon class="st11" points="14.79759,13.23059 14.79587,13.65601 13.94237,13.16324 13.9441,12.73782         "/></g><g><polygon class="st11" points="23.00533,17.96933 23.00361,18.39475 22.14809,17.90081 22.14981,17.47539         "/></g><g><ellipse class="st2" cx="22.83844" cy="19.17444" rx="0.13207" ry="0.22802" transform="matrix(0.8646 -0.50245 0.50245 0.8646 -6.54203 14.07138)"/></g><g><path class="st2" d="M22.28868,18.67086c0.09039,0.05219,0.16152,0.17721,0.16123,0.27926          c-0.00029,0.10205-0.07189,0.14467-0.16228,0.09248c-0.08881-0.05127-0.15993-0.1763-0.15964-0.27834          C22.12827,18.6622,22.19988,18.61959,22.28868,18.67086z"/></g><g><ellipse class="st2" cx="21.73945" cy="18.53994" rx="0.13207" ry="0.22802" transform="matrix(0.8646 -0.50245 0.50245 0.8646 -6.37202 13.43328)"/></g><g><ellipse class="st2" cx="21.18917" cy="18.22223" rx="0.13207" ry="0.22802" transform="matrix(0.8646 -0.50245 0.50245 0.8646 -6.2869 13.11377)"/></g></g><path class="st4" d="M12.32702,11.35818l-0.0736-0.04233l-0.00914,2.29064l-0.00048,0.0279l11.4542,6.61298l0.0736,0.04233        l0.00914-2.29064l0.00048-0.0279L12.32702,11.35818z M23.67347,20.12038L12.34289,13.5786l0.00866-2.09342l11.33057,6.54179        L23.67347,20.12038z"/></g><g><g><g><polygon class="st4" points="24.12654,22.45363 24.70035,22.12017 24.68813,25.23378 24.11432,25.56725         "/></g><g><polygon class="st0" points="11.91073,15.40083 12.48454,15.06737 24.70035,22.12017 24.12654,22.45363         "/></g><g><polygon class="st0" points="24.12654,22.45363 24.11432,25.56725 11.8985,18.51444 11.91073,15.40083         "/><polygon class="st7" points="24.12654,22.45363 24.11432,25.56725 11.8985,18.51444 11.91073,15.40083         "/></g></g><g><g><polygon class="st11" points="13.55578,17.1948 13.55405,17.62022 12.69853,17.12628 12.70026,16.70086         "/></g><g><polygon class="st11" points="14.79759,17.91176 14.79587,18.33718 13.94237,17.84441 13.9441,17.41899         "/></g><g><polygon class="st11" points="23.00533,22.6505 23.00361,23.07592 22.14809,22.58199 22.14981,22.15657         "/></g><g><ellipse class="st2" cx="22.83844" cy="23.85561" rx="0.13207" ry="0.22802" transform="matrix(0.8646 -0.50245 0.50245 0.8646 -8.8941 14.70519)"/></g><g><path class="st2" d="M22.28868,23.35203c0.09039,0.05219,0.16152,0.17721,0.16123,0.27926          c-0.00029,0.10205-0.07189,0.14467-0.16228,0.09248c-0.08881-0.05127-0.15993-0.1763-0.15964-0.27835          C22.12827,23.34338,22.19988,23.30076,22.28868,23.35203z"/></g><g><ellipse class="st2" cx="21.73945" cy="23.22111" rx="0.13207" ry="0.22802" transform="matrix(0.8646 -0.50245 0.50245 0.8646 -8.72409 14.06709)"/></g><g><ellipse class="st2" cx="21.18917" cy="22.9034" rx="0.13207" ry="0.22802" transform="matrix(0.8646 -0.50245 0.50245 0.8646 -8.63897 13.74758)"/></g></g><path class="st4" d="M12.32702,16.03936l-0.0736-0.04233l-0.00914,2.29064l-0.00048,0.0279l11.4542,6.61298l0.0736,0.04233        l0.00914-2.29064l0.00048-0.0279L12.32702,16.03936z M23.67347,24.80156l-11.33057-6.54179l0.00866-2.09342l11.33057,6.54178        L23.67347,24.80156z"/></g><g><g><g><polygon class="st4" points="24.12654,27.13481 24.70035,26.80134 24.68813,29.91496 24.11432,30.24842         "/></g><g><polygon class="st0" points="11.91073,20.08201 12.48454,19.74854 24.70035,26.80134 24.12654,27.13481         "/></g><g><polygon class="st0" points="24.12654,27.13481 24.11432,30.24842 11.8985,23.19562 11.91073,20.08201         "/><polygon class="st7" points="24.12654,27.13481 24.11432,30.24842 11.8985,23.19562 11.91073,20.08201         "/></g></g><g><g><polygon class="st11" points="13.55578,21.87597 13.55405,22.30139 12.69853,21.80746 12.70026,21.38204         "/></g><g><polygon class="st11" points="14.79759,22.59293 14.79587,23.01835 13.94237,22.52559 13.9441,22.10017         "/></g><g><polygon class="st11" points="23.00533,27.33167 23.00361,27.75709 22.14809,27.26316 22.14981,26.83774         "/></g><g><ellipse class="st2" cx="22.83844" cy="28.53679" rx="0.13207" ry="0.22802" transform="matrix(0.8646 -0.50245 0.50245 0.8646 -11.24617 15.339)"/></g><g><path class="st2" d="M22.28868,28.03321c0.09039,0.05219,0.16152,0.17721,0.16123,0.27926          c-0.00029,0.10205-0.07189,0.14467-0.16228,0.09248c-0.08881-0.05127-0.15993-0.1763-0.15964-0.27835          C22.12827,28.02455,22.19988,27.98194,22.28868,28.03321z"/></g><g><ellipse class="st2" cx="21.73945" cy="27.90228" rx="0.13207" ry="0.22802" transform="matrix(0.8646 -0.50245 0.50245 0.8646 -11.07617 14.7009)"/></g><g><ellipse class="st2" cx="21.18917" cy="27.58458" rx="0.13207" ry="0.22802" transform="matrix(0.8646 -0.50245 0.50245 0.8646 -10.99104 14.38139)"/></g></g><path class="st4" d="M12.32702,20.72053l-0.0736-0.04233l-0.00914,2.29064l-0.00048,0.0279l11.4542,6.61298l0.0736,0.04233        l0.00914-2.29064l0.00048-0.0279L12.32702,20.72053z M23.67347,29.48273l-11.33057-6.54179l0.00866-2.09342l11.33057,6.54179        L23.67347,29.48273z"/></g><g><g><g><polygon class="st4" points="24.12654,31.81598 24.70035,31.48252 24.68813,34.59613 24.11432,34.92959         "/></g><g><polygon class="st0" points="11.91073,24.76318 12.48454,24.42972 24.70035,31.48252 24.12654,31.81598         "/></g><g><polygon class="st0" points="24.12654,31.81598 24.11432,34.92959 11.8985,27.87679 11.91073,24.76318         "/><polygon class="st7" points="24.12654,31.81598 24.11432,34.92959 11.8985,27.87679 11.91073,24.76318         "/></g></g><g><g><polygon class="st11" points="13.55578,26.55715 13.55405,26.98256 12.69853,26.48863 12.70026,26.06321         "/></g><g><polygon class="st11" points="14.79759,27.27411 14.79587,27.69953 13.94237,27.20676 13.9441,26.78134         "/></g><g><polygon class="st11" points="23.00533,32.01285 23.00361,32.43827 22.14809,31.94433 22.14981,31.51892         "/></g><g><ellipse class="st2" cx="22.83844" cy="33.21796" rx="0.13207" ry="0.22802" transform="matrix(0.8646 -0.50245 0.50245 0.8646 -13.59825 15.97281)"/></g><g><path class="st2" d="M22.28868,32.71438c0.09039,0.05219,0.16152,0.17721,0.16123,0.27926          c-0.00029,0.10205-0.07189,0.14467-0.16228,0.09248c-0.08881-0.05127-0.15993-0.1763-0.15964-0.27834          C22.12827,32.70572,22.19988,32.66311,22.28868,32.71438z"/></g><g><ellipse class="st2" cx="21.73945" cy="32.58346" rx="0.13207" ry="0.22802" transform="matrix(0.8646 -0.50245 0.50245 0.8646 -13.42824 15.33471)"/></g><g><ellipse class="st2" cx="21.18917" cy="32.26575" rx="0.13207" ry="0.22802" transform="matrix(0.8646 -0.50245 0.50245 0.8646 -13.34311 15.0152)"/></g></g><path class="st4" d="M12.32702,25.40171l-0.0736-0.04233l-0.00914,2.29064l-0.00048,0.0279l11.4542,6.61298l0.0736,0.04233        l0.00914-2.29064l0.00048-0.0279L12.32702,25.40171z M23.67347,34.1639l-11.33057-6.54178l0.00866-2.09342l11.33057,6.54179        L23.67347,34.1639z"/></g><g><g><g><polygon class="st4" points="24.12654,36.49716 24.70035,36.16369 24.68813,39.2773 24.11432,39.61077         "/></g><g><polygon class="st0" points="11.91073,29.44435 12.48454,29.11089 24.70035,36.16369 24.12654,36.49716         "/></g><g><polygon class="st0" points="24.12654,36.49716 24.11432,39.61077 11.8985,32.55796 11.91073,29.44435         "/><polygon class="st7" points="24.12654,36.49716 24.11432,39.61077 11.8985,32.55796 11.91073,29.44435         "/></g></g><g><g><polygon class="st11" points="13.55578,31.23832 13.55405,31.66374 12.69853,31.16981 12.70026,30.74439         "/></g><g><polygon class="st11" points="14.79759,31.95528 14.79587,32.3807 13.94237,31.88794 13.9441,31.46252         "/></g><g><polygon class="st11" points="23.00533,36.69402 23.00361,37.11944 22.14809,36.62551 22.14981,36.20009         "/></g><g><ellipse class="st2" cx="22.83844" cy="37.89914" rx="0.13207" ry="0.22802" transform="matrix(0.8646 -0.50245 0.50245 0.8646 -15.95032 16.60662)"/></g><g><path class="st2" d="M22.28868,37.39555c0.09039,0.05219,0.16152,0.17721,0.16123,0.27926          c-0.00029,0.10204-0.07189,0.14467-0.16228,0.09248c-0.08881-0.05127-0.15993-0.1763-0.15964-0.27835          C22.12827,37.3869,22.19988,37.34428,22.28868,37.39555z"/></g><g><ellipse class="st2" cx="21.73945" cy="37.26463" rx="0.13207" ry="0.22802" transform="matrix(0.8646 -0.50245 0.50245 0.8646 -15.78031 15.96852)"/></g><g><ellipse class="st2" cx="21.18917" cy="36.94692" rx="0.13207" ry="0.22802" transform="matrix(0.8646 -0.50245 0.50245 0.8646 -15.69518 15.64901)"/></g></g><path class="st4" d="M12.32702,30.08288l-0.0736-0.04233l-0.00914,2.29064l-0.00048,0.0279l11.4542,6.61298l0.0736,0.04233        l0.00914-2.29064l0.00048-0.0279L12.32702,30.08288z M23.67347,38.84508l-11.33057-6.54179l0.00866-2.09342l11.33057,6.54178        L23.67347,38.84508z"/></g><g><g><polygon class="st9" points="23.39522,40.08549 23.39522,42.02007 23.38625,43.81131 22.58913,43.34557 22.58913,41.56329          22.5981,39.61981        "/><polygon class="st9" points="14.30464,34.8282 15.10175,35.29394 15.09279,37.23742 15.09279,39.0197 14.28676,38.55402          14.29572,36.77168        "/><polygon class="st9" points="16.33771,36.01043 16.75868,36.25226 16.74972,38.18678 16.74972,39.97802 16.32875,39.73624          15.94364,39.51234 15.9526,37.73 15.96157,35.78652        "/><polygon class="st9" points="19.27538,37.70316 20.08141,38.16891 20.07244,40.11239 20.07244,41.89467 19.26641,41.42893          19.26641,39.64665        "/><polygon class="st9" points="21.3084,38.87643 21.73834,39.12717 21.73834,41.06174 21.72937,42.85299 21.29944,42.60219          20.93226,42.38725 20.93226,40.60497 20.94122,38.66149        "/><polygon class="st9" points="17.61845,36.74484 18.41556,37.21058 18.41556,39.1451 18.4066,40.93634 17.60948,40.4706          17.60948,38.68833        "/><polygon class="st9" points="12.63879,33.87884 13.44487,34.33562 13.43591,36.2791 13.43591,38.06138 12.62983,37.60466          12.63879,35.81342        "/></g></g></g></g><g><g><g class="st8"><g><path class="st0" d="M31.66984,38.60616c-0.00719,0.00723-0.6431,0.96109-0.37573,2.92664         c0.55639,4.14059-1.07669,7.64527-5.99054,6.11332l-0.19508-0.05778l-0.19512-0.16623         c-4.90656-4.14059-6.5108-9.51687-5.93271-12.9999c0.2746-1.66201-0.35407-3.33126-0.35407-3.34573l-0.39743-1.01887         l2.6737-0.65038l0.44079,0.44802c0.32519,0.33242,0.6648,0.59978,1.00445,0.8021         c1.25012,0.71543,2.2401,0.35412,2.24733,0.35412l0.56366-0.20959l0.55639,0.85992         c0.00723,0.00723,0.99722,1.51029,2.24014,2.22568c0.33961,0.20231,0.67926,0.32518,1.01164,0.36854l0.4336,0.05778         l2.66646,3.73597L31.66984,38.60616z"/></g><g><path class="st13" d="M33.21872,37.37748l-2.66404-3.73619L30.11681,33.584c-0.32325-0.04093-0.667-0.16777-1.01076-0.36422         c-1.23993-0.72019-2.22616-2.21796-2.23437-2.22612l-0.56062-0.86349l-0.56062,0.21281l-0.0123,0.0041         c-0.12275,0.03678-1.06805,0.31099-2.23432-0.36422c-0.34376-0.1964-0.68336-0.4665-1.0108-0.79799l-0.43783-0.45014         l-2.6722,0.65474l-1.14528,0.66608l2.66514-0.6483l0.44079,0.44802c0.32519,0.33242,0.6648,0.59978,1.00445,0.8021         c1.25012,0.71543,2.2401,0.35412,2.24733,0.35412l0.56366-0.20959l0.55639,0.85992         c0.00723,0.00723,0.99722,1.51029,2.24014,2.22568c0.33961,0.20231,0.67926,0.32518,1.01164,0.36854l0.4336,0.05778         l2.66646,3.73597l-0.39747,0.55639c-0.00719,0.00723-0.6431,0.96109-0.37573,2.92664         c0.34706,2.58293-0.15847,4.91772-1.7803,5.93748l1.05729-0.61116c1.69823-0.99029,2.23022-3.36377,1.8742-5.99918         c-0.2619-1.96422,0.37238-2.91773,0.37648-2.92593L33.21872,37.37748z"/></g><g><path class="st3" d="M25.15279,32.10036c0.06004,0.09338,1.2007,1.86754,2.799,2.79033         c0.41884,0.24182,0.86499,0.41875,1.32399,0.4802l1.63958,2.29984c-0.04033,0.05595-0.8066,1.11907-0.48108,3.5323         c0.44851,3.33827-0.71537,6.78909-5.32249,5.35609c-4.60016-3.88282-5.74071-8.66411-5.27477-11.47442         c0.33812-2.03008-0.41963-3.97308-0.45951-4.07535l1.64724-0.40219c0.45852,0.46835,0.9043,0.8063,1.32341,1.04828         C23.94691,32.57846,25.09249,32.12426,25.15279,32.10036z"/></g></g></g><g><g><path class="st2" d="M26.68672,39.06992c0.35229,0.2034,0.63547,0.69061,0.63433,1.09541l-0.00859,3.0295        c-0.00113,0.39826-0.28615,0.5607-0.63844,0.35731l-3.40921-1.96831c-0.35229-0.2034-0.63546-0.69389-0.63433-1.09214        l0.00859-3.0295c0.00115-0.40481,0.28616-0.56397,0.63845-0.36057L26.68672,39.06992z M25.18821,40.67025        c0.18209,0.0103,0.30767-0.12318,0.30836-0.36478c0.00094-0.33298-0.23126-0.73191-0.51821-0.89758        c-0.28694-0.16566-0.52066-0.03574-0.5216,0.29725c-0.00069,0.24159,0.12374,0.51941,0.3053,0.71907l-0.00251,0.88469        l0.42616,0.24604L25.18821,40.67025"/></g><g><path class="st2" d="M25.0002,35.27369c0.01463,0.00844,0.02921,0.01706,0.04388,0.02594        c0.9062,0.55262,1.64229,1.88663,1.63923,2.9672l-0.00227,0.79981l-0.554-0.31985l0.00227-0.79981        c0.00209-0.73779-0.49333-1.6451-1.10692-2.02225c-0.01058-0.00644-0.02119-0.01273-0.03175-0.01883        c-0.29826-0.17221-0.58418-0.20415-0.79887-0.09124c-0.22515,0.12179-0.34827,0.3875-0.34928,0.74334l-0.00246,0.86837        l-0.55684-0.32149l0.00246-0.86837c0.0015-0.52885,0.18473-0.92009,0.52104-1.10196        C24.1295,34.96322,24.55576,35.0171,25.0002,35.27369z"/></g></g></g></g></g><g><polygon class="st11" points="11.35992,8.78789 24.76107,1 38.65442,9.02133 25.25328,16.80922   "/></g><g><path class="st9" d="M34.39031,8.39916c0.48353,0.27917,0.48574,0.73156,0.00536,1.01073l-8.48551,4.93124    c-0.48038,0.27917-1.2614,0.27936-1.74493,0.0002L15.6242,9.41016c-0.48353-0.27917-0.48608-0.73175-0.00569-1.01092    L24.10403,3.468c0.48038-0.27917,1.26173-0.27917,1.74525-0.00001L34.39031,8.39916z"/></g></g></svg>