<?xml version="1.0" ?><svg id="Layer_1" style="enable-background:new 0 0 50 50;" version="1.1" viewBox="0 0 50 50" xml:space="preserve" xmlns="http://www.w3.org/2000/svg" xmlns:xlink="http://www.w3.org/1999/xlink"><style type="text/css">
	.st0{fill:#B7C5FD;}
	.st1{fill:#9AADFD;}
	.st2{fill:#FFFFFF;}
	.st3{fill:#3955D1;}
	.st4{fill:#4466FB;}
	.st5{fill:#AABAFD;}
	.st6{fill:#798FFE;}
	.st7{fill:#6BB5FB;}
	.st8{enable-background:new    ;}
	.st9{fill:#1B2A4F;}
	.st10{fill:url(#);}
	.st11{fill:#384E85;}
	.st12{fill:#2E4277;}
	.st13{fill:#D9DDF6;}
	.st14{fill:#535D88;}
	.st15{fill:#2B3C67;}
	.st16{fill:#8FCCFF;}
	.st17{fill:#8CA1FD;}
	.st18{opacity:0.3;}
	.st19{opacity:0.3;fill:#4466FB;}
	.st20{opacity:0.2;}
</style><g><g><g><g><g><polygon class="st9" points="15.41599,10.60052 24.22566,5.94332 24.2148,27.45988 15.40514,32.57949      "/></g><g><polygon class="st11" points="6.82912,6.1053 15.63878,0.98569 24.22566,5.94332 15.41599,11.06294      "/></g><g><polygon class="st12" points="15.41599,11.06294 15.40514,32.57949 6.81826,27.62186 6.82912,6.1053      "/><g><polygon class="st11" points="7.8662,7.30377 7.34772,7.00446 7.33758,27.32201 14.88636,31.68051 14.88687,31.03214         7.85656,26.97298       "/><polygon class="st9" points="7.8662,7.30377 7.85656,26.97298 14.88687,31.03214 14.89701,11.36245       "/></g></g></g><g><polygon class="st12" points="14.36596,12.09777 14.35863,14.42915 8.56715,11.08543 8.57447,8.75405     "/><g><g><g><polygon class="st3" points="9.97373,10.24826 10.18298,10.12666 10.17531,11.62643 9.96606,11.74804        "/></g><g><polygon class="st7" points="9.60683,10.03643 9.81608,9.91483 10.18298,10.12666 9.97373,10.24826        "/></g><polygon class="st4" points="9.97373,10.24826 9.96606,11.74804 9.59916,11.53621 9.60683,10.03643       "/></g><g><g><polygon class="st3" points="10.72231,10.68045 10.93156,10.55885 10.92389,12.05863 10.71464,12.18023        "/></g><g><polygon class="st7" points="10.35541,10.46862 10.56466,10.34702 10.93156,10.55885 10.72231,10.68045        "/></g><polygon class="st4" points="10.72231,10.68045 10.71464,12.18023 10.34774,11.9684 10.35541,10.46862       "/></g><g><g><polygon class="st3" points="11.47089,11.11265 11.68014,10.99104 11.67247,12.49082 11.46322,12.61242        "/></g><g><polygon class="st7" points="11.10399,10.90082 11.31324,10.77921 11.68014,10.99104 11.47089,11.11265        "/></g><polygon class="st4" points="11.47089,11.11265 11.46322,12.61242 11.09632,12.40059 11.10399,10.90082       "/></g><g><g><polygon class="st3" points="12.21947,11.54484 12.42872,11.42324 12.42105,12.92301 12.2118,13.04462        "/></g><g><polygon class="st7" points="11.85257,11.33301 12.06183,11.21141 12.42872,11.42324 12.21947,11.54484        "/></g><polygon class="st4" points="12.21947,11.54484 12.2118,13.04462 11.8449,12.83279 11.85257,11.33301       "/></g><g><g><polygon class="st3" points="12.96805,11.97703 13.1773,11.85543 13.16963,13.35521 12.96038,13.47681        "/></g><g><polygon class="st7" points="12.60115,11.7652 12.81041,11.6436 13.1773,11.85543 12.96805,11.97703        "/></g><polygon class="st4" points="12.96805,11.97703 12.96038,13.47681 12.59348,13.26498 12.60115,11.7652       "/></g><g><g><polygon class="st3" points="13.71663,12.40923 13.92589,12.28762 13.91822,13.7874 13.70896,13.909        "/></g><g><polygon class="st7" points="13.34974,12.1974 13.55899,12.07579 13.92589,12.28762 13.71663,12.40923        "/></g><polygon class="st4" points="13.71663,12.40923 13.70896,13.909 13.34207,13.69717 13.34974,12.1974       "/></g><g><g><polygon class="st3" points="9.22515,9.81607 9.4344,9.69446 9.42673,11.19424 9.21748,11.31584        "/></g><g><polygon class="st7" points="8.85825,9.60424 9.0675,9.48263 9.4344,9.69446 9.22515,9.81607        "/></g><polygon class="st4" points="9.22515,9.81607 9.21748,11.31584 8.85058,11.10401 8.85825,9.60424       "/></g></g></g><g><polygon class="st12" points="14.36596,15.19915 14.35863,17.53052 8.56715,14.18681 8.57447,11.85543     "/><g><g><g><polygon class="st3" points="9.97373,13.34964 10.18298,13.22803 10.17531,14.72781 9.96606,14.84941        "/></g><g><polygon class="st7" points="9.60683,13.13781 9.81608,13.0162 10.18298,13.22803 9.97373,13.34964        "/></g><polygon class="st4" points="9.97373,13.34964 9.96606,14.84941 9.59916,14.63758 9.60683,13.13781       "/></g><g><g><polygon class="st3" points="10.72231,13.78183 10.93156,13.66023 10.92389,15.16 10.71464,15.28161        "/></g><g><polygon class="st7" points="10.35541,13.57 10.56466,13.4484 10.93156,13.66023 10.72231,13.78183        "/></g><polygon class="st4" points="10.72231,13.78183 10.71464,15.28161 10.34774,15.06978 10.35541,13.57       "/></g><g><g><polygon class="st3" points="11.47089,14.21402 11.68014,14.09242 11.67247,15.5922 11.46322,15.7138        "/></g><g><polygon class="st7" points="11.10399,14.00219 11.31324,13.88059 11.68014,14.09242 11.47089,14.21402        "/></g><polygon class="st4" points="11.47089,14.21402 11.46322,15.7138 11.09632,15.50197 11.10399,14.00219       "/></g><g><g><polygon class="st3" points="12.21947,14.64622 12.42872,14.52461 12.42105,16.02439 12.2118,16.14599        "/></g><g><polygon class="st7" points="11.85257,14.43439 12.06183,14.31278 12.42872,14.52461 12.21947,14.64622        "/></g><polygon class="st4" points="12.21947,14.64622 12.2118,16.14599 11.8449,15.93416 11.85257,14.43439       "/></g><g><g><polygon class="st3" points="12.96805,15.07841 13.1773,14.95681 13.16963,16.45658 12.96038,16.57819        "/></g><g><polygon class="st7" points="12.60115,14.86658 12.81041,14.74498 13.1773,14.95681 12.96805,15.07841        "/></g><polygon class="st4" points="12.96805,15.07841 12.96038,16.57819 12.59348,16.36636 12.60115,14.86658       "/></g><g><g><polygon class="st3" points="13.71663,15.5106 13.92589,15.389 13.91822,16.88877 13.70896,17.01038        "/></g><g><polygon class="st7" points="13.34974,15.29877 13.55899,15.17717 13.92589,15.389 13.71663,15.5106        "/></g><polygon class="st4" points="13.71663,15.5106 13.70896,17.01038 13.34207,16.79855 13.34974,15.29877       "/></g><g><g><polygon class="st3" points="9.22515,12.91744 9.4344,12.79584 9.42673,14.29562 9.21748,14.41722        "/></g><g><polygon class="st7" points="8.85825,12.70561 9.0675,12.58401 9.4344,12.79584 9.22515,12.91744        "/></g><polygon class="st4" points="9.22515,12.91744 9.21748,14.41722 8.85058,14.20539 8.85825,12.70561       "/></g></g></g><g><polygon class="st12" points="14.36596,18.30052 14.35863,20.6319 8.56715,17.28818 8.57447,14.95681     "/><g><g><g><polygon class="st3" points="9.97373,16.45101 10.18298,16.32941 10.17531,17.82919 9.96606,17.95079        "/></g><g><polygon class="st7" points="9.60683,16.23918 9.81608,16.11758 10.18298,16.32941 9.97373,16.45101        "/></g><polygon class="st4" points="9.97373,16.45101 9.96606,17.95079 9.59916,17.73896 9.60683,16.23918       "/></g><g><g><polygon class="st3" points="10.72231,16.88321 10.93156,16.7616 10.92389,18.26138 10.71464,18.38298        "/></g><g><polygon class="st7" points="10.35541,16.67138 10.56466,16.54977 10.93156,16.7616 10.72231,16.88321        "/></g><polygon class="st4" points="10.72231,16.88321 10.71464,18.38298 10.34774,18.17115 10.35541,16.67138       "/></g><g><g><polygon class="st3" points="11.47089,17.3154 11.68014,17.19379 11.67247,18.69357 11.46322,18.81517        "/></g><g><polygon class="st7" points="11.10399,17.10357 11.31324,16.98197 11.68014,17.19379 11.47089,17.3154        "/></g><polygon class="st4" points="11.47089,17.3154 11.46322,18.81517 11.09632,18.60335 11.10399,17.10357       "/></g><g><g><polygon class="st3" points="12.21947,17.74759 12.42872,17.62599 12.42105,19.12576 12.2118,19.24737        "/></g><g><polygon class="st7" points="11.85257,17.53576 12.06183,17.41416 12.42872,17.62599 12.21947,17.74759        "/></g><polygon class="st4" points="12.21947,17.74759 12.2118,19.24737 11.8449,19.03554 11.85257,17.53576       "/></g><g><g><polygon class="st3" points="12.96805,18.17978 13.1773,18.05818 13.16963,19.55796 12.96038,19.67956        "/></g><g><polygon class="st7" points="12.60115,17.96796 12.81041,17.84635 13.1773,18.05818 12.96805,18.17978        "/></g><polygon class="st4" points="12.96805,18.17978 12.96038,19.67956 12.59348,19.46773 12.60115,17.96796       "/></g><g><g><polygon class="st3" points="13.71663,18.61198 13.92589,18.49037 13.91822,19.99015 13.70896,20.11176        "/></g><g><polygon class="st7" points="13.34974,18.40015 13.55899,18.27855 13.92589,18.49037 13.71663,18.61198        "/></g><polygon class="st4" points="13.71663,18.61198 13.70896,20.11176 13.34207,19.89993 13.34974,18.40015       "/></g><g><g><polygon class="st3" points="9.22515,16.01882 9.4344,15.89721 9.42673,17.39699 9.21748,17.51859        "/></g><g><polygon class="st7" points="8.85825,15.80699 9.0675,15.68539 9.4344,15.89721 9.22515,16.01882        "/></g><polygon class="st4" points="9.22515,16.01882 9.21748,17.51859 8.85058,17.30677 8.85825,15.80699       "/></g></g></g><g><polygon class="st12" points="14.36596,21.4019 14.35863,23.73328 8.56715,20.38956 8.57447,18.05818     "/><g><g><g><polygon class="st3" points="9.97373,19.55239 10.18298,19.43078 10.17531,20.93056 9.96606,21.05216        "/></g><g><polygon class="st7" points="9.60683,19.34056 9.81608,19.21896 10.18298,19.43078 9.97373,19.55239        "/></g><polygon class="st4" points="9.97373,19.55239 9.96606,21.05216 9.59916,20.84034 9.60683,19.34056       "/></g><g><g><polygon class="st3" points="10.72231,19.98458 10.93156,19.86298 10.92389,21.36275 10.71464,21.48436        "/></g><g><polygon class="st7" points="10.35541,19.77275 10.56466,19.65115 10.93156,19.86298 10.72231,19.98458        "/></g><polygon class="st4" points="10.72231,19.98458 10.71464,21.48436 10.34774,21.27253 10.35541,19.77275       "/></g><g><g><polygon class="st3" points="11.47089,20.41677 11.68014,20.29517 11.67247,21.79495 11.46322,21.91655        "/></g><g><polygon class="st7" points="11.10399,20.20494 11.31324,20.08334 11.68014,20.29517 11.47089,20.41677        "/></g><polygon class="st4" points="11.47089,20.41677 11.46322,21.91655 11.09632,21.70472 11.10399,20.20494       "/></g><g><g><polygon class="st3" points="12.21947,20.84897 12.42872,20.72736 12.42105,22.22714 12.2118,22.34874        "/></g><g><polygon class="st7" points="11.85257,20.63714 12.06183,20.51554 12.42872,20.72736 12.21947,20.84897        "/></g><polygon class="st4" points="12.21947,20.84897 12.2118,22.34874 11.8449,22.13692 11.85257,20.63714       "/></g><g><g><polygon class="st3" points="12.96805,21.28116 13.1773,21.15956 13.16963,22.65933 12.96038,22.78094        "/></g><g><polygon class="st7" points="12.60115,21.06933 12.81041,20.94773 13.1773,21.15956 12.96805,21.28116        "/></g><polygon class="st4" points="12.96805,21.28116 12.96038,22.78094 12.59348,22.56911 12.60115,21.06933       "/></g><g><g><polygon class="st3" points="13.71663,21.71335 13.92589,21.59175 13.91822,23.09153 13.70896,23.21313        "/></g><g><polygon class="st7" points="13.34974,21.50153 13.55899,21.37992 13.92589,21.59175 13.71663,21.71335        "/></g><polygon class="st4" points="13.71663,21.71335 13.70896,23.21313 13.34207,23.0013 13.34974,21.50153       "/></g><g><g><polygon class="st3" points="9.22515,19.1202 9.4344,18.99859 9.42673,20.49837 9.21748,20.61997        "/></g><g><polygon class="st7" points="8.85825,18.90837 9.0675,18.78676 9.4344,18.99859 9.22515,19.1202        "/></g><polygon class="st4" points="9.22515,19.1202 9.21748,20.61997 8.85058,20.40814 8.85825,18.90837       "/></g></g></g><g><polygon class="st12" points="14.36596,24.50327 14.35863,26.83465 8.56715,23.49093 8.57447,21.15956     "/><g><g><g><polygon class="st3" points="9.97373,22.65376 10.18298,22.53216 10.17531,24.03194 9.96606,24.15354        "/></g><g><polygon class="st7" points="9.60683,22.44193 9.81608,22.32033 10.18298,22.53216 9.97373,22.65376        "/></g><polygon class="st4" points="9.97373,22.65376 9.96606,24.15354 9.59916,23.94171 9.60683,22.44193       "/></g><g><g><polygon class="st3" points="10.72231,23.08596 10.93156,22.96435 10.92389,24.46413 10.71464,24.58573        "/></g><g><polygon class="st7" points="10.35541,22.87413 10.56466,22.75253 10.93156,22.96435 10.72231,23.08596        "/></g><polygon class="st4" points="10.72231,23.08596 10.71464,24.58573 10.34774,24.37391 10.35541,22.87413       "/></g><g><g><polygon class="st3" points="11.47089,23.51815 11.68014,23.39655 11.67247,24.89632 11.46322,25.01793        "/></g><g><polygon class="st7" points="11.10399,23.30632 11.31324,23.18472 11.68014,23.39655 11.47089,23.51815        "/></g><polygon class="st4" points="11.47089,23.51815 11.46322,25.01793 11.09632,24.8061 11.10399,23.30632       "/></g><g><g><polygon class="st3" points="12.21947,23.95034 12.42872,23.82874 12.42105,25.32852 12.2118,25.45012        "/></g><g><polygon class="st7" points="11.85257,23.73851 12.06183,23.61691 12.42872,23.82874 12.21947,23.95034        "/></g><polygon class="st4" points="12.21947,23.95034 12.2118,25.45012 11.8449,25.23829 11.85257,23.73851       "/></g><g><g><polygon class="st3" points="12.96805,24.38254 13.1773,24.26093 13.16963,25.76071 12.96038,25.88231        "/></g><g><polygon class="st7" points="12.60115,24.17071 12.81041,24.0491 13.1773,24.26093 12.96805,24.38254        "/></g><polygon class="st4" points="12.96805,24.38254 12.96038,25.88231 12.59348,25.67048 12.60115,24.17071       "/></g><g><g><polygon class="st3" points="13.71663,24.81473 13.92589,24.69313 13.91822,26.1929 13.70896,26.31451        "/></g><g><polygon class="st7" points="13.34974,24.6029 13.55899,24.4813 13.92589,24.69313 13.71663,24.81473        "/></g><polygon class="st4" points="13.71663,24.81473 13.70896,26.31451 13.34207,26.10268 13.34974,24.6029       "/></g><g><g><polygon class="st3" points="9.22515,22.22157 9.4344,22.09997 9.42673,23.59974 9.21748,23.72135        "/></g><g><polygon class="st7" points="8.85825,22.00974 9.0675,21.88814 9.4344,22.09997 9.22515,22.22157        "/></g><polygon class="st4" points="9.22515,22.22157 9.21748,23.72135 8.85058,23.50952 8.85825,22.00974       "/></g></g></g><g><polygon class="st12" points="14.36596,27.60465 14.35863,29.93603 8.56715,26.59231 8.57447,24.26093     "/><g><g><g><polygon class="st3" points="9.97373,25.75514 10.18298,25.63354 10.17531,27.13331 9.96606,27.25492        "/></g><g><polygon class="st7" points="9.60683,25.54331 9.81608,25.42171 10.18298,25.63354 9.97373,25.75514        "/></g><polygon class="st4" points="9.97373,25.75514 9.96606,27.25492 9.59916,27.04309 9.60683,25.54331       "/></g><g><g><polygon class="st3" points="10.72231,26.18733 10.93156,26.06573 10.92389,27.56551 10.71464,27.68711        "/></g><g><polygon class="st7" points="10.35541,25.9755 10.56466,25.8539 10.93156,26.06573 10.72231,26.18733        "/></g><polygon class="st4" points="10.72231,26.18733 10.71464,27.68711 10.34774,27.47528 10.35541,25.9755       "/></g><g><g><polygon class="st3" points="11.47089,26.61953 11.68014,26.49792 11.67247,27.9977 11.46322,28.1193        "/></g><g><polygon class="st7" points="11.10399,26.4077 11.31324,26.28609 11.68014,26.49792 11.47089,26.61953        "/></g><polygon class="st4" points="11.47089,26.61953 11.46322,28.1193 11.09632,27.90747 11.10399,26.4077       "/></g><g><g><polygon class="st3" points="12.21947,27.05172 12.42872,26.93011 12.42105,28.42989 12.2118,28.5515        "/></g><g><polygon class="st7" points="11.85257,26.83989 12.06183,26.71829 12.42872,26.93011 12.21947,27.05172        "/></g><polygon class="st4" points="12.21947,27.05172 12.2118,28.5515 11.8449,28.33967 11.85257,26.83989       "/></g><g><g><polygon class="st3" points="12.96805,27.48391 13.1773,27.36231 13.16963,28.86209 12.96038,28.98369        "/></g><g><polygon class="st7" points="12.60115,27.27208 12.81041,27.15048 13.1773,27.36231 12.96805,27.48391        "/></g><polygon class="st4" points="12.96805,27.48391 12.96038,28.98369 12.59348,28.77186 12.60115,27.27208       "/></g><g><g><polygon class="st3" points="13.71663,27.91611 13.92589,27.7945 13.91822,29.29428 13.70896,29.41588        "/></g><g><polygon class="st7" points="13.34974,27.70428 13.55899,27.58267 13.92589,27.7945 13.71663,27.91611        "/></g><polygon class="st4" points="13.71663,27.91611 13.70896,29.41588 13.34207,29.20405 13.34974,27.70428       "/></g><g><g><polygon class="st3" points="9.22515,25.32295 9.4344,25.20134 9.42673,26.70112 9.21748,26.82272        "/></g><g><polygon class="st7" points="8.85825,25.11112 9.0675,24.98951 9.4344,25.20134 9.22515,25.32295        "/></g><polygon class="st4" points="9.22515,25.32295 9.21748,26.82272 8.85058,26.6109 8.85825,25.11112       "/></g></g></g><path class="st11" d="M22.16124,26.98102c-0.03095,0.01787-0.05643,0.06201-0.05633,0.09757     c0.0001,0.03633,0.02575,0.05095,0.0567,0.03308l1.37521-0.79398c0.03095-0.01787,0.05643-0.06201,0.05633-0.09834     c-0.0001-0.03556-0.02575-0.05018-0.0567-0.03231L22.16124,26.98102z"/><path class="st11" d="M22.16038,26.67797c-0.03095,0.01787-0.05643,0.062-0.05633,0.09834     c0.0001,0.03556,0.02575,0.05018,0.0567,0.03231l1.37521-0.79398c0.03095-0.01787,0.05643-0.06201,0.05633-0.09757     c-0.0001-0.03633-0.02575-0.05095-0.0567-0.03308L22.16038,26.67797z"/><path class="st11" d="M22.15953,26.37568c-0.03095,0.01787-0.05643,0.06124-0.05633,0.09757     c0.0001,0.03556,0.02575,0.05018,0.0567,0.03231l1.37521-0.79398c0.03095-0.01787,0.05643-0.06201,0.05633-0.09757     c-0.0001-0.03634-0.02575-0.05018-0.0567-0.03231L22.15953,26.37568z"/><path class="st11" d="M22.15867,26.07263c-0.03095,0.01787-0.05643,0.06123-0.05633,0.09757     c0.0001,0.03556,0.02575,0.05018,0.0567,0.03231l1.37521-0.79398c0.03095-0.01787,0.05643-0.06201,0.05633-0.09757     c-0.0001-0.03634-0.02575-0.05018-0.0567-0.03231L22.15867,26.07263z"/><path class="st11" d="M22.15695,25.46651c-0.03095,0.01787-0.05643,0.06123-0.05633,0.09757     c0.0001,0.03556,0.02575,0.05018,0.0567,0.03231l1.37521-0.79398c0.03095-0.01787,0.05643-0.06201,0.05633-0.09757     c-0.0001-0.03633-0.02575-0.05018-0.0567-0.03231L22.15695,25.46651z"/><path class="st11" d="M22.15781,25.76957c-0.03095,0.01787-0.05643,0.06123-0.05633,0.09757     c0.0001,0.03556,0.02575,0.05018,0.0567,0.03231l1.37521-0.79398c0.03095-0.01787,0.05643-0.06201,0.05633-0.09757     c-0.0001-0.03633-0.02575-0.05018-0.0567-0.03231L22.15781,25.76957z"/><path class="st11" d="M22.16124,24.22253c-0.03095,0.01787-0.05643,0.06201-0.05633,0.09757     c0.0001,0.03633,0.02575,0.05095,0.0567,0.03308l1.37521-0.79398c0.03095-0.01787,0.05643-0.06201,0.05633-0.09834     c-0.0001-0.03556-0.02575-0.05018-0.0567-0.03231L22.16124,24.22253z"/><path class="st11" d="M22.16038,23.91948c-0.03095,0.01787-0.05643,0.06201-0.05633,0.09834     c0.0001,0.03556,0.02575,0.05018,0.0567,0.03232l1.37521-0.79398c0.03095-0.01787,0.05643-0.06201,0.05633-0.09757     c-0.0001-0.03633-0.02575-0.05095-0.0567-0.03308L22.16038,23.91948z"/><path class="st11" d="M22.15953,23.61719c-0.03095,0.01787-0.05643,0.06123-0.05633,0.09757     c0.0001,0.03556,0.02575,0.05018,0.0567,0.03231l1.37521-0.79398c0.03095-0.01787,0.05643-0.06201,0.05633-0.09757     c-0.0001-0.03634-0.02575-0.05018-0.0567-0.03231L22.15953,23.61719z"/><path class="st11" d="M22.15867,23.31414c-0.03095,0.01787-0.05643,0.06123-0.05633,0.09757     c0.0001,0.03556,0.02575,0.05018,0.0567,0.03231l1.37521-0.79398c0.03095-0.01787,0.05643-0.06201,0.05633-0.09757     c-0.0001-0.03634-0.02575-0.05018-0.0567-0.03231L22.15867,23.31414z"/><path class="st11" d="M22.15695,22.70802c-0.03095,0.01787-0.05643,0.06124-0.05633,0.09757     c0.0001,0.03556,0.02575,0.05018,0.0567,0.03232l1.37521-0.79398c0.03095-0.01787,0.05643-0.06201,0.05633-0.09757     c-0.0001-0.03633-0.02575-0.05018-0.0567-0.03231L22.15695,22.70802z"/><path class="st11" d="M22.15781,23.01108c-0.03095,0.01787-0.05643,0.06123-0.05633,0.09757     c0.0001,0.03556,0.02575,0.05018,0.0567,0.03231l1.37521-0.79398c0.03095-0.01787,0.05643-0.06201,0.05633-0.09757     c-0.0001-0.03633-0.02575-0.05018-0.0567-0.03231L22.15781,23.01108z"/><path class="st11" d="M22.16124,21.46404c-0.03095,0.01787-0.05643,0.06201-0.05633,0.09757     c0.0001,0.03633,0.02575,0.05095,0.0567,0.03308l1.37521-0.79398c0.03095-0.01787,0.05643-0.06201,0.05633-0.09834     c-0.0001-0.03556-0.02575-0.05018-0.0567-0.03231L22.16124,21.46404z"/><path class="st11" d="M22.16038,21.16099c-0.03095,0.01787-0.05643,0.062-0.05633,0.09834     c0.0001,0.03556,0.02575,0.05018,0.0567,0.03232l1.37521-0.79398c0.03095-0.01787,0.05643-0.06201,0.05633-0.09757     c-0.0001-0.03633-0.02575-0.05095-0.0567-0.03308L22.16038,21.16099z"/><path class="st11" d="M22.15953,20.8587c-0.03095,0.01787-0.05643,0.06123-0.05633,0.09757     c0.0001,0.03556,0.02575,0.05018,0.0567,0.03231l1.37521-0.79398c0.03095-0.01787,0.05643-0.06201,0.05633-0.09757     c-0.0001-0.03634-0.02575-0.05018-0.0567-0.03232L22.15953,20.8587z"/><path class="st11" d="M22.15867,20.55564c-0.03095,0.01787-0.05643,0.06123-0.05633,0.09757     c0.0001,0.03556,0.02575,0.05018,0.0567,0.03231l1.37521-0.79398c0.03095-0.01787,0.05643-0.06201,0.05633-0.09757     c-0.0001-0.03634-0.02575-0.05018-0.0567-0.03231L22.15867,20.55564z"/><path class="st11" d="M22.15695,19.94953c-0.03095,0.01787-0.05643,0.06123-0.05633,0.09757     c0.0001,0.03556,0.02575,0.05018,0.0567,0.03232l1.37521-0.79398c0.03095-0.01787,0.05643-0.06201,0.05633-0.09757     c-0.0001-0.03633-0.02575-0.05018-0.0567-0.03231L22.15695,19.94953z"/><path class="st11" d="M22.15781,20.25259c-0.03095,0.01787-0.05643,0.06123-0.05633,0.09757     c0.0001,0.03556,0.02575,0.05018,0.0567,0.03231l1.37521-0.79398c0.03095-0.01787,0.05643-0.06201,0.05633-0.09757     c-0.0001-0.03633-0.02575-0.05018-0.0567-0.03231L22.15781,20.25259z"/><path class="st11" d="M22.16124,18.70555c-0.03095,0.01787-0.05643,0.06201-0.05633,0.09757     c0.0001,0.03633,0.02575,0.05095,0.0567,0.03308l1.37521-0.79398c0.03095-0.01787,0.05643-0.06201,0.05633-0.09834     c-0.0001-0.03556-0.02575-0.05018-0.0567-0.03232L22.16124,18.70555z"/><path class="st11" d="M22.16038,18.40249c-0.03095,0.01787-0.05643,0.06201-0.05633,0.09834     c0.0001,0.03556,0.02575,0.05018,0.0567,0.03232l1.37521-0.79398c0.03095-0.01787,0.05643-0.06201,0.05633-0.09757     c-0.0001-0.03633-0.02575-0.05095-0.0567-0.03308L22.16038,18.40249z"/><path class="st11" d="M22.15953,18.10021c-0.03095,0.01787-0.05643,0.06123-0.05633,0.09757     c0.0001,0.03556,0.02575,0.05018,0.0567,0.03231l1.37521-0.79398c0.03095-0.01787,0.05643-0.06201,0.05633-0.09757     c-0.0001-0.03634-0.02575-0.05018-0.0567-0.03231L22.15953,18.10021z"/><path class="st11" d="M22.15867,17.79716c-0.03095,0.01787-0.05643,0.06123-0.05633,0.09757     c0.0001,0.03556,0.02575,0.05018,0.0567,0.03231l1.37521-0.79398c0.03095-0.01787,0.05643-0.06201,0.05633-0.09757     c-0.0001-0.03634-0.02575-0.05018-0.0567-0.03231L22.15867,17.79716z"/><path class="st11" d="M22.15695,17.19104c-0.03095,0.01787-0.05643,0.06124-0.05633,0.09757     c0.0001,0.03556,0.02575,0.05018,0.0567,0.03232l1.37521-0.79398c0.03095-0.01787,0.05643-0.06201,0.05633-0.09757     c-0.0001-0.03633-0.02575-0.05018-0.0567-0.03231L22.15695,17.19104z"/><path class="st11" d="M22.15781,17.4941c-0.03095,0.01787-0.05643,0.06123-0.05633,0.09757     c0.0001,0.03556,0.02575,0.05018,0.0567,0.03231L23.53339,16.83c0.03095-0.01787,0.05643-0.06201,0.05633-0.09757     c-0.0001-0.03633-0.02575-0.05018-0.0567-0.03231L22.15781,17.4941z"/><path class="st11" d="M22.16124,15.94706c-0.03095,0.01787-0.05643,0.06201-0.05633,0.09757     c0.0001,0.03633,0.02575,0.05095,0.0567,0.03308l1.37521-0.79398c0.03095-0.01787,0.05643-0.06201,0.05633-0.09834     c-0.0001-0.03556-0.02575-0.05018-0.0567-0.03231L22.16124,15.94706z"/><path class="st11" d="M22.16038,15.644c-0.03095,0.01787-0.05643,0.06201-0.05633,0.09834     c0.0001,0.03556,0.02575,0.05019,0.0567,0.03232l1.37521-0.79398c0.03095-0.01787,0.05643-0.06201,0.05633-0.09757     c-0.0001-0.03633-0.02575-0.05095-0.0567-0.03308L22.16038,15.644z"/><path class="st11" d="M22.15953,15.34172c-0.03095,0.01787-0.05643,0.06123-0.05633,0.09757     c0.0001,0.03556,0.02575,0.05018,0.0567,0.03231l1.37521-0.79398c0.03095-0.01787,0.05643-0.06201,0.05633-0.09757     c-0.0001-0.03634-0.02575-0.05018-0.0567-0.03232L22.15953,15.34172z"/><path class="st11" d="M22.15867,15.03866c-0.03095,0.01787-0.05643,0.06123-0.05633,0.09757     c0.0001,0.03556,0.02575,0.05018,0.0567,0.03231l1.37521-0.79398c0.03095-0.01787,0.05643-0.06201,0.05633-0.09757     c-0.0001-0.03634-0.02575-0.05018-0.0567-0.03231L22.15867,15.03866z"/><path class="st11" d="M22.15695,14.43255c-0.03095,0.01787-0.05643,0.06123-0.05633,0.09757     c0.0001,0.03556,0.02575,0.05019,0.0567,0.03232l1.37521-0.79398c0.03095-0.01787,0.05643-0.06201,0.05633-0.09757     c-0.0001-0.03633-0.02575-0.05018-0.0567-0.03231L22.15695,14.43255z"/><path class="st11" d="M22.15781,14.73561c-0.03095,0.01787-0.05643,0.06123-0.05633,0.09757     c0.0001,0.03556,0.02575,0.05018,0.0567,0.03231l1.37521-0.79398c0.03095-0.01787,0.05643-0.06201,0.05633-0.09757     c-0.0001-0.03633-0.02575-0.05018-0.0567-0.03231L22.15781,14.73561z"/><path class="st11" d="M22.16124,13.18857c-0.03095,0.01787-0.05643,0.06201-0.05633,0.09757     c0.0001,0.03633,0.02575,0.05095,0.0567,0.03308l1.37521-0.79398c0.03095-0.01787,0.05643-0.06201,0.05633-0.09834     c-0.0001-0.03556-0.02575-0.05018-0.0567-0.03232L22.16124,13.18857z"/><path class="st11" d="M22.16038,12.88551c-0.03095,0.01787-0.05643,0.06201-0.05633,0.09834     c0.0001,0.03556,0.02575,0.05018,0.0567,0.03232l1.37521-0.79398c0.03095-0.01787,0.05643-0.06201,0.05633-0.09757     c-0.0001-0.03633-0.02575-0.05095-0.0567-0.03308L22.16038,12.88551z"/><path class="st11" d="M22.15953,12.58323c-0.03095,0.01787-0.05643,0.06123-0.05633,0.09757     c0.0001,0.03556,0.02575,0.05018,0.0567,0.03231l1.37521-0.79398c0.03095-0.01787,0.05643-0.06201,0.05633-0.09757     c-0.0001-0.03634-0.02575-0.05018-0.0567-0.03232L22.15953,12.58323z"/><path class="st11" d="M22.15867,12.28017c-0.03095,0.01787-0.05643,0.06123-0.05633,0.09757     c0.0001,0.03556,0.02575,0.05018,0.0567,0.03231l1.37521-0.79398c0.03095-0.01787,0.05643-0.06201,0.05633-0.09757     c-0.0001-0.03634-0.02575-0.05018-0.0567-0.03231L22.15867,12.28017z"/><path class="st11" d="M22.15695,11.67406c-0.03095,0.01787-0.05643,0.06123-0.05633,0.09757     c0.0001,0.03556,0.02575,0.05018,0.0567,0.03232l1.37521-0.79398c0.03095-0.01787,0.05643-0.06201,0.05633-0.09757     c-0.0001-0.03633-0.02575-0.05018-0.0567-0.03231L22.15695,11.67406z"/><path class="st11" d="M22.15781,11.97712c-0.03095,0.01787-0.05643,0.06123-0.05633,0.09757     c0.0001,0.03556,0.02575,0.05018,0.0567,0.03231l1.37521-0.79398c0.03095-0.01787,0.05643-0.06201,0.05633-0.09757     c-0.0001-0.03633-0.02575-0.05018-0.0567-0.03231L22.15781,11.97712z"/><path class="st11" d="M22.16124,10.43008c-0.03095,0.01787-0.05643,0.06201-0.05633,0.09757     c0.0001,0.03633,0.02575,0.05095,0.0567,0.03308l1.37521-0.79398c0.03095-0.01787,0.05643-0.06201,0.05633-0.09834     c-0.0001-0.03556-0.02575-0.05018-0.0567-0.03231L22.16124,10.43008z"/><path class="st11" d="M22.16038,10.12702c-0.03095,0.01787-0.05643,0.06201-0.05633,0.09834     c0.0001,0.03556,0.02575,0.05018,0.0567,0.03232l1.37521-0.79398c0.03095-0.01787,0.05643-0.06201,0.05633-0.09757     c-0.0001-0.03633-0.02575-0.05095-0.0567-0.03308L22.16038,10.12702z"/><path class="st11" d="M22.15953,9.82474c-0.03095,0.01787-0.05643,0.06123-0.05633,0.09757     c0.0001,0.03556,0.02575,0.05018,0.0567,0.03231l1.37521-0.79398c0.03095-0.01787,0.05643-0.06201,0.05633-0.09757     c-0.0001-0.03634-0.02575-0.05018-0.0567-0.03231L22.15953,9.82474z"/><path class="st11" d="M22.15867,9.52168c-0.03095,0.01787-0.05643,0.06123-0.05633,0.09757     c0.0001,0.03556,0.02575,0.05018,0.0567,0.03231l1.37521-0.79398c0.03095-0.01787,0.05643-0.06201,0.05633-0.09757     c-0.0001-0.03634-0.02575-0.05018-0.0567-0.03231L22.15867,9.52168z"/><path class="st11" d="M22.15695,8.91557C22.126,8.93343,22.10052,8.9768,22.10062,9.01313     c0.0001,0.03556,0.02575,0.05018,0.0567,0.03232l1.37521-0.79398c0.03095-0.01787,0.05643-0.06201,0.05633-0.09757     c-0.0001-0.03633-0.02575-0.05018-0.0567-0.03231L22.15695,8.91557z"/><path class="st11" d="M22.15781,9.21862c-0.03095,0.01787-0.05643,0.06123-0.05633,0.09757     c0.0001,0.03556,0.02575,0.05018,0.0567,0.03231l1.37521-0.79398c0.03095-0.01787,0.05643-0.06201,0.05633-0.09757     c-0.0001-0.03633-0.02575-0.05018-0.0567-0.03231L22.15781,9.21862z"/><g><g><g><g><g><g><g><g><g><g><polygon class="st9" points="14.58473,11.54601 15.41599,11.06294 15.40514,32.57949 14.57388,33.06257                             "/></g><g><polygon class="st9" points="5.99786,6.58838 6.82912,6.1053 15.41599,11.06294 14.58473,11.54601              "/></g><path class="st12" d="M6.00042,6.59077l-0.0122,21.51547l8.58416,4.95528l0.01223-21.51547L6.00042,6.59077z               M13.58029,30.41419l-6.70426-3.87036L6.8819,7.67699l6.71019,3.87036L13.58029,30.41419z"/></g></g><polygon class="st19" points="6.88463,7.67566 6.87539,27.35764 13.57942,31.22845 13.58914,11.54601           "/></g></g></g></g></g></g><g><polygon class="st19" points="8.45473,28.26951 13.58197,25.40777 13.58233,24.73818 7.76944,27.87388      "/><polygon class="st19" points="6.87538,27.35763 7.00785,27.4341 13.58273,23.99401 13.58361,22.3003 6.87614,25.79338      "/><polygon class="st19" points="13.58594,17.74903 6.87838,20.42898 6.87806,21.09852 13.58558,18.41862      "/><polygon class="st19" points="13.58722,15.31115 6.87959,17.99109 6.87874,19.68476 13.58634,17.00486      "/><polygon class="st19" points="12.78456,11.08153 6.88179,13.43987 6.88147,14.10945 13.46989,11.47713      "/><polygon class="st19" points="10.28928,9.64106 6.88299,11.00198 6.88219,12.69569 12.02285,10.64179      "/></g></g><g><g><g class="st8"><g><path class="st0" d="M14.38024,22.16862l-0.37701,0.21672c-0.02686,0.01612-0.05015,0.01701-0.06805,0.00716l-0.2194-0.12716         l0.0009,0.17641c0.00089,0.08955,0.03224,0.15314,0.08418,0.18359l-0.31612-0.18359         c-0.05105-0.03044-0.08328-0.09313-0.08328-0.18358l-0.00269-1.49263c-0.00089-0.18179,0.12717-0.40298,0.28477-0.49343         l0.37701-0.21761l0.31522,0.18268l-0.37612,0.21761c-0.15851,0.09134-0.28567,0.31254-0.28567,0.49433l0.00179,1.23741         l0.34835-0.20149L14.38024,22.16862z"/></g></g></g><g><path class="st6" d="M14.37602,20.23763l0.00062,0.21878l-0.37679,0.21754c-0.0526,0.03037-0.09477,0.10407-0.0946,0.16451       l0.00271,1.49304c0.00017,0.06044,0.04262,0.08463,0.09522,0.05426l0.37679-0.21754l0.00062,0.21944l-0.37679,0.21754       c-0.1578,0.09111-0.28629,0.01723-0.28681-0.16344l-0.00271-1.49304c-0.00051-0.18133,0.12714-0.40244,0.28494-0.49354       L14.37602,20.23763z"/></g></g></g><g><g><g><g><g><g><g><polygon class="st9" points="35.19798,21.77805 44.00772,17.3493 43.99687,38.86604 35.18713,43.9857          "/></g><g><polygon class="st11" points="26.61103,17.51128 35.42077,12.39162 44.00772,17.3493 35.19798,22.46896          "/></g><g><polygon class="st12" points="35.19798,22.46896 35.18713,43.9857 26.60018,39.02803 26.61103,17.51128          "/><g><polygon class="st11" points="27.64812,18.70975 27.12964,18.41044 27.1195,38.72818 34.66835,43.08671             34.66885,42.43833 27.63849,38.37914           "/><polygon class="st9" points="27.64812,18.70975 27.63849,38.37914 34.66885,42.43833 34.67899,22.76847           "/></g></g></g><g><polygon class="st12" points="34.14794,23.5038 34.14061,25.8352 28.34908,22.49145 28.3564,20.16005         "/><g><g><g><polygon class="st3" points="29.75567,21.65427 29.96493,21.53267 29.95726,23.03246 29.748,23.15406            "/></g><g><polygon class="st7" points="29.38877,21.44244 29.59802,21.32084 29.96493,21.53267 29.75567,21.65427            "/></g><polygon class="st4" points="29.75567,21.65427 29.748,23.15406 29.3811,22.94223 29.38877,21.44244           "/></g><g><g><polygon class="st3" points="30.50426,22.08647 30.71351,21.96486 30.70584,23.46465 30.49659,23.58626            "/></g><g><polygon class="st7" points="30.13736,21.87464 30.34661,21.75303 30.71351,21.96486 30.50426,22.08647            "/></g><polygon class="st4" points="30.50426,22.08647 30.49659,23.58626 30.12969,23.37443 30.13736,21.87464           "/></g><g><g><polygon class="st3" points="31.25285,22.51867 31.4621,22.39706 31.45443,23.89685 31.24518,24.01846            "/></g><g><polygon class="st7" points="30.88594,22.30684 31.0952,22.18523 31.4621,22.39706 31.25285,22.51867            "/></g><polygon class="st4" points="31.25285,22.51867 31.24518,24.01846 30.87827,23.80663 30.88594,22.30684           "/></g><g><g><polygon class="st3" points="32.00143,22.95086 32.21069,22.82926 32.20302,24.32905 31.99376,24.45065            "/></g><g><polygon class="st7" points="31.63453,22.73903 31.84379,22.61743 32.21069,22.82926 32.00143,22.95086            "/></g><polygon class="st4" points="32.00143,22.95086 31.99376,24.45065 31.62686,24.23882 31.63453,22.73903           "/></g><g><g><polygon class="st3" points="32.75002,23.38306 32.95927,23.26146 32.9516,24.76125 32.74235,24.88285            "/></g><g><polygon class="st7" points="32.38312,23.17123 32.59237,23.04963 32.95927,23.26146 32.75002,23.38306            "/></g><polygon class="st4" points="32.75002,23.38306 32.74235,24.88285 32.37545,24.67102 32.38312,23.17123           "/></g><g><g><polygon class="st3" points="33.49861,23.81526 33.70786,23.69365 33.70019,25.19344 33.49094,25.31505            "/></g><g><polygon class="st7" points="33.13171,23.60343 33.34096,23.48182 33.70786,23.69365 33.49861,23.81526            "/></g><polygon class="st4" points="33.49861,23.81526 33.49094,25.31505 33.12404,25.10322 33.13171,23.60343           "/></g><g><g><polygon class="st3" points="29.00708,21.22208 29.21634,21.10047 29.20867,22.60026 28.99941,22.72186            "/></g><g><polygon class="st7" points="28.64018,21.01024 28.84944,20.88864 29.21634,21.10047 29.00708,21.22208            "/></g><polygon class="st4" points="29.00708,21.22208 28.99941,22.72186 28.63251,22.51003 28.64018,21.01024           "/></g></g></g><g><polygon class="st12" points="34.14794,26.6052 34.14061,28.9366 28.34908,25.59285 28.3564,23.26146         "/><g><g><g><polygon class="st3" points="29.75567,24.75568 29.96493,24.63407 29.95726,26.13386 29.748,26.25547            "/></g><g><polygon class="st7" points="29.38877,24.54384 29.59802,24.42224 29.96493,24.63407 29.75567,24.75568            "/></g><polygon class="st4" points="29.75567,24.75568 29.748,26.25547 29.3811,26.04363 29.38877,24.54384           "/></g><g><g><polygon class="st3" points="30.50426,25.18787 30.71351,25.06627 30.70584,26.56606 30.49659,26.68766            "/></g><g><polygon class="st7" points="30.13736,24.97604 30.34661,24.85444 30.71351,25.06627 30.50426,25.18787            "/></g><polygon class="st4" points="30.50426,25.18787 30.49659,26.68766 30.12969,26.47583 30.13736,24.97604           "/></g><g><g><polygon class="st3" points="31.25285,25.62007 31.4621,25.49846 31.45443,26.99825 31.24518,27.11986            "/></g><g><polygon class="st7" points="30.88594,25.40824 31.0952,25.28663 31.4621,25.49846 31.25285,25.62007            "/></g><polygon class="st4" points="31.25285,25.62007 31.24518,27.11986 30.87827,26.90803 30.88594,25.40824           "/></g><g><g><polygon class="st3" points="32.00143,26.05227 32.21069,25.93066 32.20302,27.43045 31.99376,27.55206            "/></g><g><polygon class="st7" points="31.63453,25.84044 31.84379,25.71883 32.21069,25.93066 32.00143,26.05227            "/></g><polygon class="st4" points="32.00143,26.05227 31.99376,27.55206 31.62686,27.34023 31.63453,25.84044           "/></g><g><g><polygon class="st3" points="32.75002,26.48446 32.95927,26.36286 32.9516,27.86265 32.74235,27.98425            "/></g><g><polygon class="st7" points="32.38312,26.27263 32.59237,26.15103 32.95927,26.36286 32.75002,26.48446            "/></g><polygon class="st4" points="32.75002,26.48446 32.74235,27.98425 32.37545,27.77242 32.38312,26.27263           "/></g><g><g><polygon class="st3" points="33.49861,26.91666 33.70786,26.79506 33.70019,28.29485 33.49094,28.41645            "/></g><g><polygon class="st7" points="33.13171,26.70483 33.34096,26.58323 33.70786,26.79506 33.49861,26.91666            "/></g><polygon class="st4" points="33.49861,26.91666 33.49094,28.41645 33.12404,28.20462 33.13171,26.70483           "/></g><g><g><polygon class="st3" points="29.00708,24.32348 29.21634,24.20187 29.20867,25.70166 28.99941,25.82327            "/></g><g><polygon class="st7" points="28.64018,24.11165 28.84944,23.99004 29.21634,24.20187 29.00708,24.32348            "/></g><polygon class="st4" points="29.00708,24.32348 28.99941,25.82327 28.63251,25.61144 28.64018,24.11165           "/></g></g></g><g><polygon class="st12" points="34.14794,29.70661 34.14061,32.03801 28.34908,28.69426 28.3564,26.36286         "/><g><g><g><polygon class="st3" points="29.75567,27.85708 29.96493,27.73547 29.95726,29.23526 29.748,29.35687            "/></g><g><polygon class="st7" points="29.38877,27.64525 29.59802,27.52364 29.96493,27.73547 29.75567,27.85708            "/></g><polygon class="st4" points="29.75567,27.85708 29.748,29.35687 29.3811,29.14504 29.38877,27.64525           "/></g><g><g><polygon class="st3" points="30.50426,28.28928 30.71351,28.16767 30.70584,29.66746 30.49659,29.78907            "/></g><g><polygon class="st7" points="30.13736,28.07745 30.34661,27.95584 30.71351,28.16767 30.50426,28.28928            "/></g><polygon class="st4" points="30.50426,28.28928 30.49659,29.78907 30.12969,29.57724 30.13736,28.07745           "/></g><g><g><polygon class="st3" points="31.25285,28.72147 31.4621,28.59987 31.45443,30.09966 31.24518,30.22126            "/></g><g><polygon class="st7" points="30.88594,28.50964 31.0952,28.38804 31.4621,28.59987 31.25285,28.72147            "/></g><polygon class="st4" points="31.25285,28.72147 31.24518,30.22126 30.87827,30.00943 30.88594,28.50964           "/></g><g><g><polygon class="st3" points="32.00143,29.15367 32.21069,29.03206 32.20302,30.53185 31.99376,30.65346            "/></g><g><polygon class="st7" points="31.63453,28.94184 31.84379,28.82023 32.21069,29.03206 32.00143,29.15367            "/></g><polygon class="st4" points="32.00143,29.15367 31.99376,30.65346 31.62686,30.44163 31.63453,28.94184           "/></g><g><g><polygon class="st3" points="32.75002,29.58587 32.95927,29.46426 32.9516,30.96405 32.74235,31.08566            "/></g><g><polygon class="st7" points="32.38312,29.37404 32.59237,29.25243 32.95927,29.46426 32.75002,29.58587            "/></g><polygon class="st4" points="32.75002,29.58587 32.74235,31.08566 32.37545,30.87383 32.38312,29.37404           "/></g><g><g><polygon class="st3" points="33.49861,30.01806 33.70786,29.89646 33.70019,31.39625 33.49094,31.51785            "/></g><g><polygon class="st7" points="33.13171,29.80623 33.34096,29.68463 33.70786,29.89646 33.49861,30.01806            "/></g><polygon class="st4" points="33.49861,30.01806 33.49094,31.51785 33.12404,31.30602 33.13171,29.80623           "/></g><g><g><polygon class="st3" points="29.00708,27.42488 29.21634,27.30328 29.20867,28.80307 28.99941,28.92467            "/></g><g><polygon class="st7" points="28.64018,27.21305 28.84944,27.09145 29.21634,27.30328 29.00708,27.42488            "/></g><polygon class="st4" points="29.00708,27.42488 28.99941,28.92467 28.63251,28.71284 28.64018,27.21305           "/></g></g></g><g><polygon class="st12" points="34.14794,32.80801 34.14061,35.13941 28.34908,31.79566 28.3564,29.46426         "/><g><g><g><polygon class="st3" points="29.75567,30.95848 29.96493,30.83688 29.95726,32.33667 29.748,32.45827            "/></g><g><polygon class="st7" points="29.38877,30.74665 29.59802,30.62505 29.96493,30.83688 29.75567,30.95848            "/></g><polygon class="st4" points="29.75567,30.95848 29.748,32.45827 29.3811,32.24644 29.38877,30.74665           "/></g><g><g><polygon class="st3" points="30.50426,31.39068 30.71351,31.26907 30.70584,32.76886 30.49659,32.89047            "/></g><g><polygon class="st7" points="30.13736,31.17885 30.34661,31.05724 30.71351,31.26907 30.50426,31.39068            "/></g><polygon class="st4" points="30.50426,31.39068 30.49659,32.89047 30.12969,32.67864 30.13736,31.17885           "/></g><g><g><polygon class="st3" points="31.25285,31.82288 31.4621,31.70127 31.45443,33.20106 31.24518,33.32267            "/></g><g><polygon class="st7" points="30.88594,31.61105 31.0952,31.48944 31.4621,31.70127 31.25285,31.82288            "/></g><polygon class="st4" points="31.25285,31.82288 31.24518,33.32267 30.87827,33.11084 30.88594,31.61105           "/></g><g><g><polygon class="st3" points="32.00143,32.25507 32.21069,32.13347 32.20302,33.63326 31.99376,33.75486            "/></g><g><polygon class="st7" points="31.63453,32.04324 31.84379,31.92164 32.21069,32.13347 32.00143,32.25507            "/></g><polygon class="st4" points="32.00143,32.25507 31.99376,33.75486 31.62686,33.54303 31.63453,32.04324           "/></g><g><g><polygon class="st3" points="32.75002,32.68727 32.95927,32.56567 32.9516,34.06546 32.74235,34.18706            "/></g><g><polygon class="st7" points="32.38312,32.47544 32.59237,32.35384 32.95927,32.56567 32.75002,32.68727            "/></g><polygon class="st4" points="32.75002,32.68727 32.74235,34.18706 32.37545,33.97523 32.38312,32.47544           "/></g><g><g><polygon class="st3" points="33.49861,33.11947 33.70786,32.99786 33.70019,34.49765 33.49094,34.61926            "/></g><g><polygon class="st7" points="33.13171,32.90763 33.34096,32.78603 33.70786,32.99786 33.49861,33.11947            "/></g><polygon class="st4" points="33.49861,33.11947 33.49094,34.61926 33.12404,34.40742 33.13171,32.90763           "/></g><g><g><polygon class="st3" points="29.00708,30.52629 29.21634,30.40468 29.20867,31.90447 28.99941,32.02607            "/></g><g><polygon class="st7" points="28.64018,30.31446 28.84944,30.19285 29.21634,30.40468 29.00708,30.52629            "/></g><polygon class="st4" points="29.00708,30.52629 28.99941,32.02607 28.63251,31.81425 28.64018,30.31446           "/></g></g></g><g><polygon class="st12" points="34.14794,35.90941 34.14061,38.24081 28.34908,34.89706 28.3564,32.56567         "/><g><g><g><polygon class="st3" points="29.75567,34.05989 29.96493,33.93828 29.95726,35.43807 29.748,35.55968            "/></g><g><polygon class="st7" points="29.38877,33.84805 29.59802,33.72645 29.96493,33.93828 29.75567,34.05989            "/></g><polygon class="st4" points="29.75567,34.05989 29.748,35.55968 29.3811,35.34784 29.38877,33.84805           "/></g><g><g><polygon class="st3" points="30.50426,34.49208 30.71351,34.37048 30.70584,35.87027 30.49659,35.99187            "/></g><g><polygon class="st7" points="30.13736,34.28025 30.34661,34.15865 30.71351,34.37048 30.50426,34.49208            "/></g><polygon class="st4" points="30.50426,34.49208 30.49659,35.99187 30.12969,35.78004 30.13736,34.28025           "/></g><g><g><polygon class="st3" points="31.25285,34.92428 31.4621,34.80267 31.45443,36.30246 31.24518,36.42407            "/></g><g><polygon class="st7" points="30.88594,34.71245 31.0952,34.59084 31.4621,34.80267 31.25285,34.92428            "/></g><polygon class="st4" points="31.25285,34.92428 31.24518,36.42407 30.87827,36.21224 30.88594,34.71245           "/></g><g><g><polygon class="st3" points="32.00143,35.35648 32.21069,35.23487 32.20302,36.73466 31.99376,36.85627            "/></g><g><polygon class="st7" points="31.63453,35.14465 31.84379,35.02304 32.21069,35.23487 32.00143,35.35648            "/></g><polygon class="st4" points="32.00143,35.35648 31.99376,36.85627 31.62686,36.64444 31.63453,35.14465           "/></g><g><g><polygon class="st3" points="32.75002,35.78867 32.95927,35.66707 32.9516,37.16686 32.74235,37.28846            "/></g><g><polygon class="st7" points="32.38312,35.57684 32.59237,35.45524 32.95927,35.66707 32.75002,35.78867            "/></g><polygon class="st4" points="32.75002,35.78867 32.74235,37.28846 32.37545,37.07663 32.38312,35.57684           "/></g><g><g><polygon class="st3" points="33.49861,36.22087 33.70786,36.09927 33.70019,37.59906 33.49094,37.72066            "/></g><g><polygon class="st7" points="33.13171,36.00904 33.34096,35.88744 33.70786,36.09927 33.49861,36.22087            "/></g><polygon class="st4" points="33.49861,36.22087 33.49094,37.72066 33.12404,37.50883 33.13171,36.00904           "/></g><g><g><polygon class="st3" points="29.00708,33.62769 29.21634,33.50608 29.20867,35.00587 28.99941,35.12748            "/></g><g><polygon class="st7" points="28.64018,33.41586 28.84944,33.29425 29.21634,33.50608 29.00708,33.62769            "/></g><polygon class="st4" points="29.00708,33.62769 28.99941,35.12748 28.63251,34.91565 28.64018,33.41586           "/></g></g></g><g><polygon class="st12" points="34.14794,39.01081 34.14061,41.34221 28.34908,37.99847 28.3564,35.66707         "/><g><g><g><polygon class="st3" points="29.75567,37.16129 29.96493,37.03968 29.95726,38.53947 29.748,38.66108            "/></g><g><polygon class="st7" points="29.38877,36.94946 29.59802,36.82785 29.96493,37.03968 29.75567,37.16129            "/></g><polygon class="st4" points="29.75567,37.16129 29.748,38.66108 29.3811,38.44925 29.38877,36.94946           "/></g><g><g><polygon class="st3" points="30.50426,37.59349 30.71351,37.47188 30.70584,38.97167 30.49659,39.09328            "/></g><g><polygon class="st7" points="30.13736,37.38166 30.34661,37.26005 30.71351,37.47188 30.50426,37.59349            "/></g><polygon class="st4" points="30.50426,37.59349 30.49659,39.09328 30.12969,38.88144 30.13736,37.38166           "/></g><g><g><polygon class="st3" points="31.25285,38.02568 31.4621,37.90408 31.45443,39.40387 31.24518,39.52547            "/></g><g><polygon class="st7" points="30.88594,37.81385 31.0952,37.69225 31.4621,37.90408 31.25285,38.02568            "/></g><polygon class="st4" points="31.25285,38.02568 31.24518,39.52547 30.87827,39.31364 30.88594,37.81385           "/></g><g><g><polygon class="st3" points="32.00143,38.45788 32.21069,38.33627 32.20302,39.83606 31.99376,39.95767            "/></g><g><polygon class="st7" points="31.63453,38.24605 31.84379,38.12444 32.21069,38.33627 32.00143,38.45788            "/></g><polygon class="st4" points="32.00143,38.45788 31.99376,39.95767 31.62686,39.74584 31.63453,38.24605           "/></g><g><g><polygon class="st3" points="32.75002,38.89008 32.95927,38.76847 32.9516,40.26826 32.74235,40.38987            "/></g><g><polygon class="st7" points="32.38312,38.67825 32.59237,38.55664 32.95927,38.76847 32.75002,38.89008            "/></g><polygon class="st4" points="32.75002,38.89008 32.74235,40.38987 32.37545,40.17804 32.38312,38.67825           "/></g><g><g><polygon class="st3" points="33.49861,39.32227 33.70786,39.20067 33.70019,40.70046 33.49094,40.82206            "/></g><g><polygon class="st7" points="33.13171,39.11044 33.34096,38.98884 33.70786,39.20067 33.49861,39.32227            "/></g><polygon class="st4" points="33.49861,39.32227 33.49094,40.82206 33.12404,40.61023 33.13171,39.11044           "/></g><g><g><polygon class="st3" points="29.00708,36.72909 29.21634,36.60749 29.20867,38.10728 28.99941,38.22888            "/></g><g><polygon class="st7" points="28.64018,36.51726 28.84944,36.39566 29.21634,36.60749 29.00708,36.72909            "/></g><polygon class="st4" points="29.00708,36.72909 28.99941,38.22888 28.63251,38.01705 28.64018,36.51726           "/></g></g></g></g></g></g><g><g><g><path class="st11" d="M41.94329,38.38718c-0.03095,0.01787-0.05643,0.06201-0.05633,0.09757         c0.0001,0.03633,0.02575,0.05095,0.0567,0.03308l1.37523-0.79398c0.03095-0.01787,0.05643-0.06201,0.05633-0.09834         c-0.0001-0.03556-0.02575-0.05018-0.0567-0.03231L41.94329,38.38718z"/></g><g><path class="st11" d="M41.94243,38.08413c-0.03095,0.01787-0.05643,0.062-0.05633,0.09834         c0.0001,0.03556,0.02575,0.05018,0.0567,0.03231l1.37523-0.79399c0.03095-0.01787,0.05643-0.06201,0.05633-0.09757         c-0.0001-0.03633-0.02575-0.05095-0.0567-0.03308L41.94243,38.08413z"/></g><g><path class="st11" d="M41.94157,37.78183c-0.03095,0.01787-0.05643,0.06123-0.05633,0.09757         c0.0001,0.03556,0.02575,0.05018,0.0567,0.03231l1.37523-0.79399c0.03095-0.01787,0.05643-0.06201,0.05633-0.09757         c-0.0001-0.03634-0.02575-0.05019-0.0567-0.03232L41.94157,37.78183z"/></g><g><path class="st11" d="M41.94072,37.47878c-0.03095,0.01787-0.05643,0.06123-0.05633,0.09757         c0.0001,0.03556,0.02575,0.05018,0.0567,0.03231l1.37523-0.79399c0.03095-0.01787,0.05643-0.062,0.05633-0.09757         c-0.0001-0.03634-0.02575-0.05018-0.0567-0.03231L41.94072,37.47878z"/></g><g><path class="st11" d="M41.939,36.87266c-0.03095,0.01787-0.05643,0.06123-0.05633,0.09757         c0.0001,0.03556,0.02575,0.05019,0.0567,0.03231l1.37523-0.79398c0.03095-0.01787,0.05643-0.06201,0.05633-0.09758         c-0.0001-0.03633-0.02575-0.05018-0.0567-0.03231L41.939,36.87266z"/></g><g><path class="st11" d="M41.93986,37.17572c-0.03095,0.01787-0.05643,0.06124-0.05633,0.09757         c0.0001,0.03556,0.02575,0.05018,0.0567,0.03231l1.37522-0.79399c0.03095-0.01787,0.05643-0.06201,0.05634-0.09757         c-0.0001-0.03633-0.02575-0.05017-0.0567-0.03231L41.93986,37.17572z"/></g></g><g><g><path class="st11" d="M41.94329,35.62867c-0.03095,0.01787-0.05643,0.06201-0.05633,0.09757         c0.0001,0.03633,0.02575,0.05095,0.0567,0.03308l1.37523-0.79399c0.03095-0.01787,0.05643-0.062,0.05633-0.09834         c-0.0001-0.03556-0.02575-0.05018-0.0567-0.03231L41.94329,35.62867z"/></g><g><path class="st11" d="M41.94243,35.32561c-0.03095,0.01787-0.05643,0.06201-0.05633,0.09834         c0.0001,0.03556,0.02575,0.05018,0.0567,0.03231l1.37523-0.79399c0.03095-0.01787,0.05643-0.06201,0.05633-0.09757         c-0.0001-0.03633-0.02575-0.05095-0.0567-0.03308L41.94243,35.32561z"/></g><g><path class="st11" d="M41.94157,35.02332c-0.03095,0.01787-0.05643,0.06123-0.05633,0.09757         c0.0001,0.03556,0.02575,0.05018,0.0567,0.03231l1.37523-0.79398c0.03095-0.01787,0.05643-0.06201,0.05633-0.09757         c-0.0001-0.03634-0.02575-0.05018-0.0567-0.03231L41.94157,35.02332z"/></g><g><path class="st11" d="M41.94072,34.72026c-0.03095,0.01787-0.05643,0.06123-0.05633,0.09757         c0.0001,0.03556,0.02575,0.05018,0.0567,0.03231l1.37523-0.79399c0.03095-0.01787,0.05643-0.062,0.05633-0.09757         c-0.0001-0.03634-0.02575-0.05018-0.0567-0.03231L41.94072,34.72026z"/></g><g><path class="st11" d="M41.939,34.11414c-0.03095,0.01787-0.05643,0.06123-0.05633,0.09757         c0.0001,0.03556,0.02575,0.05018,0.0567,0.03231l1.37523-0.79399c0.03095-0.01787,0.05643-0.06201,0.05633-0.09757         c-0.0001-0.03633-0.02575-0.05018-0.0567-0.03231L41.939,34.11414z"/></g><g><path class="st11" d="M41.93986,34.4172c-0.03095,0.01787-0.05643,0.06124-0.05633,0.09757         c0.0001,0.03556,0.02575,0.05018,0.0567,0.03231l1.37522-0.79398c0.03095-0.01787,0.05643-0.06201,0.05634-0.09757         c-0.0001-0.03633-0.02575-0.05018-0.0567-0.03231L41.93986,34.4172z"/></g></g><g><g><path class="st11" d="M41.94329,32.87015c-0.03095,0.01787-0.05643,0.06201-0.05633,0.09758         c0.0001,0.03633,0.02575,0.05095,0.0567,0.03308l1.37523-0.79399c0.03095-0.01787,0.05643-0.062,0.05633-0.09834         c-0.0001-0.03556-0.02575-0.05018-0.0567-0.03231L41.94329,32.87015z"/></g><g><path class="st11" d="M41.94243,32.56709c-0.03095,0.01787-0.05643,0.06201-0.05633,0.09834         c0.0001,0.03556,0.02575,0.05019,0.0567,0.03232l1.37523-0.79399c0.03095-0.01787,0.05643-0.06201,0.05633-0.09757         c-0.0001-0.03633-0.02575-0.05095-0.0567-0.03308L41.94243,32.56709z"/></g><g><path class="st11" d="M41.94157,32.2648c-0.03095,0.01787-0.05643,0.06123-0.05633,0.09757         c0.0001,0.03556,0.02575,0.05018,0.0567,0.03231l1.37523-0.79399c0.03095-0.01787,0.05643-0.06201,0.05633-0.09757         c-0.0001-0.03634-0.02575-0.05018-0.0567-0.03232L41.94157,32.2648z"/></g><g><path class="st11" d="M41.94072,31.96175c-0.03095,0.01787-0.05643,0.06123-0.05633,0.09757         c0.0001,0.03556,0.02575,0.05018,0.0567,0.03231l1.37523-0.79399c0.03095-0.01787,0.05643-0.06201,0.05633-0.09757         c-0.0001-0.03634-0.02575-0.05018-0.0567-0.03231L41.94072,31.96175z"/></g><g><path class="st11" d="M41.939,31.35563c-0.03095,0.01787-0.05643,0.06124-0.05633,0.09757         c0.0001,0.03556,0.02575,0.05018,0.0567,0.03232l1.37523-0.79399c0.03095-0.01787,0.05643-0.06201,0.05633-0.09758         c-0.0001-0.03633-0.02575-0.05018-0.0567-0.03231L41.939,31.35563z"/></g><g><path class="st11" d="M41.93986,31.65869c-0.03095,0.01787-0.05643,0.06124-0.05633,0.09757         c0.0001,0.03556,0.02575,0.05018,0.0567,0.03231l1.37522-0.79399c0.03095-0.01787,0.05643-0.06201,0.05634-0.09757         c-0.0001-0.03633-0.02575-0.05018-0.0567-0.03231L41.93986,31.65869z"/></g></g><g><g><path class="st11" d="M41.94329,30.11164c-0.03095,0.01787-0.05643,0.06201-0.05633,0.09757         c0.0001,0.03633,0.02575,0.05095,0.0567,0.03308l1.37523-0.79399c0.03095-0.01787,0.05643-0.06201,0.05633-0.09834         c-0.0001-0.03556-0.02575-0.05018-0.0567-0.03232L41.94329,30.11164z"/></g><g><path class="st11" d="M41.94243,29.80858c-0.03095,0.01787-0.05643,0.06201-0.05633,0.09834         c0.0001,0.03556,0.02575,0.05019,0.0567,0.03232l1.37523-0.79399c0.03095-0.01787,0.05643-0.06201,0.05633-0.09757         c-0.0001-0.03633-0.02575-0.05095-0.0567-0.03308L41.94243,29.80858z"/></g><g><path class="st11" d="M41.94157,29.50629c-0.03095,0.01787-0.05643,0.06124-0.05633,0.09757         c0.0001,0.03556,0.02575,0.05018,0.0567,0.03231l1.37523-0.79399c0.03095-0.01787,0.05643-0.06201,0.05633-0.09757         c-0.0001-0.03634-0.02575-0.05018-0.0567-0.03231L41.94157,29.50629z"/></g><g><path class="st11" d="M41.94072,29.20323c-0.03095,0.01787-0.05643,0.06123-0.05633,0.09757         c0.0001,0.03556,0.02575,0.05018,0.0567,0.03231l1.37523-0.79399c0.03095-0.01787,0.05643-0.06201,0.05633-0.09757         c-0.0001-0.03634-0.02575-0.05018-0.0567-0.03231L41.94072,29.20323z"/></g><g><path class="st11" d="M41.939,28.59711c-0.03095,0.01787-0.05643,0.06123-0.05633,0.09757         c0.0001,0.03556,0.02575,0.05018,0.0567,0.03232l1.37523-0.79399c0.03095-0.01787,0.05643-0.06201,0.05633-0.09757         c-0.0001-0.03633-0.02575-0.05018-0.0567-0.03231L41.939,28.59711z"/></g><g><path class="st11" d="M41.93986,28.90017c-0.03095,0.01787-0.05643,0.06123-0.05633,0.09757         c0.0001,0.03556,0.02575,0.05018,0.0567,0.03231l1.37522-0.79399c0.03095-0.01787,0.05643-0.06201,0.05634-0.09757         c-0.0001-0.03633-0.02575-0.05018-0.0567-0.03231L41.93986,28.90017z"/></g></g><g><g><path class="st11" d="M41.94329,27.35312c-0.03095,0.01787-0.05643,0.06201-0.05633,0.09757         c0.0001,0.03633,0.02575,0.05095,0.0567,0.03308l1.37523-0.79399c0.03095-0.01787,0.05643-0.06201,0.05633-0.09834         c-0.0001-0.03556-0.02575-0.05018-0.0567-0.03231L41.94329,27.35312z"/></g><g><path class="st11" d="M41.94243,27.05006c-0.03095,0.01787-0.05643,0.06201-0.05633,0.09834         c0.0001,0.03556,0.02575,0.05018,0.0567,0.03232l1.37523-0.79399c0.03095-0.01787,0.05643-0.06201,0.05633-0.09758         c-0.0001-0.03633-0.02575-0.05095-0.0567-0.03308L41.94243,27.05006z"/></g><g><path class="st11" d="M41.94157,26.74777c-0.03095,0.01787-0.05643,0.06124-0.05633,0.09757         c0.0001,0.03556,0.02575,0.05018,0.0567,0.03231l1.37523-0.79399c0.03095-0.01787,0.05643-0.06201,0.05633-0.09757         c-0.0001-0.03634-0.02575-0.05018-0.0567-0.03231L41.94157,26.74777z"/></g><g><path class="st11" d="M41.94072,26.44472c-0.03095,0.01787-0.05643,0.06123-0.05633,0.09757         c0.0001,0.03556,0.02575,0.05018,0.0567,0.03231l1.37523-0.79399c0.03095-0.01787,0.05643-0.06201,0.05633-0.09757         c-0.0001-0.03634-0.02575-0.05018-0.0567-0.03231L41.94072,26.44472z"/></g><g><path class="st11" d="M41.939,25.8386c-0.03095,0.01787-0.05643,0.06123-0.05633,0.09757         c0.0001,0.03556,0.02575,0.05019,0.0567,0.03232l1.37523-0.79399c0.03095-0.01787,0.05643-0.06201,0.05633-0.09757         c-0.0001-0.03633-0.02575-0.05018-0.0567-0.03231L41.939,25.8386z"/></g><g><path class="st11" d="M41.93986,26.14166c-0.03095,0.01787-0.05643,0.06123-0.05633,0.09757         c0.0001,0.03556,0.02575,0.05018,0.0567,0.03231l1.37522-0.79399c0.03095-0.01787,0.05643-0.06201,0.05634-0.09757         c-0.0001-0.03633-0.02575-0.05018-0.0567-0.03231L41.93986,26.14166z"/></g></g><g><g><path class="st11" d="M41.94329,24.5946c-0.03095,0.01787-0.05643,0.06201-0.05633,0.09757         c0.0001,0.03633,0.02575,0.05095,0.0567,0.03308l1.37523-0.79399c0.03095-0.01787,0.05643-0.06201,0.05633-0.09834         c-0.0001-0.03556-0.02575-0.05018-0.0567-0.03231L41.94329,24.5946z"/></g><g><path class="st11" d="M41.94243,24.29155c-0.03095,0.01787-0.05643,0.062-0.05633,0.09834         c0.0001,0.03556,0.02575,0.05018,0.0567,0.03232l1.37523-0.79399c0.03095-0.01787,0.05643-0.06201,0.05633-0.09757         c-0.0001-0.03633-0.02575-0.05095-0.0567-0.03308L41.94243,24.29155z"/></g><g><path class="st11" d="M41.94157,23.98926c-0.03095,0.01787-0.05643,0.06123-0.05633,0.09757         c0.0001,0.03556,0.02575,0.05018,0.0567,0.03231l1.37523-0.79399c0.03095-0.01787,0.05643-0.06201,0.05633-0.09757         c-0.0001-0.03634-0.02575-0.05018-0.0567-0.03232L41.94157,23.98926z"/></g><g><path class="st11" d="M41.94072,23.6862c-0.03095,0.01787-0.05643,0.06123-0.05633,0.09757         c0.0001,0.03556,0.02575,0.05018,0.0567,0.03231l1.37523-0.79399c0.03095-0.01787,0.05643-0.06201,0.05633-0.09757         c-0.0001-0.03634-0.02575-0.05018-0.0567-0.03231L41.94072,23.6862z"/></g><g><path class="st11" d="M41.939,23.08008c-0.03095,0.01787-0.05643,0.06124-0.05633,0.09757         c0.0001,0.03556,0.02575,0.05018,0.0567,0.03232l1.37523-0.79399c0.03095-0.01787,0.05643-0.06201,0.05633-0.09758         c-0.0001-0.03633-0.02575-0.05018-0.0567-0.03231L41.939,23.08008z"/></g><g><path class="st11" d="M41.93986,23.38314c-0.03095,0.01787-0.05643,0.06124-0.05633,0.09757         c0.0001,0.03556,0.02575,0.05018,0.0567,0.03231l1.37522-0.79399c0.03095-0.01787,0.05643-0.06201,0.05634-0.09757         c-0.0001-0.03633-0.02575-0.05018-0.0567-0.03231L41.93986,23.38314z"/></g></g><g><g><path class="st11" d="M41.94329,21.83609c-0.03095,0.01787-0.05643,0.06201-0.05633,0.09757         c0.0001,0.03633,0.02575,0.05095,0.0567,0.03308l1.37523-0.79399c0.03095-0.01787,0.05643-0.06201,0.05633-0.09834         c-0.0001-0.03556-0.02575-0.05018-0.0567-0.03232L41.94329,21.83609z"/></g><g><path class="st11" d="M41.94243,21.53303c-0.03095,0.01787-0.05643,0.06201-0.05633,0.09834         c0.0001,0.03556,0.02575,0.05019,0.0567,0.03232l1.37523-0.79399c0.03095-0.01787,0.05643-0.06201,0.05633-0.09757         c-0.0001-0.03633-0.02575-0.05095-0.0567-0.03308L41.94243,21.53303z"/></g><g><path class="st11" d="M41.94157,21.23074c-0.03095,0.01787-0.05643,0.06124-0.05633,0.09757         c0.0001,0.03556,0.02575,0.05018,0.0567,0.03231l1.37523-0.79399c0.03095-0.01787,0.05643-0.06201,0.05633-0.09757         c-0.0001-0.03634-0.02575-0.05018-0.0567-0.03231L41.94157,21.23074z"/></g><g><path class="st11" d="M41.94072,20.92769c-0.03095,0.01787-0.05643,0.06123-0.05633,0.09757         c0.0001,0.03556,0.02575,0.05018,0.0567,0.03231l1.37523-0.79399c0.03095-0.01787,0.05643-0.06201,0.05633-0.09757         c-0.0001-0.03634-0.02575-0.05018-0.0567-0.03231L41.94072,20.92769z"/></g><g><path class="st11" d="M41.939,20.32157c-0.03095,0.01787-0.05643,0.06123-0.05633,0.09757         c0.0001,0.03556,0.02575,0.05018,0.0567,0.03232l1.37523-0.79399c0.03095-0.01787,0.05643-0.06201,0.05633-0.09757         c-0.0001-0.03633-0.02575-0.05018-0.0567-0.03231L41.939,20.32157z"/></g><g><path class="st11" d="M41.93986,20.62463c-0.03095,0.01787-0.05643,0.06124-0.05633,0.09757         c0.0001,0.03556,0.02575,0.05018,0.0567,0.03231l1.37522-0.79399c0.03095-0.01787,0.05643-0.06201,0.05634-0.09757         c-0.0001-0.03633-0.02575-0.05018-0.0567-0.03231L41.93986,20.62463z"/></g></g></g></g></g></g><g><g><path class="st17" d="M37.53482,39.30094c-0.00653,0.33247-0.23471,0.73665-0.52155,0.89962     c-0.08475,0.05217-0.17599,0.07823-0.25421,0.07823c-0.05869,0-0.11734-0.01305-0.16298-0.04564     c-0.11734-0.06517-0.18908-0.20209-0.18908-0.37811c0-0.33244,0.22819-0.73012,0.52151-0.89958     c0.14996-0.09128,0.30641-0.0978,0.42375-0.03263C37.46961,38.99457,37.53482,39.12492,37.53482,39.30094z"/></g></g><path class="st17" d="M38.26741,40.21591l-1.32804-0.76641l-0.10823,0.18819l1.32707,0.7664   c0.12091,0.07021,0.19599,0.19989,0.19599,0.33835v3.64286c0,0.31592-0.16966,0.61039-0.44366,0.76933l-6.01325,3.49465   c-0.27302,0.15991-0.61429,0.15991-0.89121,0.00097l-17.02471-9.8287c-0.12188-0.07021-0.19501-0.19599-0.19501-0.33737   c-0.00098-0.14139,0.07118-0.26815,0.19404-0.33835l3.33474-1.93844c0.3403-0.19696,0.55091-0.56456,0.55091-0.95752v-5.88455   c0-0.20476-0.11018-0.39685-0.28765-0.50021l-0.7118-0.41051l-0.0429-0.02535l-0.11018,0.18819l0.75665,0.43586   c0.11018,0.06435,0.17941,0.18331,0.17941,0.31202v5.88455c0,0.3169-0.16966,0.61137-0.44366,0.76933l-3.33474,1.93844   c-0.18916,0.11018-0.30227,0.30715-0.30227,0.52654c0,0.21841,0.11311,0.41538,0.30325,0.52556l17.02472,9.8287   c0.16771,0.09653,0.3598,0.14724,0.55384,0.14724c0.19404,0,0.38613-0.05168,0.55579-0.14919l6.01326-3.49465   c0.3403-0.19794,0.55091-0.56456,0.55091-0.95654v-3.64286C38.57066,40.52696,38.45463,40.32512,38.26741,40.21591z"/><g><g><path class="st17" d="M17.34041,28.30209c-0.00653,0.33248-0.23471,0.73665-0.52155,0.89962     c-0.08475,0.05216-0.17599,0.07822-0.25421,0.07822c-0.05869,0-0.11734-0.01305-0.16298-0.04564     c-0.11734-0.06517-0.18908-0.20209-0.18908-0.37811c0-0.33244,0.22819-0.73012,0.52151-0.89958     c0.14996-0.09127,0.30641-0.0978,0.42375-0.03263C17.27519,27.99572,17.34041,28.12607,17.34041,28.30209z"/></g></g><g><g><g><g><g><polygon class="st12" points="26.61371,27.42414 26.13985,27.14877 26.15071,48.66552 26.62456,48.94089       "/></g><g><polygon class="st11" points="35.20066,22.46646 34.72681,22.19109 26.13985,27.14877 26.61371,27.42414       "/></g><path class="st9" d="M26.61383,27.42418l0.01229,21.51561l8.58412-4.95522l-0.01226-21.51561L26.61383,27.42418z        M27.64847,27.42554l6.51795-3.75921l0.00611,19.66738l-6.51176,3.75922L27.64847,27.42554z"/><g><g><g class="st8"><g><path class="st0" d="M26.82687,37.69172l0.39301,0.22591c0.02801,0.0168,0.05228,0.01773,0.07094,0.00747l0.22871-0.13256           l-0.00093,0.1839c-0.00093,0.09335-0.03361,0.15963-0.08775,0.19137l0.32953-0.19137           c0.05321-0.03174,0.08682-0.09708,0.08682-0.19137l0.0028-1.55596c0.00093-0.18951-0.13256-0.42008-0.29686-0.51437           l-0.39301-0.22684l-0.3286,0.19043l0.39208,0.22684c0.16523,0.09522,0.29779,0.3258,0.29779,0.5153l-0.00187,1.28991           l-0.36313-0.21004L26.82687,37.69172z"/></g></g></g><g><path class="st6" d="M26.83127,35.67878l-0.00065,0.22806l0.39278,0.22677c0.05483,0.03166,0.09879,0.10848,0.09861,0.17149         l-0.00282,1.55639c-0.00018,0.06301-0.04442,0.08822-0.09926,0.05656l-0.39277-0.22677l-0.00065,0.22875l0.39277,0.22677         c0.1645,0.09497,0.29844,0.01796,0.29898-0.17038l0.00282-1.55639c0.00054-0.18902-0.13254-0.41951-0.29704-0.51448         L26.83127,35.67878z"/></g></g></g></g><polygon class="st19" points="34.16357,23.66494 34.1732,43.33432 27.66168,47.09401 27.65154,27.42414    "/></g><g class="st20"><polygon class="st2" points="34.16387,24.28641 27.65322,30.70144 27.65426,32.68218 34.16418,24.9126    "/><polygon class="st2" points="34.16527,27.12816 27.65539,34.89774 27.65643,36.87826 34.16789,30.57404    "/><polygon class="st2" points="34.16866,34.13434 27.65779,39.56512 27.65883,41.57959 34.16929,35.35078    "/><polygon class="st2" points="27.65996,43.79543 27.66096,45.69004 34.17228,39.50477 34.17038,37.56661    "/></g></g></g></svg>