<?xml version="1.0" ?><svg id="Layer_1" style="enable-background:new 0 0 50 50;" version="1.1" viewBox="0 0 50 50" xml:space="preserve" xmlns="http://www.w3.org/2000/svg" xmlns:xlink="http://www.w3.org/1999/xlink"><style type="text/css">
	.st0{fill:none;}
	.st1{fill:#B7C5FD;}
	.st2{fill:#9AADFD;}
	.st3{fill:#FFFFFF;}
	.st4{fill:#3955D1;}
	.st5{fill:#4466FB;}
	.st6{fill:#AABAFD;}
	.st7{fill:#798FFE;}
	.st8{fill:#6BB5FB;}
	.st9{enable-background:new    ;}
	.st10{fill:#1B2A4F;}
	.st11{fill:url(#SVGID_1_);}
	.st12{fill:url(#SVGID_2_);}
	.st13{fill:url(#);}
	.st14{fill:url(#SVGID_3_);}
	.st15{fill:url(#SVGID_4_);}
	.st16{fill:url(#SVGID_5_);}
	.st17{fill:url(#SVGID_6_);}
	.st18{fill:url(#SVGID_7_);}
	.st19{fill:#384E85;}
	.st20{fill:#2E4277;}
	.st21{fill:#D9DDF6;}
	.st22{fill:url(#SVGID_8_);}
	.st23{fill:url(#SVGID_9_);}
	.st24{fill:url(#SVGID_10_);}
	.st25{fill:url(#SVGID_11_);}
	.st26{fill:url(#SVGID_12_);}
	.st27{fill:url(#SVGID_13_);}
	.st28{fill:url(#SVGID_14_);}
	.st29{fill:url(#SVGID_15_);}
	.st30{fill:url(#SVGID_16_);}
	.st31{fill:url(#SVGID_17_);}
	.st32{fill:url(#SVGID_18_);}
	.st33{fill:url(#SVGID_19_);}
	.st34{fill:url(#SVGID_20_);}
	.st35{fill:url(#SVGID_21_);}
	.st36{fill:url(#SVGID_22_);}
	.st37{fill:url(#SVGID_23_);}
	.st38{fill:url(#SVGID_24_);}
	.st39{fill:url(#SVGID_25_);}
	.st40{fill:#535D88;}
	.st41{fill:url(#SVGID_26_);}
	.st42{fill:url(#SVGID_27_);}
	.st43{fill:url(#SVGID_28_);}
	.st44{fill:url(#SVGID_29_);}
	.st45{fill:url(#SVGID_30_);}
	.st46{fill:url(#SVGID_31_);}
	.st47{fill:url(#SVGID_32_);}
	.st48{fill:url(#SVGID_33_);}
	.st49{fill:url(#SVGID_34_);}
	.st50{fill:url(#SVGID_35_);}
	.st51{fill:url(#SVGID_36_);}
	.st52{fill:url(#SVGID_37_);}
	.st53{fill:url(#SVGID_38_);}
	.st54{fill:url(#SVGID_39_);}
	.st55{fill:url(#SVGID_40_);}
	.st56{fill:url(#SVGID_41_);}
	.st57{fill:#2B3C67;}
	.st58{fill:#8FCCFF;}
	.st59{fill:#8CA1FD;}
	.st60{opacity:0.3;}
	.st61{fill:url(#SVGID_42_);}
	.st62{fill:url(#SVGID_43_);}
	.st63{fill:url(#SVGID_44_);}
	.st64{fill:url(#SVGID_45_);}
	.st65{fill:url(#SVGID_46_);}
	.st66{fill:url(#SVGID_47_);}
	.st67{fill:url(#SVGID_48_);}
	.st68{fill:url(#SVGID_49_);}
	.st69{fill:url(#SVGID_50_);}
	.st70{opacity:0.3;fill:#4466FB;}
	.st71{fill:url(#SVGID_51_);}
	.st72{fill:url(#SVGID_52_);}
	.st73{fill:url(#SVGID_53_);}
	.st74{fill:url(#SVGID_54_);}
	.st75{fill:url(#SVGID_55_);}
	.st76{fill:url(#SVGID_56_);}
	.st77{fill:url(#SVGID_57_);}
	.st78{fill:url(#SVGID_58_);}
	.st79{fill:url(#SVGID_59_);}
	.st80{fill:url(#SVGID_60_);}
	.st81{fill:url(#SVGID_61_);}
	.st82{fill:url(#SVGID_62_);}
	.st83{fill:url(#SVGID_63_);}
	.st84{fill:url(#SVGID_64_);}
	.st85{fill:url(#SVGID_65_);}
	.st86{fill:url(#SVGID_66_);}
	.st87{fill:url(#SVGID_67_);}
	.st88{fill:url(#SVGID_68_);}
	.st89{fill:url(#SVGID_69_);}
	.st90{fill:url(#SVGID_70_);}
	.st91{fill:url(#SVGID_71_);}
	.st92{fill:url(#SVGID_72_);}
	.st93{fill:url(#SVGID_73_);}
	.st94{fill:url(#SVGID_74_);}
	.st95{fill:url(#SVGID_75_);}
	.st96{fill:url(#SVGID_76_);}
	.st97{fill:url(#SVGID_77_);}
	.st98{fill:url(#SVGID_78_);}
	.st99{opacity:0.2;}
	.st100{fill:url(#SVGID_79_);}
	.st101{fill:url(#SVGID_80_);}
	.st102{fill:url(#SVGID_81_);}
	.st103{fill:url(#SVGID_82_);}
	.st104{fill:url(#SVGID_83_);}
	.st105{fill:url(#SVGID_84_);}
	.st106{fill:url(#SVGID_85_);}
	.st107{fill:url(#SVGID_86_);}
	.st108{fill:url(#SVGID_87_);}
	.st109{fill:url(#SVGID_88_);}
	.st110{fill:url(#SVGID_89_);}
	.st111{fill:url(#SVGID_90_);}
</style><pattern height="32.25219" id="Unnamed_Pattern_12" patternUnits="userSpaceOnUse" style="overflow:visible;" viewBox="0 -32.25219 32.25219 32.25219" width="32.25219" x="-70" y="-70"><g><rect class="st0" height="32.25219" width="32.25219" y="-32.25219"/><g><rect class="st1" height="32.25219" width="32.25219" x="0" y="-32.25219"/></g></g></pattern><g><g><g><g><g><path class="st19" d="M47.90341,38.46857l-13.65167,7.93348c-0.32263,0.1882-0.84242,0.1882-1.16505,0.00299L9.95608,33.04885       c-0.32263-0.18521-0.32263-0.48693,0-0.67513l13.65167-7.93347c0.31964-0.18521,0.83943-0.18521,1.16206,0l23.13061,13.3532       C48.22306,37.98166,48.22605,38.28336,47.90341,38.46857z"/></g><g><path class="st20" d="M27.76556,36.65399c0.18389,0.10617,0.18281,0.27914,0.00011,0.38532l-3.79351,2.20454       c-0.1827,0.10617-0.48132,0.10737-0.66521,0.0012l-7.47549-4.31598c-0.18389-0.10617-0.1828-0.27914-0.00011-0.38531       l3.79351-2.20455c0.1827-0.10617,0.48132-0.10736,0.66521-0.0012L27.76556,36.65399z"/></g><g><path class="st10" d="M48.1424,38.134l-0.00299,1.21882c0,0.1195-0.08065,0.24197-0.23898,0.33458l-13.65167,7.93348       c-0.32263,0.18521-0.84242,0.18521-1.16505,0L9.95309,34.26767c-0.16131-0.09261-0.24197-0.21508-0.24197-0.34055       l0.00299-1.21583c0,0.12249,0.08064,0.24496,0.24197,0.33757l23.13061,13.35619       c0.32263,0.18521,0.84242,0.18521,1.16505-0.00299l13.65167-7.93348C48.06472,38.37597,48.1424,38.25648,48.1424,38.134z"/></g><g><g><polygon class="st7" points="27.37835,28.04502 26.94458,28.2971 25.89743,27.69254 26.33121,27.44045       "/></g><g><polygon class="st7" points="21.66895,29.7343 20.7096,30.29181 18.25479,28.87452 19.21413,28.31701       "/></g><g><polygon class="st7" points="21.46901,28.21973 20.50966,28.77724 19.46252,28.17267 20.42186,27.61516       "/></g><g><polygon class="st7" points="22.87667,29.03244 21.91733,29.58995 20.87019,28.98538 21.82953,28.42788       "/></g><g><polygon class="st7" points="24.0844,28.33059 23.12506,28.8881 20.67025,27.47081 21.62959,26.9133       "/></g><g><polygon class="st7" points="25.49026,29.14226 24.53092,29.69977 23.48377,29.0952 24.44312,28.53769       "/></g><g><polygon class="st7" points="27.21976,28.74374 26.26222,29.3002 25.21508,28.69563 26.17262,28.13917       "/></g><g><polygon class="st7" points="25.81391,27.93207 24.85637,28.48853 23.80922,27.88396 24.76676,27.32749       "/></g><g><polygon class="st7" points="25.9725,27.23335 25.53872,27.48543 24.49158,26.88086 24.92535,26.62878       "/></g><g><polygon class="st7" points="24.40624,27.11935 23.4487,27.67581 21.87798,26.76896 22.83552,26.21249       "/></g><g><polygon class="st7" points="24.56483,26.42063 24.13105,26.67272 23.08391,26.06815 23.51768,25.81606       "/></g><g><polygon class="st7" points="33.0054,31.2938 32.57162,31.54588 31.52448,30.94131 31.95825,30.68923       "/></g><g><polygon class="st7" points="32.84681,31.99251 31.88927,32.54897 30.84212,31.94441 31.79966,31.38794       "/></g><g><polygon class="st7" points="31.44095,31.18084 30.48341,31.7373 29.43627,31.13273 30.39381,30.57627       "/></g><g><polygon class="st7" points="27.09606,31.46851 26.13671,32.02602 25.08957,31.42144 26.04891,30.86393       "/></g><g><polygon class="st7" points="28.50372,32.28122 27.54438,32.83873 26.49723,32.23416 27.45658,31.67665       "/></g><g class="st9"><g><polygon class="st7" points="28.78602,28.85774 28.35224,29.10982 27.3051,28.50525 27.73888,28.25317        "/></g><g><polygon class="st7" points="30.19188,29.66941 29.7581,29.92149 28.71095,29.31692 29.14473,29.06484        "/></g><g><polygon class="st7" points="28.62743,29.55645 27.66989,30.11292 26.62274,29.50835 27.58029,28.95188        "/></g><g><polygon class="st7" points="26.89793,29.95498 25.93859,30.51249 24.89144,29.90792 25.85078,29.35041        "/></g><g><polygon class="st7" points="30.03329,30.36812 29.07574,30.92459 28.0286,30.32002 28.98614,29.76355        "/></g><g><polygon class="st7" points="25.6902,30.65683 24.73086,31.21434 23.68371,30.60977 24.64305,30.05226        "/></g><g><polygon class="st7" points="28.30379,30.76665 27.34444,31.32416 26.29729,30.71959 27.25664,30.16208        "/></g><g><polygon class="st7" points="28.70185,33.79475 27.7443,34.35121 21.07011,30.49787 22.02766,29.9414        "/></g></g><g><polygon class="st7" points="31.59954,30.48213 31.16577,30.73421 30.11862,30.12964 30.5524,29.87756       "/></g><g><polygon class="st7" points="34.41307,32.10651 33.97929,32.3586 32.93033,31.75298 33.36411,31.5009       "/></g><g><polygon class="st7" points="37.22478,33.72986 36.791,33.98194 35.74386,33.37737 36.17763,33.12529       "/></g><g class="st9"><g><polygon class="st7" points="29.71145,31.57937 28.75211,32.13688 27.70496,31.5323 28.6643,30.97479        "/></g><g><polygon class="st7" points="31.11731,32.39104 30.15796,32.94855 29.11082,32.34398 30.07016,31.78647        "/></g></g><g><polygon class="st7" points="32.52497,33.20375 31.56563,33.76126 30.51667,33.15565 31.47602,32.59814       "/></g><g><polygon class="st7" points="34.25267,32.80418 33.29512,33.36065 32.24979,32.75712 33.20733,32.20066       "/></g><g><polygon class="st7" points="33.93083,34.01543 32.97149,34.57293 31.92434,33.96836 32.88369,33.41086       "/></g><g><polygon class="st7" points="32.92123,36.23081 31.96188,36.78832 30.91474,36.18375 31.87408,35.62624       "/></g><g><polygon class="st7" points="34.12896,35.52895 33.16961,36.08646 32.12247,35.48189 33.08181,34.92438       "/></g><g><polygon class="st7" points="36.74435,35.63981 35.78501,36.19732 33.3302,34.78004 34.28954,34.22253       "/></g><g class="st9"><g><polygon class="st7" points="38.63244,34.54257 38.19867,34.79465 37.15152,34.19009 37.5853,33.938        "/></g><g><polygon class="st7" points="37.95028,34.939 36.99274,35.49546 35.0615,34.38047 36.01904,33.824        "/></g></g><g><polygon class="st7" points="35.66033,33.6169 34.70279,34.17336 33.65564,33.56879 34.61319,33.01233       "/></g><g><polygon class="st7" points="35.81892,32.91819 35.38515,33.17027 34.338,32.5657 34.77178,32.31362       "/></g><g><polygon class="st7" points="40.76807,37.96291 39.80873,38.52042 38.76158,37.91585 39.72092,37.35834       "/></g><g><polygon class="st7" points="43.5816,39.5873 42.62225,40.14481 41.5751,39.54023 42.53445,38.98273       "/></g><g><polygon class="st7" points="36.94494,38.5539 35.9856,39.11141 34.93846,38.50684 35.8978,37.94933       "/></g><g class="st9"><g><polygon class="st7" points="41.24849,36.05295 40.81472,36.30503 39.76757,35.70047 40.20135,35.44838        "/></g><g><polygon class="st7" points="40.56633,36.44938 39.60879,37.00584 38.56165,36.40128 39.51919,35.84481        "/></g><g><polygon class="st7" points="42.65616,36.86567 42.22239,37.11775 41.17524,36.51318 41.60902,36.2611        "/></g><g><polygon class="st7" points="39.3604,37.15019 38.40106,37.7077 37.35392,37.10313 38.31326,36.54562        "/></g><g><polygon class="st7" points="41.974,37.2621 41.01646,37.81856 39.96931,37.21399 40.92685,36.65753        "/></g><g><polygon class="st7" points="38.15267,37.85205 37.19333,38.40956 36.14619,37.80499 37.10553,37.24748        "/></g><g><polygon class="st7" points="43.37986,38.07377 42.42231,38.63023 41.37517,38.02567 42.33271,37.4692        "/></g><g><polygon class="st7" points="39.56034,38.66476 38.601,39.22227 37.55385,38.6177 38.5132,38.0602        "/></g><g><polygon class="st7" points="42.17393,38.77458 41.21458,39.33209 40.16744,38.72752 41.12678,38.17001        "/></g><g><polygon class="st7" points="40.9662,39.47644 40.00686,40.03394 38.95971,39.42937 39.91905,38.87187        "/></g></g><g><polygon class="st7" points="24.28253,29.84412 23.32319,30.40163 22.27604,29.79706 23.23539,29.23955       "/></g><g><polygon class="st7" points="30.10951,34.60746 29.15017,35.16497 28.10121,34.55936 29.06056,34.00185       "/></g><g><polygon class="st7" points="31.31724,33.90561 30.3579,34.46312 29.30894,33.8575 30.26829,33.3       "/></g><g><polygon class="st7" points="31.51537,35.41914 30.55603,35.97665 29.50888,35.37208 30.46823,34.81457       "/></g><g><polygon class="st7" points="32.7231,34.71728 31.76376,35.27479 30.71661,34.67022 31.67596,34.11271       "/></g><g><polygon class="st7" points="29.90958,33.09289 28.95023,33.6504 27.90309,33.04583 28.86243,32.48832       "/></g><g><polygon class="st7" points="34.32889,37.04353 33.36955,37.60103 32.3224,36.99646 33.28175,36.43896       "/></g><g><polygon class="st7" points="44.78753,38.88649 43.82998,39.44295 42.78283,38.83838 43.74038,38.28192       "/></g><g><polygon class="st7" points="45.46969,38.49006 45.03591,38.74214 43.98876,38.13757 44.42254,37.88549       "/></g><g><polygon class="st7" points="44.06202,37.67734 43.62824,37.92942 42.5811,37.32486 43.01487,37.07277       "/></g><g><polygon class="st7" points="38.35261,39.36662 37.39326,39.92413 36.34612,39.31956 37.30547,38.76205       "/></g><g><polygon class="st7" points="42.37387,40.28915 40.20679,41.54852 39.15965,40.94395 41.32672,39.68458       "/></g><g><polygon class="st7" points="39.75847,40.17829 38.79913,40.7358 37.75198,40.13123 38.71132,39.57372       "/></g></g></g><g><g><path class="st10" d="M47.61214,19.98635c0.32232,0.18609,0.58277,0.6372,0.58172,1.00758l-0.04124,16.27343       c-0.00105,0.36819-0.2632,0.51977-0.58553,0.33367L24.76981,24.44025c-0.32232-0.18609-0.58277-0.63939-0.58172-1.00758       l0.04124-16.27343c0.00105-0.37039,0.2632-0.51977,0.58553-0.33367L47.61214,19.98635z"/></g><g><path class="st19" d="M48.80607,20.63923l-0.04183,16.2728c0,0.18222-0.06573,0.31366-0.17028,0.37341l-0.61143,0.35557       c0.10457-0.05973,0.17028-0.19117,0.17028-0.37341l0.04182-16.27278c0-0.37044-0.25989-0.82151-0.58252-1.00971       L24.81473,6.82582c-0.16133-0.09261-0.3077-0.10156-0.41524-0.04183l0.61143-0.35557       c0.10455-0.05975,0.25391-0.0508,0.41522,0.04181l22.79741,13.16229C48.54617,19.81773,48.80607,20.26881,48.80607,20.63923z"/></g><g><polygon class="st21" points="47.37105,20.79548 47.33138,36.51662 25.01091,23.63113 25.05058,7.91      "/></g></g></g><g><path class="st5" d="M44.76154,16.10297L44.725,28.50055c-0.00059,0.20351-0.07235,0.34658-0.18801,0.41376l0.79913-0.4644     c0.11566-0.06719,0.18742-0.21025,0.18801-0.41376l0.03653-12.39758L44.76154,16.10297z"/><g><path class="st8" d="M44.76155,16.10296l-0.03655,12.39759c-0.00116,0.40926-0.29022,0.57399-0.64494,0.36919l-16.62408-9.59792      c-0.35617-0.20563-0.64335-0.70305-0.64219-1.11232l0.03655-12.39759L44.76155,16.10296z"/><polygon class="st3" points="27.54744,6.97433 27.51456,18.49566 44.02473,28.0281 44.05944,16.50723     "/></g><g class="st9"><g><path class="st19" d="M45.56818,13.66178l-0.00507,1.97769l-0.80077,0.46122l0.00507-1.97264       c0-0.41052-0.28889-0.90718-0.64366-1.10989L27.50032,3.41912c-0.17737-0.10137-0.33956-0.11151-0.45614-0.04563       l0.7957-0.46626c0.12166-0.06589,0.28381-0.05577,0.46122,0.0456l16.62343,9.59902       C45.2793,12.75967,45.56818,13.25634,45.56818,13.66178z"/></g><g><path class="st20" d="M44.12608,13.01721c0.35472,0.2048,0.6419,0.70222,0.64075,1.10982l-0.00528,1.97594L26.85033,5.76192       l0.00528-1.97594c0.00115-0.4076,0.29022-0.57233,0.64638-0.36669L44.12608,13.01721z"/></g></g></g><g><g><path class="st1" d="M43.54557,13.32846c-0.24413-0.14095-0.4429-0.02768-0.44369,0.25285      c-0.0008,0.28053,0.19668,0.6211,0.44081,0.76205c0.24286,0.14021,0.44162,0.02841,0.44241-0.25212      C43.9859,13.81071,43.78843,13.46867,43.54557,13.32846z"/></g><g><path class="st1" d="M40.71055,11.69199c-0.24413-0.14095-0.4429-0.02768-0.4437,0.25285      c-0.00079,0.28053,0.19669,0.6211,0.44082,0.76205c0.24286,0.14021,0.44162,0.02841,0.44241-0.25212      C41.15088,12.17424,40.95341,11.8322,40.71055,11.69199z"/></g><g><path class="st1" d="M42.12806,12.51006c-0.24413-0.14095-0.4429-0.02768-0.44369,0.25285s0.19668,0.6211,0.44081,0.76205      c0.24414,0.14095,0.44162,0.02841,0.44241-0.25212C42.56839,12.99232,42.3722,12.65101,42.12806,12.51006z"/></g></g><g><g><g><path class="st21" d="M30.55533,13.15458l0.67448,1.16824c-0.80102,0.25046-1.39467,0.9142-1.65561,1.92579l-0.13794-0.07964       C29.47139,14.81732,29.88617,13.79569,30.55533,13.15458z"/></g><g><path class="st1" d="M34.94025,13.0981l-0.00669,2.35958c-0.28869-0.23258-0.58529-0.43976-0.8898-0.61558       c-1.05925-0.61156-2.0364-0.76234-2.81394-0.51929l-0.67448-1.16824C31.5591,12.19142,33.14436,12.09719,34.94025,13.0981z"/></g><g class="st9"><g><path class="st2" d="M39.34763,17.99716c0.75693,1.5064,1.22158,3.12265,1.25124,4.61654l-2.10811-1.21712        c-0.15933-0.8139-0.44633-1.6446-0.82991-2.43521L39.34763,17.99716z"/></g><g><path class="st6" d="M35.03918,13.14923c1.74115,1.00525,3.2897,2.82192,4.30845,4.84793l-1.68678,0.96422        c-0.66609-1.3641-1.62447-2.61836-2.72728-3.5037l0.00669-2.35958C34.97149,13.11614,35.00534,13.12969,35.03918,13.14923z"/></g></g></g><g><path class="st40" d="M38.53792,16.74378l-3.98383,2.65817c0.1095,0.38205,0.05022,0.72442-0.17533,0.85296      c-0.15079,0.08592-0.34787,0.05878-0.54501-0.05503c-0.1978-0.1142-0.39568-0.31565-0.547-0.57775      c-0.30012-0.51983-0.29852-1.08264,0.00356-1.25479c0.15067-0.08586,0.34855-0.05841,0.54563,0.05537      c0.09532,0.05503,0.19042,0.13022,0.27996,0.22259L38.53792,16.74378z"/></g></g></g><g><path class="st5" d="M20.03366,8.11863l-0.00598,16.50433c-0.00057,0.23902-0.15764,0.47747-0.47121,0.65957L12.51286,29.376    c-0.6314,0.36678-1.65833,0.36706-2.29371,0l-8.54632-4.93415c-0.31983-0.18467-0.47946-0.42682-0.47889-0.66896L1.19991,7.26998    c0,0.24129,0.15963,0.48316,0.4786,0.66726l8.54632,4.93443c0.63567,0.36678,1.66259,0.36678,2.294-0.00028l7.04362-4.09317    C19.87602,8.59581,20.03309,8.35736,20.03366,8.11863z"/><path class="st8" d="M19.55493,7.44963c0.63549,0.3669,0.63883,0.96162,0.00748,1.32853l-7.04367,4.09334    c-0.63136,0.36691-1.65827,0.36701-2.29376,0.00012L1.67861,7.93737c-0.63549-0.3669-0.63866-0.96173-0.0073-1.32863    L8.71499,2.5154c0.63136-0.36691,1.65809-0.36691,2.29358-0.00001L19.55493,7.44963z"/><path class="st5" d="M16.80011,7.82011c0.2811,0.1623,0.28239,0.4253,0.00312,0.5876l-4.93315,2.86683    c-0.27928,0.1623-0.73333,0.16241-1.01443,0.00011L4.43362,7.56689C4.15252,7.4046,4.15104,7.14148,4.43031,6.97919    l4.93315-2.86683c0.27928-0.1623,0.73352-0.1623,1.01462,0L16.80011,7.82011z"/><g><g><g><path class="st4" d="M9.59851,13.74056L2.27124,9.50999c-0.15176-0.08762-0.34146,0.0219-0.34146,0.19714v1.49763       c0,0.16265,0.08678,0.31295,0.22764,0.39428l7.32727,4.23034c0.15176,0.08762,0.34145-0.02191,0.34145-0.19714v-1.4974       C9.82614,13.97219,9.73937,13.82189,9.59851,13.74056z"/><pattern id="SVGID_1_" patternTransform="matrix(0.02845 0 0 0.02845 -7776.48633 -7663.5166)" xlink:href="#Unnamed_Pattern_12"/><path class="st11" d="M2.65364,10.5755c0.13898,0.08024,0.25107,0.27438,0.25061,0.43408s-0.11327,0.2242-0.25225,0.14396       c-0.13898-0.08024-0.25125-0.2747-0.2508-0.4344C2.40166,10.55945,2.51467,10.49526,2.65364,10.5755z"/><pattern id="SVGID_2_" patternTransform="matrix(0.02845 0 0 0.02845 -7776.48633 -7663.5166)" xlink:href="#Unnamed_Pattern_12"/><path class="st12" d="M3.4639,11.0433c0.1388,0.08014,0.25107,0.27439,0.25062,0.43408       c-0.00045,0.1597-0.11346,0.2241-0.25225,0.14396c-0.13898-0.08024-0.25125-0.2747-0.2508-0.4344       S3.32492,10.96306,3.4639,11.0433z"/><pattern id="SVGID_3_" patternTransform="matrix(0.02845 0 0 0.02845 -7776.48633 -7663.5166)" xlink:href="#Unnamed_Pattern_12"/><path class="st14" d="M4.27416,11.5111c0.1388,0.08014,0.25107,0.27439,0.25062,0.43408       c-0.00045,0.1597-0.11346,0.22409-0.25225,0.14396c-0.13898-0.08024-0.25125-0.2747-0.2508-0.4344       C4.02218,11.49505,4.13518,11.43086,4.27416,11.5111z"/><pattern id="SVGID_4_" patternTransform="matrix(0.02845 0 0 0.02845 -7775.02979 -7651.36377)" xlink:href="#Unnamed_Pattern_12"/><polygon class="st15" points="9.09314,14.17514 7.214,13.09016 7.214,13.80184 9.09314,14.88677      "/></g></g><g><g><path class="st10" d="M12.58584,14.11706c-0.1941,0.11206-0.351,0.38382-0.35037,0.60686l0.00701,1.81195       c0.00063,0.22304,0.15856,0.31303,0.35266,0.20097c0.1941-0.11207,0.351-0.38382,0.35037-0.60686l-0.00701-1.81195       C12.93786,14.09499,12.77994,14.00499,12.58584,14.11706z"/><path class="st8" d="M12.78026,16.04311l-0.00702-1.81195c-0.00019-0.06646-0.01443-0.12099-0.03934-0.162       c0.12035-0.00518,0.20413,0.08657,0.20459,0.24886l0.00701,1.81195c0.00063,0.22304-0.15626,0.4948-0.35037,0.60686       c-0.13627,0.07867-0.25462,0.05765-0.31332-0.03897c0.04505-0.00194,0.0952-0.01736,0.14806-0.04789       C12.62399,16.53791,12.78089,16.26615,12.78026,16.04311z"/></g><g><path class="st10" d="M18.66948,10.58174c-0.1941,0.11207-0.351,0.38382-0.35037,0.60686l0.00701,1.81195       c0.00063,0.22304,0.15856,0.31303,0.35266,0.20097s0.351-0.38382,0.35037-0.60686l-0.00701-1.81195       C19.02151,10.55967,18.86359,10.46967,18.66948,10.58174z"/><path class="st8" d="M18.8639,12.5078l-0.00702-1.81195c-0.00019-0.06646-0.01443-0.12099-0.03934-0.162       c0.12035-0.00518,0.20413,0.08657,0.20459,0.24885l0.00701,1.81195c0.00063,0.22304-0.15627,0.4948-0.35037,0.60686       c-0.13627,0.07867-0.25462,0.05765-0.31332-0.03897c0.04505-0.00194,0.0952-0.01736,0.14807-0.04788       C18.70764,13.00259,18.86453,12.73084,18.8639,12.5078z"/></g><g><path class="st10" d="M17.14857,11.46557c-0.1941,0.11207-0.351,0.38382-0.35037,0.60686l0.00701,1.81195       c0.00063,0.22304,0.15856,0.31304,0.35266,0.20097c0.1941-0.11207,0.351-0.38382,0.35037-0.60686l-0.00701-1.81195       C17.5006,11.4435,17.34268,11.3535,17.14857,11.46557z"/><path class="st8" d="M17.34299,13.39163l-0.00702-1.81195c-0.00019-0.06646-0.01443-0.12099-0.03934-0.162       c0.12036-0.00518,0.20413,0.08657,0.20459,0.24885l0.00701,1.81195c0.00063,0.22304-0.15626,0.4948-0.35037,0.60686       c-0.13627,0.07868-0.25462,0.05765-0.31332-0.03897c0.04505-0.00194,0.0952-0.01736,0.14806-0.04789       C17.18673,13.88642,17.34362,13.61467,17.34299,13.39163z"/></g><g><path class="st10" d="M15.62766,12.3494c-0.1941,0.11207-0.351,0.38382-0.35037,0.60686l0.00701,1.81195       c0.00063,0.22304,0.15856,0.31303,0.35266,0.20097c0.1941-0.11207,0.351-0.38382,0.35037-0.60686l-0.00701-1.81195       C15.97969,12.32733,15.82176,12.23733,15.62766,12.3494z"/><path class="st8" d="M15.82208,14.27546l-0.00702-1.81195c-0.00019-0.06646-0.01443-0.12099-0.03934-0.162       c0.12035-0.00518,0.20413,0.08657,0.20459,0.24886l0.00701,1.81195c0.00063,0.22304-0.15626,0.4948-0.35037,0.60686       c-0.13627,0.07867-0.25462,0.05765-0.31332-0.03897c0.04505-0.00194,0.0952-0.01736,0.14806-0.04789       C15.66582,14.77025,15.82271,14.4985,15.82208,14.27546z"/></g><g><path class="st10" d="M14.10675,13.23323c-0.1941,0.11207-0.351,0.38382-0.35037,0.60686l0.00701,1.81195       c0.00063,0.22304,0.15856,0.31304,0.35266,0.20097c0.1941-0.11207,0.351-0.38382,0.35037-0.60686l-0.00701-1.81195       C14.45878,13.21116,14.30085,13.12116,14.10675,13.23323z"/><path class="st8" d="M14.30117,15.15929l-0.00702-1.81195c-0.00019-0.06645-0.01443-0.12099-0.03934-0.162       c0.12035-0.00518,0.20413,0.08657,0.20459,0.24885l0.00701,1.81195c0.00063,0.22304-0.15626,0.4948-0.35037,0.60686       c-0.13627,0.07868-0.25462,0.05765-0.31332-0.03897c0.04505-0.00194,0.0952-0.01736,0.14807-0.04789       C14.14491,15.65408,14.3018,15.38233,14.30117,15.15929z"/></g></g></g><g><g><g><path class="st4" d="M9.59851,17.65696l-7.32727-4.23058c-0.15176-0.08762-0.34146,0.0219-0.34146,0.19714v1.49763       c0,0.16265,0.08678,0.31295,0.22764,0.39428l7.32727,4.23034c0.15176,0.08762,0.34145-0.0219,0.34145-0.19714v-1.49739       C9.82614,17.88858,9.73937,17.73829,9.59851,17.65696z"/><pattern id="SVGID_5_" patternTransform="matrix(0.02845 0 0 0.02845 -7776.48633 -7659.6001)" xlink:href="#Unnamed_Pattern_12"/><path class="st16" d="M2.65364,14.4919c0.13898,0.08024,0.25107,0.27438,0.25061,0.43408s-0.11327,0.2242-0.25225,0.14396       c-0.13898-0.08024-0.25125-0.2747-0.2508-0.4344C2.40166,14.47584,2.51467,14.41166,2.65364,14.4919z"/><pattern id="SVGID_6_" patternTransform="matrix(0.02845 0 0 0.02845 -7776.48633 -7659.6001)" xlink:href="#Unnamed_Pattern_12"/><path class="st17" d="M3.4639,14.9597c0.1388,0.08014,0.25107,0.27439,0.25062,0.43408       c-0.00045,0.1597-0.11346,0.2241-0.25225,0.14396c-0.13898-0.08024-0.25125-0.2747-0.2508-0.4344       S3.32492,14.87946,3.4639,14.9597z"/><pattern id="SVGID_7_" patternTransform="matrix(0.02845 0 0 0.02845 -7776.48633 -7659.6001)" xlink:href="#Unnamed_Pattern_12"/><path class="st18" d="M4.27416,15.4275c0.1388,0.08014,0.25107,0.27439,0.25062,0.43408       c-0.00045,0.1597-0.11346,0.2241-0.25225,0.14396c-0.13898-0.08024-0.25125-0.2747-0.2508-0.4344       C4.02218,15.41145,4.13518,15.34726,4.27416,15.4275z"/><pattern id="SVGID_8_" patternTransform="matrix(0.02845 0 0 0.02845 -7775.02979 -7647.44727)" xlink:href="#Unnamed_Pattern_12"/><polygon class="st22" points="9.09314,18.09154 7.214,17.00656 7.214,17.71824 9.09314,18.80317      "/></g></g><g><g><path class="st10" d="M12.58584,18.03345c-0.1941,0.11207-0.351,0.38382-0.35037,0.60686l0.00701,1.81195       c0.00063,0.22304,0.15856,0.31303,0.35266,0.20097c0.1941-0.11206,0.351-0.38382,0.35037-0.60686l-0.00701-1.81195       C12.93786,18.01138,12.77994,17.92138,12.58584,18.03345z"/><path class="st8" d="M12.78026,19.95951l-0.00702-1.81195c-0.00019-0.06646-0.01443-0.12099-0.03934-0.162       c0.12035-0.00518,0.20413,0.08657,0.20459,0.24886l0.00701,1.81195c0.00063,0.22304-0.15626,0.4948-0.35037,0.60686       c-0.13627,0.07867-0.25462,0.05765-0.31332-0.03897c0.04505-0.00194,0.0952-0.01736,0.14806-0.04789       C12.62399,20.45431,12.78089,20.18255,12.78026,19.95951z"/></g><g><path class="st10" d="M18.66948,14.49814c-0.1941,0.11207-0.351,0.38382-0.35037,0.60686l0.00701,1.81195       c0.00063,0.22304,0.15856,0.31304,0.35266,0.20097s0.351-0.38382,0.35037-0.60686l-0.00701-1.81195       C19.02151,14.47607,18.86359,14.38607,18.66948,14.49814z"/><path class="st8" d="M18.8639,16.42419l-0.00702-1.81195c-0.00019-0.06646-0.01443-0.12099-0.03934-0.162       c0.12035-0.00518,0.20413,0.08657,0.20459,0.24886l0.00701,1.81195c0.00063,0.22304-0.15627,0.4948-0.35037,0.60686       c-0.13627,0.07868-0.25462,0.05765-0.31332-0.03897c0.04505-0.00194,0.0952-0.01736,0.14807-0.04789       C18.70764,16.91899,18.86453,16.64724,18.8639,16.42419z"/></g><g><path class="st10" d="M17.14857,15.38197c-0.1941,0.11207-0.351,0.38382-0.35037,0.60686l0.00701,1.81195       c0.00063,0.22304,0.15856,0.31303,0.35266,0.20097c0.1941-0.11207,0.351-0.38382,0.35037-0.60686l-0.00701-1.81195       C17.5006,15.3599,17.34268,15.2699,17.14857,15.38197z"/><path class="st8" d="M17.34299,17.30802l-0.00702-1.81195c-0.00019-0.06646-0.01443-0.12099-0.03934-0.162       c0.12036-0.00518,0.20413,0.08657,0.20459,0.24885l0.00701,1.81195c0.00063,0.22304-0.15626,0.4948-0.35037,0.60686       c-0.13627,0.07867-0.25462,0.05765-0.31332-0.03897c0.04505-0.00194,0.0952-0.01736,0.14806-0.04789       C17.18673,17.80282,17.34362,17.53106,17.34299,17.30802z"/></g><g><path class="st10" d="M15.62766,16.26579c-0.1941,0.11206-0.351,0.38382-0.35037,0.60686l0.00701,1.81195       c0.00063,0.22304,0.15856,0.31303,0.35266,0.20097c0.1941-0.11207,0.351-0.38382,0.35037-0.60686l-0.00701-1.81195       C15.97969,16.24372,15.82176,16.15373,15.62766,16.26579z"/><path class="st8" d="M15.82208,18.19185l-0.00702-1.81195c-0.00019-0.06645-0.01443-0.12099-0.03934-0.16199       c0.12035-0.00518,0.20413,0.08657,0.20459,0.24885l0.00701,1.81195c0.00063,0.22304-0.15626,0.4948-0.35037,0.60686       c-0.13627,0.07867-0.25462,0.05765-0.31332-0.03897c0.04505-0.00194,0.0952-0.01736,0.14806-0.04789       C15.66582,18.68665,15.82271,18.41489,15.82208,18.19185z"/></g><g><path class="st10" d="M14.10675,17.14962c-0.1941,0.11206-0.351,0.38382-0.35037,0.60686l0.00701,1.81195       c0.00063,0.22304,0.15856,0.31303,0.35266,0.20097c0.1941-0.11207,0.351-0.38382,0.35037-0.60686l-0.00701-1.81195       C14.45878,17.12755,14.30085,17.03756,14.10675,17.14962z"/><path class="st8" d="M14.30117,19.07568l-0.00702-1.81195c-0.00019-0.06646-0.01443-0.12099-0.03934-0.162       c0.12035-0.00517,0.20413,0.08657,0.20459,0.24886l0.00701,1.81195c0.00063,0.22304-0.15626,0.4948-0.35037,0.60686       c-0.13627,0.07867-0.25462,0.05765-0.31332-0.03897c0.04505-0.00194,0.0952-0.01736,0.14807-0.04789       C14.14491,19.57048,14.3018,19.29872,14.30117,19.07568z"/></g></g></g><g><g><g><path class="st4" d="M9.59851,21.57336l-7.32727-4.23058c-0.15176-0.08762-0.34146,0.0219-0.34146,0.19713v1.49763       c0,0.16265,0.08678,0.31295,0.22764,0.39428l7.32727,4.23034c0.15176,0.08762,0.34145-0.02191,0.34145-0.19714v-1.49739       C9.82614,21.80498,9.73937,21.65468,9.59851,21.57336z"/><pattern id="SVGID_9_" patternTransform="matrix(0.02845 0 0 0.02845 -7776.48633 -7655.68359)" xlink:href="#Unnamed_Pattern_12"/><path class="st23" d="M2.65364,18.40829c0.13898,0.08024,0.25107,0.27438,0.25061,0.43408       c-0.00045,0.1597-0.11327,0.2242-0.25225,0.14396c-0.13898-0.08024-0.25125-0.2747-0.2508-0.4344       C2.40166,18.39224,2.51467,18.32805,2.65364,18.40829z"/><pattern id="SVGID_10_" patternTransform="matrix(0.02845 0 0 0.02845 -7776.48633 -7655.68359)" xlink:href="#Unnamed_Pattern_12"/><path class="st24" d="M3.4639,18.87609c0.1388,0.08014,0.25107,0.27439,0.25062,0.43408s-0.11346,0.22409-0.25225,0.14396       c-0.13898-0.08024-0.25125-0.2747-0.2508-0.43439C3.21192,18.86004,3.32492,18.79585,3.4639,18.87609z"/><pattern id="SVGID_11_" patternTransform="matrix(0.02845 0 0 0.02845 -7776.48633 -7655.68359)" xlink:href="#Unnamed_Pattern_12"/><path class="st25" d="M4.27416,19.3439c0.1388,0.08013,0.25107,0.27438,0.25062,0.43408       c-0.00045,0.1597-0.11346,0.22409-0.25225,0.14396c-0.13898-0.08024-0.25125-0.2747-0.2508-0.43439       C4.02218,19.32784,4.13518,19.26366,4.27416,19.3439z"/><pattern id="SVGID_12_" patternTransform="matrix(0.02845 0 0 0.02845 -7775.02979 -7643.53125)" xlink:href="#Unnamed_Pattern_12"/><polygon class="st26" points="9.09314,22.00793 7.214,20.92295 7.214,21.63464 9.09314,22.71956      "/></g></g><g><g><path class="st10" d="M12.58584,21.94985c-0.1941,0.11206-0.351,0.38382-0.35037,0.60686l0.00701,1.81195       c0.00063,0.22304,0.15856,0.31303,0.35266,0.20097c0.1941-0.11207,0.351-0.38382,0.35037-0.60686l-0.00701-1.81195       C12.93786,21.92778,12.77994,21.83778,12.58584,21.94985z"/><path class="st8" d="M12.78026,23.87591l-0.00702-1.81195c-0.00019-0.06646-0.01443-0.12099-0.03934-0.162       c0.12035-0.00518,0.20413,0.08657,0.20459,0.24886l0.00701,1.81195c0.00063,0.22304-0.15626,0.4948-0.35037,0.60686       c-0.13627,0.07867-0.25462,0.05765-0.31332-0.03897c0.04505-0.00194,0.0952-0.01736,0.14806-0.04789       C12.62399,24.3707,12.78089,24.09895,12.78026,23.87591z"/></g><g><path class="st10" d="M18.66948,18.41453c-0.1941,0.11206-0.351,0.38382-0.35037,0.60686l0.00701,1.81195       c0.00063,0.22304,0.15856,0.31303,0.35266,0.20097c0.1941-0.11207,0.351-0.38382,0.35037-0.60686l-0.00701-1.81195       C19.02151,18.39246,18.86359,18.30247,18.66948,18.41453z"/><path class="st8" d="M18.8639,20.34059l-0.00702-1.81195c-0.00019-0.06646-0.01443-0.12099-0.03934-0.16199       c0.12035-0.00518,0.20413,0.08657,0.20459,0.24885l0.00701,1.81195c0.00063,0.22304-0.15627,0.4948-0.35037,0.60686       c-0.13627,0.07867-0.25462,0.05765-0.31332-0.03897c0.04505-0.00194,0.0952-0.01736,0.14807-0.04789       C18.70764,20.83539,18.86453,20.56363,18.8639,20.34059z"/></g><g><path class="st10" d="M17.14857,19.29836c-0.1941,0.11207-0.351,0.38382-0.35037,0.60686l0.00701,1.81195       c0.00063,0.22304,0.15856,0.31303,0.35266,0.20097c0.1941-0.11207,0.351-0.38382,0.35037-0.60686l-0.00701-1.81195       C17.5006,19.27629,17.34268,19.1863,17.14857,19.29836z"/><path class="st8" d="M17.34299,21.22442l-0.00702-1.81195c-0.00019-0.06646-0.01443-0.12099-0.03934-0.162       c0.12036-0.00517,0.20413,0.08657,0.20459,0.24886l0.00701,1.81195c0.00063,0.22304-0.15626,0.4948-0.35037,0.60686       c-0.13627,0.07867-0.25462,0.05765-0.31332-0.03897c0.04505-0.00194,0.0952-0.01736,0.14806-0.04789       C17.18673,21.71922,17.34362,21.44746,17.34299,21.22442z"/></g><g><path class="st10" d="M15.62766,20.18219c-0.1941,0.11207-0.351,0.38382-0.35037,0.60686L15.2843,22.601       c0.00063,0.22304,0.15856,0.31304,0.35266,0.20097s0.351-0.38382,0.35037-0.60686l-0.00701-1.81195       C15.97969,20.16012,15.82176,20.07012,15.62766,20.18219z"/><path class="st8" d="M15.82208,22.10825l-0.00702-1.81195c-0.00019-0.06646-0.01443-0.12099-0.03934-0.162       c0.12035-0.00518,0.20413,0.08657,0.20459,0.24886l0.00701,1.81195c0.00063,0.22304-0.15626,0.4948-0.35037,0.60686       c-0.13627,0.07868-0.25462,0.05765-0.31332-0.03897c0.04505-0.00194,0.0952-0.01736,0.14806-0.04789       C15.66582,22.60304,15.82271,22.33129,15.82208,22.10825z"/></g><g><path class="st10" d="M14.10675,21.06602c-0.1941,0.11207-0.351,0.38382-0.35037,0.60686l0.00701,1.81195       c0.00063,0.22304,0.15856,0.31304,0.35266,0.20097c0.1941-0.11207,0.351-0.38382,0.35037-0.60686l-0.00701-1.81195       C14.45878,21.04395,14.30085,20.95395,14.10675,21.06602z"/><path class="st8" d="M14.30117,22.99208l-0.00702-1.81195c-0.00019-0.06646-0.01443-0.12099-0.03934-0.162       c0.12035-0.00518,0.20413,0.08657,0.20459,0.24886l0.00701,1.81195c0.00063,0.22304-0.15626,0.4948-0.35037,0.60686       c-0.13627,0.07868-0.25462,0.05765-0.31332-0.03897c0.04505-0.00194,0.0952-0.01736,0.14807-0.04789       C14.14491,23.48687,14.3018,23.21512,14.30117,22.99208z"/></g></g></g><g><g><g><path class="st4" d="M9.59851,25.48975l-7.32727-4.23058c-0.15176-0.08762-0.34146,0.0219-0.34146,0.19714v1.49763       c0,0.16265,0.08678,0.31295,0.22764,0.39428l7.32727,4.23034c0.15176,0.08762,0.34145-0.0219,0.34145-0.19714v-1.49739       C9.82614,25.72138,9.73937,25.57108,9.59851,25.48975z"/><pattern id="SVGID_13_" patternTransform="matrix(0.02845 0 0 0.02845 -7776.48633 -7651.76758)" xlink:href="#Unnamed_Pattern_12"/><path class="st27" d="M2.65364,22.32469c0.13898,0.08024,0.25107,0.27438,0.25061,0.43408s-0.11327,0.2242-0.25225,0.14396       c-0.13898-0.08024-0.25125-0.2747-0.2508-0.4344C2.40166,22.30864,2.51467,22.24445,2.65364,22.32469z"/><pattern id="SVGID_14_" patternTransform="matrix(0.02845 0 0 0.02845 -7776.48633 -7651.76758)" xlink:href="#Unnamed_Pattern_12"/><path class="st28" d="M3.4639,22.79249c0.1388,0.08014,0.25107,0.27439,0.25062,0.43408       c-0.00045,0.1597-0.11346,0.2241-0.25225,0.14396c-0.13898-0.08024-0.25125-0.2747-0.2508-0.4344       S3.32492,22.71225,3.4639,22.79249z"/><pattern id="SVGID_15_" patternTransform="matrix(0.02845 0 0 0.02845 -7776.48633 -7651.76758)" xlink:href="#Unnamed_Pattern_12"/><path class="st29" d="M4.27416,23.26029c0.1388,0.08014,0.25107,0.27439,0.25062,0.43408       c-0.00045,0.1597-0.11346,0.22409-0.25225,0.14396c-0.13898-0.08024-0.25125-0.2747-0.2508-0.4344       C4.02218,23.24424,4.13518,23.18005,4.27416,23.26029z"/><pattern id="SVGID_16_" patternTransform="matrix(0.02845 0 0 0.02845 -7775.02979 -7639.61475)" xlink:href="#Unnamed_Pattern_12"/><polygon class="st30" points="9.09314,25.92433 7.214,24.83935 7.214,25.55103 9.09314,26.63596      "/></g></g><g><g><path class="st10" d="M12.58584,25.86624c-0.1941,0.11207-0.351,0.38382-0.35037,0.60686l0.00701,1.81195       c0.00063,0.22304,0.15856,0.31303,0.35266,0.20097c0.1941-0.11207,0.351-0.38382,0.35037-0.60686l-0.00701-1.81195       C12.93786,25.84417,12.77994,25.75418,12.58584,25.86624z"/><path class="st8" d="M12.78026,27.7923l-0.00702-1.81195c-0.00019-0.06646-0.01443-0.12099-0.03934-0.162       c0.12035-0.00517,0.20413,0.08657,0.20459,0.24886l0.00701,1.81195c0.00063,0.22304-0.15626,0.4948-0.35037,0.60686       c-0.13627,0.07867-0.25462,0.05765-0.31332-0.03897c0.04505-0.00194,0.0952-0.01736,0.14806-0.04789       C12.62399,28.2871,12.78089,28.01534,12.78026,27.7923z"/></g><g><path class="st10" d="M18.66948,22.33093c-0.1941,0.11207-0.351,0.38382-0.35037,0.60686l0.00701,1.81195       c0.00063,0.22304,0.15856,0.31304,0.35266,0.20097s0.351-0.38382,0.35037-0.60686l-0.00701-1.81195       C19.02151,22.30886,18.86359,22.21886,18.66948,22.33093z"/><path class="st8" d="M18.8639,24.25699l-0.00702-1.81195c-0.00019-0.06646-0.01443-0.12099-0.03934-0.162       c0.12035-0.00518,0.20413,0.08657,0.20459,0.24886l0.00701,1.81195c0.00063,0.22304-0.15627,0.4948-0.35037,0.60686       c-0.13627,0.07868-0.25462,0.05765-0.31332-0.03897c0.04505-0.00194,0.0952-0.01736,0.14807-0.04789       C18.70764,24.75178,18.86453,24.48003,18.8639,24.25699z"/></g><g><path class="st10" d="M17.14857,23.21476c-0.1941,0.11207-0.351,0.38382-0.35037,0.60686l0.00701,1.81195       c0.00063,0.22304,0.15856,0.31304,0.35266,0.20097s0.351-0.38382,0.35037-0.60686l-0.00701-1.81195       C17.5006,23.19269,17.34268,23.10269,17.14857,23.21476z"/><path class="st8" d="M17.34299,25.14082l-0.00702-1.81195c-0.00019-0.06646-0.01443-0.12099-0.03934-0.162       c0.12036-0.00518,0.20413,0.08657,0.20459,0.24886l0.00701,1.81195c0.00063,0.22304-0.15626,0.4948-0.35037,0.60686       c-0.13627,0.07868-0.25462,0.05765-0.31332-0.03897c0.04505-0.00194,0.0952-0.01736,0.14806-0.04789       C17.18673,25.63561,17.34362,25.36386,17.34299,25.14082z"/></g><g><path class="st10" d="M15.62766,24.09859c-0.1941,0.11206-0.351,0.38382-0.35037,0.60686l0.00701,1.81195       c0.00063,0.22304,0.15856,0.31303,0.35266,0.20097c0.1941-0.11207,0.351-0.38382,0.35037-0.60686l-0.00701-1.81195       C15.97969,24.07652,15.82176,23.98652,15.62766,24.09859z"/><path class="st8" d="M15.82208,26.02464l-0.00702-1.81195c-0.00019-0.06646-0.01443-0.12099-0.03934-0.162       c0.12035-0.00518,0.20413,0.08657,0.20459,0.24885l0.00701,1.81195c0.00063,0.22304-0.15626,0.4948-0.35037,0.60686       c-0.13627,0.07867-0.25462,0.05765-0.31332-0.03897c0.04505-0.00194,0.0952-0.01736,0.14806-0.04788       C15.66582,26.51944,15.82271,26.24768,15.82208,26.02464z"/></g><g><path class="st10" d="M14.10675,24.98242c-0.1941,0.11206-0.351,0.38382-0.35037,0.60686l0.00701,1.81195       c0.00063,0.22304,0.15856,0.31303,0.35266,0.20097c0.1941-0.11207,0.351-0.38382,0.35037-0.60686l-0.00701-1.81195       C14.45878,24.96035,14.30085,24.87035,14.10675,24.98242z"/><path class="st8" d="M14.30117,26.90847l-0.00702-1.81195c-0.00019-0.06646-0.01443-0.12099-0.03934-0.16199       c0.12035-0.00518,0.20413,0.08657,0.20459,0.24885l0.00701,1.81195c0.00063,0.22304-0.15626,0.4948-0.35037,0.60686       c-0.13627,0.07867-0.25462,0.05765-0.31332-0.03897c0.04505-0.00194,0.0952-0.01736,0.14807-0.04789       C14.14491,27.40327,14.3018,27.13151,14.30117,26.90847z"/></g></g></g></g></g></svg>