<?xml version="1.0" ?><svg id="Layer_1" style="enable-background:new 0 0 50 50;" version="1.1" viewBox="0 0 50 50" xml:space="preserve" xmlns="http://www.w3.org/2000/svg" xmlns:xlink="http://www.w3.org/1999/xlink"><style type="text/css">
	.st0{fill:#B7C5FD;}
	.st1{fill:#9AADFD;}
	.st2{fill:#FFFFFF;}
	.st3{fill:#3955D1;}
	.st4{fill:#4466FB;}
	.st5{fill:#AABAFD;}
	.st6{fill:#798FFE;}
	.st7{fill:#6BB5FB;}
	.st8{enable-background:new    ;}
	.st9{fill:#1B2A4F;}
	.st10{fill:url(#);}
	.st11{fill:#384E85;}
	.st12{fill:#2E4277;}
	.st13{fill:#D9DDF6;}
	.st14{fill:#535D88;}
	.st15{fill:#2B3C67;}
	.st16{fill:#8FCCFF;}
	.st17{fill:#8CA1FD;}
	.st18{opacity:0.3;}
	.st19{opacity:0.3;fill:#4466FB;}
	.st20{opacity:0.2;}
</style><g><g><g><g><g><g class="st8"><g><path class="st7" d="M33.11977,7.73383c-0.01136-4.00752-2.67808-5.78001-6.07364-4.22639v0.64521         c3.08993-1.38067,5.50653,0.24734,5.51692,3.9026l0.23197-0.1303l0.35131,0.81853L33.11977,7.73383z"/></g><g><g><g><g class="st8"><path class="st7" d="M31.43622,7.10969c0.34304-0.19928,0.81813-0.1712,1.34259,0.13164            c1.04229,0.60176,1.88402,2.05968,1.88062,3.25737c-0.00169,0.59492-0.21162,1.01355-0.55029,1.21035L33.50002,12.063            c0.33864-0.1968,0.54857-0.61528,0.55027-1.21021c0.0034-1.1977-0.83833-2.65576-1.8806-3.25752            c-0.52448-0.3027-0.99956-0.33092-1.34259-0.13164L31.43622,7.10969z"/></g></g></g></g><path class="st12" d="M30.0456,6.92691c0.4558-0.26478,1.08705-0.22748,1.78391,0.17491        c1.3849,0.79956,2.50331,2.73671,2.49879,4.3281c-0.00225,0.79048-0.28118,1.34671-0.73117,1.60821l-1.3721,0.79731        c0.44996-0.2615,0.7289-0.81754,0.73114-1.60801c0.00452-1.59139-1.11389-3.52874-2.49877-4.3283        c-0.69689-0.4022-1.32813-0.43969-1.78391-0.17491L30.0456,6.92691z"/><g><path class="st12" d="M30.4574,7.89919c-1.38488-0.79956-2.5106-0.15802-2.51511,1.43336         c-0.00451,1.59122,1.1139,3.52841,2.49878,4.32797c1.38489,0.79957,2.51061,0.15802,2.51512-1.4332         C32.9607,10.63594,31.84229,8.69875,30.4574,7.89919z"/></g><g><path class="st9" d="M30.3953,8.79312c-0.95512-0.55144-1.73151-0.10898-1.73462,0.98856         c-0.00311,1.09743,0.76823,2.43347,1.72335,2.98491c0.95513,0.55144,1.73151,0.10899,1.73462-0.98845         C32.12177,10.6806,31.35043,9.34456,30.3953,8.79312z"/></g><g><path class="st11" d="M30.62926,12.47913c-0.95512-0.55144-1.72646-1.88747-1.72335-2.98491         c0.00088-0.30892,0.06303-0.56593,0.17317-0.7635c-0.25936,0.198-0.41699,0.55818-0.41839,1.05097         c-0.00311,1.09743,0.76823,2.43347,1.72335,2.98491c0.68631,0.39624,1.28033,0.2793,1.56148-0.22506         C31.62724,12.78452,31.15556,12.78298,30.62926,12.47913z"/></g></g></g></g><g><path class="st1" d="M28.67828,2.87571c1.11481,0.64747,1.80668,2.02336,1.81189,3.97362l0.02612,1.01089l2.07269,1.20417      l-0.0261-1.00828c-0.00523-1.95287-0.69709-3.32876-1.81189-3.97623L28.67828,2.87571z"/></g><g><g><g><path class="st13" d="M32.22776,14.11446c-0.10909,2.48583-0.45653,4.64024-0.45653,4.64024        c-0.16974,2.33904,0.45807,4.07507-0.20124,4.7121c-0.03746,1.90584-0.6307,4.41849-0.6307,4.41849l-6.41359,0.36781        l-3.95706-7.26541c0.60614-2.00689,0.04756-2.04075-0.10063-2.76521c-0.02965-0.14489-0.05066-0.22292-0.05066-0.22292        c0.46029,2.18311-1.07027-7.25117,0.80536-10.32041C22.8364,5.03858,32.13161,5.20696,32.6096,8.3748        C33.06057,10.84581,33.02533,11.99438,32.22776,14.11446z"/></g></g><path class="st11" d="M32.56307,8.05522c-0.00446-1.56353-0.44917-2.75614-1.19851-3.50101      c-1.00249-0.99651-1.74007-1.93186-5.46397-2.29393c-13.03982-1.26785-7.59626,14.78465-7.59626,14.78465l2.91938,0.19495      c-0.27321-7.33739,2.17505-7.98644,3.3779-7.87006c0.89353,0.08649,1.79255,0.14373,2.68072,0.01317      c1.92022-0.28233,2.88728-0.97502,3.83248-1.93672c0.18369-0.18687,0.49569-0.13722,0.62466,0.09083      c1.15349,2.04079,0.4883,6.57732,0.4883,6.57732C33.75644,11.48595,32.56307,8.05522,32.56307,8.05522z"/></g></g><g><g><g><g><g><g><g><g><g><g class="st8"><path class="st11" d="M19.11334,14.99851c0.4558-0.26478,1.08705-2.59902,1.78391-2.19663              c1.38491,0.79956,2.50331,2.73671,2.4988,4.3281c-0.00225,0.79048-0.28119,1.34671-0.73117,1.60821l-1.3721,0.79731              c0.44996-0.2615,0.7289-0.81754,0.73114-1.60801c0.00452-1.59139-1.11389-3.52874-2.49877-4.3283              c-0.69689-0.4022-1.32813-0.43969-1.78391-0.17491L19.11334,14.99851z"/><g><path class="st9" d="M19.52514,13.59924c-1.38488-0.79956-2.5106-0.15802-2.51511,1.43336               c-0.00451,1.59122,1.1139,3.52841,2.49878,4.32797c1.38489,0.79957,2.51061,0.15802,2.51512-1.4332               C22.02843,16.336,20.91003,14.39881,19.52514,13.59924z"/></g></g></g></g><g><g><g class="st8"><path class="st7" d="M17.95157,14.29238c0.34304-0.19928,0.81812-0.1712,1.34259,0.13164              c1.04229,0.60176,1.88402,2.05968,1.88062,3.25737c-0.00169,0.59492-0.21162,1.01355-0.55028,1.21035l-0.7793,0.45284              c0.33864-0.1968,0.54857-0.61529,0.55027-1.21021c0.0034-1.19769-0.83833-2.65576-1.8806-3.25752              c-0.52448-0.3027-0.99956-0.33092-1.34259-0.13164L17.95157,14.29238z"/></g></g></g><g><path class="st0" d="M18.51485,14.8769c-1.04227-0.60176-1.8895-0.11893-1.89289,1.07876            c-0.0034,1.19757,0.83833,2.65552,1.8806,3.25727c1.04228,0.60176,1.88951,0.11893,1.8929-1.07864            C20.39886,16.93661,19.55713,15.47867,18.51485,14.8769z"/></g></g><g><g class="st8"><g><path class="st0" d="M17.53543,14.32925l0.02612,2.28415l2.07269,1.20417l-0.02612-2.28153             c-0.01305-4.2817,3.00764-9.51372,6.73324-11.66503c1.87455-1.08086,3.57679-1.18007,4.80646-0.46733l-2.07531-1.20417             c-1.22707-0.71535-2.9293-0.61614-4.80386,0.46734C20.54306,4.81814,17.52238,10.05016,17.53543,14.32925z"/></g></g></g></g></g></g></g></g><g><path class="st7" d="M26.34182,3.87124c-3.72553,2.15092-6.7461,7.38273-6.73394,11.66364l0.00335,0.1264h0.56351      l-0.01176-0.44685c-0.01113-3.92851,2.76183-8.73147,6.18064-10.70535c2.69482-1.55587,4.99221-0.88926,5.85252,1.38374h0.68829      C32.11194,3.00712,29.47155,2.06429,26.34182,3.87124z"/></g></g></g><g><g><path class="st12" d="M31.77125,18.75465c0,0,0.27552,8.17381-2.94219,8.93792c-3.90713,0.92774-6.12847-4.48531-9.43021-5.13858     c0,0-1.70419,1.00358-3.57981,2.39576c-2.96178,2.19835-4.72288,5.66019-4.72288,9.3487l-0.18557,10.02298     c0,0.97025,0.55231,1.84858,1.42711,2.26814c2.64518,1.2687,8.31131,3.93188,19.41246-2.26814     c0,0,0.01096-0.00674,0.03194-0.01984c4.17586-2.60733,6.56081-4.78562,7.13802-10.74433     C38.92013,33.55725,40.83682,14.18207,31.77125,18.75465z"/><g><g><g><g><path class="st7" d="M32.53642,20.00995c-0.1062,0.03464-0.2101,0.06366-0.31998,0.10748         c-0.17689,2.07022-1.19195,4.74029-3.7327,6.185c0,0-2.91138,1.68884-6.41929-1.96468         c-0.82982-0.01309-1.71548-1.59575-2.66564-1.78374c0,0,8.56201,17.35911,12.35134,21.7674         c0,0,0.29476-0.20679,0.74166-0.54796l-0.04941-0.09539C32.44241,43.67807,35.73892,34.7589,32.53642,20.00995z"/></g><g><polygon class="st15" points="31.51126,24.59504 29.79425,29.12187 33.16451,39.23419 32.49182,43.77346 31.75017,44.32143          29.20312,40.96727 28.47535,29.86568 25.92846,27.74352        "/></g><g><g><g><path class="st16" d="M31.77125,18.75469c0,0,0.16395,4.03743-3.2875,7.54774c0,0,2.50252,1.80343,3.45147,1.80343           c0,0,1.75686-3.98701,1.48865-5.91751S32.10116,20.45053,31.77125,18.75469z"/><path class="st16" d="M19.39881,22.55401c0,0,0.54261-0.46869,1.16984-1.56633c0,0,3.27868,5.58411,7.9151,5.31475           c0,0-0.58625,2.80833-2.05818,4.1401C26.42557,30.44254,21.41292,27.80995,19.39881,22.55401z"/></g></g></g></g><g><path class="st11" d="M19.68126,32.16569h3.1055l-0.82317,2.9774l9.78657,9.17833l-12.35134-21.7674        C19.39882,22.55402,16.93656,27.8442,19.68126,32.16569z"/><path class="st11" d="M35.97264,25.07807c0,0-0.91681-2.63785-4.20141-6.32337c0,0,1.74075,15.43058,0.67117,24.92337        c0,0,3.80327-11.10639,3.80327-14.57993l-1.95677-1.44631L35.97264,25.07807z"/></g></g></g></g><g><path class="st7" d="M28.68502,17.80261c-2.63708,1.73285-6.99561,0.51892-8.00116-0.49078     c-0.14648,0.34503,0.03992,0.55603-0.11523,0.89911c3.89661,2.57574,8.49927,0.54346,8.33716,0.38702     C28.811,18.26055,28.7781,18.1405,28.68502,17.80261z"/><path class="st11" d="M31.32273,17.51043c-0.1554-0.46667-0.65955-0.71906-1.12604-0.56366L28.2092,17.6087     c-0.46649,0.1554-0.71869,0.65967-0.56335,1.1264c0.1554,0.46667,0.65955,0.71899,1.12604,0.56366l1.98749-0.66199     C31.22586,18.48138,31.47812,17.9771,31.32273,17.51043z"/></g></g></g></svg>