<svg xmlns="http://www.w3.org/2000/svg" xmlns:xhtml="http://www.w3.org/1999/xhtml" xmlns:xlink="http://www.w3.org/1999/xlink" viewBox="-4 -4 588 228"><g xmlns="http://www.w3.org/2000/svg" transform="translate(200,0) rotate(0)" data-svg-item-container-id="Muw_-zbHIi" data-item-id="Muw_-zbHIi">  <g style="opacity: 1; mix-blend-mode: normal;"> <defs/> <g filter=""> <g style="opacity: 1;"><g><g><g> </g> <path d="M 170 80  L 10 80 a 10 10 0 0 1 -10 -10  L 0 10  a 10 10 0 0 1 10 -10   L 170 0   a 10 10 0 0 1 10 10  L 180 70   a 10 10 0 0 1 -10 10 Z" stroke-width="2px" stroke="rgba(30,30,30,1.0)" stroke-dasharray="" stroke-linejoin="round" fill="rgba(240,240,240,1.0)"/></g></g></g>  <g style="opacity: 1;"/></g>  <g id="animation-container-Muw_-zbHIi"/>       <g><g transform="matrix(1,0,0,1,-200,140)">  <g style="opacity: 1; mix-blend-mode: normal;"> <defs/> <g filter=""> <g style="opacity: 1;"><g><g><g> </g> <path d="M 170 80  L 10 80 a 10 10 0 0 1 -10 -10  L 0 10  a 10 10 0 0 1 10 -10   L 170 0   a 10 10 0 0 1 10 10  L 180 70   a 10 10 0 0 1 -10 10 Z" stroke-width="2px" stroke="rgba(30,30,30,1.0)" stroke-dasharray="" stroke-linejoin="round" fill="rgba(240,240,240,1.0)"/></g></g></g>  <g style="opacity: 1;"/></g>  <g id="animation-container-ktOtb_oY8W"/>        </g></g><g transform="matrix(1,0,0,1,0,140)">  <g style="opacity: 1; mix-blend-mode: normal;"> <defs/> <g filter=""> <g style="opacity: 1;"><g><g><g> </g> <path d="M 170 80  L 10 80 a 10 10 0 0 1 -10 -10  L 0 10  a 10 10 0 0 1 10 -10   L 170 0   a 10 10 0 0 1 10 10  L 180 70   a 10 10 0 0 1 -10 10 Z" stroke-width="2px" stroke="rgba(30,30,30,1.0)" stroke-dasharray="" stroke-linejoin="round" fill="rgba(240,240,240,1.0)"/></g></g></g>  <g style="opacity: 1;"/></g>  <g id="animation-container-IYCn8vsXk4"/>        </g></g><g transform="matrix(1,0,0,1,200,140)">  <g style="opacity: 1; mix-blend-mode: normal;"> <defs/> <g filter=""> <g style="opacity: 1;"><g><g><g> </g> <path d="M 170 80  L 10 80 a 10 10 0 0 1 -10 -10  L 0 10  a 10 10 0 0 1 10 -10   L 170 0   a 10 10 0 0 1 10 10  L 180 70   a 10 10 0 0 1 -10 10 Z" stroke-width="2px" stroke="rgba(30,30,30,1.0)" stroke-dasharray="" stroke-dashoffset="0" stroke-linejoin="round" fill="rgba(240,240,240,1.0)"/></g></g></g>  <g style="opacity: 1;"/></g>  <g id="animation-container-WKObxreMOy"/>        </g></g><g transform="matrix(1,0,0,1,-110,80)">  <g style="opacity: 1; mix-blend-mode: normal;"> <defs/> <g filter=""><g mode="edit" style="opacity: 1;"><g> </g> <path d="M 200 0 C 200 30 0  15 0 45 " stroke-width="2px" stroke="rgba(30,30,30,1.0)" stroke-dasharray="" fill="none" style="stroke-linejoin: round;"/> <g><path d="M -3.75 45 L 0 60 L 3.75 45  z " stroke="rgba(30,30,30,1.0)" stroke-width="2" fill="rgba(30,30,30,1.0)" stroke-linejoin="round"/></g></g>   </g>  <g id="animation-container-AztEStseEB"/>        </g></g><g transform="matrix(1,0,0,1,90,80)">  <g style="opacity: 1; mix-blend-mode: normal;"> <defs/> <g filter=""><g mode="edit" style="opacity: 1;"><g> </g> <path d="M 0 0 C 0 30 0  15 0 45 " stroke-width="2px" stroke="rgba(30,30,30,1.0)" stroke-dasharray="" fill="none" style="stroke-linejoin: round;"/> <g><path d="M -3.75 45 L 0 60 L 3.75 45  z " stroke="rgba(30,30,30,1.0)" stroke-width="2" fill="rgba(30,30,30,1.0)" stroke-linejoin="round"/></g></g>   </g>  <g id="animation-container-wmrKR7_aL9"/>        </g></g><g transform="matrix(1,0,0,1,90,80)">  <g style="opacity: 1; mix-blend-mode: normal;"> <defs/> <g filter=""><g mode="edit" style="opacity: 1;"><g> </g> <path d="M 0 0 C 0 30 200  15 200 45 " stroke-width="2px" stroke="rgba(30,30,30,1.0)" stroke-dasharray="" stroke-dashoffset="0" fill="none" style="stroke-linejoin: round;"/> <g><path d="M 196.25 45 L 200 60 L 203.75 45  z " stroke="rgba(30,30,30,1.0)" stroke-width="2" fill="rgba(30,30,30,1.0)" stroke-linejoin="round"/></g></g>   </g>  <g id="animation-container--YSXB_-xpD"/>        </g></g></g> </g></g></svg>