<?xml version="1.0" ?><svg viewBox="0 0 64 64" xmlns="http://www.w3.org/2000/svg"><title/><g data-name="Layer 2" id="Layer_2"><circle cx="32" cy="32" r="27.758" style="fill:#f6262f"/></g><g data-name="Layer 1" id="Layer_1"><path d="M28.68,29.77,13.27,24.63a1,1,0,0,0-.76.06.941.941,0,0,0-.5.57A9.133,9.133,0,0,0,17.78,36.8a8.985,8.985,0,0,0,2.87.47,9.156,9.156,0,0,0,8.67-6.24A1,1,0,0,0,28.68,29.77Z" style="fill:#a8111c"/><path d="M51.71,25.23a.984.984,0,0,0-1.26-.63L35.06,29.81a1.039,1.039,0,0,0-.58.51,1.052,1.052,0,0,0-.05.76,9.148,9.148,0,0,0,8.65,6.2,9.126,9.126,0,0,0,8.63-12.05Z" style="fill:#a8111c"/><path d="M42.471,43.58a1,1,0,0,1-.9-.559,10.667,10.667,0,0,0-19.146,0,1,1,0,0,1-1.795-.882,12.667,12.667,0,0,1,22.735,0,1,1,0,0,1-.9,1.441Z" style="fill:#2d090e"/></g></svg>