<?xml version="1.0" ?><svg viewBox="0 0 64 64" xmlns="http://www.w3.org/2000/svg"><title/><g data-name="Layer 2" id="Layer_2"><circle cx="32" cy="32" r="27.758" style="fill:#f9bf44"/></g><g data-name="Layer 1" id="Layer_1"><path d="M58.556,23.822c-.54.46-1.1.9-1.7,1.33-5.91,4.18-14.83,6.85-24.83,6.85s-18.92-2.67-24.83-6.85c-.6-.43-1.16-.87-1.7-1.33a27.763,27.763,0,0,1,53.06,0Z" style="fill:#80a148"/><ellipse cx="20.894" cy="29.865" rx="2.5" ry="2.87" style="fill:#434f26"/><ellipse cx="42.889" cy="29.865" rx="2.5" ry="2.87" style="fill:#434f26"/><path d="M17.48,28a6.793,6.793,0,0,1-4.426-1.646,1,1,0,1,1,1.3-1.52A4.833,4.833,0,0,0,22.322,21.4a1,1,0,1,1,2,.1A6.786,6.786,0,0,1,20.2,27.436,6.861,6.861,0,0,1,17.48,28Z" style="fill:#434f26"/><path d="M26.614,44.048a1,1,0,0,1-.456-1.891,4.833,4.833,0,0,0-.131-8.674,1,1,0,1,1,.854-1.809,6.833,6.833,0,0,1,.187,12.264A1,1,0,0,1,26.614,44.048Z" style="fill:#382a12"/><path d="M37.327,44.048a1,1,0,0,1-.454-.109,6.833,6.833,0,0,1,.187-12.264,1,1,0,0,1,.854,1.809,4.833,4.833,0,0,0-.131,8.674,1,1,0,0,1-.456,1.891Z" style="fill:#382a12"/><path d="M46.539,28a6.877,6.877,0,0,1-2.717-.563A6.79,6.79,0,0,1,39.7,21.5a1,1,0,1,1,2-.1,4.833,4.833,0,0,0,7.967,3.432,1,1,0,1,1,1.3,1.52A6.793,6.793,0,0,1,46.539,28Z" style="fill:#434f26"/><rect height="2" style="fill:#382a12" width="6.354" x="28.794" y="36.778"/></g></svg>