<?xml version="1.0" ?><svg viewBox="0 0 64 64" xmlns="http://www.w3.org/2000/svg"><title/><g data-name="Layer 2" id="Layer_2"><circle cx="32" cy="32" r="27.758" style="fill:#f9bf44"/></g><g data-name="Layer 1" id="Layer_1"><path d="M24.706,38.687a8.341,8.341,0,0,0,14.98,0,.987.987,0,0,0-.05-.97,1,1,0,0,0-.85-.47H25.606a1,1,0,0,0-.85.47A.987.987,0,0,0,24.706,38.687Z" style="fill:#c15f1e"/><path d="M20.814,32.908a1,1,0,0,1-.29-.043,4.344,4.344,0,0,1-3.153-5.245,4.344,4.344,0,0,1,5.534-2.626,1,1,0,1,1-.578,1.914A2.36,2.36,0,0,0,19.285,28.2,2.356,2.356,0,0,0,21.1,30.951a1,1,0,0,1-.29,1.957Z" style="fill:#434f26"/><path d="M20.149,39.034a4.911,4.911,0,0,1-1.426-.213,1,1,0,0,1,.578-1.914,2.354,2.354,0,0,0,3.033-1.293,2.35,2.35,0,0,0-1.81-2.749,1,1,0,0,1,.578-1.914,4.339,4.339,0,0,1,3.146,5.242A4.181,4.181,0,0,1,20.149,39.034Z" style="fill:#434f26"/><path d="M20.876,41.3a1,1,0,0,1-1-1V23.678a1,1,0,0,1,2,0V40.3A1,1,0,0,1,20.876,41.3Z" style="fill:#434f26"/><path d="M43.194,32.908a1,1,0,0,1-.29-.043,4.344,4.344,0,0,1-3.153-5.245,3.9,3.9,0,0,1,2.17-2.43,4.755,4.755,0,0,1,3.363-.2,1,1,0,0,1-.578,1.914,2.757,2.757,0,0,0-1.954.1A1.937,1.937,0,0,0,41.665,28.2a2.356,2.356,0,0,0,1.819,2.753,1,1,0,0,1-.29,1.957Z" style="fill:#434f26"/><path d="M42.529,39.034a4.911,4.911,0,0,1-1.426-.213,1,1,0,1,1,.578-1.914,2.354,2.354,0,0,0,3.033-1.293,2.35,2.35,0,0,0-1.81-2.749,1,1,0,1,1,.578-1.914,4.339,4.339,0,0,1,3.146,5.242A4.181,4.181,0,0,1,42.529,39.034Z" style="fill:#434f26"/><path d="M43.256,41.3a1,1,0,0,1-1-1V23.678a1,1,0,1,1,2,0V40.3A1,1,0,0,1,43.256,41.3Z" style="fill:#434f26"/></g></svg>