<?xml version="1.0" ?><svg viewBox="0 0 64 64" xmlns="http://www.w3.org/2000/svg"><title/><g data-name="Layer 2" id="Layer_2"><circle cx="32" cy="32" r="27.758" style="fill:#f9bf44"/></g><g data-name="Layer 1" id="Layer_1"><path d="M22.78,23.2a4.845,4.845,0,0,0-4.03,2.29,4.845,4.845,0,0,0-4.03-2.29c-2.78,0-5.04,2.54-5.04,5.66,0,6.28,8.25,10.7,8.6,10.88a1,1,0,0,0,.47.12,1.141,1.141,0,0,0,.4-.08c.35-.16,8.67-3.84,8.67-10.92C27.82,25.74,25.56,23.2,22.78,23.2Z" style="fill:#f6262f"/><path d="M49.37,23.2a4.844,4.844,0,0,0-4.03,2.29,4.845,4.845,0,0,0-4.03-2.29c-2.78,0-5.04,2.54-5.04,5.66,0,6.28,8.25,10.7,8.6,10.88a1,1,0,0,0,.47.12,1.141,1.141,0,0,0,.4-.08c.35-.16,8.67-3.84,8.67-10.92C54.41,25.74,52.15,23.2,49.37,23.2Z" style="fill:#f6262f"/><path d="M24.65,38.438a8.341,8.341,0,0,0,14.98,0,.987.987,0,0,0-.05-.97,1,1,0,0,0-.85-.47H25.55a1,1,0,0,0-.85.47A.987.987,0,0,0,24.65,38.438Z" style="fill:#c15f1e"/></g></svg>