<?xml version="1.0" ?><svg viewBox="0 0 64 64" xmlns="http://www.w3.org/2000/svg"><title/><g data-name="Layer 2" id="Layer_2"><circle cx="32" cy="32" r="27.758" style="fill:#f9bf44"/></g><g data-name="Layer 1" id="Layer_1"><path d="M32,34.3c-2.06,0-3.75,2.09-3.75,4.66s1.69,4.67,3.75,4.67,3.75-2.09,3.75-4.67S34.07,34.3,32,34.3Z" style="fill:#c15f1e"/><path d="M20.867,33.586a6.787,6.787,0,0,1-6.133-3.819,1,1,0,0,1,1.795-.881,4.835,4.835,0,0,0,8.676,0A1,1,0,0,1,27,29.767,6.787,6.787,0,0,1,20.867,33.586Z" style="fill:#382a12"/><path d="M42.861,33.586a6.787,6.787,0,0,1-6.132-3.819,1,1,0,0,1,1.795-.881,4.834,4.834,0,0,0,8.675,0,1,1,0,0,1,1.795.881A6.787,6.787,0,0,1,42.861,33.586Z" style="fill:#382a12"/><path d="M48.146,22.75H43.523a1,1,0,0,1-.734-1.679L45.86,17.75H43.523a1,1,0,0,1,0-2h4.623a1,1,0,0,1,.734,1.679L45.81,20.75h2.337a1,1,0,1,1,0,2Z" style="fill:#382a12"/><path d="M58.325,17.164H51.388a1.133,1.133,0,0,1-.832-1.9l5.18-5.6H51.388a1.133,1.133,0,0,1,0-2.266h6.938a1.133,1.133,0,0,1,.832,1.9l-5.18,5.6h4.348a1.133,1.133,0,0,1,0,2.266Z" style="fill:#382a12"/></g></svg>