<?xml version="1.0" ?><svg viewBox="0 0 64 64" xmlns="http://www.w3.org/2000/svg"><title/><g data-name="Layer 2" id="Layer_2"><circle cx="32" cy="32" r="27.758" style="fill:#f9bf44"/></g><g data-name="Layer 1" id="Layer_1"><path d="M51.58,32.24l-2.43-2.43a1,1,0,0,0-1.41,0l-2.43,2.43a4.435,4.435,0,0,0,3.14,7.57,4.434,4.434,0,0,0,3.13-7.57Z" style="fill:#58b3de"/><path d="M42.61,41.539a1,1,0,0,1-.9-.56,10.667,10.667,0,0,0-19.145,0,1,1,0,1,1-1.795-.881,12.666,12.666,0,0,1,22.734,0,1,1,0,0,1-.9,1.44Z" style="fill:#382a12"/><path d="M20.615,31.515A6.787,6.787,0,0,1,14.482,27.7a1,1,0,0,1,1.795-.881,4.835,4.835,0,0,0,8.676,0,1,1,0,0,1,1.795.881A6.787,6.787,0,0,1,20.615,31.515Z" style="fill:#382a12"/><path d="M42.609,31.515A6.787,6.787,0,0,1,36.478,27.7a1,1,0,0,1,1.795-.881,4.834,4.834,0,0,0,8.675,0,1,1,0,0,1,1.795.881A6.787,6.787,0,0,1,42.609,31.515Z" style="fill:#382a12"/></g></svg>