<?xml version="1.0" ?><svg viewBox="0 0 64 64" xmlns="http://www.w3.org/2000/svg"><title/><g data-name="Layer 2" id="Layer_2"><circle cx="32" cy="32" r="27.758" style="fill:#f9bf44"/></g><g data-name="Layer 1" id="Layer_1"><path d="M32,35.01c-2.07,0-3.75,2.09-3.75,4.66s1.68,4.67,3.75,4.67,3.75-2.09,3.75-4.67S34.07,35.01,32,35.01Z" style="fill:#c15f1e"/><circle cx="21.004" cy="31.992" r="6.622" style="fill:#fff"/><circle cx="42.999" cy="31.992" r="6.622" style="fill:#fff"/><path d="M14.2,23.68h-.051A1,1,0,0,1,13.2,22.63a6.834,6.834,0,0,1,11.266-4.852,1,1,0,0,1-1.3,1.52A4.833,4.833,0,0,0,15.2,22.729,1,1,0,0,1,14.2,23.68Z" style="fill:#382a12"/><path d="M49.8,23.68a1,1,0,0,1-1-.95A4.834,4.834,0,0,0,40.836,19.3a1,1,0,0,1-1.3-1.52A6.834,6.834,0,0,1,50.8,22.63a1,1,0,0,1-.949,1.049Z" style="fill:#382a12"/><ellipse cx="21.003" cy="32.151" rx="1.521" ry="1.746" style="fill:#382a12"/><ellipse cx="42.997" cy="32.151" rx="1.521" ry="1.746" style="fill:#382a12"/></g></svg>