<?xml version="1.0" ?><svg viewBox="0 0 64 64" xmlns="http://www.w3.org/2000/svg"><title/><g data-name="Layer 2" id="Layer_2"><circle cx="32" cy="32" r="27.758" style="fill:#f9bf44"/></g><g data-name="Layer 1" id="Layer_1"><path d="M25.868,39.422a1,1,0,0,1-.3-1.953,21.908,21.908,0,0,1,13.165,0,1,1,0,0,1-.606,1.906,19.87,19.87,0,0,0-11.952,0A1,1,0,0,1,25.868,39.422Z" style="fill:#382a12"/><path d="M25.25,30.338H15.375a1,1,0,0,1,0-2H25.25a1,1,0,0,1,0,2Z" style="fill:#382a12"/><path d="M47.375,30.338H37.5a1,1,0,0,1,0-2h9.875a1,1,0,0,1,0,2Z" style="fill:#382a12"/></g></svg>