<?xml version="1.0" ?><svg viewBox="0 0 64 64" xmlns="http://www.w3.org/2000/svg"><title/><g data-name="Layer 2" id="Layer_2"><circle cx="32" cy="32" r="27.758" style="fill:#f9bf44"/></g><g data-name="Layer 1" id="Layer_1"><path d="M37.762,31.925a1,1,0,0,1-.9-1.44,6.833,6.833,0,0,1,12.265,0,1,1,0,0,1-1.795.882,4.834,4.834,0,0,0-8.675,0A1,1,0,0,1,37.762,31.925Z" style="fill:#382a12"/><path d="M26.238,31.925a1,1,0,0,1-.9-.56,4.834,4.834,0,0,0-8.675,0,1,1,0,0,1-1.795-.882,6.833,6.833,0,0,1,12.265,0,1,1,0,0,1-.9,1.44Z" style="fill:#382a12"/><path d="M48.9,35.43a.972.972,0,0,0-.84-.47H15.94a1,1,0,0,0-.89,1.44,18.891,18.891,0,0,0,33.9,0A.963.963,0,0,0,48.9,35.43Z" style="fill:#c15f1e"/></g></svg>