<?xml version="1.0" ?><svg viewBox="0 0 64 64" xmlns="http://www.w3.org/2000/svg"><title/><g data-name="Layer 2" id="Layer_2"><circle cx="32" cy="32" r="27.758" style="fill:#f9bf44"/></g><g data-name="Layer 1" id="Layer_1"><path d="M51.88,34.81a2.429,2.429,0,0,1-.89-.17c-.01,0-.01,0-.02-.01a2.246,2.246,0,0,1-.68-.41,2.423,2.423,0,0,1-.85-1.77v-.01H13.87c-.01.03-.02.05-.03.08v.02a1.089,1.089,0,0,1-.03.26.3.3,0,0,1-.02.1.6.6,0,0,1-.05.18,1.369,1.369,0,0,1-.15.38.525.525,0,0,1-.1.18,1.375,1.375,0,0,1-.13.2,1.15,1.15,0,0,1-.14.17,2.144,2.144,0,0,1-.42.37,2.428,2.428,0,0,1-1.38.43,1.977,1.977,0,0,0,.17.62c.2.44.42.88.64,1.3,4.32,8.36,11.82,13.49,19.85,13.49,8,0,15.49-5.1,19.82-13.41.24-.45.46-.91.68-1.38a1.993,1.993,0,0,0,.19-.79A2.429,2.429,0,0,1,51.88,34.81Z" style="fill:#c15f1e"/><path d="M50.97,34.63a2.246,2.246,0,0,1-.68-.41,2.423,2.423,0,0,1-.85-1.77H13.85a.171.171,0,0,1-.01.07,1.581,1.581,0,0,1-.05.38.6.6,0,0,1-.05.18,1.369,1.369,0,0,1-.15.38.525.525,0,0,1-.1.18,1.375,1.375,0,0,1-.13.2,1.15,1.15,0,0,1-.14.17,2.144,2.144,0,0,1-.42.37c.17.2.35.39.54.58a12.048,12.048,0,0,0,.9.84c4.06,3.47,10.6,5.56,17.78,5.56,6.97,0,13.36-1.97,17.43-5.28a14.607,14.607,0,0,0,1.51-1.41q.03-.015.03-.03C50.98,34.64,50.98,34.64,50.97,34.63Z" style="fill:#fff"/><path d="M15.81,28.66a.99.99,0,0,0-.96-.72H11.42a4.435,4.435,0,1,0,0,8.87,4.279,4.279,0,0,0,.81-.08,4.4,4.4,0,0,0,1.66-.67c.12-.08.23-.17.35-.26a4.43,4.43,0,0,0,1.2-1.58,4.218,4.218,0,0,0,.41-1.77V28.94a.8.8,0,0,0-.04-.27Z" style="fill:#58b3de"/><path d="M51.88,27.94H48.44a1,1,0,0,0-1,1v3.51a4.22,4.22,0,0,0,.41,1.77.613.613,0,0,0,.07.14h.59c-.13.11-.27.22-.41.33a4.37,4.37,0,0,0,1.35,1.39,4.827,4.827,0,0,0,.63.35,4.5,4.5,0,0,0,1.8.38h.02a4.435,4.435,0,0,0-.02-8.87Z" style="fill:#58b3de"/><path d="M47.523,29.013a1,1,0,0,1-.9-.56,4.833,4.833,0,0,0-8.675,0,1,1,0,1,1-1.795-.881,6.832,6.832,0,0,1,12.265,0,1,1,0,0,1-.9,1.44Z" style="fill:#382a12"/><path d="M25.529,29.013a1,1,0,0,1-.9-.56,4.833,4.833,0,0,0-8.675,0,1,1,0,1,1-1.795-.881,6.832,6.832,0,0,1,12.265,0,1,1,0,0,1-.9,1.44Z" style="fill:#382a12"/></g></svg>