<?xml version="1.0" ?><svg viewBox="0 0 64 64" xmlns="http://www.w3.org/2000/svg"><title/><g data-name="Layer 2" id="Layer_2"><circle cx="32" cy="32" r="27.758" style="fill:#f6262f"/></g><g data-name="Layer 1" id="Layer_1"><path d="M28.809,29.77,13.4,24.63a1,1,0,0,0-.76.06.941.941,0,0,0-.5.57,9.133,9.133,0,0,0,5.77,11.54,8.985,8.985,0,0,0,2.87.47,9.156,9.156,0,0,0,8.67-6.24A1,1,0,0,0,28.809,29.77Z" style="fill:#a8111c"/><path d="M51.839,25.23a.984.984,0,0,0-1.26-.63l-15.39,5.21a1.039,1.039,0,0,0-.58.51,1.052,1.052,0,0,0-.05.76,9.148,9.148,0,0,0,8.65,6.2,9.126,9.126,0,0,0,8.63-12.05Z" style="fill:#a8111c"/><path d="M43.37,42.14a12.67,12.67,0,0,0-22.74,0,1,1,0,0,0,.9,1.44H42.47a1,1,0,0,0,.9-1.44Z" style="fill:#2d090e"/><path d="M37.2,16.09a4.779,4.779,0,0,1-3.259-1.276A1,1,0,0,1,35.3,13.347a2.787,2.787,0,0,0,1.9.743,2.84,2.84,0,0,0,2.163-4.668A1,1,0,1,1,40.9,8.139a4.84,4.84,0,0,1-3.7,7.952Z" style="fill:#2d090e"/><path d="M44.695,23.724a1.012,1.012,0,0,1-.2-.02,1,1,0,0,1-.784-1.177,2.751,2.751,0,0,0-.358-2.009,2.84,2.84,0,0,0-5.111.594,1,1,0,0,1-1.9-.639,4.84,4.84,0,0,1,8.711-1,4.781,4.781,0,0,1,.614,3.447A1,1,0,0,1,44.695,23.724Z" style="fill:#2d090e"/><path d="M48.659,18.112a4.836,4.836,0,0,1-4.433-6.782,4.782,4.782,0,0,1,2.482-2.467A1,1,0,0,1,47.5,10.7a2.788,2.788,0,0,0-1.447,1.439A2.84,2.84,0,0,0,49.456,16a1,1,0,0,1,.554,1.922A4.881,4.881,0,0,1,48.659,18.112Z" style="fill:#2d090e"/></g></svg>