<?xml version="1.0" ?><svg viewBox="0 0 64 64" xmlns="http://www.w3.org/2000/svg"><title/><g data-name="Layer 2" id="Layer_2"><circle cx="32" cy="32" r="27.758" style="fill:#f9bf44"/></g><g data-name="Layer 1" id="Layer_1"><path d="M31.67,33.3c-2.06,0-3.75,2.09-3.75,4.66s1.69,4.67,3.75,4.67,3.75-2.09,3.75-4.67S33.74,33.3,31.67,33.3Z" style="fill:#c15f1e"/><path d="M28.46,23.29l-5.22-.97-2.16-4.85a1.935,1.935,0,0,0-3.47-.14l-2.54,4.66-5.28.55A1.939,1.939,0,0,0,8.58,25.8l3.65,3.86-1.1,5.19A1.936,1.936,0,0,0,13.86,37l4.79-2.27,4.59,2.65a1.962,1.962,0,0,0,2.05-.06,1.952,1.952,0,0,0,.85-1.87l-.69-5.26,3.95-3.55a1.94,1.94,0,0,0-.94-3.35Z" style="fill:#66337b"/><path d="M55.79,24.67a1.938,1.938,0,0,0-1.51-1.38l-5.22-.97-2.15-4.85a1.943,1.943,0,0,0-3.48-.14l-2.54,4.66-5.28.55a1.94,1.94,0,0,0-1.2,3.26l3.65,3.86-1.11,5.19A1.936,1.936,0,0,0,39.68,37l4.79-2.27,4.6,2.65a1.859,1.859,0,0,0,.97.26,1.889,1.889,0,0,0,1.07-.32,1.933,1.933,0,0,0,.85-1.87l-.69-5.26,3.95-3.55A1.94,1.94,0,0,0,55.79,24.67Z" style="fill:#66337b"/></g></svg>