<?xml version="1.0" ?><svg viewBox="0 0 64 64" xmlns="http://www.w3.org/2000/svg"><title/><g data-name="Layer 2" id="Layer_2"><circle cx="32" cy="32" r="27.758" style="fill:#f9bf44"/></g><g data-name="Layer 1" id="Layer_1"><path d="M42.471,42.394a1,1,0,0,1-.9-.56,10.666,10.666,0,0,0-19.145,0,1,1,0,1,1-1.795-.881,12.665,12.665,0,0,1,22.734,0,1,1,0,0,1-.9,1.44Z" style="fill:#382a12"/><path d="M24.744,32.687a1,1,0,0,1-.707-.293l-5.79-5.79a1,1,0,0,1,1.414-1.414l5.79,5.79a1,1,0,0,1-.707,1.707Z" style="fill:#382a12"/><path d="M18.963,32.483a1,1,0,0,1-.7-1.718l5.873-5.7A1,1,0,1,1,25.532,26.5l-5.873,5.7A1,1,0,0,1,18.963,32.483Z" style="fill:#382a12"/><path d="M43.442,32.687a1,1,0,0,1-.707-.293l-5.79-5.79a1,1,0,0,1,1.414-1.414l5.79,5.79a1,1,0,0,1-.707,1.707Z" style="fill:#382a12"/><path d="M37.66,32.483a1,1,0,0,1-.7-1.718l5.873-5.7A1,1,0,1,1,44.229,26.5l-5.873,5.7A1,1,0,0,1,37.66,32.483Z" style="fill:#382a12"/></g></svg>