<svg xmlns="http://www.w3.org/2000/svg" xmlns:xhtml="http://www.w3.org/1999/xhtml" xmlns:xlink="http://www.w3.org/1999/xlink" viewBox="-2 -2 324 324"><g xmlns="http://www.w3.org/2000/svg" transform="translate(0,0) rotate(0)" data-svg-item-container-id="6WCEtuH2b" data-item-id="6WCEtuH2b">  <g style="opacity: 1; mix-blend-mode: normal;"> <defs/> <g filter=""> <g style="opacity: 1;"><g><g><g> </g> <path d="M 0 160 A 160 160 0 1 1 320 160  A 160 160 0 1 1 0 160 Z" stroke-width="0px" stroke="rgba(30,30,30,1.0)" stroke-dasharray="" stroke-dashoffset="0" stroke-linejoin="round" fill="rgba(44, 135, 158, 1)"/></g></g></g>  <g style="opacity: 1;"/></g>  <g id="animation-container-6WCEtuH2b"/>       <g><g transform="matrix(1,0,0,1,112.62233730745402,57.81531620007554)">  <g style="opacity: 1; mix-blend-mode: normal;"> <defs/> <g filter=""><g mode="edit" style="opacity: 1;"><g> </g> <path d="M 0 37.44 C -0.23 48.47 23.47 45.17 26.13 38.83 C 28.79 32.49 38.1 26.31 52.38 27.19 C 66.66 28.07 71.86 45.12 67.24 57.32 C 62.62 69.52 44.8 81.77 39.43 96.67 C 34.06 111.57 34.94 124 36.21 134.48 C 37.48 144.96 61.52 145.09 61.61 135.82 C 61.7 126.55 60.18 123.48 66.41 103.34 C 72.64 83.2 93.72 81.8 97.57 55.06 C 101.42 28.32 89.89 0.61 53.58 0.01 C 17.27 -0.59 0.23 26.41 0 37.44  Z " stroke-width="4px" stroke="rgba(255, 255, 255, 1)" stroke-dasharray="" stroke-dashoffset="0" fill="rgba(255,255,255,1.0)" style="stroke-linejoin: round;"/></g>   </g>  <g id="animation-container-8OEZgPGPW"/>        </g></g><g transform="matrix(1,0,0,1,143.80109599270077,223.1046829683749)">  <g style="opacity: 1; mix-blend-mode: normal;"> <defs/> <g filter=""> <g style="opacity: 1;"><g><g><g> </g> <path d="M 0 19.222673521605685 A 19.222673521605657 19.222673521605685 0 1 1 38.445347043211314 19.222673521605685  A 19.222673521605657 19.222673521605685 0 1 1 0 19.222673521605685 Z" stroke-width="0px" stroke="rgba(30,30,30,1.0)" stroke-dasharray="" stroke-dashoffset="0" stroke-linejoin="round" fill="rgba(255, 255, 255, 1)"/></g></g></g>  <g style="opacity: 1;"/></g>  <g id="animation-container-n-7FE6ID2n"/>        </g></g></g> </g></g></svg>