<svg xmlns="http://www.w3.org/2000/svg" xmlns:xhtml="http://www.w3.org/1999/xhtml" xmlns:xlink="http://www.w3.org/1999/xlink" viewBox="-40 -40 405 355"><g xmlns="http://www.w3.org/2000/svg" transform="translate(0,0) rotate(0)" data-svg-item-container-id="lBSAXqnx_" data-item-id="lBSAXqnx_">  <g style="opacity: 1; mix-blend-mode: normal;"> <defs/> <g filter=""><g mode="edit" style="opacity: 1;"><g> </g> <path d="M 141.76 0 C 151.76 -14.99 171.75 -14.99 181.75 0 C 191.75 14.99 314.39 226.93 321.76 239.99 C 329.13 253.05 321.76 275 301.77 275 C 281.78 275 44.98 274.75 26.74 275 C 8.5 275.25 -6.65 255.45 3.02 239 C 12.69 222.55 131.76 14.99 141.76 0  Z " stroke-width="20px" stroke="rgba(213, 126, 12, 1)" stroke-dasharray="" stroke-dashoffset="0" fill="rgba(255, 245, 9, 1)" style="stroke-linejoin: round;"/></g>   </g>  <g id="animation-container-lBSAXqnx_"/>       <g><g transform="matrix(1,0,0,1,139.6003898626609,187.95253731820193)">  <g style="opacity: 1; mix-blend-mode: normal;"> <defs/> <g filter=""> <g style="opacity: 1;"><g><g><g> </g> <path d="M 0 22.5 A 22.5 22.5 0 1 1 45 22.5  A 22.5 22.5 0 1 1 0 22.5 Z" stroke-width="0px" stroke="rgba(30,30,30,1.0)" stroke-dasharray="" stroke-dashoffset="0" stroke-linejoin="round" fill="rgba(2, 2, 2, 1)"/></g></g></g>  <g style="opacity: 1;"/></g>  <g id="animation-container-ciLFg6Jgz"/>        </g></g><g transform="matrix(1,0,0,1,140.04425784925888,56.67581015062873)">  <g style="opacity: 1; mix-blend-mode: normal;"> <defs/> <g filter=""><g mode="edit" style="opacity: 1;"><g> </g> <path d="M 0.02 9.89 C -0.38 0.6 4.01 -0.14 22.55 0.01 C 41.09 0.16 44.7 0.42 44.62 9.57 C 44.54 18.72 38.55 94.71 37.42 105.33 C 36.29 115.95 7.62 116.15 6.34 104.71 C 5.06 93.27 0.42 19.18 0.02 9.89  Z " stroke-width="0px" stroke="rgba(255, 255, 255, 1)" stroke-dasharray="" stroke-dashoffset="0" fill="rgba(2, 2, 2, 1)" style="stroke-linejoin: round;"/></g>   </g>  <g id="animation-container-ch5brXIRX"/>        </g></g></g> </g></g></svg>