<?xml version="1.0" ?><!DOCTYPE svg  PUBLIC '-//W3C//DTD SVG 1.1//EN'  'http://www.w3.org/Graphics/SVG/1.1/DTD/svg11.dtd'><svg enable-background="new 0 0 50 50" id="Layer_1" version="1.1" viewBox="0 0 50 50" xml:space="preserve" xmlns="http://www.w3.org/2000/svg" xmlns:xlink="http://www.w3.org/1999/xlink"><g><rect fill="#D2D2D2" height="9.91271" width="2.82707" x="23.58647" y="27.5394"/><path d="M9.20171,40.53213L9.20171,40.53213c0-0.78068,0.63286-1.41354,1.41354-1.41354h28.76944   c0.78067,0,1.41354,0.63286,1.41354,1.41354v0c0,0.78068-0.63287,1.41354-1.41354,1.41354l-28.76944,0   C9.83457,41.94567,9.20171,41.3128,9.20171,40.53213z" fill="#D2D2D2"/><circle cx="24.99997" cy="40.53213" fill="#656766" r="5.0269"/><circle cx="24.99997" cy="40.53213" fill="#D2D2D2" r="2.55166"/><g><g><path d="M48.47541,17.25182h-3.20575c-0.28994,0-0.52456,0.23462-0.52456,0.52456     s0.23462,0.52456,0.52456,0.52456h3.20575c0.28994,0,0.52456-0.23462,0.52456-0.52456S48.76535,17.25182,48.47541,17.25182z" fill="#53B1E2"/><path d="M43.66729,15.24733c0.09119,0,0.18339-0.02356,0.2674-0.07325l3.20576-1.90306     c0.24896-0.14804,0.33092-0.46975,0.18339-0.71922c-0.14804-0.24896-0.47026-0.33195-0.71922-0.18339l-3.20575,1.90306     c-0.24896,0.14804-0.33092,0.46975-0.18339,0.71922C43.31383,15.15563,43.488,15.24733,43.66729,15.24733z" fill="#85BD57"/><path d="M47.14045,22.28175l-3.20576-1.90255c-0.24896-0.14804-0.57066-0.06557-0.71922,0.18339     c-0.14753,0.24947-0.06557,0.57118,0.18339,0.71922l3.20575,1.90255c0.08401,0.04969,0.17622,0.07325,0.2674,0.07325     c0.17929,0,0.35346-0.09169,0.45182-0.25664C47.47137,22.7515,47.38941,22.4298,47.14045,22.28175z" fill="#FFC966"/></g><g><path d="M1.52453,18.30038h3.20576c0.28994,0,0.52456-0.23462,0.52456-0.52456     c0-0.28994-0.23462-0.52456-0.52456-0.52456l-3.20576,0c-0.28994,0-0.52456,0.23462-0.52456,0.52456     C0.99997,18.06576,1.23459,18.30038,1.52453,18.30038z" fill="#53B1E2"/><path d="M6.33265,20.30487c-0.09118,0-0.18339,0.02356-0.2674,0.07325L2.8595,22.28119     c-0.24896,0.14804-0.33092,0.46975-0.18339,0.71922c0.14804,0.24896,0.47026,0.33195,0.71922,0.18339l3.20576-1.90307     c0.24896-0.14804,0.33092-0.46975,0.18339-0.71922C6.68612,20.39657,6.51195,20.30487,6.33265,20.30487z" fill="#85BD57"/><path d="M2.85949,13.27045L6.06525,15.173c0.24896,0.14804,0.57066,0.06557,0.71922-0.18339     c0.14753-0.24947,0.06557-0.57118-0.18339-0.71922l-3.20576-1.90255c-0.08401-0.04969-0.17622-0.07325-0.2674-0.07325     c-0.17929,0-0.35346,0.0917-0.45182,0.25665C2.52857,12.8007,2.61053,13.1224,2.85949,13.27045z" fill="#FFC966"/></g></g><g><rect fill="#4E4C4D" height="15.05665" width="23.26427" x="13.36783" y="10.24777"/><g><path d="M36.75035,19.49763H13.24959c-2.31876,0-4.19849,1.87973-4.19849,4.19849v3.21662     c0,2.31876,1.87973,4.19849,4.19849,4.19849h23.50075c2.31876,0,4.19849-1.87973,4.19849-4.19849v-3.21662     C40.94884,21.37735,39.06911,19.49763,36.75035,19.49763z" fill="#656766"/><path d="M36.75035,4.44097H13.24959c-2.31876,0-4.19849,1.87973-4.19849,4.19849v3.21662     c0,2.31876,1.87973,4.19849,4.19849,4.19849h23.50075c2.31876,0,4.19849-1.87973,4.19849-4.19849V8.63946     C40.94884,6.3207,39.06911,4.44097,36.75035,4.44097z" fill="#656766"/></g><g><circle cx="15.23678" cy="10.24777" fill="#EC6E62" r="2.23497"/><circle cx="21.58881" cy="10.24777" fill="#85BD57" r="2.23497"/></g><g><circle cx="15.23678" cy="25.30443" fill="#EC6E62" r="2.23497"/><circle cx="21.58881" cy="25.30443" fill="#85BD57" r="2.23497"/></g></g></g></svg>