<?xml version="1.0" ?><svg id="Layer_1" style="enable-background:new 0 0 50 50;" version="1.1" viewBox="0 0 50 50" xml:space="preserve" xmlns="http://www.w3.org/2000/svg" xmlns:xlink="http://www.w3.org/1999/xlink"><style type="text/css">
	.st0{fill:#53B1E2;}
	.st1{fill:#E7E3E6;}
</style><g><g><g><path class="st0" d="M45.4,23.3h-3.8v13.9h3.8c2,0,3.6-1.6,3.6-3.6V27C49,25,47.4,23.3,45.4,23.3z"/></g><g><path class="st0" d="M4.6,23.3h3.8v13.9H4.6c-2,0-3.6-1.6-3.6-3.6V27C1,25,2.6,23.3,4.6,23.3z"/></g></g><g><path class="st1" d="M43,21.8v18c0,3.6-3,6.6-6.6,6.6h-7.7c-0.8,0-1.4-0.6-1.4-1.4c0-0.8,0.6-1.4,1.4-1.4h7.7    c2.1,0,3.8-1.7,3.8-3.8V22.3c0-8.2-6.3-15.2-14.4-15.6C17.1,6.3,9.8,13.2,9.8,21.8V38c0,0.8-0.6,1.4-1.4,1.4C7.7,39.4,7,38.7,7,38    V22.3c0-9.7,7.6-18,17.3-18.4C34.5,3.5,43,11.7,43,21.8z"/></g><g><path class="st0" d="M34.5,11.1c-0.6,0-1.1-0.2-1.6-0.5c-2.3-1.6-5-2.5-7.9-2.5s-5.6,0.9-7.9,2.5c-1.3,0.9-3,0.6-3.9-0.7    c-0.9-1.3-0.6-3,0.7-3.9C17.2,3.7,21,2.5,25,2.5S32.8,3.7,36.1,6c1.3,0.9,1.6,2.6,0.7,3.9C36.2,10.6,35.4,11.1,34.5,11.1z"/></g><circle class="st0" cx="27.7" cy="45" r="2.5"/></g></svg>