<?xml version="1.0" ?><!DOCTYPE svg  PUBLIC '-//W3C//DTD SVG 1.1//EN'  'http://www.w3.org/Graphics/SVG/1.1/DTD/svg11.dtd'><svg enable-background="new 0 0 50 50" id="Layer_1" version="1.1" viewBox="0 0 50 50" xml:space="preserve" xmlns="http://www.w3.org/2000/svg" xmlns:xlink="http://www.w3.org/1999/xlink"><g><path d="M45.47913,40.45592H4.5208c-1.9445,0-3.52083-1.57633-3.52083-3.52083V4.52085   c0-1.9445,1.57633-3.52083,3.52083-3.52083h40.95833c1.9445,0,3.52083,1.57633,3.52083,3.52083v32.41425   C48.99996,38.8796,47.42363,40.45592,45.47913,40.45592z" fill="#E7E3E6"/><path d="M48.99997,8.02625V4.52084c0-1.94453-1.57633-3.52086-3.52081-3.52086H4.52079   c-1.94448,0-3.52081,1.57633-3.52081,3.52086v3.50541H48.99997z" fill="#53B1E2"/><path d="M17.06462,8.67391H4.45078v-2.7194c0-0.67552,0.54762-1.22313,1.22313-1.22313h10.16758   c0.67552,0,1.22313,0.54762,1.22313,1.22313V8.67391z" fill="#E7E3E6"/><path d="M29.67847,8.02625H17.06462V5.95452c0-0.67552,0.54762-1.22313,1.22313-1.22313h10.16758   c0.67552,0,1.22313,0.54762,1.22313,1.22313V8.02625z" fill="#D2D2D2"/><circle cx="44.54541" cy="4.81512" fill="#E7E3E6" r="1.34955"/><circle cx="40.42996" cy="4.81512" fill="#E7E3E6" r="1.34955"/><circle cx="36.31448" cy="4.81512" fill="#E7E3E6" r="1.34955"/><g><path d="M12.98938,19.93647v-2.71389H9.76437v2.71389H8.67709v-6.19901h1.08728v2.52835h3.22501v-2.52835h1.08728    v6.19901H12.98938z" fill="#656766"/><path d="M17.33806,19.93647v-5.24133h-1.87762v-0.95768h4.84207v0.95768h-1.87716v5.24133H17.33806z" fill="#656766"/><path d="M23.16464,19.93647v-5.24133h-1.87762v-0.95768h4.84207v0.95768h-1.87716v5.24133H23.16464z" fill="#656766"/><path d="M27.51331,19.93647v-6.19901h2.73253c1.30101,0,2.01677,0.8831,2.01677,1.94265    c0,1.05045-0.72486,1.93264-2.01677,1.93264H28.6006v2.32372H27.51331z M31.14714,15.68011    c0-0.5948-0.43655-0.98497-1.04999-0.98497H28.6006v1.96084h1.49655C30.71059,16.65598,31.14714,16.26581,31.14714,15.68011z" fill="#656766"/><path d="M32.97746,20.12201l2.20276-6.57008h0.72486l-2.20276,6.57008H32.97746z" fill="#656766"/><path d="M36.83411,19.93647v-0.86401c2.40694-1.82169,3.35507-2.62112,3.35507-3.52241    c0-0.65119-0.56706-0.93858-1.13412-0.93858c-0.72485,0-1.27282,0.2874-1.67253,0.73395l-0.63209-0.70667    c0.54842-0.66847,1.42197-0.99406,2.29552-0.99406c1.1987,0,2.23959,0.66938,2.23959,1.90536    c0,1.15231-1.04999,2.17456-2.70433,3.42874h2.74162v0.95768H36.83411z" fill="#656766"/></g><g><circle cx="24.99997" cy="37.00002" fill="#656766" r="11.9994"/><circle cx="24.99997" cy="37.00002" fill="#FFFFFF" r="9.58893"/><g><path d="M16.97365,37.00003h2.44193c0.06731-3.03098,2.53727-5.47017,5.58439-5.47017v-2.44193     C20.60337,29.08794,17.04135,32.61954,16.97365,37.00003z" fill="#85BD57"/><path d="M24.99997,29.08794v2.44193c3.04712,0,5.51708,2.43918,5.58439,5.47017h2.44193     C32.95859,32.61954,29.3966,29.08794,24.99997,29.08794z" fill="#EC6E62"/></g><path d="M24.90631,38.00916c-0.27672,0.31534-0.76442,0.32504-1.05207,0.01677    c-0.28766-0.30827-0.24426-0.79411,0.08943-1.0484c0,0,3.67105-2.89458,3.88751-2.66262    C28.04762,34.54688,24.90631,38.00916,24.90631,38.00916z" fill="#656766"/><circle cx="25.06219" cy="36.93481" fill="#4E4C4D" r="1.15488"/><circle cx="25.06219" cy="36.93481" fill="#656766" r="0.57329"/><g><path d="M21.08695,42.68863L21.08695,42.68863c-0.37782,0-0.68411-0.30629-0.68411-0.68411v-0.78184     c0-0.37783,0.30629-0.68411,0.68411-0.68411l0,0c0.37782,0,0.68411,0.30629,0.68411,0.68411v0.78184     C21.77106,42.38234,21.46478,42.68863,21.08695,42.68863z" fill="#E7E3E6"/><path d="M23.69563,42.68863L23.69563,42.68863c-0.37782,0-0.68411-0.30629-0.68411-0.68411v-0.78184     c0-0.37783,0.30629-0.68411,0.68411-0.68411l0,0c0.37782,0,0.68411,0.30629,0.68411,0.68411v0.78184     C24.37974,42.38234,24.07345,42.68863,23.69563,42.68863z" fill="#E7E3E6"/><path d="M26.3043,42.68863L26.3043,42.68863c-0.37782,0-0.68411-0.30629-0.68411-0.68411v-0.78184     c0-0.37783,0.30629-0.68411,0.68411-0.68411l0,0c0.37782,0,0.68411,0.30629,0.68411,0.68411v0.78184     C26.98841,42.38234,26.68213,42.68863,26.3043,42.68863z" fill="#E7E3E6"/><path d="M28.91298,42.68863L28.91298,42.68863c-0.37782,0-0.68411-0.30629-0.68411-0.68411v-0.78184     c0-0.37783,0.30629-0.68411,0.68411-0.68411h0c0.37782,0,0.68411,0.30629,0.68411,0.68411v0.78184     C29.59709,42.38234,29.2908,42.68863,28.91298,42.68863z" fill="#E7E3E6"/></g></g></g></svg>