<?xml version="1.0" ?><!DOCTYPE svg  PUBLIC '-//W3C//DTD SVG 1.1//EN'  'http://www.w3.org/Graphics/SVG/1.1/DTD/svg11.dtd'><svg enable-background="new 0 0 50 50" id="Layer_1" version="1.1" viewBox="0 0 50 50" xml:space="preserve" xmlns="http://www.w3.org/2000/svg" xmlns:xlink="http://www.w3.org/1999/xlink"><g><path d="M27.42716,37.97365H3.37195c-1.31001,0-2.37198,1.06197-2.37198,2.37198v5.68487   c0,1.31001,1.06197,2.37199,2.37198,2.37199h24.05521c1.31001,0,2.37198-1.06197,2.37198-2.37199v-5.68487   C29.79915,39.03562,28.73717,37.97365,27.42716,37.97365z" fill="#656766"/><path d="M27.42716,24.453H3.37195c-1.31001,0-2.37198,1.06197-2.37198,2.37198v5.68487   c0,1.31001,1.06197,2.37198,2.37198,2.37198h24.05521c1.31001,0,2.37198-1.06197,2.37198-2.37198v-5.68487   C29.79915,25.51497,28.73717,24.453,27.42716,24.453z" fill="#656766"/><path d="M27.42716,10.93911H3.37195c-1.31001,0-2.37198,1.06197-2.37198,2.37198v5.68487   c0,1.31001,1.06197,2.37198,2.37198,2.37198h24.05521c1.31001,0,2.37198-1.06197,2.37198-2.37198v-5.68487   C29.79915,12.00108,28.73717,10.93911,27.42716,10.93911z" fill="#656766"/><rect fill="#4E4C4D" height="3.09181" width="23.70859" x="3.54527" y="34.88184"/><rect fill="#4E4C4D" height="3.09181" width="23.70859" x="3.54527" y="21.36119"/><g><circle cx="6.55463" cy="16.15353" fill="#EC6E62" r="2.00697"/><circle cx="12.25864" cy="16.15353" fill="#85BD57" r="2.00697"/></g><g><circle cx="6.55463" cy="29.66742" fill="#EC6E62" r="2.00697"/><circle cx="12.25864" cy="29.66742" fill="#85BD57" r="2.00697"/></g><g><circle cx="6.55463" cy="43.18806" fill="#EC6E62" r="2.00697"/><circle cx="12.25864" cy="43.18806" fill="#85BD57" r="2.00697"/></g><path d="M46.78577,5.77846c-4.501,0.5352-8.20477-0.81942-11.28495-3.63849   c-0.7902-0.72327-1.97526-0.72327-2.76546,0C29.65517,4.9591,25.9514,6.31365,21.45034,5.77846   c-1.21568-0.1445-2.2832,0.8556-2.21071,2.0777C20.192,23.90665,30.21903,29.86,33.25307,31.30178   c0.55103,0.26179,1.17901,0.26179,1.73003,0C38.01715,29.86,48.04412,23.90665,48.99648,7.85616   C49.06897,6.63406,48.00145,5.63396,46.78577,5.77846z" fill="#53B1E2"/><path d="M34.11381,28.38583c-2.84101-1.44447-10.58167-6.53286-11.78457-19.51692   c0.34131,0.01907,0.67969,0.02885,1.01513,0.02885c4.01556,0,7.62721-1.33493,10.77335-3.97546   c3.14614,2.64053,6.75877,3.97546,10.77335,3.97546c0.33447,0,0.67285-0.00978,1.01416-0.02836   C44.69352,21.82803,36.91375,26.94919,34.11381,28.38583z" fill="#22A7D4"/></g></svg>