<?xml version="1.0" ?><!DOCTYPE svg  PUBLIC '-//W3C//DTD SVG 1.1//EN'  'http://www.w3.org/Graphics/SVG/1.1/DTD/svg11.dtd'><svg enable-background="new 0 0 50 50" id="Layer_1" version="1.1" viewBox="0 0 50 50" xml:space="preserve" xmlns="http://www.w3.org/2000/svg" xmlns:xlink="http://www.w3.org/1999/xlink"><g><g><g><rect fill="#D2D2D2" height="1.73194" width="9.72965" x="7.36351" y="16.29962"/><path d="M17.97851,17.82128H6.47817c-0.57186,0-1.03544,0.46358-1.03544,1.03544v0     c0,0.57186,0.46358,1.03544,1.03544,1.03544h11.50035c0.57186,0,1.03544-0.46358,1.03544-1.03544v0     C19.01395,18.28486,18.55037,17.82128,17.97851,17.82128z" fill="#E7E3E6"/><path d="M21.35081,1H3.10587C1.91889,1,0.95666,1.96223,0.95666,3.14918v11.16206     c0,1.18698,0.96223,2.14921,2.14921,2.14921h18.24494c1.18698,0,2.14921-0.96224,2.14921-2.14921V3.14918     C23.50002,1.96223,22.53779,1,21.35081,1z" fill="#E7E3E6"/></g><path d="M3.106,13.84428c-0.60826,0-1.10309-0.49458-1.10309-1.10258V3.14905    c0-0.608,0.49483-1.10258,1.10309-1.10258h18.24468c0.60826,0,1.10309,0.49458,1.10309,1.10258v9.59265    c0,0.608-0.49483,1.10258-1.10309,1.10258H3.106z" fill="#FFC966"/></g><g><g><rect fill="#D2D2D2" height="1.73194" width="9.72965" x="32.90678" y="16.29962"/><path d="M43.52178,17.82128H32.02143c-0.57186,0-1.03544,0.46358-1.03544,1.03544v0     c0,0.57186,0.46358,1.03544,1.03544,1.03544h11.50035c0.57186,0,1.03544-0.46358,1.03544-1.03544v0     C44.55722,18.28486,44.09364,17.82128,43.52178,17.82128z" fill="#E7E3E6"/><path d="M46.89407,1H28.64913c-1.18698,0-2.14921,0.96223-2.14921,2.14918v11.16206     c0,1.18698,0.96223,2.14921,2.14921,2.14921h18.24494c1.18698,0,2.14921-0.96224,2.14921-2.14921V3.14918     C49.04329,1.96223,48.08105,1,46.89407,1z" fill="#E7E3E6"/></g><path d="M28.64926,13.84428c-0.60826,0-1.10309-0.49458-1.10309-1.10258V3.14905    c0-0.608,0.49483-1.10258,1.10309-1.10258h18.24468c0.60826,0,1.10309,0.49458,1.10309,1.10258v9.59265    c0,0.608-0.49483,1.10258-1.10309,1.10258H28.64926z" fill="#53B1E2"/></g><g><g><rect fill="#D2D2D2" height="1.73194" width="9.72965" x="7.36351" y="45.40746"/><path d="M17.97851,46.92912H6.47817c-0.57186,0-1.03544,0.46358-1.03544,1.03544l0,0     C5.44273,48.53642,5.90631,49,6.47817,49h11.50035c0.57186,0,1.03544-0.46358,1.03544-1.03544l0,0     C19.01395,47.3927,18.55037,46.92912,17.97851,46.92912z" fill="#E7E3E6"/><path d="M21.35081,30.10784H3.10587c-1.18698,0-2.14921,0.96223-2.14921,2.14918v11.16206     c0,1.18698,0.96223,2.14921,2.14921,2.14921h18.24494c1.18698,0,2.14921-0.96223,2.14921-2.14921V32.25702     C23.50002,31.07007,22.53779,30.10784,21.35081,30.10784z" fill="#E7E3E6"/></g><path d="M3.106,42.95212c-0.60826,0-1.10309-0.49458-1.10309-1.10258v-9.59265    c0-0.608,0.49483-1.10258,1.10309-1.10258h18.24468c0.60826,0,1.10309,0.49458,1.10309,1.10258v9.59265    c0,0.608-0.49483,1.10258-1.10309,1.10258H3.106z" fill="#85BD57"/></g><g><g><rect fill="#D2D2D2" height="1.73194" width="9.72965" x="32.90678" y="45.40746"/><path d="M43.52178,46.92912H32.02143c-0.57186,0-1.03544,0.46358-1.03544,1.03544l0,0     c0,0.57186,0.46358,1.03544,1.03544,1.03544h11.50035c0.57186,0,1.03544-0.46358,1.03544-1.03544l0,0     C44.55722,47.3927,44.09364,46.92912,43.52178,46.92912z" fill="#E7E3E6"/><path d="M46.89407,30.10784H28.64913c-1.18698,0-2.14921,0.96223-2.14921,2.14918v11.16206     c0,1.18698,0.96223,2.14921,2.14921,2.14921h18.24494c1.18698,0,2.14921-0.96223,2.14921-2.14921V32.25702     C49.04329,31.07007,48.08105,30.10784,46.89407,30.10784z" fill="#E7E3E6"/></g><path d="M28.64926,42.95212c-0.60826,0-1.10309-0.49458-1.10309-1.10258v-9.59265    c0-0.608,0.49483-1.10258,1.10309-1.10258h18.24468c0.60826,0,1.10309,0.49458,1.10309,1.10258v9.59265    c0,0.608-0.49483,1.10258-1.10309,1.10258H28.64926z" fill="#EC6E62"/></g><g><path d="M37.67314,11.53568H12.24017c-1.45044,0-2.62625,1.17581-2.62625,2.62625v4.57163    c0,1.45044,1.17581,2.62626,2.62625,2.62626h25.43297c1.45044,0,2.62626-1.17581,2.62626-2.62626v-4.57163    C40.2994,12.71149,39.12358,11.53568,37.67314,11.53568z" fill="#656766"/><g><circle cx="14.33774" cy="16.44775" fill="#EC6E62" r="1.82567"/><circle cx="19.19543" cy="16.44775" fill="#85BD57" r="1.82567"/><circle cx="24.05315" cy="16.44775" fill="#53B1E2" r="1.82567"/></g><path d="M37.67314,24.36628H12.24017c-1.45044,0-2.62625,1.17582-2.62625,2.62626v4.57163    c0,1.45044,1.17581,2.62625,2.62625,2.62625h25.43297c1.45044,0,2.62626-1.17581,2.62626-2.62625v-4.57163    C40.2994,25.5421,39.12358,24.36628,37.67314,24.36628z" fill="#656766"/><g><circle cx="14.33774" cy="29.27835" fill="#EC6E62" r="1.82567"/><circle cx="19.19543" cy="29.27835" fill="#85BD57" r="1.82567"/><circle cx="24.05315" cy="29.27835" fill="#53B1E2" r="1.82567"/></g><rect fill="#4E4C4D" height="3.00646" width="22.78811" x="13.56259" y="21.35982"/></g></g></svg>