<?xml version="1.0" ?><!DOCTYPE svg  PUBLIC '-//W3C//DTD SVG 1.1//EN'  'http://www.w3.org/Graphics/SVG/1.1/DTD/svg11.dtd'><svg enable-background="new 0 0 50 50" id="Layer_1" version="1.1" viewBox="0 0 50 50" xml:space="preserve" xmlns="http://www.w3.org/2000/svg" xmlns:xlink="http://www.w3.org/1999/xlink"><g><path d="M46.8942,5.141H3.10575c-1.16296,0-2.10577,0.94275-2.10577,2.10571v27.27117   c0,1.16296,0.94281,2.10571,2.10577,2.10571H46.8942c1.16302,0,2.10577-0.94275,2.10577-2.10571V7.24672   C48.99997,6.08375,48.05722,5.141,46.8942,5.141z" fill="#E7E3E6"/><rect fill="#656766" height="23.74885" width="42.6767" x="3.66171" y="7.66322"/><g><g><path d="M7.38655,8.86543c-0.11214,0-0.22428,0.0428-0.30988,0.12841c-0.17121,0.17121-0.17121,0.44856,0,0.61977     l1.3531,1.3531l-1.3531,1.3531c-0.17121,0.17121-0.17121,0.44856,0,0.61977c0.17121,0.17121,0.44856,0.17121,0.61977,0     l1.66299-1.66299c0.17121-0.17121,0.17121-0.44856,0-0.61977L7.69643,8.99384C7.61083,8.90823,7.49869,8.86543,7.38655,8.86543z" fill="#85BD57"/></g><g><path d="M11.23251,10.08984c-0.24197,0-0.43829,0.19632-0.43829,0.43829s0.19617,0.43829,0.43829,0.43829     l2.35224,0.00029c0.24197,0,0.43829-0.19603,0.43829-0.43829c0-0.24197-0.19617-0.43829-0.43829-0.43829L11.23251,10.08984z" fill="#53B1E2"/></g></g><path d="M39.47686,44.859c2.0737,0,3.29712-2.40324,2.00921-4.02851   c-0.95669-1.20729-2.27928-2.1229-3.83393-2.56975l-6.49255-1.86719c-0.67314-0.85754-0.8365-1.87671-0.65942-3.00378   l1.14825-4.46887c0.60773-0.02588,0.87152-0.3194,0.85986-0.82495c-0.01166-0.47589,0.15259-0.93359,0.39441-1.34222   c0.03876-0.06598,0.06335-0.12799,0.06335-0.17719c0.00128-0.24048-0.32843-0.64001-0.28705-0.87665   c0.07758-0.4397,0.70856-0.92847,0.578-1.35516c-0.33362-1.09265-1.21808-0.57672-1.21808-0.57672s0.75769-5.19684,0-6.68774   c-0.52374-1.0293-1.21161-1.8465-2.00555-2.46716c-0.00134-0.00128-0.00262-0.00262-0.00391-0.00391   c-1.25946-1.15985-2.94434-1.1366-3.0943-2.05725c0,0-0.24957,0.13318-0.21338,0.62714   c0.01038,0.14996,0.04657,0.33099,0.12415,0.55212c-0.41638-0.19781-0.68146-0.42023-0.84436-0.64008   c-0.47198-0.63873-0.10217-1.26459-0.10217-1.26459c-2.96112,0.08405-4.20245,1.98096-4.23999,2.04047   c-0.00128,0.00128-0.00128,0.00128-0.00128,0.00128c-1.50897,0.68011-2.83051,1.77411-3.6969,3.21197   c-0.86243,1.43274,0,6.68774,0,6.68774s-0.88446-0.51593-1.21802,0.57672c-0.13062,0.4267,0.50037,0.91547,0.57794,1.35516   c0.04138,0.23663-0.28833,0.63617-0.28833,0.87665c0,0.04919,0.0246,0.11121,0.06464,0.17719   c0.24182,0.40863,0.40479,0.86633,0.39441,1.34222c-0.01166,0.50555,0.25214,0.79907,0.85992,0.82495l1.14819,4.46887   c0.30026,1.09943,0.12227,2.10861-0.65942,3.00378l-6.49249,1.86719c-1.55462,0.44683-2.87751,1.36238-3.83436,2.5696   C7.22555,42.45553,8.449,44.859,10.52279,44.859H39.47686z" fill="#EC6E62"/></g></svg>