<?xml version="1.0" ?><!DOCTYPE svg  PUBLIC '-//W3C//DTD SVG 1.1//EN'  'http://www.w3.org/Graphics/SVG/1.1/DTD/svg11.dtd'><svg enable-background="new 0 0 50 50" id="Layer_1" version="1.1" viewBox="0 0 50 50" xml:space="preserve" xmlns="http://www.w3.org/2000/svg" xmlns:xlink="http://www.w3.org/1999/xlink"><g><g><rect fill="#4E4C4D" height="27.08283" width="26.76658" x="5.96656" y="12.17998"/><g><path d="M32.86918,35.63804H5.83052c-2.66784,0-4.83055,2.16271-4.83055,4.83055v3.70087     C0.99997,46.83729,3.16268,49,5.83052,49h27.03866c2.66784,0,4.83055-2.16271,4.83055-4.83055v-3.70087     C37.69973,37.80075,35.53702,35.63804,32.86918,35.63804z" fill="#656766"/><path d="M32.86918,18.31469H5.83052c-2.66784,0-4.83055,2.16271-4.83055,4.83055v3.70086     c0,2.66784,2.16271,4.83055,4.83055,4.83055h27.03866c2.66784,0,4.83055-2.16271,4.83055-4.83055v-3.70086     C37.69973,20.4774,35.53702,18.31469,32.86918,18.31469z" fill="#656766"/></g><path d="M32.86918,1H5.83052C3.16268,1,0.99997,3.16271,0.99997,5.83055v3.70086    c0,2.66784,2.16271,4.83055,4.83055,4.83055h27.03866c2.66784,0,4.83055-2.16271,4.83055-4.83055V5.83055    C37.69973,3.16271,35.53702,1,32.86918,1z" fill="#656766"/><g><circle cx="8.11686" cy="7.68098" fill="#EC6E62" r="2.57143"/><circle cx="15.42515" cy="7.68098" fill="#85BD57" r="2.57143"/></g><g><circle cx="8.11686" cy="24.99567" fill="#EC6E62" r="2.57143"/><circle cx="15.42515" cy="24.99567" fill="#85BD57" r="2.57143"/></g><g><circle cx="8.11686" cy="42.31902" fill="#EC6E62" r="2.57143"/><circle cx="15.42515" cy="42.31902" fill="#85BD57" r="2.57143"/></g></g><path d="M43.52244,44.03924h-9.80872c-3.02516,0-5.47753-2.45237-5.47753-5.47753v-9.80872   c0-3.02516,2.45237-5.47753,5.47753-5.47753h9.80872c3.02515,0,5.47753,2.45237,5.47753,5.47753v9.80872   C48.99997,41.58686,46.5476,44.03924,43.52244,44.03924z" fill="#53B1E2"/><g><path d="M38.61808,24.99567c-4.77588,0-8.66167,3.88597-8.66167,8.66167c0,4.77605,3.8858,8.66167,8.66167,8.66167    c4.7757,0,8.66167-3.88563,8.66167-8.66167C47.27975,28.88165,43.39378,24.99567,38.61808,24.99567z M38.61808,26.18515    c4.11913,0,7.46752,3.3534,7.46752,7.47237c0,4.11913-3.34838,7.46752-7.46752,7.46752    c-4.11898,0-7.46752-3.34839-7.46752-7.46752C31.15056,29.53855,34.4991,26.18515,38.61808,26.18515z M38.61808,27.42882    c-2.1769,0-4.09303,1.11409-5.20712,2.80549c0.14629,0.00465,0.2872,0.00901,0.404,0.00901    c0.65155,0,1.65697-0.08164,1.65697-0.08164c0.33572-0.01961,0.3764,0.4733,0.04082,0.51295c0,0-0.33732,0.04387-0.7127,0.06363    l2.26987,6.74613l1.36192-4.09027l-0.97158-2.65572c-0.33572-0.01976-0.65372-0.06363-0.65372-0.06363    c-0.33587-0.0199-0.29504-0.53271,0.04082-0.51295c0,0,1.02663,0.08164,1.63881,0.08164c0.6514,0,1.66162-0.08164,1.66162-0.08164    c0.33587-0.01961,0.37684,0.4733,0.04082,0.51295c0,0-0.33761,0.04387-0.7127,0.06363l2.25186,6.69601l0.62191-2.07913    c0.26904-0.86233,0.47635-1.47799,0.47635-2.01114c0-0.77037-0.27573-1.30556-0.51266-1.7206    c-0.31582-0.51354-0.61319-0.94833-0.61319-1.46173c0-0.57266,0.43247-1.10319,1.04422-1.10319    c0.02745,0,0.05491,0.00305,0.08164,0.0045C41.71789,28.04738,40.24018,27.42882,38.61808,27.42882z M44.08393,30.66562    c0.02673,0.19844,0.04532,0.41519,0.04532,0.64472c0,0.63208-0.12115,1.34013-0.47663,2.22905l-1.90219,5.50202    c1.85221-1.07995,3.09618-3.08543,3.09618-5.38406C44.84661,32.57405,44.5703,31.55308,44.08393,30.66562z M32.92517,31.11959    c-0.3456,0.77488-0.53562,1.63445-0.53562,2.53775c0,2.46628,1.43064,4.59684,3.50919,5.60662L32.92517,31.11959z     M38.72703,34.20211l-1.87037,5.43404c0.55843,0.1643,1.14997,0.24973,1.76142,0.24973c0.72549,0,1.4225-0.12174,2.07012-0.34953    c-0.01641-0.02673-0.03297-0.05549-0.04533-0.08629L38.72703,34.20211z" fill="#FFFFFF"/></g></g></svg>