<?xml version="1.0" ?><svg enable-background="new 0 0 52 52" id="Layer_1" version="1.1" viewBox="0 0 52 52" xml:space="preserve" xmlns="http://www.w3.org/2000/svg" xmlns:xlink="http://www.w3.org/1999/xlink"><g><path d="M40,18V2H12v16H40z M17.9526367,16h-2v-2h2V16z M21.9526367,16h-2v-2h2V16z M15,6h22v6H15V6z"/><path d="M12,20v30h28V20H12z M19.9500122,24c2.210022,0,4,1.789978,4,4s-1.789978,4-4,4c-2.2000122,0-4-1.789978-4-4   S17.75,24,19.9500122,24z M35.9526367,46H15.9951172v-2h19.9575195V46z M35.9526367,41H15.9951172v-2h19.9575195V41z    M35.9526367,36H15.9951172v-2h19.9575195V36z"/></g></svg>