<?xml version="1.0" ?><svg enable-background="new 0 0 500 500" id="Layer_1" version="1.1" viewBox="0 0 500 500" xml:space="preserve" xmlns="http://www.w3.org/2000/svg" xmlns:xlink="http://www.w3.org/1999/xlink"><path d="M50.1,317.3V110c0-8.3,6.8-15,15-15h371.7  c8.3,0,15,6.8,15,15v207.3" fill="#FFFFFF" stroke="#000000" stroke-miterlimit="10" stroke-width="22"/><path d="M465.6,387.1h-431c-8.2,0-15-6.8-15-15v-6.4c0-8.3,6.8-15,15-15h431c8.3,0,15,6.8,15,15v6.4  C480.6,380.3,473.9,387.1,465.6,387.1z"/><path d="M248.7,101.7L248.7,101.7c-2.6,0-4.7-2.1-4.7-4.7v0c0-2.6,2.1-4.7,4.7-4.7h0c2.6,0,4.7,2.1,4.7,4.7v0  C253.3,99.6,251.2,101.7,248.7,101.7z" fill="#FFFFFF"/><polygon points="479.1,359.3 20.7,360.1 39.2,316.6 462.8,316.6 "/><path d="M281.8,376.2h-61.6c-5.7,0-10.3-4.6-10.3-10.3v-4.1c0-5.7,4.6-10.3,10.3-10.3h61.6c5.7,0,10.3,4.6,10.3,10.3  v4.1C292.1,371.6,287.5,376.2,281.8,376.2z" fill="#FFFFFF"/></svg>